<svg xmlns="http://www.w3.org/2000/svg" xmlns:xlink="http://www.w3.org/1999/xlink" width="1440" height="255.39"><rect width="1440" height="255.39" rx="5" ry="5" class="a"/><svg y="0%" x="0%"><circle cx="20" cy="20" r="6" fill="#ff5f58"/><circle cx="40" cy="20" r="6" fill="#ffbd2e"/><circle cx="60" cy="20" r="6" fill="#18c132"/></svg><svg height="195.39" viewBox="0 0 140 19.539" width="1400" x="15" xmlns="http://www.w3.org/2000/svg" xmlns:xlink="http://www.w3.org/1999/xlink" y="50"><style>@keyframes j{0%{transform:translateX(0)}.2%{transform:translateX(-280px)}2.4%{transform:translateX(-420px)}3.5%{transform:translateX(-560px)}4.7%{transform:translateX(-700px)}5.9%{transform:translateX(-840px)}7%{transform:translateX(-980px)}8.1%{transform:translateX(-1120px)}9.3%{transform:translateX(-1260px)}10.4%{transform:translateX(-1400px)}11.6%{transform:translateX(-1540px)}12.8%{transform:translateX(-1680px)}13.9%{transform:translateX(-1820px)}15%{transform:translateX(-1960px)}16.2%{transform:translateX(-2100px)}18.4%{transform:translateX(-2240px)}19.5%{transform:translateX(-2380px)}20.6%{transform:translateX(-2520px)}22%{transform:translateX(-2660px)}23%{transform:translateX(-2800px)}24.1%{transform:translateX(-2940px)}25.4%{transform:translateX(-3080px)}26.5%{transform:translateX(-3360px)}51%{transform:translateX(-3500px)}75.5%{transform:translateX(-3640px)}to{transform:translateX(-3780px)}}.a{fill:#282d35}.f,.g{fill:#fff;white-space:pre}.g{fill:#b9c0cb}</style><g font-family="Monaco,Consolas,Menlo,'Bitstream Vera Sans Mono','Powerline Symbols',monospace" font-size="1.67"><defs><symbol id="1"><text y="1.67" class="f">kafka-producer-perf-test</text><text x="25.05" y="1.67" class="f">\</text></symbol><symbol id="2"><text x="4.008" y="1.67" class="f">--topic</text><text x="12.024" y="1.67" class="f">physical-kafka</text><text x="27.054" y="1.67" class="f">\</text></symbol><symbol id="3"><text x="4.008" y="1.67" class="f">--throughput</text><text x="17.034" y="1.67" class="f">-1</text><text x="20.04" y="1.67" class="f">\</text></symbol><symbol id="4"><text x="4.008" y="1.67" class="f">--num-records</text><text x="18.036" y="1.67" class="f">2500000</text><text x="26.052" y="1.67" class="f">\</text></symbol><symbol id="5"><text x="4.008" y="1.67" class="f">--record-size</text><text x="18.036" y="1.67" class="f">255</text><text x="22.044" y="1.67" class="f">\</text></symbol><symbol id="6"><text x="4.008" y="1.67" class="f">--producer-props</text><text x="21.042" y="1.67" class="f">bootstrap.servers=localhost:29092,localhost:29093,localhost:29094</text></symbol><symbol id="7"><text y="1.67" class="g">955486</text><text x="7.014" y="1.67" class="g">records</text><text x="15.03" y="1.67" class="g">sent,</text><text x="21.042" y="1.67" class="g">191097,2</text><text x="30.06" y="1.67" class="g">records/sec</text><text x="42.084" y="1.67" class="g">(46,47</text><text x="49.098" y="1.67" class="g">MB/sec),</text><text x="58.116" y="1.67" class="g">524,1</text><text x="64.128" y="1.67" class="g">ms</text><text x="67.134" y="1.67" class="g">avg</text><text x="71.142" y="1.67" class="g">latency,</text><text x="80.16" y="1.67" class="g">1008,0</text><text x="87.174" y="1.67" class="g">ms</text><text x="90.18" y="1.67" class="g">max</text><text x="94.188" y="1.67" class="g">latency.</text></symbol><symbol id="8"><text y="1.67" class="g">1080615</text><text x="8.016" y="1.67" class="g">records</text><text x="16.032" y="1.67" class="g">sent,</text><text x="22.044" y="1.67" class="g">216123,0</text><text x="31.062" y="1.67" class="g">records/sec</text><text x="43.086" y="1.67" class="g">(52,56</text><text x="50.1" y="1.67" class="g">MB/sec),</text><text x="59.118" y="1.67" class="g">545,9</text><text x="65.13" y="1.67" class="g">ms</text><text x="68.136" y="1.67" class="g">avg</text><text x="72.144" y="1.67" class="g">latency,</text><text x="81.162" y="1.67" class="g">1154,0</text><text x="88.176" y="1.67" class="g">ms</text><text x="91.182" y="1.67" class="g">max</text><text x="95.19" y="1.67" class="g">latency.</text></symbol><symbol id="a"><path fill="transparent" d="M0 0h140v10H0z"/></symbol><symbol id="b"><path fill="#6f7683" d="M0 0h1.102v2.171H0z"/></symbol></defs><path class="a" d="M0 0h140v19.539H0z"/><g style="animation-duration:8.165689s;animation-iteration-count:infinite;animation-name:j;animation-timing-function:steps(1,end)"><svg width="3920"><svg><use xlink:href="#a"/><use xlink:href="#b" x="-.004"/></svg><svg x="140"><use xlink:href="#a"/><use xlink:href="#b" x="-.004"/></svg><svg x="280"><use xlink:href="#a"/><use xlink:href="#b" x="9.996"/><text y="1.67" class="f">kafka-prod</text></svg><svg x="420"><use xlink:href="#a"/><use xlink:href="#b" x="19.996"/><text y="1.67" class="f">kafka-producer-perf-</text></svg><svg x="560"><use xlink:href="#a"/><use xlink:href="#b" x="2.996" y="2.146"/><use xlink:href="#1"/></svg><svg x="700"><use xlink:href="#a"/><use xlink:href="#b" x="12.996" y="2.146"/><use xlink:href="#1"/><text x="4.008" y="3.841" class="f">--topic</text><text x="12.024" y="3.841" class="f">p</text></svg><svg x="840"><use xlink:href="#a"/><use xlink:href="#b" x="22.996" y="2.146"/><use xlink:href="#1"/><text x="4.008" y="3.841" class="f">--topic</text><text x="12.024" y="3.841" class="f">physical-ka</text></svg><svg x="980"><use xlink:href="#a"/><use xlink:href="#b" x="3.996" y="4.317"/><use xlink:href="#1"/><use xlink:href="#2" y="2.171"/></svg><svg x="1120"><use xlink:href="#a"/><use xlink:href="#b" x="13.996" y="4.317"/><use xlink:href="#1"/><use xlink:href="#2" y="2.171"/><text x="4.008" y="6.012" class="f">--throughp</text></svg><svg x="1260"><use xlink:href="#a"/><use xlink:href="#b" x="1.996" y="6.488"/><use xlink:href="#1"/><use xlink:href="#2" y="2.171"/><use xlink:href="#3" y="4.342"/></svg><svg x="1400"><use xlink:href="#a"/><use xlink:href="#b" x="11.996" y="6.488"/><use xlink:href="#1"/><use xlink:href="#2" y="2.171"/><use xlink:href="#3" y="4.342"/><text x="4.008" y="8.183" class="f">--num-re</text></svg><svg x="1540"><use xlink:href="#a"/><use xlink:href="#b" x="21.996" y="6.488"/><use xlink:href="#1"/><use xlink:href="#2" y="2.171"/><use xlink:href="#3" y="4.342"/><text x="4.008" y="8.183" class="f">--num-records</text><text x="18.036" y="8.183" class="f">2500</text></svg><svg x="1680"><use xlink:href="#a"/><use xlink:href="#b" x="3.996" y="8.659"/><use xlink:href="#1"/><use xlink:href="#2" y="2.171"/><use xlink:href="#3" y="4.342"/><use xlink:href="#4" y="6.513"/></svg><svg x="1820"><use xlink:href="#a"/><use xlink:href="#b" x="13.996" y="8.659"/><use xlink:href="#1"/><use xlink:href="#2" y="2.171"/><use xlink:href="#3" y="4.342"/><use xlink:href="#4" y="6.513"/><text x="4.008" y="10.354" class="f">--record-s</text></svg><svg x="1960"><use xlink:href="#a"/><use xlink:href="#b" x="-.004" y="10.83"/><use xlink:href="#1"/><use xlink:href="#2" y="2.171"/><use xlink:href="#3" y="4.342"/><use xlink:href="#4" y="6.513"/><use xlink:href="#5" y="8.684"/></svg><svg x="2100"><use xlink:href="#a"/><use xlink:href="#b" x="9.996" y="10.83"/><use xlink:href="#1"/><use xlink:href="#2" y="2.171"/><use xlink:href="#3" y="4.342"/><use xlink:href="#4" y="6.513"/><use xlink:href="#5" y="8.684"/><text x="4.008" y="12.525" class="f">--prod</text></svg><svg x="2240"><use xlink:href="#a"/><use xlink:href="#b" x="19.996" y="10.83"/><use xlink:href="#1"/><use xlink:href="#2" y="2.171"/><use xlink:href="#3" y="4.342"/><use xlink:href="#4" y="6.513"/><use xlink:href="#5" y="8.684"/><text x="4.008" y="12.525" class="f">--producer-props</text></svg><svg x="2380"><use xlink:href="#a"/><use xlink:href="#b" x="29.996" y="10.83"/><use xlink:href="#1"/><use xlink:href="#2" y="2.171"/><use xlink:href="#3" y="4.342"/><use xlink:href="#4" y="6.513"/><use xlink:href="#5" y="8.684"/><text x="4.008" y="12.525" class="f">--producer-props</text><text x="21.042" y="12.525" class="f">bootstrap</text></svg><svg x="2520"><use xlink:href="#a"/><use xlink:href="#b" x="39.996" y="10.83"/><use xlink:href="#1"/><use xlink:href="#2" y="2.171"/><use xlink:href="#3" y="4.342"/><use xlink:href="#4" y="6.513"/><use xlink:href="#5" y="8.684"/><text x="4.008" y="12.525" class="f">--producer-props</text><text x="21.042" y="12.525" class="f">bootstrap.servers=l</text></svg><svg x="2660"><use xlink:href="#a"/><use xlink:href="#b" x="49.996" y="10.83"/><use xlink:href="#1"/><use xlink:href="#2" y="2.171"/><use xlink:href="#3" y="4.342"/><use xlink:href="#4" y="6.513"/><use xlink:href="#5" y="8.684"/><text x="4.008" y="12.525" class="f">--producer-props</text><text x="21.042" y="12.525" class="f">bootstrap.servers=localhost:2</text></svg><svg x="2800"><use xlink:href="#a"/><use xlink:href="#b" x="59.996" y="10.83"/><use xlink:href="#1"/><use xlink:href="#2" y="2.171"/><use xlink:href="#3" y="4.342"/><use xlink:href="#4" y="6.513"/><use xlink:href="#5" y="8.684"/><text x="4.008" y="12.525" class="f">--producer-props</text><text x="21.042" y="12.525" class="f">bootstrap.servers=localhost:29092,local</text></svg><svg x="2940"><use xlink:href="#a"/><use xlink:href="#b" x="69.996" y="10.83"/><use xlink:href="#1"/><use xlink:href="#2" y="2.171"/><use xlink:href="#3" y="4.342"/><use xlink:href="#4" y="6.513"/><use xlink:href="#5" y="8.684"/><text x="4.008" y="12.525" class="f">--producer-props</text><text x="21.042" y="12.525" class="f">bootstrap.servers=localhost:29092,localhost:29093</text></svg><svg x="3080"><use xlink:href="#a"/><use xlink:href="#b" x="79.996" y="10.83"/><use xlink:href="#1"/><use xlink:href="#2" y="2.171"/><use xlink:href="#3" y="4.342"/><use xlink:href="#4" y="6.513"/><use xlink:href="#5" y="8.684"/><text x="4.008" y="12.525" class="f">--producer-props</text><text x="21.042" y="12.525" class="f">bootstrap.servers=localhost:29092,localhost:29093,localhost</text></svg><svg x="3220"><use xlink:href="#a"/><use xlink:href="#b" x="85.996" y="10.83"/><use xlink:href="#1"/><use xlink:href="#2" y="2.171"/><use xlink:href="#3" y="4.342"/><use xlink:href="#4" y="6.513"/><use xlink:href="#5" y="8.684"/><use xlink:href="#6" y="10.855"/></svg><svg x="3360"><use xlink:href="#a"/><use xlink:href="#b" x="-.004" y="13.001"/><use xlink:href="#1"/><use xlink:href="#2" y="2.171"/><use xlink:href="#3" y="4.342"/><use xlink:href="#4" y="6.513"/><use xlink:href="#5" y="8.684"/><use xlink:href="#6" y="10.855"/></svg><svg x="3500"><use xlink:href="#a"/><use xlink:href="#b" x="-.004" y="15.172"/><use xlink:href="#1"/><use xlink:href="#2" y="2.171"/><use xlink:href="#3" y="4.342"/><use xlink:href="#4" y="6.513"/><use xlink:href="#5" y="8.684"/><use xlink:href="#6" y="10.855"/><use xlink:href="#7" y="13.026"/></svg><svg x="3640"><use xlink:href="#a"/><use xlink:href="#b" x="-.004" y="17.343"/><use xlink:href="#1"/><use xlink:href="#2" y="2.171"/><use xlink:href="#3" y="4.342"/><use xlink:href="#4" y="6.513"/><use xlink:href="#5" y="8.684"/><use xlink:href="#6" y="10.855"/><use xlink:href="#7" y="13.026"/><use xlink:href="#8" y="15.197"/></svg><svg x="3780"><use xlink:href="#a"/><use xlink:href="#b" x="-.004" y="19.514"/><use xlink:href="#2"/><use xlink:href="#3" y="2.171"/><use xlink:href="#4" y="4.342"/><use xlink:href="#5" y="6.513"/><use xlink:href="#6" y="8.684"/><use xlink:href="#7" y="10.855"/><use xlink:href="#8" y="13.026"/><text y="16.867" class="g">2500000</text><text x="8.016" y="16.867" class="g">records</text><text x="16.032" y="16.867" class="g">sent,</text><text x="22.044" y="16.867" class="g">185363,683547</text><text x="36.072" y="16.867" class="g">records/sec</text><text x="48.096" y="16.867" class="g">(45,08</text><text x="55.11" y="16.867" class="g">MB/sec),</text><text x="64.128" y="16.867" class="g">605,63</text><text x="71.142" y="16.867" class="g">ms</text><text x="74.148" y="16.867" class="g">avg</text><text x="78.156" y="16.867" class="g">latency,</text><text x="87.174" y="16.867" class="g">1558,00</text><text x="95.19" y="16.867" class="g">ms</text><text x="98.196" y="16.867" class="g">max</text><text x="102.204" y="16.867" class="g">latency,</text><text x="111.222" y="16.867" class="g">575</text><text x="115.23" y="16.867" class="g">ms</text><text x="118.236" y="16.867" class="g">50th,</text><text x="124.248" y="16.867" class="g">1064</text><text x="129.258" y="16.867" class="g">ms</text><text x="132.264" y="16.867" class="g">95th,</text><text x="138.276" y="16.867" class="g">14</text><text y="19.038" class="g">05</text><text x="3.006" y="19.038" class="g">ms</text><text x="6.012" y="19.038" class="g">99th,</text><text x="12.024" y="19.038" class="g">1509</text><text x="17.034" y="19.038" class="g">ms</text><text x="20.04" y="19.038" class="g">99.9th.</text></svg></svg></g></g></svg></svg>