<svg xmlns="http://www.w3.org/2000/svg" xmlns:xlink="http://www.w3.org/1999/xlink" width="1440" height="342.23"><rect width="1440" height="342.23" rx="5" ry="5" class="a"/><svg y="0%" x="0%"><circle cx="20" cy="20" r="6" fill="#ff5f58"/><circle cx="40" cy="20" r="6" fill="#ffbd2e"/><circle cx="60" cy="20" r="6" fill="#18c132"/></svg><svg height="282.23" viewBox="0 0 140 28.223" width="1400" x="15" xmlns="http://www.w3.org/2000/svg" xmlns:xlink="http://www.w3.org/1999/xlink" y="50"><style>@keyframes j{0%{transform:translateX(0)}.1%{transform:translateX(-280px)}1.4%{transform:translateX(-420px)}2%{transform:translateX(-560px)}2.6%{transform:translateX(-700px)}3.3%{transform:translateX(-840px)}3.9%{transform:translateX(-980px)}4.6%{transform:translateX(-1120px)}5.2%{transform:translateX(-1260px)}5.9%{transform:translateX(-1400px)}6.7%{transform:translateX(-1540px)}7.3%{transform:translateX(-1680px)}8%{transform:translateX(-1820px)}8.6%{transform:translateX(-1960px)}9.3%{transform:translateX(-2100px)}9.9%{transform:translateX(-2240px)}11.2%{transform:translateX(-2380px)}11.9%{transform:translateX(-2520px)}12.5%{transform:translateX(-2660px)}13.2%{transform:translateX(-2800px)}13.9%{transform:translateX(-2940px)}14.5%{transform:translateX(-3080px)}15.1%{transform:translateX(-3220px)}15.8%{transform:translateX(-3500px)}29.8%{transform:translateX(-3640px)}29.9%{transform:translateX(-3780px)}43.9%{transform:translateX(-3920px)}57.9%{transform:translateX(-4060px)}71.9%{transform:translateX(-4200px)}85.9%{transform:translateX(-4340px)}86%{transform:translateX(-4620px)}to{transform:translateX(-4900px)}}.a{fill:#282d35}.f,.g{fill:#fff;white-space:pre}.g{fill:#b9c0cb}</style><g font-family="Monaco,Consolas,Menlo,'Bitstream Vera Sans Mono','Powerline Symbols',monospace" font-size="1.67"><defs><symbol id="1"><text y="1.67" class="f">kafka-producer-perf-test</text><text x="25.05" y="1.67" class="f">\</text></symbol><symbol id="2"><text x="4.008" y="1.67" class="f">--topic</text><text x="12.024" y="1.67" class="f">via-gateway</text><text x="24.048" y="1.67" class="f">\</text></symbol><symbol id="3"><text x="4.008" y="1.67" class="f">--throughput</text><text x="17.034" y="1.67" class="f">-1</text><text x="20.04" y="1.67" class="f">\</text></symbol><symbol id="4"><text x="4.008" y="1.67" class="f">--num-records</text><text x="18.036" y="1.67" class="f">2500000</text><text x="26.052" y="1.67" class="f">\</text></symbol><symbol id="5"><text x="4.008" y="1.67" class="f">--record-size</text><text x="18.036" y="1.67" class="f">255</text><text x="22.044" y="1.67" class="f">\</text></symbol><symbol id="6"><text x="4.008" y="1.67" class="f">--producer-props</text><text x="21.042" y="1.67" class="f">bootstrap.servers=localhost:6969</text><text x="54.108" y="1.67" class="f">\</text></symbol><symbol id="7"><text x="4.008" y="1.67" class="f">--producer.config</text><text x="22.044" y="1.67" class="f">teamA-sa.properties</text></symbol><symbol id="8"><text y="1.67" class="g">175437</text><text x="7.014" y="1.67" class="g">records</text><text x="15.03" y="1.67" class="g">sent,</text><text x="21.042" y="1.67" class="g">34982,5</text><text x="29.058" y="1.67" class="g">records/sec</text><text x="41.082" y="1.67" class="g">(8,51</text><text x="47.094" y="1.67" class="g">MB/sec),</text><text x="56.112" y="1.67" class="g">2277,8</text><text x="63.126" y="1.67" class="g">ms</text><text x="66.132" y="1.67" class="g">avg</text><text x="70.14" y="1.67" class="g">latency,</text><text x="79.158" y="1.67" class="g">3426,0</text><text x="86.172" y="1.67" class="g">ms</text><text x="89.178" y="1.67" class="g">max</text><text x="93.186" y="1.67" class="g">latency.</text></symbol><symbol id="9"><text y="1.67" class="g">403271</text><text x="7.014" y="1.67" class="g">records</text><text x="15.03" y="1.67" class="g">sent,</text><text x="21.042" y="1.67" class="g">80380,9</text><text x="29.058" y="1.67" class="g">records/sec</text><text x="41.082" y="1.67" class="g">(19,55</text><text x="48.096" y="1.67" class="g">MB/sec),</text><text x="57.114" y="1.67" class="g">1716,9</text><text x="64.128" y="1.67" class="g">ms</text><text x="67.134" y="1.67" class="g">avg</text><text x="71.142" y="1.67" class="g">latency,</text><text x="80.16" y="1.67" class="g">3027,0</text><text x="87.174" y="1.67" class="g">ms</text><text x="90.18" y="1.67" class="g">max</text><text x="94.188" y="1.67" class="g">latency.</text></symbol><symbol id="10"><text y="1.67" class="g">427488</text><text x="7.014" y="1.67" class="g">records</text><text x="15.03" y="1.67" class="g">sent,</text><text x="21.042" y="1.67" class="g">85446,3</text><text x="29.058" y="1.67" class="g">records/sec</text><text x="41.082" y="1.67" class="g">(20,78</text><text x="48.096" y="1.67" class="g">MB/sec),</text><text x="57.114" y="1.67" class="g">1457,0</text><text x="64.128" y="1.67" class="g">ms</text><text x="67.134" y="1.67" class="g">avg</text><text x="71.142" y="1.67" class="g">latency,</text><text x="80.16" y="1.67" class="g">1928,0</text><text x="87.174" y="1.67" class="g">ms</text><text x="90.18" y="1.67" class="g">max</text><text x="94.188" y="1.67" class="g">latency.</text></symbol><symbol id="11"><text y="1.67" class="g">446276</text><text x="7.014" y="1.67" class="g">records</text><text x="15.03" y="1.67" class="g">sent,</text><text x="21.042" y="1.67" class="g">89166,0</text><text x="29.058" y="1.67" class="g">records/sec</text><text x="41.082" y="1.67" class="g">(21,68</text><text x="48.096" y="1.67" class="g">MB/sec),</text><text x="57.114" y="1.67" class="g">1467,7</text><text x="64.128" y="1.67" class="g">ms</text><text x="67.134" y="1.67" class="g">avg</text><text x="71.142" y="1.67" class="g">latency,</text><text x="80.16" y="1.67" class="g">2074,0</text><text x="87.174" y="1.67" class="g">ms</text><text x="90.18" y="1.67" class="g">max</text><text x="94.188" y="1.67" class="g">latency.</text></symbol><symbol id="12"><text y="1.67" class="g">563884</text><text x="7.014" y="1.67" class="g">records</text><text x="15.03" y="1.67" class="g">sent,</text><text x="21.042" y="1.67" class="g">112776,8</text><text x="30.06" y="1.67" class="g">records/sec</text><text x="42.084" y="1.67" class="g">(27,43</text><text x="49.098" y="1.67" class="g">MB/sec),</text><text x="58.116" y="1.67" class="g">1121,5</text><text x="65.13" y="1.67" class="g">ms</text><text x="68.136" y="1.67" class="g">avg</text><text x="72.144" y="1.67" class="g">latency,</text><text x="81.162" y="1.67" class="g">1473,0</text><text x="88.176" y="1.67" class="g">ms</text><text x="91.182" y="1.67" class="g">max</text><text x="95.19" y="1.67" class="g">latency.</text></symbol><symbol id="13"><text y="1.67" class="g">2500000</text><text x="8.016" y="1.67" class="g">records</text><text x="16.032" y="1.67" class="g">sent,</text><text x="22.044" y="1.67" class="g">86251,509401</text><text x="35.07" y="1.67" class="g">records/sec</text><text x="47.094" y="1.67" class="g">(20,98</text><text x="54.108" y="1.67" class="g">MB/sec),</text><text x="63.126" y="1.67" class="g">1402,94</text><text x="71.142" y="1.67" class="g">ms</text><text x="74.148" y="1.67" class="g">avg</text><text x="78.156" y="1.67" class="g">latency,</text><text x="87.174" y="1.67" class="g">3426,00</text><text x="95.19" y="1.67" class="g">ms</text><text x="98.196" y="1.67" class="g">max</text><text x="102.204" y="1.67" class="g">latency,</text><text x="111.222" y="1.67" class="g">1344</text><text x="116.232" y="1.67" class="g">ms</text><text x="119.238" y="1.67" class="g">50th,</text><text x="125.25" y="1.67" class="g">2286</text><text x="130.26" y="1.67" class="g">ms</text><text x="133.266" y="1.67" class="g">95th,</text><text x="139.278" y="1.67" class="g">3</text></symbol><symbol id="a"><path fill="transparent" d="M0 0h140v14H0z"/></symbol><symbol id="b"><path fill="#6f7683" d="M0 0h1.102v2.171H0z"/></symbol></defs><path class="a" d="M0 0h140v28.223H0z"/><g style="animation-duration:14.263581999999996s;animation-iteration-count:infinite;animation-name:j;animation-timing-function:steps(1,end)"><svg width="5040"><svg><use xlink:href="#a"/><use xlink:href="#b" x="-.004"/></svg><svg x="140"><use xlink:href="#a"/><use xlink:href="#b" x="-.004"/></svg><svg x="280"><use xlink:href="#a"/><use xlink:href="#b" x="9.996"/><text y="1.67" class="f">kafka-prod</text></svg><svg x="420"><use xlink:href="#a"/><use xlink:href="#b" x="19.996"/><text y="1.67" class="f">kafka-producer-perf-</text></svg><svg x="560"><use xlink:href="#a"/><use xlink:href="#b" x="2.996" y="2.146"/><use xlink:href="#1"/></svg><svg x="700"><use xlink:href="#a"/><use xlink:href="#b" x="12.996" y="2.146"/><use xlink:href="#1"/><text x="4.008" y="3.841" class="f">--topic</text><text x="12.024" y="3.841" class="f">v</text></svg><svg x="840"><use xlink:href="#a"/><use xlink:href="#b" x="22.996" y="2.146"/><use xlink:href="#1"/><text x="4.008" y="3.841" class="f">--topic</text><text x="12.024" y="3.841" class="f">via-gateway</text></svg><svg x="980"><use xlink:href="#a"/><use xlink:href="#b" x="6.996" y="4.317"/><use xlink:href="#1"/><use xlink:href="#2" y="2.171"/><text x="4.008" y="6.012" class="f">--t</text></svg><svg x="1120"><use xlink:href="#a"/><use xlink:href="#b" x="16.996" y="4.317"/><use xlink:href="#1"/><use xlink:href="#2" y="2.171"/><text x="4.008" y="6.012" class="f">--throughput</text></svg><svg x="1260"><use xlink:href="#a"/><use xlink:href="#b" x="4.996" y="6.488"/><use xlink:href="#1"/><use xlink:href="#2" y="2.171"/><use xlink:href="#3" y="4.342"/><text x="4.008" y="8.183" class="f">-</text></svg><svg x="1400"><use xlink:href="#a"/><use xlink:href="#b" x="14.996" y="6.488"/><use xlink:href="#1"/><use xlink:href="#2" y="2.171"/><use xlink:href="#3" y="4.342"/><text x="4.008" y="8.183" class="f">--num-recor</text></svg><svg x="1540"><use xlink:href="#a"/><use xlink:href="#b" x="24.996" y="6.488"/><use xlink:href="#1"/><use xlink:href="#2" y="2.171"/><use xlink:href="#3" y="4.342"/><text x="4.008" y="8.183" class="f">--num-records</text><text x="18.036" y="8.183" class="f">2500000</text></svg><svg x="1680"><use xlink:href="#a"/><use xlink:href="#b" x="6.996" y="8.659"/><use xlink:href="#1"/><use xlink:href="#2" y="2.171"/><use xlink:href="#3" y="4.342"/><use xlink:href="#4" y="6.513"/><text x="4.008" y="10.354" class="f">--r</text></svg><svg x="1820"><use xlink:href="#a"/><use xlink:href="#b" x="16.996" y="8.659"/><use xlink:href="#1"/><use xlink:href="#2" y="2.171"/><use xlink:href="#3" y="4.342"/><use xlink:href="#4" y="6.513"/><text x="4.008" y="10.354" class="f">--record-size</text></svg><svg x="1960"><use xlink:href="#a"/><use xlink:href="#b" x="2.996" y="10.83"/><use xlink:href="#1"/><use xlink:href="#2" y="2.171"/><use xlink:href="#3" y="4.342"/><use xlink:href="#4" y="6.513"/><use xlink:href="#5" y="8.684"/></svg><svg x="2100"><use xlink:href="#a"/><use xlink:href="#b" x="12.996" y="10.83"/><use xlink:href="#1"/><use xlink:href="#2" y="2.171"/><use xlink:href="#3" y="4.342"/><use xlink:href="#4" y="6.513"/><use xlink:href="#5" y="8.684"/><text x="4.008" y="12.525" class="f">--produce</text></svg><svg x="2240"><use xlink:href="#a"/><use xlink:href="#b" x="22.996" y="10.83"/><use xlink:href="#1"/><use xlink:href="#2" y="2.171"/><use xlink:href="#3" y="4.342"/><use xlink:href="#4" y="6.513"/><use xlink:href="#5" y="8.684"/><text x="4.008" y="12.525" class="f">--producer-props</text><text x="21.042" y="12.525" class="f">bo</text></svg><svg x="2380"><use xlink:href="#a"/><use xlink:href="#b" x="32.996" y="10.83"/><use xlink:href="#1"/><use xlink:href="#2" y="2.171"/><use xlink:href="#3" y="4.342"/><use xlink:href="#4" y="6.513"/><use xlink:href="#5" y="8.684"/><text x="4.008" y="12.525" class="f">--producer-props</text><text x="21.042" y="12.525" class="f">bootstrap.se</text></svg><svg x="2520"><use xlink:href="#a"/><use xlink:href="#b" x="42.996" y="10.83"/><use xlink:href="#1"/><use xlink:href="#2" y="2.171"/><use xlink:href="#3" y="4.342"/><use xlink:href="#4" y="6.513"/><use xlink:href="#5" y="8.684"/><text x="4.008" y="12.525" class="f">--producer-props</text><text x="21.042" y="12.525" class="f">bootstrap.servers=loca</text></svg><svg x="2660"><use xlink:href="#a"/><use xlink:href="#b" x="52.996" y="10.83"/><use xlink:href="#1"/><use xlink:href="#2" y="2.171"/><use xlink:href="#3" y="4.342"/><use xlink:href="#4" y="6.513"/><use xlink:href="#5" y="8.684"/><text x="4.008" y="12.525" class="f">--producer-props</text><text x="21.042" y="12.525" class="f">bootstrap.servers=localhost:6969</text></svg><svg x="2800"><use xlink:href="#a"/><use xlink:href="#b" x="6.996" y="13.001"/><use xlink:href="#1"/><use xlink:href="#2" y="2.171"/><use xlink:href="#3" y="4.342"/><use xlink:href="#4" y="6.513"/><use xlink:href="#5" y="8.684"/><use xlink:href="#6" y="10.855"/><text x="4.008" y="14.696" class="f">--p</text></svg><svg x="2940"><use xlink:href="#a"/><use xlink:href="#b" x="16.996" y="13.001"/><use xlink:href="#1"/><use xlink:href="#2" y="2.171"/><use xlink:href="#3" y="4.342"/><use xlink:href="#4" y="6.513"/><use xlink:href="#5" y="8.684"/><use xlink:href="#6" y="10.855"/><text x="4.008" y="14.696" class="f">--producer.co</text></svg><svg x="3080"><use xlink:href="#a"/><use xlink:href="#b" x="26.996" y="13.001"/><use xlink:href="#1"/><use xlink:href="#2" y="2.171"/><use xlink:href="#3" y="4.342"/><use xlink:href="#4" y="6.513"/><use xlink:href="#5" y="8.684"/><use xlink:href="#6" y="10.855"/><text x="4.008" y="14.696" class="f">--producer.config</text><text x="22.044" y="14.696" class="f">teamA</text></svg><svg x="3220"><use xlink:href="#a"/><use xlink:href="#b" x="36.996" y="13.001"/><use xlink:href="#1"/><use xlink:href="#2" y="2.171"/><use xlink:href="#3" y="4.342"/><use xlink:href="#4" y="6.513"/><use xlink:href="#5" y="8.684"/><use xlink:href="#6" y="10.855"/><text x="4.008" y="14.696" class="f">--producer.config</text><text x="22.044" y="14.696" class="f">teamA-sa.proper</text></svg><svg x="3360"><use xlink:href="#a"/><use xlink:href="#b" x="40.996" y="13.001"/><use xlink:href="#1"/><use xlink:href="#2" y="2.171"/><use xlink:href="#3" y="4.342"/><use xlink:href="#4" y="6.513"/><use xlink:href="#5" y="8.684"/><use xlink:href="#6" y="10.855"/><use xlink:href="#7" y="13.026"/></svg><svg x="3500"><use xlink:href="#a"/><use xlink:href="#b" x="-.004" y="15.172"/><use xlink:href="#1"/><use xlink:href="#2" y="2.171"/><use xlink:href="#3" y="4.342"/><use xlink:href="#4" y="6.513"/><use xlink:href="#5" y="8.684"/><use xlink:href="#6" y="10.855"/><use xlink:href="#7" y="13.026"/></svg><svg x="3640"><use xlink:href="#a"/><use xlink:href="#b" x="20.996" y="15.172"/><use xlink:href="#1"/><use xlink:href="#2" y="2.171"/><use xlink:href="#3" y="4.342"/><use xlink:href="#4" y="6.513"/><use xlink:href="#5" y="8.684"/><use xlink:href="#6" y="10.855"/><use xlink:href="#7" y="13.026"/><text y="16.867" class="g">175437</text><text x="7.014" y="16.867" class="g">records</text><text x="15.03" y="16.867" class="g">sent,</text></svg><svg x="3780"><use xlink:href="#a"/><use xlink:href="#b" x="-.004" y="17.343"/><use xlink:href="#1"/><use xlink:href="#2" y="2.171"/><use xlink:href="#3" y="4.342"/><use xlink:href="#4" y="6.513"/><use xlink:href="#5" y="8.684"/><use xlink:href="#6" y="10.855"/><use xlink:href="#7" y="13.026"/><use xlink:href="#8" y="15.197"/></svg><svg x="3920"><use xlink:href="#a"/><use xlink:href="#b" x="-.004" y="19.514"/><use xlink:href="#1"/><use xlink:href="#2" y="2.171"/><use xlink:href="#3" y="4.342"/><use xlink:href="#4" y="6.513"/><use xlink:href="#5" y="8.684"/><use xlink:href="#6" y="10.855"/><use xlink:href="#7" y="13.026"/><use xlink:href="#8" y="15.197"/><use xlink:href="#9" y="17.368"/></svg><svg x="4060"><use xlink:href="#a"/><use xlink:href="#b" x="-.004" y="21.685"/><use xlink:href="#1"/><use xlink:href="#2" y="2.171"/><use xlink:href="#3" y="4.342"/><use xlink:href="#4" y="6.513"/><use xlink:href="#5" y="8.684"/><use xlink:href="#6" y="10.855"/><use xlink:href="#7" y="13.026"/><use xlink:href="#8" y="15.197"/><use xlink:href="#9" y="17.368"/><use xlink:href="#10" y="19.539"/></svg><svg x="4200"><use xlink:href="#a"/><use xlink:href="#b" x="-.004" y="23.856"/><use xlink:href="#1"/><use xlink:href="#2" y="2.171"/><use xlink:href="#3" y="4.342"/><use xlink:href="#4" y="6.513"/><use xlink:href="#5" y="8.684"/><use xlink:href="#6" y="10.855"/><use xlink:href="#7" y="13.026"/><use xlink:href="#8" y="15.197"/><use xlink:href="#9" y="17.368"/><use xlink:href="#10" y="19.539"/><use xlink:href="#11" y="21.71"/></svg><svg x="4340"><use xlink:href="#a"/><use xlink:href="#b" x="20.996" y="23.856"/><use xlink:href="#1"/><use xlink:href="#2" y="2.171"/><use xlink:href="#3" y="4.342"/><use xlink:href="#4" y="6.513"/><use xlink:href="#5" y="8.684"/><use xlink:href="#6" y="10.855"/><use xlink:href="#7" y="13.026"/><use xlink:href="#8" y="15.197"/><use xlink:href="#9" y="17.368"/><use xlink:href="#10" y="19.539"/><use xlink:href="#11" y="21.71"/><text y="25.551" class="g">563884</text><text x="7.014" y="25.551" class="g">records</text><text x="15.03" y="25.551" class="g">sent,</text></svg><svg x="4480"><use xlink:href="#a"/><use xlink:href="#b" x="28.996" y="23.856"/><use xlink:href="#1"/><use xlink:href="#2" y="2.171"/><use xlink:href="#3" y="4.342"/><use xlink:href="#4" y="6.513"/><use xlink:href="#5" y="8.684"/><use xlink:href="#6" y="10.855"/><use xlink:href="#7" y="13.026"/><use xlink:href="#8" y="15.197"/><use xlink:href="#9" y="17.368"/><use xlink:href="#10" y="19.539"/><use xlink:href="#11" y="21.71"/><text y="25.551" class="g">563884</text><text x="7.014" y="25.551" class="g">records</text><text x="15.03" y="25.551" class="g">sent,</text><text x="21.042" y="25.551" class="g">112776,8</text></svg><svg x="4620"><use xlink:href="#a"/><use xlink:href="#b" x="-.004" y="26.027"/><use xlink:href="#1"/><use xlink:href="#2" y="2.171"/><use xlink:href="#3" y="4.342"/><use xlink:href="#4" y="6.513"/><use xlink:href="#5" y="8.684"/><use xlink:href="#6" y="10.855"/><use xlink:href="#7" y="13.026"/><use xlink:href="#8" y="15.197"/><use xlink:href="#9" y="17.368"/><use xlink:href="#10" y="19.539"/><use xlink:href="#11" y="21.71"/><use xlink:href="#12" y="23.881"/></svg><svg x="4760"><use xlink:href="#a"/><use xlink:href="#b" x="2.996" y="28.198"/><use xlink:href="#1"/><use xlink:href="#2" y="2.171"/><use xlink:href="#3" y="4.342"/><use xlink:href="#4" y="6.513"/><use xlink:href="#5" y="8.684"/><use xlink:href="#6" y="10.855"/><use xlink:href="#7" y="13.026"/><use xlink:href="#8" y="15.197"/><use xlink:href="#9" y="17.368"/><use xlink:href="#10" y="19.539"/><use xlink:href="#11" y="21.71"/><use xlink:href="#12" y="23.881"/><use xlink:href="#13" y="26.052"/><text y="29.893" class="g">246</text></svg><svg x="4900"><use xlink:href="#a"/><use xlink:href="#b" x="-.004" y="28.198"/><use xlink:href="#2"/><use xlink:href="#3" y="2.171"/><use xlink:href="#4" y="4.342"/><use xlink:href="#5" y="6.513"/><use xlink:href="#6" y="8.684"/><use xlink:href="#7" y="10.855"/><use xlink:href="#8" y="13.026"/><use xlink:href="#9" y="15.197"/><use xlink:href="#10" y="17.368"/><use xlink:href="#11" y="19.539"/><use xlink:href="#12" y="21.71"/><use xlink:href="#13" y="23.881"/><text y="27.722" class="g">246</text><text x="4.008" y="27.722" class="g">ms</text><text x="7.014" y="27.722" class="g">99th,</text><text x="13.026" y="27.722" class="g">3387</text><text x="18.036" y="27.722" class="g">ms</text><text x="21.042" y="27.722" class="g">99.9th.</text></svg></svg></g></g></svg></svg>