<svg xmlns="http://www.w3.org/2000/svg" xmlns:xlink="http://www.w3.org/1999/xlink" width="1440" height="429.07"><rect width="1440" height="429.07" rx="5" ry="5" class="a"/><svg y="0%" x="0%"><circle cx="20" cy="20" r="6" fill="#ff5f58"/><circle cx="40" cy="20" r="6" fill="#ffbd2e"/><circle cx="60" cy="20" r="6" fill="#18c132"/></svg><svg height="369.07" viewBox="0 0 140 36.907" width="1400" x="15" xmlns="http://www.w3.org/2000/svg" xmlns:xlink="http://www.w3.org/1999/xlink" y="50"><style>@keyframes j{0%{transform:translateX(0)}.1%{transform:translateX(-140px)}.2%{transform:translateX(-280px)}2.1%{transform:translateX(-420px)}3%{transform:translateX(-560px)}4%{transform:translateX(-700px)}4.9%{transform:translateX(-840px)}5.9%{transform:translateX(-980px)}6.8%{transform:translateX(-1120px)}7.7%{transform:translateX(-1260px)}8.7%{transform:translateX(-1400px)}9.6%{transform:translateX(-1540px)}10.5%{transform:translateX(-1680px)}11.5%{transform:translateX(-1820px)}12.4%{transform:translateX(-1960px)}13.4%{transform:translateX(-2100px)}14.3%{transform:translateX(-2240px)}16.2%{transform:translateX(-2380px)}17.2%{transform:translateX(-2520px)}18.1%{transform:translateX(-2660px)}19.1%{transform:translateX(-2800px)}20%{transform:translateX(-2940px)}20.9%{transform:translateX(-3080px)}21%{transform:translateX(-3220px)}29.8%{transform:translateX(-3500px)}39.6%{transform:translateX(-3780px)}59.8%{transform:translateX(-4480px)}69.7%{transform:translateX(-4760px)}89.9%{transform:translateX(-4900px)}to{transform:translateX(-5460px)}}.a{fill:#282d35}.f,.g{fill:#fff;white-space:pre}.g{fill:#b9c0cb}</style><g font-family="Monaco,Consolas,Menlo,'Bitstream Vera Sans Mono','Powerline Symbols',monospace" font-size="1.67"><defs><symbol id="1"><text y="1.67" class="f">kafka-producer-perf-test</text><text x="25.05" y="1.67" class="f">\</text></symbol><symbol id="2"><text x="2.004" y="1.67" class="f">--producer-props</text><text x="19.038" y="1.67" class="f">bootstrap.servers=localhost:6969</text><text x="52.104" y="1.67" class="f">\</text></symbol><symbol id="3"><text x="2.004" y="1.67" class="f">--producer.config</text><text x="20.04" y="1.67" class="f">teamA-sa.properties</text><text x="40.08" y="1.67" class="f">\</text></symbol><symbol id="4"><text x="2.004" y="1.67" class="f">--record-size</text><text x="16.032" y="1.67" class="f">10</text><text x="19.038" y="1.67" class="f">\</text></symbol><symbol id="5"><text x="2.004" y="1.67" class="f">--throughput</text><text x="15.03" y="1.67" class="f">1</text><text x="17.034" y="1.67" class="f">\</text></symbol><symbol id="6"><text x="2.004" y="1.67" class="f">--num-records</text><text x="16.032" y="1.67" class="f">10</text><text x="19.038" y="1.67" class="f">\</text></symbol><symbol id="7"><text x="2.004" y="1.67" class="f">--topic</text><text x="10.02" y="1.67" class="f">my-topic</text></symbol><symbol id="8"><text y="1.67" class="g">[2024-01-22</text><text x="12.024" y="1.67" class="g">18:06:22,025]</text><text x="26.052" y="1.67" class="g">WARN</text><text x="31.062" y="1.67" class="g">[Producer</text><text x="41.082" y="1.67" class="g">clientId=perf-producer-client]</text><text x="72.144" y="1.67" class="g">Got</text><text x="76.152" y="1.67" class="g">error</text><text x="82.164" y="1.67" class="g">produce</text><text x="90.18" y="1.67" class="g">response</text><text x="99.198" y="1.67" class="g">with</text><text x="104.208" y="1.67" class="g">correlation</text><text x="116.232" y="1.67" class="g">id</text><text x="119.238" y="1.67" class="g">4</text><text x="121.242" y="1.67" class="g">on</text><text x="124.248" y="1.67" class="g">topic-partition</text></symbol><symbol id="9"><text y="1.67" class="g">my-topic-0,</text><text x="12.024" y="1.67" class="g">retrying</text><text x="21.042" y="1.67" class="g">(2147483646</text><text x="33.066" y="1.67" class="g">attempts</text><text x="42.084" y="1.67" class="g">left).</text><text x="49.098" y="1.67" class="g">Error:</text><text x="56.112" y="1.67" class="g">NOT_LEADER_OR_FOLLOWER</text><text x="79.158" y="1.67" class="g">(org.apache.kafka.clients.producer.internals.Sender)</text></symbol><symbol id="10"><text y="1.67" class="g">[2024-01-22</text><text x="12.024" y="1.67" class="g">18:06:22,025]</text><text x="26.052" y="1.67" class="g">WARN</text><text x="31.062" y="1.67" class="g">[Producer</text><text x="41.082" y="1.67" class="g">clientId=perf-producer-client]</text><text x="72.144" y="1.67" class="g">Received</text><text x="81.162" y="1.67" class="g">invalid</text><text x="89.178" y="1.67" class="g">metadata</text><text x="98.196" y="1.67" class="g">error</text><text x="104.208" y="1.67" class="g">in</text><text x="107.214" y="1.67" class="g">produce</text><text x="115.23" y="1.67" class="g">request</text><text x="123.246" y="1.67" class="g">on</text><text x="126.252" y="1.67" class="g">partition</text><text x="136.272" y="1.67" class="g">my-t</text></symbol><symbol id="11"><text y="1.67" class="g">opic-0</text><text x="7.014" y="1.67" class="g">due</text><text x="11.022" y="1.67" class="g">to</text><text x="14.028" y="1.67" class="g">org.apache.kafka.common.errors.NotLeaderOrFollowerException:</text><text x="75.15" y="1.67" class="g">For</text><text x="79.158" y="1.67" class="g">requests</text><text x="88.176" y="1.67" class="g">intended</text><text x="97.194" y="1.67" class="g">only</text><text x="102.204" y="1.67" class="g">for</text><text x="106.212" y="1.67" class="g">the</text><text x="110.22" y="1.67" class="g">leader,</text><text x="118.236" y="1.67" class="g">this</text><text x="123.246" y="1.67" class="g">error</text><text x="129.258" y="1.67" class="g">indicates</text><text x="139.278" y="1.67" class="g">t</text></symbol><symbol id="12"><text y="1.67" class="g">hat</text><text x="4.008" y="1.67" class="g">the</text><text x="8.016" y="1.67" class="g">broker</text><text x="15.03" y="1.67" class="g">is</text><text x="18.036" y="1.67" class="g">not</text><text x="22.044" y="1.67" class="g">the</text><text x="26.052" y="1.67" class="g">current</text><text x="34.068" y="1.67" class="g">leader.</text><text x="42.084" y="1.67" class="g">For</text><text x="46.092" y="1.67" class="g">requests</text><text x="55.11" y="1.67" class="g">intended</text><text x="64.128" y="1.67" class="g">for</text><text x="68.136" y="1.67" class="g">any</text><text x="72.144" y="1.67" class="g">replica,</text><text x="81.162" y="1.67" class="g">this</text><text x="86.172" y="1.67" class="g">error</text><text x="92.184" y="1.67" class="g">indicates</text><text x="102.204" y="1.67" class="g">that</text><text x="107.214" y="1.67" class="g">the</text><text x="111.222" y="1.67" class="g">broker</text><text x="118.236" y="1.67" class="g">is</text><text x="121.242" y="1.67" class="g">not</text><text x="125.25" y="1.67" class="g">a</text><text x="127.254" y="1.67" class="g">replica</text><text x="135.27" y="1.67" class="g">of</text><text x="138.276" y="1.67" class="g">th</text></symbol><symbol id="13"><text y="1.67" class="g">e</text><text x="2.004" y="1.67" class="g">topic</text><text x="8.016" y="1.67" class="g">partition..</text><text x="20.04" y="1.67" class="g">Going</text><text x="26.052" y="1.67" class="g">to</text><text x="29.058" y="1.67" class="g">request</text><text x="37.074" y="1.67" class="g">metadata</text><text x="46.092" y="1.67" class="g">update</text><text x="53.106" y="1.67" class="g">now</text><text x="57.114" y="1.67" class="g">(org.apache.kafka.clients.producer.internals.Sender)</text></symbol><symbol id="14"><text y="1.67" class="g">[2024-01-22</text><text x="12.024" y="1.67" class="g">18:06:22,997]</text><text x="26.052" y="1.67" class="g">WARN</text><text x="31.062" y="1.67" class="g">[Producer</text><text x="41.082" y="1.67" class="g">clientId=perf-producer-client]</text><text x="72.144" y="1.67" class="g">Got</text><text x="76.152" y="1.67" class="g">error</text><text x="82.164" y="1.67" class="g">produce</text><text x="90.18" y="1.67" class="g">response</text><text x="99.198" y="1.67" class="g">with</text><text x="104.208" y="1.67" class="g">correlation</text><text x="116.232" y="1.67" class="g">id</text><text x="119.238" y="1.67" class="g">7</text><text x="121.242" y="1.67" class="g">on</text><text x="124.248" y="1.67" class="g">topic-partition</text></symbol><symbol id="15"><text y="1.67" class="g">[2024-01-22</text><text x="12.024" y="1.67" class="g">18:06:22,997]</text><text x="26.052" y="1.67" class="g">WARN</text><text x="31.062" y="1.67" class="g">[Producer</text><text x="41.082" y="1.67" class="g">clientId=perf-producer-client]</text><text x="72.144" y="1.67" class="g">Received</text><text x="81.162" y="1.67" class="g">invalid</text><text x="89.178" y="1.67" class="g">metadata</text><text x="98.196" y="1.67" class="g">error</text><text x="104.208" y="1.67" class="g">in</text><text x="107.214" y="1.67" class="g">produce</text><text x="115.23" y="1.67" class="g">request</text><text x="123.246" y="1.67" class="g">on</text><text x="126.252" y="1.67" class="g">partition</text><text x="136.272" y="1.67" class="g">my-t</text></symbol><symbol id="16"><text y="1.67" class="g">7</text><text x="2.004" y="1.67" class="g">records</text><text x="10.02" y="1.67" class="g">sent,</text><text x="16.032" y="1.67" class="g">1,3</text><text x="20.04" y="1.67" class="g">records/sec</text><text x="32.064" y="1.67" class="g">(0,00</text><text x="38.076" y="1.67" class="g">MB/sec),</text><text x="47.094" y="1.67" class="g">101,3</text><text x="53.106" y="1.67" class="g">ms</text><text x="56.112" y="1.67" class="g">avg</text><text x="60.12" y="1.67" class="g">latency,</text><text x="69.138" y="1.67" class="g">334,0</text><text x="75.15" y="1.67" class="g">ms</text><text x="78.156" y="1.67" class="g">max</text><text x="82.164" y="1.67" class="g">latency.</text></symbol><symbol id="17"><text y="1.67" class="g">[2024-01-22</text><text x="12.024" y="1.67" class="g">18:06:28,018]</text><text x="26.052" y="1.67" class="g">WARN</text><text x="31.062" y="1.67" class="g">[Producer</text><text x="41.082" y="1.67" class="g">clientId=perf-producer-client]</text><text x="72.144" y="1.67" class="g">Got</text><text x="76.152" y="1.67" class="g">error</text><text x="82.164" y="1.67" class="g">produce</text><text x="90.18" y="1.67" class="g">response</text><text x="99.198" y="1.67" class="g">with</text><text x="104.208" y="1.67" class="g">correlation</text><text x="116.232" y="1.67" class="g">id</text><text x="119.238" y="1.67" class="g">14</text><text x="122.244" y="1.67" class="g">on</text><text x="125.25" y="1.67" class="g">topic-partition</text></symbol><symbol id="18"><text x="1.002" y="1.67" class="g">my-topic-0,</text><text x="13.026" y="1.67" class="g">retrying</text><text x="22.044" y="1.67" class="g">(2147483646</text><text x="34.068" y="1.67" class="g">attempts</text><text x="43.086" y="1.67" class="g">left).</text><text x="50.1" y="1.67" class="g">Error:</text><text x="57.114" y="1.67" class="g">NOT_LEADER_OR_FOLLOWER</text><text x="80.16" y="1.67" class="g">(org.apache.kafka.clients.producer.internals.Sender)</text></symbol><symbol id="19"><text y="1.67" class="g">[2024-01-22</text><text x="12.024" y="1.67" class="g">18:06:28,018]</text><text x="26.052" y="1.67" class="g">WARN</text><text x="31.062" y="1.67" class="g">[Producer</text><text x="41.082" y="1.67" class="g">clientId=perf-producer-client]</text><text x="72.144" y="1.67" class="g">Received</text><text x="81.162" y="1.67" class="g">invalid</text><text x="89.178" y="1.67" class="g">metadata</text><text x="98.196" y="1.67" class="g">error</text><text x="104.208" y="1.67" class="g">in</text><text x="107.214" y="1.67" class="g">produce</text><text x="115.23" y="1.67" class="g">request</text><text x="123.246" y="1.67" class="g">on</text><text x="126.252" y="1.67" class="g">partition</text><text x="136.272" y="1.67" class="g">my-t</text></symbol><symbol id="20"><text y="1.67" class="g">[2024-01-22</text><text x="12.024" y="1.67" class="g">18:06:30,032]</text><text x="26.052" y="1.67" class="g">WARN</text><text x="31.062" y="1.67" class="g">[Producer</text><text x="41.082" y="1.67" class="g">clientId=perf-producer-client]</text><text x="72.144" y="1.67" class="g">Got</text><text x="76.152" y="1.67" class="g">error</text><text x="82.164" y="1.67" class="g">produce</text><text x="90.18" y="1.67" class="g">response</text><text x="99.198" y="1.67" class="g">with</text><text x="104.208" y="1.67" class="g">correlation</text><text x="116.232" y="1.67" class="g">id</text><text x="119.238" y="1.67" class="g">18</text><text x="122.244" y="1.67" class="g">on</text><text x="125.25" y="1.67" class="g">topic-partition</text></symbol><symbol id="21"><text y="1.67" class="g">[2024-01-22</text><text x="12.024" y="1.67" class="g">18:06:30,032]</text><text x="26.052" y="1.67" class="g">WARN</text><text x="31.062" y="1.67" class="g">[Producer</text><text x="41.082" y="1.67" class="g">clientId=perf-producer-client]</text><text x="72.144" y="1.67" class="g">Received</text><text x="81.162" y="1.67" class="g">invalid</text><text x="89.178" y="1.67" class="g">metadata</text><text x="98.196" y="1.67" class="g">error</text><text x="104.208" y="1.67" class="g">in</text><text x="107.214" y="1.67" class="g">produce</text><text x="115.23" y="1.67" class="g">request</text><text x="123.246" y="1.67" class="g">on</text><text x="126.252" y="1.67" class="g">partition</text><text x="136.272" y="1.67" class="g">my-t</text></symbol><symbol id="a"><path fill="transparent" d="M0 0h140v18H0z"/></symbol><symbol id="b"><path fill="#6f7683" d="M0 0h1.102v2.171H0z"/></symbol></defs><path class="a" d="M0 0h140v36.907H0z"/><g style="animation-duration:9.929177999999999s;animation-iteration-count:infinite;animation-name:j;animation-timing-function:steps(1,end)"><svg width="5600"><svg><use xlink:href="#a"/><use xlink:href="#b" x="-.004"/></svg><svg x="140"><use xlink:href="#a"/><use xlink:href="#b" x="-.004"/></svg><svg x="280"><use xlink:href="#a"/><use xlink:href="#b" x="9.996"/><text y="1.67" class="f">kafka-prod</text></svg><svg x="420"><use xlink:href="#a"/><use xlink:href="#b" x="19.996"/><text y="1.67" class="f">kafka-producer-perf-</text></svg><svg x="560"><use xlink:href="#a"/><use xlink:href="#b" x="2.996" y="2.146"/><use xlink:href="#1"/><text x="2.004" y="3.841" class="f">-</text></svg><svg x="700"><use xlink:href="#a"/><use xlink:href="#b" x="12.996" y="2.146"/><use xlink:href="#1"/><text x="2.004" y="3.841" class="f">--producer-</text></svg><svg x="840"><use xlink:href="#a"/><use xlink:href="#b" x="22.996" y="2.146"/><use xlink:href="#1"/><text x="2.004" y="3.841" class="f">--producer-props</text><text x="19.038" y="3.841" class="f">boot</text></svg><svg x="980"><use xlink:href="#a"/><use xlink:href="#b" x="32.996" y="2.146"/><use xlink:href="#1"/><text x="2.004" y="3.841" class="f">--producer-props</text><text x="19.038" y="3.841" class="f">bootstrap.serv</text></svg><svg x="1120"><use xlink:href="#a"/><use xlink:href="#b" x="42.996" y="2.146"/><use xlink:href="#1"/><text x="2.004" y="3.841" class="f">--producer-props</text><text x="19.038" y="3.841" class="f">bootstrap.servers=localh</text></svg><svg x="1260"><use xlink:href="#a"/><use xlink:href="#b" x="52.996" y="2.146"/><use xlink:href="#1"/><use xlink:href="#2" y="2.171"/></svg><svg x="1400"><use xlink:href="#a"/><use xlink:href="#b" x="8.996" y="4.317"/><use xlink:href="#1"/><use xlink:href="#2" y="2.171"/><text x="2.004" y="6.012" class="f">--produ</text></svg><svg x="1540"><use xlink:href="#a"/><use xlink:href="#b" x="18.996" y="4.317"/><use xlink:href="#1"/><use xlink:href="#2" y="2.171"/><text x="2.004" y="6.012" class="f">--producer.config</text></svg><svg x="1680"><use xlink:href="#a"/><use xlink:href="#b" x="28.996" y="4.317"/><use xlink:href="#1"/><use xlink:href="#2" y="2.171"/><text x="2.004" y="6.012" class="f">--producer.config</text><text x="20.04" y="6.012" class="f">teamA-sa.</text></svg><svg x="1820"><use xlink:href="#a"/><use xlink:href="#b" x="38.996" y="4.317"/><use xlink:href="#1"/><use xlink:href="#2" y="2.171"/><text x="2.004" y="6.012" class="f">--producer.config</text><text x="20.04" y="6.012" class="f">teamA-sa.properties</text></svg><svg x="1960"><use xlink:href="#a"/><use xlink:href="#b" x="6.996" y="6.488"/><use xlink:href="#1"/><use xlink:href="#2" y="2.171"/><use xlink:href="#3" y="4.342"/><text x="2.004" y="8.183" class="f">--rec</text></svg><svg x="2100"><use xlink:href="#a"/><use xlink:href="#b" x="16.996" y="6.488"/><use xlink:href="#1"/><use xlink:href="#2" y="2.171"/><use xlink:href="#3" y="4.342"/><text x="2.004" y="8.183" class="f">--record-size</text><text x="16.032" y="8.183" class="f">1</text></svg><svg x="2240"><use xlink:href="#a"/><use xlink:href="#b" x="5.996" y="8.659"/><use xlink:href="#1"/><use xlink:href="#2" y="2.171"/><use xlink:href="#3" y="4.342"/><use xlink:href="#4" y="6.513"/><text x="2.004" y="10.354" class="f">--th</text></svg><svg x="2380"><use xlink:href="#a"/><use xlink:href="#b" x="15.996" y="8.659"/><use xlink:href="#1"/><use xlink:href="#2" y="2.171"/><use xlink:href="#3" y="4.342"/><use xlink:href="#4" y="6.513"/><text x="2.004" y="10.354" class="f">--throughput</text><text x="15.03" y="10.354" class="f">1</text></svg><svg x="2520"><use xlink:href="#a"/><use xlink:href="#b" x="6.996" y="10.83"/><use xlink:href="#1"/><use xlink:href="#2" y="2.171"/><use xlink:href="#3" y="4.342"/><use xlink:href="#4" y="6.513"/><use xlink:href="#5" y="8.684"/><text x="2.004" y="12.525" class="f">--num</text></svg><svg x="2660"><use xlink:href="#a"/><use xlink:href="#b" x="16.996" y="10.83"/><use xlink:href="#1"/><use xlink:href="#2" y="2.171"/><use xlink:href="#3" y="4.342"/><use xlink:href="#4" y="6.513"/><use xlink:href="#5" y="8.684"/><text x="2.004" y="12.525" class="f">--num-records</text><text x="16.032" y="12.525" class="f">1</text></svg><svg x="2800"><use xlink:href="#a"/><use xlink:href="#b" x="5.996" y="13.001"/><use xlink:href="#1"/><use xlink:href="#2" y="2.171"/><use xlink:href="#3" y="4.342"/><use xlink:href="#4" y="6.513"/><use xlink:href="#5" y="8.684"/><use xlink:href="#6" y="10.855"/><text x="2.004" y="14.696" class="f">--to</text></svg><svg x="2940"><use xlink:href="#a"/><use xlink:href="#b" x="15.996" y="13.001"/><use xlink:href="#1"/><use xlink:href="#2" y="2.171"/><use xlink:href="#3" y="4.342"/><use xlink:href="#4" y="6.513"/><use xlink:href="#5" y="8.684"/><use xlink:href="#6" y="10.855"/><text x="2.004" y="14.696" class="f">--topic</text><text x="10.02" y="14.696" class="f">my-top</text></svg><svg x="3080"><use xlink:href="#a"/><use xlink:href="#b" x="17.996" y="13.001"/><use xlink:href="#1"/><use xlink:href="#2" y="2.171"/><use xlink:href="#3" y="4.342"/><use xlink:href="#4" y="6.513"/><use xlink:href="#5" y="8.684"/><use xlink:href="#6" y="10.855"/><use xlink:href="#7" y="13.026"/></svg><svg x="3220"><use xlink:href="#a"/><use xlink:href="#b" x="-.004" y="15.172"/><use xlink:href="#1"/><use xlink:href="#2" y="2.171"/><use xlink:href="#3" y="4.342"/><use xlink:href="#4" y="6.513"/><use xlink:href="#5" y="8.684"/><use xlink:href="#6" y="10.855"/><use xlink:href="#7" y="13.026"/></svg><svg x="3360"><use xlink:href="#a"/><use xlink:href="#b" x="-.004" y="19.514"/><use xlink:href="#1"/><use xlink:href="#2" y="2.171"/><use xlink:href="#3" y="4.342"/><use xlink:href="#4" y="6.513"/><use xlink:href="#5" y="8.684"/><use xlink:href="#6" y="10.855"/><use xlink:href="#7" y="13.026"/><use xlink:href="#8" y="15.197"/><use xlink:href="#9" y="17.368"/></svg><svg x="3500"><use xlink:href="#a"/><use xlink:href="#b" x="-.004" y="28.198"/><use xlink:href="#1"/><use xlink:href="#2" y="2.171"/><use xlink:href="#3" y="4.342"/><use xlink:href="#4" y="6.513"/><use xlink:href="#5" y="8.684"/><use xlink:href="#6" y="10.855"/><use xlink:href="#7" y="13.026"/><use xlink:href="#8" y="15.197"/><use xlink:href="#9" y="17.368"/><use xlink:href="#10" y="19.539"/><use xlink:href="#11" y="21.71"/><use xlink:href="#12" y="23.881"/><use xlink:href="#13" y="26.052"/></svg><svg x="3640"><use xlink:href="#a"/><use xlink:href="#b" x="-.004" y="32.54"/><use xlink:href="#1"/><use xlink:href="#2" y="2.171"/><use xlink:href="#3" y="4.342"/><use xlink:href="#4" y="6.513"/><use xlink:href="#5" y="8.684"/><use xlink:href="#6" y="10.855"/><use xlink:href="#7" y="13.026"/><use xlink:href="#8" y="15.197"/><use xlink:href="#9" y="17.368"/><use xlink:href="#10" y="19.539"/><use xlink:href="#11" y="21.71"/><use xlink:href="#12" y="23.881"/><use xlink:href="#13" y="26.052"/><use xlink:href="#14" y="28.223"/><use xlink:href="#9" y="30.394"/></svg><svg x="3780"><use xlink:href="#a"/><use xlink:href="#b" x="-.004" y="36.882"/><use xlink:href="#3"/><use xlink:href="#4" y="2.171"/><use xlink:href="#5" y="4.342"/><use xlink:href="#6" y="6.513"/><use xlink:href="#7" y="8.684"/><use xlink:href="#8" y="10.855"/><use xlink:href="#9" y="13.026"/><use xlink:href="#10" y="15.197"/><use xlink:href="#11" y="17.368"/><use xlink:href="#12" y="19.539"/><use xlink:href="#13" y="21.71"/><use xlink:href="#14" y="23.881"/><use xlink:href="#9" y="26.052"/><use xlink:href="#15" y="28.223"/><use xlink:href="#11" y="30.394"/><use xlink:href="#12" y="32.565"/><use xlink:href="#13" y="34.736"/></svg><svg x="3920"><use xlink:href="#a"/><use xlink:href="#b" x="15.996" y="36.882"/><use xlink:href="#3"/><use xlink:href="#4" y="2.171"/><use xlink:href="#5" y="4.342"/><use xlink:href="#6" y="6.513"/><use xlink:href="#7" y="8.684"/><use xlink:href="#8" y="10.855"/><use xlink:href="#9" y="13.026"/><use xlink:href="#10" y="15.197"/><use xlink:href="#11" y="17.368"/><use xlink:href="#12" y="19.539"/><use xlink:href="#13" y="21.71"/><use xlink:href="#14" y="23.881"/><use xlink:href="#9" y="26.052"/><use xlink:href="#15" y="28.223"/><use xlink:href="#11" y="30.394"/><use xlink:href="#12" y="32.565"/><use xlink:href="#13" y="34.736"/><text y="38.577" class="g">7</text><text x="2.004" y="38.577" class="g">records</text><text x="10.02" y="38.577" class="g">sent,</text></svg><svg x="4060"><use xlink:href="#a"/><use xlink:href="#b" x="51.996" y="36.882"/><use xlink:href="#3"/><use xlink:href="#4" y="2.171"/><use xlink:href="#5" y="4.342"/><use xlink:href="#6" y="6.513"/><use xlink:href="#7" y="8.684"/><use xlink:href="#8" y="10.855"/><use xlink:href="#9" y="13.026"/><use xlink:href="#10" y="15.197"/><use xlink:href="#11" y="17.368"/><use xlink:href="#12" y="19.539"/><use xlink:href="#13" y="21.71"/><use xlink:href="#14" y="23.881"/><use xlink:href="#9" y="26.052"/><use xlink:href="#15" y="28.223"/><use xlink:href="#11" y="30.394"/><use xlink:href="#12" y="32.565"/><use xlink:href="#13" y="34.736"/><text y="38.577" class="g">7</text><text x="2.004" y="38.577" class="g">records</text><text x="10.02" y="38.577" class="g">sent,</text><text x="16.032" y="38.577" class="g">1,3</text><text x="20.04" y="38.577" class="g">records/sec</text><text x="32.064" y="38.577" class="g">(0,00</text><text x="38.076" y="38.577" class="g">MB/sec),</text><text x="47.094" y="38.577" class="g">101,3</text></svg><svg x="4200"><use xlink:href="#a"/><use xlink:href="#b" x="68.996" y="36.882"/><use xlink:href="#3"/><use xlink:href="#4" y="2.171"/><use xlink:href="#5" y="4.342"/><use xlink:href="#6" y="6.513"/><use xlink:href="#7" y="8.684"/><use xlink:href="#8" y="10.855"/><use xlink:href="#9" y="13.026"/><use xlink:href="#10" y="15.197"/><use xlink:href="#11" y="17.368"/><use xlink:href="#12" y="19.539"/><use xlink:href="#13" y="21.71"/><use xlink:href="#14" y="23.881"/><use xlink:href="#9" y="26.052"/><use xlink:href="#15" y="28.223"/><use xlink:href="#11" y="30.394"/><use xlink:href="#12" y="32.565"/><use xlink:href="#13" y="34.736"/><text y="38.577" class="g">7</text><text x="2.004" y="38.577" class="g">records</text><text x="10.02" y="38.577" class="g">sent,</text><text x="16.032" y="38.577" class="g">1,3</text><text x="20.04" y="38.577" class="g">records/sec</text><text x="32.064" y="38.577" class="g">(0,00</text><text x="38.076" y="38.577" class="g">MB/sec),</text><text x="47.094" y="38.577" class="g">101,3</text><text x="53.106" y="38.577" class="g">ms</text><text x="56.112" y="38.577" class="g">avg</text><text x="60.12" y="38.577" class="g">latency,</text></svg><svg x="4340"><use xlink:href="#a"/><use xlink:href="#b" x="89.996" y="36.882"/><use xlink:href="#3"/><use xlink:href="#4" y="2.171"/><use xlink:href="#5" y="4.342"/><use xlink:href="#6" y="6.513"/><use xlink:href="#7" y="8.684"/><use xlink:href="#8" y="10.855"/><use xlink:href="#9" y="13.026"/><use xlink:href="#10" y="15.197"/><use xlink:href="#11" y="17.368"/><use xlink:href="#12" y="19.539"/><use xlink:href="#13" y="21.71"/><use xlink:href="#14" y="23.881"/><use xlink:href="#9" y="26.052"/><use xlink:href="#15" y="28.223"/><use xlink:href="#11" y="30.394"/><use xlink:href="#12" y="32.565"/><use xlink:href="#13" y="34.736"/><use xlink:href="#16" y="36.907"/></svg><svg x="4480"><use xlink:href="#a"/><use xlink:href="#b" x="-.004" y="36.882"/><use xlink:href="#4"/><use xlink:href="#5" y="2.171"/><use xlink:href="#6" y="4.342"/><use xlink:href="#7" y="6.513"/><use xlink:href="#8" y="8.684"/><use xlink:href="#9" y="10.855"/><use xlink:href="#10" y="13.026"/><use xlink:href="#11" y="15.197"/><use xlink:href="#12" y="17.368"/><use xlink:href="#13" y="19.539"/><use xlink:href="#14" y="21.71"/><use xlink:href="#9" y="23.881"/><use xlink:href="#15" y="26.052"/><use xlink:href="#11" y="28.223"/><use xlink:href="#12" y="30.394"/><use xlink:href="#13" y="32.565"/><use xlink:href="#16" y="34.736"/></svg><svg x="4620"><use xlink:href="#a"/><use xlink:href="#b" x="-.004" y="36.882"/><use xlink:href="#6"/><use xlink:href="#7" y="2.171"/><use xlink:href="#8" y="4.342"/><use xlink:href="#9" y="6.513"/><use xlink:href="#10" y="8.684"/><use xlink:href="#11" y="10.855"/><use xlink:href="#12" y="13.026"/><use xlink:href="#13" y="15.197"/><use xlink:href="#14" y="17.368"/><use xlink:href="#9" y="19.539"/><use xlink:href="#15" y="21.71"/><use xlink:href="#11" y="23.881"/><use xlink:href="#12" y="26.052"/><use xlink:href="#13" y="28.223"/><use xlink:href="#16" y="30.394"/><use xlink:href="#17" y="32.565"/><use xlink:href="#18" y="34.736"/></svg><svg x="4760"><use xlink:href="#a"/><use xlink:href="#b" x="-.004" y="36.882"/><use xlink:href="#10"/><use xlink:href="#11" y="2.171"/><use xlink:href="#12" y="4.342"/><use xlink:href="#13" y="6.513"/><use xlink:href="#14" y="8.684"/><use xlink:href="#9" y="10.855"/><use xlink:href="#15" y="13.026"/><use xlink:href="#11" y="15.197"/><use xlink:href="#12" y="17.368"/><use xlink:href="#13" y="19.539"/><use xlink:href="#16" y="21.71"/><use xlink:href="#17" y="23.881"/><use xlink:href="#18" y="26.052"/><use xlink:href="#19" y="28.223"/><use xlink:href="#11" y="30.394"/><use xlink:href="#12" y="32.565"/><use xlink:href="#13" y="34.736"/></svg><svg x="4900"><use xlink:href="#a"/><use xlink:href="#b" x="-.004" y="36.882"/><use xlink:href="#15"/><use xlink:href="#11" y="2.171"/><use xlink:href="#12" y="4.342"/><use xlink:href="#13" y="6.513"/><use xlink:href="#16" y="8.684"/><use xlink:href="#17" y="10.855"/><use xlink:href="#18" y="13.026"/><use xlink:href="#19" y="15.197"/><use xlink:href="#11" y="17.368"/><use xlink:href="#12" y="19.539"/><use xlink:href="#13" y="21.71"/><use xlink:href="#20" y="23.881"/><use xlink:href="#18" y="26.052"/><use xlink:href="#21" y="28.223"/><use xlink:href="#11" y="30.394"/><use xlink:href="#12" y="32.565"/><use xlink:href="#13" y="34.736"/></svg><svg x="5040"><use xlink:href="#a"/><use xlink:href="#b" x="16.996" y="36.882"/><use xlink:href="#15"/><use xlink:href="#11" y="2.171"/><use xlink:href="#12" y="4.342"/><use xlink:href="#13" y="6.513"/><use xlink:href="#16" y="8.684"/><use xlink:href="#17" y="10.855"/><use xlink:href="#18" y="13.026"/><use xlink:href="#19" y="15.197"/><use xlink:href="#11" y="17.368"/><use xlink:href="#12" y="19.539"/><use xlink:href="#13" y="21.71"/><use xlink:href="#20" y="23.881"/><use xlink:href="#18" y="26.052"/><use xlink:href="#21" y="28.223"/><use xlink:href="#11" y="30.394"/><use xlink:href="#12" y="32.565"/><use xlink:href="#13" y="34.736"/><text y="38.577" class="g">10</text><text x="3.006" y="38.577" class="g">records</text><text x="11.022" y="38.577" class="g">sent,</text></svg><svg x="5180"><use xlink:href="#a"/><use xlink:href="#b" x="42.996" y="36.882"/><use xlink:href="#15"/><use xlink:href="#11" y="2.171"/><use xlink:href="#12" y="4.342"/><use xlink:href="#13" y="6.513"/><use xlink:href="#16" y="8.684"/><use xlink:href="#17" y="10.855"/><use xlink:href="#18" y="13.026"/><use xlink:href="#19" y="15.197"/><use xlink:href="#11" y="17.368"/><use xlink:href="#12" y="19.539"/><use xlink:href="#13" y="21.71"/><use xlink:href="#20" y="23.881"/><use xlink:href="#18" y="26.052"/><use xlink:href="#21" y="28.223"/><use xlink:href="#11" y="30.394"/><use xlink:href="#12" y="32.565"/><use xlink:href="#13" y="34.736"/><text y="38.577" class="g">10</text><text x="3.006" y="38.577" class="g">records</text><text x="11.022" y="38.577" class="g">sent,</text><text x="17.034" y="38.577" class="g">1,083893</text><text x="26.052" y="38.577" class="g">records/sec</text><text x="38.076" y="38.577" class="g">(0,00</text></svg><svg x="5320"><use xlink:href="#a"/><use xlink:href="#b" x="74.996" y="36.882"/><use xlink:href="#15"/><use xlink:href="#11" y="2.171"/><use xlink:href="#12" y="4.342"/><use xlink:href="#13" y="6.513"/><use xlink:href="#16" y="8.684"/><use xlink:href="#17" y="10.855"/><use xlink:href="#18" y="13.026"/><use xlink:href="#19" y="15.197"/><use xlink:href="#11" y="17.368"/><use xlink:href="#12" y="19.539"/><use xlink:href="#13" y="21.71"/><use xlink:href="#20" y="23.881"/><use xlink:href="#18" y="26.052"/><use xlink:href="#21" y="28.223"/><use xlink:href="#11" y="30.394"/><use xlink:href="#12" y="32.565"/><use xlink:href="#13" y="34.736"/><text y="38.577" class="g">10</text><text x="3.006" y="38.577" class="g">records</text><text x="11.022" y="38.577" class="g">sent,</text><text x="17.034" y="38.577" class="g">1,083893</text><text x="26.052" y="38.577" class="g">records/sec</text><text x="38.076" y="38.577" class="g">(0,00</text><text x="44.088" y="38.577" class="g">MB/sec),</text><text x="53.106" y="38.577" class="g">95,80</text><text x="59.118" y="38.577" class="g">ms</text><text x="62.124" y="38.577" class="g">avg</text><text x="66.132" y="38.577" class="g">latency,</text></svg><svg x="5460"><use xlink:href="#a"/><use xlink:href="#b" x="-.004" y="36.882"/><use xlink:href="#12"/><use xlink:href="#13" y="2.171"/><use xlink:href="#16" y="4.342"/><use xlink:href="#17" y="6.513"/><use xlink:href="#18" y="8.684"/><use xlink:href="#19" y="10.855"/><use xlink:href="#11" y="13.026"/><use xlink:href="#12" y="15.197"/><use xlink:href="#13" y="17.368"/><use xlink:href="#20" y="19.539"/><use xlink:href="#18" y="21.71"/><use xlink:href="#21" y="23.881"/><use xlink:href="#11" y="26.052"/><use xlink:href="#12" y="28.223"/><use xlink:href="#13" y="30.394"/><text y="34.235" class="g">10</text><text x="3.006" y="34.235" class="g">records</text><text x="11.022" y="34.235" class="g">sent,</text><text x="17.034" y="34.235" class="g">1,083893</text><text x="26.052" y="34.235" class="g">records/sec</text><text x="38.076" y="34.235" class="g">(0,00</text><text x="44.088" y="34.235" class="g">MB/sec),</text><text x="53.106" y="34.235" class="g">95,80</text><text x="59.118" y="34.235" class="g">ms</text><text x="62.124" y="34.235" class="g">avg</text><text x="66.132" y="34.235" class="g">latency,</text><text x="75.15" y="34.235" class="g">334,00</text><text x="82.164" y="34.235" class="g">ms</text><text x="85.17" y="34.235" class="g">max</text><text x="89.178" y="34.235" class="g">latency,</text><text x="98.196" y="34.235" class="g">115</text><text x="102.204" y="34.235" class="g">ms</text><text x="105.21" y="34.235" class="g">50th,</text><text x="111.222" y="34.235" class="g">334</text><text x="115.23" y="34.235" class="g">ms</text><text x="118.236" y="34.235" class="g">95th,</text><text x="124.248" y="34.235" class="g">334</text><text x="128.256" y="34.235" class="g">ms</text><text x="131.262" y="34.235" class="g">99th,</text><text x="137.274" y="34.235" class="g">334</text><text x="1.002" y="36.406" class="g">ms</text><text x="4.008" y="36.406" class="g">99.9th.</text></svg></svg></g></g></svg></svg>