<svg xmlns="http://www.w3.org/2000/svg" xmlns:xlink="http://www.w3.org/1999/xlink" width="1440" height="255.39"><rect width="1440" height="255.39" rx="5" ry="5" class="a"/><svg y="0%" x="0%"><circle cx="20" cy="20" r="6" fill="#ff5f58"/><circle cx="40" cy="20" r="6" fill="#ffbd2e"/><circle cx="60" cy="20" r="6" fill="#18c132"/></svg><svg height="195.39" viewBox="0 0 140 19.539" width="1400" x="15" xmlns="http://www.w3.org/2000/svg" xmlns:xlink="http://www.w3.org/1999/xlink" y="50"><style>@keyframes i{0%{transform:translateX(0)}.6%{transform:translateX(-140px)}1%{transform:translateX(-280px)}7.8%{transform:translateX(-420px)}11.2%{transform:translateX(-560px)}14.7%{transform:translateX(-700px)}18%{transform:translateX(-840px)}21.5%{transform:translateX(-980px)}24.8%{transform:translateX(-1120px)}28.3%{transform:translateX(-1260px)}31.7%{transform:translateX(-1400px)}35.1%{transform:translateX(-1540px)}38.5%{transform:translateX(-1680px)}42%{transform:translateX(-1820px)}45.4%{transform:translateX(-1960px)}48.8%{transform:translateX(-2240px)}to{transform:translateX(-2380px)}}.a{fill:#282d35}.f,.k{fill:#fff;white-space:pre}.k{fill:#b9c0cb}</style><g font-family="Monaco,Consolas,Menlo,'Bitstream Vera Sans Mono','Powerline Symbols',monospace" font-size="1.67"><defs><symbol id="1"><text y="1.67" class="f">echo</text><text x="5.01" y="1.67" class="f">&apos;{&quot;type&quot;:&quot;Fiat&quot;,&quot;color&quot;:&quot;red&quot;,&quot;price&quot;:-1}&apos;</text><text x="48.096" y="1.67" class="f">|</text><text x="50.1" y="1.67" class="f">\</text></symbol><symbol id="2"><text x="4.008" y="1.67" class="f">kafka-console-producer</text><text x="27.054" y="1.67" class="f">\</text></symbol><symbol id="3"><text x="8.016" y="1.67" class="f">--bootstrap-server</text><text x="27.054" y="1.67" class="f">localhost:6969</text><text x="42.084" y="1.67" class="f">\</text></symbol><symbol id="4"><text x="8.016" y="1.67" class="f">--producer.config</text><text x="26.052" y="1.67" class="f">teamA-sa.properties</text><text x="46.092" y="1.67" class="f">\</text></symbol><symbol id="5"><text x="8.016" y="1.67" class="f">--request-required-acks</text><text x="32.064" y="1.67" class="f">1</text><text x="34.068" y="1.67" class="f">\</text></symbol><symbol id="6"><text x="8.016" y="1.67" class="f">--compression-codec</text><text x="28.056" y="1.67" class="f">snappy</text><text x="35.07" y="1.67" class="f">\</text></symbol><symbol id="7"><text x="8.016" y="1.67" class="f">--topic</text><text x="16.032" y="1.67" class="f">cars</text></symbol><symbol id="a"><path fill="transparent" d="M0 0h140v10H0z"/></symbol><symbol id="b"><path fill="#6f7683" d="M0 0h1.102v2.171H0z"/></symbol></defs><path class="a" d="M0 0h140v19.539H0z"/><g style="animation-duration:2.760359s;animation-iteration-count:infinite;animation-name:i;animation-timing-function:steps(1,end)"><svg width="2520"><svg><use xlink:href="#a"/><use xlink:href="#b" x="-.004"/></svg><svg x="140"><use xlink:href="#a"/><use xlink:href="#b" x="-.004"/></svg><svg x="280"><use xlink:href="#a"/><use xlink:href="#b" x="19.996"/><text y="1.67" class="f">echo</text><text x="5.01" y="1.67" class="f">&apos;{&quot;type&quot;:&quot;Fiat&quot;</text></svg><svg x="420"><use xlink:href="#a"/><use xlink:href="#b" x="39.996"/><text y="1.67" class="f">echo</text><text x="5.01" y="1.67" class="f">&apos;{&quot;type&quot;:&quot;Fiat&quot;,&quot;color&quot;:&quot;red&quot;,&quot;pric</text></svg><svg x="560"><use xlink:href="#a"/><use xlink:href="#b" x="7.996" y="2.146"/><use xlink:href="#1"/><text x="4.008" y="3.841" class="f">kafk</text></svg><svg x="700"><use xlink:href="#a"/><use xlink:href="#b" x="27.996" y="2.146"/><use xlink:href="#1"/><use xlink:href="#2" y="2.171"/></svg><svg x="840"><use xlink:href="#a"/><use xlink:href="#b" x="18.996" y="4.317"/><use xlink:href="#1"/><use xlink:href="#2" y="2.171"/><text x="8.016" y="6.012" class="f">--bootstrap</text></svg><svg x="980"><use xlink:href="#a"/><use xlink:href="#b" x="38.996" y="4.317"/><use xlink:href="#1"/><use xlink:href="#2" y="2.171"/><text x="8.016" y="6.012" class="f">--bootstrap-server</text><text x="27.054" y="6.012" class="f">localhost:69</text></svg><svg x="1120"><use xlink:href="#a"/><use xlink:href="#b" x="14.996" y="6.488"/><use xlink:href="#1"/><use xlink:href="#2" y="2.171"/><use xlink:href="#3" y="4.342"/><text x="8.016" y="8.183" class="f">--produ</text></svg><svg x="1260"><use xlink:href="#a"/><use xlink:href="#b" x="34.996" y="6.488"/><use xlink:href="#1"/><use xlink:href="#2" y="2.171"/><use xlink:href="#3" y="4.342"/><text x="8.016" y="8.183" class="f">--producer.config</text><text x="26.052" y="8.183" class="f">teamA-sa.</text></svg><svg x="1400"><use xlink:href="#a"/><use xlink:href="#b" x="6.996" y="8.659"/><use xlink:href="#1"/><use xlink:href="#2" y="2.171"/><use xlink:href="#3" y="4.342"/><use xlink:href="#4" y="6.513"/></svg><svg x="1540"><use xlink:href="#a"/><use xlink:href="#b" x="26.996" y="8.659"/><use xlink:href="#1"/><use xlink:href="#2" y="2.171"/><use xlink:href="#3" y="4.342"/><use xlink:href="#4" y="6.513"/><text x="8.016" y="10.354" class="f">--request-required-</text></svg><svg x="1680"><use xlink:href="#a"/><use xlink:href="#b" x="10.996" y="10.83"/><use xlink:href="#1"/><use xlink:href="#2" y="2.171"/><use xlink:href="#3" y="4.342"/><use xlink:href="#4" y="6.513"/><use xlink:href="#5" y="8.684"/><text x="8.016" y="12.525" class="f">--c</text></svg><svg x="1820"><use xlink:href="#a"/><use xlink:href="#b" x="30.996" y="10.83"/><use xlink:href="#1"/><use xlink:href="#2" y="2.171"/><use xlink:href="#3" y="4.342"/><use xlink:href="#4" y="6.513"/><use xlink:href="#5" y="8.684"/><text x="8.016" y="12.525" class="f">--compression-codec</text><text x="28.056" y="12.525" class="f">sna</text></svg><svg x="1960"><use xlink:href="#a"/><use xlink:href="#b" x="13.996" y="13.001"/><use xlink:href="#1"/><use xlink:href="#2" y="2.171"/><use xlink:href="#3" y="4.342"/><use xlink:href="#4" y="6.513"/><use xlink:href="#5" y="8.684"/><use xlink:href="#6" y="10.855"/><text x="8.016" y="14.696" class="f">--topi</text></svg><svg x="2100"><use xlink:href="#a"/><use xlink:href="#b" x="19.996" y="13.001"/><use xlink:href="#1"/><use xlink:href="#2" y="2.171"/><use xlink:href="#3" y="4.342"/><use xlink:href="#4" y="6.513"/><use xlink:href="#5" y="8.684"/><use xlink:href="#6" y="10.855"/><use xlink:href="#7" y="13.026"/></svg><svg x="2240"><use xlink:href="#a"/><use xlink:href="#b" x="-.004" y="15.172"/><use xlink:href="#1"/><use xlink:href="#2" y="2.171"/><use xlink:href="#3" y="4.342"/><use xlink:href="#4" y="6.513"/><use xlink:href="#5" y="8.684"/><use xlink:href="#6" y="10.855"/><use xlink:href="#7" y="13.026"/></svg><svg x="2380"><use xlink:href="#a"/><use xlink:href="#b" x="-.004" y="19.514"/><use xlink:href="#4"/><use xlink:href="#5" y="2.171"/><use xlink:href="#6" y="4.342"/><use xlink:href="#7" y="6.513"/><text y="10.354" class="k">[2024-01-22</text><text x="12.024" y="10.354" class="k">17:32:40,976]</text><text x="26.052" y="10.354" class="k">ERROR</text><text x="32.064" y="10.354" class="k">Error</text><text x="38.076" y="10.354" class="k">when</text><text x="43.086" y="10.354" class="k">sending</text><text x="51.102" y="10.354" class="k">message</text><text x="59.118" y="10.354" class="k">to</text><text x="62.124" y="10.354" class="k">topic</text><text x="68.136" y="10.354" class="k">cars</text><text x="73.146" y="10.354" class="k">with</text><text x="78.156" y="10.354" class="k">key:</text><text x="83.166" y="10.354" class="k">null,</text><text x="89.178" y="10.354" class="k">value:</text><text x="96.192" y="10.354" class="k">40</text><text x="99.198" y="10.354" class="k">bytes</text><text x="105.21" y="10.354" class="k">with</text><text x="110.22" y="10.354" class="k">error:</text><text x="117.234" y="10.354" class="k">(org.apache.kafka.clien</text><text y="12.525" class="k">ts.producer.internals.ErrorLoggingCallback)</text><text y="14.696" class="k">org.apache.kafka.common.errors.PolicyViolationException:</text><text x="57.114" y="14.696" class="k">Request</text><text x="65.13" y="14.696" class="k">parameters</text><text x="76.152" y="14.696" class="k">do</text><text x="79.158" y="14.696" class="k">not</text><text x="83.166" y="14.696" class="k">satisfy</text><text x="91.182" y="14.696" class="k">the</text><text x="95.19" y="14.696" class="k">configured</text><text x="106.212" y="14.696" class="k">policy.</text><text x="114.228" y="14.696" class="k">Topic</text><text x="120.24" y="14.696" class="k">&apos;cars&apos;</text><text x="127.254" y="14.696" class="k">with</text><text x="132.264" y="14.696" class="k">invalid</text><text y="16.867" class="k">value</text><text x="6.012" y="16.867" class="k">for</text><text x="10.02" y="16.867" class="k">&apos;acks&apos;:</text><text x="18.036" y="16.867" class="k">1.</text><text x="21.042" y="16.867" class="k">Valid</text><text x="27.054" y="16.867" class="k">value</text><text x="33.066" y="16.867" class="k">is</text><text x="36.072" y="16.867" class="k">one</text><text x="40.08" y="16.867" class="k">of</text><text x="43.086" y="16.867" class="k">the</text><text x="47.094" y="16.867" class="k">values:</text><text x="55.11" y="16.867" class="k">-1.</text><text x="59.118" y="16.867" class="k">Topic</text><text x="65.13" y="16.867" class="k">&apos;cars&apos;</text><text x="72.144" y="16.867" class="k">with</text><text x="77.154" y="16.867" class="k">invalid</text><text x="85.17" y="16.867" class="k">value</text><text x="91.182" y="16.867" class="k">for</text><text x="95.19" y="16.867" class="k">&apos;compressions&apos;:</text><text x="111.222" y="16.867" class="k">SNAPPY.</text><text x="119.238" y="16.867" class="k">Valid</text><text x="125.25" y="16.867" class="k">value</text><text x="131.262" y="16.867" class="k">is</text><text x="134.268" y="16.867" class="k">one</text><text x="138.276" y="16.867" class="k">of</text><text x="1.002" y="19.038" class="k">the</text><text x="5.01" y="19.038" class="k">values:</text><text x="13.026" y="19.038" class="k">[GZIP,</text><text x="20.04" y="19.038" class="k">NONE]</text></svg></svg></g></g></svg></svg>