<svg xmlns="http://www.w3.org/2000/svg" xmlns:xlink="http://www.w3.org/1999/xlink" width="1440" height="494.2"><rect width="1440" height="494.2" rx="5" ry="5" class="a"/><svg y="0%" x="0%"><circle cx="20" cy="20" r="6" fill="#ff5f58"/><circle cx="40" cy="20" r="6" fill="#ffbd2e"/><circle cx="60" cy="20" r="6" fill="#18c132"/></svg><svg height="434.2" viewBox="0 0 140 43.42" width="1400" x="15" xmlns="http://www.w3.org/2000/svg" xmlns:xlink="http://www.w3.org/1999/xlink" y="50"><style>@keyframes j{0%{transform:translateX(0)}1.1%{transform:translateX(-140px)}1.5%{transform:translateX(-280px)}7.4%{transform:translateX(-420px)}10.5%{transform:translateX(-560px)}13.5%{transform:translateX(-700px)}16.6%{transform:translateX(-840px)}19.6%{transform:translateX(-980px)}22.7%{transform:translateX(-1120px)}25.8%{transform:translateX(-1260px)}28.7%{transform:translateX(-1400px)}31.9%{transform:translateX(-1540px)}34.9%{transform:translateX(-1680px)}38.1%{transform:translateX(-1820px)}41.1%{transform:translateX(-1960px)}44.2%{transform:translateX(-2100px)}47.3%{transform:translateX(-2240px)}53.4%{transform:translateX(-2520px)}74.5%{transform:translateX(-2940px)}99.9%{transform:translateX(-3080px)}to{transform:translateX(-3920px)}}.a{fill:#282d35}.f,.g{fill:#fff;white-space:pre}.g{fill:#b9c0cb}</style><g font-family="Monaco,Consolas,Menlo,'Bitstream Vera Sans Mono','Powerline Symbols',monospace" font-size="1.67"><defs><symbol id="1"><text y="1.67" class="f">kafka-json-schema-console-consumer</text><text x="35.07" y="1.67" class="f">\</text></symbol><symbol id="2"><text y="1.67" class="f">--bootstrap-server</text><text x="19.038" y="1.67" class="f">localhost:6969</text><text x="34.068" y="1.67" class="f">\</text></symbol><symbol id="3"><text y="1.67" class="f">--topic</text><text x="8.016" y="1.67" class="f">with-schema</text><text x="20.04" y="1.67" class="f">\</text></symbol><symbol id="4"><text y="1.67" class="f">--consumer.config</text><text x="18.036" y="1.67" class="f">teamA-sa.properties</text><text x="38.076" y="1.67" class="f">\</text></symbol><symbol id="5"><text y="1.67" class="f">--from-beginning</text></symbol><symbol id="6"><text x="8.016" y="1.67" class="g">schema.registry.ssl.keystore.certificate.chain</text><text x="55.11" y="1.67" class="g">=</text><text x="57.114" y="1.67" class="g">null</text></symbol><symbol id="7"><text x="8.016" y="1.67" class="g">schema.registry.ssl.keystore.key</text><text x="41.082" y="1.67" class="g">=</text><text x="43.086" y="1.67" class="g">null</text></symbol><symbol id="8"><text x="8.016" y="1.67" class="g">schema.registry.ssl.keystore.location</text><text x="46.092" y="1.67" class="g">=</text><text x="48.096" y="1.67" class="g">null</text></symbol><symbol id="9"><text x="8.016" y="1.67" class="g">schema.registry.ssl.keystore.password</text><text x="46.092" y="1.67" class="g">=</text><text x="48.096" y="1.67" class="g">null</text></symbol><symbol id="10"><text x="8.016" y="1.67" class="g">schema.registry.ssl.keystore.type</text><text x="42.084" y="1.67" class="g">=</text><text x="44.088" y="1.67" class="g">JKS</text></symbol><symbol id="11"><text x="8.016" y="1.67" class="g">schema.registry.ssl.protocol</text><text x="37.074" y="1.67" class="g">=</text><text x="39.078" y="1.67" class="g">TLSv1.3</text></symbol><symbol id="12"><text x="8.016" y="1.67" class="g">schema.registry.ssl.provider</text><text x="37.074" y="1.67" class="g">=</text><text x="39.078" y="1.67" class="g">null</text></symbol><symbol id="13"><text x="8.016" y="1.67" class="g">schema.registry.ssl.secure.random.implementation</text><text x="57.114" y="1.67" class="g">=</text><text x="59.118" y="1.67" class="g">null</text></symbol><symbol id="14"><text x="8.016" y="1.67" class="g">schema.registry.ssl.trustmanager.algorithm</text><text x="51.102" y="1.67" class="g">=</text><text x="53.106" y="1.67" class="g">PKIX</text></symbol><symbol id="15"><text x="8.016" y="1.67" class="g">schema.registry.ssl.truststore.certificates</text><text x="52.104" y="1.67" class="g">=</text><text x="54.108" y="1.67" class="g">null</text></symbol><symbol id="16"><text x="8.016" y="1.67" class="g">schema.registry.ssl.truststore.location</text><text x="48.096" y="1.67" class="g">=</text><text x="50.1" y="1.67" class="g">null</text></symbol><symbol id="17"><text x="8.016" y="1.67" class="g">schema.registry.ssl.truststore.password</text><text x="48.096" y="1.67" class="g">=</text><text x="50.1" y="1.67" class="g">null</text></symbol><symbol id="18"><text x="8.016" y="1.67" class="g">schema.registry.ssl.truststore.type</text><text x="44.088" y="1.67" class="g">=</text><text x="46.092" y="1.67" class="g">JKS</text></symbol><symbol id="19"><text x="8.016" y="1.67" class="g">schema.registry.url</text><text x="28.056" y="1.67" class="g">=</text><text x="30.06" y="1.67" class="g">[http://localhost:8081]</text></symbol><symbol id="20"><text x="8.016" y="1.67" class="g">type.property</text><text x="22.044" y="1.67" class="g">=</text><text x="24.048" y="1.67" class="g">javaType</text></symbol><symbol id="21"><text x="8.016" y="1.67" class="g">use.latest.version</text><text x="27.054" y="1.67" class="g">=</text><text x="29.058" y="1.67" class="g">false</text></symbol><symbol id="22"><text x="8.016" y="1.67" class="g">use.latest.with.metadata</text><text x="33.066" y="1.67" class="g">=</text><text x="35.07" y="1.67" class="g">null</text></symbol><symbol id="23"><text x="8.016" y="1.67" class="g">use.schema.id</text><text x="22.044" y="1.67" class="g">=</text><text x="24.048" y="1.67" class="g">-1</text></symbol><symbol id="24"><text x="8.016" y="1.67" class="g">value.subject.name.strategy</text><text x="36.072" y="1.67" class="g">=</text><text x="38.076" y="1.67" class="g">class</text><text x="44.088" y="1.67" class="g">io.confluent.kafka.serializers.subject.TopicNameStrategy</text></symbol><symbol id="25"><text x="1.002" y="1.67" class="g">(io.confluent.kafka.serializers.json.KafkaJsonSchemaDeserializerConfig:376)</text></symbol><symbol id="26"><text y="1.67" class="g">Processed</text><text x="10.02" y="1.67" class="g">a</text><text x="12.024" y="1.67" class="g">total</text><text x="18.036" y="1.67" class="g">of</text><text x="21.042" y="1.67" class="g">1</text><text x="23.046" y="1.67" class="g">messages</text></symbol><symbol id="27"><text y="1.67" class="g">[2024-01-22</text><text x="12.024" y="1.67" class="g">18:02:09,593]</text><text x="26.052" y="1.67" class="g">ERROR</text><text x="32.064" y="1.67" class="g">Unknown</text><text x="40.08" y="1.67" class="g">error</text><text x="46.092" y="1.67" class="g">when</text><text x="51.102" y="1.67" class="g">running</text><text x="59.118" y="1.67" class="g">consumer:</text><text x="70.14" y="1.67" class="g">(kafka.tools.ConsoleConsumer$:44)</text></symbol><symbol id="28"><text y="1.67" class="g">org.apache.kafka.common.errors.SerializationException:</text><text x="55.11" y="1.67" class="g">Error</text><text x="61.122" y="1.67" class="g">retrieving</text><text x="72.144" y="1.67" class="g">JSON</text><text x="77.154" y="1.67" class="g">schema</text><text x="84.168" y="1.67" class="g">for</text><text x="88.176" y="1.67" class="g">id</text><text x="91.182" y="1.67" class="g">999</text></symbol><symbol id="29"><text x="8.016" y="1.67" class="g">at</text><text x="11.022" y="1.67" class="g">io.confluent.kafka.serializers.AbstractKafkaSchemaSerDe.toKafkaException(AbstractKafkaSchemaSerDe.java:776)</text></symbol><symbol id="30"><text x="8.016" y="1.67" class="g">at</text><text x="11.022" y="1.67" class="g">io.confluent.kafka.serializers.json.AbstractKafkaJsonSchemaDeserializer.deserialize(AbstractKafkaJsonSchemaDeserializer.java:238)</text></symbol><symbol id="31"><text x="8.016" y="1.67" class="g">at</text><text x="11.022" y="1.67" class="g">io.confluent.kafka.formatter.json.JsonSchemaMessageFormatter$JsonSchemaMessageDeserializer.deserialize(JsonSchemaMessageFormatter</text></symbol><symbol id="32"><text y="1.67" class="g">.java:135)</text></symbol><symbol id="33"><text y="1.67" class="g">.java:101)</text></symbol><symbol id="34"><text x="8.016" y="1.67" class="g">at</text><text x="11.022" y="1.67" class="g">io.confluent.kafka.formatter.json.JsonSchemaMessageFormatter.writeTo(JsonSchemaMessageFormatter.java:92)</text></symbol><symbol id="35"><text x="8.016" y="1.67" class="g">at</text><text x="11.022" y="1.67" class="g">io.confluent.kafka.formatter.SchemaMessageFormatter.writeTo(SchemaMessageFormatter.java:266)</text></symbol><symbol id="36"><text x="8.016" y="1.67" class="g">at</text><text x="11.022" y="1.67" class="g">kafka.tools.ConsoleConsumer$.process(ConsoleConsumer.scala:116)</text></symbol><symbol id="37"><text x="8.016" y="1.67" class="g">at</text><text x="11.022" y="1.67" class="g">kafk</text></symbol><symbol id="38"><text x="8.016" y="1.67" class="g">at</text><text x="11.022" y="1.67" class="g">kafka.tools.ConsoleConsumer$.run(ConsoleConsumer.scala:76)</text></symbol><symbol id="39"><text x="8.016" y="1.67" class="g">at</text><text x="11.022" y="1.67" class="g">kafka.tools.ConsoleConsumer$.main(ConsoleConsumer.scala:53)</text></symbol><symbol id="40"><text x="8.016" y="1.67" class="g">at</text><text x="11.022" y="1.67" class="g">kafka.tools.ConsoleConsumer.main(ConsoleConsumer.scala)</text></symbol><symbol id="41"><text y="1.67" class="g">Caused</text><text x="7.014" y="1.67" class="g">by:</text><text x="11.022" y="1.67" class="g">io.confluent.kafka.schemaregistry.client.rest.exceptions.RestClientException:</text><text x="89.178" y="1.67" class="g">Schema</text><text x="96.192" y="1.67" class="g">999</text><text x="100.2" y="1.67" class="g">not</text><text x="104.208" y="1.67" class="g">found;</text><text x="111.222" y="1.67" class="g">error</text><text x="117.234" y="1.67" class="g">code:</text><text x="123.246" y="1.67" class="g">40403</text></symbol><symbol id="42"><text x="8.016" y="1.67" class="g">at</text><text x="11.022" y="1.67" class="g">io.confluent.kafka.schemaregistry.client.rest.RestService.sendHttpRequest(RestService.java:333)</text></symbol><symbol id="43"><text x="8.016" y="1.67" class="g">at</text><text x="11.022" y="1.67" class="g">io.confluent.kafka.schemaregistry.client.rest.RestService.httpRequest(RestService.java:406)</text></symbol><symbol id="44"><text x="8.016" y="1.67" class="g">at</text><text x="11.022" y="1.67" class="g">io.confluent.kafka.schemaregistry.client.rest.RestService.getId(RestService.java:882)</text></symbol><symbol id="45"><text x="8.016" y="1.67" class="g">at</text><text x="11.022" y="1.67" class="g">io.confluent.kafka.schemaregistry.client.rest.RestService.getId(RestService.java:855)</text></symbol><symbol id="46"><text x="8.016" y="1.67" class="g">at</text><text x="11.022" y="1.67" class="g">io.confluent.kafka.schemaregistry.client.CachedSchemaRegistryClient.getSchemaByIdFromRegistry(CachedSchemaRegistryClient.java:332</text></symbol><symbol id="47"><text y="1.67" class="g">)</text></symbol><symbol id="48"><text x="8.016" y="1.67" class="g">at</text><text x="11.022" y="1.67" class="g">io.confluent.kafka.schemaregistry.client.CachedSchemaRegistryClient.getSchemaBySubjectAndId(CachedSchemaRegistryClient.java:463)</text></symbol><symbol id="49"><text x="8.016" y="1.67" class="g">at</text><text x="11.022" y="1.67" class="g">io.confluent.kafka.serializers.json.AbstractKafkaJsonSchem</text></symbol><symbol id="50"><text x="8.016" y="1.67" class="g">at</text><text x="11.022" y="1.67" class="g">io.confluent.kafka.serializers.json.AbstractKafkaJsonSchemaDeserializer.deserialize(AbstractKafkaJsonSchemaDeserializer.java:133)</text></symbol><symbol id="51"><text x="8.016" y="1.67" class="g">...</text><text x="12.024" y="1.67" class="g">8</text><text x="14.028" y="1.67" class="g">more</text></symbol><symbol id="a"><path fill="transparent" d="M0 0h140v21H0z"/></symbol><symbol id="b"><path fill="#6f7683" d="M0 0h1.102v2.171H0z"/></symbol></defs><path class="a" d="M0 0h140v43.42H0z"/><g style="animation-duration:3.063905s;animation-iteration-count:infinite;animation-name:j;animation-timing-function:steps(1,end)"><svg width="4060"><svg><use xlink:href="#a"/><use xlink:href="#b" x="-.004"/></svg><svg x="140"><use xlink:href="#a"/><use xlink:href="#b" x="-.004"/></svg><svg x="280"><use xlink:href="#a"/><use xlink:href="#b" x="9.996"/><text y="1.67" class="f">kafka-json</text></svg><svg x="420"><use xlink:href="#a"/><use xlink:href="#b" x="19.996"/><text y="1.67" class="f">kafka-json-schema-co</text></svg><svg x="560"><use xlink:href="#a"/><use xlink:href="#b" x="29.996"/><text y="1.67" class="f">kafka-json-schema-console-cons</text></svg><svg x="700"><use xlink:href="#a"/><use xlink:href="#b" x="2.996" y="2.146"/><use xlink:href="#1"/><text y="3.841" class="f">--b</text></svg><svg x="840"><use xlink:href="#a"/><use xlink:href="#b" x="12.996" y="2.146"/><use xlink:href="#1"/><text y="3.841" class="f">--bootstrap-s</text></svg><svg x="980"><use xlink:href="#a"/><use xlink:href="#b" x="22.996" y="2.146"/><use xlink:href="#1"/><text y="3.841" class="f">--bootstrap-server</text><text x="19.038" y="3.841" class="f">loca</text></svg><svg x="1120"><use xlink:href="#a"/><use xlink:href="#b" x="32.996" y="2.146"/><use xlink:href="#1"/><text y="3.841" class="f">--bootstrap-server</text><text x="19.038" y="3.841" class="f">localhost:6969</text></svg><svg x="1260"><use xlink:href="#a"/><use xlink:href="#b" x="6.996" y="4.317"/><use xlink:href="#1"/><use xlink:href="#2" y="2.171"/><text y="6.012" class="f">--topic</text></svg><svg x="1400"><use xlink:href="#a"/><use xlink:href="#b" x="16.996" y="4.317"/><use xlink:href="#1"/><use xlink:href="#2" y="2.171"/><text y="6.012" class="f">--topic</text><text x="8.016" y="6.012" class="f">with-sche</text></svg><svg x="1540"><use xlink:href="#a"/><use xlink:href="#b" x="4.996" y="6.488"/><use xlink:href="#1"/><use xlink:href="#2" y="2.171"/><use xlink:href="#3" y="4.342"/><text y="8.183" class="f">--con</text></svg><svg x="1680"><use xlink:href="#a"/><use xlink:href="#b" x="14.996" y="6.488"/><use xlink:href="#1"/><use xlink:href="#2" y="2.171"/><use xlink:href="#3" y="4.342"/><text y="8.183" class="f">--consumer.conf</text></svg><svg x="1820"><use xlink:href="#a"/><use xlink:href="#b" x="24.996" y="6.488"/><use xlink:href="#1"/><use xlink:href="#2" y="2.171"/><use xlink:href="#3" y="4.342"/><text y="8.183" class="f">--consumer.config</text><text x="18.036" y="8.183" class="f">teamA-s</text></svg><svg x="1960"><use xlink:href="#a"/><use xlink:href="#b" x="34.996" y="6.488"/><use xlink:href="#1"/><use xlink:href="#2" y="2.171"/><use xlink:href="#3" y="4.342"/><text y="8.183" class="f">--consumer.config</text><text x="18.036" y="8.183" class="f">teamA-sa.properti</text></svg><svg x="2100"><use xlink:href="#a"/><use xlink:href="#b" x="4.996" y="8.659"/><use xlink:href="#1"/><use xlink:href="#2" y="2.171"/><use xlink:href="#3" y="4.342"/><use xlink:href="#4" y="6.513"/><text y="10.354" class="f">--fro</text></svg><svg x="2240"><use xlink:href="#a"/><use xlink:href="#b" x="14.996" y="8.659"/><use xlink:href="#1"/><use xlink:href="#2" y="2.171"/><use xlink:href="#3" y="4.342"/><use xlink:href="#4" y="6.513"/><text y="10.354" class="f">--from-beginnin</text></svg><svg x="2380"><use xlink:href="#a"/><use xlink:href="#b" x="15.996" y="8.659"/><use xlink:href="#1"/><use xlink:href="#2" y="2.171"/><use xlink:href="#3" y="4.342"/><use xlink:href="#4" y="6.513"/><use xlink:href="#5" y="8.684"/></svg><svg x="2520"><use xlink:href="#a"/><use xlink:href="#b" x="-.004" y="10.83"/><use xlink:href="#1"/><use xlink:href="#2" y="2.171"/><use xlink:href="#3" y="4.342"/><use xlink:href="#4" y="6.513"/><use xlink:href="#5" y="8.684"/></svg><svg x="2660"><use xlink:href="#a"/><use xlink:href="#b" x="50.996" y="43.395"/><text x="8.016" y="1.67" class="g">bearer.auth.cache.expiry.buffer.seconds</text><text x="48.096" y="1.67" class="g">=</text><text x="50.1" y="1.67" class="g">300</text><text x="8.016" y="3.841" class="g">bearer.auth.client.id</text><text x="30.06" y="3.841" class="g">=</text><text x="32.064" y="3.841" class="g">null</text><text x="8.016" y="6.012" class="g">bearer.auth.client.secret</text><text x="34.068" y="6.012" class="g">=</text><text x="36.072" y="6.012" class="g">null</text><text x="8.016" y="8.183" class="g">bearer.auth.credentials.source</text><text x="39.078" y="8.183" class="g">=</text><text x="41.082" y="8.183" class="g">STATIC_TOKEN</text><text x="8.016" y="10.354" class="g">bearer.auth.custom.provider.class</text><text x="42.084" y="10.354" class="g">=</text><text x="44.088" y="10.354" class="g">null</text><text x="8.016" y="12.525" class="g">bearer.auth.identity.pool.id</text><text x="37.074" y="12.525" class="g">=</text><text x="39.078" y="12.525" class="g">null</text><text x="8.016" y="14.696" class="g">bearer.auth.issuer.endpoint.url</text><text x="40.08" y="14.696" class="g">=</text><text x="42.084" y="14.696" class="g">null</text><text x="8.016" y="16.867" class="g">bearer.auth.logical.cluster</text><text x="36.072" y="16.867" class="g">=</text><text x="38.076" y="16.867" class="g">null</text><text x="8.016" y="19.038" class="g">bearer.auth.scope</text><text x="26.052" y="19.038" class="g">=</text><text x="28.056" y="19.038" class="g">null</text><text x="8.016" y="21.209" class="g">bearer.auth.scope.claim.name</text><text x="37.074" y="21.209" class="g">=</text><text x="39.078" y="21.209" class="g">scope</text><text x="8.016" y="23.38" class="g">bearer.auth.sub.claim.name</text><text x="35.07" y="23.38" class="g">=</text><text x="37.074" y="23.38" class="g">sub</text><text x="8.016" y="25.551" class="g">bearer.auth.token</text><text x="26.052" y="25.551" class="g">=</text><text x="28.056" y="25.551" class="g">[hidden]</text><text x="8.016" y="27.722" class="g">context.name.strategy</text><text x="30.06" y="27.722" class="g">=</text><text x="32.064" y="27.722" class="g">class</text><text x="38.076" y="27.722" class="g">io.confluent.kafka.serializers.context.NullContextNameStrategy</text><text x="8.016" y="29.893" class="g">http.connect.timeout.ms</text><text x="32.064" y="29.893" class="g">=</text><text x="34.068" y="29.893" class="g">60000</text><text x="8.016" y="32.064" class="g">http.read.timeout.ms</text><text x="29.058" y="32.064" class="g">=</text><text x="31.062" y="32.064" class="g">60000</text><text x="8.016" y="34.235" class="g">id.compatibility.strict</text><text x="32.064" y="34.235" class="g">=</text><text x="34.068" y="34.235" class="g">true</text><text x="8.016" y="36.406" class="g">json.fail.invalid.schema</text><text x="33.066" y="36.406" class="g">=</text><text x="35.07" y="36.406" class="g">true</text><text x="8.016" y="38.577" class="g">json.fail.unknown.properties</text><text x="37.074" y="38.577" class="g">=</text><text x="39.078" y="38.577" class="g">true</text><text x="8.016" y="40.748" class="g">json.key.type</text><text x="22.044" y="40.748" class="g">=</text><text x="24.048" y="40.748" class="g">class</text><text x="30.06" y="40.748" class="g">java.lang.Object</text><text x="8.016" y="42.919" class="g">json.value.type</text><text x="24.048" y="42.919" class="g">=</text><text x="26.052" y="42.919" class="g">class</text><text x="32.064" y="42.919" class="g">java.lang.Object</text><text x="8.016" y="45.09" class="g">key.subject.name.strategy</text><text x="34.068" y="45.09" class="g">=</text><text x="36.072" y="45.09" class="g">class</text><text x="42.084" y="45.09" class="g">io.conflu</text></svg><svg x="2800"><use xlink:href="#a"/><use xlink:href="#b" x="27.996" y="43.395"/><text x="8.016" y="1.67" class="g">proxy.host</text><text x="19.038" y="1.67" class="g">=</text><text x="8.016" y="3.841" class="g">proxy.port</text><text x="19.038" y="3.841" class="g">=</text><text x="21.042" y="3.841" class="g">-1</text><text x="8.016" y="6.012" class="g">rule.actions</text><text x="21.042" y="6.012" class="g">=</text><text x="23.046" y="6.012" class="g">[]</text><text x="8.016" y="8.183" class="g">rule.executors</text><text x="23.046" y="8.183" class="g">=</text><text x="25.05" y="8.183" class="g">[]</text><text x="8.016" y="10.354" class="g">rule.service.loader.enable</text><text x="35.07" y="10.354" class="g">=</text><text x="37.074" y="10.354" class="g">true</text><text x="8.016" y="12.525" class="g">schema.format</text><text x="22.044" y="12.525" class="g">=</text><text x="24.048" y="12.525" class="g">null</text><text x="8.016" y="14.696" class="g">schema.reflection</text><text x="26.052" y="14.696" class="g">=</text><text x="28.056" y="14.696" class="g">false</text><text x="8.016" y="16.867" class="g">schema.registry.basic.auth.user.info</text><text x="45.09" y="16.867" class="g">=</text><text x="47.094" y="16.867" class="g">[hidden]</text><text x="8.016" y="19.038" class="g">schema.registry.ssl.cipher.suites</text><text x="42.084" y="19.038" class="g">=</text><text x="44.088" y="19.038" class="g">null</text><text x="8.016" y="21.209" class="g">schema.registry.ssl.enabled.protocols</text><text x="46.092" y="21.209" class="g">=</text><text x="48.096" y="21.209" class="g">[TLSv1.2,</text><text x="58.116" y="21.209" class="g">TLSv1.3]</text><text x="8.016" y="23.38" class="g">schema.registry.ssl.endpoint.identification.algorithm</text><text x="62.124" y="23.38" class="g">=</text><text x="64.128" y="23.38" class="g">https</text><text x="8.016" y="25.551" class="g">schema.registry.ssl.engine.factory.class</text><text x="49.098" y="25.551" class="g">=</text><text x="51.102" y="25.551" class="g">null</text><text x="8.016" y="27.722" class="g">schema.registry.ssl.key.password</text><text x="41.082" y="27.722" class="g">=</text><text x="43.086" y="27.722" class="g">null</text><text x="8.016" y="29.893" class="g">schema.registry.ssl.keymanager.algorithm</text><text x="49.098" y="29.893" class="g">=</text><text x="51.102" y="29.893" class="g">SunX509</text><use xlink:href="#6" y="30.394"/><use xlink:href="#7" y="32.565"/><use xlink:href="#8" y="34.736"/><use xlink:href="#9" y="36.907"/><use xlink:href="#10" y="39.078"/><use xlink:href="#11" y="41.249"/><text x="8.016" y="45.09" class="g">schema.registry.ssl.</text></svg><svg x="2940"><use xlink:href="#a"/><use xlink:href="#b" x="-.004" y="43.395"/><use xlink:href="#6"/><use xlink:href="#7" y="2.171"/><use xlink:href="#8" y="4.342"/><use xlink:href="#9" y="6.513"/><use xlink:href="#10" y="8.684"/><use xlink:href="#11" y="10.855"/><use xlink:href="#12" y="13.026"/><use xlink:href="#13" y="15.197"/><use xlink:href="#14" y="17.368"/><use xlink:href="#15" y="19.539"/><use xlink:href="#16" y="21.71"/><use xlink:href="#17" y="23.881"/><use xlink:href="#18" y="26.052"/><use xlink:href="#19" y="28.223"/><use xlink:href="#20" y="30.394"/><use xlink:href="#21" y="32.565"/><use xlink:href="#22" y="34.736"/><use xlink:href="#23" y="36.907"/><use xlink:href="#24" y="39.078"/><use xlink:href="#25" y="41.249"/></svg><svg x="3080"><use xlink:href="#a"/><use xlink:href="#b" x="-.004" y="43.395"/><use xlink:href="#7"/><use xlink:href="#8" y="2.171"/><use xlink:href="#9" y="4.342"/><use xlink:href="#10" y="6.513"/><use xlink:href="#11" y="8.684"/><use xlink:href="#12" y="10.855"/><use xlink:href="#13" y="13.026"/><use xlink:href="#14" y="15.197"/><use xlink:href="#15" y="17.368"/><use xlink:href="#16" y="19.539"/><use xlink:href="#17" y="21.71"/><use xlink:href="#18" y="23.881"/><use xlink:href="#19" y="26.052"/><use xlink:href="#20" y="28.223"/><use xlink:href="#21" y="30.394"/><use xlink:href="#22" y="32.565"/><use xlink:href="#23" y="34.736"/><use xlink:href="#24" y="36.907"/><use xlink:href="#25" y="39.078"/><use xlink:href="#26" y="41.249"/></svg><svg x="3220"><use xlink:href="#a"/><use xlink:href="#b" x="14.996" y="43.395"/><use xlink:href="#18"/><use xlink:href="#19" y="2.171"/><use xlink:href="#20" y="4.342"/><use xlink:href="#21" y="6.513"/><use xlink:href="#22" y="8.684"/><use xlink:href="#23" y="10.855"/><use xlink:href="#24" y="13.026"/><use xlink:href="#25" y="15.197"/><use xlink:href="#26" y="17.368"/><use xlink:href="#27" y="19.539"/><use xlink:href="#28" y="21.71"/><use xlink:href="#29" y="23.881"/><use xlink:href="#30" y="26.052"/><use xlink:href="#31" y="28.223"/><use xlink:href="#32" y="30.394"/><use xlink:href="#31" y="32.565"/><use xlink:href="#33" y="34.736"/><use xlink:href="#34" y="36.907"/><use xlink:href="#35" y="39.078"/><use xlink:href="#36" y="41.249"/><use xlink:href="#37" y="43.42"/></svg><svg x="3360"><use xlink:href="#a"/><use xlink:href="#b" x="68.996" y="43.395"/><use xlink:href="#29"/><use xlink:href="#30" y="2.171"/><use xlink:href="#31" y="4.342"/><use xlink:href="#32" y="6.513"/><use xlink:href="#31" y="8.684"/><use xlink:href="#33" y="10.855"/><use xlink:href="#34" y="13.026"/><use xlink:href="#35" y="15.197"/><use xlink:href="#36" y="17.368"/><use xlink:href="#38" y="19.539"/><use xlink:href="#39" y="21.71"/><use xlink:href="#40" y="23.881"/><use xlink:href="#41" y="26.052"/><use xlink:href="#42" y="28.223"/><use xlink:href="#43" y="30.394"/><use xlink:href="#44" y="32.565"/><use xlink:href="#45" y="34.736"/><use xlink:href="#46" y="36.907"/><use xlink:href="#47" y="39.078"/><use xlink:href="#48" y="41.249"/><use xlink:href="#49" y="43.42"/></svg><svg x="3500"><use xlink:href="#a"/><use xlink:href="#b" x="-.004" y="43.395"/><use xlink:href="#31"/><use xlink:href="#32" y="2.171"/><use xlink:href="#31" y="4.342"/><use xlink:href="#33" y="6.513"/><use xlink:href="#34" y="8.684"/><use xlink:href="#35" y="10.855"/><use xlink:href="#36" y="13.026"/><use xlink:href="#38" y="15.197"/><use xlink:href="#39" y="17.368"/><use xlink:href="#40" y="19.539"/><use xlink:href="#41" y="21.71"/><use xlink:href="#42" y="23.881"/><use xlink:href="#43" y="26.052"/><use xlink:href="#44" y="28.223"/><use xlink:href="#45" y="30.394"/><use xlink:href="#46" y="32.565"/><use xlink:href="#47" y="34.736"/><use xlink:href="#48" y="36.907"/><use xlink:href="#50" y="39.078"/><use xlink:href="#51" y="41.249"/></svg><svg x="3640"><use xlink:href="#a"/><use xlink:href="#b" x="14.996" y="43.395"/><use xlink:href="#42"/><use xlink:href="#43" y="2.171"/><use xlink:href="#44" y="4.342"/><use xlink:href="#45" y="6.513"/><use xlink:href="#46" y="8.684"/><use xlink:href="#47" y="10.855"/><use xlink:href="#48" y="13.026"/><use xlink:href="#50" y="15.197"/><use xlink:href="#51" y="17.368"/><use xlink:href="#27" y="19.539"/><use xlink:href="#28" y="21.71"/><use xlink:href="#29" y="23.881"/><use xlink:href="#30" y="26.052"/><use xlink:href="#31" y="28.223"/><use xlink:href="#32" y="30.394"/><use xlink:href="#31" y="32.565"/><use xlink:href="#33" y="34.736"/><use xlink:href="#34" y="36.907"/><use xlink:href="#35" y="39.078"/><use xlink:href="#36" y="41.249"/><use xlink:href="#37" y="43.42"/></svg><svg x="3780"><use xlink:href="#a"/><use xlink:href="#b" x="68.996" y="43.395"/><use xlink:href="#29"/><use xlink:href="#30" y="2.171"/><use xlink:href="#31" y="4.342"/><use xlink:href="#32" y="6.513"/><use xlink:href="#31" y="8.684"/><use xlink:href="#33" y="10.855"/><use xlink:href="#34" y="13.026"/><use xlink:href="#35" y="15.197"/><use xlink:href="#36" y="17.368"/><use xlink:href="#38" y="19.539"/><use xlink:href="#39" y="21.71"/><use xlink:href="#40" y="23.881"/><use xlink:href="#41" y="26.052"/><use xlink:href="#42" y="28.223"/><use xlink:href="#43" y="30.394"/><use xlink:href="#44" y="32.565"/><use xlink:href="#45" y="34.736"/><use xlink:href="#46" y="36.907"/><use xlink:href="#47" y="39.078"/><use xlink:href="#48" y="41.249"/><use xlink:href="#49" y="43.42"/></svg><svg x="3920"><use xlink:href="#a"/><use xlink:href="#b" x="-.004" y="43.395"/><use xlink:href="#31"/><use xlink:href="#32" y="2.171"/><use xlink:href="#31" y="4.342"/><use xlink:href="#33" y="6.513"/><use xlink:href="#34" y="8.684"/><use xlink:href="#35" y="10.855"/><use xlink:href="#36" y="13.026"/><use xlink:href="#38" y="15.197"/><use xlink:href="#39" y="17.368"/><use xlink:href="#40" y="19.539"/><use xlink:href="#41" y="21.71"/><use xlink:href="#42" y="23.881"/><use xlink:href="#43" y="26.052"/><use xlink:href="#44" y="28.223"/><use xlink:href="#45" y="30.394"/><use xlink:href="#46" y="32.565"/><use xlink:href="#47" y="34.736"/><use xlink:href="#48" y="36.907"/><use xlink:href="#50" y="39.078"/><use xlink:href="#51" y="41.249"/></svg></svg></g></g></svg></svg>