<svg xmlns="http://www.w3.org/2000/svg" xmlns:xlink="http://www.w3.org/1999/xlink" width="1440" height="472.49"><rect width="1440" height="472.49" rx="5" ry="5" class="a"/><svg y="0%" x="0%"><circle cx="20" cy="20" r="6" fill="#ff5f58"/><circle cx="40" cy="20" r="6" fill="#ffbd2e"/><circle cx="60" cy="20" r="6" fill="#18c132"/></svg><svg height="412.49" viewBox="0 0 140 41.249" width="1400" x="15" xmlns="http://www.w3.org/2000/svg" xmlns:xlink="http://www.w3.org/1999/xlink" y="50"><style>@keyframes j{0%{transform:translateX(0)}2%{transform:translateX(-140px)}2.5%{transform:translateX(-280px)}8.8%{transform:translateX(-420px)}11.8%{transform:translateX(-560px)}14.8%{transform:translateX(-700px)}18%{transform:translateX(-840px)}21.2%{transform:translateX(-980px)}24.3%{transform:translateX(-1120px)}27.4%{transform:translateX(-1260px)}30.5%{transform:translateX(-1400px)}33.7%{transform:translateX(-1540px)}36.7%{transform:translateX(-1820px)}88.3%{transform:translateX(-1960px)}to{transform:translateX(-2100px)}}.a{fill:#282d35}.f,.g{fill:#fff;white-space:pre}.g{fill:#b9c0cb}</style><g font-family="Monaco,Consolas,Menlo,'Bitstream Vera Sans Mono','Powerline Symbols',monospace" font-size="1.67"><defs><symbol id="1"><text y="1.67" class="f">kafka-topics</text><text x="13.026" y="1.67" class="f">\</text></symbol><symbol id="2"><text x="4.008" y="1.67" class="f">-</text></symbol><symbol id="3"><text x="4.008" y="1.67" class="f">--bootstrap-server</text><text x="23.046" y="1.67" class="f">localhost:6969</text><text x="38.076" y="1.67" class="f">\</text></symbol><symbol id="4"><text x="4.008" y="1.67" class="f">--command-config</text><text x="21.042" y="1.67" class="f">user-1.properties</text><text x="39.078" y="1.67" class="f">\</text></symbol><symbol id="5"><text x="4.008" y="1.67" class="f">--list</text></symbol><symbol id="6"><text y="1.67" class="g">[2024-01-23</text><text x="12.024" y="1.67" class="g">00:18:28,100]</text><text x="26.052" y="1.67" class="g">WARN</text><text x="31.062" y="1.67" class="g">[Principal=:f3e0ecec-42d0-455e-88aa-5db45560c160]:</text><text x="82.164" y="1.67" class="g">Expiring</text><text x="91.182" y="1.67" class="g">credential</text><text x="102.204" y="1.67" class="g">expires</text><text x="110.22" y="1.67" class="g">at</text><text x="113.226" y="1.67" class="g">Tue</text><text x="117.234" y="1.67" class="g">Jan</text><text x="121.242" y="1.67" class="g">23</text><text x="124.248" y="1.67" class="g">00:19:27</text><text x="133.266" y="1.67" class="g">CET</text><text x="137.274" y="1.67" class="g">202</text></symbol><symbol id="7"><text y="1.67" class="g">4,</text><text x="3.006" y="1.67" class="g">so</text><text x="6.012" y="1.67" class="g">buffer</text><text x="13.026" y="1.67" class="g">times</text><text x="19.038" y="1.67" class="g">of</text><text x="22.044" y="1.67" class="g">60</text><text x="25.05" y="1.67" class="g">and</text><text x="29.058" y="1.67" class="g">300</text><text x="33.066" y="1.67" class="g">seconds</text><text x="41.082" y="1.67" class="g">at</text><text x="44.088" y="1.67" class="g">the</text><text x="48.096" y="1.67" class="g">front</text><text x="54.108" y="1.67" class="g">and</text><text x="58.116" y="1.67" class="g">back,</text><text x="64.128" y="1.67" class="g">respectively,</text><text x="78.156" y="1.67" class="g">cannot</text><text x="85.17" y="1.67" class="g">be</text><text x="88.176" y="1.67" class="g">accommodated.</text><text x="103.206" y="1.67" class="g">We</text><text x="106.212" y="1.67" class="g">will</text><text x="111.222" y="1.67" class="g">refresh</text><text x="119.238" y="1.67" class="g">at</text><text x="122.244" y="1.67" class="g">Tue</text><text x="126.252" y="1.67" class="g">Jan</text><text x="130.26" y="1.67" class="g">23</text><text x="133.266" y="1.67" class="g">00:19:1</text></symbol><symbol id="8"><text y="1.67" class="g">5</text><text x="2.004" y="1.67" class="g">CET</text><text x="6.012" y="1.67" class="g">2024.</text><text x="12.024" y="1.67" class="g">(org.apache.kafka.common.security.oauthbearer.internals.expiring.ExpiringCredentialRefreshingLogin)</text></symbol><symbol id="a"><path fill="transparent" d="M0 0h140v20H0z"/></symbol><symbol id="b"><path fill="#6f7683" d="M0 0h1.102v2.171H0z"/></symbol></defs><path class="a" d="M0 0h140v41.249H0z"/><g style="animation-duration:2.970771s;animation-iteration-count:infinite;animation-name:j;animation-timing-function:steps(1,end)"><svg width="2240"><svg><use xlink:href="#a"/><use xlink:href="#b" x="-.004"/></svg><svg x="140"><use xlink:href="#a"/><use xlink:href="#b" x="-.004"/></svg><svg x="280"><use xlink:href="#a"/><use xlink:href="#b" x="9.996"/><text y="1.67" class="f">kafka-topi</text></svg><svg x="420"><use xlink:href="#a"/><use xlink:href="#b" x="4.996" y="2.146"/><use xlink:href="#1"/><use xlink:href="#2" y="2.171"/></svg><svg x="560"><use xlink:href="#a"/><use xlink:href="#b" x="14.996" y="2.146"/><use xlink:href="#1"/><text x="4.008" y="3.841" class="f">--bootstrap</text></svg><svg x="700"><use xlink:href="#a"/><use xlink:href="#b" x="24.996" y="2.146"/><use xlink:href="#1"/><text x="4.008" y="3.841" class="f">--bootstrap-server</text><text x="23.046" y="3.841" class="f">lo</text></svg><svg x="840"><use xlink:href="#a"/><use xlink:href="#b" x="34.996" y="2.146"/><use xlink:href="#1"/><text x="4.008" y="3.841" class="f">--bootstrap-server</text><text x="23.046" y="3.841" class="f">localhost:69</text></svg><svg x="980"><use xlink:href="#a"/><use xlink:href="#b" x="4.996" y="4.317"/><use xlink:href="#1"/><use xlink:href="#3" y="2.171"/><use xlink:href="#2" y="4.342"/></svg><svg x="1120"><use xlink:href="#a"/><use xlink:href="#b" x="14.996" y="4.317"/><use xlink:href="#1"/><use xlink:href="#3" y="2.171"/><text x="4.008" y="6.012" class="f">--command-c</text></svg><svg x="1260"><use xlink:href="#a"/><use xlink:href="#b" x="24.996" y="4.317"/><use xlink:href="#1"/><use xlink:href="#3" y="2.171"/><text x="4.008" y="6.012" class="f">--command-config</text><text x="21.042" y="6.012" class="f">user</text></svg><svg x="1400"><use xlink:href="#a"/><use xlink:href="#b" x="34.996" y="4.317"/><use xlink:href="#1"/><use xlink:href="#3" y="2.171"/><text x="4.008" y="6.012" class="f">--command-config</text><text x="21.042" y="6.012" class="f">user-1.propert</text></svg><svg x="1540"><use xlink:href="#a"/><use xlink:href="#b" x="3.996" y="6.488"/><use xlink:href="#1"/><use xlink:href="#3" y="2.171"/><use xlink:href="#4" y="4.342"/></svg><svg x="1680"><use xlink:href="#a"/><use xlink:href="#b" x="-.004" y="8.659"/><use xlink:href="#1"/><use xlink:href="#3" y="2.171"/><use xlink:href="#4" y="4.342"/><use xlink:href="#5" y="6.513"/></svg><svg x="1820"><use xlink:href="#a"/><use xlink:href="#b" x="-.004" y="10.83"/><use xlink:href="#1"/><use xlink:href="#3" y="2.171"/><use xlink:href="#4" y="4.342"/><use xlink:href="#5" y="6.513"/></svg><svg x="1960"><use xlink:href="#a"/><use xlink:href="#b" x="-.004" y="17.343"/><use xlink:href="#1"/><use xlink:href="#3" y="2.171"/><use xlink:href="#4" y="4.342"/><use xlink:href="#5" y="6.513"/><use xlink:href="#6" y="10.855"/><use xlink:href="#7" y="13.026"/><use xlink:href="#8" y="15.197"/></svg><svg x="2100"><use xlink:href="#a"/><use xlink:href="#b" x="-.004" y="41.224"/><use xlink:href="#4"/><use xlink:href="#5" y="2.171"/><use xlink:href="#6" y="6.513"/><use xlink:href="#7" y="8.684"/><use xlink:href="#8" y="10.855"/><text y="14.696" class="g">__consumer_offsets</text><text y="16.867" class="g">_acls</text><text y="19.038" class="g">_auditLogs</text><text y="21.209" class="g">_consumerGroupSubscriptionBackingTopic</text><text y="23.38" class="g">_encryptionConfig</text><text y="25.551" class="g">_interceptorConfigs</text><text y="27.722" class="g">_license</text><text y="29.893" class="g">_offsetStore</text><text y="32.064" class="g">_schemas</text><text y="34.235" class="g">_topicMappings</text><text y="36.406" class="g">_topicRegistry</text><text y="38.577" class="g">_userMapping</text><text y="40.748" class="g">cars</text></svg></svg></g></g></svg></svg>