<svg xmlns="http://www.w3.org/2000/svg" xmlns:xlink="http://www.w3.org/1999/xlink" width="1440" height="277.1"><rect width="1440" height="277.1" rx="5" ry="5" class="a"/><svg y="0%" x="0%"><circle cx="20" cy="20" r="6" fill="#ff5f58"/><circle cx="40" cy="20" r="6" fill="#ffbd2e"/><circle cx="60" cy="20" r="6" fill="#18c132"/></svg><svg height="217.1" viewBox="0 0 140 21.71" width="1400" x="15" xmlns="http://www.w3.org/2000/svg" xmlns:xlink="http://www.w3.org/1999/xlink" y="50"><style>@keyframes j{0%{transform:translateX(0)}.4%{transform:translateX(-140px)}.6%{transform:translateX(-280px)}4.3%{transform:translateX(-420px)}6.2%{transform:translateX(-560px)}8.1%{transform:translateX(-700px)}10%{transform:translateX(-840px)}11.9%{transform:translateX(-980px)}13.8%{transform:translateX(-1120px)}15.8%{transform:translateX(-1260px)}17.7%{transform:translateX(-1400px)}19.6%{transform:translateX(-1540px)}21.4%{transform:translateX(-1680px)}23.4%{transform:translateX(-1820px)}25.3%{transform:translateX(-1960px)}27.3%{transform:translateX(-2100px)}31.1%{transform:translateX(-2240px)}33%{transform:translateX(-2380px)}35%{transform:translateX(-2520px)}36.9%{transform:translateX(-2660px)}38.8%{transform:translateX(-2800px)}40.7%{transform:translateX(-3080px)}79.5%{transform:translateX(-3220px)}to{transform:translateX(-3360px)}}.a{fill:#282d35}.f,.g{fill:#fff;white-space:pre}.g{fill:#b9c0cb}</style><g font-family="Monaco,Consolas,Menlo,'Bitstream Vera Sans Mono','Powerline Symbols',monospace" font-size="1.67"><defs><symbol id="1"><text y="1.67" class="f">kafka-topics</text><text x="13.026" y="1.67" class="f">\</text></symbol><symbol id="2"><text x="4.008" y="1.67" class="f">-</text></symbol><symbol id="3"><text x="4.008" y="1.67" class="f">--bootstrap-server</text><text x="23.046" y="1.67" class="f">localhost:6969</text><text x="38.076" y="1.67" class="f">\</text></symbol><symbol id="4"><text x="4.008" y="1.67" class="f">--command-config</text><text x="21.042" y="1.67" class="f">user-1.properties</text><text x="39.078" y="1.67" class="f">\</text></symbol><symbol id="5"><text x="4.008" y="1.67" class="f">--replication-factor</text><text x="25.05" y="1.67" class="f">1</text><text x="27.054" y="1.67" class="f">\</text></symbol><symbol id="6"><text x="4.008" y="1.67" class="f">--partitions</text><text x="17.034" y="1.67" class="f">1</text><text x="19.038" y="1.67" class="f">\</text></symbol><symbol id="7"><text x="4.008" y="1.67" class="f">--create</text><text x="13.026" y="1.67" class="f">--if-not-exists</text><text x="29.058" y="1.67" class="f">\</text></symbol><symbol id="8"><text x="4.008" y="1.67" class="f">--topic</text><text x="12.024" y="1.67" class="f">cars</text></symbol><symbol id="9"><text y="1.67" class="g">[2024-01-23</text><text x="12.024" y="1.67" class="g">00:18:23,864]</text><text x="26.052" y="1.67" class="g">WARN</text><text x="31.062" y="1.67" class="g">[Principal=:f3e0ecec-42d0-455e-88aa-5db45560c160]:</text><text x="82.164" y="1.67" class="g">Expiring</text><text x="91.182" y="1.67" class="g">credential</text><text x="102.204" y="1.67" class="g">expires</text><text x="110.22" y="1.67" class="g">at</text><text x="113.226" y="1.67" class="g">Tue</text><text x="117.234" y="1.67" class="g">Jan</text><text x="121.242" y="1.67" class="g">23</text><text x="124.248" y="1.67" class="g">00:19:23</text><text x="133.266" y="1.67" class="g">CET</text><text x="137.274" y="1.67" class="g">202</text></symbol><symbol id="10"><text y="1.67" class="g">4,</text><text x="3.006" y="1.67" class="g">so</text><text x="6.012" y="1.67" class="g">buffer</text><text x="13.026" y="1.67" class="g">times</text><text x="19.038" y="1.67" class="g">of</text><text x="22.044" y="1.67" class="g">60</text><text x="25.05" y="1.67" class="g">and</text><text x="29.058" y="1.67" class="g">300</text><text x="33.066" y="1.67" class="g">seconds</text><text x="41.082" y="1.67" class="g">at</text><text x="44.088" y="1.67" class="g">the</text><text x="48.096" y="1.67" class="g">front</text><text x="54.108" y="1.67" class="g">and</text><text x="58.116" y="1.67" class="g">back,</text><text x="64.128" y="1.67" class="g">respectively,</text><text x="78.156" y="1.67" class="g">cannot</text><text x="85.17" y="1.67" class="g">be</text><text x="88.176" y="1.67" class="g">accommodated.</text><text x="103.206" y="1.67" class="g">We</text><text x="106.212" y="1.67" class="g">will</text><text x="111.222" y="1.67" class="g">refresh</text><text x="119.238" y="1.67" class="g">at</text><text x="122.244" y="1.67" class="g">Tue</text><text x="126.252" y="1.67" class="g">Jan</text><text x="130.26" y="1.67" class="g">23</text><text x="133.266" y="1.67" class="g">00:19:1</text></symbol><symbol id="11"><text y="1.67" class="g">1</text><text x="2.004" y="1.67" class="g">CET</text><text x="6.012" y="1.67" class="g">2024.</text><text x="12.024" y="1.67" class="g">(org.apache.kafka.common.security.oauthbearer.internals.expiring.ExpiringCredentialRefreshingLogin)</text></symbol><symbol id="a"><path fill="transparent" d="M0 0h140v11H0z"/></symbol><symbol id="b"><path fill="#6f7683" d="M0 0h1.102v2.171H0z"/></symbol></defs><path class="a" d="M0 0h140v21.71H0z"/><g style="animation-duration:4.865919s;animation-iteration-count:infinite;animation-name:j;animation-timing-function:steps(1,end)"><svg width="3500"><svg><use xlink:href="#a"/><use xlink:href="#b" x="-.004"/></svg><svg x="140"><use xlink:href="#a"/><use xlink:href="#b" x="-.004"/></svg><svg x="280"><use xlink:href="#a"/><use xlink:href="#b" x="9.996"/><text y="1.67" class="f">kafka-topi</text></svg><svg x="420"><use xlink:href="#a"/><use xlink:href="#b" x="4.996" y="2.146"/><use xlink:href="#1"/><use xlink:href="#2" y="2.171"/></svg><svg x="560"><use xlink:href="#a"/><use xlink:href="#b" x="14.996" y="2.146"/><use xlink:href="#1"/><text x="4.008" y="3.841" class="f">--bootstrap</text></svg><svg x="700"><use xlink:href="#a"/><use xlink:href="#b" x="24.996" y="2.146"/><use xlink:href="#1"/><text x="4.008" y="3.841" class="f">--bootstrap-server</text><text x="23.046" y="3.841" class="f">lo</text></svg><svg x="840"><use xlink:href="#a"/><use xlink:href="#b" x="34.996" y="2.146"/><use xlink:href="#1"/><text x="4.008" y="3.841" class="f">--bootstrap-server</text><text x="23.046" y="3.841" class="f">localhost:69</text></svg><svg x="980"><use xlink:href="#a"/><use xlink:href="#b" x="4.996" y="4.317"/><use xlink:href="#1"/><use xlink:href="#3" y="2.171"/><use xlink:href="#2" y="4.342"/></svg><svg x="1120"><use xlink:href="#a"/><use xlink:href="#b" x="14.996" y="4.317"/><use xlink:href="#1"/><use xlink:href="#3" y="2.171"/><text x="4.008" y="6.012" class="f">--command-c</text></svg><svg x="1260"><use xlink:href="#a"/><use xlink:href="#b" x="24.996" y="4.317"/><use xlink:href="#1"/><use xlink:href="#3" y="2.171"/><text x="4.008" y="6.012" class="f">--command-config</text><text x="21.042" y="6.012" class="f">user</text></svg><svg x="1400"><use xlink:href="#a"/><use xlink:href="#b" x="34.996" y="4.317"/><use xlink:href="#1"/><use xlink:href="#3" y="2.171"/><text x="4.008" y="6.012" class="f">--command-config</text><text x="21.042" y="6.012" class="f">user-1.propert</text></svg><svg x="1540"><use xlink:href="#a"/><use xlink:href="#b" x="3.996" y="6.488"/><use xlink:href="#1"/><use xlink:href="#3" y="2.171"/><use xlink:href="#4" y="4.342"/></svg><svg x="1680"><use xlink:href="#a"/><use xlink:href="#b" x="13.996" y="6.488"/><use xlink:href="#1"/><use xlink:href="#3" y="2.171"/><use xlink:href="#4" y="4.342"/><text x="4.008" y="8.183" class="f">--replicat</text></svg><svg x="1820"><use xlink:href="#a"/><use xlink:href="#b" x="23.996" y="6.488"/><use xlink:href="#1"/><use xlink:href="#3" y="2.171"/><use xlink:href="#4" y="4.342"/><text x="4.008" y="8.183" class="f">--replication-factor</text></svg><svg x="1960"><use xlink:href="#a"/><use xlink:href="#b" x="4.996" y="8.659"/><use xlink:href="#1"/><use xlink:href="#3" y="2.171"/><use xlink:href="#4" y="4.342"/><use xlink:href="#5" y="6.513"/><use xlink:href="#2" y="8.684"/></svg><svg x="2100"><use xlink:href="#a"/><use xlink:href="#b" x="14.996" y="8.659"/><use xlink:href="#1"/><use xlink:href="#3" y="2.171"/><use xlink:href="#4" y="4.342"/><use xlink:href="#5" y="6.513"/><text x="4.008" y="10.354" class="f">--partition</text></svg><svg x="2240"><use xlink:href="#a"/><use xlink:href="#b" x="3.996" y="10.83"/><use xlink:href="#1"/><use xlink:href="#3" y="2.171"/><use xlink:href="#4" y="4.342"/><use xlink:href="#5" y="6.513"/><use xlink:href="#6" y="8.684"/></svg><svg x="2380"><use xlink:href="#a"/><use xlink:href="#b" x="13.996" y="10.83"/><use xlink:href="#1"/><use xlink:href="#3" y="2.171"/><use xlink:href="#4" y="4.342"/><use xlink:href="#5" y="6.513"/><use xlink:href="#6" y="8.684"/><text x="4.008" y="12.525" class="f">--create</text><text x="13.026" y="12.525" class="f">-</text></svg><svg x="2520"><use xlink:href="#a"/><use xlink:href="#b" x="23.996" y="10.83"/><use xlink:href="#1"/><use xlink:href="#3" y="2.171"/><use xlink:href="#4" y="4.342"/><use xlink:href="#5" y="6.513"/><use xlink:href="#6" y="8.684"/><text x="4.008" y="12.525" class="f">--create</text><text x="13.026" y="12.525" class="f">--if-not-ex</text></svg><svg x="2660"><use xlink:href="#a"/><use xlink:href="#b" x="2.996" y="13.001"/><use xlink:href="#1"/><use xlink:href="#3" y="2.171"/><use xlink:href="#4" y="4.342"/><use xlink:href="#5" y="6.513"/><use xlink:href="#6" y="8.684"/><use xlink:href="#7" y="10.855"/></svg><svg x="2800"><use xlink:href="#a"/><use xlink:href="#b" x="12.996" y="13.001"/><use xlink:href="#1"/><use xlink:href="#3" y="2.171"/><use xlink:href="#4" y="4.342"/><use xlink:href="#5" y="6.513"/><use xlink:href="#6" y="8.684"/><use xlink:href="#7" y="10.855"/><text x="4.008" y="14.696" class="f">--topic</text><text x="12.024" y="14.696" class="f">c</text></svg><svg x="2940"><use xlink:href="#a"/><use xlink:href="#b" x="-.004" y="15.172"/><use xlink:href="#1"/><use xlink:href="#3" y="2.171"/><use xlink:href="#4" y="4.342"/><use xlink:href="#5" y="6.513"/><use xlink:href="#6" y="8.684"/><use xlink:href="#7" y="10.855"/><use xlink:href="#8" y="13.026"/></svg><svg x="3080"><use xlink:href="#a"/><use xlink:href="#b" x="-.004" y="17.343"/><use xlink:href="#1"/><use xlink:href="#3" y="2.171"/><use xlink:href="#4" y="4.342"/><use xlink:href="#5" y="6.513"/><use xlink:href="#6" y="8.684"/><use xlink:href="#7" y="10.855"/><use xlink:href="#8" y="13.026"/></svg><svg x="3220"><use xlink:href="#a"/><use xlink:href="#b" x="-.004" y="21.685"/><use xlink:href="#3"/><use xlink:href="#4" y="2.171"/><use xlink:href="#5" y="4.342"/><use xlink:href="#6" y="6.513"/><use xlink:href="#7" y="8.684"/><use xlink:href="#8" y="10.855"/><use xlink:href="#9" y="15.197"/><use xlink:href="#10" y="17.368"/><use xlink:href="#11" y="19.539"/></svg><svg x="3360"><use xlink:href="#a"/><use xlink:href="#b" x="-.004" y="21.685"/><use xlink:href="#4"/><use xlink:href="#5" y="2.171"/><use xlink:href="#6" y="4.342"/><use xlink:href="#7" y="6.513"/><use xlink:href="#8" y="8.684"/><use xlink:href="#9" y="13.026"/><use xlink:href="#10" y="15.197"/><use xlink:href="#11" y="17.368"/><text y="21.209" class="g">Created</text><text x="8.016" y="21.209" class="g">topic</text><text x="14.028" y="21.209" class="g">cars.</text></svg></svg></g></g></svg></svg>