<svg xmlns="http://www.w3.org/2000/svg" xmlns:xlink="http://www.w3.org/1999/xlink" width="1440" height="494.2"><rect width="1440" height="494.2" rx="5" ry="5" class="a"/><svg y="0%" x="0%"><circle cx="20" cy="20" r="6" fill="#ff5f58"/><circle cx="40" cy="20" r="6" fill="#ffbd2e"/><circle cx="60" cy="20" r="6" fill="#18c132"/></svg><svg height="434.2" viewBox="0 0 140 43.42" width="1400" x="15" xmlns="http://www.w3.org/2000/svg" xmlns:xlink="http://www.w3.org/1999/xlink" y="50"><style>@keyframes m{0%{transform:translateX(0)}2.2%{transform:translateX(-140px)}2.8%{transform:translateX(-280px)}10.9%{transform:translateX(-420px)}14.8%{transform:translateX(-560px)}18.6%{transform:translateX(-700px)}22.6%{transform:translateX(-840px)}26.7%{transform:translateX(-980px)}30.7%{transform:translateX(-1120px)}34.8%{transform:translateX(-1260px)}38.8%{transform:translateX(-1400px)}42.8%{transform:translateX(-1540px)}46.9%{transform:translateX(-1680px)}50.9%{transform:translateX(-1820px)}55%{transform:translateX(-1960px)}59.1%{transform:translateX(-2100px)}63.1%{transform:translateX(-2240px)}67.1%{transform:translateX(-2520px)}67.4%{transform:translateX(-2660px)}to{transform:translateX(-2800px)}}.a{fill:#282d35}.f{fill:#fff;white-space:pre}.g{fill:#b9c0cb;font-weight:700}.g,.h,.i,.j{white-space:pre}.h{fill:#71bef2;font-weight:700}.i,.j{fill:#a8cc8c}.j{fill:#b9c0cb}</style><g font-family="Monaco,Consolas,Menlo,'Bitstream Vera Sans Mono','Powerline Symbols',monospace" font-size="1.67"><defs><symbol id="1"><text y="1.67" class="f">cat</text><text x="4.008" y="1.67" class="f">step-08-duplicate-messages.json</text><text x="36.072" y="1.67" class="f">|</text><text x="38.076" y="1.67" class="f">jq</text></symbol><symbol id="2"><text y="1.67" class="f">curl</text><text x="5.01" y="1.67" class="f">\</text></symbol><symbol id="3"><text x="4.008" y="1.67" class="f">--request</text><text x="14.028" y="1.67" class="f">POST</text><text x="19.038" y="1.67" class="f">&quot;http://localhost:8888/admin/interceptors/v1/vcluster/teamA/interceptor/duplicate-messages&quot;</text><text x="111.222" y="1.67" class="f">\</text></symbol><symbol id="4"><text x="4.008" y="1.67" class="f">--header</text><text x="13.026" y="1.67" class="f">&apos;Content-Type:</text><text x="28.056" y="1.67" class="f">application/json&apos;</text><text x="46.092" y="1.67" class="f">\</text></symbol><symbol id="5"><text x="4.008" y="1.67" class="f">--user</text><text x="11.022" y="1.67" class="f">&apos;admin:conduktor&apos;</text><text x="29.058" y="1.67" class="f">\</text></symbol><symbol id="6"><text x="4.008" y="1.67" class="f">--silent</text><text x="13.026" y="1.67" class="f">\</text></symbol><symbol id="7"><text x="4.008" y="1.67" class="f">--data</text><text x="11.022" y="1.67" class="f">@step-08-duplicate-messages.json</text><text x="44.088" y="1.67" class="f">|</text><text x="46.092" y="1.67" class="f">jq</text></symbol><symbol id="8"><text y="1.67" class="g">{</text></symbol><symbol id="9"><text x="2.004" y="1.67" class="h">&quot;pluginClass&quot;</text><text x="15.03" y="1.67" class="g">:</text><text x="17.034" y="1.67" class="i">&quot;io.conduktor.gateway.interceptor.chaos.DuplicateMessagesPlugin&quot;</text><text x="81.162" y="1.67" class="g">,</text></symbol><symbol id="10"><text x="2.004" y="1.67" class="h">&quot;priority&quot;</text><text x="12.024" y="1.67" class="g">:</text><text x="14.028" y="1.67" class="j">100</text><text x="17.034" y="1.67" class="g">,</text></symbol><symbol id="11"><text x="2.004" y="1.67" class="h">&quot;config&quot;</text><text x="10.02" y="1.67" class="g">:</text><text x="12.024" y="1.67" class="g">{</text></symbol><symbol id="12"><text x="4.008" y="1.67" class="h">&quot;rateInPercent&quot;</text><text x="19.038" y="1.67" class="g">:</text><text x="21.042" y="1.67" class="j">100</text><text x="24.048" y="1.67" class="g">,</text></symbol><symbol id="13"><text x="4.008" y="1.67" class="h">&quot;topic&quot;</text><text x="11.022" y="1.67" class="g">:</text><text x="13.026" y="1.67" class="i">&quot;topic-duplicate&quot;</text><text x="30.06" y="1.67" class="g">,</text></symbol><symbol id="14"><text x="4.008" y="1.67" class="h">&quot;target&quot;</text><text x="12.024" y="1.67" class="g">:</text><text x="14.028" y="1.67" class="i">&quot;PRODUCE&quot;</text></symbol><symbol id="15"><text x="2.004" y="1.67" class="g">}</text></symbol><symbol id="16"><text y="1.67" class="g">}</text></symbol><symbol id="a"><path fill="transparent" d="M0 0h140v21H0z"/></symbol><symbol id="b"><path fill="#6f7683" d="M0 0h1.102v2.171H0z"/></symbol></defs><path class="a" d="M0 0h140v43.42H0z"/><g style="animation-duration:2.342147s;animation-iteration-count:infinite;animation-name:m;animation-timing-function:steps(1,end)"><svg width="2940"><svg><use xlink:href="#a"/><use xlink:href="#b" x="-.004"/></svg><svg x="140"><use xlink:href="#a"/><use xlink:href="#b" x="-.004"/></svg><svg x="280"><use xlink:href="#a"/><use xlink:href="#b" x="19.996"/><text y="1.67" class="f">cat</text><text x="4.008" y="1.67" class="f">step-08-duplicat</text></svg><svg x="420"><use xlink:href="#a"/><use xlink:href="#b" x="39.996"/><use xlink:href="#1"/></svg><svg x="560"><use xlink:href="#a"/><use xlink:href="#b" x="10.996" y="6.488"/><use xlink:href="#1"/><use xlink:href="#2" y="4.342"/><text x="4.008" y="8.183" class="f">--reque</text></svg><svg x="700"><use xlink:href="#a"/><use xlink:href="#b" x="30.996" y="6.488"/><use xlink:href="#1"/><use xlink:href="#2" y="4.342"/><text x="4.008" y="8.183" class="f">--request</text><text x="14.028" y="8.183" class="f">POST</text><text x="19.038" y="8.183" class="f">&quot;http://loca</text></svg><svg x="840"><use xlink:href="#a"/><use xlink:href="#b" x="50.996" y="6.488"/><use xlink:href="#1"/><use xlink:href="#2" y="4.342"/><text x="4.008" y="8.183" class="f">--request</text><text x="14.028" y="8.183" class="f">POST</text><text x="19.038" y="8.183" class="f">&quot;http://localhost:8888/admin/int</text></svg><svg x="980"><use xlink:href="#a"/><use xlink:href="#b" x="70.996" y="6.488"/><use xlink:href="#1"/><use xlink:href="#2" y="4.342"/><text x="4.008" y="8.183" class="f">--request</text><text x="14.028" y="8.183" class="f">POST</text><text x="19.038" y="8.183" class="f">&quot;http://localhost:8888/admin/interceptors/v1/vcluste</text></svg><svg x="1120"><use xlink:href="#a"/><use xlink:href="#b" x="90.996" y="6.488"/><use xlink:href="#1"/><use xlink:href="#2" y="4.342"/><text x="4.008" y="8.183" class="f">--request</text><text x="14.028" y="8.183" class="f">POST</text><text x="19.038" y="8.183" class="f">&quot;http://localhost:8888/admin/interceptors/v1/vcluster/teamA/interceptor/</text></svg><svg x="1260"><use xlink:href="#a"/><use xlink:href="#b" x="110.996" y="6.488"/><use xlink:href="#1"/><use xlink:href="#2" y="4.342"/><text x="4.008" y="8.183" class="f">--request</text><text x="14.028" y="8.183" class="f">POST</text><text x="19.038" y="8.183" class="f">&quot;http://localhost:8888/admin/interceptors/v1/vcluster/teamA/interceptor/duplicate-messages&quot;</text></svg><svg x="1400"><use xlink:href="#a"/><use xlink:href="#b" x="17.996" y="8.659"/><use xlink:href="#1"/><use xlink:href="#2" y="4.342"/><use xlink:href="#3" y="6.513"/><text x="4.008" y="10.354" class="f">--header</text><text x="13.026" y="10.354" class="f">&apos;Cont</text></svg><svg x="1540"><use xlink:href="#a"/><use xlink:href="#b" x="37.996" y="8.659"/><use xlink:href="#1"/><use xlink:href="#2" y="4.342"/><use xlink:href="#3" y="6.513"/><text x="4.008" y="10.354" class="f">--header</text><text x="13.026" y="10.354" class="f">&apos;Content-Type:</text><text x="28.056" y="10.354" class="f">applicatio</text></svg><svg x="1680"><use xlink:href="#a"/><use xlink:href="#b" x="9.996" y="10.83"/><use xlink:href="#1"/><use xlink:href="#2" y="4.342"/><use xlink:href="#3" y="6.513"/><use xlink:href="#4" y="8.684"/><text x="4.008" y="12.525" class="f">--user</text></svg><svg x="1820"><use xlink:href="#a"/><use xlink:href="#b" x="29.996" y="10.83"/><use xlink:href="#1"/><use xlink:href="#2" y="4.342"/><use xlink:href="#3" y="6.513"/><use xlink:href="#4" y="8.684"/><use xlink:href="#5" y="10.855"/></svg><svg x="1960"><use xlink:href="#a"/><use xlink:href="#b" x="3.996" y="15.172"/><use xlink:href="#1"/><use xlink:href="#2" y="4.342"/><use xlink:href="#3" y="6.513"/><use xlink:href="#4" y="8.684"/><use xlink:href="#5" y="10.855"/><use xlink:href="#6" y="13.026"/></svg><svg x="2100"><use xlink:href="#a"/><use xlink:href="#b" x="23.996" y="15.172"/><use xlink:href="#1"/><use xlink:href="#2" y="4.342"/><use xlink:href="#3" y="6.513"/><use xlink:href="#4" y="8.684"/><use xlink:href="#5" y="10.855"/><use xlink:href="#6" y="13.026"/><text x="4.008" y="16.867" class="f">--data</text><text x="11.022" y="16.867" class="f">@step-08-dupl</text></svg><svg x="2240"><use xlink:href="#a"/><use xlink:href="#b" x="43.996" y="15.172"/><use xlink:href="#1"/><use xlink:href="#2" y="4.342"/><use xlink:href="#3" y="6.513"/><use xlink:href="#4" y="8.684"/><use xlink:href="#5" y="10.855"/><use xlink:href="#6" y="13.026"/><text x="4.008" y="16.867" class="f">--data</text><text x="11.022" y="16.867" class="f">@step-08-duplicate-messages.json</text></svg><svg x="2380"><use xlink:href="#a"/><use xlink:href="#b" x="-.004" y="17.343"/><use xlink:href="#1"/><use xlink:href="#2" y="4.342"/><use xlink:href="#3" y="6.513"/><use xlink:href="#4" y="8.684"/><use xlink:href="#5" y="10.855"/><use xlink:href="#6" y="13.026"/><use xlink:href="#7" y="15.197"/></svg><svg x="2520"><use xlink:href="#a"/><use xlink:href="#b" x="-.004" y="19.514"/><use xlink:href="#1"/><use xlink:href="#2" y="4.342"/><use xlink:href="#3" y="6.513"/><use xlink:href="#4" y="8.684"/><use xlink:href="#5" y="10.855"/><use xlink:href="#6" y="13.026"/><use xlink:href="#7" y="15.197"/></svg><svg x="2660"><use xlink:href="#a"/><use xlink:href="#b" x="-.004" y="39.053"/><use xlink:href="#1"/><use xlink:href="#2" y="4.342"/><use xlink:href="#3" y="6.513"/><use xlink:href="#4" y="8.684"/><use xlink:href="#5" y="10.855"/><use xlink:href="#6" y="13.026"/><use xlink:href="#7" y="15.197"/><use xlink:href="#8" y="19.539"/><use xlink:href="#9" y="21.71"/><use xlink:href="#10" y="23.881"/><use xlink:href="#11" y="26.052"/><use xlink:href="#12" y="28.223"/><use xlink:href="#13" y="30.394"/><use xlink:href="#14" y="32.565"/><use xlink:href="#15" y="34.736"/><use xlink:href="#16" y="36.907"/></svg><svg x="2800"><use xlink:href="#a"/><use xlink:href="#b" x="-.004" y="43.395"/><use xlink:href="#2" y="2.171"/><use xlink:href="#3" y="4.342"/><use xlink:href="#4" y="6.513"/><use xlink:href="#5" y="8.684"/><use xlink:href="#6" y="10.855"/><use xlink:href="#7" y="13.026"/><use xlink:href="#8" y="17.368"/><use xlink:href="#9" y="19.539"/><use xlink:href="#10" y="21.71"/><use xlink:href="#11" y="23.881"/><use xlink:href="#12" y="26.052"/><use xlink:href="#13" y="28.223"/><use xlink:href="#14" y="30.394"/><use xlink:href="#15" y="32.565"/><use xlink:href="#16" y="34.736"/><use xlink:href="#8" y="36.907"/><text x="2.004" y="40.748" class="h">&quot;message&quot;</text><text x="11.022" y="40.748" class="g">:</text><text x="13.026" y="40.748" class="i">&quot;duplicate-messages</text><text x="33.066" y="40.748" class="i">is</text><text x="36.072" y="40.748" class="i">created&quot;</text><use xlink:href="#16" y="41.249"/></svg></svg></g></g></svg></svg>