<svg xmlns="http://www.w3.org/2000/svg" xmlns:xlink="http://www.w3.org/1999/xlink" width="1440" height="429.07"><rect width="1440" height="429.07" rx="5" ry="5" class="a"/><svg y="0%" x="0%"><circle cx="20" cy="20" r="6" fill="#ff5f58"/><circle cx="40" cy="20" r="6" fill="#ffbd2e"/><circle cx="60" cy="20" r="6" fill="#18c132"/></svg><svg height="369.07" viewBox="0 0 140 36.907" width="1400" x="15" xmlns="http://www.w3.org/2000/svg" xmlns:xlink="http://www.w3.org/1999/xlink" y="50"><style>@keyframes m{0%{transform:translateX(0)}.2%{transform:translateX(-140px)}.3%{transform:translateX(-280px)}3.5%{transform:translateX(-420px)}5.1%{transform:translateX(-560px)}6.8%{transform:translateX(-700px)}8.5%{transform:translateX(-840px)}10.1%{transform:translateX(-980px)}11.8%{transform:translateX(-1120px)}13.4%{transform:translateX(-1260px)}15.1%{transform:translateX(-1400px)}16.8%{transform:translateX(-1540px)}18.4%{transform:translateX(-1680px)}20%{transform:translateX(-1820px)}21.6%{transform:translateX(-1960px)}23.3%{transform:translateX(-2100px)}24.9%{transform:translateX(-2240px)}28.2%{transform:translateX(-2380px)}29.8%{transform:translateX(-2520px)}31.4%{transform:translateX(-2660px)}33.1%{transform:translateX(-2800px)}34.7%{transform:translateX(-3080px)}58.9%{transform:translateX(-3220px)}93.9%{transform:translateX(-3360px)}to{transform:translateX(-3500px)}}.a{fill:#282d35}.f{fill:#fff}.f,.g,.i,.j{white-space:pre}.g{fill:#b9c0cb;font-weight:700}.i,.j{fill:#a8cc8c}.j{fill:#b9c0cb}</style><g font-family="Monaco,Consolas,Menlo,'Bitstream Vera Sans Mono','Powerline Symbols',monospace" font-size="1.67"><defs><symbol id="1"><text y="1.67" class="f">kafka-console-consumer</text><text x="23.046" y="1.67" class="f">\</text></symbol><symbol id="2"><text x="4.008" y="1.67" class="f">-</text></symbol><symbol id="3"><text x="4.008" y="1.67" class="f">--bootstrap-server</text><text x="23.046" y="1.67" class="f">localhost:6969</text><text x="38.076" y="1.67" class="f">\</text></symbol><symbol id="4"><text x="4.008" y="1.67" class="f">--consumer.config</text><text x="22.044" y="1.67" class="f">teamA-sa.properties</text><text x="42.084" y="1.67" class="f">\</text></symbol><symbol id="5"><text x="4.008" y="1.67" class="f">--topic</text><text x="12.024" y="1.67" class="f">topic-duplicate</text><text x="28.056" y="1.67" class="f">\</text></symbol><symbol id="6"><text x="4.008" y="1.67" class="f">--from-beginning</text><text x="21.042" y="1.67" class="f">\</text></symbol><symbol id="7"><text x="4.008" y="1.67" class="f">--timeout-ms</text><text x="17.034" y="1.67" class="f">10000</text><text x="23.046" y="1.67" class="f">\</text></symbol><symbol id="8"><text x="1.002" y="1.67" class="f">|</text><text x="3.006" y="1.67" class="f">jq</text></symbol><symbol id="9"><text y="1.67" class="g">{</text></symbol><symbol id="10"><text x="2.004" y="1.67" style="white-space:pre" fill="#71bef2" font-weight="700">&quot;message&quot;</text><text x="11.022" y="1.67" class="g">:</text><text x="13.026" y="1.67" class="i">&quot;hello</text><text x="20.04" y="1.67" class="i">world&quot;</text></symbol><symbol id="11"><text y="1.67" class="g">}</text></symbol><symbol id="12"><text y="1.67" class="j">[2024-01-22</text><text x="12.024" y="1.67" class="j">17:37:18,951]</text><text x="26.052" y="1.67" class="j">ERROR</text><text x="32.064" y="1.67" class="j">Error</text><text x="38.076" y="1.67" class="j">processing</text><text x="49.098" y="1.67" class="j">message,</text><text x="58.116" y="1.67" class="j">terminating</text><text x="70.14" y="1.67" class="j">consumer</text><text x="79.158" y="1.67" class="j">process:</text><text x="89.178" y="1.67" class="j">(kafka.tools.ConsoleConsumer$)</text></symbol><symbol id="13"><text y="1.67" class="j">org.apache.kafka.common.errors.TimeoutException</text></symbol><symbol id="a"><path fill="transparent" d="M0 0h140v18H0z"/></symbol><symbol id="b"><path fill="#6f7683" d="M0 0h1.102v2.171H0z"/></symbol></defs><path class="a" d="M0 0h140v36.907H0z"/><g style="animation-duration:5.711195000000001s;animation-iteration-count:infinite;animation-name:m;animation-timing-function:steps(1,end)"><svg width="3640"><svg><use xlink:href="#a"/><use xlink:href="#b" x="-.004"/></svg><svg x="140"><use xlink:href="#a"/><use xlink:href="#b" x="-.004"/></svg><svg x="280"><use xlink:href="#a"/><use xlink:href="#b" x="9.996"/><text y="1.67" class="f">kafka-cons</text></svg><svg x="420"><use xlink:href="#a"/><use xlink:href="#b" x="19.996"/><text y="1.67" class="f">kafka-console-consum</text></svg><svg x="560"><use xlink:href="#a"/><use xlink:href="#b" x="4.996" y="2.146"/><use xlink:href="#1"/><use xlink:href="#2" y="2.171"/></svg><svg x="700"><use xlink:href="#a"/><use xlink:href="#b" x="14.996" y="2.146"/><use xlink:href="#1"/><text x="4.008" y="3.841" class="f">--bootstrap</text></svg><svg x="840"><use xlink:href="#a"/><use xlink:href="#b" x="24.996" y="2.146"/><use xlink:href="#1"/><text x="4.008" y="3.841" class="f">--bootstrap-server</text><text x="23.046" y="3.841" class="f">lo</text></svg><svg x="980"><use xlink:href="#a"/><use xlink:href="#b" x="34.996" y="2.146"/><use xlink:href="#1"/><text x="4.008" y="3.841" class="f">--bootstrap-server</text><text x="23.046" y="3.841" class="f">localhost:69</text></svg><svg x="1120"><use xlink:href="#a"/><use xlink:href="#b" x="4.996" y="4.317"/><use xlink:href="#1"/><use xlink:href="#3" y="2.171"/><use xlink:href="#2" y="4.342"/></svg><svg x="1260"><use xlink:href="#a"/><use xlink:href="#b" x="14.996" y="4.317"/><use xlink:href="#1"/><use xlink:href="#3" y="2.171"/><text x="4.008" y="6.012" class="f">--consumer.</text></svg><svg x="1400"><use xlink:href="#a"/><use xlink:href="#b" x="24.996" y="4.317"/><use xlink:href="#1"/><use xlink:href="#3" y="2.171"/><text x="4.008" y="6.012" class="f">--consumer.config</text><text x="22.044" y="6.012" class="f">tea</text></svg><svg x="1540"><use xlink:href="#a"/><use xlink:href="#b" x="34.996" y="4.317"/><use xlink:href="#1"/><use xlink:href="#3" y="2.171"/><text x="4.008" y="6.012" class="f">--consumer.config</text><text x="22.044" y="6.012" class="f">teamA-sa.prop</text></svg><svg x="1680"><use xlink:href="#a"/><use xlink:href="#b" x=".996" y="6.488"/><use xlink:href="#1"/><use xlink:href="#3" y="2.171"/><use xlink:href="#4" y="4.342"/></svg><svg x="1820"><use xlink:href="#a"/><use xlink:href="#b" x="10.996" y="6.488"/><use xlink:href="#1"/><use xlink:href="#3" y="2.171"/><use xlink:href="#4" y="4.342"/><text x="4.008" y="8.183" class="f">--topic</text></svg><svg x="1960"><use xlink:href="#a"/><use xlink:href="#b" x="20.996" y="6.488"/><use xlink:href="#1"/><use xlink:href="#3" y="2.171"/><use xlink:href="#4" y="4.342"/><text x="4.008" y="8.183" class="f">--topic</text><text x="12.024" y="8.183" class="f">topic-dup</text></svg><svg x="2100"><use xlink:href="#a"/><use xlink:href="#b" x=".996" y="8.659"/><use xlink:href="#1"/><use xlink:href="#3" y="2.171"/><use xlink:href="#4" y="4.342"/><use xlink:href="#5" y="6.513"/></svg><svg x="2240"><use xlink:href="#a"/><use xlink:href="#b" x="10.996" y="8.659"/><use xlink:href="#1"/><use xlink:href="#3" y="2.171"/><use xlink:href="#4" y="4.342"/><use xlink:href="#5" y="6.513"/><text x="4.008" y="10.354" class="f">--from-</text></svg><svg x="2380"><use xlink:href="#a"/><use xlink:href="#b" x="20.996" y="8.659"/><use xlink:href="#1"/><use xlink:href="#3" y="2.171"/><use xlink:href="#4" y="4.342"/><use xlink:href="#5" y="6.513"/><text x="4.008" y="10.354" class="f">--from-beginning</text></svg><svg x="2520"><use xlink:href="#a"/><use xlink:href="#b" x="7.996" y="10.83"/><use xlink:href="#1"/><use xlink:href="#3" y="2.171"/><use xlink:href="#4" y="4.342"/><use xlink:href="#5" y="6.513"/><use xlink:href="#6" y="8.684"/><text x="4.008" y="12.525" class="f">--ti</text></svg><svg x="2660"><use xlink:href="#a"/><use xlink:href="#b" x="17.996" y="10.83"/><use xlink:href="#1"/><use xlink:href="#3" y="2.171"/><use xlink:href="#4" y="4.342"/><use xlink:href="#5" y="6.513"/><use xlink:href="#6" y="8.684"/><text x="4.008" y="12.525" class="f">--timeout-ms</text><text x="17.034" y="12.525" class="f">1</text></svg><svg x="2800"><use xlink:href="#a"/><use xlink:href="#b" x="2.996" y="13.001"/><use xlink:href="#1"/><use xlink:href="#3" y="2.171"/><use xlink:href="#4" y="4.342"/><use xlink:href="#5" y="6.513"/><use xlink:href="#6" y="8.684"/><use xlink:href="#7" y="10.855"/><text x="1.002" y="14.696" class="f">|</text></svg><svg x="2940"><use xlink:href="#a"/><use xlink:href="#b" x="-.004" y="15.172"/><use xlink:href="#1"/><use xlink:href="#3" y="2.171"/><use xlink:href="#4" y="4.342"/><use xlink:href="#5" y="6.513"/><use xlink:href="#6" y="8.684"/><use xlink:href="#7" y="10.855"/><use xlink:href="#8" y="13.026"/></svg><svg x="3080"><use xlink:href="#a"/><use xlink:href="#b" x="-.004" y="17.343"/><use xlink:href="#1"/><use xlink:href="#3" y="2.171"/><use xlink:href="#4" y="4.342"/><use xlink:href="#5" y="6.513"/><use xlink:href="#6" y="8.684"/><use xlink:href="#7" y="10.855"/><use xlink:href="#8" y="13.026"/></svg><svg x="3220"><use xlink:href="#a"/><use xlink:href="#b" x="-.004" y="30.369"/><use xlink:href="#1"/><use xlink:href="#3" y="2.171"/><use xlink:href="#4" y="4.342"/><use xlink:href="#5" y="6.513"/><use xlink:href="#6" y="8.684"/><use xlink:href="#7" y="10.855"/><use xlink:href="#8" y="13.026"/><use xlink:href="#9" y="17.368"/><use xlink:href="#10" y="19.539"/><use xlink:href="#11" y="21.71"/><use xlink:href="#9" y="23.881"/><use xlink:href="#10" y="26.052"/><use xlink:href="#11" y="28.223"/></svg><svg x="3360"><use xlink:href="#a"/><use xlink:href="#b" x="-.004" y="34.711"/><use xlink:href="#1"/><use xlink:href="#3" y="2.171"/><use xlink:href="#4" y="4.342"/><use xlink:href="#5" y="6.513"/><use xlink:href="#6" y="8.684"/><use xlink:href="#7" y="10.855"/><use xlink:href="#8" y="13.026"/><use xlink:href="#9" y="17.368"/><use xlink:href="#10" y="19.539"/><use xlink:href="#11" y="21.71"/><use xlink:href="#9" y="23.881"/><use xlink:href="#10" y="26.052"/><use xlink:href="#11" y="28.223"/><use xlink:href="#12" y="30.394"/><use xlink:href="#13" y="32.565"/></svg><svg x="3500"><use xlink:href="#a"/><use xlink:href="#b" x="-.004" y="36.882"/><use xlink:href="#1"/><use xlink:href="#3" y="2.171"/><use xlink:href="#4" y="4.342"/><use xlink:href="#5" y="6.513"/><use xlink:href="#6" y="8.684"/><use xlink:href="#7" y="10.855"/><use xlink:href="#8" y="13.026"/><use xlink:href="#9" y="17.368"/><use xlink:href="#10" y="19.539"/><use xlink:href="#11" y="21.71"/><use xlink:href="#9" y="23.881"/><use xlink:href="#10" y="26.052"/><use xlink:href="#11" y="28.223"/><use xlink:href="#12" y="30.394"/><use xlink:href="#13" y="32.565"/><text y="36.406" class="j">Processed</text><text x="10.02" y="36.406" class="j">a</text><text x="12.024" y="36.406" class="j">total</text><text x="18.036" y="36.406" class="j">of</text><text x="21.042" y="36.406" class="j">2</text><text x="23.046" y="36.406" class="j">messages</text></svg></svg></g></g></svg></svg>