<svg xmlns="http://www.w3.org/2000/svg" xmlns:xlink="http://www.w3.org/1999/xlink" width="1440" height="168.55"><rect width="1440" height="168.55" rx="5" ry="5" class="a"/><svg y="0%" x="0%"><circle cx="20" cy="20" r="6" fill="#ff5f58"/><circle cx="40" cy="20" r="6" fill="#ffbd2e"/><circle cx="60" cy="20" r="6" fill="#18c132"/></svg><svg height="108.55" viewBox="0 0 140 10.855" width="1400" x="15" xmlns="http://www.w3.org/2000/svg" xmlns:xlink="http://www.w3.org/1999/xlink" y="50"><style>@keyframes i{0%{transform:translateX(0)}.8%{transform:translateX(-140px)}1.1%{transform:translateX(-280px)}11%{transform:translateX(-420px)}15.9%{transform:translateX(-560px)}20.9%{transform:translateX(-700px)}25.9%{transform:translateX(-840px)}30.9%{transform:translateX(-980px)}35.8%{transform:translateX(-1120px)}40.7%{transform:translateX(-1260px)}45.5%{transform:translateX(-1400px)}50.5%{transform:translateX(-1540px)}55.3%{transform:translateX(-1680px)}60.1%{transform:translateX(-1820px)}65.1%{transform:translateX(-1960px)}70.3%{transform:translateX(-2100px)}75.2%{transform:translateX(-2240px)}85.2%{transform:translateX(-2380px)}90%{transform:translateX(-2520px)}95%{transform:translateX(-2660px)}to{transform:translateX(-2940px)}}.a{fill:#282d35}.f{fill:#fff;white-space:pre}</style><g font-family="Monaco,Consolas,Menlo,'Bitstream Vera Sans Mono','Powerline Symbols',monospace" font-size="1.67"><defs><symbol id="1"><text y="1.67" class="f">echo</text><text x="5.01" y="1.67" class="f">&apos;{&quot;message&quot;:</text><text x="18.036" y="1.67" class="f">&quot;hello</text><text x="25.05" y="1.67" class="f">world&quot;}&apos;</text><text x="34.068" y="1.67" class="f">|</text><text x="36.072" y="1.67" class="f">\</text></symbol><symbol id="2"><text x="4.008" y="1.67" class="f">kafka-console-producer</text><text x="27.054" y="1.67" class="f">\</text></symbol><symbol id="3"><text x="8.016" y="1.67" class="f">--bootstrap-server</text><text x="27.054" y="1.67" class="f">localhost:6969</text><text x="42.084" y="1.67" class="f">\</text></symbol><symbol id="4"><text x="8.016" y="1.67" class="f">--producer.config</text><text x="26.052" y="1.67" class="f">teamA-sa.properties</text><text x="46.092" y="1.67" class="f">\</text></symbol><symbol id="5"><text x="8.016" y="1.67" class="f">--topic</text><text x="16.032" y="1.67" class="f">topic-duplicate</text></symbol><symbol id="a"><path fill="transparent" d="M0 0h140v6H0z"/></symbol><symbol id="b"><path fill="#6f7683" d="M0 0h1.102v2.171H0z"/></symbol></defs><path class="a" d="M0 0h140v10.855H0z"/><g style="animation-duration:1.893947s;animation-iteration-count:infinite;animation-name:i;animation-timing-function:steps(1,end)"><svg width="3080"><svg><use xlink:href="#a"/><use xlink:href="#b" x="-.004"/></svg><svg x="140"><use xlink:href="#a"/><use xlink:href="#b" x="-.004"/></svg><svg x="280"><use xlink:href="#a"/><use xlink:href="#b" x="9.996"/><text y="1.67" class="f">echo</text><text x="5.01" y="1.67" class="f">&apos;{&quot;me</text></svg><svg x="420"><use xlink:href="#a"/><use xlink:href="#b" x="19.996"/><text y="1.67" class="f">echo</text><text x="5.01" y="1.67" class="f">&apos;{&quot;message&quot;:</text><text x="18.036" y="1.67" class="f">&quot;h</text></svg><svg x="560"><use xlink:href="#a"/><use xlink:href="#b" x="29.996"/><text y="1.67" class="f">echo</text><text x="5.01" y="1.67" class="f">&apos;{&quot;message&quot;:</text><text x="18.036" y="1.67" class="f">&quot;hello</text><text x="25.05" y="1.67" class="f">world</text></svg><svg x="700"><use xlink:href="#a"/><use xlink:href="#b" x="1.996" y="2.146"/><use xlink:href="#1"/></svg><svg x="840"><use xlink:href="#a"/><use xlink:href="#b" x="11.996" y="2.146"/><use xlink:href="#1"/><text x="4.008" y="3.841" class="f">kafka-co</text></svg><svg x="980"><use xlink:href="#a"/><use xlink:href="#b" x="21.996" y="2.146"/><use xlink:href="#1"/><text x="4.008" y="3.841" class="f">kafka-console-prod</text></svg><svg x="1120"><use xlink:href="#a"/><use xlink:href="#b" x="2.996" y="4.317"/><use xlink:href="#1"/><use xlink:href="#2" y="2.171"/></svg><svg x="1260"><use xlink:href="#a"/><use xlink:href="#b" x="12.996" y="4.317"/><use xlink:href="#1"/><use xlink:href="#2" y="2.171"/><text x="8.016" y="6.012" class="f">--boo</text></svg><svg x="1400"><use xlink:href="#a"/><use xlink:href="#b" x="22.996" y="4.317"/><use xlink:href="#1"/><use xlink:href="#2" y="2.171"/><text x="8.016" y="6.012" class="f">--bootstrap-ser</text></svg><svg x="1540"><use xlink:href="#a"/><use xlink:href="#b" x="32.996" y="4.317"/><use xlink:href="#1"/><use xlink:href="#2" y="2.171"/><text x="8.016" y="6.012" class="f">--bootstrap-server</text><text x="27.054" y="6.012" class="f">localh</text></svg><svg x="1680"><use xlink:href="#a"/><use xlink:href="#b" x="42.996" y="4.317"/><use xlink:href="#1"/><use xlink:href="#2" y="2.171"/><use xlink:href="#3" y="4.342"/></svg><svg x="1820"><use xlink:href="#a"/><use xlink:href="#b" x="8.996" y="6.488"/><use xlink:href="#1"/><use xlink:href="#2" y="2.171"/><use xlink:href="#3" y="4.342"/><text x="8.016" y="8.183" class="f">-</text></svg><svg x="1960"><use xlink:href="#a"/><use xlink:href="#b" x="18.996" y="6.488"/><use xlink:href="#1"/><use xlink:href="#2" y="2.171"/><use xlink:href="#3" y="4.342"/><text x="8.016" y="8.183" class="f">--producer.</text></svg><svg x="2100"><use xlink:href="#a"/><use xlink:href="#b" x="28.996" y="6.488"/><use xlink:href="#1"/><use xlink:href="#2" y="2.171"/><use xlink:href="#3" y="4.342"/><text x="8.016" y="8.183" class="f">--producer.config</text><text x="26.052" y="8.183" class="f">tea</text></svg><svg x="2240"><use xlink:href="#a"/><use xlink:href="#b" x="38.996" y="6.488"/><use xlink:href="#1"/><use xlink:href="#2" y="2.171"/><use xlink:href="#3" y="4.342"/><text x="8.016" y="8.183" class="f">--producer.config</text><text x="26.052" y="8.183" class="f">teamA-sa.prop</text></svg><svg x="2380"><use xlink:href="#a"/><use xlink:href="#b" x=".996" y="8.659"/><use xlink:href="#1"/><use xlink:href="#2" y="2.171"/><use xlink:href="#3" y="4.342"/><use xlink:href="#4" y="6.513"/></svg><svg x="2520"><use xlink:href="#a"/><use xlink:href="#b" x="10.996" y="8.659"/><use xlink:href="#1"/><use xlink:href="#2" y="2.171"/><use xlink:href="#3" y="4.342"/><use xlink:href="#4" y="6.513"/><text x="8.016" y="10.354" class="f">--t</text></svg><svg x="2660"><use xlink:href="#a"/><use xlink:href="#b" x="20.996" y="8.659"/><use xlink:href="#1"/><use xlink:href="#2" y="2.171"/><use xlink:href="#3" y="4.342"/><use xlink:href="#4" y="6.513"/><text x="8.016" y="10.354" class="f">--topic</text><text x="16.032" y="10.354" class="f">topic</text></svg><svg x="2800"><use xlink:href="#a"/><use xlink:href="#b" x="30.996" y="8.659"/><use xlink:href="#1"/><use xlink:href="#2" y="2.171"/><use xlink:href="#3" y="4.342"/><use xlink:href="#4" y="6.513"/><use xlink:href="#5" y="8.684"/></svg><svg x="2940"><use xlink:href="#a"/><use xlink:href="#b" x="-.004" y="10.83"/><use xlink:href="#1"/><use xlink:href="#2" y="2.171"/><use xlink:href="#3" y="4.342"/><use xlink:href="#4" y="6.513"/><use xlink:href="#5" y="8.684"/></svg></svg></g></g></svg></svg>