<svg xmlns="http://www.w3.org/2000/svg" xmlns:xlink="http://www.w3.org/1999/xlink" width="1440" height="385.65"><rect width="1440" height="385.65" rx="5" ry="5" class="a"/><svg y="0%" x="0%"><circle cx="20" cy="20" r="6" fill="#ff5f58"/><circle cx="40" cy="20" r="6" fill="#ffbd2e"/><circle cx="60" cy="20" r="6" fill="#18c132"/></svg><svg height="325.65" viewBox="0 0 140 32.565" width="1400" x="15" xmlns="http://www.w3.org/2000/svg" xmlns:xlink="http://www.w3.org/1999/xlink" y="50"><style>@keyframes j{0%{transform:translateX(0)}.8%{transform:translateX(-140px)}.9%{transform:translateX(-280px)}8.3%{transform:translateX(-420px)}12.1%{transform:translateX(-560px)}15.8%{transform:translateX(-700px)}19.5%{transform:translateX(-840px)}23.2%{transform:translateX(-980px)}27%{transform:translateX(-1120px)}30.9%{transform:translateX(-1260px)}34.6%{transform:translateX(-1400px)}38.2%{transform:translateX(-1540px)}42.4%{transform:translateX(-1680px)}46.1%{transform:translateX(-1820px)}49.8%{transform:translateX(-1960px)}53.5%{transform:translateX(-2100px)}60.7%{transform:translateX(-2240px)}64.4%{transform:translateX(-2380px)}68.1%{transform:translateX(-2520px)}72%{transform:translateX(-2800px)}99.8%{transform:translateX(-2940px)}to{transform:translateX(-3360px)}}.a{fill:#282d35}.f,.g{fill:#fff;white-space:pre}.g{fill:#b9c0cb}</style><g font-family="Monaco,Consolas,Menlo,'Bitstream Vera Sans Mono','Powerline Symbols',monospace" font-size="1.67"><defs><symbol id="1"><text y="1.67" class="f">kafka-topics</text><text x="13.026" y="1.67" class="f">\</text></symbol><symbol id="2"><text x="4.008" y="1.67" class="f">-</text></symbol><symbol id="3"><text x="4.008" y="1.67" class="f">--bootstrap-server</text><text x="23.046" y="1.67" class="f">localhost:6969</text><text x="38.076" y="1.67" class="f">\</text></symbol><symbol id="4"><text x="4.008" y="1.67" class="f">--command-config</text><text x="21.042" y="1.67" class="f">teamA-sa.properties</text><text x="41.082" y="1.67" class="f">\</text></symbol><symbol id="5"><text x="4.008" y="1.67" class="f">--add-config</text><text x="17.034" y="1.67" class="f">retention.ms=259200000</text><text x="40.08" y="1.67" class="f">\</text></symbol><symbol id="6"><text x="4.008" y="1.67" class="f">--alter</text><text x="12.024" y="1.67" class="f">\</text></symbol><symbol id="7"><text x="4.008" y="1.67" class="f">--topic</text><text x="12.024" y="1.67" class="f">roads</text></symbol><symbol id="8"><text y="1.67" class="g">Exception</text><text x="10.02" y="1.67" class="g">in</text><text x="13.026" y="1.67" class="g">thread</text><text x="20.04" y="1.67" class="g">&quot;main&quot;</text><text x="27.054" y="1.67" class="g">joptsimple.UnrecognizedOptionException:</text><text x="67.134" y="1.67" class="g">add-config</text><text x="78.156" y="1.67" class="g">is</text><text x="81.162" y="1.67" class="g">not</text><text x="85.17" y="1.67" class="g">a</text><text x="87.174" y="1.67" class="g">recognized</text><text x="98.196" y="1.67" class="g">option</text></symbol><symbol id="9"><text x="8.016" y="1.67" class="g">at</text><text x="11.022" y="1.67" class="g">joptsimple.OptionException.unrecognizedOption(OptionException.java:108)</text></symbol><symbol id="a"><path fill="transparent" d="M0 0h140v16H0z"/></symbol><symbol id="b"><path fill="#6f7683" d="M0 0h1.102v2.171H0z"/></symbol></defs><path class="a" d="M0 0h140v32.565H0z"/><g style="animation-duration:2.490839s;animation-iteration-count:infinite;animation-name:j;animation-timing-function:steps(1,end)"><svg width="3500"><svg><use xlink:href="#a"/><use xlink:href="#b" x="-.004"/></svg><svg x="140"><use xlink:href="#a"/><use xlink:href="#b" x="-.004"/></svg><svg x="280"><use xlink:href="#a"/><use xlink:href="#b" x="9.996"/><text y="1.67" class="f">kafka-topi</text></svg><svg x="420"><use xlink:href="#a"/><use xlink:href="#b" x="4.996" y="2.146"/><use xlink:href="#1"/><use xlink:href="#2" y="2.171"/></svg><svg x="560"><use xlink:href="#a"/><use xlink:href="#b" x="14.996" y="2.146"/><use xlink:href="#1"/><text x="4.008" y="3.841" class="f">--bootstrap</text></svg><svg x="700"><use xlink:href="#a"/><use xlink:href="#b" x="24.996" y="2.146"/><use xlink:href="#1"/><text x="4.008" y="3.841" class="f">--bootstrap-server</text><text x="23.046" y="3.841" class="f">lo</text></svg><svg x="840"><use xlink:href="#a"/><use xlink:href="#b" x="34.996" y="2.146"/><use xlink:href="#1"/><text x="4.008" y="3.841" class="f">--bootstrap-server</text><text x="23.046" y="3.841" class="f">localhost:69</text></svg><svg x="980"><use xlink:href="#a"/><use xlink:href="#b" x="4.996" y="4.317"/><use xlink:href="#1"/><use xlink:href="#3" y="2.171"/><use xlink:href="#2" y="4.342"/></svg><svg x="1120"><use xlink:href="#a"/><use xlink:href="#b" x="14.996" y="4.317"/><use xlink:href="#1"/><use xlink:href="#3" y="2.171"/><text x="4.008" y="6.012" class="f">--command-c</text></svg><svg x="1260"><use xlink:href="#a"/><use xlink:href="#b" x="24.996" y="4.317"/><use xlink:href="#1"/><use xlink:href="#3" y="2.171"/><text x="4.008" y="6.012" class="f">--command-config</text><text x="21.042" y="6.012" class="f">team</text></svg><svg x="1400"><use xlink:href="#a"/><use xlink:href="#b" x="34.996" y="4.317"/><use xlink:href="#1"/><use xlink:href="#3" y="2.171"/><text x="4.008" y="6.012" class="f">--command-config</text><text x="21.042" y="6.012" class="f">teamA-sa.prope</text></svg><svg x="1540"><use xlink:href="#a"/><use xlink:href="#b" x="1.996" y="6.488"/><use xlink:href="#1"/><use xlink:href="#3" y="2.171"/><use xlink:href="#4" y="4.342"/></svg><svg x="1680"><use xlink:href="#a"/><use xlink:href="#b" x="11.996" y="6.488"/><use xlink:href="#1"/><use xlink:href="#3" y="2.171"/><use xlink:href="#4" y="4.342"/><text x="4.008" y="8.183" class="f">--add-co</text></svg><svg x="1820"><use xlink:href="#a"/><use xlink:href="#b" x="21.996" y="6.488"/><use xlink:href="#1"/><use xlink:href="#3" y="2.171"/><use xlink:href="#4" y="4.342"/><text x="4.008" y="8.183" class="f">--add-config</text><text x="17.034" y="8.183" class="f">reten</text></svg><svg x="1960"><use xlink:href="#a"/><use xlink:href="#b" x="31.996" y="6.488"/><use xlink:href="#1"/><use xlink:href="#3" y="2.171"/><use xlink:href="#4" y="4.342"/><text x="4.008" y="8.183" class="f">--add-config</text><text x="17.034" y="8.183" class="f">retention.ms=25</text></svg><svg x="2100"><use xlink:href="#a"/><use xlink:href="#b" x="-.004" y="8.659"/><use xlink:href="#1"/><use xlink:href="#3" y="2.171"/><use xlink:href="#4" y="4.342"/><use xlink:href="#5" y="6.513"/></svg><svg x="2240"><use xlink:href="#a"/><use xlink:href="#b" x="9.996" y="8.659"/><use xlink:href="#1"/><use xlink:href="#3" y="2.171"/><use xlink:href="#4" y="4.342"/><use xlink:href="#5" y="6.513"/><text x="4.008" y="10.354" class="f">--alte</text></svg><svg x="2380"><use xlink:href="#a"/><use xlink:href="#b" x="5.996" y="10.83"/><use xlink:href="#1"/><use xlink:href="#3" y="2.171"/><use xlink:href="#4" y="4.342"/><use xlink:href="#5" y="6.513"/><use xlink:href="#6" y="8.684"/><text x="4.008" y="12.525" class="f">--</text></svg><svg x="2520"><use xlink:href="#a"/><use xlink:href="#b" x="15.996" y="10.83"/><use xlink:href="#1"/><use xlink:href="#3" y="2.171"/><use xlink:href="#4" y="4.342"/><use xlink:href="#5" y="6.513"/><use xlink:href="#6" y="8.684"/><text x="4.008" y="12.525" class="f">--topic</text><text x="12.024" y="12.525" class="f">road</text></svg><svg x="2660"><use xlink:href="#a"/><use xlink:href="#b" x="-.004" y="13.001"/><use xlink:href="#1"/><use xlink:href="#3" y="2.171"/><use xlink:href="#4" y="4.342"/><use xlink:href="#5" y="6.513"/><use xlink:href="#6" y="8.684"/><use xlink:href="#7" y="10.855"/></svg><svg x="2800"><use xlink:href="#a"/><use xlink:href="#b" x="-.004" y="15.172"/><use xlink:href="#1"/><use xlink:href="#3" y="2.171"/><use xlink:href="#4" y="4.342"/><use xlink:href="#5" y="6.513"/><use xlink:href="#6" y="8.684"/><use xlink:href="#7" y="10.855"/></svg><svg x="2940"><use xlink:href="#a"/><use xlink:href="#b" x="26.996" y="15.172"/><use xlink:href="#1"/><use xlink:href="#3" y="2.171"/><use xlink:href="#4" y="4.342"/><use xlink:href="#5" y="6.513"/><use xlink:href="#6" y="8.684"/><use xlink:href="#7" y="10.855"/><text y="16.867" class="g">Exception</text><text x="10.02" y="16.867" class="g">in</text><text x="13.026" y="16.867" class="g">thread</text><text x="20.04" y="16.867" class="g">&quot;main&quot;</text></svg><svg x="3080"><use xlink:href="#a"/><use xlink:href="#b" x="-.004" y="17.343"/><use xlink:href="#1"/><use xlink:href="#3" y="2.171"/><use xlink:href="#4" y="4.342"/><use xlink:href="#5" y="6.513"/><use xlink:href="#6" y="8.684"/><use xlink:href="#7" y="10.855"/><use xlink:href="#8" y="15.197"/></svg><svg x="3220"><use xlink:href="#a"/><use xlink:href="#b" x="-.004" y="19.514"/><use xlink:href="#1"/><use xlink:href="#3" y="2.171"/><use xlink:href="#4" y="4.342"/><use xlink:href="#5" y="6.513"/><use xlink:href="#6" y="8.684"/><use xlink:href="#7" y="10.855"/><use xlink:href="#8" y="15.197"/><use xlink:href="#9" y="17.368"/></svg><svg x="3360"><use xlink:href="#a"/><use xlink:href="#b" x="-.004" y="32.54"/><use xlink:href="#1"/><use xlink:href="#3" y="2.171"/><use xlink:href="#4" y="4.342"/><use xlink:href="#5" y="6.513"/><use xlink:href="#6" y="8.684"/><use xlink:href="#7" y="10.855"/><use xlink:href="#8" y="15.197"/><use xlink:href="#9" y="17.368"/><text x="8.016" y="21.209" class="g">at</text><text x="11.022" y="21.209" class="g">joptsimple.OptionParser.handleLongOptionToken(OptionParser.java:510)</text><text x="8.016" y="23.38" class="g">at</text><text x="11.022" y="23.38" class="g">joptsimple.OptionParserState$2.handleArgument(OptionParserState.java:56)</text><text x="8.016" y="25.551" class="g">at</text><text x="11.022" y="25.551" class="g">joptsimple.OptionParser.parse(OptionParser.java:396)</text><text x="8.016" y="27.722" class="g">at</text><text x="11.022" y="27.722" class="g">kafka.admin.TopicCommand$TopicCommandOptions.&lt;init&gt;(TopicCommand.scala:557)</text><text x="8.016" y="29.893" class="g">at</text><text x="11.022" y="29.893" class="g">kafka.admin.TopicCommand$.main(TopicCommand.scala:48)</text><text x="8.016" y="32.064" class="g">at</text><text x="11.022" y="32.064" class="g">kafka.admin.TopicCommand.main(TopicCommand.scala)</text></svg></svg></g></g></svg></svg>