<svg xmlns="http://www.w3.org/2000/svg" xmlns:xlink="http://www.w3.org/1999/xlink" width="1440" height="429.07"><rect width="1440" height="429.07" rx="5" ry="5" class="a"/><svg y="0%" x="0%"><circle cx="20" cy="20" r="6" fill="#ff5f58"/><circle cx="40" cy="20" r="6" fill="#ffbd2e"/><circle cx="60" cy="20" r="6" fill="#18c132"/></svg><svg height="369.07" viewBox="0 0 140 36.907" width="1400" x="15" xmlns="http://www.w3.org/2000/svg" xmlns:xlink="http://www.w3.org/1999/xlink" y="50"><style>@keyframes i{0%{transform:translateX(0)}.8%{transform:translateX(-140px)}1.1%{transform:translateX(-280px)}12.8%{transform:translateX(-420px)}18.4%{transform:translateX(-560px)}24.1%{transform:translateX(-700px)}29.9%{transform:translateX(-840px)}36.1%{transform:translateX(-980px)}42.2%{transform:translateX(-1120px)}47.9%{transform:translateX(-1260px)}53.6%{transform:translateX(-1400px)}59.6%{transform:translateX(-1540px)}65.4%{transform:translateX(-1680px)}71.1%{transform:translateX(-1820px)}76.7%{transform:translateX(-1960px)}88.3%{transform:translateX(-2100px)}94.1%{transform:translateX(-2240px)}to{transform:translateX(-2520px)}}.a{fill:#282d35}.f{fill:#fff;white-space:pre}</style><g font-family="Monaco,Consolas,Menlo,'Bitstream Vera Sans Mono','Powerline Symbols',monospace" font-size="1.67"><defs><symbol id="1"><text y="1.67" class="f">echo</text><text x="5.01" y="1.67" class="f">&apos;{&quot;type&quot;:&quot;Ferrari&quot;,&quot;color&quot;:&quot;red&quot;,&quot;price&quot;:10000}&apos;</text><text x="54.108" y="1.67" class="f">|</text><text x="56.112" y="1.67" class="f">\</text></symbol><symbol id="2"><text x="4.008" y="1.67" class="f">kafka-console-producer</text><text x="27.054" y="1.67" class="f">\</text></symbol><symbol id="3"><text x="8.016" y="1.67" class="f">--bootstrap-server</text><text x="27.054" y="1.67" class="f">localhost:6969</text><text x="42.084" y="1.67" class="f">\</text></symbol><symbol id="4"><text x="8.016" y="1.67" class="f">--producer.config</text><text x="26.052" y="1.67" class="f">teamA-sa.properties</text><text x="46.092" y="1.67" class="f">\</text></symbol><symbol id="5"><text x="8.016" y="1.67" class="f">--topic</text><text x="16.032" y="1.67" class="f">cars</text></symbol><symbol id="6"><text y="1.67" class="f">echo</text><text x="5.01" y="1.67" class="f">&apos;{&quot;type&quot;:&quot;RollsRoyce&quot;,&quot;color&quot;:&quot;black&quot;,&quot;price&quot;:9000}&apos;</text><text x="58.116" y="1.67" class="f">|</text><text x="60.12" y="1.67" class="f">\</text></symbol><symbol id="7"><text y="1.67" class="f">echo</text><text x="5.01" y="1.67" class="f">&apos;{&quot;type&quot;:&quot;Mercedes&quot;,&quot;color&quot;:&quot;black&quot;,&quot;price&quot;:6000}&apos;</text><text x="56.112" y="1.67" class="f">|</text><text x="58.116" y="1.67" class="f">\</text></symbol><symbol id="a"><path fill="transparent" d="M0 0h140v18H0z"/></symbol><symbol id="b"><path fill="#6f7683" d="M0 0h1.102v2.171H0z"/></symbol></defs><path class="a" d="M0 0h140v36.907H0z"/><g style="animation-duration:1.592391s;animation-iteration-count:infinite;animation-name:i;animation-timing-function:steps(1,end)"><svg width="2660"><svg><use xlink:href="#a"/><use xlink:href="#b" x="-.004"/></svg><svg x="140"><use xlink:href="#a"/><use xlink:href="#b" x="-.004"/></svg><svg x="280"><use xlink:href="#a"/><use xlink:href="#b" x="39.996"/><text y="1.67" class="f">echo</text><text x="5.01" y="1.67" class="f">&apos;{&quot;type&quot;:&quot;Ferrari&quot;,&quot;color&quot;:&quot;red&quot;,&quot;p</text></svg><svg x="420"><use xlink:href="#a"/><use xlink:href="#b" x="21.996" y="2.146"/><use xlink:href="#1"/><text x="4.008" y="3.841" class="f">kafka-console-prod</text></svg><svg x="560"><use xlink:href="#a"/><use xlink:href="#b" x="32.996" y="4.317"/><use xlink:href="#1"/><use xlink:href="#2" y="2.171"/><text x="8.016" y="6.012" class="f">--bootstrap-server</text><text x="27.054" y="6.012" class="f">localh</text></svg><svg x="700"><use xlink:href="#a"/><use xlink:href="#b" x="28.996" y="6.488"/><use xlink:href="#1"/><use xlink:href="#2" y="2.171"/><use xlink:href="#3" y="4.342"/><text x="8.016" y="8.183" class="f">--producer.config</text><text x="26.052" y="8.183" class="f">tea</text></svg><svg x="840"><use xlink:href="#a"/><use xlink:href="#b" x="-.004" y="10.83"/><use xlink:href="#1"/><use xlink:href="#2" y="2.171"/><use xlink:href="#3" y="4.342"/><use xlink:href="#4" y="6.513"/><use xlink:href="#5" y="8.684"/></svg><svg x="980"><use xlink:href="#a"/><use xlink:href="#b" x="38.996" y="13.001"/><use xlink:href="#1"/><use xlink:href="#2" y="2.171"/><use xlink:href="#3" y="4.342"/><use xlink:href="#4" y="6.513"/><use xlink:href="#5" y="8.684"/><text y="14.696" class="f">echo</text><text x="5.01" y="14.696" class="f">&apos;{&quot;type&quot;:&quot;RollsRoyce&quot;,&quot;color&quot;:&quot;bla</text></svg><svg x="1120"><use xlink:href="#a"/><use xlink:href="#b" x="16.996" y="15.172"/><use xlink:href="#1"/><use xlink:href="#2" y="2.171"/><use xlink:href="#3" y="4.342"/><use xlink:href="#4" y="6.513"/><use xlink:href="#5" y="8.684"/><use xlink:href="#6" y="13.026"/><text x="4.008" y="16.867" class="f">kafka-console</text></svg><svg x="1260"><use xlink:href="#a"/><use xlink:href="#b" x="27.996" y="17.343"/><use xlink:href="#1"/><use xlink:href="#2" y="2.171"/><use xlink:href="#3" y="4.342"/><use xlink:href="#4" y="6.513"/><use xlink:href="#5" y="8.684"/><use xlink:href="#6" y="13.026"/><use xlink:href="#2" y="15.197"/><text x="8.016" y="19.038" class="f">--bootstrap-server</text><text x="27.054" y="19.038" class="f">l</text></svg><svg x="1400"><use xlink:href="#a"/><use xlink:href="#b" x="23.996" y="19.514"/><use xlink:href="#1"/><use xlink:href="#2" y="2.171"/><use xlink:href="#3" y="4.342"/><use xlink:href="#4" y="6.513"/><use xlink:href="#5" y="8.684"/><use xlink:href="#6" y="13.026"/><use xlink:href="#2" y="15.197"/><use xlink:href="#3" y="17.368"/><text x="8.016" y="21.209" class="f">--producer.confi</text></svg><svg x="1540"><use xlink:href="#a"/><use xlink:href="#b" x="15.996" y="21.685"/><use xlink:href="#1"/><use xlink:href="#2" y="2.171"/><use xlink:href="#3" y="4.342"/><use xlink:href="#4" y="6.513"/><use xlink:href="#5" y="8.684"/><use xlink:href="#6" y="13.026"/><use xlink:href="#2" y="15.197"/><use xlink:href="#3" y="17.368"/><use xlink:href="#4" y="19.539"/><text x="8.016" y="23.38" class="f">--topic</text></svg><svg x="1680"><use xlink:href="#a"/><use xlink:href="#b" x="33.996" y="26.027"/><use xlink:href="#1"/><use xlink:href="#2" y="2.171"/><use xlink:href="#3" y="4.342"/><use xlink:href="#4" y="6.513"/><use xlink:href="#5" y="8.684"/><use xlink:href="#6" y="13.026"/><use xlink:href="#2" y="15.197"/><use xlink:href="#3" y="17.368"/><use xlink:href="#4" y="19.539"/><use xlink:href="#5" y="21.71"/><text y="27.722" class="f">echo</text><text x="5.01" y="27.722" class="f">&apos;{&quot;type&quot;:&quot;Mercedes&quot;,&quot;color&quot;:&quot;</text></svg><svg x="1820"><use xlink:href="#a"/><use xlink:href="#b" x="13.996" y="28.198"/><use xlink:href="#1"/><use xlink:href="#2" y="2.171"/><use xlink:href="#3" y="4.342"/><use xlink:href="#4" y="6.513"/><use xlink:href="#5" y="8.684"/><use xlink:href="#6" y="13.026"/><use xlink:href="#2" y="15.197"/><use xlink:href="#3" y="17.368"/><use xlink:href="#4" y="19.539"/><use xlink:href="#5" y="21.71"/><use xlink:href="#7" y="26.052"/><text x="4.008" y="29.893" class="f">kafka-cons</text></svg><svg x="1960"><use xlink:href="#a"/><use xlink:href="#b" x="24.996" y="30.369"/><use xlink:href="#1"/><use xlink:href="#2" y="2.171"/><use xlink:href="#3" y="4.342"/><use xlink:href="#4" y="6.513"/><use xlink:href="#5" y="8.684"/><use xlink:href="#6" y="13.026"/><use xlink:href="#2" y="15.197"/><use xlink:href="#3" y="17.368"/><use xlink:href="#4" y="19.539"/><use xlink:href="#5" y="21.71"/><use xlink:href="#7" y="26.052"/><use xlink:href="#2" y="28.223"/><text x="8.016" y="32.064" class="f">--bootstrap-serve</text></svg><svg x="2100"><use xlink:href="#a"/><use xlink:href="#b" x="20.996" y="32.54"/><use xlink:href="#1"/><use xlink:href="#2" y="2.171"/><use xlink:href="#3" y="4.342"/><use xlink:href="#4" y="6.513"/><use xlink:href="#5" y="8.684"/><use xlink:href="#6" y="13.026"/><use xlink:href="#2" y="15.197"/><use xlink:href="#3" y="17.368"/><use xlink:href="#4" y="19.539"/><use xlink:href="#5" y="21.71"/><use xlink:href="#7" y="26.052"/><use xlink:href="#2" y="28.223"/><use xlink:href="#3" y="30.394"/><text x="8.016" y="34.235" class="f">--producer.co</text></svg><svg x="2240"><use xlink:href="#a"/><use xlink:href="#b" x="12.996" y="34.711"/><use xlink:href="#1"/><use xlink:href="#2" y="2.171"/><use xlink:href="#3" y="4.342"/><use xlink:href="#4" y="6.513"/><use xlink:href="#5" y="8.684"/><use xlink:href="#6" y="13.026"/><use xlink:href="#2" y="15.197"/><use xlink:href="#3" y="17.368"/><use xlink:href="#4" y="19.539"/><use xlink:href="#5" y="21.71"/><use xlink:href="#7" y="26.052"/><use xlink:href="#2" y="28.223"/><use xlink:href="#3" y="30.394"/><use xlink:href="#4" y="32.565"/><text x="8.016" y="36.406" class="f">--top</text></svg><svg x="2380"><use xlink:href="#a"/><use xlink:href="#b" x="19.996" y="34.711"/><use xlink:href="#1"/><use xlink:href="#2" y="2.171"/><use xlink:href="#3" y="4.342"/><use xlink:href="#4" y="6.513"/><use xlink:href="#5" y="8.684"/><use xlink:href="#6" y="13.026"/><use xlink:href="#2" y="15.197"/><use xlink:href="#3" y="17.368"/><use xlink:href="#4" y="19.539"/><use xlink:href="#5" y="21.71"/><use xlink:href="#7" y="26.052"/><use xlink:href="#2" y="28.223"/><use xlink:href="#3" y="30.394"/><use xlink:href="#4" y="32.565"/><use xlink:href="#5" y="34.736"/></svg><svg x="2520"><use xlink:href="#a"/><use xlink:href="#b" x="-.004" y="36.882"/><use xlink:href="#1"/><use xlink:href="#2" y="2.171"/><use xlink:href="#3" y="4.342"/><use xlink:href="#4" y="6.513"/><use xlink:href="#5" y="8.684"/><use xlink:href="#6" y="13.026"/><use xlink:href="#2" y="15.197"/><use xlink:href="#3" y="17.368"/><use xlink:href="#4" y="19.539"/><use xlink:href="#5" y="21.71"/><use xlink:href="#7" y="26.052"/><use xlink:href="#2" y="28.223"/><use xlink:href="#3" y="30.394"/><use xlink:href="#4" y="32.565"/><use xlink:href="#5" y="34.736"/></svg></svg></g></g></svg></svg>