<svg xmlns="http://www.w3.org/2000/svg" xmlns:xlink="http://www.w3.org/1999/xlink" width="1440" height="494.2"><rect width="1440" height="494.2" rx="5" ry="5" class="a"/><svg y="0%" x="0%"><circle cx="20" cy="20" r="6" fill="#ff5f58"/><circle cx="40" cy="20" r="6" fill="#ffbd2e"/><circle cx="60" cy="20" r="6" fill="#18c132"/></svg><svg height="434.2" viewBox="0 0 140 43.42" width="1400" x="15" xmlns="http://www.w3.org/2000/svg" xmlns:xlink="http://www.w3.org/1999/xlink" y="50"><style>@keyframes l{0%{transform:translateX(0)}1.1%{transform:translateX(-140px)}1.6%{transform:translateX(-280px)}11.2%{transform:translateX(-420px)}16%{transform:translateX(-560px)}20.6%{transform:translateX(-700px)}25.2%{transform:translateX(-840px)}29.9%{transform:translateX(-980px)}34.5%{transform:translateX(-1120px)}39.2%{transform:translateX(-1260px)}44%{transform:translateX(-1400px)}48.8%{transform:translateX(-1540px)}53.5%{transform:translateX(-1680px)}58.3%{transform:translateX(-1820px)}63.1%{transform:translateX(-1960px)}67.9%{transform:translateX(-2100px)}72.7%{transform:translateX(-2240px)}82.2%{transform:translateX(-2380px)}86.9%{transform:translateX(-2520px)}91.7%{transform:translateX(-2660px)}96.6%{transform:translateX(-2940px)}to{transform:translateX(-3640px)}}.a{fill:#282d35}.f{fill:#fff;white-space:pre}.g{fill:#71bef2;font-weight:700}.g,.h,.i,.o{white-space:pre}.h{fill:#b9c0cb;font-weight:700}.i,.o{fill:#a8cc8c}.o{fill:#b9c0cb}</style><g font-family="Monaco,Consolas,Menlo,'Bitstream Vera Sans Mono','Powerline Symbols',monospace" font-size="1.67"><defs><symbol id="1"><text y="1.67" class="f">curl</text><text x="5.01" y="1.67" class="f">\</text></symbol><symbol id="2"><text x="4.008" y="1.67" class="f">--request</text><text x="14.028" y="1.67" class="f">GET</text><text x="18.036" y="1.67" class="f">&apos;http://localhost:8888/admin/interceptors/v1/vcluster/teamA&apos;</text><text x="79.158" y="1.67" class="f">\</text></symbol><symbol id="3"><text x="4.008" y="1.67" class="f">--header</text><text x="13.026" y="1.67" class="f">&apos;Content-Type:</text><text x="28.056" y="1.67" class="f">application/json&apos;</text><text x="46.092" y="1.67" class="f">\</text></symbol><symbol id="4"><text x="4.008" y="1.67" class="f">--user</text><text x="11.022" y="1.67" class="f">&apos;admin:conduktor&apos;</text><text x="29.058" y="1.67" class="f">\</text></symbol><symbol id="5"><text x="4.008" y="1.67" class="f">--silent</text><text x="13.026" y="1.67" class="f">|</text><text x="15.03" y="1.67" class="f">jq</text></symbol><symbol id="6"><text x="8.016" y="1.67" class="g">&quot;fields&quot;</text><text x="16.032" y="1.67" class="h">:</text><text x="18.036" y="1.67" class="h">[</text></symbol><symbol id="7"><text x="10.02" y="1.67" class="h">{</text></symbol><symbol id="8"><text x="12.024" y="1.67" class="g">&quot;fieldName&quot;</text><text x="23.046" y="1.67" class="h">:</text><text x="25.05" y="1.67" class="i">&quot;password&quot;</text><text x="35.07" y="1.67" class="h">,</text></symbol><symbol id="9"><text x="12.024" y="1.67" class="g">&quot;keySecretId&quot;</text><text x="25.05" y="1.67" class="h">:</text><text x="27.054" y="1.67" class="i">&quot;password-secret&quot;</text><text x="44.088" y="1.67" class="h">,</text></symbol><symbol id="10"><text x="12.024" y="1.67" class="g">&quot;algorithm&quot;</text><text x="23.046" y="1.67" class="h">:</text><text x="25.05" y="1.67" class="h">{</text></symbol><symbol id="11"><text x="14.028" y="1.67" class="g">&quot;type&quot;</text><text x="20.04" y="1.67" class="h">:</text><text x="22.044" y="1.67" class="i">&quot;AES_GCM&quot;</text><text x="31.062" y="1.67" class="h">,</text></symbol><symbol id="12"><text x="14.028" y="1.67" class="g">&quot;kms&quot;</text><text x="19.038" y="1.67" class="h">:</text><text x="21.042" y="1.67" class="i">&quot;IN_MEMORY&quot;</text></symbol><symbol id="13"><text x="12.024" y="1.67" class="h">}</text></symbol><symbol id="14"><text x="10.02" y="1.67" class="h">},</text></symbol><symbol id="15"><text x="12.024" y="1.67" class="g">&quot;fieldName&quot;</text><text x="23.046" y="1.67" class="h">:</text><text x="25.05" y="1.67" class="i">&quot;visa&quot;</text><text x="31.062" y="1.67" class="h">,</text></symbol><symbol id="16"><text x="12.024" y="1.67" class="g">&quot;keySecretId&quot;</text><text x="25.05" y="1.67" class="h">:</text><text x="27.054" y="1.67" class="i">&quot;visa-scret&quot;</text><text x="39.078" y="1.67" class="h">,</text></symbol><symbol id="17"><text x="12.024" y="1.67" class="g">&quot;fieldName&quot;</text><text x="23.046" y="1.67" class="h">:</text><text x="25.05" y="1.67" class="i">&quot;address.location&quot;</text><text x="43.086" y="1.67" class="h">,</text></symbol><symbol id="18"><text x="12.024" y="1.67" class="g">&quot;keySecretId&quot;</text><text x="25.05" y="1.67" class="h">:</text><text x="27.054" y="1.67" class="i">&quot;location-secret&quot;</text><text x="44.088" y="1.67" class="h">,</text></symbol><symbol id="19"><text x="10.02" y="1.67" class="h">}</text></symbol><symbol id="20"><text x="8.016" y="1.67" class="h">]</text></symbol><symbol id="21"><text x="6.012" y="1.67" class="h">}</text></symbol><symbol id="22"><text x="4.008" y="1.67" class="h">}</text></symbol><symbol id="23"><text x="2.004" y="1.67" class="h">]</text></symbol><symbol id="a"><path fill="transparent" d="M0 0h140v21H0z"/></symbol><symbol id="b"><path fill="#6f7683" d="M0 0h1.102v2.171H0z"/></symbol></defs><path class="a" d="M0 0h140v43.42H0z"/><g style="animation-duration:1.972782s;animation-iteration-count:infinite;animation-name:l;animation-timing-function:steps(1,end)"><svg width="3780"><svg><use xlink:href="#a"/><use xlink:href="#b" x="-.004"/></svg><svg x="140"><use xlink:href="#a"/><use xlink:href="#b" x="-.004"/></svg><svg x="280"><use xlink:href="#a"/><use xlink:href="#b" x="2.996" y="2.146"/><use xlink:href="#1"/></svg><svg x="420"><use xlink:href="#a"/><use xlink:href="#b" x="12.996" y="2.146"/><use xlink:href="#1"/><text x="4.008" y="3.841" class="f">--request</text></svg><svg x="560"><use xlink:href="#a"/><use xlink:href="#b" x="22.996" y="2.146"/><use xlink:href="#1"/><text x="4.008" y="3.841" class="f">--request</text><text x="14.028" y="3.841" class="f">GET</text><text x="18.036" y="3.841" class="f">&apos;http</text></svg><svg x="700"><use xlink:href="#a"/><use xlink:href="#b" x="32.996" y="2.146"/><use xlink:href="#1"/><text x="4.008" y="3.841" class="f">--request</text><text x="14.028" y="3.841" class="f">GET</text><text x="18.036" y="3.841" class="f">&apos;http://localho</text></svg><svg x="840"><use xlink:href="#a"/><use xlink:href="#b" x="42.996" y="2.146"/><use xlink:href="#1"/><text x="4.008" y="3.841" class="f">--request</text><text x="14.028" y="3.841" class="f">GET</text><text x="18.036" y="3.841" class="f">&apos;http://localhost:8888/ad</text></svg><svg x="980"><use xlink:href="#a"/><use xlink:href="#b" x="52.996" y="2.146"/><use xlink:href="#1"/><text x="4.008" y="3.841" class="f">--request</text><text x="14.028" y="3.841" class="f">GET</text><text x="18.036" y="3.841" class="f">&apos;http://localhost:8888/admin/interc</text></svg><svg x="1120"><use xlink:href="#a"/><use xlink:href="#b" x="62.996" y="2.146"/><use xlink:href="#1"/><text x="4.008" y="3.841" class="f">--request</text><text x="14.028" y="3.841" class="f">GET</text><text x="18.036" y="3.841" class="f">&apos;http://localhost:8888/admin/interceptors/v1/</text></svg><svg x="1260"><use xlink:href="#a"/><use xlink:href="#b" x="72.996" y="2.146"/><use xlink:href="#1"/><text x="4.008" y="3.841" class="f">--request</text><text x="14.028" y="3.841" class="f">GET</text><text x="18.036" y="3.841" class="f">&apos;http://localhost:8888/admin/interceptors/v1/vcluster/t</text></svg><svg x="1400"><use xlink:href="#a"/><use xlink:href="#b" x="1.996" y="4.317"/><use xlink:href="#1"/><use xlink:href="#2" y="2.171"/></svg><svg x="1540"><use xlink:href="#a"/><use xlink:href="#b" x="11.996" y="4.317"/><use xlink:href="#1"/><use xlink:href="#2" y="2.171"/><text x="4.008" y="6.012" class="f">--header</text></svg><svg x="1680"><use xlink:href="#a"/><use xlink:href="#b" x="21.996" y="4.317"/><use xlink:href="#1"/><use xlink:href="#2" y="2.171"/><text x="4.008" y="6.012" class="f">--header</text><text x="13.026" y="6.012" class="f">&apos;Content-</text></svg><svg x="1820"><use xlink:href="#a"/><use xlink:href="#b" x="31.996" y="4.317"/><use xlink:href="#1"/><use xlink:href="#2" y="2.171"/><text x="4.008" y="6.012" class="f">--header</text><text x="13.026" y="6.012" class="f">&apos;Content-Type:</text><text x="28.056" y="6.012" class="f">appl</text></svg><svg x="1960"><use xlink:href="#a"/><use xlink:href="#b" x="41.996" y="4.317"/><use xlink:href="#1"/><use xlink:href="#2" y="2.171"/><text x="4.008" y="6.012" class="f">--header</text><text x="13.026" y="6.012" class="f">&apos;Content-Type:</text><text x="28.056" y="6.012" class="f">application/js</text></svg><svg x="2100"><use xlink:href="#a"/><use xlink:href="#b" x="3.996" y="6.488"/><use xlink:href="#1"/><use xlink:href="#2" y="2.171"/><use xlink:href="#3" y="4.342"/></svg><svg x="2240"><use xlink:href="#a"/><use xlink:href="#b" x="13.996" y="6.488"/><use xlink:href="#1"/><use xlink:href="#2" y="2.171"/><use xlink:href="#3" y="4.342"/><text x="4.008" y="8.183" class="f">--user</text><text x="11.022" y="8.183" class="f">&apos;ad</text></svg><svg x="2380"><use xlink:href="#a"/><use xlink:href="#b" x="23.996" y="6.488"/><use xlink:href="#1"/><use xlink:href="#2" y="2.171"/><use xlink:href="#3" y="4.342"/><text x="4.008" y="8.183" class="f">--user</text><text x="11.022" y="8.183" class="f">&apos;admin:conduk</text></svg><svg x="2520"><use xlink:href="#a"/><use xlink:href="#b" x="2.996" y="8.659"/><use xlink:href="#1"/><use xlink:href="#2" y="2.171"/><use xlink:href="#3" y="4.342"/><use xlink:href="#4" y="6.513"/></svg><svg x="2660"><use xlink:href="#a"/><use xlink:href="#b" x="12.996" y="8.659"/><use xlink:href="#1"/><use xlink:href="#2" y="2.171"/><use xlink:href="#3" y="4.342"/><use xlink:href="#4" y="6.513"/><text x="4.008" y="10.354" class="f">--silent</text></svg><svg x="2800"><use xlink:href="#a"/><use xlink:href="#b" x="-.004" y="10.83"/><use xlink:href="#1"/><use xlink:href="#2" y="2.171"/><use xlink:href="#3" y="4.342"/><use xlink:href="#4" y="6.513"/><use xlink:href="#5" y="8.684"/></svg><svg x="2940"><use xlink:href="#a"/><use xlink:href="#b" x="-.004" y="13.001"/><use xlink:href="#1"/><use xlink:href="#2" y="2.171"/><use xlink:href="#3" y="4.342"/><use xlink:href="#4" y="6.513"/><use xlink:href="#5" y="8.684"/></svg><svg x="3080"><use xlink:href="#a"/><use xlink:href="#b" x="24.996" y="43.395"/><use xlink:href="#3"/><use xlink:href="#4" y="2.171"/><use xlink:href="#5" y="4.342"/><text y="10.354" class="h">{</text><text x="2.004" y="12.525" class="g">&quot;interceptors&quot;</text><text x="16.032" y="12.525" class="h">:</text><text x="18.036" y="12.525" class="h">[</text><text x="4.008" y="14.696" class="h">{</text><text x="6.012" y="16.867" class="g">&quot;name&quot;</text><text x="12.024" y="16.867" class="h">:</text><text x="14.028" y="16.867" class="i">&quot;encrypt&quot;</text><text x="23.046" y="16.867" class="h">,</text><text x="6.012" y="19.038" class="g">&quot;pluginClass&quot;</text><text x="19.038" y="19.038" class="h">:</text><text x="21.042" y="19.038" class="i">&quot;io.conduktor.gateway.interceptor.EncryptPlugin&quot;</text><text x="69.138" y="19.038" class="h">,</text><text x="6.012" y="21.209" class="g">&quot;apiKey&quot;</text><text x="14.028" y="21.209" class="h">:</text><text x="16.032" y="21.209" style="white-space:pre" fill="#6f7783">null</text><text x="20.04" y="21.209" class="h">,</text><text x="6.012" y="23.38" class="g">&quot;priority&quot;</text><text x="16.032" y="23.38" class="h">:</text><text x="18.036" y="23.38" class="o">100</text><text x="21.042" y="23.38" class="h">,</text><text x="6.012" y="25.551" class="g">&quot;timeoutMs&quot;</text><text x="17.034" y="25.551" class="h">:</text><text x="19.038" y="25.551" class="o">9223372036854775807</text><text x="38.076" y="25.551" class="h">,</text><text x="6.012" y="27.722" class="g">&quot;config&quot;</text><text x="14.028" y="27.722" class="h">:</text><text x="16.032" y="27.722" class="h">{</text><text x="8.016" y="29.893" class="g">&quot;schemaRegistryConfig&quot;</text><text x="30.06" y="29.893" class="h">:</text><text x="32.064" y="29.893" class="h">{</text><text x="10.02" y="32.064" class="g">&quot;host&quot;</text><text x="16.032" y="32.064" class="h">:</text><text x="18.036" y="32.064" class="i">&quot;http://schema-registry:8081&quot;</text><text x="8.016" y="34.235" class="h">},</text><use xlink:href="#6" y="34.736"/><use xlink:href="#7" y="36.907"/><use xlink:href="#8" y="39.078"/><use xlink:href="#9" y="41.249"/><text x="12.024" y="45.09" class="g">&quot;algorithm&quot;</text><text x="23.046" y="45.09" class="h">:</text></svg><svg x="3220"><use xlink:href="#a"/><use xlink:href="#b" x="-.004" y="43.395"/><use xlink:href="#6"/><use xlink:href="#7" y="2.171"/><use xlink:href="#8" y="4.342"/><use xlink:href="#9" y="6.513"/><use xlink:href="#10" y="8.684"/><use xlink:href="#11" y="10.855"/><use xlink:href="#12" y="13.026"/><use xlink:href="#13" y="15.197"/><use xlink:href="#14" y="17.368"/><use xlink:href="#7" y="19.539"/><use xlink:href="#15" y="21.71"/><use xlink:href="#16" y="23.881"/><use xlink:href="#10" y="26.052"/><use xlink:href="#11" y="28.223"/><use xlink:href="#12" y="30.394"/><use xlink:href="#13" y="32.565"/><use xlink:href="#14" y="34.736"/><use xlink:href="#7" y="36.907"/><use xlink:href="#17" y="39.078"/><use xlink:href="#18" y="41.249"/></svg><svg x="3360"><use xlink:href="#a"/><use xlink:href="#b" x="-.004" y="43.395"/><use xlink:href="#9"/><use xlink:href="#10" y="2.171"/><use xlink:href="#11" y="4.342"/><use xlink:href="#12" y="6.513"/><use xlink:href="#13" y="8.684"/><use xlink:href="#14" y="10.855"/><use xlink:href="#7" y="13.026"/><use xlink:href="#15" y="15.197"/><use xlink:href="#16" y="17.368"/><use xlink:href="#10" y="19.539"/><use xlink:href="#11" y="21.71"/><use xlink:href="#12" y="23.881"/><use xlink:href="#13" y="26.052"/><use xlink:href="#14" y="28.223"/><use xlink:href="#7" y="30.394"/><use xlink:href="#17" y="32.565"/><use xlink:href="#18" y="34.736"/><use xlink:href="#10" y="36.907"/><use xlink:href="#11" y="39.078"/><use xlink:href="#12" y="41.249"/></svg><svg x="3500"><use xlink:href="#a"/><use xlink:href="#b" x="-.004" y="43.395"/><use xlink:href="#7"/><use xlink:href="#15" y="2.171"/><use xlink:href="#16" y="4.342"/><use xlink:href="#10" y="6.513"/><use xlink:href="#11" y="8.684"/><use xlink:href="#12" y="10.855"/><use xlink:href="#13" y="13.026"/><use xlink:href="#14" y="15.197"/><use xlink:href="#7" y="17.368"/><use xlink:href="#17" y="19.539"/><use xlink:href="#18" y="21.71"/><use xlink:href="#10" y="23.881"/><use xlink:href="#11" y="26.052"/><use xlink:href="#12" y="28.223"/><use xlink:href="#13" y="30.394"/><use xlink:href="#19" y="32.565"/><use xlink:href="#20" y="34.736"/><use xlink:href="#21" y="36.907"/><use xlink:href="#22" y="39.078"/><use xlink:href="#23" y="41.249"/></svg><svg x="3640"><use xlink:href="#a"/><use xlink:href="#b" x="-.004" y="43.395"/><use xlink:href="#15"/><use xlink:href="#16" y="2.171"/><use xlink:href="#10" y="4.342"/><use xlink:href="#11" y="6.513"/><use xlink:href="#12" y="8.684"/><use xlink:href="#13" y="10.855"/><use xlink:href="#14" y="13.026"/><use xlink:href="#7" y="15.197"/><use xlink:href="#17" y="17.368"/><use xlink:href="#18" y="19.539"/><use xlink:href="#10" y="21.71"/><use xlink:href="#11" y="23.881"/><use xlink:href="#12" y="26.052"/><use xlink:href="#13" y="28.223"/><use xlink:href="#19" y="30.394"/><use xlink:href="#20" y="32.565"/><use xlink:href="#21" y="34.736"/><use xlink:href="#22" y="36.907"/><use xlink:href="#23" y="39.078"/><text y="42.919" class="h">}</text></svg></svg></g></g></svg></svg>