<svg xmlns="http://www.w3.org/2000/svg" xmlns:xlink="http://www.w3.org/1999/xlink" width="1440" height="298.81"><rect width="1440" height="298.81" rx="5" ry="5" class="a"/><svg y="0%" x="0%"><circle cx="20" cy="20" r="6" fill="#ff5f58"/><circle cx="40" cy="20" r="6" fill="#ffbd2e"/><circle cx="60" cy="20" r="6" fill="#18c132"/></svg><svg height="238.81" viewBox="0 0 140 23.881" width="1400" x="15" xmlns="http://www.w3.org/2000/svg" xmlns:xlink="http://www.w3.org/1999/xlink" y="50"><style>@keyframes i{0%{transform:translateX(0)}.3%{transform:translateX(-140px)}.5%{transform:translateX(-280px)}8.1%{transform:translateX(-420px)}11.9%{transform:translateX(-560px)}15.8%{transform:translateX(-700px)}19.5%{transform:translateX(-840px)}23.3%{transform:translateX(-980px)}27.2%{transform:translateX(-1120px)}30.8%{transform:translateX(-1260px)}34.7%{transform:translateX(-1400px)}38.4%{transform:translateX(-1540px)}42.1%{transform:translateX(-1680px)}45.9%{transform:translateX(-1820px)}49.8%{transform:translateX(-1960px)}54.1%{transform:translateX(-2100px)}58%{transform:translateX(-2240px)}61.8%{transform:translateX(-2380px)}69.3%{transform:translateX(-2520px)}73.1%{transform:translateX(-2660px)}76.8%{transform:translateX(-2800px)}80.7%{transform:translateX(-2940px)}84.7%{transform:translateX(-3080px)}88.5%{transform:translateX(-3220px)}92.4%{transform:translateX(-3360px)}96.1%{transform:translateX(-3500px)}to{transform:translateX(-3780px)}}.a{fill:#282d35}.f{fill:#fff;white-space:pre}</style><g font-family="Monaco,Consolas,Menlo,'Bitstream Vera Sans Mono','Powerline Symbols',monospace" font-size="1.67"><defs><symbol id="1"><text y="1.67" class="f">curl</text><text x="5.01" y="1.67" class="f">\</text></symbol><symbol id="2"><text x="2.004" y="1.67" class="f">--request</text><text x="12.024" y="1.67" class="f">POST</text><text x="17.034" y="1.67" class="f">&apos;http://localhost:8200/v1/transit/keys/secret-for-florent/config&apos;</text><text x="83.166" y="1.67" class="f">\</text></symbol><symbol id="3"><text x="2.004" y="1.67" class="f">--silent</text><text x="11.022" y="1.67" class="f">\</text></symbol><symbol id="4"><text x="2.004" y="1.67" class="f">--header</text><text x="11.022" y="1.67" class="f">&quot;X-Vault-Token:</text><text x="27.054" y="1.67" class="f">vault-plaintext-root-token&quot;</text></symbol><symbol id="5"><text x="2.004" y="1.67" class="f">--header</text><text x="11.022" y="1.67" class="f">&quot;X-Vault-Token:</text><text x="27.054" y="1.67" class="f">vault-plaintext-root-token&quot;</text><text x="55.11" y="1.67" class="f">\</text></symbol><symbol id="6"><text x="2.004" y="1.67" class="f">--header</text><text x="11.022" y="1.67" class="f">&quot;content-type:</text><text x="26.052" y="1.67" class="f">application/json&quot;</text><text x="44.088" y="1.67" class="f">\</text></symbol><symbol id="7"><text x="2.004" y="1.67" class="f">--data-raw</text><text x="13.026" y="1.67" class="f">&apos;{&quot;min_decryption_version&quot;:&quot;1&quot;,&quot;min_encryption_version&quot;:1,&quot;deletion_allowed&quot;:true,&quot;auto_rotate_period&quot;:0}&apos;</text><text x="120.24" y="1.67" class="f">&gt;</text><text x="122.244" y="1.67" class="f">/dev/null</text></symbol><symbol id="8"><text x="2.004" y="1.67" class="f">--request</text><text x="12.024" y="1.67" class="f">DELETE</text><text x="19.038" y="1.67" class="f">http://localhost:8200/v1/transit/keys/secret-for-florent</text><text x="76.152" y="1.67" class="f">\</text></symbol><symbol id="a"><path fill="transparent" d="M0 0h140v12H0z"/></symbol><symbol id="b"><path fill="#6f7683" d="M0 0h1.102v2.171H0z"/></symbol></defs><path class="a" d="M0 0h140v23.881H0z"/><g style="animation-duration:2.448711s;animation-iteration-count:infinite;animation-name:i;animation-timing-function:steps(1,end)"><svg width="3920"><svg><use xlink:href="#a"/><use xlink:href="#b" x="-.004"/></svg><svg x="140"><use xlink:href="#a"/><use xlink:href="#b" x="-.004"/></svg><svg x="280"><use xlink:href="#a"/><use xlink:href="#b" x="12.996" y="2.146"/><use xlink:href="#1"/><text x="2.004" y="3.841" class="f">--request</text><text x="12.024" y="3.841" class="f">P</text></svg><svg x="420"><use xlink:href="#a"/><use xlink:href="#b" x="32.996" y="2.146"/><use xlink:href="#1"/><text x="2.004" y="3.841" class="f">--request</text><text x="12.024" y="3.841" class="f">POST</text><text x="17.034" y="3.841" class="f">&apos;http://localhos</text></svg><svg x="560"><use xlink:href="#a"/><use xlink:href="#b" x="52.996" y="2.146"/><use xlink:href="#1"/><text x="2.004" y="3.841" class="f">--request</text><text x="12.024" y="3.841" class="f">POST</text><text x="17.034" y="3.841" class="f">&apos;http://localhost:8200/v1/transit/ke</text></svg><svg x="700"><use xlink:href="#a"/><use xlink:href="#b" x="72.996" y="2.146"/><use xlink:href="#1"/><text x="2.004" y="3.841" class="f">--request</text><text x="12.024" y="3.841" class="f">POST</text><text x="17.034" y="3.841" class="f">&apos;http://localhost:8200/v1/transit/keys/secret-for-floren</text></svg><svg x="840"><use xlink:href="#a"/><use xlink:href="#b" x="7.996" y="4.317"/><use xlink:href="#1"/><use xlink:href="#2" y="2.171"/><text x="2.004" y="6.012" class="f">--sile</text></svg><svg x="980"><use xlink:href="#a"/><use xlink:href="#b" x="14.996" y="6.488"/><use xlink:href="#1"/><use xlink:href="#2" y="2.171"/><use xlink:href="#3" y="4.342"/><text x="2.004" y="8.183" class="f">--header</text><text x="11.022" y="8.183" class="f">&quot;X-V</text></svg><svg x="1120"><use xlink:href="#a"/><use xlink:href="#b" x="34.996" y="6.488"/><use xlink:href="#1"/><use xlink:href="#2" y="2.171"/><use xlink:href="#3" y="4.342"/><text x="2.004" y="8.183" class="f">--header</text><text x="11.022" y="8.183" class="f">&quot;X-Vault-Token:</text><text x="27.054" y="8.183" class="f">vault-pl</text></svg><svg x="1260"><use xlink:href="#a"/><use xlink:href="#b" x="54.996" y="6.488"/><use xlink:href="#1"/><use xlink:href="#2" y="2.171"/><use xlink:href="#3" y="4.342"/><use xlink:href="#4" y="6.513"/></svg><svg x="1400"><use xlink:href="#a"/><use xlink:href="#b" x="17.996" y="8.659"/><use xlink:href="#1"/><use xlink:href="#2" y="2.171"/><use xlink:href="#3" y="4.342"/><use xlink:href="#5" y="6.513"/><text x="2.004" y="10.354" class="f">--header</text><text x="11.022" y="10.354" class="f">&quot;conten</text></svg><svg x="1540"><use xlink:href="#a"/><use xlink:href="#b" x="37.996" y="8.659"/><use xlink:href="#1"/><use xlink:href="#2" y="2.171"/><use xlink:href="#3" y="4.342"/><use xlink:href="#5" y="6.513"/><text x="2.004" y="10.354" class="f">--header</text><text x="11.022" y="10.354" class="f">&quot;content-type:</text><text x="26.052" y="10.354" class="f">application/</text></svg><svg x="1680"><use xlink:href="#a"/><use xlink:href="#b" x="11.996" y="10.83"/><use xlink:href="#1"/><use xlink:href="#2" y="2.171"/><use xlink:href="#3" y="4.342"/><use xlink:href="#5" y="6.513"/><use xlink:href="#6" y="8.684"/><text x="2.004" y="12.525" class="f">--data-raw</text></svg><svg x="1820"><use xlink:href="#a"/><use xlink:href="#b" x="31.996" y="10.83"/><use xlink:href="#1"/><use xlink:href="#2" y="2.171"/><use xlink:href="#3" y="4.342"/><use xlink:href="#5" y="6.513"/><use xlink:href="#6" y="8.684"/><text x="2.004" y="12.525" class="f">--data-raw</text><text x="13.026" y="12.525" class="f">&apos;{&quot;min_decryption_v</text></svg><svg x="1960"><use xlink:href="#a"/><use xlink:href="#b" x="51.996" y="10.83"/><use xlink:href="#1"/><use xlink:href="#2" y="2.171"/><use xlink:href="#3" y="4.342"/><use xlink:href="#5" y="6.513"/><use xlink:href="#6" y="8.684"/><text x="2.004" y="12.525" class="f">--data-raw</text><text x="13.026" y="12.525" class="f">&apos;{&quot;min_decryption_version&quot;:&quot;1&quot;,&quot;min_enc</text></svg><svg x="2100"><use xlink:href="#a"/><use xlink:href="#b" x="71.996" y="10.83"/><use xlink:href="#1"/><use xlink:href="#2" y="2.171"/><use xlink:href="#3" y="4.342"/><use xlink:href="#5" y="6.513"/><use xlink:href="#6" y="8.684"/><text x="2.004" y="12.525" class="f">--data-raw</text><text x="13.026" y="12.525" class="f">&apos;{&quot;min_decryption_version&quot;:&quot;1&quot;,&quot;min_encryption_version&quot;:1,&quot;</text></svg><svg x="2240"><use xlink:href="#a"/><use xlink:href="#b" x="91.996" y="10.83"/><use xlink:href="#1"/><use xlink:href="#2" y="2.171"/><use xlink:href="#3" y="4.342"/><use xlink:href="#5" y="6.513"/><use xlink:href="#6" y="8.684"/><text x="2.004" y="12.525" class="f">--data-raw</text><text x="13.026" y="12.525" class="f">&apos;{&quot;min_decryption_version&quot;:&quot;1&quot;,&quot;min_encryption_version&quot;:1,&quot;deletion_allowed&quot;:tr</text></svg><svg x="2380"><use xlink:href="#a"/><use xlink:href="#b" x="111.996" y="10.83"/><use xlink:href="#1"/><use xlink:href="#2" y="2.171"/><use xlink:href="#3" y="4.342"/><use xlink:href="#5" y="6.513"/><use xlink:href="#6" y="8.684"/><text x="2.004" y="12.525" class="f">--data-raw</text><text x="13.026" y="12.525" class="f">&apos;{&quot;min_decryption_version&quot;:&quot;1&quot;,&quot;min_encryption_version&quot;:1,&quot;deletion_allowed&quot;:true,&quot;auto_rotate_peri</text></svg><svg x="2520"><use xlink:href="#a"/><use xlink:href="#b" x="-.004" y="13.001"/><use xlink:href="#1"/><use xlink:href="#2" y="2.171"/><use xlink:href="#3" y="4.342"/><use xlink:href="#5" y="6.513"/><use xlink:href="#6" y="8.684"/><use xlink:href="#7" y="10.855"/></svg><svg x="2660"><use xlink:href="#a"/><use xlink:href="#b" x="11.996" y="17.343"/><use xlink:href="#1"/><use xlink:href="#2" y="2.171"/><use xlink:href="#3" y="4.342"/><use xlink:href="#5" y="6.513"/><use xlink:href="#6" y="8.684"/><use xlink:href="#7" y="10.855"/><use xlink:href="#1" y="15.197"/><text x="2.004" y="19.038" class="f">--request</text></svg><svg x="2800"><use xlink:href="#a"/><use xlink:href="#b" x="31.996" y="17.343"/><use xlink:href="#1"/><use xlink:href="#2" y="2.171"/><use xlink:href="#3" y="4.342"/><use xlink:href="#5" y="6.513"/><use xlink:href="#6" y="8.684"/><use xlink:href="#7" y="10.855"/><use xlink:href="#1" y="15.197"/><text x="2.004" y="19.038" class="f">--request</text><text x="12.024" y="19.038" class="f">DELETE</text><text x="19.038" y="19.038" class="f">http://localh</text></svg><svg x="2940"><use xlink:href="#a"/><use xlink:href="#b" x="51.996" y="17.343"/><use xlink:href="#1"/><use xlink:href="#2" y="2.171"/><use xlink:href="#3" y="4.342"/><use xlink:href="#5" y="6.513"/><use xlink:href="#6" y="8.684"/><use xlink:href="#7" y="10.855"/><use xlink:href="#1" y="15.197"/><text x="2.004" y="19.038" class="f">--request</text><text x="12.024" y="19.038" class="f">DELETE</text><text x="19.038" y="19.038" class="f">http://localhost:8200/v1/transit/</text></svg><svg x="3080"><use xlink:href="#a"/><use xlink:href="#b" x="71.996" y="17.343"/><use xlink:href="#1"/><use xlink:href="#2" y="2.171"/><use xlink:href="#3" y="4.342"/><use xlink:href="#5" y="6.513"/><use xlink:href="#6" y="8.684"/><use xlink:href="#7" y="10.855"/><use xlink:href="#1" y="15.197"/><text x="2.004" y="19.038" class="f">--request</text><text x="12.024" y="19.038" class="f">DELETE</text><text x="19.038" y="19.038" class="f">http://localhost:8200/v1/transit/keys/secret-for-flor</text></svg><svg x="3220"><use xlink:href="#a"/><use xlink:href="#b" x=".996" y="21.685"/><use xlink:href="#1"/><use xlink:href="#2" y="2.171"/><use xlink:href="#3" y="4.342"/><use xlink:href="#5" y="6.513"/><use xlink:href="#6" y="8.684"/><use xlink:href="#7" y="10.855"/><use xlink:href="#1" y="15.197"/><use xlink:href="#8" y="17.368"/><use xlink:href="#3" y="19.539"/></svg><svg x="3360"><use xlink:href="#a"/><use xlink:href="#b" x="20.996" y="21.685"/><use xlink:href="#1"/><use xlink:href="#2" y="2.171"/><use xlink:href="#3" y="4.342"/><use xlink:href="#5" y="6.513"/><use xlink:href="#6" y="8.684"/><use xlink:href="#7" y="10.855"/><use xlink:href="#1" y="15.197"/><use xlink:href="#8" y="17.368"/><use xlink:href="#3" y="19.539"/><text x="2.004" y="23.38" class="f">--header</text><text x="11.022" y="23.38" class="f">&quot;X-Vault-T</text></svg><svg x="3500"><use xlink:href="#a"/><use xlink:href="#b" x="40.996" y="21.685"/><use xlink:href="#1"/><use xlink:href="#2" y="2.171"/><use xlink:href="#3" y="4.342"/><use xlink:href="#5" y="6.513"/><use xlink:href="#6" y="8.684"/><use xlink:href="#7" y="10.855"/><use xlink:href="#1" y="15.197"/><use xlink:href="#8" y="17.368"/><use xlink:href="#3" y="19.539"/><text x="2.004" y="23.38" class="f">--header</text><text x="11.022" y="23.38" class="f">&quot;X-Vault-Token:</text><text x="27.054" y="23.38" class="f">vault-plaintex</text></svg><svg x="3640"><use xlink:href="#a"/><use xlink:href="#b" x="53.996" y="21.685"/><use xlink:href="#1"/><use xlink:href="#2" y="2.171"/><use xlink:href="#3" y="4.342"/><use xlink:href="#5" y="6.513"/><use xlink:href="#6" y="8.684"/><use xlink:href="#7" y="10.855"/><use xlink:href="#1" y="15.197"/><use xlink:href="#8" y="17.368"/><use xlink:href="#3" y="19.539"/><use xlink:href="#4" y="21.71"/></svg><svg x="3780"><use xlink:href="#a"/><use xlink:href="#b" x="-.004" y="23.856"/><use xlink:href="#1"/><use xlink:href="#2" y="2.171"/><use xlink:href="#3" y="4.342"/><use xlink:href="#5" y="6.513"/><use xlink:href="#6" y="8.684"/><use xlink:href="#7" y="10.855"/><use xlink:href="#1" y="15.197"/><use xlink:href="#8" y="17.368"/><use xlink:href="#3" y="19.539"/><use xlink:href="#4" y="21.71"/></svg></svg></g></g></svg></svg>