<svg xmlns="http://www.w3.org/2000/svg" xmlns:xlink="http://www.w3.org/1999/xlink" width="1440" height="298.81"><rect width="1440" height="298.81" rx="5" ry="5" class="a"/><svg y="0%" x="0%"><circle cx="20" cy="20" r="6" fill="#ff5f58"/><circle cx="40" cy="20" r="6" fill="#ffbd2e"/><circle cx="60" cy="20" r="6" fill="#18c132"/></svg><svg height="238.81" viewBox="0 0 140 23.881" width="1400" x="15" xmlns="http://www.w3.org/2000/svg" xmlns:xlink="http://www.w3.org/1999/xlink" y="50"><style>@keyframes i{0%{transform:translateX(0)}1.6%{transform:translateX(-140px)}2%{transform:translateX(-280px)}11.3%{transform:translateX(-420px)}16.1%{transform:translateX(-560px)}21%{transform:translateX(-700px)}25.4%{transform:translateX(-840px)}30.3%{transform:translateX(-980px)}35.1%{transform:translateX(-1120px)}39.6%{transform:translateX(-1260px)}44.1%{transform:translateX(-1400px)}48.8%{transform:translateX(-1540px)}53.3%{transform:translateX(-1680px)}57.7%{transform:translateX(-1820px)}62.1%{transform:translateX(-1960px)}67%{transform:translateX(-2100px)}71.4%{transform:translateX(-2240px)}76.2%{transform:translateX(-2380px)}80.9%{transform:translateX(-2520px)}85.6%{transform:translateX(-2660px)}90.3%{transform:translateX(-2800px)}95.1%{transform:translateX(-2940px)}99.9%{transform:translateX(-3080px)}to{transform:translateX(-3220px)}}.a{fill:#282d35}.f{fill:#fff;white-space:pre}</style><g font-family="Monaco,Consolas,Menlo,'Bitstream Vera Sans Mono','Powerline Symbols',monospace" font-size="1.67"><defs><symbol id="1"><text y="1.67" class="f">echo</text><text x="5.01" y="1.67" class="f">&apos;{&quot;type&quot;:&quot;Sports&quot;,&quot;price&quot;:75,&quot;color&quot;:&quot;blue&quot;}&apos;</text><text x="51.102" y="1.67" class="f">|</text><text x="53.106" y="1.67" class="f">\</text></symbol><symbol id="2"><text x="4.008" y="1.67" class="f">k</text></symbol><symbol id="3"><text x="4.008" y="1.67" class="f">kafka-console-produce</text></symbol><symbol id="4"><text x="4.008" y="1.67" class="f">kafka-console-producer</text><text x="27.054" y="1.67" class="f">\</text></symbol><symbol id="5"><text x="8.016" y="1.67" class="f">--bootst</text></symbol><symbol id="6"><text x="8.016" y="1.67" class="f">--bootstrap-server</text><text x="27.054" y="1.67" class="f">localhost</text></symbol><symbol id="7"><text x="8.016" y="1.67" class="f">--bootstrap-server</text><text x="27.054" y="1.67" class="f">localhost:6969</text><text x="42.084" y="1.67" class="f">\</text></symbol><symbol id="8"><text x="8.016" y="1.67" class="f">--pr</text></symbol><symbol id="9"><text x="8.016" y="1.67" class="f">--producer.config</text><text x="26.052" y="1.67" class="f">passth</text></symbol><symbol id="10"><text x="8.016" y="1.67" class="f">--producer.config</text><text x="26.052" y="1.67" class="f">passthrough-sa.properties</text></symbol><symbol id="11"><text x="8.016" y="1.67" class="f">--producer.config</text><text x="26.052" y="1.67" class="f">passthrough-sa.properties</text><text x="52.104" y="1.67" class="f">\</text></symbol><symbol id="12"><text x="8.016" y="1.67" class="f">--topic</text><text x="16.032" y="1.67" class="f">ca</text></symbol><symbol id="13"><text x="8.016" y="1.67" class="f">--topic</text><text x="16.032" y="1.67" class="f">cars</text></symbol><symbol id="14"><text y="1.67" class="f">echo</text><text x="5.01" y="1.67" class="f">&apos;{&quot;type&quot;:&quot;SUV&quot;,&quot;price&quot;:55,&quot;color&quot;:&quot;red&quot;}&apos;</text><text x="47.094" y="1.67" class="f">|</text><text x="49.098" y="1.67" class="f">\</text></symbol><symbol id="a"><path fill="transparent" d="M0 0h140v12H0z"/></symbol><symbol id="b"><path fill="#6f7683" d="M0 0h1.102v2.171H0z"/></symbol></defs><path class="a" d="M0 0h140v23.881H0z"/><g style="animation-duration:2.066078s;animation-iteration-count:infinite;animation-name:i;animation-timing-function:steps(1,end)"><svg width="3360"><svg><use xlink:href="#a"/><use xlink:href="#b" x="-.004"/></svg><svg x="140"><use xlink:href="#a"/><use xlink:href="#b" x="-.004"/></svg><svg x="280"><use xlink:href="#a"/><use xlink:href="#b" x="19.996"/><text y="1.67" class="f">echo</text><text x="5.01" y="1.67" class="f">&apos;{&quot;type&quot;:&quot;Sport</text></svg><svg x="420"><use xlink:href="#a"/><use xlink:href="#b" x="39.996"/><text y="1.67" class="f">echo</text><text x="5.01" y="1.67" class="f">&apos;{&quot;type&quot;:&quot;Sports&quot;,&quot;price&quot;:75,&quot;color</text></svg><svg x="560"><use xlink:href="#a"/><use xlink:href="#b" x="4.996" y="2.146"/><use xlink:href="#1"/><use xlink:href="#2" y="2.171"/></svg><svg x="700"><use xlink:href="#a"/><use xlink:href="#b" x="24.996" y="2.146"/><use xlink:href="#1"/><use xlink:href="#3" y="2.171"/></svg><svg x="840"><use xlink:href="#a"/><use xlink:href="#b" x="15.996" y="4.317"/><use xlink:href="#1"/><use xlink:href="#4" y="2.171"/><use xlink:href="#5" y="4.342"/></svg><svg x="980"><use xlink:href="#a"/><use xlink:href="#b" x="35.996" y="4.317"/><use xlink:href="#1"/><use xlink:href="#4" y="2.171"/><use xlink:href="#6" y="4.342"/></svg><svg x="1120"><use xlink:href="#a"/><use xlink:href="#b" x="11.996" y="6.488"/><use xlink:href="#1"/><use xlink:href="#4" y="2.171"/><use xlink:href="#7" y="4.342"/><use xlink:href="#8" y="6.513"/></svg><svg x="1260"><use xlink:href="#a"/><use xlink:href="#b" x="31.996" y="6.488"/><use xlink:href="#1"/><use xlink:href="#4" y="2.171"/><use xlink:href="#7" y="4.342"/><use xlink:href="#9" y="6.513"/></svg><svg x="1400"><use xlink:href="#a"/><use xlink:href="#b" x="51.996" y="6.488"/><use xlink:href="#1"/><use xlink:href="#4" y="2.171"/><use xlink:href="#7" y="4.342"/><use xlink:href="#10" y="6.513"/></svg><svg x="1540"><use xlink:href="#a"/><use xlink:href="#b" x="17.996" y="8.659"/><use xlink:href="#1"/><use xlink:href="#4" y="2.171"/><use xlink:href="#7" y="4.342"/><use xlink:href="#11" y="6.513"/><use xlink:href="#12" y="8.684"/></svg><svg x="1680"><use xlink:href="#a"/><use xlink:href="#b" x="15.996" y="13.001"/><use xlink:href="#1"/><use xlink:href="#4" y="2.171"/><use xlink:href="#7" y="4.342"/><use xlink:href="#11" y="6.513"/><use xlink:href="#13" y="8.684"/><text y="14.696" class="f">echo</text><text x="5.01" y="14.696" class="f">&apos;{&quot;type&quot;:&quot;S</text></svg><svg x="1820"><use xlink:href="#a"/><use xlink:href="#b" x="35.996" y="13.001"/><use xlink:href="#1"/><use xlink:href="#4" y="2.171"/><use xlink:href="#7" y="4.342"/><use xlink:href="#11" y="6.513"/><use xlink:href="#13" y="8.684"/><text y="14.696" class="f">echo</text><text x="5.01" y="14.696" class="f">&apos;{&quot;type&quot;:&quot;SUV&quot;,&quot;price&quot;:55,&quot;colo</text></svg><svg x="1960"><use xlink:href="#a"/><use xlink:href="#b" x="4.996" y="15.172"/><use xlink:href="#1"/><use xlink:href="#4" y="2.171"/><use xlink:href="#7" y="4.342"/><use xlink:href="#11" y="6.513"/><use xlink:href="#13" y="8.684"/><use xlink:href="#14" y="13.026"/><use xlink:href="#2" y="15.197"/></svg><svg x="2100"><use xlink:href="#a"/><use xlink:href="#b" x="24.996" y="15.172"/><use xlink:href="#1"/><use xlink:href="#4" y="2.171"/><use xlink:href="#7" y="4.342"/><use xlink:href="#11" y="6.513"/><use xlink:href="#13" y="8.684"/><use xlink:href="#14" y="13.026"/><use xlink:href="#3" y="15.197"/></svg><svg x="2240"><use xlink:href="#a"/><use xlink:href="#b" x="15.996" y="17.343"/><use xlink:href="#1"/><use xlink:href="#4" y="2.171"/><use xlink:href="#7" y="4.342"/><use xlink:href="#11" y="6.513"/><use xlink:href="#13" y="8.684"/><use xlink:href="#14" y="13.026"/><use xlink:href="#4" y="15.197"/><use xlink:href="#5" y="17.368"/></svg><svg x="2380"><use xlink:href="#a"/><use xlink:href="#b" x="35.996" y="17.343"/><use xlink:href="#1"/><use xlink:href="#4" y="2.171"/><use xlink:href="#7" y="4.342"/><use xlink:href="#11" y="6.513"/><use xlink:href="#13" y="8.684"/><use xlink:href="#14" y="13.026"/><use xlink:href="#4" y="15.197"/><use xlink:href="#6" y="17.368"/></svg><svg x="2520"><use xlink:href="#a"/><use xlink:href="#b" x="11.996" y="19.514"/><use xlink:href="#1"/><use xlink:href="#4" y="2.171"/><use xlink:href="#7" y="4.342"/><use xlink:href="#11" y="6.513"/><use xlink:href="#13" y="8.684"/><use xlink:href="#14" y="13.026"/><use xlink:href="#4" y="15.197"/><use xlink:href="#7" y="17.368"/><use xlink:href="#8" y="19.539"/></svg><svg x="2660"><use xlink:href="#a"/><use xlink:href="#b" x="31.996" y="19.514"/><use xlink:href="#1"/><use xlink:href="#4" y="2.171"/><use xlink:href="#7" y="4.342"/><use xlink:href="#11" y="6.513"/><use xlink:href="#13" y="8.684"/><use xlink:href="#14" y="13.026"/><use xlink:href="#4" y="15.197"/><use xlink:href="#7" y="17.368"/><use xlink:href="#9" y="19.539"/></svg><svg x="2800"><use xlink:href="#a"/><use xlink:href="#b" x="51.996" y="19.514"/><use xlink:href="#1"/><use xlink:href="#4" y="2.171"/><use xlink:href="#7" y="4.342"/><use xlink:href="#11" y="6.513"/><use xlink:href="#13" y="8.684"/><use xlink:href="#14" y="13.026"/><use xlink:href="#4" y="15.197"/><use xlink:href="#7" y="17.368"/><use xlink:href="#10" y="19.539"/></svg><svg x="2940"><use xlink:href="#a"/><use xlink:href="#b" x="17.996" y="21.685"/><use xlink:href="#1"/><use xlink:href="#4" y="2.171"/><use xlink:href="#7" y="4.342"/><use xlink:href="#11" y="6.513"/><use xlink:href="#13" y="8.684"/><use xlink:href="#14" y="13.026"/><use xlink:href="#4" y="15.197"/><use xlink:href="#7" y="17.368"/><use xlink:href="#11" y="19.539"/><use xlink:href="#12" y="21.71"/></svg><svg x="3080"><use xlink:href="#a"/><use xlink:href="#b" x="19.996" y="21.685"/><use xlink:href="#1"/><use xlink:href="#4" y="2.171"/><use xlink:href="#7" y="4.342"/><use xlink:href="#11" y="6.513"/><use xlink:href="#13" y="8.684"/><use xlink:href="#14" y="13.026"/><use xlink:href="#4" y="15.197"/><use xlink:href="#7" y="17.368"/><use xlink:href="#11" y="19.539"/><use xlink:href="#13" y="21.71"/></svg><svg x="3220"><use xlink:href="#a"/><use xlink:href="#b" x="-.004" y="23.856"/><use xlink:href="#1"/><use xlink:href="#4" y="2.171"/><use xlink:href="#7" y="4.342"/><use xlink:href="#11" y="6.513"/><use xlink:href="#13" y="8.684"/><use xlink:href="#14" y="13.026"/><use xlink:href="#4" y="15.197"/><use xlink:href="#7" y="17.368"/><use xlink:href="#11" y="19.539"/><use xlink:href="#13" y="21.71"/></svg></svg></g></g></svg></svg>