<svg xmlns="http://www.w3.org/2000/svg" xmlns:xlink="http://www.w3.org/1999/xlink" width="1440" height="320.52"><rect width="1440" height="320.52" rx="5" ry="5" class="a"/><svg y="0%" x="0%"><circle cx="20" cy="20" r="6" fill="#ff5f58"/><circle cx="40" cy="20" r="6" fill="#ffbd2e"/><circle cx="60" cy="20" r="6" fill="#18c132"/></svg><svg height="260.52" viewBox="0 0 140 26.052" width="1400" x="15" xmlns="http://www.w3.org/2000/svg" xmlns:xlink="http://www.w3.org/1999/xlink" y="50"><style>@keyframes i{0%{transform:translateX(0)}.3%{transform:translateX(-140px)}.5%{transform:translateX(-280px)}3.7%{transform:translateX(-420px)}7%{transform:translateX(-560px)}10.3%{transform:translateX(-700px)}16.4%{transform:translateX(-840px)}19.6%{transform:translateX(-980px)}22.8%{transform:translateX(-1120px)}26.1%{transform:translateX(-1260px)}29.3%{transform:translateX(-1400px)}32.6%{transform:translateX(-1540px)}35.7%{transform:translateX(-1680px)}38.8%{transform:translateX(-1820px)}42%{transform:translateX(-1960px)}45.2%{transform:translateX(-2240px)}to{transform:translateX(-2380px)}}.a{fill:#282d35}.f{fill:#fff;white-space:pre}.k{fill:#b9c0cb;font-weight:700}.k,.l,.m{white-space:pre}.l{fill:#71bef2;font-weight:700}.m{fill:#a8cc8c}</style><g font-family="Monaco,Consolas,Menlo,'Bitstream Vera Sans Mono','Powerline Symbols',monospace" font-size="1.67"><defs><symbol id="1"><text y="1.67" class="f">kafka-avro-console-consumer</text><text x="29.058" y="1.67" class="f">\</text></symbol><symbol id="2"><text x="4.008" y="1.67" class="f">--bootstrap-server</text><text x="23.046" y="1.67" class="f">localhost:6969</text><text x="38.076" y="1.67" class="f">\</text></symbol><symbol id="3"><text x="4.008" y="1.67" class="f">--consumer.config</text><text x="22.044" y="1.67" class="f">teamA-sa.properties</text><text x="42.084" y="1.67" class="f">\</text></symbol><symbol id="4"><text x="4.008" y="1.67" class="f">--topic</text><text x="12.024" y="1.67" class="f">red-cars</text><text x="21.042" y="1.67" class="f">\</text></symbol><symbol id="5"><text x="4.008" y="1.67" class="f">--property</text><text x="15.03" y="1.67" class="f">schema.registry.url=http://localhost:8081</text><text x="57.114" y="1.67" class="f">\</text></symbol><symbol id="6"><text x="4.008" y="1.67" class="f">--from-beginning</text><text x="21.042" y="1.67" class="f">\</text></symbol><symbol id="7"><text x="4.008" y="1.67" class="f">--max-messages</text><text x="19.038" y="1.67" class="f">1</text><text x="21.042" y="1.67" class="f">2&gt;&amp;1</text><text x="26.052" y="1.67" class="f">|</text><text x="28.056" y="1.67" class="f">grep</text><text x="33.066" y="1.67" class="f">&quot;{&quot;</text><text x="37.074" y="1.67" class="f">|</text><text x="39.078" y="1.67" class="f">jq</text></symbol><symbol id="a"><path fill="transparent" d="M0 0h140v13H0z"/></symbol><symbol id="b"><path fill="#6f7683" d="M0 0h1.102v2.171H0z"/></symbol></defs><path class="a" d="M0 0h140v26.052H0z"/><g style="animation-duration:3.061734s;animation-iteration-count:infinite;animation-name:i;animation-timing-function:steps(1,end)"><svg width="2520"><svg><use xlink:href="#a"/><use xlink:href="#b" x="-.004"/></svg><svg x="140"><use xlink:href="#a"/><use xlink:href="#b" x="-.004"/></svg><svg x="280"><use xlink:href="#a"/><use xlink:href="#b" x="19.996"/><text y="1.67" class="f">kafka-avro-console-c</text></svg><svg x="420"><use xlink:href="#a"/><use xlink:href="#b" x="8.996" y="2.146"/><use xlink:href="#1"/><text x="4.008" y="3.841" class="f">--boo</text></svg><svg x="560"><use xlink:href="#a"/><use xlink:href="#b" x="28.996" y="2.146"/><use xlink:href="#1"/><text x="4.008" y="3.841" class="f">--bootstrap-server</text><text x="23.046" y="3.841" class="f">localh</text></svg><svg x="700"><use xlink:href="#a"/><use xlink:href="#b" x="8.996" y="4.317"/><use xlink:href="#1"/><use xlink:href="#2" y="2.171"/><text x="4.008" y="6.012" class="f">--con</text></svg><svg x="840"><use xlink:href="#a"/><use xlink:href="#b" x="28.996" y="4.317"/><use xlink:href="#1"/><use xlink:href="#2" y="2.171"/><text x="4.008" y="6.012" class="f">--consumer.config</text><text x="22.044" y="6.012" class="f">teamA-s</text></svg><svg x="980"><use xlink:href="#a"/><use xlink:href="#b" x="4.996" y="6.488"/><use xlink:href="#1"/><use xlink:href="#2" y="2.171"/><use xlink:href="#3" y="4.342"/><text x="4.008" y="8.183" class="f">-</text></svg><svg x="1120"><use xlink:href="#a"/><use xlink:href="#b" x="1.996" y="8.659"/><use xlink:href="#1"/><use xlink:href="#2" y="2.171"/><use xlink:href="#3" y="4.342"/><use xlink:href="#4" y="6.513"/></svg><svg x="1260"><use xlink:href="#a"/><use xlink:href="#b" x="21.996" y="8.659"/><use xlink:href="#1"/><use xlink:href="#2" y="2.171"/><use xlink:href="#3" y="4.342"/><use xlink:href="#4" y="6.513"/><text x="4.008" y="10.354" class="f">--property</text><text x="15.03" y="10.354" class="f">schema.</text></svg><svg x="1400"><use xlink:href="#a"/><use xlink:href="#b" x="41.996" y="8.659"/><use xlink:href="#1"/><use xlink:href="#2" y="2.171"/><use xlink:href="#3" y="4.342"/><use xlink:href="#4" y="6.513"/><text x="4.008" y="10.354" class="f">--property</text><text x="15.03" y="10.354" class="f">schema.registry.url=http://</text></svg><svg x="1540"><use xlink:href="#a"/><use xlink:href="#b" x="2.996" y="10.83"/><use xlink:href="#1"/><use xlink:href="#2" y="2.171"/><use xlink:href="#3" y="4.342"/><use xlink:href="#4" y="6.513"/><use xlink:href="#5" y="8.684"/></svg><svg x="1680"><use xlink:href="#a"/><use xlink:href="#b" x="-.004" y="13.001"/><use xlink:href="#1"/><use xlink:href="#2" y="2.171"/><use xlink:href="#3" y="4.342"/><use xlink:href="#4" y="6.513"/><use xlink:href="#5" y="8.684"/><use xlink:href="#6" y="10.855"/></svg><svg x="1820"><use xlink:href="#a"/><use xlink:href="#b" x="19.996" y="13.001"/><use xlink:href="#1"/><use xlink:href="#2" y="2.171"/><use xlink:href="#3" y="4.342"/><use xlink:href="#4" y="6.513"/><use xlink:href="#5" y="8.684"/><use xlink:href="#6" y="10.855"/><text x="4.008" y="14.696" class="f">--max-messages</text><text x="19.038" y="14.696" class="f">1</text></svg><svg x="1960"><use xlink:href="#a"/><use xlink:href="#b" x="39.996" y="13.001"/><use xlink:href="#1"/><use xlink:href="#2" y="2.171"/><use xlink:href="#3" y="4.342"/><use xlink:href="#4" y="6.513"/><use xlink:href="#5" y="8.684"/><use xlink:href="#6" y="10.855"/><text x="4.008" y="14.696" class="f">--max-messages</text><text x="19.038" y="14.696" class="f">1</text><text x="21.042" y="14.696" class="f">2&gt;&amp;1</text><text x="26.052" y="14.696" class="f">|</text><text x="28.056" y="14.696" class="f">grep</text><text x="33.066" y="14.696" class="f">&quot;{&quot;</text><text x="37.074" y="14.696" class="f">|</text><text x="39.078" y="14.696" class="f">j</text></svg><svg x="2100"><use xlink:href="#a"/><use xlink:href="#b" x="40.996" y="13.001"/><use xlink:href="#1"/><use xlink:href="#2" y="2.171"/><use xlink:href="#3" y="4.342"/><use xlink:href="#4" y="6.513"/><use xlink:href="#5" y="8.684"/><use xlink:href="#6" y="10.855"/><use xlink:href="#7" y="13.026"/></svg><svg x="2240"><use xlink:href="#a"/><use xlink:href="#b" x="-.004" y="15.172"/><use xlink:href="#1"/><use xlink:href="#2" y="2.171"/><use xlink:href="#3" y="4.342"/><use xlink:href="#4" y="6.513"/><use xlink:href="#5" y="8.684"/><use xlink:href="#6" y="10.855"/><use xlink:href="#7" y="13.026"/></svg><svg x="2380"><use xlink:href="#a"/><use xlink:href="#b" x="-.004" y="26.027"/><use xlink:href="#1"/><use xlink:href="#2" y="2.171"/><use xlink:href="#3" y="4.342"/><use xlink:href="#4" y="6.513"/><use xlink:href="#5" y="8.684"/><use xlink:href="#6" y="10.855"/><use xlink:href="#7" y="13.026"/><text y="16.867" class="k">{</text><text x="2.004" y="19.038" class="l">&quot;type&quot;</text><text x="8.016" y="19.038" class="k">:</text><text x="10.02" y="19.038" class="m">&quot;SUV&quot;</text><text x="15.03" y="19.038" class="k">,</text><text x="2.004" y="21.209" class="l">&quot;price&quot;</text><text x="9.018" y="21.209" class="k">:</text><text x="11.022" y="21.209" style="white-space:pre" fill="#b9c0cb">55</text><text x="13.026" y="21.209" class="k">,</text><text x="2.004" y="23.38" class="l">&quot;color&quot;</text><text x="9.018" y="23.38" class="k">:</text><text x="11.022" y="23.38" class="m">&quot;red&quot;</text><text y="25.551" class="k">}</text></svg></svg></g></g></svg></svg>