<svg xmlns="http://www.w3.org/2000/svg" xmlns:xlink="http://www.w3.org/1999/xlink" width="1440" height="363.94"><rect width="1440" height="363.94" rx="5" ry="5" class="a"/><svg y="0%" x="0%"><circle cx="20" cy="20" r="6" fill="#ff5f58"/><circle cx="40" cy="20" r="6" fill="#ffbd2e"/><circle cx="60" cy="20" r="6" fill="#18c132"/></svg><svg height="303.94" viewBox="0 0 140 30.394" width="1400" x="15" xmlns="http://www.w3.org/2000/svg" xmlns:xlink="http://www.w3.org/1999/xlink" y="50"><style>@keyframes i{0%{transform:translateX(0)}1.4%{transform:translateX(-140px)}1.8%{transform:translateX(-280px)}16.5%{transform:translateX(-420px)}23.9%{transform:translateX(-560px)}31.5%{transform:translateX(-700px)}39.2%{transform:translateX(-840px)}46.7%{transform:translateX(-980px)}54.3%{transform:translateX(-1120px)}62.1%{transform:translateX(-1260px)}69.6%{transform:translateX(-1400px)}77.3%{transform:translateX(-1540px)}84.5%{transform:translateX(-1680px)}92.1%{transform:translateX(-1820px)}to{transform:translateX(-2100px)}}.a{fill:#282d35}.f{fill:#fff;white-space:pre}</style><g font-family="Monaco,Consolas,Menlo,'Bitstream Vera Sans Mono','Powerline Symbols',monospace" font-size="1.67"><defs><symbol id="1"><text y="1.67" class="f">token=$(curl</text><text x="13.026" y="1.67" class="f">\</text></symbol><symbol id="2"><text x="4.008" y="1.67" class="f">--request</text><text x="14.028" y="1.67" class="f">POST</text><text x="19.038" y="1.67" class="f">&quot;http://localhost:8888/admin/vclusters/v1/vcluster/teamA/username/sa&quot;</text><text x="89.178" y="1.67" class="f">\</text></symbol><symbol id="3"><text x="4.008" y="1.67" class="f">--header</text><text x="13.026" y="1.67" class="f">&apos;Content-Type:</text><text x="28.056" y="1.67" class="f">application/json&apos;</text><text x="46.092" y="1.67" class="f">\</text></symbol><symbol id="4"><text x="4.008" y="1.67" class="f">--user</text><text x="11.022" y="1.67" class="f">&apos;admin:conduktor&apos;</text><text x="29.058" y="1.67" class="f">\</text></symbol><symbol id="5"><text x="4.008" y="1.67" class="f">--silent</text><text x="13.026" y="1.67" class="f">\</text></symbol><symbol id="6"><text x="4.008" y="1.67" class="f">--data-raw</text><text x="15.03" y="1.67" class="f">&apos;{&quot;lifeTimeSeconds&quot;:</text><text x="36.072" y="1.67" class="f">7776000}&apos;</text><text x="46.092" y="1.67" class="f">|</text><text x="48.096" y="1.67" class="f">jq</text><text x="51.102" y="1.67" class="f">-r</text><text x="54.108" y="1.67" class="f">&quot;.token&quot;)</text></symbol><symbol id="7"><text y="1.67" class="f">echo</text><text x="6.012" y="1.67" class="f">&quot;&quot;&quot;</text></symbol><symbol id="8"><text y="1.67" class="f">bootstrap.servers=localhost:6969</text></symbol><symbol id="9"><text y="1.67" class="f">security.protocol=SASL_PLAINTEXT</text></symbol><symbol id="10"><text y="1.67" class="f">sasl.mechanism=PLAIN</text></symbol><symbol id="11"><text y="1.67" class="f">sasl.jaas.config=org.apache.kafka.common.security.plain.PlainLoginModule</text><text x="73.146" y="1.67" class="f">required</text><text x="82.164" y="1.67" class="f">username=&apos;sa&apos;</text><text x="96.192" y="1.67" class="f">password=&apos;$token&apos;;</text></symbol><symbol id="12"><text y="1.67" class="f">&quot;&quot;&quot;</text><text x="4.008" y="1.67" class="f">&gt;</text><text x="6.012" y="1.67" class="f">teamA-sa.properties</text></symbol><symbol id="a"><path fill="transparent" d="M0 0h140v15H0z"/></symbol><symbol id="b"><path fill="#6f7683" d="M0 0h1.102v2.171H0z"/></symbol></defs><path class="a" d="M0 0h140v30.394H0z"/><g style="animation-duration:1.280212s;animation-iteration-count:infinite;animation-name:i;animation-timing-function:steps(1,end)"><svg width="2240"><svg><use xlink:href="#a"/><use xlink:href="#b" x="-.004"/></svg><svg x="140"><use xlink:href="#a"/><use xlink:href="#b" x="-.004"/></svg><svg x="280"><use xlink:href="#a"/><use xlink:href="#b" x="24.996" y="2.146"/><use xlink:href="#1"/><text x="4.008" y="3.841" class="f">--request</text><text x="14.028" y="3.841" class="f">POST</text><text x="19.038" y="3.841" class="f">&quot;http:</text></svg><svg x="420"><use xlink:href="#a"/><use xlink:href="#b" x="64.996" y="2.146"/><use xlink:href="#1"/><text x="4.008" y="3.841" class="f">--request</text><text x="14.028" y="3.841" class="f">POST</text><text x="19.038" y="3.841" class="f">&quot;http://localhost:8888/admin/vclusters/v1/vclu</text></svg><svg x="560"><use xlink:href="#a"/><use xlink:href="#b" x="13.996" y="4.317"/><use xlink:href="#1"/><use xlink:href="#2" y="2.171"/><text x="4.008" y="6.012" class="f">--header</text><text x="13.026" y="6.012" class="f">&apos;</text></svg><svg x="700"><use xlink:href="#a"/><use xlink:href="#b" x="5.996" y="6.488"/><use xlink:href="#1"/><use xlink:href="#2" y="2.171"/><use xlink:href="#3" y="4.342"/><text x="4.008" y="8.183" class="f">--</text></svg><svg x="840"><use xlink:href="#a"/><use xlink:href="#b" x="-.004" y="10.83"/><use xlink:href="#1"/><use xlink:href="#2" y="2.171"/><use xlink:href="#3" y="4.342"/><use xlink:href="#4" y="6.513"/><use xlink:href="#5" y="8.684"/></svg><svg x="980"><use xlink:href="#a"/><use xlink:href="#b" x="39.996" y="10.83"/><use xlink:href="#1"/><use xlink:href="#2" y="2.171"/><use xlink:href="#3" y="4.342"/><use xlink:href="#4" y="6.513"/><use xlink:href="#5" y="8.684"/><text x="4.008" y="12.525" class="f">--data-raw</text><text x="15.03" y="12.525" class="f">&apos;{&quot;lifeTimeSeconds&quot;:</text><text x="36.072" y="12.525" class="f">7776</text></svg><svg x="1120"><use xlink:href="#a"/><use xlink:href="#b" x="4.996" y="17.343"/><use xlink:href="#1"/><use xlink:href="#2" y="2.171"/><use xlink:href="#3" y="4.342"/><use xlink:href="#4" y="6.513"/><use xlink:href="#5" y="8.684"/><use xlink:href="#6" y="10.855"/><use xlink:href="#7" y="15.197"/><text y="19.038" class="f">boots</text></svg><svg x="1260"><use xlink:href="#a"/><use xlink:href="#b" x="11.996" y="19.514"/><use xlink:href="#1"/><use xlink:href="#2" y="2.171"/><use xlink:href="#3" y="4.342"/><use xlink:href="#4" y="6.513"/><use xlink:href="#5" y="8.684"/><use xlink:href="#6" y="10.855"/><use xlink:href="#7" y="15.197"/><use xlink:href="#8" y="17.368"/><text y="21.209" class="f">security.pro</text></svg><svg x="1400"><use xlink:href="#a"/><use xlink:href="#b" x="18.996" y="21.685"/><use xlink:href="#1"/><use xlink:href="#2" y="2.171"/><use xlink:href="#3" y="4.342"/><use xlink:href="#4" y="6.513"/><use xlink:href="#5" y="8.684"/><use xlink:href="#6" y="10.855"/><use xlink:href="#7" y="15.197"/><use xlink:href="#8" y="17.368"/><use xlink:href="#9" y="19.539"/><text y="23.38" class="f">sasl.mechanism=PLAI</text></svg><svg x="1540"><use xlink:href="#a"/><use xlink:href="#b" x="37.996" y="23.856"/><use xlink:href="#1"/><use xlink:href="#2" y="2.171"/><use xlink:href="#3" y="4.342"/><use xlink:href="#4" y="6.513"/><use xlink:href="#5" y="8.684"/><use xlink:href="#6" y="10.855"/><use xlink:href="#7" y="15.197"/><use xlink:href="#8" y="17.368"/><use xlink:href="#9" y="19.539"/><use xlink:href="#10" y="21.71"/><text y="25.551" class="f">sasl.jaas.config=org.apache.kafka.comm</text></svg><svg x="1680"><use xlink:href="#a"/><use xlink:href="#b" x="77.996" y="23.856"/><use xlink:href="#1"/><use xlink:href="#2" y="2.171"/><use xlink:href="#3" y="4.342"/><use xlink:href="#4" y="6.513"/><use xlink:href="#5" y="8.684"/><use xlink:href="#6" y="10.855"/><use xlink:href="#7" y="15.197"/><use xlink:href="#8" y="17.368"/><use xlink:href="#9" y="19.539"/><use xlink:href="#10" y="21.71"/><text y="25.551" class="f">sasl.jaas.config=org.apache.kafka.common.security.plain.PlainLoginModule</text><text x="73.146" y="25.551" class="f">requi</text></svg><svg x="1820"><use xlink:href="#a"/><use xlink:href="#b" x="2.996" y="26.027"/><use xlink:href="#1"/><use xlink:href="#2" y="2.171"/><use xlink:href="#3" y="4.342"/><use xlink:href="#4" y="6.513"/><use xlink:href="#5" y="8.684"/><use xlink:href="#6" y="10.855"/><use xlink:href="#7" y="15.197"/><use xlink:href="#8" y="17.368"/><use xlink:href="#9" y="19.539"/><use xlink:href="#10" y="21.71"/><use xlink:href="#11" y="23.881"/><text y="27.722" class="f">&quot;&quot;&quot;</text></svg><svg x="1960"><use xlink:href="#a"/><use xlink:href="#b" x="-.004" y="28.198"/><use xlink:href="#1"/><use xlink:href="#2" y="2.171"/><use xlink:href="#3" y="4.342"/><use xlink:href="#4" y="6.513"/><use xlink:href="#5" y="8.684"/><use xlink:href="#6" y="10.855"/><use xlink:href="#7" y="15.197"/><use xlink:href="#8" y="17.368"/><use xlink:href="#9" y="19.539"/><use xlink:href="#10" y="21.71"/><use xlink:href="#11" y="23.881"/><use xlink:href="#12" y="26.052"/></svg><svg x="2100"><use xlink:href="#a"/><use xlink:href="#b" x="-.004" y="30.369"/><use xlink:href="#1"/><use xlink:href="#2" y="2.171"/><use xlink:href="#3" y="4.342"/><use xlink:href="#4" y="6.513"/><use xlink:href="#5" y="8.684"/><use xlink:href="#6" y="10.855"/><use xlink:href="#7" y="15.197"/><use xlink:href="#8" y="17.368"/><use xlink:href="#9" y="19.539"/><use xlink:href="#10" y="21.71"/><use xlink:href="#11" y="23.881"/><use xlink:href="#12" y="26.052"/></svg></svg></g></g></svg></svg>