<svg xmlns="http://www.w3.org/2000/svg" xmlns:xlink="http://www.w3.org/1999/xlink" width="1440" height="298.81"><rect width="1440" height="298.81" rx="5" ry="5" class="a"/><svg y="0%" x="0%"><circle cx="20" cy="20" r="6" fill="#ff5f58"/><circle cx="40" cy="20" r="6" fill="#ffbd2e"/><circle cx="60" cy="20" r="6" fill="#18c132"/></svg><svg height="238.81" viewBox="0 0 140 23.881" width="1400" x="15" xmlns="http://www.w3.org/2000/svg" xmlns:xlink="http://www.w3.org/1999/xlink" y="50"><style>@keyframes i{0%{transform:translateX(0)}.7%{transform:translateX(-140px)}1%{transform:translateX(-280px)}14.5%{transform:translateX(-420px)}21.8%{transform:translateX(-560px)}28.9%{transform:translateX(-700px)}36%{transform:translateX(-840px)}42.6%{transform:translateX(-980px)}49.8%{transform:translateX(-1120px)}57%{transform:translateX(-1260px)}63.7%{transform:translateX(-1400px)}71%{transform:translateX(-1540px)}78.1%{transform:translateX(-1680px)}85.3%{transform:translateX(-1820px)}92.6%{transform:translateX(-1960px)}99.9%{transform:translateX(-2100px)}to{transform:translateX(-2240px)}}.a{fill:#282d35}.f{fill:#fff;white-space:pre}</style><g font-family="Monaco,Consolas,Menlo,'Bitstream Vera Sans Mono','Powerline Symbols',monospace" font-size="1.67"><defs><symbol id="1"><text y="1.67" class="f">echo</text><text x="5.01" y="1.67" class="f">&apos;{&quot;name&quot;:&quot;tom&quot;,&quot;username&quot;:&quot;tom@conduktor.io&quot;,&quot;password&quot;:&quot;motorhead&quot;,&quot;visa&quot;:&quot;#abc123&quot;,&quot;address&quot;:&quot;Chancery</text><text x="110.22" y="1.67" class="f">lane,</text><text x="116.232" y="1.67" class="f">London&quot;}&apos;</text><text x="126.252" y="1.67" class="f">|</text><text x="128.256" y="1.67" class="f">\</text></symbol><symbol id="2"><text x="4.008" y="1.67" class="f">kafka-console-producer</text><text x="27.054" y="1.67" class="f">\</text></symbol><symbol id="3"><text x="8.016" y="1.67" class="f">--bootstrap-server</text><text x="27.054" y="1.67" class="f">localhost:6969</text><text x="42.084" y="1.67" class="f">\</text></symbol><symbol id="4"><text x="8.016" y="1.67" class="f">--producer.config</text><text x="26.052" y="1.67" class="f">teamA-sa.properties</text><text x="46.092" y="1.67" class="f">\</text></symbol><symbol id="5"><text x="8.016" y="1.67" class="f">--topic</text><text x="16.032" y="1.67" class="f">customers</text></symbol><symbol id="6"><text y="1.67" class="f">echo</text><text x="5.01" y="1.67" class="f">&apos;{&quot;name&quot;:&quot;florent&quot;,&quot;username&quot;:&quot;florent@conduktor.io&quot;,&quot;password&quot;:&quot;kitesurf&quot;,&quot;visa&quot;:&quot;#888999XZ;&quot;,&quot;address&quot;:&quot;Dubai,</text><text x="118.236" y="1.67" class="f">UAE&quot;}&apos;</text><text x="125.25" y="1.67" class="f">|</text><text x="127.254" y="1.67" class="f">\</text></symbol><symbol id="a"><path fill="transparent" d="M0 0h140v12H0z"/></symbol><symbol id="b"><path fill="#6f7683" d="M0 0h1.102v2.171H0z"/></symbol></defs><path class="a" d="M0 0h140v23.881H0z"/><g style="animation-duration:1.377685s;animation-iteration-count:infinite;animation-name:i;animation-timing-function:steps(1,end)"><svg width="2380"><svg><use xlink:href="#a"/><use xlink:href="#b" x="-.004"/></svg><svg x="140"><use xlink:href="#a"/><use xlink:href="#b" x="-.004"/></svg><svg x="280"><use xlink:href="#a"/><use xlink:href="#b" x="39.996"/><text y="1.67" class="f">echo</text><text x="5.01" y="1.67" class="f">&apos;{&quot;name&quot;:&quot;tom&quot;,&quot;username&quot;:&quot;tom@cond</text></svg><svg x="420"><use xlink:href="#a"/><use xlink:href="#b" x="79.996"/><text y="1.67" class="f">echo</text><text x="5.01" y="1.67" class="f">&apos;{&quot;name&quot;:&quot;tom&quot;,&quot;username&quot;:&quot;tom@conduktor.io&quot;,&quot;password&quot;:&quot;motorhead&quot;,&quot;visa&quot;:</text></svg><svg x="560"><use xlink:href="#a"/><use xlink:href="#b" x="119.996"/><text y="1.67" class="f">echo</text><text x="5.01" y="1.67" class="f">&apos;{&quot;name&quot;:&quot;tom&quot;,&quot;username&quot;:&quot;tom@conduktor.io&quot;,&quot;password&quot;:&quot;motorhead&quot;,&quot;visa&quot;:&quot;#abc123&quot;,&quot;address&quot;:&quot;Chancery</text><text x="110.22" y="1.67" class="f">lane,</text><text x="116.232" y="1.67" class="f">Lond</text></svg><svg x="700"><use xlink:href="#a"/><use xlink:href="#b" x=".996" y="4.317"/><use xlink:href="#1"/><use xlink:href="#2" y="2.171"/></svg><svg x="840"><use xlink:href="#a"/><use xlink:href="#b" x="40.996" y="4.317"/><use xlink:href="#1"/><use xlink:href="#2" y="2.171"/><text x="8.016" y="6.012" class="f">--bootstrap-server</text><text x="27.054" y="6.012" class="f">localhost:6969</text></svg><svg x="980"><use xlink:href="#a"/><use xlink:href="#b" x="36.996" y="6.488"/><use xlink:href="#1"/><use xlink:href="#2" y="2.171"/><use xlink:href="#3" y="4.342"/><text x="8.016" y="8.183" class="f">--producer.config</text><text x="26.052" y="8.183" class="f">teamA-sa.pr</text></svg><svg x="1120"><use xlink:href="#a"/><use xlink:href="#b" x="1.996" y="13.001"/><use xlink:href="#1"/><use xlink:href="#2" y="2.171"/><use xlink:href="#3" y="4.342"/><use xlink:href="#4" y="6.513"/><use xlink:href="#5" y="8.684"/><text y="14.696" class="f">ec</text></svg><svg x="1260"><use xlink:href="#a"/><use xlink:href="#b" x="41.996" y="13.001"/><use xlink:href="#1"/><use xlink:href="#2" y="2.171"/><use xlink:href="#3" y="4.342"/><use xlink:href="#4" y="6.513"/><use xlink:href="#5" y="8.684"/><text y="14.696" class="f">echo</text><text x="5.01" y="14.696" class="f">&apos;{&quot;name&quot;:&quot;florent&quot;,&quot;username&quot;:&quot;floren</text></svg><svg x="1400"><use xlink:href="#a"/><use xlink:href="#b" x="81.996" y="13.001"/><use xlink:href="#1"/><use xlink:href="#2" y="2.171"/><use xlink:href="#3" y="4.342"/><use xlink:href="#4" y="6.513"/><use xlink:href="#5" y="8.684"/><text y="14.696" class="f">echo</text><text x="5.01" y="14.696" class="f">&apos;{&quot;name&quot;:&quot;florent&quot;,&quot;username&quot;:&quot;florent@conduktor.io&quot;,&quot;password&quot;:&quot;kitesurf&quot;,&quot;v</text></svg><svg x="1540"><use xlink:href="#a"/><use xlink:href="#b" x="121.996" y="13.001"/><use xlink:href="#1"/><use xlink:href="#2" y="2.171"/><use xlink:href="#3" y="4.342"/><use xlink:href="#4" y="6.513"/><use xlink:href="#5" y="8.684"/><text y="14.696" class="f">echo</text><text x="5.01" y="14.696" class="f">&apos;{&quot;name&quot;:&quot;florent&quot;,&quot;username&quot;:&quot;florent@conduktor.io&quot;,&quot;password&quot;:&quot;kitesurf&quot;,&quot;visa&quot;:&quot;#888999XZ;&quot;,&quot;address&quot;:&quot;Dubai,</text><text x="118.236" y="14.696" class="f">UAE&quot;</text></svg><svg x="1680"><use xlink:href="#a"/><use xlink:href="#b" x="3.996" y="17.343"/><use xlink:href="#1"/><use xlink:href="#2" y="2.171"/><use xlink:href="#3" y="4.342"/><use xlink:href="#4" y="6.513"/><use xlink:href="#5" y="8.684"/><use xlink:href="#6" y="13.026"/><use xlink:href="#2" y="15.197"/></svg><svg x="1820"><use xlink:href="#a"/><use xlink:href="#b" x="-.004" y="19.514"/><use xlink:href="#1"/><use xlink:href="#2" y="2.171"/><use xlink:href="#3" y="4.342"/><use xlink:href="#4" y="6.513"/><use xlink:href="#5" y="8.684"/><use xlink:href="#6" y="13.026"/><use xlink:href="#2" y="15.197"/><use xlink:href="#3" y="17.368"/></svg><svg x="1960"><use xlink:href="#a"/><use xlink:href="#b" x="39.996" y="19.514"/><use xlink:href="#1"/><use xlink:href="#2" y="2.171"/><use xlink:href="#3" y="4.342"/><use xlink:href="#4" y="6.513"/><use xlink:href="#5" y="8.684"/><use xlink:href="#6" y="13.026"/><use xlink:href="#2" y="15.197"/><use xlink:href="#3" y="17.368"/><text x="8.016" y="21.209" class="f">--producer.config</text><text x="26.052" y="21.209" class="f">teamA-sa.prope</text></svg><svg x="2100"><use xlink:href="#a"/><use xlink:href="#b" x="24.996" y="21.685"/><use xlink:href="#1"/><use xlink:href="#2" y="2.171"/><use xlink:href="#3" y="4.342"/><use xlink:href="#4" y="6.513"/><use xlink:href="#5" y="8.684"/><use xlink:href="#6" y="13.026"/><use xlink:href="#2" y="15.197"/><use xlink:href="#3" y="17.368"/><use xlink:href="#4" y="19.539"/><use xlink:href="#5" y="21.71"/></svg><svg x="2240"><use xlink:href="#a"/><use xlink:href="#b" x="-.004" y="23.856"/><use xlink:href="#1"/><use xlink:href="#2" y="2.171"/><use xlink:href="#3" y="4.342"/><use xlink:href="#4" y="6.513"/><use xlink:href="#5" y="8.684"/><use xlink:href="#6" y="13.026"/><use xlink:href="#2" y="15.197"/><use xlink:href="#3" y="17.368"/><use xlink:href="#4" y="19.539"/><use xlink:href="#5" y="21.71"/></svg></svg></g></g></svg></svg>