<svg xmlns="http://www.w3.org/2000/svg" xmlns:xlink="http://www.w3.org/1999/xlink" width="1440" height="255.39"><rect width="1440" height="255.39" rx="5" ry="5" class="a"/><svg y="0%" x="0%"><circle cx="20" cy="20" r="6" fill="#ff5f58"/><circle cx="40" cy="20" r="6" fill="#ffbd2e"/><circle cx="60" cy="20" r="6" fill="#18c132"/></svg><svg height="195.39" viewBox="0 0 140 19.539" width="1400" x="15" xmlns="http://www.w3.org/2000/svg" xmlns:xlink="http://www.w3.org/1999/xlink" y="50"><style>@keyframes j{0%{transform:translateX(0)}.2%{transform:translateX(-140px)}.3%{transform:translateX(-280px)}4.7%{transform:translateX(-420px)}6.9%{transform:translateX(-560px)}9.1%{transform:translateX(-700px)}11.3%{transform:translateX(-840px)}13.5%{transform:translateX(-980px)}15.7%{transform:translateX(-1120px)}17.8%{transform:translateX(-1260px)}20%{transform:translateX(-1400px)}22.4%{transform:translateX(-1540px)}24.5%{transform:translateX(-1680px)}26.6%{transform:translateX(-1820px)}28.8%{transform:translateX(-1960px)}31%{transform:translateX(-2100px)}33.2%{transform:translateX(-2240px)}37.5%{transform:translateX(-2380px)}39.6%{transform:translateX(-2520px)}41.8%{transform:translateX(-2660px)}44.2%{transform:translateX(-2800px)}46.7%{transform:translateX(-2940px)}49%{transform:translateX(-3080px)}51.1%{transform:translateX(-3220px)}53.3%{transform:translateX(-3500px)}to{transform:translateX(-3780px)}}.a{fill:#282d35}.f,.g{fill:#fff;white-space:pre}.g{fill:#b9c0cb}</style><g font-family="Monaco,Consolas,Menlo,'Bitstream Vera Sans Mono','Powerline Symbols',monospace" font-size="1.67"><defs><symbol id="1"><text y="1.67" class="f">echo</text><text x="5.01" y="1.67" class="f">&apos;{&quot;msg&quot;:&quot;I</text><text x="16.032" y="1.67" class="f">would</text><text x="22.044" y="1.67" class="f">be</text><text x="25.05" y="1.67" class="f">surprised</text><text x="35.07" y="1.67" class="f">if</text><text x="38.076" y="1.67" class="f">it</text><text x="41.082" y="1.67" class="f">would</text><text x="47.094" y="1.67" class="f">work!&quot;}&apos;</text><text x="56.112" y="1.67" class="f">|</text><text x="58.116" y="1.67" class="f">\</text></symbol><symbol id="2"><text x="4.008" y="1.67" class="f">kafka-console-producer</text><text x="27.054" y="1.67" class="f">\</text></symbol><symbol id="3"><text x="8.016" y="1.67" class="f">--bootstrap-server</text><text x="27.054" y="1.67" class="f">localhost:6969</text><text x="42.084" y="1.67" class="f">\</text></symbol><symbol id="4"><text x="8.016" y="1.67" class="f">--producer.config</text><text x="26.052" y="1.67" class="f">aclCluster-consumer.properties</text><text x="57.114" y="1.67" class="f">\</text></symbol><symbol id="5"><text x="8.016" y="1.67" class="f">--topic</text><text x="16.032" y="1.67" class="f">restricted-topic</text></symbol><symbol id="6"><text y="1.67" class="g">[2024-01-22</text><text x="12.024" y="1.67" class="g">17:26:43,233]</text><text x="26.052" y="1.67" class="g">ERROR</text><text x="32.064" y="1.67" class="g">[Producer</text><text x="42.084" y="1.67" class="g">clientId=console-producer]</text><text x="69.138" y="1.67" class="g">Aborting</text><text x="78.156" y="1.67" class="g">producer</text><text x="87.174" y="1.67" class="g">batches</text><text x="95.19" y="1.67" class="g">due</text><text x="99.198" y="1.67" class="g">to</text><text x="102.204" y="1.67" class="g">fatal</text><text x="108.216" y="1.67" class="g">error</text><text x="114.228" y="1.67" class="g">(org.apache.kafka.clients.</text></symbol><symbol id="7"><text y="1.67" class="g">producer.internals.Sender)</text></symbol><symbol id="8"><text y="1.67" class="g">org.apache.kafka.common.errors.TransactionalIdAuthorizationException:</text><text x="70.14" y="1.67" class="g">Transactional</text><text x="84.168" y="1.67" class="g">Id</text><text x="87.174" y="1.67" class="g">authorization</text><text x="101.202" y="1.67" class="g">failed.</text></symbol><symbol id="a"><path fill="transparent" d="M0 0h140v10H0z"/></symbol><symbol id="b"><path fill="#6f7683" d="M0 0h1.102v2.171H0z"/></symbol></defs><path class="a" d="M0 0h140v19.539H0z"/><g style="animation-duration:4.281045s;animation-iteration-count:infinite;animation-name:j;animation-timing-function:steps(1,end)"><svg width="3920"><svg><use xlink:href="#a"/><use xlink:href="#b" x="-.004"/></svg><svg x="140"><use xlink:href="#a"/><use xlink:href="#b" x="-.004"/></svg><svg x="280"><use xlink:href="#a"/><use xlink:href="#b" x="9.996"/><text y="1.67" class="f">echo</text><text x="5.01" y="1.67" class="f">&apos;{&quot;ms</text></svg><svg x="420"><use xlink:href="#a"/><use xlink:href="#b" x="19.996"/><text y="1.67" class="f">echo</text><text x="5.01" y="1.67" class="f">&apos;{&quot;msg&quot;:&quot;I</text><text x="16.032" y="1.67" class="f">woul</text></svg><svg x="560"><use xlink:href="#a"/><use xlink:href="#b" x="29.996"/><text y="1.67" class="f">echo</text><text x="5.01" y="1.67" class="f">&apos;{&quot;msg&quot;:&quot;I</text><text x="16.032" y="1.67" class="f">would</text><text x="22.044" y="1.67" class="f">be</text><text x="25.05" y="1.67" class="f">surpr</text></svg><svg x="700"><use xlink:href="#a"/><use xlink:href="#b" x="39.996"/><text y="1.67" class="f">echo</text><text x="5.01" y="1.67" class="f">&apos;{&quot;msg&quot;:&quot;I</text><text x="16.032" y="1.67" class="f">would</text><text x="22.044" y="1.67" class="f">be</text><text x="25.05" y="1.67" class="f">surprised</text><text x="35.07" y="1.67" class="f">if</text><text x="38.076" y="1.67" class="f">it</text></svg><svg x="840"><use xlink:href="#a"/><use xlink:href="#b" x="49.996"/><text y="1.67" class="f">echo</text><text x="5.01" y="1.67" class="f">&apos;{&quot;msg&quot;:&quot;I</text><text x="16.032" y="1.67" class="f">would</text><text x="22.044" y="1.67" class="f">be</text><text x="25.05" y="1.67" class="f">surprised</text><text x="35.07" y="1.67" class="f">if</text><text x="38.076" y="1.67" class="f">it</text><text x="41.082" y="1.67" class="f">would</text><text x="47.094" y="1.67" class="f">wor</text></svg><svg x="980"><use xlink:href="#a"/><use xlink:href="#b" x="-.004" y="2.146"/><use xlink:href="#1"/></svg><svg x="1120"><use xlink:href="#a"/><use xlink:href="#b" x="9.996" y="2.146"/><use xlink:href="#1"/><text x="4.008" y="3.841" class="f">kafka-</text></svg><svg x="1260"><use xlink:href="#a"/><use xlink:href="#b" x="19.996" y="2.146"/><use xlink:href="#1"/><text x="4.008" y="3.841" class="f">kafka-console-pr</text></svg><svg x="1400"><use xlink:href="#a"/><use xlink:href="#b" x=".996" y="4.317"/><use xlink:href="#1"/><use xlink:href="#2" y="2.171"/></svg><svg x="1540"><use xlink:href="#a"/><use xlink:href="#b" x="10.996" y="4.317"/><use xlink:href="#1"/><use xlink:href="#2" y="2.171"/><text x="8.016" y="6.012" class="f">--b</text></svg><svg x="1680"><use xlink:href="#a"/><use xlink:href="#b" x="20.996" y="4.317"/><use xlink:href="#1"/><use xlink:href="#2" y="2.171"/><text x="8.016" y="6.012" class="f">--bootstrap-s</text></svg><svg x="1820"><use xlink:href="#a"/><use xlink:href="#b" x="30.996" y="4.317"/><use xlink:href="#1"/><use xlink:href="#2" y="2.171"/><text x="8.016" y="6.012" class="f">--bootstrap-server</text><text x="27.054" y="6.012" class="f">loca</text></svg><svg x="1960"><use xlink:href="#a"/><use xlink:href="#b" x="40.996" y="4.317"/><use xlink:href="#1"/><use xlink:href="#2" y="2.171"/><text x="8.016" y="6.012" class="f">--bootstrap-server</text><text x="27.054" y="6.012" class="f">localhost:6969</text></svg><svg x="2100"><use xlink:href="#a"/><use xlink:href="#b" x="6.996" y="6.488"/><use xlink:href="#1"/><use xlink:href="#2" y="2.171"/><use xlink:href="#3" y="4.342"/></svg><svg x="2240"><use xlink:href="#a"/><use xlink:href="#b" x="16.996" y="6.488"/><use xlink:href="#1"/><use xlink:href="#2" y="2.171"/><use xlink:href="#3" y="4.342"/><text x="8.016" y="8.183" class="f">--produce</text></svg><svg x="2380"><use xlink:href="#a"/><use xlink:href="#b" x="26.996" y="6.488"/><use xlink:href="#1"/><use xlink:href="#2" y="2.171"/><use xlink:href="#3" y="4.342"/><text x="8.016" y="8.183" class="f">--producer.config</text><text x="26.052" y="8.183" class="f">a</text></svg><svg x="2520"><use xlink:href="#a"/><use xlink:href="#b" x="36.996" y="6.488"/><use xlink:href="#1"/><use xlink:href="#2" y="2.171"/><use xlink:href="#3" y="4.342"/><text x="8.016" y="8.183" class="f">--producer.config</text><text x="26.052" y="8.183" class="f">aclCluster-</text></svg><svg x="2660"><use xlink:href="#a"/><use xlink:href="#b" x="46.996" y="6.488"/><use xlink:href="#1"/><use xlink:href="#2" y="2.171"/><use xlink:href="#3" y="4.342"/><text x="8.016" y="8.183" class="f">--producer.config</text><text x="26.052" y="8.183" class="f">aclCluster-consumer.p</text></svg><svg x="2800"><use xlink:href="#a"/><use xlink:href="#b" x="56.996" y="6.488"/><use xlink:href="#1"/><use xlink:href="#2" y="2.171"/><use xlink:href="#3" y="4.342"/><text x="8.016" y="8.183" class="f">--producer.config</text><text x="26.052" y="8.183" class="f">aclCluster-consumer.properties</text></svg><svg x="2940"><use xlink:href="#a"/><use xlink:href="#b" x="7.996" y="8.659"/><use xlink:href="#1"/><use xlink:href="#2" y="2.171"/><use xlink:href="#3" y="4.342"/><use xlink:href="#4" y="6.513"/></svg><svg x="3080"><use xlink:href="#a"/><use xlink:href="#b" x="17.996" y="8.659"/><use xlink:href="#1"/><use xlink:href="#2" y="2.171"/><use xlink:href="#3" y="4.342"/><use xlink:href="#4" y="6.513"/><text x="8.016" y="10.354" class="f">--topic</text><text x="16.032" y="10.354" class="f">re</text></svg><svg x="3220"><use xlink:href="#a"/><use xlink:href="#b" x="27.996" y="8.659"/><use xlink:href="#1"/><use xlink:href="#2" y="2.171"/><use xlink:href="#3" y="4.342"/><use xlink:href="#4" y="6.513"/><text x="8.016" y="10.354" class="f">--topic</text><text x="16.032" y="10.354" class="f">restricted-t</text></svg><svg x="3360"><use xlink:href="#a"/><use xlink:href="#b" x="31.996" y="8.659"/><use xlink:href="#1"/><use xlink:href="#2" y="2.171"/><use xlink:href="#3" y="4.342"/><use xlink:href="#4" y="6.513"/><use xlink:href="#5" y="8.684"/></svg><svg x="3500"><use xlink:href="#a"/><use xlink:href="#b" x="-.004" y="10.83"/><use xlink:href="#1"/><use xlink:href="#2" y="2.171"/><use xlink:href="#3" y="4.342"/><use xlink:href="#4" y="6.513"/><use xlink:href="#5" y="8.684"/></svg><svg x="3640"><use xlink:href="#a"/><use xlink:href="#b" x="-.004" y="17.343"/><use xlink:href="#1"/><use xlink:href="#2" y="2.171"/><use xlink:href="#3" y="4.342"/><use xlink:href="#4" y="6.513"/><use xlink:href="#5" y="8.684"/><use xlink:href="#6" y="10.855"/><use xlink:href="#7" y="13.026"/><use xlink:href="#8" y="15.197"/></svg><svg x="3780"><use xlink:href="#a"/><use xlink:href="#b" x="-.004" y="19.514"/><use xlink:href="#3"/><use xlink:href="#4" y="2.171"/><use xlink:href="#5" y="4.342"/><use xlink:href="#6" y="6.513"/><use xlink:href="#7" y="8.684"/><use xlink:href="#8" y="10.855"/><text y="14.696" class="g">[2024-01-22</text><text x="12.024" y="14.696" class="g">17:26:43,234]</text><text x="26.052" y="14.696" class="g">ERROR</text><text x="32.064" y="14.696" class="g">Error</text><text x="38.076" y="14.696" class="g">when</text><text x="43.086" y="14.696" class="g">sending</text><text x="51.102" y="14.696" class="g">message</text><text x="59.118" y="14.696" class="g">to</text><text x="62.124" y="14.696" class="g">topic</text><text x="68.136" y="14.696" class="g">restricted-topic</text><text x="85.17" y="14.696" class="g">with</text><text x="90.18" y="14.696" class="g">key:</text><text x="95.19" y="14.696" class="g">null,</text><text x="101.202" y="14.696" class="g">value:</text><text x="108.216" y="14.696" class="g">48</text><text x="111.222" y="14.696" class="g">bytes</text><text x="117.234" y="14.696" class="g">with</text><text x="122.244" y="14.696" class="g">error:</text><text x="129.258" y="14.696" class="g">(org.apache</text><text y="16.867" class="g">.kafka.clients.producer.internals.ErrorLoggingCallback)</text><use xlink:href="#8" y="17.368"/></svg></svg></g></g></svg></svg>