<svg xmlns="http://www.w3.org/2000/svg" xmlns:xlink="http://www.w3.org/1999/xlink" width="1440" height="342.23"><rect width="1440" height="342.23" rx="5" ry="5" class="a"/><svg y="0%" x="0%"><circle cx="20" cy="20" r="6" fill="#ff5f58"/><circle cx="40" cy="20" r="6" fill="#ffbd2e"/><circle cx="60" cy="20" r="6" fill="#18c132"/></svg><svg height="282.23" viewBox="0 0 140 28.223" width="1400" x="15" xmlns="http://www.w3.org/2000/svg" xmlns:xlink="http://www.w3.org/1999/xlink" y="50"><style>@keyframes j{0%{transform:translateX(0)}.4%{transform:translateX(-140px)}.5%{transform:translateX(-280px)}6.2%{transform:translateX(-420px)}9%{transform:translateX(-560px)}11.7%{transform:translateX(-700px)}14.5%{transform:translateX(-840px)}17.4%{transform:translateX(-980px)}20.3%{transform:translateX(-1120px)}23.2%{transform:translateX(-1260px)}26%{transform:translateX(-1400px)}28.8%{transform:translateX(-1540px)}31.7%{transform:translateX(-1680px)}34.4%{transform:translateX(-1820px)}37.3%{transform:translateX(-1960px)}40.1%{transform:translateX(-2100px)}45.9%{transform:translateX(-2240px)}48.9%{transform:translateX(-2380px)}51.7%{transform:translateX(-2520px)}54.6%{transform:translateX(-2660px)}57.5%{transform:translateX(-2800px)}60.4%{transform:translateX(-2940px)}60.5%{transform:translateX(-3080px)}91.1%{transform:translateX(-3220px)}to{transform:translateX(-3360px)}}.a{fill:#282d35}.f,.g{fill:#fff;white-space:pre}.g{fill:#b9c0cb}</style><g font-family="Monaco,Consolas,Menlo,'Bitstream Vera Sans Mono','Powerline Symbols',monospace" font-size="1.67"><defs><symbol id="1"><text y="1.67" class="f">kafka-acls</text><text x="11.022" y="1.67" class="f">\</text></symbol><symbol id="2"><text x="2.004" y="1.67" class="f">--bootstrap-server</text><text x="21.042" y="1.67" class="f">localhost:6969</text><text x="36.072" y="1.67" class="f">\</text></symbol><symbol id="3"><text x="2.004" y="1.67" class="f">--command-config</text><text x="19.038" y="1.67" class="f">aclCluster-admin.properties</text><text x="47.094" y="1.67" class="f">\</text></symbol><symbol id="4"><text x="2.004" y="1.67" class="f">--add</text><text x="8.016" y="1.67" class="f">\</text></symbol><symbol id="5"><text x="2.004" y="1.67" class="f">--allow-principal</text><text x="20.04" y="1.67" class="f">User:consumer</text><text x="34.068" y="1.67" class="f">\</text></symbol><symbol id="6"><text x="2.004" y="1.67" class="f">--operation</text><text x="14.028" y="1.67" class="f">read</text><text x="19.038" y="1.67" class="f">\</text></symbol><symbol id="7"><text x="2.004" y="1.67" class="f">--topic</text><text x="10.02" y="1.67" class="f">restricted-topic</text></symbol><symbol id="8"><text y="1.67" class="g">Adding</text><text x="7.014" y="1.67" class="g">ACLs</text><text x="12.024" y="1.67" class="g">for</text><text x="16.032" y="1.67" class="g">resource</text><text x="25.05" y="1.67" class="g">`ResourcePattern(resourceType=TOPIC,</text><text x="62.124" y="1.67" class="g">name=restricted-topic,</text><text x="85.17" y="1.67" class="g">patternType=LITERAL)`:</text></symbol><symbol id="9"><text x="8.016" y="1.67" class="g">(principal=User:consumer,</text><text x="34.068" y="1.67" class="g">host=*,</text><text x="42.084" y="1.67" class="g">operation=READ,</text><text x="58.116" y="1.67" class="g">permissionType=ALLOW)</text></symbol><symbol id="a"><path fill="transparent" d="M0 0h140v14H0z"/></symbol><symbol id="b"><path fill="#6f7683" d="M0 0h1.102v2.171H0z"/></symbol></defs><path class="a" d="M0 0h140v28.223H0z"/><g style="animation-duration:3.287477s;animation-iteration-count:infinite;animation-name:j;animation-timing-function:steps(1,end)"><svg width="3500"><svg><use xlink:href="#a"/><use xlink:href="#b" x="-.004"/></svg><svg x="140"><use xlink:href="#a"/><use xlink:href="#b" x="-.004"/></svg><svg x="280"><use xlink:href="#a"/><use xlink:href="#b" x="9.996"/><text y="1.67" class="f">kafka-acls</text></svg><svg x="420"><use xlink:href="#a"/><use xlink:href="#b" x="6.996" y="2.146"/><use xlink:href="#1"/><text x="2.004" y="3.841" class="f">--boo</text></svg><svg x="560"><use xlink:href="#a"/><use xlink:href="#b" x="16.996" y="2.146"/><use xlink:href="#1"/><text x="2.004" y="3.841" class="f">--bootstrap-ser</text></svg><svg x="700"><use xlink:href="#a"/><use xlink:href="#b" x="26.996" y="2.146"/><use xlink:href="#1"/><text x="2.004" y="3.841" class="f">--bootstrap-server</text><text x="21.042" y="3.841" class="f">localh</text></svg><svg x="840"><use xlink:href="#a"/><use xlink:href="#b" x="36.996" y="2.146"/><use xlink:href="#1"/><use xlink:href="#2" y="2.171"/></svg><svg x="980"><use xlink:href="#a"/><use xlink:href="#b" x="8.996" y="4.317"/><use xlink:href="#1"/><use xlink:href="#2" y="2.171"/><text x="2.004" y="6.012" class="f">--comma</text></svg><svg x="1120"><use xlink:href="#a"/><use xlink:href="#b" x="18.996" y="4.317"/><use xlink:href="#1"/><use xlink:href="#2" y="2.171"/><text x="2.004" y="6.012" class="f">--command-config</text></svg><svg x="1260"><use xlink:href="#a"/><use xlink:href="#b" x="28.996" y="4.317"/><use xlink:href="#1"/><use xlink:href="#2" y="2.171"/><text x="2.004" y="6.012" class="f">--command-config</text><text x="19.038" y="6.012" class="f">aclCluster</text></svg><svg x="1400"><use xlink:href="#a"/><use xlink:href="#b" x="38.996" y="4.317"/><use xlink:href="#1"/><use xlink:href="#2" y="2.171"/><text x="2.004" y="6.012" class="f">--command-config</text><text x="19.038" y="6.012" class="f">aclCluster-admin.pro</text></svg><svg x="1540"><use xlink:href="#a"/><use xlink:href="#b" x="-.004" y="6.488"/><use xlink:href="#1"/><use xlink:href="#2" y="2.171"/><use xlink:href="#3" y="4.342"/></svg><svg x="1680"><use xlink:href="#a"/><use xlink:href="#b" x="-.004" y="8.659"/><use xlink:href="#1"/><use xlink:href="#2" y="2.171"/><use xlink:href="#3" y="4.342"/><use xlink:href="#4" y="6.513"/></svg><svg x="1820"><use xlink:href="#a"/><use xlink:href="#b" x="9.996" y="8.659"/><use xlink:href="#1"/><use xlink:href="#2" y="2.171"/><use xlink:href="#3" y="4.342"/><use xlink:href="#4" y="6.513"/><text x="2.004" y="10.354" class="f">--allow-</text></svg><svg x="1960"><use xlink:href="#a"/><use xlink:href="#b" x="19.996" y="8.659"/><use xlink:href="#1"/><use xlink:href="#2" y="2.171"/><use xlink:href="#3" y="4.342"/><use xlink:href="#4" y="6.513"/><text x="2.004" y="10.354" class="f">--allow-principal</text></svg><svg x="2100"><use xlink:href="#a"/><use xlink:href="#b" x="29.996" y="8.659"/><use xlink:href="#1"/><use xlink:href="#2" y="2.171"/><use xlink:href="#3" y="4.342"/><use xlink:href="#4" y="6.513"/><text x="2.004" y="10.354" class="f">--allow-principal</text><text x="20.04" y="10.354" class="f">User:consu</text></svg><svg x="2240"><use xlink:href="#a"/><use xlink:href="#b" x="3.996" y="10.83"/><use xlink:href="#1"/><use xlink:href="#2" y="2.171"/><use xlink:href="#3" y="4.342"/><use xlink:href="#4" y="6.513"/><use xlink:href="#5" y="8.684"/><text x="2.004" y="12.525" class="f">--</text></svg><svg x="2380"><use xlink:href="#a"/><use xlink:href="#b" x="13.996" y="10.83"/><use xlink:href="#1"/><use xlink:href="#2" y="2.171"/><use xlink:href="#3" y="4.342"/><use xlink:href="#4" y="6.513"/><use xlink:href="#5" y="8.684"/><text x="2.004" y="12.525" class="f">--operation</text></svg><svg x="2520"><use xlink:href="#a"/><use xlink:href="#b" x="2.996" y="13.001"/><use xlink:href="#1"/><use xlink:href="#2" y="2.171"/><use xlink:href="#3" y="4.342"/><use xlink:href="#4" y="6.513"/><use xlink:href="#5" y="8.684"/><use xlink:href="#6" y="10.855"/><text x="2.004" y="14.696" class="f">-</text></svg><svg x="2660"><use xlink:href="#a"/><use xlink:href="#b" x="12.996" y="13.001"/><use xlink:href="#1"/><use xlink:href="#2" y="2.171"/><use xlink:href="#3" y="4.342"/><use xlink:href="#4" y="6.513"/><use xlink:href="#5" y="8.684"/><use xlink:href="#6" y="10.855"/><text x="2.004" y="14.696" class="f">--topic</text><text x="10.02" y="14.696" class="f">res</text></svg><svg x="2800"><use xlink:href="#a"/><use xlink:href="#b" x="22.996" y="13.001"/><use xlink:href="#1"/><use xlink:href="#2" y="2.171"/><use xlink:href="#3" y="4.342"/><use xlink:href="#4" y="6.513"/><use xlink:href="#5" y="8.684"/><use xlink:href="#6" y="10.855"/><text x="2.004" y="14.696" class="f">--topic</text><text x="10.02" y="14.696" class="f">restricted-to</text></svg><svg x="2940"><use xlink:href="#a"/><use xlink:href="#b" x="25.996" y="13.001"/><use xlink:href="#1"/><use xlink:href="#2" y="2.171"/><use xlink:href="#3" y="4.342"/><use xlink:href="#4" y="6.513"/><use xlink:href="#5" y="8.684"/><use xlink:href="#6" y="10.855"/><use xlink:href="#7" y="13.026"/></svg><svg x="3080"><use xlink:href="#a"/><use xlink:href="#b" x="-.004" y="15.172"/><use xlink:href="#1"/><use xlink:href="#2" y="2.171"/><use xlink:href="#3" y="4.342"/><use xlink:href="#4" y="6.513"/><use xlink:href="#5" y="8.684"/><use xlink:href="#6" y="10.855"/><use xlink:href="#7" y="13.026"/></svg><svg x="3220"><use xlink:href="#a"/><use xlink:href="#b" x="-.004" y="21.685"/><use xlink:href="#1"/><use xlink:href="#2" y="2.171"/><use xlink:href="#3" y="4.342"/><use xlink:href="#4" y="6.513"/><use xlink:href="#5" y="8.684"/><use xlink:href="#6" y="10.855"/><use xlink:href="#7" y="13.026"/><use xlink:href="#8" y="15.197"/><use xlink:href="#9" y="17.368"/></svg><svg x="3360"><use xlink:href="#a"/><use xlink:href="#b" x="-.004" y="28.198"/><use xlink:href="#1"/><use xlink:href="#2" y="2.171"/><use xlink:href="#3" y="4.342"/><use xlink:href="#4" y="6.513"/><use xlink:href="#5" y="8.684"/><use xlink:href="#6" y="10.855"/><use xlink:href="#7" y="13.026"/><use xlink:href="#8" y="15.197"/><use xlink:href="#9" y="17.368"/><text y="23.38" class="g">Current</text><text x="8.016" y="23.38" class="g">ACLs</text><text x="13.026" y="23.38" class="g">for</text><text x="17.034" y="23.38" class="g">resource</text><text x="26.052" y="23.38" class="g">`ResourcePattern(resourceType=TOPIC,</text><text x="63.126" y="23.38" class="g">name=restricted-topic,</text><text x="86.172" y="23.38" class="g">patternType=LITERAL)`:</text><use xlink:href="#9" y="23.881"/></svg></svg></g></g></svg></svg>