<svg xmlns="http://www.w3.org/2000/svg" xmlns:xlink="http://www.w3.org/1999/xlink" width="1440" height="277.1"><rect width="1440" height="277.1" rx="5" ry="5" class="a"/><svg y="0%" x="0%"><circle cx="20" cy="20" r="6" fill="#ff5f58"/><circle cx="40" cy="20" r="6" fill="#ffbd2e"/><circle cx="60" cy="20" r="6" fill="#18c132"/></svg><svg height="217.1" viewBox="0 0 140 21.71" width="1400" x="15" xmlns="http://www.w3.org/2000/svg" xmlns:xlink="http://www.w3.org/1999/xlink" y="50"><style>@keyframes i{0%{transform:translateX(0)}.5%{transform:translateX(-140px)}.6%{transform:translateX(-280px)}5.9%{transform:translateX(-420px)}8.6%{transform:translateX(-560px)}11.2%{transform:translateX(-700px)}14%{transform:translateX(-840px)}16.6%{transform:translateX(-980px)}19.2%{transform:translateX(-1120px)}21.9%{transform:translateX(-1260px)}24.6%{transform:translateX(-1400px)}27.7%{transform:translateX(-1540px)}30.4%{transform:translateX(-1680px)}33.1%{transform:translateX(-1820px)}35.9%{transform:translateX(-1960px)}38.9%{transform:translateX(-2100px)}41.6%{transform:translateX(-2240px)}44.4%{transform:translateX(-2380px)}47.1%{transform:translateX(-2520px)}52.5%{transform:translateX(-2660px)}55.4%{transform:translateX(-2800px)}58.1%{transform:translateX(-2940px)}60.8%{transform:translateX(-3080px)}63.6%{transform:translateX(-3360px)}to{transform:translateX(-3500px)}}.a{fill:#282d35}.f{fill:#fff}.f,.k,.m{white-space:pre}.k{fill:#b9bfca;font-weight:700}.m{fill:#a8cc8c}</style><g font-family="Monaco,Consolas,Menlo,'Bitstream Vera Sans Mono','Powerline Symbols',monospace" font-size="1.67"><defs><symbol id="1"><text y="1.67" class="f">curl</text><text x="5.01" y="1.67" class="f">\</text></symbol><symbol id="2"><text x="4.008" y="1.67" class="f">--silent</text><text x="13.026" y="1.67" class="f">\</text></symbol><symbol id="3"><text x="4.008" y="1.67" class="f">--request</text><text x="14.028" y="1.67" class="f">POST</text><text x="19.038" y="1.67" class="f">&quot;http://localhost:8888/admin/interceptors/v1/vcluster/teamA/interceptor/red-cars&quot;</text><text x="101.202" y="1.67" class="f">\</text></symbol><symbol id="4"><text x="4.008" y="1.67" class="f">--user</text><text x="11.022" y="1.67" class="f">&apos;admin:conduktor&apos;</text><text x="29.058" y="1.67" class="f">\</text></symbol><symbol id="5"><text x="4.008" y="1.67" class="f">--header</text><text x="13.026" y="1.67" class="f">&apos;Content-Type:</text><text x="28.056" y="1.67" class="f">application/json&apos;</text><text x="46.092" y="1.67" class="f">\</text></symbol><symbol id="6"><text x="4.008" y="1.67" class="f">--data-raw</text><text x="15.03" y="1.67" class="f">&apos;{&quot;pluginClass&quot;:&quot;io.conduktor.gateway.interceptor.VirtualSqlTopicPlugin&quot;,&quot;priority&quot;:100,&quot;config&quot;:{&quot;virtualTopic&quot;:&quot;red-cars&quot;,&quot;</text></symbol><symbol id="7"><text y="1.67" class="f">statement&quot;:&quot;SELECT</text><text x="19.038" y="1.67" class="f">type,</text><text x="25.05" y="1.67" class="f">price</text><text x="31.062" y="1.67" class="f">as</text><text x="34.068" y="1.67" class="f">money</text><text x="40.08" y="1.67" class="f">FROM</text><text x="45.09" y="1.67" class="f">cars</text><text x="50.1" y="1.67" class="f">WHERE</text><text x="56.112" y="1.67" class="f">color</text><text x="62.124" y="1.67" class="f">=</text><text x="64.128" y="1.67" class="f">&apos;red&apos;&quot;}}&apos;</text><text x="74.148" y="1.67" class="f">|</text><text x="76.152" y="1.67" class="f">jq</text></symbol><symbol id="a"><path fill="transparent" d="M0 0h140v11H0z"/></symbol><symbol id="b"><path fill="#6f7683" d="M0 0h1.102v2.171H0z"/></symbol></defs><path class="a" d="M0 0h140v21.71H0z"/><g style="animation-duration:3.44824s;animation-iteration-count:infinite;animation-name:i;animation-timing-function:steps(1,end)"><svg width="3640"><svg><use xlink:href="#a"/><use xlink:href="#b" x="-.004"/></svg><svg x="140"><use xlink:href="#a"/><use xlink:href="#b" x="-.004"/></svg><svg x="280"><use xlink:href="#a"/><use xlink:href="#b" x="12.996" y="2.146"/><use xlink:href="#1"/><text x="4.008" y="3.841" class="f">--silent</text></svg><svg x="420"><use xlink:href="#a"/><use xlink:href="#b" x="17.996" y="4.317"/><use xlink:href="#1"/><use xlink:href="#2" y="2.171"/><text x="4.008" y="6.012" class="f">--request</text><text x="14.028" y="6.012" class="f">POST</text></svg><svg x="560"><use xlink:href="#a"/><use xlink:href="#b" x="37.996" y="4.317"/><use xlink:href="#1"/><use xlink:href="#2" y="2.171"/><text x="4.008" y="6.012" class="f">--request</text><text x="14.028" y="6.012" class="f">POST</text><text x="19.038" y="6.012" class="f">&quot;http://localhost:8</text></svg><svg x="700"><use xlink:href="#a"/><use xlink:href="#b" x="57.996" y="4.317"/><use xlink:href="#1"/><use xlink:href="#2" y="2.171"/><text x="4.008" y="6.012" class="f">--request</text><text x="14.028" y="6.012" class="f">POST</text><text x="19.038" y="6.012" class="f">&quot;http://localhost:8888/admin/intercepto</text></svg><svg x="840"><use xlink:href="#a"/><use xlink:href="#b" x="77.996" y="4.317"/><use xlink:href="#1"/><use xlink:href="#2" y="2.171"/><text x="4.008" y="6.012" class="f">--request</text><text x="14.028" y="6.012" class="f">POST</text><text x="19.038" y="6.012" class="f">&quot;http://localhost:8888/admin/interceptors/v1/vcluster/teamA</text></svg><svg x="980"><use xlink:href="#a"/><use xlink:href="#b" x="97.996" y="4.317"/><use xlink:href="#1"/><use xlink:href="#2" y="2.171"/><text x="4.008" y="6.012" class="f">--request</text><text x="14.028" y="6.012" class="f">POST</text><text x="19.038" y="6.012" class="f">&quot;http://localhost:8888/admin/interceptors/v1/vcluster/teamA/interceptor/red-car</text></svg><svg x="1120"><use xlink:href="#a"/><use xlink:href="#b" x="14.996" y="6.488"/><use xlink:href="#1"/><use xlink:href="#2" y="2.171"/><use xlink:href="#3" y="4.342"/><text x="4.008" y="8.183" class="f">--user</text><text x="11.022" y="8.183" class="f">&apos;adm</text></svg><svg x="1260"><use xlink:href="#a"/><use xlink:href="#b" x="3.996" y="8.659"/><use xlink:href="#1"/><use xlink:href="#2" y="2.171"/><use xlink:href="#3" y="4.342"/><use xlink:href="#4" y="6.513"/></svg><svg x="1400"><use xlink:href="#a"/><use xlink:href="#b" x="23.996" y="8.659"/><use xlink:href="#1"/><use xlink:href="#2" y="2.171"/><use xlink:href="#3" y="4.342"/><use xlink:href="#4" y="6.513"/><text x="4.008" y="10.354" class="f">--header</text><text x="13.026" y="10.354" class="f">&apos;Content-Ty</text></svg><svg x="1540"><use xlink:href="#a"/><use xlink:href="#b" x="43.996" y="8.659"/><use xlink:href="#1"/><use xlink:href="#2" y="2.171"/><use xlink:href="#3" y="4.342"/><use xlink:href="#4" y="6.513"/><text x="4.008" y="10.354" class="f">--header</text><text x="13.026" y="10.354" class="f">&apos;Content-Type:</text><text x="28.056" y="10.354" class="f">application/json</text></svg><svg x="1680"><use xlink:href="#a"/><use xlink:href="#b" x="15.996" y="10.83"/><use xlink:href="#1"/><use xlink:href="#2" y="2.171"/><use xlink:href="#3" y="4.342"/><use xlink:href="#4" y="6.513"/><use xlink:href="#5" y="8.684"/><text x="4.008" y="12.525" class="f">--data-raw</text><text x="15.03" y="12.525" class="f">&apos;</text></svg><svg x="1820"><use xlink:href="#a"/><use xlink:href="#b" x="35.996" y="10.83"/><use xlink:href="#1"/><use xlink:href="#2" y="2.171"/><use xlink:href="#3" y="4.342"/><use xlink:href="#4" y="6.513"/><use xlink:href="#5" y="8.684"/><text x="4.008" y="12.525" class="f">--data-raw</text><text x="15.03" y="12.525" class="f">&apos;{&quot;pluginClass&quot;:&quot;io.c</text></svg><svg x="1960"><use xlink:href="#a"/><use xlink:href="#b" x="55.996" y="10.83"/><use xlink:href="#1"/><use xlink:href="#2" y="2.171"/><use xlink:href="#3" y="4.342"/><use xlink:href="#4" y="6.513"/><use xlink:href="#5" y="8.684"/><text x="4.008" y="12.525" class="f">--data-raw</text><text x="15.03" y="12.525" class="f">&apos;{&quot;pluginClass&quot;:&quot;io.conduktor.gateway.int</text></svg><svg x="2100"><use xlink:href="#a"/><use xlink:href="#b" x="75.996" y="10.83"/><use xlink:href="#1"/><use xlink:href="#2" y="2.171"/><use xlink:href="#3" y="4.342"/><use xlink:href="#4" y="6.513"/><use xlink:href="#5" y="8.684"/><text x="4.008" y="12.525" class="f">--data-raw</text><text x="15.03" y="12.525" class="f">&apos;{&quot;pluginClass&quot;:&quot;io.conduktor.gateway.interceptor.VirtualSqlT</text></svg><svg x="2240"><use xlink:href="#a"/><use xlink:href="#b" x="95.996" y="10.83"/><use xlink:href="#1"/><use xlink:href="#2" y="2.171"/><use xlink:href="#3" y="4.342"/><use xlink:href="#4" y="6.513"/><use xlink:href="#5" y="8.684"/><text x="4.008" y="12.525" class="f">--data-raw</text><text x="15.03" y="12.525" class="f">&apos;{&quot;pluginClass&quot;:&quot;io.conduktor.gateway.interceptor.VirtualSqlTopicPlugin&quot;,&quot;priorit</text></svg><svg x="2380"><use xlink:href="#a"/><use xlink:href="#b" x="115.996" y="10.83"/><use xlink:href="#1"/><use xlink:href="#2" y="2.171"/><use xlink:href="#3" y="4.342"/><use xlink:href="#4" y="6.513"/><use xlink:href="#5" y="8.684"/><text x="4.008" y="12.525" class="f">--data-raw</text><text x="15.03" y="12.525" class="f">&apos;{&quot;pluginClass&quot;:&quot;io.conduktor.gateway.interceptor.VirtualSqlTopicPlugin&quot;,&quot;priority&quot;:100,&quot;config&quot;:{&quot;vi</text></svg><svg x="2520"><use xlink:href="#a"/><use xlink:href="#b" x="135.996" y="10.83"/><use xlink:href="#1"/><use xlink:href="#2" y="2.171"/><use xlink:href="#3" y="4.342"/><use xlink:href="#4" y="6.513"/><use xlink:href="#5" y="8.684"/><text x="4.008" y="12.525" class="f">--data-raw</text><text x="15.03" y="12.525" class="f">&apos;{&quot;pluginClass&quot;:&quot;io.conduktor.gateway.interceptor.VirtualSqlTopicPlugin&quot;,&quot;priority&quot;:100,&quot;config&quot;:{&quot;virtualTopic&quot;:&quot;red-car</text></svg><svg x="2660"><use xlink:href="#a"/><use xlink:href="#b" x="15.996" y="13.001"/><use xlink:href="#1"/><use xlink:href="#2" y="2.171"/><use xlink:href="#3" y="4.342"/><use xlink:href="#4" y="6.513"/><use xlink:href="#5" y="8.684"/><use xlink:href="#6" y="10.855"/><text y="14.696" class="f">statement&quot;:&quot;SELE</text></svg><svg x="2800"><use xlink:href="#a"/><use xlink:href="#b" x="35.996" y="13.001"/><use xlink:href="#1"/><use xlink:href="#2" y="2.171"/><use xlink:href="#3" y="4.342"/><use xlink:href="#4" y="6.513"/><use xlink:href="#5" y="8.684"/><use xlink:href="#6" y="10.855"/><text y="14.696" class="f">statement&quot;:&quot;SELECT</text><text x="19.038" y="14.696" class="f">type,</text><text x="25.05" y="14.696" class="f">price</text><text x="31.062" y="14.696" class="f">as</text><text x="34.068" y="14.696" class="f">mo</text></svg><svg x="2940"><use xlink:href="#a"/><use xlink:href="#b" x="55.996" y="13.001"/><use xlink:href="#1"/><use xlink:href="#2" y="2.171"/><use xlink:href="#3" y="4.342"/><use xlink:href="#4" y="6.513"/><use xlink:href="#5" y="8.684"/><use xlink:href="#6" y="10.855"/><text y="14.696" class="f">statement&quot;:&quot;SELECT</text><text x="19.038" y="14.696" class="f">type,</text><text x="25.05" y="14.696" class="f">price</text><text x="31.062" y="14.696" class="f">as</text><text x="34.068" y="14.696" class="f">money</text><text x="40.08" y="14.696" class="f">FROM</text><text x="45.09" y="14.696" class="f">cars</text><text x="50.1" y="14.696" class="f">WHERE</text></svg><svg x="3080"><use xlink:href="#a"/><use xlink:href="#b" x="75.996" y="13.001"/><use xlink:href="#1"/><use xlink:href="#2" y="2.171"/><use xlink:href="#3" y="4.342"/><use xlink:href="#4" y="6.513"/><use xlink:href="#5" y="8.684"/><use xlink:href="#6" y="10.855"/><text y="14.696" class="f">statement&quot;:&quot;SELECT</text><text x="19.038" y="14.696" class="f">type,</text><text x="25.05" y="14.696" class="f">price</text><text x="31.062" y="14.696" class="f">as</text><text x="34.068" y="14.696" class="f">money</text><text x="40.08" y="14.696" class="f">FROM</text><text x="45.09" y="14.696" class="f">cars</text><text x="50.1" y="14.696" class="f">WHERE</text><text x="56.112" y="14.696" class="f">color</text><text x="62.124" y="14.696" class="f">=</text><text x="64.128" y="14.696" class="f">&apos;red&apos;&quot;}}&apos;</text><text x="74.148" y="14.696" class="f">|</text></svg><svg x="3220"><use xlink:href="#a"/><use xlink:href="#b" x="-.004" y="15.172"/><use xlink:href="#1"/><use xlink:href="#2" y="2.171"/><use xlink:href="#3" y="4.342"/><use xlink:href="#4" y="6.513"/><use xlink:href="#5" y="8.684"/><use xlink:href="#6" y="10.855"/><use xlink:href="#7" y="13.026"/></svg><svg x="3360"><use xlink:href="#a"/><use xlink:href="#b" x="-.004" y="17.343"/><use xlink:href="#1"/><use xlink:href="#2" y="2.171"/><use xlink:href="#3" y="4.342"/><use xlink:href="#4" y="6.513"/><use xlink:href="#5" y="8.684"/><use xlink:href="#6" y="10.855"/><use xlink:href="#7" y="13.026"/></svg><svg x="3500"><use xlink:href="#a"/><use xlink:href="#b" x="-.004" y="21.685"/><use xlink:href="#2"/><use xlink:href="#3" y="2.171"/><use xlink:href="#4" y="4.342"/><use xlink:href="#5" y="6.513"/><use xlink:href="#6" y="8.684"/><use xlink:href="#7" y="10.855"/><text y="16.867" class="k">{</text><text x="2.004" y="19.038" style="white-space:pre" fill="#71bef2" font-weight="700">&quot;message&quot;</text><text x="11.022" y="19.038" class="k">:</text><text x="13.026" y="19.038" class="m">&quot;red-cars</text><text x="23.046" y="19.038" class="m">is</text><text x="26.052" y="19.038" class="m">created&quot;</text><text y="21.209" class="k">}</text></svg></svg></g></g></svg></svg>