<svg xmlns="http://www.w3.org/2000/svg" xmlns:xlink="http://www.w3.org/1999/xlink" width="1440" height="298.81"><rect width="1440" height="298.81" rx="5" ry="5" class="a"/><svg y="0%" x="0%"><circle cx="20" cy="20" r="6" fill="#ff5f58"/><circle cx="40" cy="20" r="6" fill="#ffbd2e"/><circle cx="60" cy="20" r="6" fill="#18c132"/></svg><svg height="238.81" viewBox="0 0 140 23.881" width="1400" x="15" xmlns="http://www.w3.org/2000/svg" xmlns:xlink="http://www.w3.org/1999/xlink" y="50"><style>@keyframes i{0%{transform:translateX(0)}.9%{transform:translateX(-140px)}1%{transform:translateX(-280px)}10.2%{transform:translateX(-420px)}14.9%{transform:translateX(-560px)}19.8%{transform:translateX(-700px)}24.5%{transform:translateX(-840px)}29.2%{transform:translateX(-980px)}33.9%{transform:translateX(-1120px)}38.6%{transform:translateX(-1260px)}43.2%{transform:translateX(-1400px)}47.9%{transform:translateX(-1540px)}52.5%{transform:translateX(-1680px)}57.2%{transform:translateX(-1820px)}66.7%{transform:translateX(-1960px)}71.5%{transform:translateX(-2100px)}76.3%{transform:translateX(-2240px)}81.1%{transform:translateX(-2380px)}85.8%{transform:translateX(-2520px)}90.6%{transform:translateX(-2660px)}95.4%{transform:translateX(-2800px)}to{transform:translateX(-3080px)}}.a{fill:#282d35}.f{fill:#fff;white-space:pre}</style><g font-family="Monaco,Consolas,Menlo,'Bitstream Vera Sans Mono','Powerline Symbols',monospace" font-size="1.67"><defs><symbol id="1"><text y="1.67" class="f">echo</text><text x="5.01" y="1.67" class="f">&apos;{&quot;type&quot;:&quot;Sports&quot;,&quot;price&quot;:75,&quot;color&quot;:&quot;blue&quot;}&apos;</text><text x="51.102" y="1.67" class="f">|</text><text x="53.106" y="1.67" class="f">\</text></symbol><symbol id="2"><text x="4.008" y="1.67" class="f">kafka-console-producer</text><text x="27.054" y="1.67" class="f">\</text></symbol><symbol id="3"><text x="8.016" y="1.67" class="f">--bootstrap-server</text><text x="27.054" y="1.67" class="f">localhost:6969</text><text x="42.084" y="1.67" class="f">\</text></symbol><symbol id="4"><text x="8.016" y="1.67" class="f">--producer.config</text><text x="26.052" y="1.67" class="f">teamA-sa.properties</text><text x="46.092" y="1.67" class="f">\</text></symbol><symbol id="5"><text x="8.016" y="1.67" class="f">--topic</text><text x="16.032" y="1.67" class="f">cars</text></symbol><symbol id="6"><text y="1.67" class="f">echo</text><text x="5.01" y="1.67" class="f">&apos;{&quot;type&quot;:&quot;SUV&quot;,&quot;price&quot;:55,&quot;color&quot;:&quot;red&quot;}&apos;</text><text x="47.094" y="1.67" class="f">|</text><text x="49.098" y="1.67" class="f">\</text></symbol><symbol id="a"><path fill="transparent" d="M0 0h140v12H0z"/></symbol><symbol id="b"><path fill="#6f7683" d="M0 0h1.102v2.171H0z"/></symbol></defs><path class="a" d="M0 0h140v23.881H0z"/><g style="animation-duration:1.963821s;animation-iteration-count:infinite;animation-name:i;animation-timing-function:steps(1,end)"><svg width="3220"><svg><use xlink:href="#a"/><use xlink:href="#b" x="-.004"/></svg><svg x="140"><use xlink:href="#a"/><use xlink:href="#b" x="-.004"/></svg><svg x="280"><use xlink:href="#a"/><use xlink:href="#b" x="19.996"/><text y="1.67" class="f">echo</text><text x="5.01" y="1.67" class="f">&apos;{&quot;type&quot;:&quot;Sport</text></svg><svg x="420"><use xlink:href="#a"/><use xlink:href="#b" x="39.996"/><text y="1.67" class="f">echo</text><text x="5.01" y="1.67" class="f">&apos;{&quot;type&quot;:&quot;Sports&quot;,&quot;price&quot;:75,&quot;color</text></svg><svg x="560"><use xlink:href="#a"/><use xlink:href="#b" x="4.996" y="2.146"/><use xlink:href="#1"/><text x="4.008" y="3.841" class="f">k</text></svg><svg x="700"><use xlink:href="#a"/><use xlink:href="#b" x="24.996" y="2.146"/><use xlink:href="#1"/><text x="4.008" y="3.841" class="f">kafka-console-produce</text></svg><svg x="840"><use xlink:href="#a"/><use xlink:href="#b" x="15.996" y="4.317"/><use xlink:href="#1"/><use xlink:href="#2" y="2.171"/><text x="8.016" y="6.012" class="f">--bootst</text></svg><svg x="980"><use xlink:href="#a"/><use xlink:href="#b" x="35.996" y="4.317"/><use xlink:href="#1"/><use xlink:href="#2" y="2.171"/><text x="8.016" y="6.012" class="f">--bootstrap-server</text><text x="27.054" y="6.012" class="f">localhost</text></svg><svg x="1120"><use xlink:href="#a"/><use xlink:href="#b" x="11.996" y="6.488"/><use xlink:href="#1"/><use xlink:href="#2" y="2.171"/><use xlink:href="#3" y="4.342"/><text x="8.016" y="8.183" class="f">--pr</text></svg><svg x="1260"><use xlink:href="#a"/><use xlink:href="#b" x="31.996" y="6.488"/><use xlink:href="#1"/><use xlink:href="#2" y="2.171"/><use xlink:href="#3" y="4.342"/><text x="8.016" y="8.183" class="f">--producer.config</text><text x="26.052" y="8.183" class="f">teamA-</text></svg><svg x="1400"><use xlink:href="#a"/><use xlink:href="#b" x="3.996" y="8.659"/><use xlink:href="#1"/><use xlink:href="#2" y="2.171"/><use xlink:href="#3" y="4.342"/><use xlink:href="#4" y="6.513"/></svg><svg x="1540"><use xlink:href="#a"/><use xlink:href="#b" x="1.996" y="13.001"/><use xlink:href="#1"/><use xlink:href="#2" y="2.171"/><use xlink:href="#3" y="4.342"/><use xlink:href="#4" y="6.513"/><use xlink:href="#5" y="8.684"/><text y="14.696" class="f">ec</text></svg><svg x="1680"><use xlink:href="#a"/><use xlink:href="#b" x="21.996" y="13.001"/><use xlink:href="#1"/><use xlink:href="#2" y="2.171"/><use xlink:href="#3" y="4.342"/><use xlink:href="#4" y="6.513"/><use xlink:href="#5" y="8.684"/><text y="14.696" class="f">echo</text><text x="5.01" y="14.696" class="f">&apos;{&quot;type&quot;:&quot;SUV&quot;,&quot;p</text></svg><svg x="1820"><use xlink:href="#a"/><use xlink:href="#b" x="41.996" y="13.001"/><use xlink:href="#1"/><use xlink:href="#2" y="2.171"/><use xlink:href="#3" y="4.342"/><use xlink:href="#4" y="6.513"/><use xlink:href="#5" y="8.684"/><text y="14.696" class="f">echo</text><text x="5.01" y="14.696" class="f">&apos;{&quot;type&quot;:&quot;SUV&quot;,&quot;price&quot;:55,&quot;color&quot;:&quot;re</text></svg><svg x="1960"><use xlink:href="#a"/><use xlink:href="#b" x="10.996" y="15.172"/><use xlink:href="#1"/><use xlink:href="#2" y="2.171"/><use xlink:href="#3" y="4.342"/><use xlink:href="#4" y="6.513"/><use xlink:href="#5" y="8.684"/><use xlink:href="#6" y="13.026"/><text x="4.008" y="16.867" class="f">kafka-c</text></svg><svg x="2100"><use xlink:href="#a"/><use xlink:href="#b" x="1.996" y="17.343"/><use xlink:href="#1"/><use xlink:href="#2" y="2.171"/><use xlink:href="#3" y="4.342"/><use xlink:href="#4" y="6.513"/><use xlink:href="#5" y="8.684"/><use xlink:href="#6" y="13.026"/><use xlink:href="#2" y="15.197"/></svg><svg x="2240"><use xlink:href="#a"/><use xlink:href="#b" x="21.996" y="17.343"/><use xlink:href="#1"/><use xlink:href="#2" y="2.171"/><use xlink:href="#3" y="4.342"/><use xlink:href="#4" y="6.513"/><use xlink:href="#5" y="8.684"/><use xlink:href="#6" y="13.026"/><use xlink:href="#2" y="15.197"/><text x="8.016" y="19.038" class="f">--bootstrap-se</text></svg><svg x="2380"><use xlink:href="#a"/><use xlink:href="#b" x="41.996" y="17.343"/><use xlink:href="#1"/><use xlink:href="#2" y="2.171"/><use xlink:href="#3" y="4.342"/><use xlink:href="#4" y="6.513"/><use xlink:href="#5" y="8.684"/><use xlink:href="#6" y="13.026"/><use xlink:href="#2" y="15.197"/><text x="8.016" y="19.038" class="f">--bootstrap-server</text><text x="27.054" y="19.038" class="f">localhost:6969</text></svg><svg x="2520"><use xlink:href="#a"/><use xlink:href="#b" x="17.996" y="19.514"/><use xlink:href="#1"/><use xlink:href="#2" y="2.171"/><use xlink:href="#3" y="4.342"/><use xlink:href="#4" y="6.513"/><use xlink:href="#5" y="8.684"/><use xlink:href="#6" y="13.026"/><use xlink:href="#2" y="15.197"/><use xlink:href="#3" y="17.368"/><text x="8.016" y="21.209" class="f">--producer</text></svg><svg x="2660"><use xlink:href="#a"/><use xlink:href="#b" x="37.996" y="19.514"/><use xlink:href="#1"/><use xlink:href="#2" y="2.171"/><use xlink:href="#3" y="4.342"/><use xlink:href="#4" y="6.513"/><use xlink:href="#5" y="8.684"/><use xlink:href="#6" y="13.026"/><use xlink:href="#2" y="15.197"/><use xlink:href="#3" y="17.368"/><text x="8.016" y="21.209" class="f">--producer.config</text><text x="26.052" y="21.209" class="f">teamA-sa.pro</text></svg><svg x="2800"><use xlink:href="#a"/><use xlink:href="#b" x="9.996" y="21.685"/><use xlink:href="#1"/><use xlink:href="#2" y="2.171"/><use xlink:href="#3" y="4.342"/><use xlink:href="#4" y="6.513"/><use xlink:href="#5" y="8.684"/><use xlink:href="#6" y="13.026"/><use xlink:href="#2" y="15.197"/><use xlink:href="#3" y="17.368"/><use xlink:href="#4" y="19.539"/><text x="8.016" y="23.38" class="f">--</text></svg><svg x="2940"><use xlink:href="#a"/><use xlink:href="#b" x="19.996" y="21.685"/><use xlink:href="#1"/><use xlink:href="#2" y="2.171"/><use xlink:href="#3" y="4.342"/><use xlink:href="#4" y="6.513"/><use xlink:href="#5" y="8.684"/><use xlink:href="#6" y="13.026"/><use xlink:href="#2" y="15.197"/><use xlink:href="#3" y="17.368"/><use xlink:href="#4" y="19.539"/><use xlink:href="#5" y="21.71"/></svg><svg x="3080"><use xlink:href="#a"/><use xlink:href="#b" x="-.004" y="23.856"/><use xlink:href="#1"/><use xlink:href="#2" y="2.171"/><use xlink:href="#3" y="4.342"/><use xlink:href="#4" y="6.513"/><use xlink:href="#5" y="8.684"/><use xlink:href="#6" y="13.026"/><use xlink:href="#2" y="15.197"/><use xlink:href="#3" y="17.368"/><use xlink:href="#4" y="19.539"/><use xlink:href="#5" y="21.71"/></svg></svg></g></g></svg></svg>