<svg xmlns="http://www.w3.org/2000/svg" xmlns:xlink="http://www.w3.org/1999/xlink" width="1440" height="363.94"><rect width="1440" height="363.94" rx="5" ry="5" class="a"/><svg y="0%" x="0%"><circle cx="20" cy="20" r="6" fill="#ff5f58"/><circle cx="40" cy="20" r="6" fill="#ffbd2e"/><circle cx="60" cy="20" r="6" fill="#18c132"/></svg><svg height="303.94" viewBox="0 0 140 30.394" width="1400" x="15" xmlns="http://www.w3.org/2000/svg" xmlns:xlink="http://www.w3.org/1999/xlink" y="50"><style>@keyframes m{0%{transform:translateX(0)}.2%{transform:translateX(-280px)}3.6%{transform:translateX(-420px)}5.3%{transform:translateX(-560px)}7.1%{transform:translateX(-700px)}8.8%{transform:translateX(-840px)}10.5%{transform:translateX(-980px)}12.2%{transform:translateX(-1120px)}13.9%{transform:translateX(-1260px)}15.6%{transform:translateX(-1400px)}17.3%{transform:translateX(-1540px)}19.1%{transform:translateX(-1680px)}20.8%{transform:translateX(-1820px)}22.5%{transform:translateX(-1960px)}24.2%{transform:translateX(-2100px)}25.9%{transform:translateX(-2240px)}27.7%{transform:translateX(-2380px)}31.2%{transform:translateX(-2520px)}32.9%{transform:translateX(-2660px)}34.7%{transform:translateX(-2940px)}57.9%{transform:translateX(-3080px)}94.5%{transform:translateX(-3220px)}to{transform:translateX(-3360px)}}.a{fill:#282d35}.f{fill:#fff;white-space:pre}.g{font-weight:700}.g,.j{fill:#b9c0cb;white-space:pre}</style><g font-family="Monaco,Consolas,Menlo,'Bitstream Vera Sans Mono','Powerline Symbols',monospace" font-size="1.67"><defs><symbol id="1"><text y="1.67" class="f">kafka-console-consumer</text><text x="23.046" y="1.67" class="f">\</text></symbol><symbol id="2"><text x="4.008" y="1.67" class="f">-</text></symbol><symbol id="3"><text x="4.008" y="1.67" class="f">--bootstrap-server</text><text x="23.046" y="1.67" class="f">localhost:6969</text><text x="38.076" y="1.67" class="f">\</text></symbol><symbol id="4"><text x="4.008" y="1.67" class="f">--consumer.config</text><text x="22.044" y="1.67" class="f">teamA-sa.properties</text><text x="42.084" y="1.67" class="f">\</text></symbol><symbol id="5"><text x="4.008" y="1.67" class="f">--topic</text><text x="12.024" y="1.67" class="f">us_cars</text><text x="20.04" y="1.67" class="f">\</text></symbol><symbol id="6"><text x="4.008" y="1.67" class="f">--from-beginning</text><text x="21.042" y="1.67" class="f">\</text></symbol><symbol id="7"><text x="4.008" y="1.67" class="f">--timeout-ms</text><text x="17.034" y="1.67" class="f">10000</text><text x="23.046" y="1.67" class="f">\</text></symbol><symbol id="8"><text x="1.002" y="1.67" class="f">|</text><text x="3.006" y="1.67" class="f">jq</text></symbol><symbol id="9"><text y="1.67" class="g">{</text></symbol><symbol id="10"><text x="2.004" y="1.67" style="white-space:pre" fill="#71bef2" font-weight="700">&quot;name&quot;</text><text x="8.016" y="1.67" class="g">:</text><text x="10.02" y="1.67" style="white-space:pre" fill="#a8cc8c">&quot;us_cars_record&quot;</text></symbol><symbol id="11"><text y="1.67" class="g">}</text></symbol><symbol id="12"><text y="1.67" class="j">[2024-01-23</text><text x="12.024" y="1.67" class="j">00:01:19,984]</text><text x="26.052" y="1.67" class="j">ERROR</text><text x="32.064" y="1.67" class="j">Error</text><text x="38.076" y="1.67" class="j">processing</text><text x="49.098" y="1.67" class="j">message,</text><text x="58.116" y="1.67" class="j">terminating</text><text x="70.14" y="1.67" class="j">consumer</text><text x="79.158" y="1.67" class="j">process:</text><text x="89.178" y="1.67" class="j">(kafka.tools.ConsoleConsumer$)</text></symbol><symbol id="13"><text y="1.67" class="j">org.apache.kafka.common.errors.TimeoutException</text></symbol><symbol id="a"><path fill="transparent" d="M0 0h140v15H0z"/></symbol><symbol id="b"><path fill="#6f7683" d="M0 0h1.102v2.171H0z"/></symbol></defs><path class="a" d="M0 0h140v30.394H0z"/><g style="animation-duration:5.464868000000001s;animation-iteration-count:infinite;animation-name:m;animation-timing-function:steps(1,end)"><svg width="3500"><svg><use xlink:href="#a"/><use xlink:href="#b" x="-.004"/></svg><svg x="140"><use xlink:href="#a"/><use xlink:href="#b" x="-.004"/></svg><svg x="280"><use xlink:href="#a"/><use xlink:href="#b" x="9.996"/><text y="1.67" class="f">kafka-cons</text></svg><svg x="420"><use xlink:href="#a"/><use xlink:href="#b" x="19.996"/><text y="1.67" class="f">kafka-console-consum</text></svg><svg x="560"><use xlink:href="#a"/><use xlink:href="#b" x="4.996" y="2.146"/><use xlink:href="#1"/><use xlink:href="#2" y="2.171"/></svg><svg x="700"><use xlink:href="#a"/><use xlink:href="#b" x="14.996" y="2.146"/><use xlink:href="#1"/><text x="4.008" y="3.841" class="f">--bootstrap</text></svg><svg x="840"><use xlink:href="#a"/><use xlink:href="#b" x="24.996" y="2.146"/><use xlink:href="#1"/><text x="4.008" y="3.841" class="f">--bootstrap-server</text><text x="23.046" y="3.841" class="f">lo</text></svg><svg x="980"><use xlink:href="#a"/><use xlink:href="#b" x="34.996" y="2.146"/><use xlink:href="#1"/><text x="4.008" y="3.841" class="f">--bootstrap-server</text><text x="23.046" y="3.841" class="f">localhost:69</text></svg><svg x="1120"><use xlink:href="#a"/><use xlink:href="#b" x="4.996" y="4.317"/><use xlink:href="#1"/><use xlink:href="#3" y="2.171"/><use xlink:href="#2" y="4.342"/></svg><svg x="1260"><use xlink:href="#a"/><use xlink:href="#b" x="14.996" y="4.317"/><use xlink:href="#1"/><use xlink:href="#3" y="2.171"/><text x="4.008" y="6.012" class="f">--consumer.</text></svg><svg x="1400"><use xlink:href="#a"/><use xlink:href="#b" x="24.996" y="4.317"/><use xlink:href="#1"/><use xlink:href="#3" y="2.171"/><text x="4.008" y="6.012" class="f">--consumer.config</text><text x="22.044" y="6.012" class="f">tea</text></svg><svg x="1540"><use xlink:href="#a"/><use xlink:href="#b" x="34.996" y="4.317"/><use xlink:href="#1"/><use xlink:href="#3" y="2.171"/><text x="4.008" y="6.012" class="f">--consumer.config</text><text x="22.044" y="6.012" class="f">teamA-sa.prop</text></svg><svg x="1680"><use xlink:href="#a"/><use xlink:href="#b" x=".996" y="6.488"/><use xlink:href="#1"/><use xlink:href="#3" y="2.171"/><use xlink:href="#4" y="4.342"/></svg><svg x="1820"><use xlink:href="#a"/><use xlink:href="#b" x="10.996" y="6.488"/><use xlink:href="#1"/><use xlink:href="#3" y="2.171"/><use xlink:href="#4" y="4.342"/><text x="4.008" y="8.183" class="f">--topic</text></svg><svg x="1960"><use xlink:href="#a"/><use xlink:href="#b" x="20.996" y="6.488"/><use xlink:href="#1"/><use xlink:href="#3" y="2.171"/><use xlink:href="#4" y="4.342"/><use xlink:href="#5" y="6.513"/></svg><svg x="2100"><use xlink:href="#a"/><use xlink:href="#b" x="8.996" y="8.659"/><use xlink:href="#1"/><use xlink:href="#3" y="2.171"/><use xlink:href="#4" y="4.342"/><use xlink:href="#5" y="6.513"/><text x="4.008" y="10.354" class="f">--fro</text></svg><svg x="2240"><use xlink:href="#a"/><use xlink:href="#b" x="18.996" y="8.659"/><use xlink:href="#1"/><use xlink:href="#3" y="2.171"/><use xlink:href="#4" y="4.342"/><use xlink:href="#5" y="6.513"/><text x="4.008" y="10.354" class="f">--from-beginnin</text></svg><svg x="2380"><use xlink:href="#a"/><use xlink:href="#b" x="5.996" y="10.83"/><use xlink:href="#1"/><use xlink:href="#3" y="2.171"/><use xlink:href="#4" y="4.342"/><use xlink:href="#5" y="6.513"/><use xlink:href="#6" y="8.684"/><text x="4.008" y="12.525" class="f">--</text></svg><svg x="2520"><use xlink:href="#a"/><use xlink:href="#b" x="15.996" y="10.83"/><use xlink:href="#1"/><use xlink:href="#3" y="2.171"/><use xlink:href="#4" y="4.342"/><use xlink:href="#5" y="6.513"/><use xlink:href="#6" y="8.684"/><text x="4.008" y="12.525" class="f">--timeout-ms</text></svg><svg x="2660"><use xlink:href="#a"/><use xlink:href="#b" x=".996" y="13.001"/><use xlink:href="#1"/><use xlink:href="#3" y="2.171"/><use xlink:href="#4" y="4.342"/><use xlink:href="#5" y="6.513"/><use xlink:href="#6" y="8.684"/><use xlink:href="#7" y="10.855"/></svg><svg x="2800"><use xlink:href="#a"/><use xlink:href="#b" x="-.004" y="15.172"/><use xlink:href="#1"/><use xlink:href="#3" y="2.171"/><use xlink:href="#4" y="4.342"/><use xlink:href="#5" y="6.513"/><use xlink:href="#6" y="8.684"/><use xlink:href="#7" y="10.855"/><use xlink:href="#8" y="13.026"/></svg><svg x="2940"><use xlink:href="#a"/><use xlink:href="#b" x="-.004" y="17.343"/><use xlink:href="#1"/><use xlink:href="#3" y="2.171"/><use xlink:href="#4" y="4.342"/><use xlink:href="#5" y="6.513"/><use xlink:href="#6" y="8.684"/><use xlink:href="#7" y="10.855"/><use xlink:href="#8" y="13.026"/></svg><svg x="3080"><use xlink:href="#a"/><use xlink:href="#b" x="-.004" y="23.856"/><use xlink:href="#1"/><use xlink:href="#3" y="2.171"/><use xlink:href="#4" y="4.342"/><use xlink:href="#5" y="6.513"/><use xlink:href="#6" y="8.684"/><use xlink:href="#7" y="10.855"/><use xlink:href="#8" y="13.026"/><use xlink:href="#9" y="17.368"/><use xlink:href="#10" y="19.539"/><use xlink:href="#11" y="21.71"/></svg><svg x="3220"><use xlink:href="#a"/><use xlink:href="#b" x="-.004" y="28.198"/><use xlink:href="#1"/><use xlink:href="#3" y="2.171"/><use xlink:href="#4" y="4.342"/><use xlink:href="#5" y="6.513"/><use xlink:href="#6" y="8.684"/><use xlink:href="#7" y="10.855"/><use xlink:href="#8" y="13.026"/><use xlink:href="#9" y="17.368"/><use xlink:href="#10" y="19.539"/><use xlink:href="#11" y="21.71"/><use xlink:href="#12" y="23.881"/><use xlink:href="#13" y="26.052"/></svg><svg x="3360"><use xlink:href="#a"/><use xlink:href="#b" x="-.004" y="30.369"/><use xlink:href="#1"/><use xlink:href="#3" y="2.171"/><use xlink:href="#4" y="4.342"/><use xlink:href="#5" y="6.513"/><use xlink:href="#6" y="8.684"/><use xlink:href="#7" y="10.855"/><use xlink:href="#8" y="13.026"/><use xlink:href="#9" y="17.368"/><use xlink:href="#10" y="19.539"/><use xlink:href="#11" y="21.71"/><use xlink:href="#12" y="23.881"/><use xlink:href="#13" y="26.052"/><text y="29.893" class="j">Processed</text><text x="10.02" y="29.893" class="j">a</text><text x="12.024" y="29.893" class="j">total</text><text x="18.036" y="29.893" class="j">of</text><text x="21.042" y="29.893" class="j">1</text><text x="23.046" y="29.893" class="j">messages</text></svg></svg></g></g></svg></svg>