<svg xmlns="http://www.w3.org/2000/svg" xmlns:xlink="http://www.w3.org/1999/xlink" width="1440" height="494.2"><rect width="1440" height="494.2" rx="5" ry="5" class="a"/><svg y="0%" x="0%"><circle cx="20" cy="20" r="6" fill="#ff5f58"/><circle cx="40" cy="20" r="6" fill="#ffbd2e"/><circle cx="60" cy="20" r="6" fill="#18c132"/></svg><svg height="434.2" viewBox="0 0 140 43.42" width="1400" x="15" xmlns="http://www.w3.org/2000/svg" xmlns:xlink="http://www.w3.org/1999/xlink" y="50"><style>@keyframes l{0%{transform:translateX(0)}1.8%{transform:translateX(-140px)}2%{transform:translateX(-280px)}8.9%{transform:translateX(-420px)}12.3%{transform:translateX(-560px)}15.8%{transform:translateX(-700px)}19.2%{transform:translateX(-840px)}22.6%{transform:translateX(-980px)}26.1%{transform:translateX(-1120px)}29.6%{transform:translateX(-1260px)}33%{transform:translateX(-1400px)}36.5%{transform:translateX(-1540px)}40%{transform:translateX(-1680px)}43.5%{transform:translateX(-1820px)}47%{transform:translateX(-1960px)}50.5%{transform:translateX(-2100px)}54%{transform:translateX(-2240px)}57.5%{transform:translateX(-2380px)}64.3%{transform:translateX(-2520px)}67.8%{transform:translateX(-2660px)}71.2%{transform:translateX(-2800px)}74.6%{transform:translateX(-2940px)}78%{transform:translateX(-3080px)}81.6%{transform:translateX(-3220px)}85%{transform:translateX(-3500px)}94.4%{transform:translateX(-3640px)}to{transform:translateX(-3780px)}}.a{fill:#282d35}.f{fill:#fff;white-space:pre}.g{fill:#b9c0cb;font-weight:700}.g,.h,.i{white-space:pre}.h{fill:#71bef2;font-weight:700}.i{fill:#a8cc8c}</style><g font-family="Monaco,Consolas,Menlo,'Bitstream Vera Sans Mono','Powerline Symbols',monospace" font-size="1.67"><defs><symbol id="1"><text y="1.67" class="f">curl</text><text x="5.01" y="1.67" class="f">\</text></symbol><symbol id="2"><text x="2.004" y="1.67" class="f">--silent</text><text x="11.022" y="1.67" class="f">\</text></symbol><symbol id="3"><text x="2.004" y="1.67" class="f">--user</text><text x="9.018" y="1.67" class="f">admin:conduktor</text><text x="25.05" y="1.67" class="f">\</text></symbol><symbol id="4"><text x="2.004" y="1.67" class="f">--request</text><text x="12.024" y="1.67" class="f">POST</text><text x="17.034" y="1.67" class="f">localhost:8888/topicMappings/teamA/eu_cars</text><text x="60.12" y="1.67" class="f">\</text></symbol><symbol id="5"><text x="2.004" y="1.67" class="f">--header</text><text x="11.022" y="1.67" class="f">&apos;Content-Type:</text><text x="26.052" y="1.67" class="f">application/json&apos;</text><text x="44.088" y="1.67" class="f">\</text></symbol><symbol id="6"><text x="2.004" y="1.67" class="f">--data-raw</text><text x="13.026" y="1.67" class="f">&apos;{</text></symbol><symbol id="7"><text x="6.012" y="1.67" class="f">&quot;clusterId&quot;:</text><text x="19.038" y="1.67" class="f">&quot;main&quot;,</text></symbol><symbol id="8"><text x="6.012" y="1.67" class="f">&quot;topicName&quot;:</text><text x="19.038" y="1.67" class="f">&quot;cars&quot;,</text></symbol><symbol id="9"><text x="6.012" y="1.67" class="f">&quot;concentrated&quot;:</text><text x="22.044" y="1.67" class="f">false</text></symbol><symbol id="10"><text x="4.008" y="1.67" class="f">}&apos;</text><text x="7.014" y="1.67" class="f">|</text><text x="9.018" y="1.67" class="f">jq</text></symbol><symbol id="11"><text x="2.004" y="1.67" class="f">--request</text><text x="12.024" y="1.67" class="f">POST</text><text x="17.034" y="1.67" class="f">localhost:8888/topics/teamA</text><text x="45.09" y="1.67" class="f">\</text></symbol><symbol id="12"><text x="6.012" y="1.67" class="f">&quot;name&quot;:</text><text x="14.028" y="1.67" class="f">&quot;eu_cars&quot;</text></symbol><symbol id="13"><text y="1.67" class="g">{</text></symbol><symbol id="14"><text x="2.004" y="1.67" class="h">&quot;message&quot;</text><text x="11.022" y="1.67" class="g">:</text><text x="13.026" y="1.67" class="i">&quot;cars</text><text x="19.038" y="1.67" class="i">is</text><text x="22.044" y="1.67" class="i">created&quot;</text></symbol><symbol id="15"><text y="1.67" class="g">}</text></symbol><symbol id="a"><path fill="transparent" d="M0 0h140v21H0z"/></symbol><symbol id="b"><path fill="#6f7683" d="M0 0h1.102v2.171H0z"/></symbol></defs><path class="a" d="M0 0h140v43.42H0z"/><g style="animation-duration:2.703382s;animation-iteration-count:infinite;animation-name:l;animation-timing-function:steps(1,end)"><svg width="3920"><svg><use xlink:href="#a"/><use xlink:href="#b" x="-.004"/></svg><svg x="140"><use xlink:href="#a"/><use xlink:href="#b" x="-.004"/></svg><svg x="280"><use xlink:href="#a"/><use xlink:href="#b" x="-.004" y="4.317"/><use xlink:href="#1"/><use xlink:href="#2" y="2.171"/></svg><svg x="420"><use xlink:href="#a"/><use xlink:href="#b" x="19.996" y="4.317"/><use xlink:href="#1"/><use xlink:href="#2" y="2.171"/><text x="2.004" y="6.012" class="f">--user</text><text x="9.018" y="6.012" class="f">admin:condu</text></svg><svg x="560"><use xlink:href="#a"/><use xlink:href="#b" x="12.996" y="6.488"/><use xlink:href="#1"/><use xlink:href="#2" y="2.171"/><use xlink:href="#3" y="4.342"/><text x="2.004" y="8.183" class="f">--request</text><text x="12.024" y="8.183" class="f">P</text></svg><svg x="700"><use xlink:href="#a"/><use xlink:href="#b" x="32.996" y="6.488"/><use xlink:href="#1"/><use xlink:href="#2" y="2.171"/><use xlink:href="#3" y="4.342"/><text x="2.004" y="8.183" class="f">--request</text><text x="12.024" y="8.183" class="f">POST</text><text x="17.034" y="8.183" class="f">localhost:8888/t</text></svg><svg x="840"><use xlink:href="#a"/><use xlink:href="#b" x="52.996" y="6.488"/><use xlink:href="#1"/><use xlink:href="#2" y="2.171"/><use xlink:href="#3" y="4.342"/><text x="2.004" y="8.183" class="f">--request</text><text x="12.024" y="8.183" class="f">POST</text><text x="17.034" y="8.183" class="f">localhost:8888/topicMappings/teamA/e</text></svg><svg x="980"><use xlink:href="#a"/><use xlink:href="#b" x="10.996" y="8.659"/><use xlink:href="#1"/><use xlink:href="#2" y="2.171"/><use xlink:href="#3" y="4.342"/><use xlink:href="#4" y="6.513"/><text x="2.004" y="10.354" class="f">--header</text></svg><svg x="1120"><use xlink:href="#a"/><use xlink:href="#b" x="30.996" y="8.659"/><use xlink:href="#1"/><use xlink:href="#2" y="2.171"/><use xlink:href="#3" y="4.342"/><use xlink:href="#4" y="6.513"/><text x="2.004" y="10.354" class="f">--header</text><text x="11.022" y="10.354" class="f">&apos;Content-Type:</text><text x="26.052" y="10.354" class="f">appli</text></svg><svg x="1260"><use xlink:href="#a"/><use xlink:href="#b" x="4.996" y="10.83"/><use xlink:href="#1"/><use xlink:href="#2" y="2.171"/><use xlink:href="#3" y="4.342"/><use xlink:href="#4" y="6.513"/><use xlink:href="#5" y="8.684"/><text x="2.004" y="12.525" class="f">--d</text></svg><svg x="1400"><use xlink:href="#a"/><use xlink:href="#b" x="8.996" y="13.001"/><use xlink:href="#1"/><use xlink:href="#2" y="2.171"/><use xlink:href="#3" y="4.342"/><use xlink:href="#4" y="6.513"/><use xlink:href="#5" y="8.684"/><use xlink:href="#6" y="10.855"/><text x="6.012" y="14.696" class="f">&quot;cl</text></svg><svg x="1540"><use xlink:href="#a"/><use xlink:href="#b" x="1.996" y="15.172"/><use xlink:href="#1"/><use xlink:href="#2" y="2.171"/><use xlink:href="#3" y="4.342"/><use xlink:href="#4" y="6.513"/><use xlink:href="#5" y="8.684"/><use xlink:href="#6" y="10.855"/><use xlink:href="#7" y="13.026"/></svg><svg x="1680"><use xlink:href="#a"/><use xlink:href="#b" x="21.996" y="15.172"/><use xlink:href="#1"/><use xlink:href="#2" y="2.171"/><use xlink:href="#3" y="4.342"/><use xlink:href="#4" y="6.513"/><use xlink:href="#5" y="8.684"/><use xlink:href="#6" y="10.855"/><use xlink:href="#7" y="13.026"/><text x="6.012" y="16.867" class="f">&quot;topicName&quot;:</text><text x="19.038" y="16.867" class="f">&quot;ca</text></svg><svg x="1820"><use xlink:href="#a"/><use xlink:href="#b" x="14.996" y="17.343"/><use xlink:href="#1"/><use xlink:href="#2" y="2.171"/><use xlink:href="#3" y="4.342"/><use xlink:href="#4" y="6.513"/><use xlink:href="#5" y="8.684"/><use xlink:href="#6" y="10.855"/><use xlink:href="#7" y="13.026"/><use xlink:href="#8" y="15.197"/><text x="6.012" y="19.038" class="f">&quot;concentr</text></svg><svg x="1960"><use xlink:href="#a"/><use xlink:href="#b" x="6.996" y="19.514"/><use xlink:href="#1"/><use xlink:href="#2" y="2.171"/><use xlink:href="#3" y="4.342"/><use xlink:href="#4" y="6.513"/><use xlink:href="#5" y="8.684"/><use xlink:href="#6" y="10.855"/><use xlink:href="#7" y="13.026"/><use xlink:href="#8" y="15.197"/><use xlink:href="#9" y="17.368"/><text x="4.008" y="21.209" class="f">}&apos;</text></svg><svg x="2100"><use xlink:href="#a"/><use xlink:href="#b" x="6.996" y="26.027"/><use xlink:href="#1"/><use xlink:href="#2" y="2.171"/><use xlink:href="#3" y="4.342"/><use xlink:href="#4" y="6.513"/><use xlink:href="#5" y="8.684"/><use xlink:href="#6" y="10.855"/><use xlink:href="#7" y="13.026"/><use xlink:href="#8" y="15.197"/><use xlink:href="#9" y="17.368"/><use xlink:href="#10" y="19.539"/><use xlink:href="#1" y="23.881"/><text x="2.004" y="27.722" class="f">--sil</text></svg><svg x="2240"><use xlink:href="#a"/><use xlink:href="#b" x="13.996" y="28.198"/><use xlink:href="#1"/><use xlink:href="#2" y="2.171"/><use xlink:href="#3" y="4.342"/><use xlink:href="#4" y="6.513"/><use xlink:href="#5" y="8.684"/><use xlink:href="#6" y="10.855"/><use xlink:href="#7" y="13.026"/><use xlink:href="#8" y="15.197"/><use xlink:href="#9" y="17.368"/><use xlink:href="#10" y="19.539"/><use xlink:href="#1" y="23.881"/><use xlink:href="#2" y="26.052"/><text x="2.004" y="29.893" class="f">--user</text><text x="9.018" y="29.893" class="f">admin</text></svg><svg x="2380"><use xlink:href="#a"/><use xlink:href="#b" x="6.996" y="30.369"/><use xlink:href="#1"/><use xlink:href="#2" y="2.171"/><use xlink:href="#3" y="4.342"/><use xlink:href="#4" y="6.513"/><use xlink:href="#5" y="8.684"/><use xlink:href="#6" y="10.855"/><use xlink:href="#7" y="13.026"/><use xlink:href="#8" y="15.197"/><use xlink:href="#9" y="17.368"/><use xlink:href="#10" y="19.539"/><use xlink:href="#1" y="23.881"/><use xlink:href="#2" y="26.052"/><use xlink:href="#3" y="28.223"/><text x="2.004" y="32.064" class="f">--req</text></svg><svg x="2520"><use xlink:href="#a"/><use xlink:href="#b" x="26.996" y="30.369"/><use xlink:href="#1"/><use xlink:href="#2" y="2.171"/><use xlink:href="#3" y="4.342"/><use xlink:href="#4" y="6.513"/><use xlink:href="#5" y="8.684"/><use xlink:href="#6" y="10.855"/><use xlink:href="#7" y="13.026"/><use xlink:href="#8" y="15.197"/><use xlink:href="#9" y="17.368"/><use xlink:href="#10" y="19.539"/><use xlink:href="#1" y="23.881"/><use xlink:href="#2" y="26.052"/><use xlink:href="#3" y="28.223"/><text x="2.004" y="32.064" class="f">--request</text><text x="12.024" y="32.064" class="f">POST</text><text x="17.034" y="32.064" class="f">localhost:</text></svg><svg x="2660"><use xlink:href="#a"/><use xlink:href="#b" x="-.004" y="32.54"/><use xlink:href="#1"/><use xlink:href="#2" y="2.171"/><use xlink:href="#3" y="4.342"/><use xlink:href="#4" y="6.513"/><use xlink:href="#5" y="8.684"/><use xlink:href="#6" y="10.855"/><use xlink:href="#7" y="13.026"/><use xlink:href="#8" y="15.197"/><use xlink:href="#9" y="17.368"/><use xlink:href="#10" y="19.539"/><use xlink:href="#1" y="23.881"/><use xlink:href="#2" y="26.052"/><use xlink:href="#3" y="28.223"/><use xlink:href="#11" y="30.394"/></svg><svg x="2800"><use xlink:href="#a"/><use xlink:href="#b" x="19.996" y="32.54"/><use xlink:href="#1"/><use xlink:href="#2" y="2.171"/><use xlink:href="#3" y="4.342"/><use xlink:href="#4" y="6.513"/><use xlink:href="#5" y="8.684"/><use xlink:href="#6" y="10.855"/><use xlink:href="#7" y="13.026"/><use xlink:href="#8" y="15.197"/><use xlink:href="#9" y="17.368"/><use xlink:href="#10" y="19.539"/><use xlink:href="#1" y="23.881"/><use xlink:href="#2" y="26.052"/><use xlink:href="#3" y="28.223"/><use xlink:href="#11" y="30.394"/><text x="2.004" y="34.235" class="f">--header</text><text x="11.022" y="34.235" class="f">&apos;Content-</text></svg><svg x="2940"><use xlink:href="#a"/><use xlink:href="#b" x="39.996" y="32.54"/><use xlink:href="#1"/><use xlink:href="#2" y="2.171"/><use xlink:href="#3" y="4.342"/><use xlink:href="#4" y="6.513"/><use xlink:href="#5" y="8.684"/><use xlink:href="#6" y="10.855"/><use xlink:href="#7" y="13.026"/><use xlink:href="#8" y="15.197"/><use xlink:href="#9" y="17.368"/><use xlink:href="#10" y="19.539"/><use xlink:href="#1" y="23.881"/><use xlink:href="#2" y="26.052"/><use xlink:href="#3" y="28.223"/><use xlink:href="#11" y="30.394"/><text x="2.004" y="34.235" class="f">--header</text><text x="11.022" y="34.235" class="f">&apos;Content-Type:</text><text x="26.052" y="34.235" class="f">application/js</text></svg><svg x="3080"><use xlink:href="#a"/><use xlink:href="#b" x="13.996" y="34.711"/><use xlink:href="#1"/><use xlink:href="#2" y="2.171"/><use xlink:href="#3" y="4.342"/><use xlink:href="#4" y="6.513"/><use xlink:href="#5" y="8.684"/><use xlink:href="#6" y="10.855"/><use xlink:href="#7" y="13.026"/><use xlink:href="#8" y="15.197"/><use xlink:href="#9" y="17.368"/><use xlink:href="#10" y="19.539"/><use xlink:href="#1" y="23.881"/><use xlink:href="#2" y="26.052"/><use xlink:href="#3" y="28.223"/><use xlink:href="#11" y="30.394"/><use xlink:href="#5" y="32.565"/><text x="2.004" y="36.406" class="f">--data-raw</text><text x="13.026" y="36.406" class="f">&apos;</text></svg><svg x="3220"><use xlink:href="#a"/><use xlink:href="#b" x="17.996" y="36.882"/><use xlink:href="#1"/><use xlink:href="#2" y="2.171"/><use xlink:href="#3" y="4.342"/><use xlink:href="#4" y="6.513"/><use xlink:href="#5" y="8.684"/><use xlink:href="#6" y="10.855"/><use xlink:href="#7" y="13.026"/><use xlink:href="#8" y="15.197"/><use xlink:href="#9" y="17.368"/><use xlink:href="#10" y="19.539"/><use xlink:href="#1" y="23.881"/><use xlink:href="#2" y="26.052"/><use xlink:href="#3" y="28.223"/><use xlink:href="#11" y="30.394"/><use xlink:href="#5" y="32.565"/><use xlink:href="#6" y="34.736"/><text x="6.012" y="38.577" class="f">&quot;name&quot;:</text><text x="14.028" y="38.577" class="f">&quot;eu_</text></svg><svg x="3360"><use xlink:href="#a"/><use xlink:href="#b" x="10.996" y="39.053"/><use xlink:href="#1"/><use xlink:href="#2" y="2.171"/><use xlink:href="#3" y="4.342"/><use xlink:href="#4" y="6.513"/><use xlink:href="#5" y="8.684"/><use xlink:href="#6" y="10.855"/><use xlink:href="#7" y="13.026"/><use xlink:href="#8" y="15.197"/><use xlink:href="#9" y="17.368"/><use xlink:href="#10" y="19.539"/><use xlink:href="#1" y="23.881"/><use xlink:href="#2" y="26.052"/><use xlink:href="#3" y="28.223"/><use xlink:href="#11" y="30.394"/><use xlink:href="#5" y="32.565"/><use xlink:href="#6" y="34.736"/><use xlink:href="#12" y="36.907"/><use xlink:href="#10" y="39.078"/></svg><svg x="3500"><use xlink:href="#a"/><use xlink:href="#b" x="-.004" y="41.224"/><use xlink:href="#1"/><use xlink:href="#2" y="2.171"/><use xlink:href="#3" y="4.342"/><use xlink:href="#4" y="6.513"/><use xlink:href="#5" y="8.684"/><use xlink:href="#6" y="10.855"/><use xlink:href="#7" y="13.026"/><use xlink:href="#8" y="15.197"/><use xlink:href="#9" y="17.368"/><use xlink:href="#10" y="19.539"/><use xlink:href="#1" y="23.881"/><use xlink:href="#2" y="26.052"/><use xlink:href="#3" y="28.223"/><use xlink:href="#11" y="30.394"/><use xlink:href="#5" y="32.565"/><use xlink:href="#6" y="34.736"/><use xlink:href="#12" y="36.907"/><use xlink:href="#10" y="39.078"/></svg><svg x="3640"><use xlink:href="#a"/><use xlink:href="#b" x="-.004" y="43.395"/><use xlink:href="#3"/><use xlink:href="#4" y="2.171"/><use xlink:href="#5" y="4.342"/><use xlink:href="#6" y="6.513"/><use xlink:href="#7" y="8.684"/><use xlink:href="#8" y="10.855"/><use xlink:href="#9" y="13.026"/><use xlink:href="#10" y="15.197"/><use xlink:href="#1" y="19.539"/><use xlink:href="#2" y="21.71"/><use xlink:href="#3" y="23.881"/><use xlink:href="#11" y="26.052"/><use xlink:href="#5" y="28.223"/><use xlink:href="#6" y="30.394"/><use xlink:href="#12" y="32.565"/><use xlink:href="#10" y="34.736"/><use xlink:href="#13" y="36.907"/><use xlink:href="#14" y="39.078"/><use xlink:href="#15" y="41.249"/></svg><svg x="3780"><use xlink:href="#a"/><use xlink:href="#b" x="-.004" y="43.395"/><use xlink:href="#6"/><use xlink:href="#7" y="2.171"/><use xlink:href="#8" y="4.342"/><use xlink:href="#9" y="6.513"/><use xlink:href="#10" y="8.684"/><use xlink:href="#1" y="13.026"/><use xlink:href="#2" y="15.197"/><use xlink:href="#3" y="17.368"/><use xlink:href="#11" y="19.539"/><use xlink:href="#5" y="21.71"/><use xlink:href="#6" y="23.881"/><use xlink:href="#12" y="26.052"/><use xlink:href="#10" y="28.223"/><use xlink:href="#13" y="30.394"/><use xlink:href="#14" y="32.565"/><use xlink:href="#15" y="34.736"/><use xlink:href="#13" y="36.907"/><text x="2.004" y="40.748" class="h">&quot;message&quot;</text><text x="11.022" y="40.748" class="g">:</text><text x="13.026" y="40.748" class="i">&quot;eu_cars</text><text x="22.044" y="40.748" class="i">is</text><text x="25.05" y="40.748" class="i">created&quot;</text><use xlink:href="#15" y="41.249"/></svg></svg></g></g></svg></svg>