<svg xmlns="http://www.w3.org/2000/svg" xmlns:xlink="http://www.w3.org/1999/xlink" width="1440" height="494.2"><rect width="1440" height="494.2" rx="5" ry="5" class="a"/><svg y="0%" x="0%"><circle cx="20" cy="20" r="6" fill="#ff5f58"/><circle cx="40" cy="20" r="6" fill="#ffbd2e"/><circle cx="60" cy="20" r="6" fill="#18c132"/></svg><svg height="434.2" viewBox="0 0 140 43.42" width="1400" x="15" xmlns="http://www.w3.org/2000/svg" xmlns:xlink="http://www.w3.org/1999/xlink" y="50"><style>@keyframes j{0%{transform:translateX(0)}.05%{transform:translateX(-140px)}.07%{transform:translateX(-280px)}.77%{transform:translateX(-420px)}1.13%{transform:translateX(-560px)}1.49%{transform:translateX(-700px)}1.91%{transform:translateX(-840px)}2.23%{transform:translateX(-980px)}2.59%{transform:translateX(-1120px)}2.93%{transform:translateX(-1260px)}3.28%{transform:translateX(-1400px)}3.63%{transform:translateX(-1540px)}3.99%{transform:translateX(-1680px)}4.35%{transform:translateX(-1820px)}4.72%{transform:translateX(-1960px)}5.07%{transform:translateX(-2100px)}5.08%{transform:translateX(-2240px)}8.55%{transform:translateX(-2380px)}8.56%{transform:translateX(-2520px)}16.17%{transform:translateX(-2940px)}16.18%{transform:translateX(-3080px)}23.8%{transform:translateX(-3220px)}31.41%{transform:translateX(-3640px)}39.03%{transform:translateX(-3920px)}46.65%{transform:translateX(-4060px)}54.27%{transform:translateX(-4340px)}61.89%{transform:translateX(-4760px)}61.9%{transform:translateX(-4900px)}69.51%{transform:translateX(-5040px)}69.53%{transform:translateX(-5180px)}77.15%{transform:translateX(-5320px)}84.77%{transform:translateX(-5460px)}92.38%{transform:translateX(-5600px)}to{transform:translateX(-6160px)}}.a{fill:#282d35}.f,.g{fill:#fff;white-space:pre}.g{fill:#b9c0cb}</style><g font-family="Monaco,Consolas,Menlo,'Bitstream Vera Sans Mono','Powerline Symbols',monospace" font-size="1.67"><defs><symbol id="1"><text y="1.67" class="f">kafka-producer-perf-test</text><text x="25.05" y="1.67" class="f">\</text></symbol><symbol id="2"><text x="2.004" y="1.67" class="f">--topic</text><text x="10.02" y="1.67" class="f">customers</text><text x="20.04" y="1.67" class="f">\</text></symbol><symbol id="3"><text x="2.004" y="1.67" class="f">--throughput</text><text x="15.03" y="1.67" class="f">-1</text><text x="18.036" y="1.67" class="f">\</text></symbol><symbol id="4"><text x="2.004" y="1.67" class="f">--num-records</text><text x="16.032" y="1.67" class="f">1000000</text><text x="24.048" y="1.67" class="f">\</text></symbol><symbol id="5"><text x="2.004" y="1.67" class="f">--producer-props</text><text x="19.038" y="1.67" class="f">\</text></symbol><symbol id="6"><text x="6.012" y="1.67" class="f">bootstrap.servers=localhost:6969</text><text x="39.078" y="1.67" class="f">\</text></symbol><symbol id="7"><text x="6.012" y="1.67" class="f">linger.ms=100</text><text x="20.04" y="1.67" class="f">\</text></symbol><symbol id="8"><text x="6.012" y="1.67" class="f">compression.type=lz4</text><text x="27.054" y="1.67" class="f">\</text></symbol><symbol id="9"><text x="2.004" y="1.67" class="f">--producer.config</text><text x="20.04" y="1.67" class="f">teamA-sa.properties</text><text x="40.08" y="1.67" class="f">\</text></symbol><symbol id="10"><text x="2.004" y="1.67" class="f">--payload-file</text><text x="17.034" y="1.67" class="f">examples.json</text></symbol><symbol id="11"><text y="1.67" class="g">Reading</text><text x="8.016" y="1.67" class="g">payloads</text><text x="17.034" y="1.67" class="g">from:</text><text x="23.046" y="1.67" class="g">/Users/framiere/conduktor/conduktor-gateway-functional-testing/target/2024.01.22-22:50:30/encryption-performance/exam</text></symbol><symbol id="12"><text y="1.67" class="g">ples.json</text></symbol><symbol id="13"><text y="1.67" class="g">Number</text><text x="7.014" y="1.67" class="g">of</text><text x="10.02" y="1.67" class="g">messages</text><text x="19.038" y="1.67" class="g">read:</text><text x="25.05" y="1.67" class="g">2</text></symbol><symbol id="14"><text y="1.67" class="g">9646</text><text x="5.01" y="1.67" class="g">records</text><text x="13.026" y="1.67" class="g">sent,</text><text x="19.038" y="1.67" class="g">1726,2</text><text x="26.052" y="1.67" class="g">records/sec</text><text x="38.076" y="1.67" class="g">(0,20</text><text x="44.088" y="1.67" class="g">MB/sec),</text><text x="53.106" y="1.67" class="g">2688,1</text><text x="60.12" y="1.67" class="g">ms</text><text x="63.126" y="1.67" class="g">avg</text><text x="67.134" y="1.67" class="g">latency,</text><text x="76.152" y="1.67" class="g">5185,0</text><text x="83.166" y="1.67" class="g">ms</text><text x="86.172" y="1.67" class="g">max</text><text x="90.18" y="1.67" class="g">latency.</text></symbol><symbol id="15"><text y="1.67" class="g">25200</text><text x="6.012" y="1.67" class="g">records</text><text x="14.028" y="1.67" class="g">sent,</text><text x="20.04" y="1.67" class="g">4048,8</text><text x="27.054" y="1.67" class="g">records/sec</text><text x="39.078" y="1.67" class="g">(0,47</text><text x="45.09" y="1.67" class="g">MB/sec),</text><text x="54.108" y="1.67" class="g">7501,7</text><text x="61.122" y="1.67" class="g">ms</text><text x="64.128" y="1.67" class="g">avg</text><text x="68.136" y="1.67" class="g">latency,</text><text x="77.154" y="1.67" class="g">11309,0</text><text x="85.17" y="1.67" class="g">ms</text><text x="88.176" y="1.67" class="g">max</text><text x="92.184" y="1.67" class="g">latency.</text></symbol><symbol id="16"><text y="1.67" class="g">31320</text><text x="6.012" y="1.67" class="g">records</text><text x="14.028" y="1.67" class="g">sent,</text><text x="20.04" y="1.67" class="g">5557,1</text><text x="27.054" y="1.67" class="g">records/sec</text><text x="39.078" y="1.67" class="g">(0,65</text><text x="45.09" y="1.67" class="g">MB/sec),</text><text x="54.108" y="1.67" class="g">13428,7</text><text x="62.124" y="1.67" class="g">ms</text><text x="65.13" y="1.67" class="g">avg</text><text x="69.138" y="1.67" class="g">latency,</text><text x="78.156" y="1.67" class="g">16865,0</text><text x="86.172" y="1.67" class="g">ms</text><text x="89.178" y="1.67" class="g">max</text><text x="93.186" y="1.67" class="g">latency.</text></symbol><symbol id="17"><text y="1.67" class="g">31200</text><text x="6.012" y="1.67" class="g">records</text><text x="14.028" y="1.67" class="g">sent,</text><text x="20.04" y="1.67" class="g">5161,3</text><text x="27.054" y="1.67" class="g">records/sec</text><text x="39.078" y="1.67" class="g">(0,61</text><text x="45.09" y="1.67" class="g">MB/sec),</text><text x="54.108" y="1.67" class="g">19198,8</text><text x="62.124" y="1.67" class="g">ms</text><text x="65.13" y="1.67" class="g">avg</text><text x="69.138" y="1.67" class="g">latency,</text><text x="78.156" y="1.67" class="g">22855,0</text><text x="86.172" y="1.67" class="g">ms</text><text x="89.178" y="1.67" class="g">max</text><text x="93.186" y="1.67" class="g">latency.</text></symbol><symbol id="18"><text y="1.67" class="g">31320</text><text x="6.012" y="1.67" class="g">records</text><text x="14.028" y="1.67" class="g">sent,</text><text x="20.04" y="1.67" class="g">5944,2</text><text x="27.054" y="1.67" class="g">records/sec</text><text x="39.078" y="1.67" class="g">(0,70</text><text x="45.09" y="1.67" class="g">MB/sec),</text><text x="54.108" y="1.67" class="g">24978,9</text><text x="62.124" y="1.67" class="g">ms</text><text x="65.13" y="1.67" class="g">avg</text><text x="69.138" y="1.67" class="g">latency,</text><text x="78.156" y="1.67" class="g">28074,0</text><text x="86.172" y="1.67" class="g">ms</text><text x="89.178" y="1.67" class="g">max</text><text x="93.186" y="1.67" class="g">latency.</text></symbol><symbol id="19"><text y="1.67" class="g">39000</text><text x="6.012" y="1.67" class="g">records</text><text x="14.028" y="1.67" class="g">sent,</text><text x="20.04" y="1.67" class="g">7786,0</text><text x="27.054" y="1.67" class="g">records/sec</text><text x="39.078" y="1.67" class="g">(0,91</text><text x="45.09" y="1.67" class="g">MB/sec),</text><text x="54.108" y="1.67" class="g">30360,4</text><text x="62.124" y="1.67" class="g">ms</text><text x="65.13" y="1.67" class="g">avg</text><text x="69.138" y="1.67" class="g">latency,</text><text x="78.156" y="1.67" class="g">33022,0</text><text x="86.172" y="1.67" class="g">ms</text><text x="89.178" y="1.67" class="g">max</text><text x="93.186" y="1.67" class="g">latency.</text></symbol><symbol id="20"><text y="1.67" class="g">77760</text><text x="6.012" y="1.67" class="g">records</text><text x="14.028" y="1.67" class="g">sent,</text><text x="20.04" y="1.67" class="g">15502,4</text><text x="28.056" y="1.67" class="g">records/sec</text><text x="40.08" y="1.67" class="g">(1,82</text><text x="46.092" y="1.67" class="g">MB/sec),</text><text x="55.11" y="1.67" class="g">36283,4</text><text x="63.126" y="1.67" class="g">ms</text><text x="66.132" y="1.67" class="g">avg</text><text x="70.14" y="1.67" class="g">latency,</text><text x="79.158" y="1.67" class="g">37886,0</text><text x="87.174" y="1.67" class="g">ms</text><text x="90.18" y="1.67" class="g">max</text><text x="94.188" y="1.67" class="g">latency.</text></symbol><symbol id="21"><text y="1.67" class="g">161194</text><text x="7.014" y="1.67" class="g">records</text><text x="15.03" y="1.67" class="g">sent,</text><text x="21.042" y="1.67" class="g">31944,9</text><text x="29.058" y="1.67" class="g">records/sec</text><text x="41.082" y="1.67" class="g">(3,75</text><text x="47.094" y="1.67" class="g">MB/sec),</text><text x="56.112" y="1.67" class="g">33558,1</text><text x="64.128" y="1.67" class="g">ms</text><text x="67.134" y="1.67" class="g">avg</text><text x="71.142" y="1.67" class="g">latency,</text><text x="80.16" y="1.67" class="g">37902,0</text><text x="88.176" y="1.67" class="g">ms</text><text x="91.182" y="1.67" class="g">max</text><text x="95.19" y="1.67" class="g">latency.</text></symbol><symbol id="22"><text y="1.67" class="g">167099</text><text x="7.014" y="1.67" class="g">records</text><text x="15.03" y="1.67" class="g">sent,</text><text x="21.042" y="1.67" class="g">32636,5</text><text x="29.058" y="1.67" class="g">records/sec</text><text x="41.082" y="1.67" class="g">(3,83</text><text x="47.094" y="1.67" class="g">MB/sec),</text><text x="56.112" y="1.67" class="g">34708,1</text><text x="64.128" y="1.67" class="g">ms</text><text x="67.134" y="1.67" class="g">avg</text><text x="71.142" y="1.67" class="g">latency,</text><text x="80.16" y="1.67" class="g">36488,0</text><text x="88.176" y="1.67" class="g">ms</text><text x="91.182" y="1.67" class="g">max</text><text x="95.19" y="1.67" class="g">latency.</text></symbol><symbol id="23"><text y="1.67" class="g">175750</text><text x="7.014" y="1.67" class="g">records</text><text x="15.03" y="1.67" class="g">sent,</text><text x="21.042" y="1.67" class="g">34705,8</text><text x="29.058" y="1.67" class="g">records/sec</text><text x="41.082" y="1.67" class="g">(4,07</text><text x="47.094" y="1.67" class="g">MB/sec),</text><text x="56.112" y="1.67" class="g">37169,8</text><text x="64.128" y="1.67" class="g">ms</text><text x="67.134" y="1.67" class="g">avg</text><text x="71.142" y="1.67" class="g">latency,</text><text x="80.16" y="1.67" class="g">38471,0</text><text x="88.176" y="1.67" class="g">ms</text><text x="91.182" y="1.67" class="g">max</text><text x="95.19" y="1.67" class="g">latency.</text></symbol><symbol id="24"><text y="1.67" class="g">153121</text><text x="7.014" y="1.67" class="g">records</text><text x="15.03" y="1.67" class="g">sent,</text><text x="21.042" y="1.67" class="g">30569,2</text><text x="29.058" y="1.67" class="g">records/sec</text><text x="41.082" y="1.67" class="g">(3,59</text><text x="47.094" y="1.67" class="g">MB/sec),</text><text x="56.112" y="1.67" class="g">39831,4</text><text x="64.128" y="1.67" class="g">ms</text><text x="67.134" y="1.67" class="g">avg</text><text x="71.142" y="1.67" class="g">latency,</text><text x="80.16" y="1.67" class="g">41268,0</text><text x="88.176" y="1.67" class="g">ms</text><text x="91.182" y="1.67" class="g">max</text><text x="95.19" y="1.67" class="g">latency.</text></symbol><symbol id="a"><path fill="transparent" d="M0 0h140v21H0z"/></symbol><symbol id="b"><path fill="#6f7683" d="M0 0h1.102v2.171H0z"/></symbol></defs><path class="a" d="M0 0h140v43.42H0z"/><g style="animation-duration:26.257697000000007s;animation-iteration-count:infinite;animation-name:j;animation-timing-function:steps(1,end)"><svg width="6300"><svg><use xlink:href="#a"/><use xlink:href="#b" x="-.004"/></svg><svg x="140"><use xlink:href="#a"/><use xlink:href="#b" x="-.004"/></svg><svg x="280"><use xlink:href="#a"/><use xlink:href="#b" x="19.996"/><text y="1.67" class="f">kafka-producer-perf-</text></svg><svg x="420"><use xlink:href="#a"/><use xlink:href="#b" x="12.996" y="2.146"/><use xlink:href="#1"/><text x="2.004" y="3.841" class="f">--topic</text><text x="10.02" y="3.841" class="f">cus</text></svg><svg x="560"><use xlink:href="#a"/><use xlink:href="#b" x="10.996" y="4.317"/><use xlink:href="#1"/><use xlink:href="#2" y="2.171"/><text x="2.004" y="6.012" class="f">--through</text></svg><svg x="700"><use xlink:href="#a"/><use xlink:href="#b" x="10.996" y="6.488"/><use xlink:href="#1"/><use xlink:href="#2" y="2.171"/><use xlink:href="#3" y="4.342"/><text x="2.004" y="8.183" class="f">--num-rec</text></svg><svg x="840"><use xlink:href="#a"/><use xlink:href="#b" x="4.996" y="8.659"/><use xlink:href="#1"/><use xlink:href="#2" y="2.171"/><use xlink:href="#3" y="4.342"/><use xlink:href="#4" y="6.513"/><text x="2.004" y="10.354" class="f">--p</text></svg><svg x="980"><use xlink:href="#a"/><use xlink:href="#b" x="3.996" y="10.83"/><use xlink:href="#1"/><use xlink:href="#2" y="2.171"/><use xlink:href="#3" y="4.342"/><use xlink:href="#4" y="6.513"/><use xlink:href="#5" y="8.684"/></svg><svg x="1120"><use xlink:href="#a"/><use xlink:href="#b" x="23.996" y="10.83"/><use xlink:href="#1"/><use xlink:href="#2" y="2.171"/><use xlink:href="#3" y="4.342"/><use xlink:href="#4" y="6.513"/><use xlink:href="#5" y="8.684"/><text x="6.012" y="12.525" class="f">bootstrap.servers=</text></svg><svg x="1260"><use xlink:href="#a"/><use xlink:href="#b" x="2.996" y="13.001"/><use xlink:href="#1"/><use xlink:href="#2" y="2.171"/><use xlink:href="#3" y="4.342"/><use xlink:href="#4" y="6.513"/><use xlink:href="#5" y="8.684"/><use xlink:href="#6" y="10.855"/></svg><svg x="1400"><use xlink:href="#a"/><use xlink:href="#b" x=".996" y="15.172"/><use xlink:href="#1"/><use xlink:href="#2" y="2.171"/><use xlink:href="#3" y="4.342"/><use xlink:href="#4" y="6.513"/><use xlink:href="#5" y="8.684"/><use xlink:href="#6" y="10.855"/><use xlink:href="#7" y="13.026"/></svg><svg x="1540"><use xlink:href="#a"/><use xlink:href="#b" x="20.996" y="15.172"/><use xlink:href="#1"/><use xlink:href="#2" y="2.171"/><use xlink:href="#3" y="4.342"/><use xlink:href="#4" y="6.513"/><use xlink:href="#5" y="8.684"/><use xlink:href="#6" y="10.855"/><use xlink:href="#7" y="13.026"/><text x="6.012" y="16.867" class="f">compression.typ</text></svg><svg x="1680"><use xlink:href="#a"/><use xlink:href="#b" x="11.996" y="17.343"/><use xlink:href="#1"/><use xlink:href="#2" y="2.171"/><use xlink:href="#3" y="4.342"/><use xlink:href="#4" y="6.513"/><use xlink:href="#5" y="8.684"/><use xlink:href="#6" y="10.855"/><use xlink:href="#7" y="13.026"/><use xlink:href="#8" y="15.197"/><text x="2.004" y="19.038" class="f">--producer</text></svg><svg x="1820"><use xlink:href="#a"/><use xlink:href="#b" x="31.996" y="17.343"/><use xlink:href="#1"/><use xlink:href="#2" y="2.171"/><use xlink:href="#3" y="4.342"/><use xlink:href="#4" y="6.513"/><use xlink:href="#5" y="8.684"/><use xlink:href="#6" y="10.855"/><use xlink:href="#7" y="13.026"/><use xlink:href="#8" y="15.197"/><text x="2.004" y="19.038" class="f">--producer.config</text><text x="20.04" y="19.038" class="f">teamA-sa.pro</text></svg><svg x="1960"><use xlink:href="#a"/><use xlink:href="#b" x="9.996" y="19.514"/><use xlink:href="#1"/><use xlink:href="#2" y="2.171"/><use xlink:href="#3" y="4.342"/><use xlink:href="#4" y="6.513"/><use xlink:href="#5" y="8.684"/><use xlink:href="#6" y="10.855"/><use xlink:href="#7" y="13.026"/><use xlink:href="#8" y="15.197"/><use xlink:href="#9" y="17.368"/><text x="2.004" y="21.209" class="f">--payloa</text></svg><svg x="2100"><use xlink:href="#a"/><use xlink:href="#b" x="29.996" y="19.514"/><use xlink:href="#1"/><use xlink:href="#2" y="2.171"/><use xlink:href="#3" y="4.342"/><use xlink:href="#4" y="6.513"/><use xlink:href="#5" y="8.684"/><use xlink:href="#6" y="10.855"/><use xlink:href="#7" y="13.026"/><use xlink:href="#8" y="15.197"/><use xlink:href="#9" y="17.368"/><use xlink:href="#10" y="19.539"/></svg><svg x="2240"><use xlink:href="#a"/><use xlink:href="#b" x="-.004" y="21.685"/><use xlink:href="#1"/><use xlink:href="#2" y="2.171"/><use xlink:href="#3" y="4.342"/><use xlink:href="#4" y="6.513"/><use xlink:href="#5" y="8.684"/><use xlink:href="#6" y="10.855"/><use xlink:href="#7" y="13.026"/><use xlink:href="#8" y="15.197"/><use xlink:href="#9" y="17.368"/><use xlink:href="#10" y="19.539"/></svg><svg x="2380"><use xlink:href="#a"/><use xlink:href="#b" x="-.004" y="26.027"/><use xlink:href="#1"/><use xlink:href="#2" y="2.171"/><use xlink:href="#3" y="4.342"/><use xlink:href="#4" y="6.513"/><use xlink:href="#5" y="8.684"/><use xlink:href="#6" y="10.855"/><use xlink:href="#7" y="13.026"/><use xlink:href="#8" y="15.197"/><use xlink:href="#9" y="17.368"/><use xlink:href="#10" y="19.539"/><use xlink:href="#11" y="21.71"/><use xlink:href="#12" y="23.881"/></svg><svg x="2520"><use xlink:href="#a"/><use xlink:href="#b" x="-.004" y="28.198"/><use xlink:href="#1"/><use xlink:href="#2" y="2.171"/><use xlink:href="#3" y="4.342"/><use xlink:href="#4" y="6.513"/><use xlink:href="#5" y="8.684"/><use xlink:href="#6" y="10.855"/><use xlink:href="#7" y="13.026"/><use xlink:href="#8" y="15.197"/><use xlink:href="#9" y="17.368"/><use xlink:href="#10" y="19.539"/><use xlink:href="#11" y="21.71"/><use xlink:href="#12" y="23.881"/><use xlink:href="#13" y="26.052"/></svg><svg x="2660"><use xlink:href="#a"/><use xlink:href="#b" x="18.996" y="28.198"/><use xlink:href="#1"/><use xlink:href="#2" y="2.171"/><use xlink:href="#3" y="4.342"/><use xlink:href="#4" y="6.513"/><use xlink:href="#5" y="8.684"/><use xlink:href="#6" y="10.855"/><use xlink:href="#7" y="13.026"/><use xlink:href="#8" y="15.197"/><use xlink:href="#9" y="17.368"/><use xlink:href="#10" y="19.539"/><use xlink:href="#11" y="21.71"/><use xlink:href="#12" y="23.881"/><use xlink:href="#13" y="26.052"/><text y="29.893" class="g">9646</text><text x="5.01" y="29.893" class="g">records</text><text x="13.026" y="29.893" class="g">sent,</text></svg><svg x="2800"><use xlink:href="#a"/><use xlink:href="#b" x="42.996" y="28.198"/><use xlink:href="#1"/><use xlink:href="#2" y="2.171"/><use xlink:href="#3" y="4.342"/><use xlink:href="#4" y="6.513"/><use xlink:href="#5" y="8.684"/><use xlink:href="#6" y="10.855"/><use xlink:href="#7" y="13.026"/><use xlink:href="#8" y="15.197"/><use xlink:href="#9" y="17.368"/><use xlink:href="#10" y="19.539"/><use xlink:href="#11" y="21.71"/><use xlink:href="#12" y="23.881"/><use xlink:href="#13" y="26.052"/><text y="29.893" class="g">9646</text><text x="5.01" y="29.893" class="g">records</text><text x="13.026" y="29.893" class="g">sent,</text><text x="19.038" y="29.893" class="g">1726,2</text><text x="26.052" y="29.893" class="g">records/sec</text><text x="38.076" y="29.893" class="g">(0,20</text></svg><svg x="2940"><use xlink:href="#a"/><use xlink:href="#b" x="52.996" y="28.198"/><use xlink:href="#1"/><use xlink:href="#2" y="2.171"/><use xlink:href="#3" y="4.342"/><use xlink:href="#4" y="6.513"/><use xlink:href="#5" y="8.684"/><use xlink:href="#6" y="10.855"/><use xlink:href="#7" y="13.026"/><use xlink:href="#8" y="15.197"/><use xlink:href="#9" y="17.368"/><use xlink:href="#10" y="19.539"/><use xlink:href="#11" y="21.71"/><use xlink:href="#12" y="23.881"/><use xlink:href="#13" y="26.052"/><text y="29.893" class="g">9646</text><text x="5.01" y="29.893" class="g">records</text><text x="13.026" y="29.893" class="g">sent,</text><text x="19.038" y="29.893" class="g">1726,2</text><text x="26.052" y="29.893" class="g">records/sec</text><text x="38.076" y="29.893" class="g">(0,20</text><text x="44.088" y="29.893" class="g">MB/sec),</text></svg><svg x="3080"><use xlink:href="#a"/><use xlink:href="#b" x="-.004" y="30.369"/><use xlink:href="#1"/><use xlink:href="#2" y="2.171"/><use xlink:href="#3" y="4.342"/><use xlink:href="#4" y="6.513"/><use xlink:href="#5" y="8.684"/><use xlink:href="#6" y="10.855"/><use xlink:href="#7" y="13.026"/><use xlink:href="#8" y="15.197"/><use xlink:href="#9" y="17.368"/><use xlink:href="#10" y="19.539"/><use xlink:href="#11" y="21.71"/><use xlink:href="#12" y="23.881"/><use xlink:href="#13" y="26.052"/><use xlink:href="#14" y="28.223"/></svg><svg x="3220"><use xlink:href="#a"/><use xlink:href="#b" x="-.004" y="32.54"/><use xlink:href="#1"/><use xlink:href="#2" y="2.171"/><use xlink:href="#3" y="4.342"/><use xlink:href="#4" y="6.513"/><use xlink:href="#5" y="8.684"/><use xlink:href="#6" y="10.855"/><use xlink:href="#7" y="13.026"/><use xlink:href="#8" y="15.197"/><use xlink:href="#9" y="17.368"/><use xlink:href="#10" y="19.539"/><use xlink:href="#11" y="21.71"/><use xlink:href="#12" y="23.881"/><use xlink:href="#13" y="26.052"/><use xlink:href="#14" y="28.223"/><use xlink:href="#15" y="30.394"/></svg><svg x="3360"><use xlink:href="#a"/><use xlink:href="#b" x="39.996" y="32.54"/><use xlink:href="#1"/><use xlink:href="#2" y="2.171"/><use xlink:href="#3" y="4.342"/><use xlink:href="#4" y="6.513"/><use xlink:href="#5" y="8.684"/><use xlink:href="#6" y="10.855"/><use xlink:href="#7" y="13.026"/><use xlink:href="#8" y="15.197"/><use xlink:href="#9" y="17.368"/><use xlink:href="#10" y="19.539"/><use xlink:href="#11" y="21.71"/><use xlink:href="#12" y="23.881"/><use xlink:href="#13" y="26.052"/><use xlink:href="#14" y="28.223"/><use xlink:href="#15" y="30.394"/><text y="34.235" class="g">31320</text><text x="6.012" y="34.235" class="g">records</text><text x="14.028" y="34.235" class="g">sent,</text><text x="20.04" y="34.235" class="g">5557,1</text><text x="27.054" y="34.235" class="g">records/sec</text><text x="39.078" y="34.235" class="g">(</text></svg><svg x="3500"><use xlink:href="#a"/><use xlink:href="#b" x="53.996" y="32.54"/><use xlink:href="#1"/><use xlink:href="#2" y="2.171"/><use xlink:href="#3" y="4.342"/><use xlink:href="#4" y="6.513"/><use xlink:href="#5" y="8.684"/><use xlink:href="#6" y="10.855"/><use xlink:href="#7" y="13.026"/><use xlink:href="#8" y="15.197"/><use xlink:href="#9" y="17.368"/><use xlink:href="#10" y="19.539"/><use xlink:href="#11" y="21.71"/><use xlink:href="#12" y="23.881"/><use xlink:href="#13" y="26.052"/><use xlink:href="#14" y="28.223"/><use xlink:href="#15" y="30.394"/><text y="34.235" class="g">31320</text><text x="6.012" y="34.235" class="g">records</text><text x="14.028" y="34.235" class="g">sent,</text><text x="20.04" y="34.235" class="g">5557,1</text><text x="27.054" y="34.235" class="g">records/sec</text><text x="39.078" y="34.235" class="g">(0,65</text><text x="45.09" y="34.235" class="g">MB/sec),</text></svg><svg x="3640"><use xlink:href="#a"/><use xlink:href="#b" x="-.004" y="34.711"/><use xlink:href="#1"/><use xlink:href="#2" y="2.171"/><use xlink:href="#3" y="4.342"/><use xlink:href="#4" y="6.513"/><use xlink:href="#5" y="8.684"/><use xlink:href="#6" y="10.855"/><use xlink:href="#7" y="13.026"/><use xlink:href="#8" y="15.197"/><use xlink:href="#9" y="17.368"/><use xlink:href="#10" y="19.539"/><use xlink:href="#11" y="21.71"/><use xlink:href="#12" y="23.881"/><use xlink:href="#13" y="26.052"/><use xlink:href="#14" y="28.223"/><use xlink:href="#15" y="30.394"/><use xlink:href="#16" y="32.565"/></svg><svg x="3780"><use xlink:href="#a"/><use xlink:href="#b" x="100.996" y="34.711"/><use xlink:href="#1"/><use xlink:href="#2" y="2.171"/><use xlink:href="#3" y="4.342"/><use xlink:href="#4" y="6.513"/><use xlink:href="#5" y="8.684"/><use xlink:href="#6" y="10.855"/><use xlink:href="#7" y="13.026"/><use xlink:href="#8" y="15.197"/><use xlink:href="#9" y="17.368"/><use xlink:href="#10" y="19.539"/><use xlink:href="#11" y="21.71"/><use xlink:href="#12" y="23.881"/><use xlink:href="#13" y="26.052"/><use xlink:href="#14" y="28.223"/><use xlink:href="#15" y="30.394"/><use xlink:href="#16" y="32.565"/><use xlink:href="#17" y="34.736"/></svg><svg x="3920"><use xlink:href="#a"/><use xlink:href="#b" x="-.004" y="36.882"/><use xlink:href="#1"/><use xlink:href="#2" y="2.171"/><use xlink:href="#3" y="4.342"/><use xlink:href="#4" y="6.513"/><use xlink:href="#5" y="8.684"/><use xlink:href="#6" y="10.855"/><use xlink:href="#7" y="13.026"/><use xlink:href="#8" y="15.197"/><use xlink:href="#9" y="17.368"/><use xlink:href="#10" y="19.539"/><use xlink:href="#11" y="21.71"/><use xlink:href="#12" y="23.881"/><use xlink:href="#13" y="26.052"/><use xlink:href="#14" y="28.223"/><use xlink:href="#15" y="30.394"/><use xlink:href="#16" y="32.565"/><use xlink:href="#17" y="34.736"/></svg><svg x="4060"><use xlink:href="#a"/><use xlink:href="#b" x="-.004" y="39.053"/><use xlink:href="#1"/><use xlink:href="#2" y="2.171"/><use xlink:href="#3" y="4.342"/><use xlink:href="#4" y="6.513"/><use xlink:href="#5" y="8.684"/><use xlink:href="#6" y="10.855"/><use xlink:href="#7" y="13.026"/><use xlink:href="#8" y="15.197"/><use xlink:href="#9" y="17.368"/><use xlink:href="#10" y="19.539"/><use xlink:href="#11" y="21.71"/><use xlink:href="#12" y="23.881"/><use xlink:href="#13" y="26.052"/><use xlink:href="#14" y="28.223"/><use xlink:href="#15" y="30.394"/><use xlink:href="#16" y="32.565"/><use xlink:href="#17" y="34.736"/><use xlink:href="#18" y="36.907"/></svg><svg x="4200"><use xlink:href="#a"/><use xlink:href="#b" x="60.996" y="39.053"/><use xlink:href="#1"/><use xlink:href="#2" y="2.171"/><use xlink:href="#3" y="4.342"/><use xlink:href="#4" y="6.513"/><use xlink:href="#5" y="8.684"/><use xlink:href="#6" y="10.855"/><use xlink:href="#7" y="13.026"/><use xlink:href="#8" y="15.197"/><use xlink:href="#9" y="17.368"/><use xlink:href="#10" y="19.539"/><use xlink:href="#11" y="21.71"/><use xlink:href="#12" y="23.881"/><use xlink:href="#13" y="26.052"/><use xlink:href="#14" y="28.223"/><use xlink:href="#15" y="30.394"/><use xlink:href="#16" y="32.565"/><use xlink:href="#17" y="34.736"/><use xlink:href="#18" y="36.907"/><text y="40.748" class="g">39000</text><text x="6.012" y="40.748" class="g">records</text><text x="14.028" y="40.748" class="g">sent,</text><text x="20.04" y="40.748" class="g">7786,0</text><text x="27.054" y="40.748" class="g">records/sec</text><text x="39.078" y="40.748" class="g">(0,91</text><text x="45.09" y="40.748" class="g">MB/sec),</text><text x="54.108" y="40.748" class="g">30360,4</text></svg><svg x="4340"><use xlink:href="#a"/><use xlink:href="#b" x="-.004" y="41.224"/><use xlink:href="#1"/><use xlink:href="#2" y="2.171"/><use xlink:href="#3" y="4.342"/><use xlink:href="#4" y="6.513"/><use xlink:href="#5" y="8.684"/><use xlink:href="#6" y="10.855"/><use xlink:href="#7" y="13.026"/><use xlink:href="#8" y="15.197"/><use xlink:href="#9" y="17.368"/><use xlink:href="#10" y="19.539"/><use xlink:href="#11" y="21.71"/><use xlink:href="#12" y="23.881"/><use xlink:href="#13" y="26.052"/><use xlink:href="#14" y="28.223"/><use xlink:href="#15" y="30.394"/><use xlink:href="#16" y="32.565"/><use xlink:href="#17" y="34.736"/><use xlink:href="#18" y="36.907"/><use xlink:href="#19" y="39.078"/></svg><svg x="4480"><use xlink:href="#a"/><use xlink:href="#b" x="19.996" y="41.224"/><use xlink:href="#1"/><use xlink:href="#2" y="2.171"/><use xlink:href="#3" y="4.342"/><use xlink:href="#4" y="6.513"/><use xlink:href="#5" y="8.684"/><use xlink:href="#6" y="10.855"/><use xlink:href="#7" y="13.026"/><use xlink:href="#8" y="15.197"/><use xlink:href="#9" y="17.368"/><use xlink:href="#10" y="19.539"/><use xlink:href="#11" y="21.71"/><use xlink:href="#12" y="23.881"/><use xlink:href="#13" y="26.052"/><use xlink:href="#14" y="28.223"/><use xlink:href="#15" y="30.394"/><use xlink:href="#16" y="32.565"/><use xlink:href="#17" y="34.736"/><use xlink:href="#18" y="36.907"/><use xlink:href="#19" y="39.078"/><text y="42.919" class="g">77760</text><text x="6.012" y="42.919" class="g">records</text><text x="14.028" y="42.919" class="g">sent,</text></svg><svg x="4620"><use xlink:href="#a"/><use xlink:href="#b" x="40.996" y="41.224"/><use xlink:href="#1"/><use xlink:href="#2" y="2.171"/><use xlink:href="#3" y="4.342"/><use xlink:href="#4" y="6.513"/><use xlink:href="#5" y="8.684"/><use xlink:href="#6" y="10.855"/><use xlink:href="#7" y="13.026"/><use xlink:href="#8" y="15.197"/><use xlink:href="#9" y="17.368"/><use xlink:href="#10" y="19.539"/><use xlink:href="#11" y="21.71"/><use xlink:href="#12" y="23.881"/><use xlink:href="#13" y="26.052"/><use xlink:href="#14" y="28.223"/><use xlink:href="#15" y="30.394"/><use xlink:href="#16" y="32.565"/><use xlink:href="#17" y="34.736"/><use xlink:href="#18" y="36.907"/><use xlink:href="#19" y="39.078"/><text y="42.919" class="g">77760</text><text x="6.012" y="42.919" class="g">records</text><text x="14.028" y="42.919" class="g">sent,</text><text x="20.04" y="42.919" class="g">15502,4</text><text x="28.056" y="42.919" class="g">records/sec</text><text x="40.08" y="42.919" class="g">(</text></svg><svg x="4760"><use xlink:href="#a"/><use xlink:href="#b" x="78.996" y="41.224"/><use xlink:href="#1"/><use xlink:href="#2" y="2.171"/><use xlink:href="#3" y="4.342"/><use xlink:href="#4" y="6.513"/><use xlink:href="#5" y="8.684"/><use xlink:href="#6" y="10.855"/><use xlink:href="#7" y="13.026"/><use xlink:href="#8" y="15.197"/><use xlink:href="#9" y="17.368"/><use xlink:href="#10" y="19.539"/><use xlink:href="#11" y="21.71"/><use xlink:href="#12" y="23.881"/><use xlink:href="#13" y="26.052"/><use xlink:href="#14" y="28.223"/><use xlink:href="#15" y="30.394"/><use xlink:href="#16" y="32.565"/><use xlink:href="#17" y="34.736"/><use xlink:href="#18" y="36.907"/><use xlink:href="#19" y="39.078"/><text y="42.919" class="g">77760</text><text x="6.012" y="42.919" class="g">records</text><text x="14.028" y="42.919" class="g">sent,</text><text x="20.04" y="42.919" class="g">15502,4</text><text x="28.056" y="42.919" class="g">records/sec</text><text x="40.08" y="42.919" class="g">(1,82</text><text x="46.092" y="42.919" class="g">MB/sec),</text><text x="55.11" y="42.919" class="g">36283,4</text><text x="63.126" y="42.919" class="g">ms</text><text x="66.132" y="42.919" class="g">avg</text><text x="70.14" y="42.919" class="g">latency,</text></svg><svg x="4900"><use xlink:href="#a"/><use xlink:href="#b" x="-.004" y="43.395"/><use xlink:href="#1"/><use xlink:href="#2" y="2.171"/><use xlink:href="#3" y="4.342"/><use xlink:href="#4" y="6.513"/><use xlink:href="#5" y="8.684"/><use xlink:href="#6" y="10.855"/><use xlink:href="#7" y="13.026"/><use xlink:href="#8" y="15.197"/><use xlink:href="#9" y="17.368"/><use xlink:href="#10" y="19.539"/><use xlink:href="#11" y="21.71"/><use xlink:href="#12" y="23.881"/><use xlink:href="#13" y="26.052"/><use xlink:href="#14" y="28.223"/><use xlink:href="#15" y="30.394"/><use xlink:href="#16" y="32.565"/><use xlink:href="#17" y="34.736"/><use xlink:href="#18" y="36.907"/><use xlink:href="#19" y="39.078"/><use xlink:href="#20" y="41.249"/></svg><svg x="5040"><use xlink:href="#a"/><use xlink:href="#b" x="20.996" y="43.395"/><use xlink:href="#1"/><use xlink:href="#2" y="2.171"/><use xlink:href="#3" y="4.342"/><use xlink:href="#4" y="6.513"/><use xlink:href="#5" y="8.684"/><use xlink:href="#6" y="10.855"/><use xlink:href="#7" y="13.026"/><use xlink:href="#8" y="15.197"/><use xlink:href="#9" y="17.368"/><use xlink:href="#10" y="19.539"/><use xlink:href="#11" y="21.71"/><use xlink:href="#12" y="23.881"/><use xlink:href="#13" y="26.052"/><use xlink:href="#14" y="28.223"/><use xlink:href="#15" y="30.394"/><use xlink:href="#16" y="32.565"/><use xlink:href="#17" y="34.736"/><use xlink:href="#18" y="36.907"/><use xlink:href="#19" y="39.078"/><use xlink:href="#20" y="41.249"/><text y="45.09" class="g">161194</text><text x="7.014" y="45.09" class="g">records</text><text x="15.03" y="45.09" class="g">sent,</text></svg><svg x="5180"><use xlink:href="#a"/><use xlink:href="#b" x="-.004" y="43.395"/><use xlink:href="#2"/><use xlink:href="#3" y="2.171"/><use xlink:href="#4" y="4.342"/><use xlink:href="#5" y="6.513"/><use xlink:href="#6" y="8.684"/><use xlink:href="#7" y="10.855"/><use xlink:href="#8" y="13.026"/><use xlink:href="#9" y="15.197"/><use xlink:href="#10" y="17.368"/><use xlink:href="#11" y="19.539"/><use xlink:href="#12" y="21.71"/><use xlink:href="#13" y="23.881"/><use xlink:href="#14" y="26.052"/><use xlink:href="#15" y="28.223"/><use xlink:href="#16" y="30.394"/><use xlink:href="#17" y="32.565"/><use xlink:href="#18" y="34.736"/><use xlink:href="#19" y="36.907"/><use xlink:href="#20" y="39.078"/><use xlink:href="#21" y="41.249"/></svg><svg x="5320"><use xlink:href="#a"/><use xlink:href="#b" x="-.004" y="43.395"/><use xlink:href="#3"/><use xlink:href="#4" y="2.171"/><use xlink:href="#5" y="4.342"/><use xlink:href="#6" y="6.513"/><use xlink:href="#7" y="8.684"/><use xlink:href="#8" y="10.855"/><use xlink:href="#9" y="13.026"/><use xlink:href="#10" y="15.197"/><use xlink:href="#11" y="17.368"/><use xlink:href="#12" y="19.539"/><use xlink:href="#13" y="21.71"/><use xlink:href="#14" y="23.881"/><use xlink:href="#15" y="26.052"/><use xlink:href="#16" y="28.223"/><use xlink:href="#17" y="30.394"/><use xlink:href="#18" y="32.565"/><use xlink:href="#19" y="34.736"/><use xlink:href="#20" y="36.907"/><use xlink:href="#21" y="39.078"/><use xlink:href="#22" y="41.249"/></svg><svg x="5460"><use xlink:href="#a"/><use xlink:href="#b" x="-.004" y="43.395"/><use xlink:href="#4"/><use xlink:href="#5" y="2.171"/><use xlink:href="#6" y="4.342"/><use xlink:href="#7" y="6.513"/><use xlink:href="#8" y="8.684"/><use xlink:href="#9" y="10.855"/><use xlink:href="#10" y="13.026"/><use xlink:href="#11" y="15.197"/><use xlink:href="#12" y="17.368"/><use xlink:href="#13" y="19.539"/><use xlink:href="#14" y="21.71"/><use xlink:href="#15" y="23.881"/><use xlink:href="#16" y="26.052"/><use xlink:href="#17" y="28.223"/><use xlink:href="#18" y="30.394"/><use xlink:href="#19" y="32.565"/><use xlink:href="#20" y="34.736"/><use xlink:href="#21" y="36.907"/><use xlink:href="#22" y="39.078"/><use xlink:href="#23" y="41.249"/></svg><svg x="5600"><use xlink:href="#a"/><use xlink:href="#b" x="-.004" y="43.395"/><use xlink:href="#5"/><use xlink:href="#6" y="2.171"/><use xlink:href="#7" y="4.342"/><use xlink:href="#8" y="6.513"/><use xlink:href="#9" y="8.684"/><use xlink:href="#10" y="10.855"/><use xlink:href="#11" y="13.026"/><use xlink:href="#12" y="15.197"/><use xlink:href="#13" y="17.368"/><use xlink:href="#14" y="19.539"/><use xlink:href="#15" y="21.71"/><use xlink:href="#16" y="23.881"/><use xlink:href="#17" y="26.052"/><use xlink:href="#18" y="28.223"/><use xlink:href="#19" y="30.394"/><use xlink:href="#20" y="32.565"/><use xlink:href="#21" y="34.736"/><use xlink:href="#22" y="36.907"/><use xlink:href="#23" y="39.078"/><use xlink:href="#24" y="41.249"/></svg><svg x="5740"><use xlink:href="#a"/><use xlink:href="#b" x="33.996" y="43.395"/><use xlink:href="#5"/><use xlink:href="#6" y="2.171"/><use xlink:href="#7" y="4.342"/><use xlink:href="#8" y="6.513"/><use xlink:href="#9" y="8.684"/><use xlink:href="#10" y="10.855"/><use xlink:href="#11" y="13.026"/><use xlink:href="#12" y="15.197"/><use xlink:href="#13" y="17.368"/><use xlink:href="#14" y="19.539"/><use xlink:href="#15" y="21.71"/><use xlink:href="#16" y="23.881"/><use xlink:href="#17" y="26.052"/><use xlink:href="#18" y="28.223"/><use xlink:href="#19" y="30.394"/><use xlink:href="#20" y="32.565"/><use xlink:href="#21" y="34.736"/><use xlink:href="#22" y="36.907"/><use xlink:href="#23" y="39.078"/><use xlink:href="#24" y="41.249"/><text y="45.09" class="g">1000000</text><text x="8.016" y="45.09" class="g">records</text><text x="16.032" y="45.09" class="g">sent,</text><text x="22.044" y="45.09" class="g">16135,017829</text></svg><svg x="5880"><use xlink:href="#a"/><use xlink:href="#b" x="86.996" y="43.395"/><use xlink:href="#5"/><use xlink:href="#6" y="2.171"/><use xlink:href="#7" y="4.342"/><use xlink:href="#8" y="6.513"/><use xlink:href="#9" y="8.684"/><use xlink:href="#10" y="10.855"/><use xlink:href="#11" y="13.026"/><use xlink:href="#12" y="15.197"/><use xlink:href="#13" y="17.368"/><use xlink:href="#14" y="19.539"/><use xlink:href="#15" y="21.71"/><use xlink:href="#16" y="23.881"/><use xlink:href="#17" y="26.052"/><use xlink:href="#18" y="28.223"/><use xlink:href="#19" y="30.394"/><use xlink:href="#20" y="32.565"/><use xlink:href="#21" y="34.736"/><use xlink:href="#22" y="36.907"/><use xlink:href="#23" y="39.078"/><use xlink:href="#24" y="41.249"/><text y="45.09" class="g">1000000</text><text x="8.016" y="45.09" class="g">records</text><text x="16.032" y="45.09" class="g">sent,</text><text x="22.044" y="45.09" class="g">16135,017829</text><text x="35.07" y="45.09" class="g">records/sec</text><text x="47.094" y="45.09" class="g">(1,89</text><text x="53.106" y="45.09" class="g">MB/sec),</text><text x="62.124" y="45.09" class="g">33914,69</text><text x="71.142" y="45.09" class="g">ms</text><text x="74.148" y="45.09" class="g">avg</text><text x="78.156" y="45.09" class="g">latency,</text></svg><svg x="6020"><use xlink:href="#a"/><use xlink:href="#b" x="111.996" y="43.395"/><use xlink:href="#5"/><use xlink:href="#6" y="2.171"/><use xlink:href="#7" y="4.342"/><use xlink:href="#8" y="6.513"/><use xlink:href="#9" y="8.684"/><use xlink:href="#10" y="10.855"/><use xlink:href="#11" y="13.026"/><use xlink:href="#12" y="15.197"/><use xlink:href="#13" y="17.368"/><use xlink:href="#14" y="19.539"/><use xlink:href="#15" y="21.71"/><use xlink:href="#16" y="23.881"/><use xlink:href="#17" y="26.052"/><use xlink:href="#18" y="28.223"/><use xlink:href="#19" y="30.394"/><use xlink:href="#20" y="32.565"/><use xlink:href="#21" y="34.736"/><use xlink:href="#22" y="36.907"/><use xlink:href="#23" y="39.078"/><use xlink:href="#24" y="41.249"/><text y="45.09" class="g">1000000</text><text x="8.016" y="45.09" class="g">records</text><text x="16.032" y="45.09" class="g">sent,</text><text x="22.044" y="45.09" class="g">16135,017829</text><text x="35.07" y="45.09" class="g">records/sec</text><text x="47.094" y="45.09" class="g">(1,89</text><text x="53.106" y="45.09" class="g">MB/sec),</text><text x="62.124" y="45.09" class="g">33914,69</text><text x="71.142" y="45.09" class="g">ms</text><text x="74.148" y="45.09" class="g">avg</text><text x="78.156" y="45.09" class="g">latency,</text><text x="87.174" y="45.09" class="g">42370,00</text><text x="96.192" y="45.09" class="g">ms</text><text x="99.198" y="45.09" class="g">max</text><text x="103.206" y="45.09" class="g">latency,</text></svg><svg x="6160"><use xlink:href="#a"/><use xlink:href="#b" x="-.004" y="43.395"/><use xlink:href="#7"/><use xlink:href="#8" y="2.171"/><use xlink:href="#9" y="4.342"/><use xlink:href="#10" y="6.513"/><use xlink:href="#11" y="8.684"/><use xlink:href="#12" y="10.855"/><use xlink:href="#13" y="13.026"/><use xlink:href="#14" y="15.197"/><use xlink:href="#15" y="17.368"/><use xlink:href="#16" y="19.539"/><use xlink:href="#17" y="21.71"/><use xlink:href="#18" y="23.881"/><use xlink:href="#19" y="26.052"/><use xlink:href="#20" y="28.223"/><use xlink:href="#21" y="30.394"/><use xlink:href="#22" y="32.565"/><use xlink:href="#23" y="34.736"/><use xlink:href="#24" y="36.907"/><text y="40.748" class="g">1000000</text><text x="8.016" y="40.748" class="g">records</text><text x="16.032" y="40.748" class="g">sent,</text><text x="22.044" y="40.748" class="g">16135,017829</text><text x="35.07" y="40.748" class="g">records/sec</text><text x="47.094" y="40.748" class="g">(1,89</text><text x="53.106" y="40.748" class="g">MB/sec),</text><text x="62.124" y="40.748" class="g">33914,69</text><text x="71.142" y="40.748" class="g">ms</text><text x="74.148" y="40.748" class="g">avg</text><text x="78.156" y="40.748" class="g">latency,</text><text x="87.174" y="40.748" class="g">42370,00</text><text x="96.192" y="40.748" class="g">ms</text><text x="99.198" y="40.748" class="g">max</text><text x="103.206" y="40.748" class="g">latency,</text><text x="112.224" y="40.748" class="g">35729</text><text x="118.236" y="40.748" class="g">ms</text><text x="121.242" y="40.748" class="g">50th,</text><text x="127.254" y="40.748" class="g">41585</text><text x="133.266" y="40.748" class="g">ms</text><text x="136.272" y="40.748" class="g">95th</text><text y="42.919" class="g">,</text><text x="2.004" y="42.919" class="g">42143</text><text x="8.016" y="42.919" class="g">ms</text><text x="11.022" y="42.919" class="g">99th,</text><text x="17.034" y="42.919" class="g">42367</text><text x="23.046" y="42.919" class="g">ms</text><text x="26.052" y="42.919" class="g">99.9th.</text></svg></svg></g></g></svg></svg>