<svg xmlns="http://www.w3.org/2000/svg" xmlns:xlink="http://www.w3.org/1999/xlink" width="1440" height="494.2"><rect width="1440" height="494.2" rx="5" ry="5" class="a"/><svg y="0%" x="0%"><circle cx="20" cy="20" r="6" fill="#ff5f58"/><circle cx="40" cy="20" r="6" fill="#ffbd2e"/><circle cx="60" cy="20" r="6" fill="#18c132"/></svg><svg height="434.2" viewBox="0 0 140 43.42" width="1400" x="15" xmlns="http://www.w3.org/2000/svg" xmlns:xlink="http://www.w3.org/1999/xlink" y="50"><style>@keyframes i{0%{transform:translateX(0)}.6%{transform:translateX(-140px)}.8%{transform:translateX(-280px)}10.1%{transform:translateX(-420px)}14.8%{transform:translateX(-560px)}19.2%{transform:translateX(-700px)}23.9%{transform:translateX(-840px)}28.4%{transform:translateX(-980px)}33%{transform:translateX(-1120px)}37.6%{transform:translateX(-1260px)}42.6%{transform:translateX(-1400px)}47.3%{transform:translateX(-1540px)}52%{transform:translateX(-1680px)}57.3%{transform:translateX(-1820px)}61.9%{transform:translateX(-1960px)}66.6%{transform:translateX(-2100px)}71.5%{transform:translateX(-2240px)}76.2%{transform:translateX(-2380px)}80.9%{transform:translateX(-2520px)}85.6%{transform:translateX(-2660px)}90.3%{transform:translateX(-2800px)}95.1%{transform:translateX(-2940px)}95.2%{transform:translateX(-3080px)}to{transform:translateX(-3220px)}}.a{fill:#282d35}.f{fill:#fff;white-space:pre}.k{fill:#b9bfca;font-weight:700}.k,.l,.m,.n,.o{white-space:pre}.l{fill:#71bef2;font-weight:700}.m,.n,.o{fill:#a8cc8c}.n,.o{fill:#6f7783}.o{fill:#b9bfca}</style><g font-family="Monaco,Consolas,Menlo,'Bitstream Vera Sans Mono','Powerline Symbols',monospace" font-size="1.67"><defs><symbol id="1"><text y="1.67" class="f">curl</text><text x="5.01" y="1.67" class="f">\</text></symbol><symbol id="2"><text x="4.008" y="1.67" class="f">--silent</text><text x="13.026" y="1.67" class="f">\</text></symbol><symbol id="3"><text x="4.008" y="1.67" class="f">--request</text><text x="14.028" y="1.67" class="f">GET</text><text x="18.036" y="1.67" class="f">&quot;http://localhost:8888/admin/interceptors/v1/vcluster/teamA/interceptors&quot;</text><text x="92.184" y="1.67" class="f">\</text></symbol><symbol id="4"><text x="4.008" y="1.67" class="f">--user</text><text x="11.022" y="1.67" class="f">&quot;admin:conduktor&quot;</text><text x="29.058" y="1.67" class="f">\</text></symbol><symbol id="5"><text x="4.008" y="1.67" class="f">--header</text><text x="13.026" y="1.67" class="f">&apos;Content-Type:</text><text x="28.056" y="1.67" class="f">application/json&apos;</text><text x="46.092" y="1.67" class="f">|</text><text x="48.096" y="1.67" class="f">jq</text></symbol><symbol id="a"><path fill="transparent" d="M0 0h140v21H0z"/></symbol><symbol id="b"><path fill="#6f7683" d="M0 0h1.102v2.171H0z"/></symbol></defs><path class="a" d="M0 0h140v43.42H0z"/><g style="animation-duration:2.021867s;animation-iteration-count:infinite;animation-name:i;animation-timing-function:steps(1,end)"><svg width="3360"><svg><use xlink:href="#a"/><use xlink:href="#b" x="-.004"/></svg><svg x="140"><use xlink:href="#a"/><use xlink:href="#b" x="-.004"/></svg><svg x="280"><use xlink:href="#a"/><use xlink:href="#b" x="2.996" y="2.146"/><use xlink:href="#1"/></svg><svg x="420"><use xlink:href="#a"/><use xlink:href="#b" x="12.996" y="2.146"/><use xlink:href="#1"/><text x="4.008" y="3.841" class="f">--silent</text></svg><svg x="560"><use xlink:href="#a"/><use xlink:href="#b" x="7.996" y="4.317"/><use xlink:href="#1"/><use xlink:href="#2" y="2.171"/><text x="4.008" y="6.012" class="f">--re</text></svg><svg x="700"><use xlink:href="#a"/><use xlink:href="#b" x="17.996" y="4.317"/><use xlink:href="#1"/><use xlink:href="#2" y="2.171"/><text x="4.008" y="6.012" class="f">--request</text><text x="14.028" y="6.012" class="f">GET</text></svg><svg x="840"><use xlink:href="#a"/><use xlink:href="#b" x="27.996" y="4.317"/><use xlink:href="#1"/><use xlink:href="#2" y="2.171"/><text x="4.008" y="6.012" class="f">--request</text><text x="14.028" y="6.012" class="f">GET</text><text x="18.036" y="6.012" class="f">&quot;http://lo</text></svg><svg x="980"><use xlink:href="#a"/><use xlink:href="#b" x="37.996" y="4.317"/><use xlink:href="#1"/><use xlink:href="#2" y="2.171"/><text x="4.008" y="6.012" class="f">--request</text><text x="14.028" y="6.012" class="f">GET</text><text x="18.036" y="6.012" class="f">&quot;http://localhost:88</text></svg><svg x="1120"><use xlink:href="#a"/><use xlink:href="#b" x="47.996" y="4.317"/><use xlink:href="#1"/><use xlink:href="#2" y="2.171"/><text x="4.008" y="6.012" class="f">--request</text><text x="14.028" y="6.012" class="f">GET</text><text x="18.036" y="6.012" class="f">&quot;http://localhost:8888/admin/i</text></svg><svg x="1260"><use xlink:href="#a"/><use xlink:href="#b" x="57.996" y="4.317"/><use xlink:href="#1"/><use xlink:href="#2" y="2.171"/><text x="4.008" y="6.012" class="f">--request</text><text x="14.028" y="6.012" class="f">GET</text><text x="18.036" y="6.012" class="f">&quot;http://localhost:8888/admin/interceptor</text></svg><svg x="1400"><use xlink:href="#a"/><use xlink:href="#b" x="67.996" y="4.317"/><use xlink:href="#1"/><use xlink:href="#2" y="2.171"/><text x="4.008" y="6.012" class="f">--request</text><text x="14.028" y="6.012" class="f">GET</text><text x="18.036" y="6.012" class="f">&quot;http://localhost:8888/admin/interceptors/v1/vclus</text></svg><svg x="1540"><use xlink:href="#a"/><use xlink:href="#b" x="77.996" y="4.317"/><use xlink:href="#1"/><use xlink:href="#2" y="2.171"/><text x="4.008" y="6.012" class="f">--request</text><text x="14.028" y="6.012" class="f">GET</text><text x="18.036" y="6.012" class="f">&quot;http://localhost:8888/admin/interceptors/v1/vcluster/teamA/</text></svg><svg x="1680"><use xlink:href="#a"/><use xlink:href="#b" x="87.996" y="4.317"/><use xlink:href="#1"/><use xlink:href="#2" y="2.171"/><text x="4.008" y="6.012" class="f">--request</text><text x="14.028" y="6.012" class="f">GET</text><text x="18.036" y="6.012" class="f">&quot;http://localhost:8888/admin/interceptors/v1/vcluster/teamA/intercepto</text></svg><svg x="1820"><use xlink:href="#a"/><use xlink:href="#b" x="3.996" y="6.488"/><use xlink:href="#1"/><use xlink:href="#2" y="2.171"/><use xlink:href="#3" y="4.342"/></svg><svg x="1960"><use xlink:href="#a"/><use xlink:href="#b" x="13.996" y="6.488"/><use xlink:href="#1"/><use xlink:href="#2" y="2.171"/><use xlink:href="#3" y="4.342"/><text x="4.008" y="8.183" class="f">--user</text><text x="11.022" y="8.183" class="f">&quot;ad</text></svg><svg x="2100"><use xlink:href="#a"/><use xlink:href="#b" x="23.996" y="6.488"/><use xlink:href="#1"/><use xlink:href="#2" y="2.171"/><use xlink:href="#3" y="4.342"/><text x="4.008" y="8.183" class="f">--user</text><text x="11.022" y="8.183" class="f">&quot;admin:conduk</text></svg><svg x="2240"><use xlink:href="#a"/><use xlink:href="#b" x="2.996" y="8.659"/><use xlink:href="#1"/><use xlink:href="#2" y="2.171"/><use xlink:href="#3" y="4.342"/><use xlink:href="#4" y="6.513"/></svg><svg x="2380"><use xlink:href="#a"/><use xlink:href="#b" x="12.996" y="8.659"/><use xlink:href="#1"/><use xlink:href="#2" y="2.171"/><use xlink:href="#3" y="4.342"/><use xlink:href="#4" y="6.513"/><text x="4.008" y="10.354" class="f">--header</text></svg><svg x="2520"><use xlink:href="#a"/><use xlink:href="#b" x="22.996" y="8.659"/><use xlink:href="#1"/><use xlink:href="#2" y="2.171"/><use xlink:href="#3" y="4.342"/><use xlink:href="#4" y="6.513"/><text x="4.008" y="10.354" class="f">--header</text><text x="13.026" y="10.354" class="f">&apos;Content-T</text></svg><svg x="2660"><use xlink:href="#a"/><use xlink:href="#b" x="32.996" y="8.659"/><use xlink:href="#1"/><use xlink:href="#2" y="2.171"/><use xlink:href="#3" y="4.342"/><use xlink:href="#4" y="6.513"/><text x="4.008" y="10.354" class="f">--header</text><text x="13.026" y="10.354" class="f">&apos;Content-Type:</text><text x="28.056" y="10.354" class="f">appli</text></svg><svg x="2800"><use xlink:href="#a"/><use xlink:href="#b" x="42.996" y="8.659"/><use xlink:href="#1"/><use xlink:href="#2" y="2.171"/><use xlink:href="#3" y="4.342"/><use xlink:href="#4" y="6.513"/><text x="4.008" y="10.354" class="f">--header</text><text x="13.026" y="10.354" class="f">&apos;Content-Type:</text><text x="28.056" y="10.354" class="f">application/jso</text></svg><svg x="2940"><use xlink:href="#a"/><use xlink:href="#b" x="-.004" y="10.83"/><use xlink:href="#1"/><use xlink:href="#2" y="2.171"/><use xlink:href="#3" y="4.342"/><use xlink:href="#4" y="6.513"/><use xlink:href="#5" y="8.684"/></svg><svg x="3080"><use xlink:href="#a"/><use xlink:href="#b" x="-.004" y="13.001"/><use xlink:href="#1"/><use xlink:href="#2" y="2.171"/><use xlink:href="#3" y="4.342"/><use xlink:href="#4" y="6.513"/><use xlink:href="#5" y="8.684"/></svg><svg x="3220"><use xlink:href="#a"/><use xlink:href="#b" x="-.004" y="43.395"/><use xlink:href="#2"/><use xlink:href="#3" y="2.171"/><use xlink:href="#4" y="4.342"/><use xlink:href="#5" y="6.513"/><text y="12.525" class="k">{</text><text x="2.004" y="14.696" class="l">&quot;interceptors&quot;</text><text x="16.032" y="14.696" class="k">:</text><text x="18.036" y="14.696" class="k">[</text><text x="4.008" y="16.867" class="k">{</text><text x="6.012" y="19.038" class="l">&quot;name&quot;</text><text x="12.024" y="19.038" class="k">:</text><text x="14.028" y="19.038" class="m">&quot;schema-id&quot;</text><text x="25.05" y="19.038" class="k">,</text><text x="6.012" y="21.209" class="l">&quot;pluginClass&quot;</text><text x="19.038" y="21.209" class="k">:</text><text x="21.042" y="21.209" class="m">&quot;io.conduktor.gateway.interceptor.safeguard.TopicRequiredSchemaIdPolicyPlugin&quot;</text><text x="99.198" y="21.209" class="k">,</text><text x="6.012" y="23.38" class="l">&quot;apiKey&quot;</text><text x="14.028" y="23.38" class="k">:</text><text x="16.032" y="23.38" class="n">null</text><text x="20.04" y="23.38" class="k">,</text><text x="6.012" y="25.551" class="l">&quot;priority&quot;</text><text x="16.032" y="25.551" class="k">:</text><text x="18.036" y="25.551" class="o">100</text><text x="21.042" y="25.551" class="k">,</text><text x="6.012" y="27.722" class="l">&quot;timeoutMs&quot;</text><text x="17.034" y="27.722" class="k">:</text><text x="19.038" y="27.722" class="n">null</text><text x="23.046" y="27.722" class="k">,</text><text x="6.012" y="29.893" class="l">&quot;config&quot;</text><text x="14.028" y="29.893" class="k">:</text><text x="16.032" y="29.893" class="k">{</text><text x="8.016" y="32.064" class="l">&quot;topic&quot;</text><text x="15.03" y="32.064" class="k">:</text><text x="17.034" y="32.064" class="m">&quot;users&quot;</text><text x="24.048" y="32.064" class="k">,</text><text x="8.016" y="34.235" class="l">&quot;schemaIdRequired&quot;</text><text x="26.052" y="34.235" class="k">:</text><text x="28.056" y="34.235" class="o">true</text><text x="6.012" y="36.406" class="k">}</text><text x="4.008" y="38.577" class="k">}</text><text x="2.004" y="40.748" class="k">]</text><text y="42.919" class="k">}</text></svg></svg></g></g></svg></svg>