<svg xmlns="http://www.w3.org/2000/svg" xmlns:xlink="http://www.w3.org/1999/xlink" width="1440" height="494.2"><rect width="1440" height="494.2" rx="5" ry="5" class="a"/><svg y="0%" x="0%"><circle cx="20" cy="20" r="6" fill="#ff5f58"/><circle cx="40" cy="20" r="6" fill="#ffbd2e"/><circle cx="60" cy="20" r="6" fill="#18c132"/></svg><svg height="434.2" viewBox="0 0 140 43.42" width="1400" x="15" xmlns="http://www.w3.org/2000/svg" xmlns:xlink="http://www.w3.org/1999/xlink" y="50"><style>@keyframes j{0%{transform:translateX(0)}.6%{transform:translateX(-140px)}.7%{transform:translateX(-280px)}6.8%{transform:translateX(-420px)}10%{transform:translateX(-560px)}13.1%{transform:translateX(-700px)}16.2%{transform:translateX(-840px)}19.5%{transform:translateX(-980px)}22.6%{transform:translateX(-1120px)}25.8%{transform:translateX(-1260px)}28.9%{transform:translateX(-1400px)}32.1%{transform:translateX(-1540px)}35.3%{transform:translateX(-1680px)}38.4%{transform:translateX(-1820px)}41.5%{transform:translateX(-1960px)}48%{transform:translateX(-2100px)}51.1%{transform:translateX(-2240px)}54.3%{transform:translateX(-2380px)}57.4%{transform:translateX(-2520px)}60.6%{transform:translateX(-2660px)}63.8%{transform:translateX(-2800px)}67%{transform:translateX(-2940px)}67.1%{transform:translateX(-3080px)}to{transform:translateX(-3500px)}}.a{fill:#282d35}.f,.g{fill:#fff;white-space:pre}.g{fill:#b9c0cb}</style><g font-family="Monaco,Consolas,Menlo,'Bitstream Vera Sans Mono','Powerline Symbols',monospace" font-size="1.67"><defs><symbol id="1"><text y="1.67" class="f">echo</text><text x="5.01" y="1.67" class="f">&apos;{</text></symbol><symbol id="2"><text x="4.008" y="1.67" class="f">&quot;name&quot;:</text><text x="12.024" y="1.67" class="f">&quot;conduktor&quot;,</text></symbol><symbol id="3"><text x="4.008" y="1.67" class="f">&quot;username&quot;:</text><text x="16.032" y="1.67" class="f">&quot;test@conduktor.io&quot;,</text></symbol><symbol id="4"><text x="4.008" y="1.67" class="f">&quot;password&quot;:</text><text x="16.032" y="1.67" class="f">&quot;password1&quot;,</text></symbol><symbol id="5"><text x="4.008" y="1.67" class="f">&quot;visa&quot;:</text><text x="12.024" y="1.67" class="f">&quot;visa123456&quot;,</text></symbol><symbol id="6"><text x="4.008" y="1.67" class="f">&quot;address&quot;:</text><text x="15.03" y="1.67" class="f">&quot;Conduktor</text><text x="26.052" y="1.67" class="f">Towers,</text><text x="34.068" y="1.67" class="f">London&quot;</text></symbol><symbol id="7"><text y="1.67" class="f">}&apos;</text><text x="3.006" y="1.67" class="f">|</text><text x="5.01" y="1.67" class="f">\</text></symbol><symbol id="8"><text x="2.004" y="1.67" class="f">jq</text><text x="5.01" y="1.67" class="f">-c</text><text x="8.016" y="1.67" class="f">|</text><text x="10.02" y="1.67" class="f">\</text></symbol><symbol id="9"><text x="6.012" y="1.67" class="f">kafka-json-schema-console-producer</text><text x="42.084" y="1.67" class="f">\</text></symbol><symbol id="10"><text x="8.016" y="1.67" class="f">--bootstrap-server</text><text x="27.054" y="1.67" class="f">localhost:6969</text><text x="42.084" y="1.67" class="f">\</text></symbol><symbol id="11"><text x="8.016" y="1.67" class="f">--producer.config</text><text x="26.052" y="1.67" class="f">teamA-sa.properties</text><text x="46.092" y="1.67" class="f">\</text></symbol><symbol id="12"><text x="8.016" y="1.67" class="f">--topic</text><text x="16.032" y="1.67" class="f">users</text><text x="22.044" y="1.67" class="f">\</text></symbol><symbol id="13"><text x="8.016" y="1.67" class="f">--property</text><text x="19.038" y="1.67" class="f">schema.registry.url=http://localhost:8081</text><text x="61.122" y="1.67" class="f">\</text></symbol><symbol id="14"><text x="8.016" y="1.67" class="f">--property</text><text x="19.038" y="1.67" class="f">value.schema=&apos;{</text></symbol><symbol id="15"><text x="12.024" y="1.67" class="f">&quot;title&quot;:</text><text x="21.042" y="1.67" class="f">&quot;User&quot;,</text></symbol><symbol id="16"><text x="12.024" y="1.67" class="f">&quot;type&quot;:</text><text x="20.04" y="1.67" class="f">&quot;object&quot;,</text></symbol><symbol id="17"><text x="12.024" y="1.67" class="f">&quot;properties&quot;:</text><text x="26.052" y="1.67" class="f">{</text></symbol><symbol id="18"><text x="16.032" y="1.67" class="f">&quot;name&quot;:</text><text x="24.048" y="1.67" class="f">{</text><text x="26.052" y="1.67" class="f">&quot;type&quot;:</text><text x="34.068" y="1.67" class="f">&quot;string&quot;</text><text x="43.086" y="1.67" class="f">},</text></symbol><symbol id="19"><text x="16.032" y="1.67" class="f">&quot;username&quot;:</text><text x="28.056" y="1.67" class="f">{</text><text x="30.06" y="1.67" class="f">&quot;type&quot;:</text><text x="38.076" y="1.67" class="f">&quot;string&quot;</text><text x="47.094" y="1.67" class="f">},</text></symbol><symbol id="20"><text x="16.032" y="1.67" class="f">&quot;password&quot;:</text><text x="28.056" y="1.67" class="f">{</text><text x="30.06" y="1.67" class="f">&quot;type&quot;:</text><text x="38.076" y="1.67" class="f">&quot;string&quot;</text><text x="47.094" y="1.67" class="f">},</text></symbol><symbol id="21"><text x="16.032" y="1.67" class="f">&quot;visa&quot;:</text><text x="24.048" y="1.67" class="f">{</text><text x="26.052" y="1.67" class="f">&quot;type&quot;:</text><text x="34.068" y="1.67" class="f">&quot;string&quot;</text><text x="43.086" y="1.67" class="f">},</text></symbol><symbol id="22"><text x="16.032" y="1.67" class="f">&quot;address&quot;:</text><text x="27.054" y="1.67" class="f">{</text><text x="29.058" y="1.67" class="f">&quot;type&quot;:</text><text x="37.074" y="1.67" class="f">&quot;string&quot;</text><text x="46.092" y="1.67" class="f">}</text></symbol><symbol id="23"><text x="12.024" y="1.67" class="f">}</text></symbol><symbol id="24"><text x="8.016" y="1.67" class="f">}&apos;</text></symbol><symbol id="25"><text x="8.016" y="1.67" class="g">schema.registry.ssl.keymanager.algorithm</text><text x="49.098" y="1.67" class="g">=</text><text x="51.102" y="1.67" class="g">SunX509</text></symbol><symbol id="26"><text x="8.016" y="1.67" class="g">schema.registry.ssl.keystore.certificate.chain</text><text x="55.11" y="1.67" class="g">=</text><text x="57.114" y="1.67" class="g">null</text></symbol><symbol id="27"><text x="8.016" y="1.67" class="g">schema.registry.ssl.keystore.key</text><text x="41.082" y="1.67" class="g">=</text><text x="43.086" y="1.67" class="g">null</text></symbol><symbol id="28"><text x="8.016" y="1.67" class="g">schema.registry.ssl.keystore.location</text><text x="46.092" y="1.67" class="g">=</text><text x="48.096" y="1.67" class="g">null</text></symbol><symbol id="29"><text x="8.016" y="1.67" class="g">schema.registry.ssl.keystore.password</text><text x="46.092" y="1.67" class="g">=</text><text x="48.096" y="1.67" class="g">null</text></symbol><symbol id="30"><text x="8.016" y="1.67" class="g">schema.registry.ssl.keystore.type</text><text x="42.084" y="1.67" class="g">=</text><text x="44.088" y="1.67" class="g">JKS</text></symbol><symbol id="a"><path fill="transparent" d="M0 0h140v21H0z"/></symbol><symbol id="b"><path fill="#6f7683" d="M0 0h1.102v2.171H0z"/></symbol></defs><path class="a" d="M0 0h140v43.42H0z"/><g style="animation-duration:2.945966s;animation-iteration-count:infinite;animation-name:j;animation-timing-function:steps(1,end)"><svg width="3640"><svg><use xlink:href="#a"/><use xlink:href="#b" x="-.004"/></svg><svg x="140"><use xlink:href="#a"/><use xlink:href="#b" x="-.004"/></svg><svg x="280"><use xlink:href="#a"/><use xlink:href="#b" x="6.996" y="4.317"/><use xlink:href="#1"/><use xlink:href="#2" y="2.171"/><text x="4.008" y="6.012" class="f">&quot;us</text></svg><svg x="420"><use xlink:href="#a"/><use xlink:href="#b" x="9.996" y="6.488"/><use xlink:href="#1"/><use xlink:href="#2" y="2.171"/><use xlink:href="#3" y="4.342"/><text x="4.008" y="8.183" class="f">&quot;passw</text></svg><svg x="560"><use xlink:href="#a"/><use xlink:href="#b" x="20.996" y="8.659"/><use xlink:href="#1"/><use xlink:href="#2" y="2.171"/><use xlink:href="#3" y="4.342"/><use xlink:href="#4" y="6.513"/><text x="4.008" y="10.354" class="f">&quot;visa&quot;:</text><text x="12.024" y="10.354" class="f">&quot;visa1234</text></svg><svg x="700"><use xlink:href="#a"/><use xlink:href="#b" x="34.996" y="10.83"/><use xlink:href="#1"/><use xlink:href="#2" y="2.171"/><use xlink:href="#3" y="4.342"/><use xlink:href="#4" y="6.513"/><use xlink:href="#5" y="8.684"/><text x="4.008" y="12.525" class="f">&quot;address&quot;:</text><text x="15.03" y="12.525" class="f">&quot;Conduktor</text><text x="26.052" y="12.525" class="f">Towers,</text><text x="34.068" y="12.525" class="f">L</text></svg><svg x="840"><use xlink:href="#a"/><use xlink:href="#b" x="13.996" y="17.343"/><use xlink:href="#1"/><use xlink:href="#2" y="2.171"/><use xlink:href="#3" y="4.342"/><use xlink:href="#4" y="6.513"/><use xlink:href="#5" y="8.684"/><use xlink:href="#6" y="10.855"/><use xlink:href="#7" y="13.026"/><use xlink:href="#8" y="15.197"/><text x="6.012" y="19.038" class="f">kafka-js</text></svg><svg x="980"><use xlink:href="#a"/><use xlink:href="#b" x="9.996" y="19.514"/><use xlink:href="#1"/><use xlink:href="#2" y="2.171"/><use xlink:href="#3" y="4.342"/><use xlink:href="#4" y="6.513"/><use xlink:href="#5" y="8.684"/><use xlink:href="#6" y="10.855"/><use xlink:href="#7" y="13.026"/><use xlink:href="#8" y="15.197"/><use xlink:href="#9" y="17.368"/><text x="8.016" y="21.209" class="f">--</text></svg><svg x="1120"><use xlink:href="#a"/><use xlink:href="#b" x="5.996" y="21.685"/><use xlink:href="#1"/><use xlink:href="#2" y="2.171"/><use xlink:href="#3" y="4.342"/><use xlink:href="#4" y="6.513"/><use xlink:href="#5" y="8.684"/><use xlink:href="#6" y="10.855"/><use xlink:href="#7" y="13.026"/><use xlink:href="#8" y="15.197"/><use xlink:href="#9" y="17.368"/><use xlink:href="#10" y="19.539"/></svg><svg x="1260"><use xlink:href="#a"/><use xlink:href="#b" x="45.996" y="21.685"/><use xlink:href="#1"/><use xlink:href="#2" y="2.171"/><use xlink:href="#3" y="4.342"/><use xlink:href="#4" y="6.513"/><use xlink:href="#5" y="8.684"/><use xlink:href="#6" y="10.855"/><use xlink:href="#7" y="13.026"/><use xlink:href="#8" y="15.197"/><use xlink:href="#9" y="17.368"/><use xlink:href="#10" y="19.539"/><text x="8.016" y="23.38" class="f">--producer.config</text><text x="26.052" y="23.38" class="f">teamA-sa.properties</text></svg><svg x="1400"><use xlink:href="#a"/><use xlink:href="#b" x="13.996" y="26.027"/><use xlink:href="#1"/><use xlink:href="#2" y="2.171"/><use xlink:href="#3" y="4.342"/><use xlink:href="#4" y="6.513"/><use xlink:href="#5" y="8.684"/><use xlink:href="#6" y="10.855"/><use xlink:href="#7" y="13.026"/><use xlink:href="#8" y="15.197"/><use xlink:href="#9" y="17.368"/><use xlink:href="#10" y="19.539"/><use xlink:href="#11" y="21.71"/><use xlink:href="#12" y="23.881"/><text x="8.016" y="27.722" class="f">--prop</text></svg><svg x="1540"><use xlink:href="#a"/><use xlink:href="#b" x="53.996" y="26.027"/><use xlink:href="#1"/><use xlink:href="#2" y="2.171"/><use xlink:href="#3" y="4.342"/><use xlink:href="#4" y="6.513"/><use xlink:href="#5" y="8.684"/><use xlink:href="#6" y="10.855"/><use xlink:href="#7" y="13.026"/><use xlink:href="#8" y="15.197"/><use xlink:href="#9" y="17.368"/><use xlink:href="#10" y="19.539"/><use xlink:href="#11" y="21.71"/><use xlink:href="#12" y="23.881"/><text x="8.016" y="27.722" class="f">--property</text><text x="19.038" y="27.722" class="f">schema.registry.url=http://localhos</text></svg><svg x="1680"><use xlink:href="#a"/><use xlink:href="#b" x="30.996" y="28.198"/><use xlink:href="#1"/><use xlink:href="#2" y="2.171"/><use xlink:href="#3" y="4.342"/><use xlink:href="#4" y="6.513"/><use xlink:href="#5" y="8.684"/><use xlink:href="#6" y="10.855"/><use xlink:href="#7" y="13.026"/><use xlink:href="#8" y="15.197"/><use xlink:href="#9" y="17.368"/><use xlink:href="#10" y="19.539"/><use xlink:href="#11" y="21.71"/><use xlink:href="#12" y="23.881"/><use xlink:href="#13" y="26.052"/><text x="8.016" y="29.893" class="f">--property</text><text x="19.038" y="29.893" class="f">value.schema</text></svg><svg x="1820"><use xlink:href="#a"/><use xlink:href="#b" x="6.996" y="32.54"/><use xlink:href="#1"/><use xlink:href="#2" y="2.171"/><use xlink:href="#3" y="4.342"/><use xlink:href="#4" y="6.513"/><use xlink:href="#5" y="8.684"/><use xlink:href="#6" y="10.855"/><use xlink:href="#7" y="13.026"/><use xlink:href="#8" y="15.197"/><use xlink:href="#9" y="17.368"/><use xlink:href="#10" y="19.539"/><use xlink:href="#11" y="21.71"/><use xlink:href="#12" y="23.881"/><use xlink:href="#13" y="26.052"/><use xlink:href="#14" y="28.223"/><use xlink:href="#15" y="30.394"/></svg><svg x="1960"><use xlink:href="#a"/><use xlink:href="#b" x="16.996" y="34.711"/><use xlink:href="#1"/><use xlink:href="#2" y="2.171"/><use xlink:href="#3" y="4.342"/><use xlink:href="#4" y="6.513"/><use xlink:href="#5" y="8.684"/><use xlink:href="#6" y="10.855"/><use xlink:href="#7" y="13.026"/><use xlink:href="#8" y="15.197"/><use xlink:href="#9" y="17.368"/><use xlink:href="#10" y="19.539"/><use xlink:href="#11" y="21.71"/><use xlink:href="#12" y="23.881"/><use xlink:href="#13" y="26.052"/><use xlink:href="#14" y="28.223"/><use xlink:href="#15" y="30.394"/><use xlink:href="#16" y="32.565"/><text x="12.024" y="36.406" class="f">&quot;prop</text></svg><svg x="2100"><use xlink:href="#a"/><use xlink:href="#b" x="28.996" y="36.882"/><use xlink:href="#1"/><use xlink:href="#2" y="2.171"/><use xlink:href="#3" y="4.342"/><use xlink:href="#4" y="6.513"/><use xlink:href="#5" y="8.684"/><use xlink:href="#6" y="10.855"/><use xlink:href="#7" y="13.026"/><use xlink:href="#8" y="15.197"/><use xlink:href="#9" y="17.368"/><use xlink:href="#10" y="19.539"/><use xlink:href="#11" y="21.71"/><use xlink:href="#12" y="23.881"/><use xlink:href="#13" y="26.052"/><use xlink:href="#14" y="28.223"/><use xlink:href="#15" y="30.394"/><use xlink:href="#16" y="32.565"/><use xlink:href="#17" y="34.736"/><text x="16.032" y="38.577" class="f">&quot;name&quot;:</text><text x="24.048" y="38.577" class="f">{</text><text x="26.052" y="38.577" class="f">&quot;ty</text></svg><svg x="2240"><use xlink:href="#a"/><use xlink:href="#b" x="22.996" y="39.053"/><use xlink:href="#1"/><use xlink:href="#2" y="2.171"/><use xlink:href="#3" y="4.342"/><use xlink:href="#4" y="6.513"/><use xlink:href="#5" y="8.684"/><use xlink:href="#6" y="10.855"/><use xlink:href="#7" y="13.026"/><use xlink:href="#8" y="15.197"/><use xlink:href="#9" y="17.368"/><use xlink:href="#10" y="19.539"/><use xlink:href="#11" y="21.71"/><use xlink:href="#12" y="23.881"/><use xlink:href="#13" y="26.052"/><use xlink:href="#14" y="28.223"/><use xlink:href="#15" y="30.394"/><use xlink:href="#16" y="32.565"/><use xlink:href="#17" y="34.736"/><use xlink:href="#18" y="36.907"/><text x="16.032" y="40.748" class="f">&quot;userna</text></svg><svg x="2380"><use xlink:href="#a"/><use xlink:href="#b" x="12.996" y="41.224"/><use xlink:href="#1"/><use xlink:href="#2" y="2.171"/><use xlink:href="#3" y="4.342"/><use xlink:href="#4" y="6.513"/><use xlink:href="#5" y="8.684"/><use xlink:href="#6" y="10.855"/><use xlink:href="#7" y="13.026"/><use xlink:href="#8" y="15.197"/><use xlink:href="#9" y="17.368"/><use xlink:href="#10" y="19.539"/><use xlink:href="#11" y="21.71"/><use xlink:href="#12" y="23.881"/><use xlink:href="#13" y="26.052"/><use xlink:href="#14" y="28.223"/><use xlink:href="#15" y="30.394"/><use xlink:href="#16" y="32.565"/><use xlink:href="#17" y="34.736"/><use xlink:href="#18" y="36.907"/><use xlink:href="#19" y="39.078"/></svg><svg x="2520"><use xlink:href="#a"/><use xlink:href="#b" x="2.996" y="43.395"/><use xlink:href="#1"/><use xlink:href="#2" y="2.171"/><use xlink:href="#3" y="4.342"/><use xlink:href="#4" y="6.513"/><use xlink:href="#5" y="8.684"/><use xlink:href="#6" y="10.855"/><use xlink:href="#7" y="13.026"/><use xlink:href="#8" y="15.197"/><use xlink:href="#9" y="17.368"/><use xlink:href="#10" y="19.539"/><use xlink:href="#11" y="21.71"/><use xlink:href="#12" y="23.881"/><use xlink:href="#13" y="26.052"/><use xlink:href="#14" y="28.223"/><use xlink:href="#15" y="30.394"/><use xlink:href="#16" y="32.565"/><use xlink:href="#17" y="34.736"/><use xlink:href="#18" y="36.907"/><use xlink:href="#19" y="39.078"/><use xlink:href="#20" y="41.249"/></svg><svg x="2660"><use xlink:href="#a"/><use xlink:href="#b" x="42.996" y="43.395"/><use xlink:href="#1"/><use xlink:href="#2" y="2.171"/><use xlink:href="#3" y="4.342"/><use xlink:href="#4" y="6.513"/><use xlink:href="#5" y="8.684"/><use xlink:href="#6" y="10.855"/><use xlink:href="#7" y="13.026"/><use xlink:href="#8" y="15.197"/><use xlink:href="#9" y="17.368"/><use xlink:href="#10" y="19.539"/><use xlink:href="#11" y="21.71"/><use xlink:href="#12" y="23.881"/><use xlink:href="#13" y="26.052"/><use xlink:href="#14" y="28.223"/><use xlink:href="#15" y="30.394"/><use xlink:href="#16" y="32.565"/><use xlink:href="#17" y="34.736"/><use xlink:href="#18" y="36.907"/><use xlink:href="#19" y="39.078"/><use xlink:href="#20" y="41.249"/><text x="16.032" y="45.09" class="f">&quot;visa&quot;:</text><text x="24.048" y="45.09" class="f">{</text><text x="26.052" y="45.09" class="f">&quot;type&quot;:</text><text x="34.068" y="45.09" class="f">&quot;string&quot;</text></svg><svg x="2800"><use xlink:href="#a"/><use xlink:href="#b" x="36.996" y="43.395"/><use xlink:href="#2"/><use xlink:href="#3" y="2.171"/><use xlink:href="#4" y="4.342"/><use xlink:href="#5" y="6.513"/><use xlink:href="#6" y="8.684"/><use xlink:href="#7" y="10.855"/><use xlink:href="#8" y="13.026"/><use xlink:href="#9" y="15.197"/><use xlink:href="#10" y="17.368"/><use xlink:href="#11" y="19.539"/><use xlink:href="#12" y="21.71"/><use xlink:href="#13" y="23.881"/><use xlink:href="#14" y="26.052"/><use xlink:href="#15" y="28.223"/><use xlink:href="#16" y="30.394"/><use xlink:href="#17" y="32.565"/><use xlink:href="#18" y="34.736"/><use xlink:href="#19" y="36.907"/><use xlink:href="#20" y="39.078"/><use xlink:href="#21" y="41.249"/><text x="16.032" y="45.09" class="f">&quot;address&quot;:</text><text x="27.054" y="45.09" class="f">{</text><text x="29.058" y="45.09" class="f">&quot;type&quot;:</text></svg><svg x="2940"><use xlink:href="#a"/><use xlink:href="#b" x="9.996" y="43.395"/><use xlink:href="#4"/><use xlink:href="#5" y="2.171"/><use xlink:href="#6" y="4.342"/><use xlink:href="#7" y="6.513"/><use xlink:href="#8" y="8.684"/><use xlink:href="#9" y="10.855"/><use xlink:href="#10" y="13.026"/><use xlink:href="#11" y="15.197"/><use xlink:href="#12" y="17.368"/><use xlink:href="#13" y="19.539"/><use xlink:href="#14" y="21.71"/><use xlink:href="#15" y="23.881"/><use xlink:href="#16" y="26.052"/><use xlink:href="#17" y="28.223"/><use xlink:href="#18" y="30.394"/><use xlink:href="#19" y="32.565"/><use xlink:href="#20" y="34.736"/><use xlink:href="#21" y="36.907"/><use xlink:href="#22" y="39.078"/><use xlink:href="#23" y="41.249"/><use xlink:href="#24" y="43.42"/></svg><svg x="3080"><use xlink:href="#a"/><use xlink:href="#b" x="-.004" y="43.395"/><use xlink:href="#5"/><use xlink:href="#6" y="2.171"/><use xlink:href="#7" y="4.342"/><use xlink:href="#8" y="6.513"/><use xlink:href="#9" y="8.684"/><use xlink:href="#10" y="10.855"/><use xlink:href="#11" y="13.026"/><use xlink:href="#12" y="15.197"/><use xlink:href="#13" y="17.368"/><use xlink:href="#14" y="19.539"/><use xlink:href="#15" y="21.71"/><use xlink:href="#16" y="23.881"/><use xlink:href="#17" y="26.052"/><use xlink:href="#18" y="28.223"/><use xlink:href="#19" y="30.394"/><use xlink:href="#20" y="32.565"/><use xlink:href="#21" y="34.736"/><use xlink:href="#22" y="36.907"/><use xlink:href="#23" y="39.078"/><use xlink:href="#24" y="41.249"/></svg><svg x="3220"><use xlink:href="#a"/><use xlink:href="#b" x="36.996" y="43.395"/><text x="8.016" y="1.67" class="g">bearer.auth.client.id</text><text x="30.06" y="1.67" class="g">=</text><text x="32.064" y="1.67" class="g">null</text><text x="8.016" y="3.841" class="g">bearer.auth.client.secret</text><text x="34.068" y="3.841" class="g">=</text><text x="36.072" y="3.841" class="g">null</text><text x="8.016" y="6.012" class="g">bearer.auth.credentials.source</text><text x="39.078" y="6.012" class="g">=</text><text x="41.082" y="6.012" class="g">STATIC_TOKEN</text><text x="8.016" y="8.183" class="g">bearer.auth.custom.provider.class</text><text x="42.084" y="8.183" class="g">=</text><text x="44.088" y="8.183" class="g">null</text><text x="8.016" y="10.354" class="g">bearer.auth.identity.pool.id</text><text x="37.074" y="10.354" class="g">=</text><text x="39.078" y="10.354" class="g">null</text><text x="8.016" y="12.525" class="g">bearer.auth.issuer.endpoint.url</text><text x="40.08" y="12.525" class="g">=</text><text x="42.084" y="12.525" class="g">null</text><text x="8.016" y="14.696" class="g">bearer.auth.logical.cluster</text><text x="36.072" y="14.696" class="g">=</text><text x="38.076" y="14.696" class="g">null</text><text x="8.016" y="16.867" class="g">bearer.auth.scope</text><text x="26.052" y="16.867" class="g">=</text><text x="28.056" y="16.867" class="g">null</text><text x="8.016" y="19.038" class="g">bearer.auth.scope.claim.name</text><text x="37.074" y="19.038" class="g">=</text><text x="39.078" y="19.038" class="g">scope</text><text x="8.016" y="21.209" class="g">bearer.auth.sub.claim.name</text><text x="35.07" y="21.209" class="g">=</text><text x="37.074" y="21.209" class="g">sub</text><text x="8.016" y="23.38" class="g">bearer.auth.token</text><text x="26.052" y="23.38" class="g">=</text><text x="28.056" y="23.38" class="g">[hidden]</text><text x="8.016" y="25.551" class="g">context.name.strategy</text><text x="30.06" y="25.551" class="g">=</text><text x="32.064" y="25.551" class="g">class</text><text x="38.076" y="25.551" class="g">io.confluent.kafka.serializers.context.NullContextNameStrategy</text><text x="8.016" y="27.722" class="g">http.connect.timeout.ms</text><text x="32.064" y="27.722" class="g">=</text><text x="34.068" y="27.722" class="g">60000</text><text x="8.016" y="29.893" class="g">http.read.timeout.ms</text><text x="29.058" y="29.893" class="g">=</text><text x="31.062" y="29.893" class="g">60000</text><text x="8.016" y="32.064" class="g">id.compatibility.strict</text><text x="32.064" y="32.064" class="g">=</text><text x="34.068" y="32.064" class="g">true</text><text x="8.016" y="34.235" class="g">json.fail.invalid.schema</text><text x="33.066" y="34.235" class="g">=</text><text x="35.07" y="34.235" class="g">true</text><text x="8.016" y="36.406" class="g">json.fail.unknown.properties</text><text x="37.074" y="36.406" class="g">=</text><text x="39.078" y="36.406" class="g">true</text><text x="8.016" y="38.577" class="g">json.indent.output</text><text x="27.054" y="38.577" class="g">=</text><text x="29.058" y="38.577" class="g">false</text><text x="8.016" y="40.748" class="g">json.oneof.for.nullables</text><text x="33.066" y="40.748" class="g">=</text><text x="35.07" y="40.748" class="g">true</text><text x="8.016" y="42.919" class="g">json.schema.spec.version</text><text x="33.066" y="42.919" class="g">=</text><text x="35.07" y="42.919" class="g">draft_7</text><text x="8.016" y="45.09" class="g">json.write.dates.iso8601</text><text x="33.066" y="45.09" class="g">=</text><text x="35.07" y="45.09" class="g">fa</text></svg><svg x="3360"><use xlink:href="#a"/><use xlink:href="#b" x="19.996" y="43.395"/><text x="8.016" y="1.67" class="g">normalize.schemas</text><text x="26.052" y="1.67" class="g">=</text><text x="28.056" y="1.67" class="g">false</text><text x="8.016" y="3.841" class="g">proxy.host</text><text x="19.038" y="3.841" class="g">=</text><text x="8.016" y="6.012" class="g">proxy.port</text><text x="19.038" y="6.012" class="g">=</text><text x="21.042" y="6.012" class="g">-1</text><text x="8.016" y="8.183" class="g">rule.actions</text><text x="21.042" y="8.183" class="g">=</text><text x="23.046" y="8.183" class="g">[]</text><text x="8.016" y="10.354" class="g">rule.executors</text><text x="23.046" y="10.354" class="g">=</text><text x="25.05" y="10.354" class="g">[]</text><text x="8.016" y="12.525" class="g">rule.service.loader.enable</text><text x="35.07" y="12.525" class="g">=</text><text x="37.074" y="12.525" class="g">true</text><text x="8.016" y="14.696" class="g">schema.format</text><text x="22.044" y="14.696" class="g">=</text><text x="24.048" y="14.696" class="g">null</text><text x="8.016" y="16.867" class="g">schema.reflection</text><text x="26.052" y="16.867" class="g">=</text><text x="28.056" y="16.867" class="g">false</text><text x="8.016" y="19.038" class="g">schema.registry.basic.auth.user.info</text><text x="45.09" y="19.038" class="g">=</text><text x="47.094" y="19.038" class="g">[hidden]</text><text x="8.016" y="21.209" class="g">schema.registry.ssl.cipher.suites</text><text x="42.084" y="21.209" class="g">=</text><text x="44.088" y="21.209" class="g">null</text><text x="8.016" y="23.38" class="g">schema.registry.ssl.enabled.protocols</text><text x="46.092" y="23.38" class="g">=</text><text x="48.096" y="23.38" class="g">[TLSv1.2,</text><text x="58.116" y="23.38" class="g">TLSv1.3]</text><text x="8.016" y="25.551" class="g">schema.registry.ssl.endpoint.identification.algorithm</text><text x="62.124" y="25.551" class="g">=</text><text x="64.128" y="25.551" class="g">https</text><text x="8.016" y="27.722" class="g">schema.registry.ssl.engine.factory.class</text><text x="49.098" y="27.722" class="g">=</text><text x="51.102" y="27.722" class="g">null</text><text x="8.016" y="29.893" class="g">schema.registry.ssl.key.password</text><text x="41.082" y="29.893" class="g">=</text><text x="43.086" y="29.893" class="g">null</text><use xlink:href="#25" y="30.394"/><use xlink:href="#26" y="32.565"/><use xlink:href="#27" y="34.736"/><use xlink:href="#28" y="36.907"/><use xlink:href="#29" y="39.078"/><use xlink:href="#30" y="41.249"/><text x="8.016" y="45.09" class="g">schema.regis</text></svg><svg x="3500"><use xlink:href="#a"/><use xlink:href="#b" x="-.004" y="43.395"/><use xlink:href="#25"/><use xlink:href="#26" y="2.171"/><use xlink:href="#27" y="4.342"/><use xlink:href="#28" y="6.513"/><use xlink:href="#29" y="8.684"/><use xlink:href="#30" y="10.855"/><text x="8.016" y="14.696" class="g">schema.registry.ssl.protocol</text><text x="37.074" y="14.696" class="g">=</text><text x="39.078" y="14.696" class="g">TLSv1.3</text><text x="8.016" y="16.867" class="g">schema.registry.ssl.provider</text><text x="37.074" y="16.867" class="g">=</text><text x="39.078" y="16.867" class="g">null</text><text x="8.016" y="19.038" class="g">schema.registry.ssl.secure.random.implementation</text><text x="57.114" y="19.038" class="g">=</text><text x="59.118" y="19.038" class="g">null</text><text x="8.016" y="21.209" class="g">schema.registry.ssl.trustmanager.algorithm</text><text x="51.102" y="21.209" class="g">=</text><text x="53.106" y="21.209" class="g">PKIX</text><text x="8.016" y="23.38" class="g">schema.registry.ssl.truststore.certificates</text><text x="52.104" y="23.38" class="g">=</text><text x="54.108" y="23.38" class="g">null</text><text x="8.016" y="25.551" class="g">schema.registry.ssl.truststore.location</text><text x="48.096" y="25.551" class="g">=</text><text x="50.1" y="25.551" class="g">null</text><text x="8.016" y="27.722" class="g">schema.registry.ssl.truststore.password</text><text x="48.096" y="27.722" class="g">=</text><text x="50.1" y="27.722" class="g">null</text><text x="8.016" y="29.893" class="g">schema.registry.ssl.truststore.type</text><text x="44.088" y="29.893" class="g">=</text><text x="46.092" y="29.893" class="g">JKS</text><text x="8.016" y="32.064" class="g">schema.registry.url</text><text x="28.056" y="32.064" class="g">=</text><text x="30.06" y="32.064" class="g">[http://localhost:8081]</text><text x="8.016" y="34.235" class="g">use.latest.version</text><text x="27.054" y="34.235" class="g">=</text><text x="29.058" y="34.235" class="g">false</text><text x="8.016" y="36.406" class="g">use.latest.with.metadata</text><text x="33.066" y="36.406" class="g">=</text><text x="35.07" y="36.406" class="g">null</text><text x="8.016" y="38.577" class="g">use.schema.id</text><text x="22.044" y="38.577" class="g">=</text><text x="24.048" y="38.577" class="g">-1</text><text x="8.016" y="40.748" class="g">value.subject.name.strategy</text><text x="36.072" y="40.748" class="g">=</text><text x="38.076" y="40.748" class="g">class</text><text x="44.088" y="40.748" class="g">io.confluent.kafka.serializers.subject.TopicNameStrategy</text><text x="1.002" y="42.919" class="g">(io.confluent.kafka.serializers.json.KafkaJsonSchemaSerializerConfig:376)</text></svg></svg></g></g></svg></svg>