<svg xmlns="http://www.w3.org/2000/svg" xmlns:xlink="http://www.w3.org/1999/xlink" width="1440" height="146.84"><rect width="1440" height="146.84" rx="5" ry="5" class="a"/><svg y="0%" x="0%"><circle cx="20" cy="20" r="6" fill="#ff5f58"/><circle cx="40" cy="20" r="6" fill="#ffbd2e"/><circle cx="60" cy="20" r="6" fill="#18c132"/></svg><svg height="86.84" viewBox="0 0 140 8.684" width="1400" x="15" xmlns="http://www.w3.org/2000/svg" xmlns:xlink="http://www.w3.org/1999/xlink" y="50"><style>@keyframes i{0%{transform:translateX(0)}.7%{transform:translateX(-140px)}.9%{transform:translateX(-280px)}9.8%{transform:translateX(-420px)}14.3%{transform:translateX(-560px)}18.6%{transform:translateX(-700px)}23%{transform:translateX(-840px)}27.5%{transform:translateX(-980px)}32%{transform:translateX(-1120px)}36.5%{transform:translateX(-1260px)}41.1%{transform:translateX(-1400px)}45.7%{transform:translateX(-1540px)}50%{transform:translateX(-1680px)}54.5%{transform:translateX(-1820px)}59.1%{transform:translateX(-1960px)}67.9%{transform:translateX(-2100px)}72.4%{transform:translateX(-2240px)}77.3%{transform:translateX(-2380px)}81.9%{transform:translateX(-2520px)}86.4%{transform:translateX(-2660px)}90.8%{transform:translateX(-2800px)}90.9%{transform:translateX(-2940px)}to{transform:translateX(-3080px)}}.a{fill:#282d35}.f,.k{fill:#fff;white-space:pre}.k{fill:#b9bfca;font-weight:700}</style><g font-family="Monaco,Consolas,Menlo,'Bitstream Vera Sans Mono','Powerline Symbols',monospace" font-size="1.67"><defs><symbol id="1"><text y="1.67" class="f">curl</text><text x="5.01" y="1.67" class="f">--silent</text><text x="14.028" y="1.67" class="f">http://localhost:8081/subjects/</text><text x="46.092" y="1.67" class="f">|</text><text x="48.096" y="1.67" class="f">jq</text></symbol><symbol id="a"><path fill="transparent" d="M0 0h140v5H0z"/></symbol><symbol id="b"><path fill="#6f7683" d="M0 0h1.102v2.171H0z"/></symbol></defs><path class="a" d="M0 0h140v8.684H0z"/><g style="animation-duration:2.075846s;animation-iteration-count:infinite;animation-name:i;animation-timing-function:steps(1,end)"><svg width="3220"><svg><use xlink:href="#a"/><use xlink:href="#b" x="-.004"/></svg><svg x="140"><use xlink:href="#a"/><use xlink:href="#b" x="-.004"/></svg><svg x="280"><use xlink:href="#a"/><use xlink:href="#b" x="2.996"/><text y="1.67" class="f">cur</text></svg><svg x="420"><use xlink:href="#a"/><use xlink:href="#b" x="5.996"/><text y="1.67" class="f">curl</text><text x="5.01" y="1.67" class="f">-</text></svg><svg x="560"><use xlink:href="#a"/><use xlink:href="#b" x="8.996"/><text y="1.67" class="f">curl</text><text x="5.01" y="1.67" class="f">--si</text></svg><svg x="700"><use xlink:href="#a"/><use xlink:href="#b" x="11.996"/><text y="1.67" class="f">curl</text><text x="5.01" y="1.67" class="f">--silen</text></svg><svg x="840"><use xlink:href="#a"/><use xlink:href="#b" x="14.996"/><text y="1.67" class="f">curl</text><text x="5.01" y="1.67" class="f">--silent</text><text x="14.028" y="1.67" class="f">h</text></svg><svg x="980"><use xlink:href="#a"/><use xlink:href="#b" x="17.996"/><text y="1.67" class="f">curl</text><text x="5.01" y="1.67" class="f">--silent</text><text x="14.028" y="1.67" class="f">http</text></svg><svg x="1120"><use xlink:href="#a"/><use xlink:href="#b" x="20.996"/><text y="1.67" class="f">curl</text><text x="5.01" y="1.67" class="f">--silent</text><text x="14.028" y="1.67" class="f">http://</text></svg><svg x="1260"><use xlink:href="#a"/><use xlink:href="#b" x="23.996"/><text y="1.67" class="f">curl</text><text x="5.01" y="1.67" class="f">--silent</text><text x="14.028" y="1.67" class="f">http://loc</text></svg><svg x="1400"><use xlink:href="#a"/><use xlink:href="#b" x="26.996"/><text y="1.67" class="f">curl</text><text x="5.01" y="1.67" class="f">--silent</text><text x="14.028" y="1.67" class="f">http://localh</text></svg><svg x="1540"><use xlink:href="#a"/><use xlink:href="#b" x="29.996"/><text y="1.67" class="f">curl</text><text x="5.01" y="1.67" class="f">--silent</text><text x="14.028" y="1.67" class="f">http://localhost</text></svg><svg x="1680"><use xlink:href="#a"/><use xlink:href="#b" x="32.996"/><text y="1.67" class="f">curl</text><text x="5.01" y="1.67" class="f">--silent</text><text x="14.028" y="1.67" class="f">http://localhost:80</text></svg><svg x="1820"><use xlink:href="#a"/><use xlink:href="#b" x="35.996"/><text y="1.67" class="f">curl</text><text x="5.01" y="1.67" class="f">--silent</text><text x="14.028" y="1.67" class="f">http://localhost:8081/</text></svg><svg x="1960"><use xlink:href="#a"/><use xlink:href="#b" x="38.996"/><text y="1.67" class="f">curl</text><text x="5.01" y="1.67" class="f">--silent</text><text x="14.028" y="1.67" class="f">http://localhost:8081/sub</text></svg><svg x="2100"><use xlink:href="#a"/><use xlink:href="#b" x="41.996"/><text y="1.67" class="f">curl</text><text x="5.01" y="1.67" class="f">--silent</text><text x="14.028" y="1.67" class="f">http://localhost:8081/subjec</text></svg><svg x="2240"><use xlink:href="#a"/><use xlink:href="#b" x="44.996"/><text y="1.67" class="f">curl</text><text x="5.01" y="1.67" class="f">--silent</text><text x="14.028" y="1.67" class="f">http://localhost:8081/subjects/</text></svg><svg x="2380"><use xlink:href="#a"/><use xlink:href="#b" x="47.996"/><text y="1.67" class="f">curl</text><text x="5.01" y="1.67" class="f">--silent</text><text x="14.028" y="1.67" class="f">http://localhost:8081/subjects/</text><text x="46.092" y="1.67" class="f">|</text></svg><svg x="2520"><use xlink:href="#a"/><use xlink:href="#b" x="50.996"/><use xlink:href="#1"/></svg><svg x="2660"><use xlink:href="#a"/><use xlink:href="#b" x="53.996"/><use xlink:href="#1"/></svg><svg x="2800"><use xlink:href="#a"/><use xlink:href="#b" x="54.996"/><use xlink:href="#1"/></svg><svg x="2940"><use xlink:href="#a"/><use xlink:href="#b" x="-.004" y="2.146"/><use xlink:href="#1"/></svg><svg x="3080"><use xlink:href="#a"/><use xlink:href="#b" x="-.004" y="8.659"/><use xlink:href="#1"/><text y="3.841" class="k">[</text><text x="2.004" y="6.012" style="white-space:pre" fill="#a8cc8c">&quot;users-value&quot;</text><text y="8.183" class="k">]</text></svg></svg></g></g></svg></svg>