<svg xmlns="http://www.w3.org/2000/svg" xmlns:xlink="http://www.w3.org/1999/xlink" width="1440" height="385.65"><rect width="1440" height="385.65" rx="5" ry="5" class="a"/><svg y="0%" x="0%"><circle cx="20" cy="20" r="6" fill="#ff5f58"/><circle cx="40" cy="20" r="6" fill="#ffbd2e"/><circle cx="60" cy="20" r="6" fill="#18c132"/></svg><svg height="325.65" viewBox="0 0 140 32.565" width="1400" x="15" xmlns="http://www.w3.org/2000/svg" xmlns:xlink="http://www.w3.org/1999/xlink" y="50"><style>@keyframes j{0%{transform:translateX(0)}.7%{transform:translateX(-140px)}.8%{transform:translateX(-280px)}14%{transform:translateX(-420px)}20.7%{transform:translateX(-560px)}27.1%{transform:translateX(-700px)}33.7%{transform:translateX(-840px)}40.4%{transform:translateX(-980px)}47.2%{transform:translateX(-1120px)}53.9%{transform:translateX(-1260px)}60.6%{transform:translateX(-1400px)}67.3%{transform:translateX(-1540px)}74%{transform:translateX(-1680px)}80.6%{transform:translateX(-1820px)}87.3%{transform:translateX(-1960px)}93.9%{transform:translateX(-2100px)}94%{transform:translateX(-2240px)}94.2%{transform:translateX(-2380px)}to{transform:translateX(-2520px)}}.a{fill:#282d35}.f,.g{fill:#a8cc8c;white-space:pre}.g{fill:#b9c0cb}</style><g font-family="Monaco,Consolas,Menlo,'Bitstream Vera Sans Mono','Powerline Symbols',monospace" font-size="1.67"><defs><symbol id="1"><text y="1.67" class="f">echo</text><text x="5.01" y="1.67" class="f">&apos;Step</text><text x="11.022" y="1.67" class="f">18</text><text x="14.028" y="1.67" class="f">SH</text><text x="17.034" y="1.67" class="f">Remove</text><text x="24.048" y="1.67" class="f">`florent`</text><text x="34.068" y="1.67" class="f">related</text><text x="42.084" y="1.67" class="f">keys&apos;</text></symbol><symbol id="2"><text y="1.67" class="f">curl</text><text x="5.01" y="1.67" class="f">\</text></symbol><symbol id="3"><text x="2.004" y="1.67" class="f">--request</text><text x="12.024" y="1.67" class="f">POST</text><text x="17.034" y="1.67" class="f">&apos;http://localhost:8200/v1/transit/keys/secret-for-florent/config&apos;</text><text x="83.166" y="1.67" class="f">\</text></symbol><symbol id="4"><text x="2.004" y="1.67" class="f">--silent</text><text x="11.022" y="1.67" class="f">\</text></symbol><symbol id="5"><text x="2.004" y="1.67" class="f">--header</text><text x="11.022" y="1.67" class="f">&quot;X-Vault-Token:</text><text x="27.054" y="1.67" class="f">vault-plaintext-root-token&quot;</text><text x="55.11" y="1.67" class="f">\</text></symbol><symbol id="6"><text x="2.004" y="1.67" class="f">--header</text><text x="11.022" y="1.67" class="f">&quot;content-type:</text><text x="26.052" y="1.67" class="f">application/json&quot;</text><text x="44.088" y="1.67" class="f">\</text></symbol><symbol id="7"><text x="2.004" y="1.67" class="f">--data-raw</text><text x="13.026" y="1.67" class="f">&apos;{&quot;min_decryption_version&quot;:&quot;1&quot;,&quot;min_encryption_version&quot;:1,&quot;deletion_allowed&quot;:true,&quot;auto_rotate_period&quot;:0}&apos;</text><text x="120.24" y="1.67" class="f">&gt;</text><text x="122.244" y="1.67" class="f">/dev/null</text></symbol><symbol id="8"><text x="2.004" y="1.67" class="f">--request</text><text x="12.024" y="1.67" class="f">DELETE</text><text x="19.038" y="1.67" class="f">http://localhost:8200/v1/transit/keys/secret-for-florent</text><text x="76.152" y="1.67" class="f">\</text></symbol><symbol id="9"><text x="2.004" y="1.67" class="f">--header</text><text x="11.022" y="1.67" class="f">&quot;X-Vault-Token:</text><text x="27.054" y="1.67" class="f">vault-plaintext-root-token&quot;</text></symbol><symbol id="10"><text y="1.67" class="g">Step</text><text x="5.01" y="1.67" class="g">18</text><text x="8.016" y="1.67" class="g">SH</text><text x="11.022" y="1.67" class="g">Remove</text><text x="18.036" y="1.67" class="g">`florent`</text><text x="28.056" y="1.67" class="g">related</text><text x="36.072" y="1.67" class="g">keys</text></symbol><symbol id="a"><path fill="transparent" d="M0 0h140v16H0z"/></symbol><symbol id="b"><path fill="#6f7683" d="M0 0h1.102v2.171H0z"/></symbol></defs><path class="a" d="M0 0h140v32.565H0z"/><g style="animation-duration:1.41672s;animation-iteration-count:infinite;animation-name:j;animation-timing-function:steps(1,end)"><svg width="2660"><svg><use xlink:href="#a"/><use xlink:href="#b" x="-.004"/></svg><svg x="140"><use xlink:href="#a"/><use xlink:href="#b" x="-.004"/></svg><svg x="280"><use xlink:href="#a"/><use xlink:href="#b" x="39.996"/><text y="1.67" class="f">echo</text><text x="5.01" y="1.67" class="f">&apos;Step</text><text x="11.022" y="1.67" class="f">18</text><text x="14.028" y="1.67" class="f">SH</text><text x="17.034" y="1.67" class="f">Remove</text><text x="24.048" y="1.67" class="f">`florent`</text><text x="34.068" y="1.67" class="f">relate</text></svg><svg x="420"><use xlink:href="#a"/><use xlink:href="#b" x="24.996" y="4.317"/><use xlink:href="#1"/><use xlink:href="#2" y="2.171"/><text x="2.004" y="6.012" class="f">--request</text><text x="12.024" y="6.012" class="f">POST</text><text x="17.034" y="6.012" class="f">&apos;http://</text></svg><svg x="560"><use xlink:href="#a"/><use xlink:href="#b" x="64.996" y="4.317"/><use xlink:href="#1"/><use xlink:href="#2" y="2.171"/><text x="2.004" y="6.012" class="f">--request</text><text x="12.024" y="6.012" class="f">POST</text><text x="17.034" y="6.012" class="f">&apos;http://localhost:8200/v1/transit/keys/secret-fo</text></svg><svg x="700"><use xlink:href="#a"/><use xlink:href="#b" x="6.996" y="8.659"/><use xlink:href="#1"/><use xlink:href="#2" y="2.171"/><use xlink:href="#3" y="4.342"/><use xlink:href="#4" y="6.513"/><text x="2.004" y="10.354" class="f">--hea</text></svg><svg x="840"><use xlink:href="#a"/><use xlink:href="#b" x="46.996" y="8.659"/><use xlink:href="#1"/><use xlink:href="#2" y="2.171"/><use xlink:href="#3" y="4.342"/><use xlink:href="#4" y="6.513"/><text x="2.004" y="10.354" class="f">--header</text><text x="11.022" y="10.354" class="f">&quot;X-Vault-Token:</text><text x="27.054" y="10.354" class="f">vault-plaintext-root</text></svg><svg x="980"><use xlink:href="#a"/><use xlink:href="#b" x="29.996" y="10.83"/><use xlink:href="#1"/><use xlink:href="#2" y="2.171"/><use xlink:href="#3" y="4.342"/><use xlink:href="#4" y="6.513"/><use xlink:href="#5" y="8.684"/><text x="2.004" y="12.525" class="f">--header</text><text x="11.022" y="12.525" class="f">&quot;content-type:</text><text x="26.052" y="12.525" class="f">appl</text></svg><svg x="1120"><use xlink:href="#a"/><use xlink:href="#b" x="23.996" y="13.001"/><use xlink:href="#1"/><use xlink:href="#2" y="2.171"/><use xlink:href="#3" y="4.342"/><use xlink:href="#4" y="6.513"/><use xlink:href="#5" y="8.684"/><use xlink:href="#6" y="10.855"/><text x="2.004" y="14.696" class="f">--data-raw</text><text x="13.026" y="14.696" class="f">&apos;{&quot;min_decr</text></svg><svg x="1260"><use xlink:href="#a"/><use xlink:href="#b" x="63.996" y="13.001"/><use xlink:href="#1"/><use xlink:href="#2" y="2.171"/><use xlink:href="#3" y="4.342"/><use xlink:href="#4" y="6.513"/><use xlink:href="#5" y="8.684"/><use xlink:href="#6" y="10.855"/><text x="2.004" y="14.696" class="f">--data-raw</text><text x="13.026" y="14.696" class="f">&apos;{&quot;min_decryption_version&quot;:&quot;1&quot;,&quot;min_encryption_vers</text></svg><svg x="1400"><use xlink:href="#a"/><use xlink:href="#b" x="103.996" y="13.001"/><use xlink:href="#1"/><use xlink:href="#2" y="2.171"/><use xlink:href="#3" y="4.342"/><use xlink:href="#4" y="6.513"/><use xlink:href="#5" y="8.684"/><use xlink:href="#6" y="10.855"/><text x="2.004" y="14.696" class="f">--data-raw</text><text x="13.026" y="14.696" class="f">&apos;{&quot;min_decryption_version&quot;:&quot;1&quot;,&quot;min_encryption_version&quot;:1,&quot;deletion_allowed&quot;:true,&quot;auto_rot</text></svg><svg x="1540"><use xlink:href="#a"/><use xlink:href="#b" x="3.996" y="19.514"/><use xlink:href="#1"/><use xlink:href="#2" y="2.171"/><use xlink:href="#3" y="4.342"/><use xlink:href="#4" y="6.513"/><use xlink:href="#5" y="8.684"/><use xlink:href="#6" y="10.855"/><use xlink:href="#7" y="13.026"/><use xlink:href="#2" y="17.368"/><text x="2.004" y="21.209" class="f">--</text></svg><svg x="1680"><use xlink:href="#a"/><use xlink:href="#b" x="43.996" y="19.514"/><use xlink:href="#1"/><use xlink:href="#2" y="2.171"/><use xlink:href="#3" y="4.342"/><use xlink:href="#4" y="6.513"/><use xlink:href="#5" y="8.684"/><use xlink:href="#6" y="10.855"/><use xlink:href="#7" y="13.026"/><use xlink:href="#2" y="17.368"/><text x="2.004" y="21.209" class="f">--request</text><text x="12.024" y="21.209" class="f">DELETE</text><text x="19.038" y="21.209" class="f">http://localhost:8200/v1/</text></svg><svg x="1820"><use xlink:href="#a"/><use xlink:href="#b" x="5.996" y="21.685"/><use xlink:href="#1"/><use xlink:href="#2" y="2.171"/><use xlink:href="#3" y="4.342"/><use xlink:href="#4" y="6.513"/><use xlink:href="#5" y="8.684"/><use xlink:href="#6" y="10.855"/><use xlink:href="#7" y="13.026"/><use xlink:href="#2" y="17.368"/><use xlink:href="#8" y="19.539"/><text x="2.004" y="23.38" class="f">--si</text></svg><svg x="1960"><use xlink:href="#a"/><use xlink:href="#b" x="32.996" y="23.856"/><use xlink:href="#1"/><use xlink:href="#2" y="2.171"/><use xlink:href="#3" y="4.342"/><use xlink:href="#4" y="6.513"/><use xlink:href="#5" y="8.684"/><use xlink:href="#6" y="10.855"/><use xlink:href="#7" y="13.026"/><use xlink:href="#2" y="17.368"/><use xlink:href="#8" y="19.539"/><use xlink:href="#4" y="21.71"/><text x="2.004" y="25.551" class="f">--header</text><text x="11.022" y="25.551" class="f">&quot;X-Vault-Token:</text><text x="27.054" y="25.551" class="f">vault-</text></svg><svg x="2100"><use xlink:href="#a"/><use xlink:href="#b" x="-.004" y="26.027"/><use xlink:href="#1"/><use xlink:href="#2" y="2.171"/><use xlink:href="#3" y="4.342"/><use xlink:href="#4" y="6.513"/><use xlink:href="#5" y="8.684"/><use xlink:href="#6" y="10.855"/><use xlink:href="#7" y="13.026"/><use xlink:href="#2" y="17.368"/><use xlink:href="#8" y="19.539"/><use xlink:href="#4" y="21.71"/><use xlink:href="#9" y="23.881"/></svg><svg x="2240"><use xlink:href="#a"/><use xlink:href="#b" x="-.004" y="28.198"/><use xlink:href="#1"/><use xlink:href="#2" y="2.171"/><use xlink:href="#3" y="4.342"/><use xlink:href="#4" y="6.513"/><use xlink:href="#5" y="8.684"/><use xlink:href="#6" y="10.855"/><use xlink:href="#7" y="13.026"/><use xlink:href="#2" y="17.368"/><use xlink:href="#8" y="19.539"/><use xlink:href="#4" y="21.71"/><use xlink:href="#9" y="23.881"/></svg><svg x="2380"><use xlink:href="#a"/><use xlink:href="#b" x="-.004" y="30.369"/><use xlink:href="#1"/><use xlink:href="#2" y="2.171"/><use xlink:href="#3" y="4.342"/><use xlink:href="#4" y="6.513"/><use xlink:href="#5" y="8.684"/><use xlink:href="#6" y="10.855"/><use xlink:href="#7" y="13.026"/><use xlink:href="#2" y="17.368"/><use xlink:href="#8" y="19.539"/><use xlink:href="#4" y="21.71"/><use xlink:href="#9" y="23.881"/><use xlink:href="#10" y="28.223"/></svg><svg x="2520"><use xlink:href="#a"/><use xlink:href="#b" x="-.004" y="32.54"/><use xlink:href="#1"/><use xlink:href="#2" y="2.171"/><use xlink:href="#3" y="4.342"/><use xlink:href="#4" y="6.513"/><use xlink:href="#5" y="8.684"/><use xlink:href="#6" y="10.855"/><use xlink:href="#7" y="13.026"/><use xlink:href="#2" y="17.368"/><use xlink:href="#8" y="19.539"/><use xlink:href="#4" y="21.71"/><use xlink:href="#9" y="23.881"/><use xlink:href="#10" y="28.223"/><text y="32.064" class="g">{&quot;errors&quot;:[&quot;error</text><text x="18.036" y="32.064" class="g">deleting</text><text x="27.054" y="32.064" class="g">policy</text><text x="34.068" y="32.064" class="g">secret-for-florent:</text><text x="54.108" y="32.064" class="g">could</text><text x="60.12" y="32.064" class="g">not</text><text x="64.128" y="32.064" class="g">delete</text><text x="71.142" y="32.064" class="g">key;</text><text x="76.152" y="32.064" class="g">not</text><text x="80.16" y="32.064" class="g">found&quot;]}</text></svg></svg></g></g></svg></svg>