<svg xmlns="http://www.w3.org/2000/svg" xmlns:xlink="http://www.w3.org/1999/xlink" width="1440" height="277.1"><rect width="1440" height="277.1" rx="5" ry="5" class="a"/><svg y="0%" x="0%"><circle cx="20" cy="20" r="6" fill="#ff5f58"/><circle cx="40" cy="20" r="6" fill="#ffbd2e"/><circle cx="60" cy="20" r="6" fill="#18c132"/></svg><svg height="217.1" viewBox="0 0 140 21.71" width="1400" x="15" xmlns="http://www.w3.org/2000/svg" xmlns:xlink="http://www.w3.org/1999/xlink" y="50"><style>@keyframes i{0%{transform:translateX(0)}.4%{transform:translateX(-140px)}.6%{transform:translateX(-280px)}7.4%{transform:translateX(-420px)}10.7%{transform:translateX(-560px)}14.1%{transform:translateX(-700px)}17.6%{transform:translateX(-840px)}20.9%{transform:translateX(-980px)}24.3%{transform:translateX(-1120px)}27.6%{transform:translateX(-1260px)}31.1%{transform:translateX(-1400px)}34.4%{transform:translateX(-1540px)}38.3%{transform:translateX(-1680px)}41.4%{transform:translateX(-1820px)}44.9%{transform:translateX(-1960px)}51.6%{transform:translateX(-2100px)}55.2%{transform:translateX(-2240px)}59.1%{transform:translateX(-2380px)}62.4%{transform:translateX(-2520px)}65.9%{transform:translateX(-2660px)}69.8%{transform:translateX(-2800px)}73.6%{transform:translateX(-2940px)}77%{transform:translateX(-3080px)}81.6%{transform:translateX(-3220px)}88.4%{transform:translateX(-3360px)}88.5%{transform:translateX(-3500px)}to{transform:translateX(-3640px)}}.a{fill:#282d35}.f,.k{fill:#a8cc8c;white-space:pre}.k{fill:#b9bfca;font-weight:700}</style><g font-family="Monaco,Consolas,Menlo,'Bitstream Vera Sans Mono','Powerline Symbols',monospace" font-size="1.67"><defs><symbol id="1"><text y="1.67" class="f">curl</text><text x="5.01" y="1.67" class="f">\</text></symbol><symbol id="2"><text x="4.008" y="1.67" class="f">--silent</text><text x="13.026" y="1.67" class="f">\</text></symbol><symbol id="3"><text x="4.008" y="1.67" class="f">--request</text><text x="14.028" y="1.67" class="f">POST</text><text x="19.038" y="1.67" class="f">&quot;http://localhost:8888/admin/interceptors/v1/vcluster/teamA/interceptor/crypto-shredding-decrypt&quot;</text><text x="117.234" y="1.67" class="f">\</text></symbol><symbol id="4"><text x="4.008" y="1.67" class="f">--user</text><text x="11.022" y="1.67" class="f">&apos;admin:conduktor&apos;</text><text x="29.058" y="1.67" class="f">\</text></symbol><symbol id="5"><text x="4.008" y="1.67" class="f">--header</text><text x="13.026" y="1.67" class="f">&apos;Content-Type:</text><text x="28.056" y="1.67" class="f">application/json&apos;</text><text x="46.092" y="1.67" class="f">\</text></symbol><symbol id="6"><text x="4.008" y="1.67" class="f">--data-raw</text><text x="15.03" y="1.67" class="f">&apos;{&quot;pluginClass&quot;:&quot;io.conduktor.gateway.interceptor.DecryptPlugin&quot;,&quot;priority&quot;:100,&quot;config&quot;:{&quot;topic&quot;:&quot;customers-shredding&quot;,&quot;kmsC</text></symbol><symbol id="7"><text y="1.67" class="f">onfig&quot;:{&quot;vault&quot;:{&quot;uri&quot;:&quot;http://vault:8200&quot;,&quot;token&quot;:&quot;vault-plaintext-root-token&quot;,&quot;version&quot;:1}}}}&apos;</text><text x="97.194" y="1.67" class="f">|</text><text x="99.198" y="1.67" class="f">jq</text></symbol><symbol id="a"><path fill="transparent" d="M0 0h140v11H0z"/></symbol><symbol id="b"><path fill="#6f7683" d="M0 0h1.102v2.171H0z"/></symbol></defs><path class="a" d="M0 0h140v21.71H0z"/><g style="animation-duration:2.720976s;animation-iteration-count:infinite;animation-name:i;animation-timing-function:steps(1,end)"><svg width="3780"><svg><use xlink:href="#a"/><use xlink:href="#b" x="-.004"/></svg><svg x="140"><use xlink:href="#a"/><use xlink:href="#b" x="-.004"/></svg><svg x="280"><use xlink:href="#a"/><use xlink:href="#b" x="12.996" y="2.146"/><use xlink:href="#1"/><text x="4.008" y="3.841" class="f">--silent</text></svg><svg x="420"><use xlink:href="#a"/><use xlink:href="#b" x="17.996" y="4.317"/><use xlink:href="#1"/><use xlink:href="#2" y="2.171"/><text x="4.008" y="6.012" class="f">--request</text><text x="14.028" y="6.012" class="f">POST</text></svg><svg x="560"><use xlink:href="#a"/><use xlink:href="#b" x="37.996" y="4.317"/><use xlink:href="#1"/><use xlink:href="#2" y="2.171"/><text x="4.008" y="6.012" class="f">--request</text><text x="14.028" y="6.012" class="f">POST</text><text x="19.038" y="6.012" class="f">&quot;http://localhost:8</text></svg><svg x="700"><use xlink:href="#a"/><use xlink:href="#b" x="57.996" y="4.317"/><use xlink:href="#1"/><use xlink:href="#2" y="2.171"/><text x="4.008" y="6.012" class="f">--request</text><text x="14.028" y="6.012" class="f">POST</text><text x="19.038" y="6.012" class="f">&quot;http://localhost:8888/admin/intercepto</text></svg><svg x="840"><use xlink:href="#a"/><use xlink:href="#b" x="77.996" y="4.317"/><use xlink:href="#1"/><use xlink:href="#2" y="2.171"/><text x="4.008" y="6.012" class="f">--request</text><text x="14.028" y="6.012" class="f">POST</text><text x="19.038" y="6.012" class="f">&quot;http://localhost:8888/admin/interceptors/v1/vcluster/teamA</text></svg><svg x="980"><use xlink:href="#a"/><use xlink:href="#b" x="97.996" y="4.317"/><use xlink:href="#1"/><use xlink:href="#2" y="2.171"/><text x="4.008" y="6.012" class="f">--request</text><text x="14.028" y="6.012" class="f">POST</text><text x="19.038" y="6.012" class="f">&quot;http://localhost:8888/admin/interceptors/v1/vcluster/teamA/interceptor/crypto-</text></svg><svg x="1120"><use xlink:href="#a"/><use xlink:href="#b" x="117.996" y="4.317"/><use xlink:href="#1"/><use xlink:href="#2" y="2.171"/><use xlink:href="#3" y="4.342"/></svg><svg x="1260"><use xlink:href="#a"/><use xlink:href="#b" x="18.996" y="6.488"/><use xlink:href="#1"/><use xlink:href="#2" y="2.171"/><use xlink:href="#3" y="4.342"/><text x="4.008" y="8.183" class="f">--user</text><text x="11.022" y="8.183" class="f">&apos;admin:c</text></svg><svg x="1400"><use xlink:href="#a"/><use xlink:href="#b" x="7.996" y="8.659"/><use xlink:href="#1"/><use xlink:href="#2" y="2.171"/><use xlink:href="#3" y="4.342"/><use xlink:href="#4" y="6.513"/><text x="4.008" y="10.354" class="f">--he</text></svg><svg x="1540"><use xlink:href="#a"/><use xlink:href="#b" x="27.996" y="8.659"/><use xlink:href="#1"/><use xlink:href="#2" y="2.171"/><use xlink:href="#3" y="4.342"/><use xlink:href="#4" y="6.513"/><text x="4.008" y="10.354" class="f">--header</text><text x="13.026" y="10.354" class="f">&apos;Content-Type:</text></svg><svg x="1680"><use xlink:href="#a"/><use xlink:href="#b" x="-.004" y="10.83"/><use xlink:href="#1"/><use xlink:href="#2" y="2.171"/><use xlink:href="#3" y="4.342"/><use xlink:href="#4" y="6.513"/><use xlink:href="#5" y="8.684"/></svg><svg x="1820"><use xlink:href="#a"/><use xlink:href="#b" x="19.996" y="10.83"/><use xlink:href="#1"/><use xlink:href="#2" y="2.171"/><use xlink:href="#3" y="4.342"/><use xlink:href="#4" y="6.513"/><use xlink:href="#5" y="8.684"/><text x="4.008" y="12.525" class="f">--data-raw</text><text x="15.03" y="12.525" class="f">&apos;{&quot;pl</text></svg><svg x="1960"><use xlink:href="#a"/><use xlink:href="#b" x="39.996" y="10.83"/><use xlink:href="#1"/><use xlink:href="#2" y="2.171"/><use xlink:href="#3" y="4.342"/><use xlink:href="#4" y="6.513"/><use xlink:href="#5" y="8.684"/><text x="4.008" y="12.525" class="f">--data-raw</text><text x="15.03" y="12.525" class="f">&apos;{&quot;pluginClass&quot;:&quot;io.condu</text></svg><svg x="2100"><use xlink:href="#a"/><use xlink:href="#b" x="59.996" y="10.83"/><use xlink:href="#1"/><use xlink:href="#2" y="2.171"/><use xlink:href="#3" y="4.342"/><use xlink:href="#4" y="6.513"/><use xlink:href="#5" y="8.684"/><text x="4.008" y="12.525" class="f">--data-raw</text><text x="15.03" y="12.525" class="f">&apos;{&quot;pluginClass&quot;:&quot;io.conduktor.gateway.interce</text></svg><svg x="2240"><use xlink:href="#a"/><use xlink:href="#b" x="79.996" y="10.83"/><use xlink:href="#1"/><use xlink:href="#2" y="2.171"/><use xlink:href="#3" y="4.342"/><use xlink:href="#4" y="6.513"/><use xlink:href="#5" y="8.684"/><text x="4.008" y="12.525" class="f">--data-raw</text><text x="15.03" y="12.525" class="f">&apos;{&quot;pluginClass&quot;:&quot;io.conduktor.gateway.interceptor.DecryptPlugin&quot;,</text></svg><svg x="2380"><use xlink:href="#a"/><use xlink:href="#b" x="99.996" y="10.83"/><use xlink:href="#1"/><use xlink:href="#2" y="2.171"/><use xlink:href="#3" y="4.342"/><use xlink:href="#4" y="6.513"/><use xlink:href="#5" y="8.684"/><text x="4.008" y="12.525" class="f">--data-raw</text><text x="15.03" y="12.525" class="f">&apos;{&quot;pluginClass&quot;:&quot;io.conduktor.gateway.interceptor.DecryptPlugin&quot;,&quot;priority&quot;:100,&quot;conf</text></svg><svg x="2520"><use xlink:href="#a"/><use xlink:href="#b" x="119.996" y="10.83"/><use xlink:href="#1"/><use xlink:href="#2" y="2.171"/><use xlink:href="#3" y="4.342"/><use xlink:href="#4" y="6.513"/><use xlink:href="#5" y="8.684"/><text x="4.008" y="12.525" class="f">--data-raw</text><text x="15.03" y="12.525" class="f">&apos;{&quot;pluginClass&quot;:&quot;io.conduktor.gateway.interceptor.DecryptPlugin&quot;,&quot;priority&quot;:100,&quot;config&quot;:{&quot;topic&quot;:&quot;custom</text></svg><svg x="2660"><use xlink:href="#a"/><use xlink:href="#b" x="139.996" y="10.83"/><use xlink:href="#1"/><use xlink:href="#2" y="2.171"/><use xlink:href="#3" y="4.342"/><use xlink:href="#4" y="6.513"/><use xlink:href="#5" y="8.684"/><use xlink:href="#6" y="10.855"/></svg><svg x="2800"><use xlink:href="#a"/><use xlink:href="#b" x="19.996" y="13.001"/><use xlink:href="#1"/><use xlink:href="#2" y="2.171"/><use xlink:href="#3" y="4.342"/><use xlink:href="#4" y="6.513"/><use xlink:href="#5" y="8.684"/><use xlink:href="#6" y="10.855"/><text y="14.696" class="f">onfig&quot;:{&quot;vault&quot;:{&quot;ur</text></svg><svg x="2940"><use xlink:href="#a"/><use xlink:href="#b" x="39.996" y="13.001"/><use xlink:href="#1"/><use xlink:href="#2" y="2.171"/><use xlink:href="#3" y="4.342"/><use xlink:href="#4" y="6.513"/><use xlink:href="#5" y="8.684"/><use xlink:href="#6" y="10.855"/><text y="14.696" class="f">onfig&quot;:{&quot;vault&quot;:{&quot;uri&quot;:&quot;http://vault:820</text></svg><svg x="3080"><use xlink:href="#a"/><use xlink:href="#b" x="59.996" y="13.001"/><use xlink:href="#1"/><use xlink:href="#2" y="2.171"/><use xlink:href="#3" y="4.342"/><use xlink:href="#4" y="6.513"/><use xlink:href="#5" y="8.684"/><use xlink:href="#6" y="10.855"/><text y="14.696" class="f">onfig&quot;:{&quot;vault&quot;:{&quot;uri&quot;:&quot;http://vault:8200&quot;,&quot;token&quot;:&quot;vault-pl</text></svg><svg x="3220"><use xlink:href="#a"/><use xlink:href="#b" x="99.996" y="13.001"/><use xlink:href="#1"/><use xlink:href="#2" y="2.171"/><use xlink:href="#3" y="4.342"/><use xlink:href="#4" y="6.513"/><use xlink:href="#5" y="8.684"/><use xlink:href="#6" y="10.855"/><text y="14.696" class="f">onfig&quot;:{&quot;vault&quot;:{&quot;uri&quot;:&quot;http://vault:8200&quot;,&quot;token&quot;:&quot;vault-plaintext-root-token&quot;,&quot;version&quot;:1}}}}&apos;</text><text x="97.194" y="14.696" class="f">|</text><text x="99.198" y="14.696" class="f">j</text></svg><svg x="3360"><use xlink:href="#a"/><use xlink:href="#b" x="-.004" y="15.172"/><use xlink:href="#1"/><use xlink:href="#2" y="2.171"/><use xlink:href="#3" y="4.342"/><use xlink:href="#4" y="6.513"/><use xlink:href="#5" y="8.684"/><use xlink:href="#6" y="10.855"/><use xlink:href="#7" y="13.026"/></svg><svg x="3500"><use xlink:href="#a"/><use xlink:href="#b" x="-.004" y="17.343"/><use xlink:href="#1"/><use xlink:href="#2" y="2.171"/><use xlink:href="#3" y="4.342"/><use xlink:href="#4" y="6.513"/><use xlink:href="#5" y="8.684"/><use xlink:href="#6" y="10.855"/><use xlink:href="#7" y="13.026"/></svg><svg x="3640"><use xlink:href="#a"/><use xlink:href="#b" x="-.004" y="21.685"/><use xlink:href="#2"/><use xlink:href="#3" y="2.171"/><use xlink:href="#4" y="4.342"/><use xlink:href="#5" y="6.513"/><use xlink:href="#6" y="8.684"/><use xlink:href="#7" y="10.855"/><text y="16.867" class="k">{</text><text x="2.004" y="19.038" style="white-space:pre" fill="#71bef2" font-weight="700">&quot;message&quot;</text><text x="11.022" y="19.038" class="k">:</text><text x="13.026" y="19.038" class="f">&quot;crypto-shredding-decrypt</text><text x="39.078" y="19.038" class="f">is</text><text x="42.084" y="19.038" class="f">created&quot;</text><text y="21.209" class="k">}</text></svg></svg></g></g></svg></svg>