<svg xmlns="http://www.w3.org/2000/svg" xmlns:xlink="http://www.w3.org/1999/xlink" width="1440" height="494.2"><rect width="1440" height="494.2" rx="5" ry="5" class="a"/><svg y="0%" x="0%"><circle cx="20" cy="20" r="6" fill="#ff5f58"/><circle cx="40" cy="20" r="6" fill="#ffbd2e"/><circle cx="60" cy="20" r="6" fill="#18c132"/></svg><svg height="434.2" viewBox="0 0 140 43.42" width="1400" x="15" xmlns="http://www.w3.org/2000/svg" xmlns:xlink="http://www.w3.org/1999/xlink" y="50"><style>@keyframes l{0%{transform:translateX(0)}.2%{transform:translateX(-140px)}.3%{transform:translateX(-280px)}3.3%{transform:translateX(-420px)}4.8%{transform:translateX(-560px)}6.3%{transform:translateX(-700px)}7.9%{transform:translateX(-840px)}9.4%{transform:translateX(-980px)}10.9%{transform:translateX(-1120px)}12.4%{transform:translateX(-1260px)}13.9%{transform:translateX(-1400px)}15.4%{transform:translateX(-1540px)}17%{transform:translateX(-1680px)}18.5%{transform:translateX(-1820px)}20%{transform:translateX(-1960px)}21.5%{transform:translateX(-2100px)}23.2%{transform:translateX(-2240px)}24.7%{transform:translateX(-2380px)}27.7%{transform:translateX(-2520px)}29.3%{transform:translateX(-2660px)}30.8%{transform:translateX(-2800px)}32.3%{transform:translateX(-2940px)}33.8%{transform:translateX(-3080px)}34.3%{transform:translateX(-3220px)}53.5%{transform:translateX(-3500px)}65.2%{transform:translateX(-3640px)}97.7%{transform:translateX(-3780px)}to{transform:translateX(-3920px)}}.a{fill:#282d35}.f,.g,.h,.i{fill:#a8cc8c;white-space:pre}.g,.h,.i{fill:#b9c0cb}.h,.i{fill:#b9bfca;font-weight:700}.i{fill:#71bef2}</style><g font-family="Monaco,Consolas,Menlo,'Bitstream Vera Sans Mono','Powerline Symbols',monospace" font-size="1.67"><defs><symbol id="1"><text y="1.67" class="f">kafka-console-consumer</text><text x="23.046" y="1.67" class="f">\</text></symbol><symbol id="2"><text x="4.008" y="1.67" class="f">--bootstrap-server</text><text x="23.046" y="1.67" class="f">localhost:6969,localhost:7969</text><text x="53.106" y="1.67" class="f">\</text></symbol><symbol id="3"><text x="4.008" y="1.67" class="f">--consumer.config</text><text x="22.044" y="1.67" class="f">teamA-sa.properties</text><text x="42.084" y="1.67" class="f">\</text></symbol><symbol id="4"><text x="4.008" y="1.67" class="f">--topic</text><text x="12.024" y="1.67" class="f">customers-shredding</text><text x="32.064" y="1.67" class="f">\</text></symbol><symbol id="5"><text x="4.008" y="1.67" class="f">--from-beginning</text><text x="21.042" y="1.67" class="f">\</text></symbol><symbol id="6"><text x="4.008" y="1.67" class="f">--timeout-ms</text><text x="17.034" y="1.67" class="f">5000</text><text x="22.044" y="1.67" class="f">|</text><text x="24.048" y="1.67" class="f">jq</text></symbol><symbol id="7"><text y="1.67" class="g">[2023-09-19</text><text x="12.024" y="1.67" class="g">09:59:58,208]</text><text x="26.052" y="1.67" class="g">WARN</text><text x="31.062" y="1.67" class="g">[Consumer</text><text x="41.082" y="1.67" class="g">clientId=console-consumer,</text><text x="68.136" y="1.67" class="g">groupId=console-consumer-86910]</text><text x="100.2" y="1.67" class="g">Connection</text><text x="111.222" y="1.67" class="g">to</text><text x="114.228" y="1.67" class="g">node</text><text x="119.238" y="1.67" class="g">-2</text><text x="122.244" y="1.67" class="g">(localhost/127.0.0</text></symbol><symbol id="8"><text y="1.67" class="g">.1:7969)</text><text x="9.018" y="1.67" class="g">terminated</text><text x="20.04" y="1.67" class="g">during</text><text x="27.054" y="1.67" class="g">authentication.</text><text x="43.086" y="1.67" class="g">This</text><text x="48.096" y="1.67" class="g">may</text><text x="52.104" y="1.67" class="g">happen</text><text x="59.118" y="1.67" class="g">due</text><text x="63.126" y="1.67" class="g">to</text><text x="66.132" y="1.67" class="g">any</text><text x="70.14" y="1.67" class="g">of</text><text x="73.146" y="1.67" class="g">the</text><text x="77.154" y="1.67" class="g">following</text><text x="87.174" y="1.67" class="g">reasons:</text><text x="96.192" y="1.67" class="g">(1)</text><text x="100.2" y="1.67" class="g">Authentication</text><text x="115.23" y="1.67" class="g">failed</text><text x="122.244" y="1.67" class="g">due</text><text x="126.252" y="1.67" class="g">to</text><text x="129.258" y="1.67" class="g">invalid</text><text x="137.274" y="1.67" class="g">cre</text></symbol><symbol id="9"><text y="1.67" class="g">dentials</text><text x="9.018" y="1.67" class="g">with</text><text x="14.028" y="1.67" class="g">brokers</text><text x="22.044" y="1.67" class="g">older</text><text x="28.056" y="1.67" class="g">than</text><text x="33.066" y="1.67" class="g">1.0.0,</text><text x="40.08" y="1.67" class="g">(2)</text><text x="44.088" y="1.67" class="g">Firewall</text><text x="53.106" y="1.67" class="g">blocking</text><text x="62.124" y="1.67" class="g">Kafka</text><text x="68.136" y="1.67" class="g">TLS</text><text x="72.144" y="1.67" class="g">traffic</text><text x="80.16" y="1.67" class="g">(eg</text><text x="84.168" y="1.67" class="g">it</text><text x="87.174" y="1.67" class="g">may</text><text x="91.182" y="1.67" class="g">only</text><text x="96.192" y="1.67" class="g">allow</text><text x="102.204" y="1.67" class="g">HTTPS</text><text x="108.216" y="1.67" class="g">traffic),</text><text x="118.236" y="1.67" class="g">(3)</text><text x="122.244" y="1.67" class="g">Transient</text><text x="132.264" y="1.67" class="g">network</text></symbol><symbol id="10"><text y="1.67" class="g">issue.</text><text x="7.014" y="1.67" class="g">(org.apache.kafka.clients.NetworkClient)</text></symbol><symbol id="11"><text y="1.67" class="g">[2023-09-19</text><text x="12.024" y="1.67" class="g">09:59:58,209]</text><text x="26.052" y="1.67" class="g">WARN</text><text x="31.062" y="1.67" class="g">[Consumer</text><text x="41.082" y="1.67" class="g">clientId=console-consumer,</text><text x="68.136" y="1.67" class="g">groupId=console-consumer-86910]</text><text x="100.2" y="1.67" class="g">Bootstrap</text><text x="110.22" y="1.67" class="g">broker</text><text x="117.234" y="1.67" class="g">localhost:7969</text><text x="132.264" y="1.67" class="g">(id:</text><text x="137.274" y="1.67" class="g">-2</text></symbol><symbol id="12"><text y="1.67" class="g">rack:</text><text x="6.012" y="1.67" class="g">null)</text><text x="12.024" y="1.67" class="g">disconnected</text><text x="25.05" y="1.67" class="g">(org.apache.kafka.clients.NetworkClient)</text></symbol><symbol id="13"><text y="1.67" class="h">{</text></symbol><symbol id="14"><text x="2.004" y="1.67" class="i">&quot;name&quot;</text><text x="8.016" y="1.67" class="h">:</text><text x="10.02" y="1.67" class="f">&quot;tom&quot;</text><text x="15.03" y="1.67" class="h">,</text></symbol><symbol id="15"><text x="2.004" y="1.67" class="i">&quot;username&quot;</text><text x="12.024" y="1.67" class="h">:</text><text x="14.028" y="1.67" class="f">&quot;tom@conduktor.io&quot;</text><text x="32.064" y="1.67" class="h">,</text></symbol><symbol id="16"><text x="2.004" y="1.67" class="i">&quot;password&quot;</text><text x="12.024" y="1.67" class="h">:</text><text x="14.028" y="1.67" class="f">&quot;motorhead&quot;</text><text x="25.05" y="1.67" class="h">,</text></symbol><symbol id="17"><text x="2.004" y="1.67" class="i">&quot;visa&quot;</text><text x="8.016" y="1.67" class="h">:</text><text x="10.02" y="1.67" class="f">&quot;#abc123&quot;</text><text x="19.038" y="1.67" class="h">,</text></symbol><symbol id="18"><text x="2.004" y="1.67" class="i">&quot;address&quot;</text><text x="11.022" y="1.67" class="h">:</text><text x="13.026" y="1.67" class="f">&quot;Chancery</text><text x="23.046" y="1.67" class="f">lane,</text><text x="29.058" y="1.67" class="f">London&quot;</text></symbol><symbol id="19"><text y="1.67" class="h">}</text></symbol><symbol id="20"><text x="2.004" y="1.67" class="i">&quot;name&quot;</text><text x="8.016" y="1.67" class="h">:</text><text x="10.02" y="1.67" class="f">&quot;florent&quot;</text><text x="19.038" y="1.67" class="h">,</text></symbol><symbol id="21"><text x="2.004" y="1.67" class="i">&quot;username&quot;</text><text x="12.024" y="1.67" class="h">:</text><text x="14.028" y="1.67" class="f">&quot;florent@conduktor.io&quot;</text><text x="36.072" y="1.67" class="h">,</text></symbol><symbol id="22"><text x="2.004" y="1.67" class="i">&quot;password&quot;</text><text x="12.024" y="1.67" class="h">:</text><text x="14.028" y="1.67" class="f">&quot;kitesurf&quot;</text><text x="24.048" y="1.67" class="h">,</text></symbol><symbol id="23"><text x="2.004" y="1.67" class="i">&quot;visa&quot;</text><text x="8.016" y="1.67" class="h">:</text><text x="10.02" y="1.67" class="f">&quot;#888999XZ&quot;</text><text x="21.042" y="1.67" class="h">,</text></symbol><symbol id="24"><text x="2.004" y="1.67" class="i">&quot;address&quot;</text><text x="11.022" y="1.67" class="h">:</text><text x="13.026" y="1.67" class="f">&quot;Dubai,</text><text x="21.042" y="1.67" class="f">UAE&quot;</text></symbol><symbol id="25"><text y="1.67" class="g">[2023-09-19</text><text x="12.024" y="1.67" class="g">10:00:03,929]</text><text x="26.052" y="1.67" class="g">ERROR</text><text x="32.064" y="1.67" class="g">Error</text><text x="38.076" y="1.67" class="g">processing</text><text x="49.098" y="1.67" class="g">message,</text><text x="58.116" y="1.67" class="g">terminating</text><text x="70.14" y="1.67" class="g">consumer</text><text x="79.158" y="1.67" class="g">process:</text><text x="89.178" y="1.67" class="g">(kafka.tools.ConsoleConsumer$)</text></symbol><symbol id="26"><text y="1.67" class="g">org.apache.kafka.common.errors.TimeoutException</text></symbol><symbol id="a"><path fill="transparent" d="M0 0h140v21H0z"/></symbol><symbol id="b"><path fill="#6f7683" d="M0 0h1.102v2.171H0z"/></symbol></defs><path class="a" d="M0 0h140v43.42H0z"/><g style="animation-duration:6.137795s;animation-iteration-count:infinite;animation-name:l;animation-timing-function:steps(1,end)"><svg width="4060"><svg><use xlink:href="#a"/><use xlink:href="#b" x="-.004"/></svg><svg x="140"><use xlink:href="#a"/><use xlink:href="#b" x="-.004"/></svg><svg x="280"><use xlink:href="#a"/><use xlink:href="#b" x="9.996"/><text y="1.67" class="f">kafka-cons</text></svg><svg x="420"><use xlink:href="#a"/><use xlink:href="#b" x="19.996"/><text y="1.67" class="f">kafka-console-consum</text></svg><svg x="560"><use xlink:href="#a"/><use xlink:href="#b" x="4.996" y="2.146"/><use xlink:href="#1"/><text x="4.008" y="3.841" class="f">-</text></svg><svg x="700"><use xlink:href="#a"/><use xlink:href="#b" x="14.996" y="2.146"/><use xlink:href="#1"/><text x="4.008" y="3.841" class="f">--bootstrap</text></svg><svg x="840"><use xlink:href="#a"/><use xlink:href="#b" x="24.996" y="2.146"/><use xlink:href="#1"/><text x="4.008" y="3.841" class="f">--bootstrap-server</text><text x="23.046" y="3.841" class="f">lo</text></svg><svg x="980"><use xlink:href="#a"/><use xlink:href="#b" x="34.996" y="2.146"/><use xlink:href="#1"/><text x="4.008" y="3.841" class="f">--bootstrap-server</text><text x="23.046" y="3.841" class="f">localhost:69</text></svg><svg x="1120"><use xlink:href="#a"/><use xlink:href="#b" x="44.996" y="2.146"/><use xlink:href="#1"/><text x="4.008" y="3.841" class="f">--bootstrap-server</text><text x="23.046" y="3.841" class="f">localhost:6969,localho</text></svg><svg x="1260"><use xlink:href="#a"/><use xlink:href="#b" x="-.004" y="4.317"/><use xlink:href="#1"/><use xlink:href="#2" y="2.171"/></svg><svg x="1400"><use xlink:href="#a"/><use xlink:href="#b" x="9.996" y="4.317"/><use xlink:href="#1"/><use xlink:href="#2" y="2.171"/><text x="4.008" y="6.012" class="f">--cons</text></svg><svg x="1540"><use xlink:href="#a"/><use xlink:href="#b" x="19.996" y="4.317"/><use xlink:href="#1"/><use xlink:href="#2" y="2.171"/><text x="4.008" y="6.012" class="f">--consumer.confi</text></svg><svg x="1680"><use xlink:href="#a"/><use xlink:href="#b" x="29.996" y="4.317"/><use xlink:href="#1"/><use xlink:href="#2" y="2.171"/><text x="4.008" y="6.012" class="f">--consumer.config</text><text x="22.044" y="6.012" class="f">teamA-sa</text></svg><svg x="1820"><use xlink:href="#a"/><use xlink:href="#b" x="39.996" y="4.317"/><use xlink:href="#1"/><use xlink:href="#2" y="2.171"/><text x="4.008" y="6.012" class="f">--consumer.config</text><text x="22.044" y="6.012" class="f">teamA-sa.propertie</text></svg><svg x="1960"><use xlink:href="#a"/><use xlink:href="#b" x="5.996" y="6.488"/><use xlink:href="#1"/><use xlink:href="#2" y="2.171"/><use xlink:href="#3" y="4.342"/><text x="4.008" y="8.183" class="f">--</text></svg><svg x="2100"><use xlink:href="#a"/><use xlink:href="#b" x="15.996" y="6.488"/><use xlink:href="#1"/><use xlink:href="#2" y="2.171"/><use xlink:href="#3" y="4.342"/><text x="4.008" y="8.183" class="f">--topic</text><text x="12.024" y="8.183" class="f">cust</text></svg><svg x="2240"><use xlink:href="#a"/><use xlink:href="#b" x="25.996" y="6.488"/><use xlink:href="#1"/><use xlink:href="#2" y="2.171"/><use xlink:href="#3" y="4.342"/><text x="4.008" y="8.183" class="f">--topic</text><text x="12.024" y="8.183" class="f">customers-shre</text></svg><svg x="2380"><use xlink:href="#a"/><use xlink:href="#b" x="1.996" y="8.659"/><use xlink:href="#1"/><use xlink:href="#2" y="2.171"/><use xlink:href="#3" y="4.342"/><use xlink:href="#4" y="6.513"/></svg><svg x="2520"><use xlink:href="#a"/><use xlink:href="#b" x="11.996" y="8.659"/><use xlink:href="#1"/><use xlink:href="#2" y="2.171"/><use xlink:href="#3" y="4.342"/><use xlink:href="#4" y="6.513"/><text x="4.008" y="10.354" class="f">--from-b</text></svg><svg x="2660"><use xlink:href="#a"/><use xlink:href="#b" x="21.996" y="8.659"/><use xlink:href="#1"/><use xlink:href="#2" y="2.171"/><use xlink:href="#3" y="4.342"/><use xlink:href="#4" y="6.513"/><use xlink:href="#5" y="8.684"/></svg><svg x="2800"><use xlink:href="#a"/><use xlink:href="#b" x="8.996" y="10.83"/><use xlink:href="#1"/><use xlink:href="#2" y="2.171"/><use xlink:href="#3" y="4.342"/><use xlink:href="#4" y="6.513"/><use xlink:href="#5" y="8.684"/><text x="4.008" y="12.525" class="f">--tim</text></svg><svg x="2940"><use xlink:href="#a"/><use xlink:href="#b" x="18.996" y="10.83"/><use xlink:href="#1"/><use xlink:href="#2" y="2.171"/><use xlink:href="#3" y="4.342"/><use xlink:href="#4" y="6.513"/><use xlink:href="#5" y="8.684"/><text x="4.008" y="12.525" class="f">--timeout-ms</text><text x="17.034" y="12.525" class="f">50</text></svg><svg x="3080"><use xlink:href="#a"/><use xlink:href="#b" x="-.004" y="13.001"/><use xlink:href="#1"/><use xlink:href="#2" y="2.171"/><use xlink:href="#3" y="4.342"/><use xlink:href="#4" y="6.513"/><use xlink:href="#5" y="8.684"/><use xlink:href="#6" y="10.855"/></svg><svg x="3220"><use xlink:href="#a"/><use xlink:href="#b" x="-.004" y="15.172"/><use xlink:href="#1"/><use xlink:href="#2" y="2.171"/><use xlink:href="#3" y="4.342"/><use xlink:href="#4" y="6.513"/><use xlink:href="#5" y="8.684"/><use xlink:href="#6" y="10.855"/></svg><svg x="3360"><use xlink:href="#a"/><use xlink:href="#b" x="-.004" y="23.856"/><use xlink:href="#1"/><use xlink:href="#2" y="2.171"/><use xlink:href="#3" y="4.342"/><use xlink:href="#4" y="6.513"/><use xlink:href="#5" y="8.684"/><use xlink:href="#6" y="10.855"/><use xlink:href="#7" y="15.197"/><use xlink:href="#8" y="17.368"/><use xlink:href="#9" y="19.539"/><use xlink:href="#10" y="21.71"/></svg><svg x="3500"><use xlink:href="#a"/><use xlink:href="#b" x="-.004" y="28.198"/><use xlink:href="#1"/><use xlink:href="#2" y="2.171"/><use xlink:href="#3" y="4.342"/><use xlink:href="#4" y="6.513"/><use xlink:href="#5" y="8.684"/><use xlink:href="#6" y="10.855"/><use xlink:href="#7" y="15.197"/><use xlink:href="#8" y="17.368"/><use xlink:href="#9" y="19.539"/><use xlink:href="#10" y="21.71"/><use xlink:href="#11" y="23.881"/><use xlink:href="#12" y="26.052"/></svg><svg x="3640"><use xlink:href="#a"/><use xlink:href="#b" x="-.004" y="43.395"/><use xlink:href="#7"/><use xlink:href="#8" y="2.171"/><use xlink:href="#9" y="4.342"/><use xlink:href="#10" y="6.513"/><use xlink:href="#11" y="8.684"/><use xlink:href="#12" y="10.855"/><use xlink:href="#13" y="13.026"/><use xlink:href="#14" y="15.197"/><use xlink:href="#15" y="17.368"/><use xlink:href="#16" y="19.539"/><use xlink:href="#17" y="21.71"/><use xlink:href="#18" y="23.881"/><use xlink:href="#19" y="26.052"/><use xlink:href="#13" y="28.223"/><use xlink:href="#20" y="30.394"/><use xlink:href="#21" y="32.565"/><use xlink:href="#22" y="34.736"/><use xlink:href="#23" y="36.907"/><use xlink:href="#24" y="39.078"/><use xlink:href="#19" y="41.249"/></svg><svg x="3780"><use xlink:href="#a"/><use xlink:href="#b" x="-.004" y="43.395"/><use xlink:href="#9"/><use xlink:href="#10" y="2.171"/><use xlink:href="#11" y="4.342"/><use xlink:href="#12" y="6.513"/><use xlink:href="#13" y="8.684"/><use xlink:href="#14" y="10.855"/><use xlink:href="#15" y="13.026"/><use xlink:href="#16" y="15.197"/><use xlink:href="#17" y="17.368"/><use xlink:href="#18" y="19.539"/><use xlink:href="#19" y="21.71"/><use xlink:href="#13" y="23.881"/><use xlink:href="#20" y="26.052"/><use xlink:href="#21" y="28.223"/><use xlink:href="#22" y="30.394"/><use xlink:href="#23" y="32.565"/><use xlink:href="#24" y="34.736"/><use xlink:href="#19" y="36.907"/><use xlink:href="#25" y="39.078"/><use xlink:href="#26" y="41.249"/></svg><svg x="3920"><use xlink:href="#a"/><use xlink:href="#b" x="-.004" y="43.395"/><use xlink:href="#10"/><use xlink:href="#11" y="2.171"/><use xlink:href="#12" y="4.342"/><use xlink:href="#13" y="6.513"/><use xlink:href="#14" y="8.684"/><use xlink:href="#15" y="10.855"/><use xlink:href="#16" y="13.026"/><use xlink:href="#17" y="15.197"/><use xlink:href="#18" y="17.368"/><use xlink:href="#19" y="19.539"/><use xlink:href="#13" y="21.71"/><use xlink:href="#20" y="23.881"/><use xlink:href="#21" y="26.052"/><use xlink:href="#22" y="28.223"/><use xlink:href="#23" y="30.394"/><use xlink:href="#24" y="32.565"/><use xlink:href="#19" y="34.736"/><use xlink:href="#25" y="36.907"/><use xlink:href="#26" y="39.078"/><text y="42.919" class="g">Processed</text><text x="10.02" y="42.919" class="g">a</text><text x="12.024" y="42.919" class="g">total</text><text x="18.036" y="42.919" class="g">of</text><text x="21.042" y="42.919" class="g">2</text><text x="23.046" y="42.919" class="g">messages</text></svg></svg></g></g></svg></svg>