<svg xmlns="http://www.w3.org/2000/svg" xmlns:xlink="http://www.w3.org/1999/xlink" width="1440" height="494.2"><rect width="1440" height="494.2" rx="5" ry="5" class="a"/><svg y="0%" x="0%"><circle cx="20" cy="20" r="6" fill="#ff5f58"/><circle cx="40" cy="20" r="6" fill="#ffbd2e"/><circle cx="60" cy="20" r="6" fill="#18c132"/></svg><svg height="434.2" viewBox="0 0 140 43.42" width="1400" x="15" xmlns="http://www.w3.org/2000/svg" xmlns:xlink="http://www.w3.org/1999/xlink" y="50"><style>@keyframes n{0%{transform:translateX(0)}.8%{transform:translateX(-140px)}1.1%{transform:translateX(-280px)}11.1%{transform:translateX(-420px)}16%{transform:translateX(-560px)}20.9%{transform:translateX(-700px)}25.9%{transform:translateX(-840px)}30.8%{transform:translateX(-980px)}35.8%{transform:translateX(-1120px)}40.7%{transform:translateX(-1260px)}45.7%{transform:translateX(-1400px)}51.5%{transform:translateX(-1540px)}56.5%{transform:translateX(-1680px)}61.5%{transform:translateX(-1820px)}66.5%{transform:translateX(-1960px)}71.7%{transform:translateX(-2100px)}81.6%{transform:translateX(-2240px)}86.6%{transform:translateX(-2380px)}92.6%{transform:translateX(-2520px)}97.7%{transform:translateX(-2660px)}97.8%{transform:translateX(-2800px)}98.4%{transform:translateX(-3080px)}99.9%{transform:translateX(-3360px)}to{transform:translateX(-4480px)}}.a{fill:#282d35}.f,.g{fill:#a8cc8c;white-space:pre}.g{fill:#b9c0cb}.h{fill:#b9bfca;font-weight:700}.h,.i,.j,.k{white-space:pre}.i{fill:#71bef2;font-weight:700}.j,.k{fill:#6f7783}.k{fill:#b9bfca}</style><g font-family="Monaco,Consolas,Menlo,'Bitstream Vera Sans Mono','Powerline Symbols',monospace" font-size="1.67"><defs><symbol id="1"><text y="1.67" class="f">curl</text><text x="5.01" y="1.67" class="f">\</text></symbol><symbol id="2"><text x="4.008" y="1.67" class="f">-u</text><text x="7.014" y="1.67" class="f">&quot;admin:conduktor&quot;</text><text x="25.05" y="1.67" class="f">\</text></symbol><symbol id="3"><text x="4.008" y="1.67" class="f">--request</text><text x="14.028" y="1.67" class="f">GET</text><text x="18.036" y="1.67" class="f">&quot;http://localhost:8888/admin/interceptors/v1/vcluster/teamA/interceptors&quot;</text><text x="92.184" y="1.67" class="f">\</text></symbol><symbol id="4"><text x="4.008" y="1.67" class="f">--header</text><text x="13.026" y="1.67" class="f">&apos;Content-Type:</text><text x="28.056" y="1.67" class="f">application/json&apos;</text><text x="46.092" y="1.67" class="f">|</text><text x="48.096" y="1.67" class="f">jq</text></symbol><symbol id="5"><text x="2.004" y="1.67" class="g">%</text><text x="4.008" y="1.67" class="g">Total</text><text x="13.026" y="1.67" class="g">%</text><text x="15.03" y="1.67" class="g">Received</text><text x="24.048" y="1.67" class="g">%</text><text x="26.052" y="1.67" class="g">Xferd</text><text x="33.066" y="1.67" class="g">Average</text><text x="41.082" y="1.67" class="g">Speed</text><text x="49.098" y="1.67" class="g">Time</text><text x="57.114" y="1.67" class="g">Time</text><text x="66.132" y="1.67" class="g">Time</text><text x="72.144" y="1.67" class="g">Current</text></symbol><symbol id="6"><text x="33.066" y="1.67" class="g">Dload</text><text x="40.08" y="1.67" class="g">Upload</text><text x="49.098" y="1.67" class="g">Total</text><text x="57.114" y="1.67" class="g">Spent</text><text x="66.132" y="1.67" class="g">Left</text><text x="72.144" y="1.67" class="g">Speed</text></symbol><symbol id="7"><text y="1.67" class="g">100</text><text x="6.012" y="1.67" class="g">905</text><text x="11.022" y="1.67" class="g">100</text><text x="17.034" y="1.67" class="g">905</text><text x="24.048" y="1.67" class="g">0</text><text x="30.06" y="1.67" class="g">0</text><text x="33.066" y="1.67" class="g">28407</text><text x="44.088" y="1.67" class="g">0</text><text x="46.092" y="1.67" class="g">--:--:--</text><text x="55.11" y="1.67" class="g">--:--:--</text><text x="64.128" y="1.67" class="g">--:--:--</text><text x="73.146" y="1.67" class="g">32321</text></symbol><symbol id="8"><text y="1.67" class="h">{</text></symbol><symbol id="9"><text x="2.004" y="1.67" class="i">&quot;interceptors&quot;</text><text x="16.032" y="1.67" class="h">:</text><text x="18.036" y="1.67" class="h">[</text></symbol><symbol id="10"><text x="4.008" y="1.67" class="h">{</text></symbol><symbol id="11"><text x="6.012" y="1.67" class="i">&quot;name&quot;</text><text x="12.024" y="1.67" class="h">:</text><text x="14.028" y="1.67" class="f">&quot;crypto-shredding-decrypt&quot;</text><text x="40.08" y="1.67" class="h">,</text></symbol><symbol id="12"><text x="6.012" y="1.67" class="i">&quot;pluginClass&quot;</text><text x="19.038" y="1.67" class="h">:</text><text x="21.042" y="1.67" class="f">&quot;io.conduktor.gateway.interceptor.DecryptPlugin&quot;</text><text x="69.138" y="1.67" class="h">,</text></symbol><symbol id="13"><text x="6.012" y="1.67" class="i">&quot;apiKey&quot;</text><text x="14.028" y="1.67" class="h">:</text><text x="16.032" y="1.67" class="j">null</text><text x="20.04" y="1.67" class="h">,</text></symbol><symbol id="14"><text x="6.012" y="1.67" class="i">&quot;priority&quot;</text><text x="16.032" y="1.67" class="h">:</text><text x="18.036" y="1.67" class="k">100</text><text x="21.042" y="1.67" class="h">,</text></symbol><symbol id="15"><text x="6.012" y="1.67" class="i">&quot;timeoutMs&quot;</text><text x="17.034" y="1.67" class="h">:</text><text x="19.038" y="1.67" class="j">null</text><text x="23.046" y="1.67" class="h">,</text></symbol><symbol id="16"><text x="6.012" y="1.67" class="i">&quot;config&quot;</text><text x="14.028" y="1.67" class="h">:</text><text x="16.032" y="1.67" class="h">{</text></symbol><symbol id="17"><text x="8.016" y="1.67" class="i">&quot;topic&quot;</text><text x="15.03" y="1.67" class="h">:</text><text x="17.034" y="1.67" class="f">&quot;customers-shredding&quot;</text><text x="38.076" y="1.67" class="h">,</text></symbol><symbol id="18"><text x="8.016" y="1.67" class="i">&quot;kmsConfig&quot;</text><text x="19.038" y="1.67" class="h">:</text><text x="21.042" y="1.67" class="h">{</text></symbol><symbol id="19"><text x="10.02" y="1.67" class="i">&quot;vault&quot;</text><text x="17.034" y="1.67" class="h">:</text><text x="19.038" y="1.67" class="h">{</text></symbol><symbol id="20"><text x="12.024" y="1.67" class="i">&quot;uri&quot;</text><text x="17.034" y="1.67" class="h">:</text><text x="19.038" y="1.67" class="f">&quot;http://vault:8200&quot;</text><text x="38.076" y="1.67" class="h">,</text></symbol><symbol id="21"><text x="12.024" y="1.67" class="i">&quot;token&quot;</text><text x="19.038" y="1.67" class="h">:</text><text x="21.042" y="1.67" class="f">&quot;vault-plaintext-root-token&quot;</text><text x="49.098" y="1.67" class="h">,</text></symbol><symbol id="22"><text x="12.024" y="1.67" class="i">&quot;version&quot;</text><text x="21.042" y="1.67" class="h">:</text><text x="23.046" y="1.67" class="k">1</text></symbol><symbol id="23"><text x="10.02" y="1.67" class="h">}</text></symbol><symbol id="24"><text x="8.016" y="1.67" class="h">}</text></symbol><symbol id="25"><text x="6.012" y="1.67" class="h">}</text></symbol><symbol id="26"><text x="4.008" y="1.67" class="h">},</text></symbol><symbol id="27"><text x="6.012" y="1.67" class="i">&quot;name&quot;</text><text x="12.024" y="1.67" class="h">:</text><text x="14.028" y="1.67" class="f">&quot;crypto-shredding-encrypt&quot;</text><text x="40.08" y="1.67" class="h">,</text></symbol><symbol id="28"><text x="6.012" y="1.67" class="i">&quot;pluginClass&quot;</text><text x="19.038" y="1.67" class="h">:</text><text x="21.042" y="1.67" class="f">&quot;io.conduktor.gateway.interceptor.EncryptPlugin&quot;</text><text x="69.138" y="1.67" class="h">,</text></symbol><symbol id="29"><text x="8.016" y="1.67" class="h">},</text></symbol><symbol id="30"><text x="8.016" y="1.67" class="i">&quot;fields&quot;</text><text x="16.032" y="1.67" class="h">:</text><text x="18.036" y="1.67" class="h">[</text></symbol><symbol id="31"><text x="10.02" y="1.67" class="h">{</text></symbol><symbol id="32"><text x="12.024" y="1.67" class="i">&quot;fieldName&quot;</text><text x="23.046" y="1.67" class="h">:</text><text x="25.05" y="1.67" class="f">&quot;password&quot;</text><text x="35.07" y="1.67" class="h">,</text></symbol><symbol id="33"><text x="12.024" y="1.67" class="i">&quot;keySecretId&quot;</text><text x="25.05" y="1.67" class="h">:</text><text x="27.054" y="1.67" class="f">&quot;vault-kms://vault:8200/transit/keys/secret-for-{{record.value.name}}&quot;</text><text x="97.194" y="1.67" class="h">,</text></symbol><symbol id="34"><text x="12.024" y="1.67" class="i">&quot;algorithm&quot;</text><text x="23.046" y="1.67" class="h">:</text><text x="25.05" y="1.67" class="h">{</text></symbol><symbol id="35"><text x="14.028" y="1.67" class="i">&quot;type&quot;</text><text x="20.04" y="1.67" class="h">:</text><text x="22.044" y="1.67" class="f">&quot;AES_GCM&quot;</text><text x="31.062" y="1.67" class="h">,</text></symbol><symbol id="36"><text x="14.028" y="1.67" class="i">&quot;kms&quot;</text><text x="19.038" y="1.67" class="h">:</text><text x="21.042" y="1.67" class="f">&quot;VAULT&quot;</text></symbol><symbol id="37"><text x="12.024" y="1.67" class="h">}</text></symbol><symbol id="38"><text x="10.02" y="1.67" class="h">},</text></symbol><symbol id="39"><text x="12.024" y="1.67" class="i">&quot;fieldName&quot;</text><text x="23.046" y="1.67" class="h">:</text><text x="25.05" y="1.67" class="f">&quot;visa&quot;</text><text x="31.062" y="1.67" class="h">,</text></symbol><symbol id="a"><path fill="transparent" d="M0 0h140v21H0z"/></symbol><symbol id="b"><path fill="#6f7683" d="M0 0h1.102v2.171H0z"/></symbol></defs><path class="a" d="M0 0h140v43.42H0z"/><g style="animation-duration:1.85041s;animation-iteration-count:infinite;animation-name:n;animation-timing-function:steps(1,end)"><svg width="4620"><svg><use xlink:href="#a"/><use xlink:href="#b" x="-.004"/></svg><svg x="140"><use xlink:href="#a"/><use xlink:href="#b" x="-.004"/></svg><svg x="280"><use xlink:href="#a"/><use xlink:href="#b" x="2.996" y="2.146"/><use xlink:href="#1"/></svg><svg x="420"><use xlink:href="#a"/><use xlink:href="#b" x="12.996" y="2.146"/><use xlink:href="#1"/><text x="4.008" y="3.841" class="f">-u</text><text x="7.014" y="3.841" class="f">&quot;admin</text></svg><svg x="560"><use xlink:href="#a"/><use xlink:href="#b" x="22.996" y="2.146"/><use xlink:href="#1"/><text x="4.008" y="3.841" class="f">-u</text><text x="7.014" y="3.841" class="f">&quot;admin:conduktor</text></svg><svg x="700"><use xlink:href="#a"/><use xlink:href="#b" x="5.996" y="4.317"/><use xlink:href="#1"/><use xlink:href="#2" y="2.171"/><text x="4.008" y="6.012" class="f">--</text></svg><svg x="840"><use xlink:href="#a"/><use xlink:href="#b" x="15.996" y="4.317"/><use xlink:href="#1"/><use xlink:href="#2" y="2.171"/><text x="4.008" y="6.012" class="f">--request</text><text x="14.028" y="6.012" class="f">GE</text></svg><svg x="980"><use xlink:href="#a"/><use xlink:href="#b" x="25.996" y="4.317"/><use xlink:href="#1"/><use xlink:href="#2" y="2.171"/><text x="4.008" y="6.012" class="f">--request</text><text x="14.028" y="6.012" class="f">GET</text><text x="18.036" y="6.012" class="f">&quot;http://</text></svg><svg x="1120"><use xlink:href="#a"/><use xlink:href="#b" x="35.996" y="4.317"/><use xlink:href="#1"/><use xlink:href="#2" y="2.171"/><text x="4.008" y="6.012" class="f">--request</text><text x="14.028" y="6.012" class="f">GET</text><text x="18.036" y="6.012" class="f">&quot;http://localhost:</text></svg><svg x="1260"><use xlink:href="#a"/><use xlink:href="#b" x="45.996" y="4.317"/><use xlink:href="#1"/><use xlink:href="#2" y="2.171"/><text x="4.008" y="6.012" class="f">--request</text><text x="14.028" y="6.012" class="f">GET</text><text x="18.036" y="6.012" class="f">&quot;http://localhost:8888/admin</text></svg><svg x="1400"><use xlink:href="#a"/><use xlink:href="#b" x="55.996" y="4.317"/><use xlink:href="#1"/><use xlink:href="#2" y="2.171"/><text x="4.008" y="6.012" class="f">--request</text><text x="14.028" y="6.012" class="f">GET</text><text x="18.036" y="6.012" class="f">&quot;http://localhost:8888/admin/intercept</text></svg><svg x="1540"><use xlink:href="#a"/><use xlink:href="#b" x="65.996" y="4.317"/><use xlink:href="#1"/><use xlink:href="#2" y="2.171"/><text x="4.008" y="6.012" class="f">--request</text><text x="14.028" y="6.012" class="f">GET</text><text x="18.036" y="6.012" class="f">&quot;http://localhost:8888/admin/interceptors/v1/vcl</text></svg><svg x="1680"><use xlink:href="#a"/><use xlink:href="#b" x="75.996" y="4.317"/><use xlink:href="#1"/><use xlink:href="#2" y="2.171"/><text x="4.008" y="6.012" class="f">--request</text><text x="14.028" y="6.012" class="f">GET</text><text x="18.036" y="6.012" class="f">&quot;http://localhost:8888/admin/interceptors/v1/vcluster/team</text></svg><svg x="1820"><use xlink:href="#a"/><use xlink:href="#b" x="85.996" y="4.317"/><use xlink:href="#1"/><use xlink:href="#2" y="2.171"/><text x="4.008" y="6.012" class="f">--request</text><text x="14.028" y="6.012" class="f">GET</text><text x="18.036" y="6.012" class="f">&quot;http://localhost:8888/admin/interceptors/v1/vcluster/teamA/intercep</text></svg><svg x="1960"><use xlink:href="#a"/><use xlink:href="#b" x="1.996" y="6.488"/><use xlink:href="#1"/><use xlink:href="#2" y="2.171"/><use xlink:href="#3" y="4.342"/></svg><svg x="2100"><use xlink:href="#a"/><use xlink:href="#b" x="11.996" y="6.488"/><use xlink:href="#1"/><use xlink:href="#2" y="2.171"/><use xlink:href="#3" y="4.342"/><text x="4.008" y="8.183" class="f">--header</text></svg><svg x="2240"><use xlink:href="#a"/><use xlink:href="#b" x="21.996" y="6.488"/><use xlink:href="#1"/><use xlink:href="#2" y="2.171"/><use xlink:href="#3" y="4.342"/><text x="4.008" y="8.183" class="f">--header</text><text x="13.026" y="8.183" class="f">&apos;Content-</text></svg><svg x="2380"><use xlink:href="#a"/><use xlink:href="#b" x="31.996" y="6.488"/><use xlink:href="#1"/><use xlink:href="#2" y="2.171"/><use xlink:href="#3" y="4.342"/><text x="4.008" y="8.183" class="f">--header</text><text x="13.026" y="8.183" class="f">&apos;Content-Type:</text><text x="28.056" y="8.183" class="f">appl</text></svg><svg x="2520"><use xlink:href="#a"/><use xlink:href="#b" x="41.996" y="6.488"/><use xlink:href="#1"/><use xlink:href="#2" y="2.171"/><use xlink:href="#3" y="4.342"/><text x="4.008" y="8.183" class="f">--header</text><text x="13.026" y="8.183" class="f">&apos;Content-Type:</text><text x="28.056" y="8.183" class="f">application/js</text></svg><svg x="2660"><use xlink:href="#a"/><use xlink:href="#b" x="-.004" y="8.659"/><use xlink:href="#1"/><use xlink:href="#2" y="2.171"/><use xlink:href="#3" y="4.342"/><use xlink:href="#4" y="6.513"/></svg><svg x="2800"><use xlink:href="#a"/><use xlink:href="#b" x="-.004" y="10.83"/><use xlink:href="#1"/><use xlink:href="#2" y="2.171"/><use xlink:href="#3" y="4.342"/><use xlink:href="#4" y="6.513"/></svg><svg x="2940"><use xlink:href="#a"/><use xlink:href="#b" x="75.996" y="10.83"/><use xlink:href="#1"/><use xlink:href="#2" y="2.171"/><use xlink:href="#3" y="4.342"/><use xlink:href="#4" y="6.513"/><text x="2.004" y="12.525" class="g">%</text><text x="4.008" y="12.525" class="g">Total</text><text x="13.026" y="12.525" class="g">%</text><text x="15.03" y="12.525" class="g">Received</text><text x="24.048" y="12.525" class="g">%</text><text x="26.052" y="12.525" class="g">Xferd</text><text x="33.066" y="12.525" class="g">Average</text><text x="41.082" y="12.525" class="g">Speed</text><text x="49.098" y="12.525" class="g">Time</text><text x="57.114" y="12.525" class="g">Time</text><text x="66.132" y="12.525" class="g">Time</text><text x="72.144" y="12.525" class="g">Curr</text></svg><svg x="3080"><use xlink:href="#a"/><use xlink:href="#b" x="77.996" y="15.172"/><use xlink:href="#1"/><use xlink:href="#2" y="2.171"/><use xlink:href="#3" y="4.342"/><use xlink:href="#4" y="6.513"/><use xlink:href="#5" y="10.855"/><use xlink:href="#6" y="13.026"/><text x="2.004" y="16.867" class="g">0</text><text x="8.016" y="16.867" class="g">0</text><text x="13.026" y="16.867" class="g">0</text><text x="19.038" y="16.867" class="g">0</text><text x="24.048" y="16.867" class="g">0</text><text x="30.06" y="16.867" class="g">0</text><text x="37.074" y="16.867" class="g">0</text><text x="44.088" y="16.867" class="g">0</text><text x="46.092" y="16.867" class="g">--:--:--</text><text x="55.11" y="16.867" class="g">--:--:--</text><text x="64.128" y="16.867" class="g">--:--:--</text><text x="77.154" y="16.867" class="g">0</text></svg><svg x="3220"><use xlink:href="#a"/><use xlink:href="#b" x="48.996" y="15.172"/><use xlink:href="#1"/><use xlink:href="#2" y="2.171"/><use xlink:href="#3" y="4.342"/><use xlink:href="#4" y="6.513"/><use xlink:href="#5" y="10.855"/><use xlink:href="#6" y="13.026"/><text y="16.867" class="g">100</text><text x="6.012" y="16.867" class="g">905</text><text x="11.022" y="16.867" class="g">100</text><text x="17.034" y="16.867" class="g">905</text><text x="24.048" y="16.867" class="g">0</text><text x="30.06" y="16.867" class="g">0</text><text x="33.066" y="16.867" class="g">28407</text><text x="44.088" y="16.867" class="g">0</text><text x="46.092" y="16.867" class="g">--:--:--</text><text x="55.11" y="16.867" class="g">--:--:--</text><text x="64.128" y="16.867" class="g">--:--:--</text><text x="77.154" y="16.867" class="g">0</text></svg><svg x="3360"><use xlink:href="#a"/><use xlink:href="#b" x="-.004" y="17.343"/><use xlink:href="#1"/><use xlink:href="#2" y="2.171"/><use xlink:href="#3" y="4.342"/><use xlink:href="#4" y="6.513"/><use xlink:href="#5" y="10.855"/><use xlink:href="#6" y="13.026"/><use xlink:href="#7" y="15.197"/></svg><svg x="3500"><use xlink:href="#a"/><use xlink:href="#b" x="6.996" y="43.395"/><use xlink:href="#5" y="2.171"/><use xlink:href="#6" y="4.342"/><use xlink:href="#7" y="6.513"/><use xlink:href="#8" y="8.684"/><use xlink:href="#9" y="10.855"/><use xlink:href="#10" y="13.026"/><use xlink:href="#11" y="15.197"/><use xlink:href="#12" y="17.368"/><use xlink:href="#13" y="19.539"/><use xlink:href="#14" y="21.71"/><use xlink:href="#15" y="23.881"/><use xlink:href="#16" y="26.052"/><use xlink:href="#17" y="28.223"/><use xlink:href="#18" y="30.394"/><use xlink:href="#19" y="32.565"/><use xlink:href="#20" y="34.736"/><use xlink:href="#21" y="36.907"/><use xlink:href="#22" y="39.078"/><use xlink:href="#23" y="41.249"/></svg><svg x="3640"><use xlink:href="#a"/><use xlink:href="#b" x="-.004" y="43.395"/><use xlink:href="#5"/><use xlink:href="#6" y="2.171"/><use xlink:href="#7" y="4.342"/><use xlink:href="#8" y="6.513"/><use xlink:href="#9" y="8.684"/><use xlink:href="#10" y="10.855"/><use xlink:href="#11" y="13.026"/><use xlink:href="#12" y="15.197"/><use xlink:href="#13" y="17.368"/><use xlink:href="#14" y="19.539"/><use xlink:href="#15" y="21.71"/><use xlink:href="#16" y="23.881"/><use xlink:href="#17" y="26.052"/><use xlink:href="#18" y="28.223"/><use xlink:href="#19" y="30.394"/><use xlink:href="#20" y="32.565"/><use xlink:href="#21" y="34.736"/><use xlink:href="#22" y="36.907"/><use xlink:href="#23" y="39.078"/><use xlink:href="#24" y="41.249"/></svg><svg x="3780"><use xlink:href="#a"/><use xlink:href="#b" x="-.004" y="43.395"/><use xlink:href="#13"/><use xlink:href="#14" y="2.171"/><use xlink:href="#15" y="4.342"/><use xlink:href="#16" y="6.513"/><use xlink:href="#17" y="8.684"/><use xlink:href="#18" y="10.855"/><use xlink:href="#19" y="13.026"/><use xlink:href="#20" y="15.197"/><use xlink:href="#21" y="17.368"/><use xlink:href="#22" y="19.539"/><use xlink:href="#23" y="21.71"/><use xlink:href="#24" y="23.881"/><use xlink:href="#25" y="26.052"/><use xlink:href="#26" y="28.223"/><use xlink:href="#10" y="30.394"/><use xlink:href="#27" y="32.565"/><use xlink:href="#28" y="34.736"/><use xlink:href="#13" y="36.907"/><use xlink:href="#14" y="39.078"/><use xlink:href="#15" y="41.249"/></svg><svg x="3920"><use xlink:href="#a"/><use xlink:href="#b" x="-.004" y="43.395"/><use xlink:href="#17"/><use xlink:href="#18" y="2.171"/><use xlink:href="#19" y="4.342"/><use xlink:href="#20" y="6.513"/><use xlink:href="#21" y="8.684"/><use xlink:href="#22" y="10.855"/><use xlink:href="#23" y="13.026"/><use xlink:href="#24" y="15.197"/><use xlink:href="#25" y="17.368"/><use xlink:href="#26" y="19.539"/><use xlink:href="#10" y="21.71"/><use xlink:href="#27" y="23.881"/><use xlink:href="#28" y="26.052"/><use xlink:href="#13" y="28.223"/><use xlink:href="#14" y="30.394"/><use xlink:href="#15" y="32.565"/><use xlink:href="#16" y="34.736"/><use xlink:href="#17" y="36.907"/><use xlink:href="#18" y="39.078"/><use xlink:href="#19" y="41.249"/></svg><svg x="4060"><use xlink:href="#a"/><use xlink:href="#b" x="-.004" y="43.395"/><use xlink:href="#19"/><use xlink:href="#20" y="2.171"/><use xlink:href="#21" y="4.342"/><use xlink:href="#22" y="6.513"/><use xlink:href="#23" y="8.684"/><use xlink:href="#24" y="10.855"/><use xlink:href="#25" y="13.026"/><use xlink:href="#26" y="15.197"/><use xlink:href="#10" y="17.368"/><use xlink:href="#27" y="19.539"/><use xlink:href="#28" y="21.71"/><use xlink:href="#13" y="23.881"/><use xlink:href="#14" y="26.052"/><use xlink:href="#15" y="28.223"/><use xlink:href="#16" y="30.394"/><use xlink:href="#17" y="32.565"/><use xlink:href="#18" y="34.736"/><use xlink:href="#19" y="36.907"/><use xlink:href="#20" y="39.078"/><use xlink:href="#21" y="41.249"/></svg><svg x="4200"><use xlink:href="#a"/><use xlink:href="#b" x="11.996" y="43.395"/><use xlink:href="#18"/><use xlink:href="#19" y="2.171"/><use xlink:href="#20" y="4.342"/><use xlink:href="#21" y="6.513"/><use xlink:href="#22" y="8.684"/><use xlink:href="#23" y="10.855"/><use xlink:href="#29" y="13.026"/><use xlink:href="#30" y="15.197"/><use xlink:href="#31" y="17.368"/><use xlink:href="#32" y="19.539"/><use xlink:href="#33" y="21.71"/><use xlink:href="#34" y="23.881"/><use xlink:href="#35" y="26.052"/><use xlink:href="#36" y="28.223"/><use xlink:href="#37" y="30.394"/><use xlink:href="#38" y="32.565"/><use xlink:href="#31" y="34.736"/><use xlink:href="#39" y="36.907"/><use xlink:href="#33" y="39.078"/><use xlink:href="#34" y="41.249"/></svg><svg x="4340"><use xlink:href="#a"/><use xlink:href="#b" x="-.004" y="43.395"/><use xlink:href="#19"/><use xlink:href="#20" y="2.171"/><use xlink:href="#21" y="4.342"/><use xlink:href="#22" y="6.513"/><use xlink:href="#23" y="8.684"/><use xlink:href="#29" y="10.855"/><use xlink:href="#30" y="13.026"/><use xlink:href="#31" y="15.197"/><use xlink:href="#32" y="17.368"/><use xlink:href="#33" y="19.539"/><use xlink:href="#34" y="21.71"/><use xlink:href="#35" y="23.881"/><use xlink:href="#36" y="26.052"/><use xlink:href="#37" y="28.223"/><use xlink:href="#38" y="30.394"/><use xlink:href="#31" y="32.565"/><use xlink:href="#39" y="34.736"/><use xlink:href="#33" y="36.907"/><use xlink:href="#34" y="39.078"/><use xlink:href="#35" y="41.249"/></svg><svg x="4480"><use xlink:href="#a"/><use xlink:href="#b" x="-.004" y="43.395"/><use xlink:href="#32"/><use xlink:href="#33" y="2.171"/><use xlink:href="#34" y="4.342"/><use xlink:href="#35" y="6.513"/><use xlink:href="#36" y="8.684"/><use xlink:href="#37" y="10.855"/><use xlink:href="#38" y="13.026"/><use xlink:href="#31" y="15.197"/><use xlink:href="#39" y="17.368"/><use xlink:href="#33" y="19.539"/><use xlink:href="#34" y="21.71"/><use xlink:href="#35" y="23.881"/><use xlink:href="#36" y="26.052"/><use xlink:href="#37" y="28.223"/><use xlink:href="#23" y="30.394"/><text x="8.016" y="34.235" class="h">]</text><use xlink:href="#25" y="34.736"/><text x="4.008" y="38.577" class="h">}</text><text x="2.004" y="40.748" class="h">]</text><text y="42.919" class="h">}</text></svg></svg></g></g></svg></svg>