<svg xmlns="http://www.w3.org/2000/svg" xmlns:xlink="http://www.w3.org/1999/xlink" width="1440" height="211.97"><rect width="1440" height="211.97" rx="5" ry="5" class="a"/><svg y="0%" x="0%"><circle cx="20" cy="20" r="6" fill="#ff5f58"/><circle cx="40" cy="20" r="6" fill="#ffbd2e"/><circle cx="60" cy="20" r="6" fill="#18c132"/></svg><svg height="151.97" viewBox="0 0 140 15.197" width="1400" x="15" xmlns="http://www.w3.org/2000/svg" xmlns:xlink="http://www.w3.org/1999/xlink" y="50"><style>@keyframes j{0%{transform:translateX(0)}.9%{transform:translateX(-140px)}1%{transform:translateX(-280px)}8.3%{transform:translateX(-420px)}12.1%{transform:translateX(-560px)}16.4%{transform:translateX(-700px)}20.1%{transform:translateX(-840px)}23.9%{transform:translateX(-980px)}27.7%{transform:translateX(-1120px)}31.4%{transform:translateX(-1260px)}35.2%{transform:translateX(-1400px)}39%{transform:translateX(-1540px)}42.8%{transform:translateX(-1680px)}46.6%{transform:translateX(-1820px)}50.3%{transform:translateX(-1960px)}50.4%{transform:translateX(-2100px)}91%{transform:translateX(-2240px)}to{transform:translateX(-2380px)}}.a{fill:#282d35}.f,.g{fill:#a8cc8c;white-space:pre}.g{fill:#b9c0cb}</style><g font-family="Monaco,Consolas,Menlo,'Bitstream Vera Sans Mono','Powerline Symbols',monospace" font-size="1.67"><defs><symbol id="1"><text y="1.67" class="f">kafka-topics</text><text x="13.026" y="1.67" class="f">\</text></symbol><symbol id="2"><text x="4.008" y="1.67" class="f">--bootstrap-server</text><text x="23.046" y="1.67" class="f">localhost:6969,localhost:7969</text><text x="53.106" y="1.67" class="f">\</text></symbol><symbol id="3"><text x="4.008" y="1.67" class="f">--command-config</text><text x="21.042" y="1.67" class="f">teamA-sa.properties</text><text x="41.082" y="1.67" class="f">\</text></symbol><symbol id="4"><text x="4.008" y="1.67" class="f">--list</text></symbol><symbol id="5"><text y="1.67" class="g">[2023-09-19</text><text x="12.024" y="1.67" class="g">09:59:19,714]</text><text x="26.052" y="1.67" class="g">WARN</text><text x="31.062" y="1.67" class="g">[AdminClient</text><text x="44.088" y="1.67" class="g">clientId=adminclient-1]</text><text x="68.136" y="1.67" class="g">Connection</text><text x="79.158" y="1.67" class="g">to</text><text x="82.164" y="1.67" class="g">node</text><text x="87.174" y="1.67" class="g">-2</text><text x="90.18" y="1.67" class="g">(localhost/127.0.0.1:7969)</text><text x="117.234" y="1.67" class="g">terminated</text><text x="128.256" y="1.67" class="g">during</text><text x="135.27" y="1.67" class="g">authe</text></symbol><symbol id="6"><text y="1.67" class="g">ntication.</text><text x="11.022" y="1.67" class="g">This</text><text x="16.032" y="1.67" class="g">may</text><text x="20.04" y="1.67" class="g">happen</text><text x="27.054" y="1.67" class="g">due</text><text x="31.062" y="1.67" class="g">to</text><text x="34.068" y="1.67" class="g">any</text><text x="38.076" y="1.67" class="g">of</text><text x="41.082" y="1.67" class="g">the</text><text x="45.09" y="1.67" class="g">following</text><text x="55.11" y="1.67" class="g">reasons:</text><text x="64.128" y="1.67" class="g">(1)</text><text x="68.136" y="1.67" class="g">Authentication</text><text x="83.166" y="1.67" class="g">failed</text><text x="90.18" y="1.67" class="g">due</text><text x="94.188" y="1.67" class="g">to</text><text x="97.194" y="1.67" class="g">invalid</text><text x="105.21" y="1.67" class="g">credentials</text><text x="117.234" y="1.67" class="g">with</text><text x="122.244" y="1.67" class="g">brokers</text><text x="130.26" y="1.67" class="g">older</text><text x="136.272" y="1.67" class="g">than</text></symbol><symbol id="7"><text x="1.002" y="1.67" class="g">1.0.0,</text><text x="8.016" y="1.67" class="g">(2)</text><text x="12.024" y="1.67" class="g">Firewall</text><text x="21.042" y="1.67" class="g">blocking</text><text x="30.06" y="1.67" class="g">Kafka</text><text x="36.072" y="1.67" class="g">TLS</text><text x="40.08" y="1.67" class="g">traffic</text><text x="48.096" y="1.67" class="g">(eg</text><text x="52.104" y="1.67" class="g">it</text><text x="55.11" y="1.67" class="g">may</text><text x="59.118" y="1.67" class="g">only</text><text x="64.128" y="1.67" class="g">allow</text><text x="70.14" y="1.67" class="g">HTTPS</text><text x="76.152" y="1.67" class="g">traffic),</text><text x="86.172" y="1.67" class="g">(3)</text><text x="90.18" y="1.67" class="g">Transient</text><text x="100.2" y="1.67" class="g">network</text><text x="108.216" y="1.67" class="g">issue.</text><text x="115.23" y="1.67" class="g">(org.apache.kafka.clients</text></symbol><symbol id="8"><text y="1.67" class="g">.NetworkClient)</text></symbol><symbol id="a"><path fill="transparent" d="M0 0h140v8H0z"/></symbol><symbol id="b"><path fill="#6f7683" d="M0 0h1.102v2.171H0z"/></symbol></defs><path class="a" d="M0 0h140v15.197H0z"/><g style="animation-duration:2.493288s;animation-iteration-count:infinite;animation-name:j;animation-timing-function:steps(1,end)"><svg width="2520"><svg><use xlink:href="#a"/><use xlink:href="#b" x="-.004"/></svg><svg x="140"><use xlink:href="#a"/><use xlink:href="#b" x="-.004"/></svg><svg x="280"><use xlink:href="#a"/><use xlink:href="#b" x="9.996"/><text y="1.67" class="f">kafka-topi</text></svg><svg x="420"><use xlink:href="#a"/><use xlink:href="#b" x="4.996" y="2.146"/><use xlink:href="#1"/><text x="4.008" y="3.841" class="f">-</text></svg><svg x="560"><use xlink:href="#a"/><use xlink:href="#b" x="14.996" y="2.146"/><use xlink:href="#1"/><text x="4.008" y="3.841" class="f">--bootstrap</text></svg><svg x="700"><use xlink:href="#a"/><use xlink:href="#b" x="24.996" y="2.146"/><use xlink:href="#1"/><text x="4.008" y="3.841" class="f">--bootstrap-server</text><text x="23.046" y="3.841" class="f">lo</text></svg><svg x="840"><use xlink:href="#a"/><use xlink:href="#b" x="34.996" y="2.146"/><use xlink:href="#1"/><text x="4.008" y="3.841" class="f">--bootstrap-server</text><text x="23.046" y="3.841" class="f">localhost:69</text></svg><svg x="980"><use xlink:href="#a"/><use xlink:href="#b" x="44.996" y="2.146"/><use xlink:href="#1"/><text x="4.008" y="3.841" class="f">--bootstrap-server</text><text x="23.046" y="3.841" class="f">localhost:6969,localho</text></svg><svg x="1120"><use xlink:href="#a"/><use xlink:href="#b" x="-.004" y="4.317"/><use xlink:href="#1"/><use xlink:href="#2" y="2.171"/></svg><svg x="1260"><use xlink:href="#a"/><use xlink:href="#b" x="9.996" y="4.317"/><use xlink:href="#1"/><use xlink:href="#2" y="2.171"/><text x="4.008" y="6.012" class="f">--comm</text></svg><svg x="1400"><use xlink:href="#a"/><use xlink:href="#b" x="19.996" y="4.317"/><use xlink:href="#1"/><use xlink:href="#2" y="2.171"/><text x="4.008" y="6.012" class="f">--command-config</text></svg><svg x="1540"><use xlink:href="#a"/><use xlink:href="#b" x="29.996" y="4.317"/><use xlink:href="#1"/><use xlink:href="#2" y="2.171"/><text x="4.008" y="6.012" class="f">--command-config</text><text x="21.042" y="6.012" class="f">teamA-sa.</text></svg><svg x="1680"><use xlink:href="#a"/><use xlink:href="#b" x="39.996" y="4.317"/><use xlink:href="#1"/><use xlink:href="#2" y="2.171"/><text x="4.008" y="6.012" class="f">--command-config</text><text x="21.042" y="6.012" class="f">teamA-sa.properties</text></svg><svg x="1820"><use xlink:href="#a"/><use xlink:href="#b" x="6.996" y="6.488"/><use xlink:href="#1"/><use xlink:href="#2" y="2.171"/><use xlink:href="#3" y="4.342"/><text x="4.008" y="8.183" class="f">--l</text></svg><svg x="1960"><use xlink:href="#a"/><use xlink:href="#b" x="-.004" y="8.659"/><use xlink:href="#1"/><use xlink:href="#2" y="2.171"/><use xlink:href="#3" y="4.342"/><use xlink:href="#4" y="6.513"/></svg><svg x="2100"><use xlink:href="#a"/><use xlink:href="#b" x="-.004" y="10.83"/><use xlink:href="#1"/><use xlink:href="#2" y="2.171"/><use xlink:href="#3" y="4.342"/><use xlink:href="#4" y="6.513"/></svg><svg x="2240"><use xlink:href="#a"/><use xlink:href="#b" x="-.004" y="15.172"/><use xlink:href="#3"/><use xlink:href="#4" y="2.171"/><use xlink:href="#5" y="6.513"/><use xlink:href="#6" y="8.684"/><use xlink:href="#7" y="10.855"/><use xlink:href="#8" y="13.026"/></svg><svg x="2380"><use xlink:href="#a"/><use xlink:href="#b" x="-.004" y="15.172"/><use xlink:href="#4"/><use xlink:href="#5" y="4.342"/><use xlink:href="#6" y="6.513"/><use xlink:href="#7" y="8.684"/><use xlink:href="#8" y="10.855"/><text y="14.696" class="g">customers-shredding</text></svg></svg></g></g></svg></svg>