<svg xmlns="http://www.w3.org/2000/svg" xmlns:xlink="http://www.w3.org/1999/xlink" width="1440" height="190.26"><rect width="1440" height="190.26" rx="5" ry="5" class="a"/><svg y="0%" x="0%"><circle cx="20" cy="20" r="6" fill="#ff5f58"/><circle cx="40" cy="20" r="6" fill="#ffbd2e"/><circle cx="60" cy="20" r="6" fill="#18c132"/></svg><svg height="130.26" viewBox="0 0 140 13.026" width="1400" x="15" xmlns="http://www.w3.org/2000/svg" xmlns:xlink="http://www.w3.org/1999/xlink" y="50"><style>@keyframes j{0%{transform:translateX(0)}2%{transform:translateX(-140px)}2.6%{transform:translateX(-280px)}19.5%{transform:translateX(-420px)}27.9%{transform:translateX(-560px)}36.8%{transform:translateX(-700px)}45.4%{transform:translateX(-840px)}53.9%{transform:translateX(-980px)}62.7%{transform:translateX(-1120px)}71.5%{transform:translateX(-1260px)}80.1%{transform:translateX(-1400px)}89%{transform:translateX(-1540px)}97.6%{transform:translateX(-1680px)}97.7%{transform:translateX(-1820px)}97.8%{transform:translateX(-1960px)}to{transform:translateX(-2100px)}}.a{fill:#282d35}.f,.g{fill:#a8cc8c;white-space:pre}.g{fill:#b9c0cb}</style><g font-family="Monaco,Consolas,Menlo,'Bitstream Vera Sans Mono','Powerline Symbols',monospace" font-size="1.67"><defs><symbol id="1"><text y="1.67" class="f">echo</text><text x="5.01" y="1.67" class="f">&apos;Step</text><text x="11.022" y="1.67" class="f">06</text><text x="14.028" y="1.67" class="f">SH</text><text x="17.034" y="1.67" class="f">Verify</text><text x="24.048" y="1.67" class="f">the</text><text x="28.056" y="1.67" class="f">disabled</text><text x="37.074" y="1.67" class="f">algorithms&apos;</text></symbol><symbol id="2"><text y="1.67" class="f">docker</text><text x="7.014" y="1.67" class="f">logs</text><text x="13.026" y="1.67" class="f">gateway1</text><text x="22.044" y="1.67" class="f">2&gt;&amp;1</text><text x="28.056" y="1.67" class="f">|</text><text x="30.06" y="1.67" class="f">grep</text><text x="35.07" y="1.67" class="f">&quot;disabledAlgorithms&quot;</text></symbol><symbol id="3"><text y="1.67" class="g">Step</text><text x="5.01" y="1.67" class="g">06</text><text x="8.016" y="1.67" class="g">SH</text><text x="11.022" y="1.67" class="g">Verify</text><text x="18.036" y="1.67" class="g">the</text><text x="22.044" y="1.67" class="g">disabled</text><text x="31.062" y="1.67" class="g">algorithms</text></symbol><symbol id="a"><path fill="transparent" d="M0 0h140v7H0z"/></symbol><symbol id="b"><path fill="#6f7683" d="M0 0h1.102v2.171H0z"/></symbol></defs><path class="a" d="M0 0h140v13.026H0z"/><g style="animation-duration:1.071838s;animation-iteration-count:infinite;animation-name:j;animation-timing-function:steps(1,end)"><svg width="2240"><svg><use xlink:href="#a"/><use xlink:href="#b" x="-.004"/></svg><svg x="140"><use xlink:href="#a"/><use xlink:href="#b" x="-.004"/></svg><svg x="280"><use xlink:href="#a"/><use xlink:href="#b" x="9.996"/><text y="1.67" class="f">echo</text><text x="5.01" y="1.67" class="f">&apos;Step</text></svg><svg x="420"><use xlink:href="#a"/><use xlink:href="#b" x="19.996"/><text y="1.67" class="f">echo</text><text x="5.01" y="1.67" class="f">&apos;Step</text><text x="11.022" y="1.67" class="f">06</text><text x="14.028" y="1.67" class="f">SH</text><text x="17.034" y="1.67" class="f">Ver</text></svg><svg x="560"><use xlink:href="#a"/><use xlink:href="#b" x="29.996"/><text y="1.67" class="f">echo</text><text x="5.01" y="1.67" class="f">&apos;Step</text><text x="11.022" y="1.67" class="f">06</text><text x="14.028" y="1.67" class="f">SH</text><text x="17.034" y="1.67" class="f">Verify</text><text x="24.048" y="1.67" class="f">the</text><text x="28.056" y="1.67" class="f">di</text></svg><svg x="700"><use xlink:href="#a"/><use xlink:href="#b" x="39.996"/><text y="1.67" class="f">echo</text><text x="5.01" y="1.67" class="f">&apos;Step</text><text x="11.022" y="1.67" class="f">06</text><text x="14.028" y="1.67" class="f">SH</text><text x="17.034" y="1.67" class="f">Verify</text><text x="24.048" y="1.67" class="f">the</text><text x="28.056" y="1.67" class="f">disabled</text><text x="37.074" y="1.67" class="f">alg</text></svg><svg x="840"><use xlink:href="#a"/><use xlink:href="#b" x=".996" y="2.146"/><use xlink:href="#1"/><text y="3.841" class="f">d</text></svg><svg x="980"><use xlink:href="#a"/><use xlink:href="#b" x="10.996" y="2.146"/><use xlink:href="#1"/><text y="3.841" class="f">docker</text><text x="7.014" y="3.841" class="f">logs</text></svg><svg x="1120"><use xlink:href="#a"/><use xlink:href="#b" x="20.996" y="2.146"/><use xlink:href="#1"/><text y="3.841" class="f">docker</text><text x="7.014" y="3.841" class="f">logs</text><text x="13.026" y="3.841" class="f">gateway1</text></svg><svg x="1260"><use xlink:href="#a"/><use xlink:href="#b" x="30.996" y="2.146"/><use xlink:href="#1"/><text y="3.841" class="f">docker</text><text x="7.014" y="3.841" class="f">logs</text><text x="13.026" y="3.841" class="f">gateway1</text><text x="22.044" y="3.841" class="f">2&gt;&amp;1</text><text x="28.056" y="3.841" class="f">|</text><text x="30.06" y="3.841" class="f">g</text></svg><svg x="1400"><use xlink:href="#a"/><use xlink:href="#b" x="40.996" y="2.146"/><use xlink:href="#1"/><text y="3.841" class="f">docker</text><text x="7.014" y="3.841" class="f">logs</text><text x="13.026" y="3.841" class="f">gateway1</text><text x="22.044" y="3.841" class="f">2&gt;&amp;1</text><text x="28.056" y="3.841" class="f">|</text><text x="30.06" y="3.841" class="f">grep</text><text x="35.07" y="3.841" class="f">&quot;disab</text></svg><svg x="1540"><use xlink:href="#a"/><use xlink:href="#b" x="50.996" y="2.146"/><use xlink:href="#1"/><text y="3.841" class="f">docker</text><text x="7.014" y="3.841" class="f">logs</text><text x="13.026" y="3.841" class="f">gateway1</text><text x="22.044" y="3.841" class="f">2&gt;&amp;1</text><text x="28.056" y="3.841" class="f">|</text><text x="30.06" y="3.841" class="f">grep</text><text x="35.07" y="3.841" class="f">&quot;disabledAlgorit</text></svg><svg x="1680"><use xlink:href="#a"/><use xlink:href="#b" x="54.996" y="2.146"/><use xlink:href="#1"/><use xlink:href="#2" y="2.171"/></svg><svg x="1820"><use xlink:href="#a"/><use xlink:href="#b" x="-.004" y="4.317"/><use xlink:href="#1"/><use xlink:href="#2" y="2.171"/></svg><svg x="1960"><use xlink:href="#a"/><use xlink:href="#b" x="-.004" y="6.488"/><use xlink:href="#1"/><use xlink:href="#2" y="2.171"/><use xlink:href="#3" y="4.342"/></svg><svg x="2100"><use xlink:href="#a"/><use xlink:href="#b" x="-.004" y="13.001"/><use xlink:href="#3"/><text y="3.841" class="g">INFO:</text><text x="6.012" y="3.841" class="g">Found</text><text x="12.024" y="3.841" class="g">string</text><text x="19.038" y="3.841" class="g">security</text><text x="28.056" y="3.841" class="g">property</text><text x="37.074" y="3.841" class="g">[jdk.tls.disabledAlgorithms]:</text><text x="67.134" y="3.841" class="g">SSLv3,</text><text x="74.148" y="3.841" class="g">TLSv1,</text><text x="81.162" y="3.841" class="g">TLSv1.1,</text><text x="90.18" y="3.841" class="g">RC4,</text><text x="95.19" y="3.841" class="g">DES,</text><text x="100.2" y="3.841" class="g">MD5withRSA,</text><text x="112.224" y="3.841" class="g">DH</text><text x="115.23" y="3.841" class="g">keySize</text><text x="123.246" y="3.841" class="g">&lt;</text><text x="125.25" y="3.841" class="g">1024,</text><text x="131.262" y="3.841" class="g">EC</text><text x="134.268" y="3.841" class="g">keySiz</text><text y="6.012" class="g">e</text><text x="2.004" y="6.012" class="g">&lt;</text><text x="4.008" y="6.012" class="g">224,</text><text x="9.018" y="6.012" class="g">3DES_EDE_CBC,</text><text x="23.046" y="6.012" class="g">anon,</text><text x="29.058" y="6.012" class="g">NULL</text><text y="8.183" class="g">INFO:</text><text x="6.012" y="8.183" class="g">Found</text><text x="12.024" y="8.183" class="g">string</text><text x="19.038" y="8.183" class="g">security</text><text x="28.056" y="8.183" class="g">property</text><text x="37.074" y="8.183" class="g">[jdk.certpath.disabledAlgorithms]:</text><text x="72.144" y="8.183" class="g">MD2,</text><text x="77.154" y="8.183" class="g">MD5,</text><text x="82.164" y="8.183" class="g">SHA1</text><text x="87.174" y="8.183" class="g">jdkCA</text><text x="93.186" y="8.183" class="g">&amp;</text><text x="95.19" y="8.183" class="g">usage</text><text x="101.202" y="8.183" class="g">TLSServer,</text><text x="112.224" y="8.183" class="g">RSA</text><text x="116.232" y="8.183" class="g">keySize</text><text x="124.248" y="8.183" class="g">&lt;</text><text x="126.252" y="8.183" class="g">1024,</text><text x="132.264" y="8.183" class="g">DSA</text><text x="136.272" y="8.183" class="g">keyS</text><text y="10.354" class="g">ize</text><text x="4.008" y="10.354" class="g">&lt;</text><text x="6.012" y="10.354" class="g">1024,</text><text x="12.024" y="10.354" class="g">EC</text><text x="15.03" y="10.354" class="g">keySize</text><text x="23.046" y="10.354" class="g">&lt;</text><text x="25.05" y="10.354" class="g">224</text><text y="12.525" class="g">WARNING:</text><text x="9.018" y="12.525" class="g">Ignoring</text><text x="18.036" y="12.525" class="g">unsupported</text><text x="30.06" y="12.525" class="g">entry</text><text x="36.072" y="12.525" class="g">in</text><text x="39.078" y="12.525" class="g">&apos;jdk.certpath.disabledAlgorithms&apos;:</text><text x="74.148" y="12.525" class="g">SHA1</text><text x="79.158" y="12.525" class="g">jdkCA</text><text x="85.17" y="12.525" class="g">&amp;</text><text x="87.174" y="12.525" class="g">usage</text><text x="93.186" y="12.525" class="g">TLSServer</text></svg></svg></g></g></svg></svg>