<svg xmlns="http://www.w3.org/2000/svg" xmlns:xlink="http://www.w3.org/1999/xlink" width="1440" height="385.65"><rect width="1440" height="385.65" rx="5" ry="5" class="a"/><svg y="0%" x="0%"><circle cx="20" cy="20" r="6" fill="#ff5f58"/><circle cx="40" cy="20" r="6" fill="#ffbd2e"/><circle cx="60" cy="20" r="6" fill="#18c132"/></svg><svg height="325.65" viewBox="0 0 140 32.565" width="1400" x="15" xmlns="http://www.w3.org/2000/svg" xmlns:xlink="http://www.w3.org/1999/xlink" y="50"><style>@keyframes l{0%{transform:translateX(0)}.8%{transform:translateX(-140px)}1.1%{transform:translateX(-280px)}11%{transform:translateX(-420px)}16%{transform:translateX(-560px)}20.9%{transform:translateX(-700px)}26%{transform:translateX(-840px)}31.1%{transform:translateX(-980px)}36%{transform:translateX(-1120px)}41%{transform:translateX(-1260px)}46.1%{transform:translateX(-1400px)}51%{transform:translateX(-1540px)}56%{transform:translateX(-1680px)}61.1%{transform:translateX(-1820px)}66%{transform:translateX(-1960px)}70.8%{transform:translateX(-2100px)}80.6%{transform:translateX(-2240px)}85.6%{transform:translateX(-2380px)}90.6%{transform:translateX(-2520px)}95.4%{transform:translateX(-2800px)}to{transform:translateX(-3080px)}}.a{fill:#282d35}.f,.g,.h,.i{fill:#a8cc8c;white-space:pre}.g,.h,.i{fill:#b9c0cb}.h,.i{fill:#e88388}.i{fill:#71bef2}</style><g font-family="Monaco,Consolas,Menlo,'Bitstream Vera Sans Mono','Powerline Symbols',monospace" font-size="1.67"><defs><symbol id="1"><text y="1.67" class="f">docker</text><text x="7.014" y="1.67" class="f">logs</text><text x="13.026" y="1.67" class="f">gateway1</text><text x="22.044" y="1.67" class="f">2&gt;&amp;1</text><text x="28.056" y="1.67" class="f">|</text><text x="30.06" y="1.67" class="f">grep</text><text x="35.07" y="1.67" class="f">&quot;Security</text><text x="45.09" y="1.67" class="f">Provider&quot;</text></symbol><symbol id="2"><text y="1.67" class="g">2023-09-19T10:20:53.252+0000</text><text x="29.058" y="1.67" class="g">[</text><text x="36.072" y="1.67" class="h">main</text><text x="40.08" y="1.67" class="g">]</text><text x="42.084" y="1.67" class="g">[</text><text x="43.086" y="1.67" class="f">INFO</text><text x="48.096" y="1.67" class="g">]</text><text x="50.1" y="1.67" class="g">[</text><text x="51.102" y="1.67" class="i">ProxyConfiguration:213</text><text x="73.146" y="1.67" class="g">]</text><text x="75.15" y="1.67" class="g">-</text><text x="77.154" y="1.67" class="g">Enabling</text><text x="86.172" y="1.67" class="g">Bouncy</text><text x="93.186" y="1.67" class="g">Castle</text><text x="100.2" y="1.67" class="g">as</text><text x="103.206" y="1.67" class="g">Security</text><text x="112.224" y="1.67" class="g">Provider</text></symbol><symbol id="3"><text y="1.67" class="g">2023-09-19T10:20:53.313+0000</text><text x="29.058" y="1.67" class="g">[</text><text x="36.072" y="1.67" class="h">main</text><text x="40.08" y="1.67" class="g">]</text><text x="42.084" y="1.67" class="g">[</text><text x="43.086" y="1.67" class="f">INFO</text><text x="48.096" y="1.67" class="g">]</text><text x="50.1" y="1.67" class="g">[</text><text x="51.102" y="1.67" class="i">ProxyConfiguration:229</text><text x="73.146" y="1.67" class="g">]</text><text x="75.15" y="1.67" class="g">-</text><text x="77.154" y="1.67" class="g">Security</text><text x="86.172" y="1.67" class="g">Provider</text><text x="95.19" y="1.67" class="g">BCJSSE</text><text x="102.204" y="1.67" class="g">at</text><text x="105.21" y="1.67" class="g">position</text><text x="114.228" y="1.67" class="g">0</text></symbol><symbol id="4"><text y="1.67" class="g">2023-09-19T10:20:53.314+0000</text><text x="29.058" y="1.67" class="g">[</text><text x="36.072" y="1.67" class="h">main</text><text x="40.08" y="1.67" class="g">]</text><text x="42.084" y="1.67" class="g">[</text><text x="43.086" y="1.67" class="f">INFO</text><text x="48.096" y="1.67" class="g">]</text><text x="50.1" y="1.67" class="g">[</text><text x="51.102" y="1.67" class="i">ProxyConfiguration:229</text><text x="73.146" y="1.67" class="g">]</text><text x="75.15" y="1.67" class="g">-</text><text x="77.154" y="1.67" class="g">Security</text><text x="86.172" y="1.67" class="g">Provider</text><text x="95.19" y="1.67" class="g">SUN</text><text x="99.198" y="1.67" class="g">at</text><text x="102.204" y="1.67" class="g">position</text><text x="111.222" y="1.67" class="g">1</text></symbol><symbol id="5"><text y="1.67" class="g">2023-09-19T10:20:53.314+0000</text><text x="29.058" y="1.67" class="g">[</text><text x="36.072" y="1.67" class="h">main</text><text x="40.08" y="1.67" class="g">]</text><text x="42.084" y="1.67" class="g">[</text><text x="43.086" y="1.67" class="f">INFO</text><text x="48.096" y="1.67" class="g">]</text><text x="50.1" y="1.67" class="g">[</text><text x="51.102" y="1.67" class="i">ProxyConfiguration:229</text><text x="73.146" y="1.67" class="g">]</text><text x="75.15" y="1.67" class="g">-</text><text x="77.154" y="1.67" class="g">Security</text><text x="86.172" y="1.67" class="g">Provider</text><text x="95.19" y="1.67" class="g">SunRsaSign</text><text x="106.212" y="1.67" class="g">at</text><text x="109.218" y="1.67" class="g">position</text><text x="118.236" y="1.67" class="g">2</text></symbol><symbol id="6"><text y="1.67" class="g">2023-09-19T10:20:53.314+0000</text><text x="29.058" y="1.67" class="g">[</text><text x="36.072" y="1.67" class="h">main</text><text x="40.08" y="1.67" class="g">]</text><text x="42.084" y="1.67" class="g">[</text><text x="43.086" y="1.67" class="f">INFO</text><text x="48.096" y="1.67" class="g">]</text><text x="50.1" y="1.67" class="g">[</text><text x="51.102" y="1.67" class="i">ProxyConfiguration:229</text><text x="73.146" y="1.67" class="g">]</text><text x="75.15" y="1.67" class="g">-</text><text x="77.154" y="1.67" class="g">Security</text><text x="86.172" y="1.67" class="g">Provider</text><text x="95.19" y="1.67" class="g">SunEC</text><text x="101.202" y="1.67" class="g">at</text><text x="104.208" y="1.67" class="g">position</text><text x="113.226" y="1.67" class="g">3</text></symbol><symbol id="7"><text y="1.67" class="g">2023-09-19T10:20:53.314+0000</text><text x="29.058" y="1.67" class="g">[</text><text x="36.072" y="1.67" class="h">main</text><text x="40.08" y="1.67" class="g">]</text><text x="42.084" y="1.67" class="g">[</text><text x="43.086" y="1.67" class="f">INFO</text><text x="48.096" y="1.67" class="g">]</text><text x="50.1" y="1.67" class="g">[</text><text x="51.102" y="1.67" class="i">ProxyConfiguration:229</text><text x="73.146" y="1.67" class="g">]</text><text x="75.15" y="1.67" class="g">-</text><text x="77.154" y="1.67" class="g">Security</text><text x="86.172" y="1.67" class="g">Provider</text><text x="95.19" y="1.67" class="g">SunJSSE</text><text x="103.206" y="1.67" class="g">at</text><text x="106.212" y="1.67" class="g">position</text><text x="115.23" y="1.67" class="g">4</text></symbol><symbol id="8"><text y="1.67" class="g">2023-09-19T10:20:53.314+0000</text><text x="29.058" y="1.67" class="g">[</text><text x="36.072" y="1.67" class="h">main</text><text x="40.08" y="1.67" class="g">]</text><text x="42.084" y="1.67" class="g">[</text><text x="43.086" y="1.67" class="f">INFO</text><text x="48.096" y="1.67" class="g">]</text><text x="50.1" y="1.67" class="g">[</text><text x="51.102" y="1.67" class="i">ProxyConfiguration:229</text><text x="73.146" y="1.67" class="g">]</text><text x="75.15" y="1.67" class="g">-</text><text x="77.154" y="1.67" class="g">Security</text><text x="86.172" y="1.67" class="g">Provider</text><text x="95.19" y="1.67" class="g">SunJCE</text><text x="102.204" y="1.67" class="g">at</text><text x="105.21" y="1.67" class="g">position</text><text x="114.228" y="1.67" class="g">5</text></symbol><symbol id="a"><path fill="transparent" d="M0 0h140v16H0z"/></symbol><symbol id="b"><path fill="#6f7683" d="M0 0h1.102v2.171H0z"/></symbol></defs><path class="a" d="M0 0h140v32.565H0z"/><g style="animation-duration:1.864528s;animation-iteration-count:infinite;animation-name:l;animation-timing-function:steps(1,end)"><svg width="3220"><svg><use xlink:href="#a"/><use xlink:href="#b" x="-.004"/></svg><svg x="140"><use xlink:href="#a"/><use xlink:href="#b" x="-.004"/></svg><svg x="280"><use xlink:href="#a"/><use xlink:href="#b" x="2.996"/><text y="1.67" class="f">doc</text></svg><svg x="420"><use xlink:href="#a"/><use xlink:href="#b" x="5.996"/><text y="1.67" class="f">docker</text></svg><svg x="560"><use xlink:href="#a"/><use xlink:href="#b" x="8.996"/><text y="1.67" class="f">docker</text><text x="7.014" y="1.67" class="f">lo</text></svg><svg x="700"><use xlink:href="#a"/><use xlink:href="#b" x="11.996"/><text y="1.67" class="f">docker</text><text x="7.014" y="1.67" class="f">logs</text></svg><svg x="840"><use xlink:href="#a"/><use xlink:href="#b" x="14.996"/><text y="1.67" class="f">docker</text><text x="7.014" y="1.67" class="f">logs</text><text x="13.026" y="1.67" class="f">ga</text></svg><svg x="980"><use xlink:href="#a"/><use xlink:href="#b" x="17.996"/><text y="1.67" class="f">docker</text><text x="7.014" y="1.67" class="f">logs</text><text x="13.026" y="1.67" class="f">gatew</text></svg><svg x="1120"><use xlink:href="#a"/><use xlink:href="#b" x="20.996"/><text y="1.67" class="f">docker</text><text x="7.014" y="1.67" class="f">logs</text><text x="13.026" y="1.67" class="f">gateway1</text></svg><svg x="1260"><use xlink:href="#a"/><use xlink:href="#b" x="23.996"/><text y="1.67" class="f">docker</text><text x="7.014" y="1.67" class="f">logs</text><text x="13.026" y="1.67" class="f">gateway1</text><text x="22.044" y="1.67" class="f">2&gt;</text></svg><svg x="1400"><use xlink:href="#a"/><use xlink:href="#b" x="26.996"/><text y="1.67" class="f">docker</text><text x="7.014" y="1.67" class="f">logs</text><text x="13.026" y="1.67" class="f">gateway1</text><text x="22.044" y="1.67" class="f">2&gt;&amp;1</text></svg><svg x="1540"><use xlink:href="#a"/><use xlink:href="#b" x="29.996"/><text y="1.67" class="f">docker</text><text x="7.014" y="1.67" class="f">logs</text><text x="13.026" y="1.67" class="f">gateway1</text><text x="22.044" y="1.67" class="f">2&gt;&amp;1</text><text x="28.056" y="1.67" class="f">|</text></svg><svg x="1680"><use xlink:href="#a"/><use xlink:href="#b" x="32.996"/><text y="1.67" class="f">docker</text><text x="7.014" y="1.67" class="f">logs</text><text x="13.026" y="1.67" class="f">gateway1</text><text x="22.044" y="1.67" class="f">2&gt;&amp;1</text><text x="28.056" y="1.67" class="f">|</text><text x="30.06" y="1.67" class="f">gre</text></svg><svg x="1820"><use xlink:href="#a"/><use xlink:href="#b" x="35.996"/><text y="1.67" class="f">docker</text><text x="7.014" y="1.67" class="f">logs</text><text x="13.026" y="1.67" class="f">gateway1</text><text x="22.044" y="1.67" class="f">2&gt;&amp;1</text><text x="28.056" y="1.67" class="f">|</text><text x="30.06" y="1.67" class="f">grep</text><text x="35.07" y="1.67" class="f">&quot;</text></svg><svg x="1960"><use xlink:href="#a"/><use xlink:href="#b" x="38.996"/><text y="1.67" class="f">docker</text><text x="7.014" y="1.67" class="f">logs</text><text x="13.026" y="1.67" class="f">gateway1</text><text x="22.044" y="1.67" class="f">2&gt;&amp;1</text><text x="28.056" y="1.67" class="f">|</text><text x="30.06" y="1.67" class="f">grep</text><text x="35.07" y="1.67" class="f">&quot;Sec</text></svg><svg x="2100"><use xlink:href="#a"/><use xlink:href="#b" x="41.996"/><text y="1.67" class="f">docker</text><text x="7.014" y="1.67" class="f">logs</text><text x="13.026" y="1.67" class="f">gateway1</text><text x="22.044" y="1.67" class="f">2&gt;&amp;1</text><text x="28.056" y="1.67" class="f">|</text><text x="30.06" y="1.67" class="f">grep</text><text x="35.07" y="1.67" class="f">&quot;Securi</text></svg><svg x="2240"><use xlink:href="#a"/><use xlink:href="#b" x="44.996"/><text y="1.67" class="f">docker</text><text x="7.014" y="1.67" class="f">logs</text><text x="13.026" y="1.67" class="f">gateway1</text><text x="22.044" y="1.67" class="f">2&gt;&amp;1</text><text x="28.056" y="1.67" class="f">|</text><text x="30.06" y="1.67" class="f">grep</text><text x="35.07" y="1.67" class="f">&quot;Security</text></svg><svg x="2380"><use xlink:href="#a"/><use xlink:href="#b" x="47.996"/><text y="1.67" class="f">docker</text><text x="7.014" y="1.67" class="f">logs</text><text x="13.026" y="1.67" class="f">gateway1</text><text x="22.044" y="1.67" class="f">2&gt;&amp;1</text><text x="28.056" y="1.67" class="f">|</text><text x="30.06" y="1.67" class="f">grep</text><text x="35.07" y="1.67" class="f">&quot;Security</text><text x="45.09" y="1.67" class="f">Pro</text></svg><svg x="2520"><use xlink:href="#a"/><use xlink:href="#b" x="50.996"/><text y="1.67" class="f">docker</text><text x="7.014" y="1.67" class="f">logs</text><text x="13.026" y="1.67" class="f">gateway1</text><text x="22.044" y="1.67" class="f">2&gt;&amp;1</text><text x="28.056" y="1.67" class="f">|</text><text x="30.06" y="1.67" class="f">grep</text><text x="35.07" y="1.67" class="f">&quot;Security</text><text x="45.09" y="1.67" class="f">Provid</text></svg><svg x="2660"><use xlink:href="#a"/><use xlink:href="#b" x="53.996"/><use xlink:href="#1"/></svg><svg x="2800"><use xlink:href="#a"/><use xlink:href="#b" x="-.004" y="2.146"/><use xlink:href="#1"/></svg><svg x="2940"><use xlink:href="#a"/><use xlink:href="#b" x="29.996" y="17.343"/><use xlink:href="#1"/><use xlink:href="#2" y="2.171"/><use xlink:href="#3" y="4.342"/><use xlink:href="#4" y="6.513"/><use xlink:href="#5" y="8.684"/><use xlink:href="#6" y="10.855"/><use xlink:href="#7" y="13.026"/><use xlink:href="#8" y="15.197"/><text y="19.038" class="g">2023-09-19T10:20:53.315+0000</text><text x="29.058" y="19.038" class="g">[</text></svg><svg x="3080"><use xlink:href="#a"/><use xlink:href="#b" x="-.004" y="32.54"/><use xlink:href="#1"/><use xlink:href="#2" y="2.171"/><use xlink:href="#3" y="4.342"/><use xlink:href="#4" y="6.513"/><use xlink:href="#5" y="8.684"/><use xlink:href="#6" y="10.855"/><use xlink:href="#7" y="13.026"/><use xlink:href="#8" y="15.197"/><text y="19.038" class="g">2023-09-19T10:20:53.315+0000</text><text x="29.058" y="19.038" class="g">[</text><text x="36.072" y="19.038" class="h">main</text><text x="40.08" y="19.038" class="g">]</text><text x="42.084" y="19.038" class="g">[</text><text x="43.086" y="19.038" class="f">INFO</text><text x="48.096" y="19.038" class="g">]</text><text x="50.1" y="19.038" class="g">[</text><text x="51.102" y="19.038" class="i">ProxyConfiguration:229</text><text x="73.146" y="19.038" class="g">]</text><text x="75.15" y="19.038" class="g">-</text><text x="77.154" y="19.038" class="g">Security</text><text x="86.172" y="19.038" class="g">Provider</text><text x="95.19" y="19.038" class="g">SunJGSS</text><text x="103.206" y="19.038" class="g">at</text><text x="106.212" y="19.038" class="g">position</text><text x="115.23" y="19.038" class="g">6</text><text y="21.209" class="g">2023-09-19T10:20:53.315+0000</text><text x="29.058" y="21.209" class="g">[</text><text x="36.072" y="21.209" class="h">main</text><text x="40.08" y="21.209" class="g">]</text><text x="42.084" y="21.209" class="g">[</text><text x="43.086" y="21.209" class="f">INFO</text><text x="48.096" y="21.209" class="g">]</text><text x="50.1" y="21.209" class="g">[</text><text x="51.102" y="21.209" class="i">ProxyConfiguration:229</text><text x="73.146" y="21.209" class="g">]</text><text x="75.15" y="21.209" class="g">-</text><text x="77.154" y="21.209" class="g">Security</text><text x="86.172" y="21.209" class="g">Provider</text><text x="95.19" y="21.209" class="g">SunSASL</text><text x="103.206" y="21.209" class="g">at</text><text x="106.212" y="21.209" class="g">position</text><text x="115.23" y="21.209" class="g">7</text><text y="23.38" class="g">2023-09-19T10:20:53.315+0000</text><text x="29.058" y="23.38" class="g">[</text><text x="36.072" y="23.38" class="h">main</text><text x="40.08" y="23.38" class="g">]</text><text x="42.084" y="23.38" class="g">[</text><text x="43.086" y="23.38" class="f">INFO</text><text x="48.096" y="23.38" class="g">]</text><text x="50.1" y="23.38" class="g">[</text><text x="51.102" y="23.38" class="i">ProxyConfiguration:229</text><text x="73.146" y="23.38" class="g">]</text><text x="75.15" y="23.38" class="g">-</text><text x="77.154" y="23.38" class="g">Security</text><text x="86.172" y="23.38" class="g">Provider</text><text x="95.19" y="23.38" class="g">XMLDSig</text><text x="103.206" y="23.38" class="g">at</text><text x="106.212" y="23.38" class="g">position</text><text x="115.23" y="23.38" class="g">8</text><text y="25.551" class="g">2023-09-19T10:20:53.315+0000</text><text x="29.058" y="25.551" class="g">[</text><text x="36.072" y="25.551" class="h">main</text><text x="40.08" y="25.551" class="g">]</text><text x="42.084" y="25.551" class="g">[</text><text x="43.086" y="25.551" class="f">INFO</text><text x="48.096" y="25.551" class="g">]</text><text x="50.1" y="25.551" class="g">[</text><text x="51.102" y="25.551" class="i">ProxyConfiguration:229</text><text x="73.146" y="25.551" class="g">]</text><text x="75.15" y="25.551" class="g">-</text><text x="77.154" y="25.551" class="g">Security</text><text x="86.172" y="25.551" class="g">Provider</text><text x="95.19" y="25.551" class="g">SunPCSC</text><text x="103.206" y="25.551" class="g">at</text><text x="106.212" y="25.551" class="g">position</text><text x="115.23" y="25.551" class="g">9</text><text y="27.722" class="g">2023-09-19T10:20:53.316+0000</text><text x="29.058" y="27.722" class="g">[</text><text x="36.072" y="27.722" class="h">main</text><text x="40.08" y="27.722" class="g">]</text><text x="42.084" y="27.722" class="g">[</text><text x="43.086" y="27.722" class="f">INFO</text><text x="48.096" y="27.722" class="g">]</text><text x="50.1" y="27.722" class="g">[</text><text x="51.102" y="27.722" class="i">ProxyConfiguration:229</text><text x="73.146" y="27.722" class="g">]</text><text x="75.15" y="27.722" class="g">-</text><text x="77.154" y="27.722" class="g">Security</text><text x="86.172" y="27.722" class="g">Provider</text><text x="95.19" y="27.722" class="g">JdkLDAP</text><text x="103.206" y="27.722" class="g">at</text><text x="106.212" y="27.722" class="g">position</text><text x="115.23" y="27.722" class="g">10</text><text y="29.893" class="g">2023-09-19T10:20:53.316+0000</text><text x="29.058" y="29.893" class="g">[</text><text x="36.072" y="29.893" class="h">main</text><text x="40.08" y="29.893" class="g">]</text><text x="42.084" y="29.893" class="g">[</text><text x="43.086" y="29.893" class="f">INFO</text><text x="48.096" y="29.893" class="g">]</text><text x="50.1" y="29.893" class="g">[</text><text x="51.102" y="29.893" class="i">ProxyConfiguration:229</text><text x="73.146" y="29.893" class="g">]</text><text x="75.15" y="29.893" class="g">-</text><text x="77.154" y="29.893" class="g">Security</text><text x="86.172" y="29.893" class="g">Provider</text><text x="95.19" y="29.893" class="g">JdkSASL</text><text x="103.206" y="29.893" class="g">at</text><text x="106.212" y="29.893" class="g">position</text><text x="115.23" y="29.893" class="g">11</text><text y="32.064" class="g">2023-09-19T10:20:53.316+0000</text><text x="29.058" y="32.064" class="g">[</text><text x="36.072" y="32.064" class="h">main</text><text x="40.08" y="32.064" class="g">]</text><text x="42.084" y="32.064" class="g">[</text><text x="43.086" y="32.064" class="f">INFO</text><text x="48.096" y="32.064" class="g">]</text><text x="50.1" y="32.064" class="g">[</text><text x="51.102" y="32.064" class="i">ProxyConfiguration:229</text><text x="73.146" y="32.064" class="g">]</text><text x="75.15" y="32.064" class="g">-</text><text x="77.154" y="32.064" class="g">Security</text><text x="86.172" y="32.064" class="g">Provider</text><text x="95.19" y="32.064" class="g">SunPKCS11</text><text x="105.21" y="32.064" class="g">at</text><text x="108.216" y="32.064" class="g">position</text><text x="117.234" y="32.064" class="g">12</text></svg></svg></g></g></svg></svg>