<svg xmlns="http://www.w3.org/2000/svg" xmlns:xlink="http://www.w3.org/1999/xlink" width="1440" height="385.65"><rect width="1440" height="385.65" rx="5" ry="5" class="a"/><svg y="0%" x="0%"><circle cx="20" cy="20" r="6" fill="#ff5f58"/><circle cx="40" cy="20" r="6" fill="#ffbd2e"/><circle cx="60" cy="20" r="6" fill="#18c132"/></svg><svg height="325.65" viewBox="0 0 140 32.565" width="1400" x="15" xmlns="http://www.w3.org/2000/svg" xmlns:xlink="http://www.w3.org/1999/xlink" y="50"><style>@keyframes j{0%{transform:translateX(0)}.3%{transform:translateX(-140px)}.4%{transform:translateX(-280px)}4%{transform:translateX(-420px)}6.4%{transform:translateX(-560px)}8.2%{transform:translateX(-700px)}11.8%{transform:translateX(-840px)}13.8%{transform:translateX(-980px)}15.6%{transform:translateX(-1120px)}17.4%{transform:translateX(-1260px)}19.3%{transform:translateX(-1400px)}21.1%{transform:translateX(-1540px)}23.1%{transform:translateX(-1680px)}24.9%{transform:translateX(-1820px)}26.7%{transform:translateX(-1960px)}28.5%{transform:translateX(-2100px)}30.5%{transform:translateX(-2380px)}60.7%{transform:translateX(-2520px)}to{transform:translateX(-2660px)}}.a{fill:#282d35}.f,.g{fill:#a8cc8c;white-space:pre}.g{fill:#b9c0cb}</style><g font-family="Monaco,Consolas,Menlo,'Bitstream Vera Sans Mono','Powerline Symbols',monospace" font-size="1.67"><defs><symbol id="1"><text y="1.67" class="f">echo</text><text x="5.01" y="1.67" class="f">&apos;{&quot;name&quot;:&quot;tom&quot;,&quot;username&quot;:&quot;tom@conduktor.io&quot;,&quot;password&quot;:&quot;motorhead&quot;,&quot;visa&quot;:&quot;#abc123&quot;,&quot;address&quot;:&quot;Chancery</text><text x="110.22" y="1.67" class="f">lane,</text><text x="116.232" y="1.67" class="f">London&quot;}&apos;</text><text x="126.252" y="1.67" class="f">|</text><text x="128.256" y="1.67" class="f">\</text></symbol><symbol id="2"><text x="4.008" y="1.67" class="f">kafka-console-producer</text><text x="27.054" y="1.67" class="f">\</text></symbol><symbol id="3"><text x="8.016" y="1.67" class="f">--bootstrap-server</text><text x="27.054" y="1.67" class="f">localhost:6969,localhost:7969</text><text x="57.114" y="1.67" class="f">\</text></symbol><symbol id="4"><text x="8.016" y="1.67" class="f">--producer.config</text><text x="26.052" y="1.67" class="f">teamA-sa.properties</text><text x="46.092" y="1.67" class="f">\</text></symbol><symbol id="5"><text x="8.016" y="1.67" class="f">--topic</text><text x="16.032" y="1.67" class="f">customers-shredding</text></symbol><symbol id="6"><text y="1.67" class="f">echo</text><text x="5.01" y="1.67" class="f">&apos;{&quot;name&quot;:&quot;florent&quot;,&quot;username&quot;:&quot;florent@conduktor.io&quot;,&quot;password&quot;:&quot;kitesurf&quot;,&quot;visa&quot;:&quot;#888999XZ&quot;,&quot;address&quot;:&quot;Dubai,</text><text x="117.234" y="1.67" class="f">UAE&quot;}&apos;</text><text x="124.248" y="1.67" class="f">|</text><text x="126.252" y="1.67" class="f">\</text></symbol><symbol id="7"><text y="1.67" class="g">[2023-09-19</text><text x="12.024" y="1.67" class="g">09:59:32,030]</text><text x="26.052" y="1.67" class="g">WARN</text><text x="31.062" y="1.67" class="g">[Producer</text><text x="41.082" y="1.67" class="g">clientId=console-producer]</text><text x="68.136" y="1.67" class="g">Connection</text><text x="79.158" y="1.67" class="g">to</text><text x="82.164" y="1.67" class="g">node</text><text x="87.174" y="1.67" class="g">-2</text><text x="90.18" y="1.67" class="g">(localhost/127.0.0.1:7969)</text><text x="117.234" y="1.67" class="g">terminated</text><text x="128.256" y="1.67" class="g">during</text><text x="135.27" y="1.67" class="g">authe</text></symbol><symbol id="8"><text y="1.67" class="g">ntication.</text><text x="11.022" y="1.67" class="g">This</text><text x="16.032" y="1.67" class="g">may</text><text x="20.04" y="1.67" class="g">happen</text><text x="27.054" y="1.67" class="g">due</text><text x="31.062" y="1.67" class="g">to</text><text x="34.068" y="1.67" class="g">any</text><text x="38.076" y="1.67" class="g">of</text><text x="41.082" y="1.67" class="g">the</text><text x="45.09" y="1.67" class="g">following</text><text x="55.11" y="1.67" class="g">reasons:</text><text x="64.128" y="1.67" class="g">(1)</text><text x="68.136" y="1.67" class="g">Authentication</text><text x="83.166" y="1.67" class="g">failed</text><text x="90.18" y="1.67" class="g">due</text><text x="94.188" y="1.67" class="g">to</text><text x="97.194" y="1.67" class="g">invalid</text><text x="105.21" y="1.67" class="g">credentials</text><text x="117.234" y="1.67" class="g">with</text><text x="122.244" y="1.67" class="g">brokers</text><text x="130.26" y="1.67" class="g">older</text><text x="136.272" y="1.67" class="g">than</text></symbol><symbol id="9"><text x="1.002" y="1.67" class="g">1.0.0,</text><text x="8.016" y="1.67" class="g">(2)</text><text x="12.024" y="1.67" class="g">Firewall</text><text x="21.042" y="1.67" class="g">blocking</text><text x="30.06" y="1.67" class="g">Kafka</text><text x="36.072" y="1.67" class="g">TLS</text><text x="40.08" y="1.67" class="g">traffic</text><text x="48.096" y="1.67" class="g">(eg</text><text x="52.104" y="1.67" class="g">it</text><text x="55.11" y="1.67" class="g">may</text><text x="59.118" y="1.67" class="g">only</text><text x="64.128" y="1.67" class="g">allow</text><text x="70.14" y="1.67" class="g">HTTPS</text><text x="76.152" y="1.67" class="g">traffic),</text><text x="86.172" y="1.67" class="g">(3)</text><text x="90.18" y="1.67" class="g">Transient</text><text x="100.2" y="1.67" class="g">network</text><text x="108.216" y="1.67" class="g">issue.</text><text x="115.23" y="1.67" class="g">(org.apache.kafka.clients</text></symbol><symbol id="10"><text y="1.67" class="g">.NetworkClient)</text></symbol><symbol id="11"><text y="1.67" class="g">[2023-09-19</text><text x="12.024" y="1.67" class="g">09:59:32,030]</text><text x="26.052" y="1.67" class="g">WARN</text><text x="31.062" y="1.67" class="g">[Producer</text><text x="41.082" y="1.67" class="g">clientId=console-producer]</text><text x="68.136" y="1.67" class="g">Bootstrap</text><text x="78.156" y="1.67" class="g">broker</text><text x="85.17" y="1.67" class="g">localhost:7969</text><text x="100.2" y="1.67" class="g">(id:</text><text x="105.21" y="1.67" class="g">-2</text><text x="108.216" y="1.67" class="g">rack:</text><text x="114.228" y="1.67" class="g">null)</text><text x="120.24" y="1.67" class="g">disconnected</text><text x="133.266" y="1.67" class="g">(org.ap</text></symbol><symbol id="12"><text y="1.67" class="g">ache.kafka.clients.NetworkClient)</text></symbol><symbol id="a"><path fill="transparent" d="M0 0h140v16H0z"/></symbol><symbol id="b"><path fill="#6f7683" d="M0 0h1.102v2.171H0z"/></symbol></defs><path class="a" d="M0 0h140v32.565H0z"/><g style="animation-duration:5.084547000000001s;animation-iteration-count:infinite;animation-name:j;animation-timing-function:steps(1,end)"><svg width="2800"><svg><use xlink:href="#a"/><use xlink:href="#b" x="-.004"/></svg><svg x="140"><use xlink:href="#a"/><use xlink:href="#b" x="-.004"/></svg><svg x="280"><use xlink:href="#a"/><use xlink:href="#b" x="39.996"/><text y="1.67" class="f">echo</text><text x="5.01" y="1.67" class="f">&apos;{&quot;name&quot;:&quot;tom&quot;,&quot;username&quot;:&quot;tom@cond</text></svg><svg x="420"><use xlink:href="#a"/><use xlink:href="#b" x="79.996"/><text y="1.67" class="f">echo</text><text x="5.01" y="1.67" class="f">&apos;{&quot;name&quot;:&quot;tom&quot;,&quot;username&quot;:&quot;tom@conduktor.io&quot;,&quot;password&quot;:&quot;motorhead&quot;,&quot;visa&quot;:</text></svg><svg x="560"><use xlink:href="#a"/><use xlink:href="#b" x=".996" y="4.317"/><use xlink:href="#1"/><use xlink:href="#2" y="2.171"/></svg><svg x="700"><use xlink:href="#a"/><use xlink:href="#b" x="40.996" y="4.317"/><use xlink:href="#1"/><use xlink:href="#2" y="2.171"/><text x="8.016" y="6.012" class="f">--bootstrap-server</text><text x="27.054" y="6.012" class="f">localhost:6969</text></svg><svg x="840"><use xlink:href="#a"/><use xlink:href="#b" x="21.996" y="6.488"/><use xlink:href="#1"/><use xlink:href="#2" y="2.171"/><use xlink:href="#3" y="4.342"/><text x="8.016" y="8.183" class="f">--producer.con</text></svg><svg x="980"><use xlink:href="#a"/><use xlink:href="#b" x="13.996" y="8.659"/><use xlink:href="#1"/><use xlink:href="#2" y="2.171"/><use xlink:href="#3" y="4.342"/><use xlink:href="#4" y="6.513"/><text x="8.016" y="10.354" class="f">--topi</text></svg><svg x="1120"><use xlink:href="#a"/><use xlink:href="#b" x="16.996" y="13.001"/><use xlink:href="#1"/><use xlink:href="#2" y="2.171"/><use xlink:href="#3" y="4.342"/><use xlink:href="#4" y="6.513"/><use xlink:href="#5" y="8.684"/><text y="14.696" class="f">echo</text><text x="5.01" y="14.696" class="f">&apos;{&quot;name&quot;:&quot;fl</text></svg><svg x="1260"><use xlink:href="#a"/><use xlink:href="#b" x="56.996" y="13.001"/><use xlink:href="#1"/><use xlink:href="#2" y="2.171"/><use xlink:href="#3" y="4.342"/><use xlink:href="#4" y="6.513"/><use xlink:href="#5" y="8.684"/><text y="14.696" class="f">echo</text><text x="5.01" y="14.696" class="f">&apos;{&quot;name&quot;:&quot;florent&quot;,&quot;username&quot;:&quot;florent@conduktor.io&quot;</text></svg><svg x="1400"><use xlink:href="#a"/><use xlink:href="#b" x="96.996" y="13.001"/><use xlink:href="#1"/><use xlink:href="#2" y="2.171"/><use xlink:href="#3" y="4.342"/><use xlink:href="#4" y="6.513"/><use xlink:href="#5" y="8.684"/><text y="14.696" class="f">echo</text><text x="5.01" y="14.696" class="f">&apos;{&quot;name&quot;:&quot;florent&quot;,&quot;username&quot;:&quot;florent@conduktor.io&quot;,&quot;password&quot;:&quot;kitesurf&quot;,&quot;visa&quot;:&quot;#888999XZ</text></svg><svg x="1540"><use xlink:href="#a"/><use xlink:href="#b" x="8.996" y="15.172"/><use xlink:href="#1"/><use xlink:href="#2" y="2.171"/><use xlink:href="#3" y="4.342"/><use xlink:href="#4" y="6.513"/><use xlink:href="#5" y="8.684"/><use xlink:href="#6" y="13.026"/><text x="4.008" y="16.867" class="f">kafka</text></svg><svg x="1680"><use xlink:href="#a"/><use xlink:href="#b" x="19.996" y="17.343"/><use xlink:href="#1"/><use xlink:href="#2" y="2.171"/><use xlink:href="#3" y="4.342"/><use xlink:href="#4" y="6.513"/><use xlink:href="#5" y="8.684"/><use xlink:href="#6" y="13.026"/><use xlink:href="#2" y="15.197"/><text x="8.016" y="19.038" class="f">--bootstrap-</text></svg><svg x="1820"><use xlink:href="#a"/><use xlink:href="#b" x=".996" y="19.514"/><use xlink:href="#1"/><use xlink:href="#2" y="2.171"/><use xlink:href="#3" y="4.342"/><use xlink:href="#4" y="6.513"/><use xlink:href="#5" y="8.684"/><use xlink:href="#6" y="13.026"/><use xlink:href="#2" y="15.197"/><use xlink:href="#3" y="17.368"/></svg><svg x="1960"><use xlink:href="#a"/><use xlink:href="#b" x="40.996" y="19.514"/><use xlink:href="#1"/><use xlink:href="#2" y="2.171"/><use xlink:href="#3" y="4.342"/><use xlink:href="#4" y="6.513"/><use xlink:href="#5" y="8.684"/><use xlink:href="#6" y="13.026"/><use xlink:href="#2" y="15.197"/><use xlink:href="#3" y="17.368"/><text x="8.016" y="21.209" class="f">--producer.config</text><text x="26.052" y="21.209" class="f">teamA-sa.proper</text></svg><svg x="2100"><use xlink:href="#a"/><use xlink:href="#b" x="32.996" y="21.685"/><use xlink:href="#1"/><use xlink:href="#2" y="2.171"/><use xlink:href="#3" y="4.342"/><use xlink:href="#4" y="6.513"/><use xlink:href="#5" y="8.684"/><use xlink:href="#6" y="13.026"/><use xlink:href="#2" y="15.197"/><use xlink:href="#3" y="17.368"/><use xlink:href="#4" y="19.539"/><text x="8.016" y="23.38" class="f">--topic</text><text x="16.032" y="23.38" class="f">customers-shreddi</text></svg><svg x="2240"><use xlink:href="#a"/><use xlink:href="#b" x="34.996" y="21.685"/><use xlink:href="#1"/><use xlink:href="#2" y="2.171"/><use xlink:href="#3" y="4.342"/><use xlink:href="#4" y="6.513"/><use xlink:href="#5" y="8.684"/><use xlink:href="#6" y="13.026"/><use xlink:href="#2" y="15.197"/><use xlink:href="#3" y="17.368"/><use xlink:href="#4" y="19.539"/><use xlink:href="#5" y="21.71"/></svg><svg x="2380"><use xlink:href="#a"/><use xlink:href="#b" x="-.004" y="23.856"/><use xlink:href="#1"/><use xlink:href="#2" y="2.171"/><use xlink:href="#3" y="4.342"/><use xlink:href="#4" y="6.513"/><use xlink:href="#5" y="8.684"/><use xlink:href="#6" y="13.026"/><use xlink:href="#2" y="15.197"/><use xlink:href="#3" y="17.368"/><use xlink:href="#4" y="19.539"/><use xlink:href="#5" y="21.71"/></svg><svg x="2520"><use xlink:href="#a"/><use xlink:href="#b" x="-.004" y="32.54"/><use xlink:href="#3"/><use xlink:href="#4" y="2.171"/><use xlink:href="#5" y="4.342"/><use xlink:href="#6" y="8.684"/><use xlink:href="#2" y="10.855"/><use xlink:href="#3" y="13.026"/><use xlink:href="#4" y="15.197"/><use xlink:href="#5" y="17.368"/><use xlink:href="#7" y="19.539"/><use xlink:href="#8" y="21.71"/><use xlink:href="#9" y="23.881"/><use xlink:href="#10" y="26.052"/><use xlink:href="#11" y="28.223"/><use xlink:href="#12" y="30.394"/></svg><svg x="2660"><use xlink:href="#a"/><use xlink:href="#b" x="-.004" y="32.54"/><use xlink:href="#3"/><use xlink:href="#4" y="2.171"/><use xlink:href="#5" y="4.342"/><use xlink:href="#7" y="6.513"/><use xlink:href="#8" y="8.684"/><use xlink:href="#9" y="10.855"/><use xlink:href="#10" y="13.026"/><use xlink:href="#11" y="15.197"/><use xlink:href="#12" y="17.368"/><text y="21.209" class="g">[2023-09-19</text><text x="12.024" y="21.209" class="g">09:59:34,904]</text><text x="26.052" y="21.209" class="g">WARN</text><text x="31.062" y="21.209" class="g">[Producer</text><text x="41.082" y="21.209" class="g">clientId=console-producer]</text><text x="68.136" y="21.209" class="g">Connection</text><text x="79.158" y="21.209" class="g">to</text><text x="82.164" y="21.209" class="g">node</text><text x="87.174" y="21.209" class="g">-2</text><text x="90.18" y="21.209" class="g">(localhost/127.0.0.1:7969)</text><text x="117.234" y="21.209" class="g">terminated</text><text x="128.256" y="21.209" class="g">during</text><text x="135.27" y="21.209" class="g">authe</text><use xlink:href="#8" y="21.71"/><use xlink:href="#9" y="23.881"/><use xlink:href="#10" y="26.052"/><text y="29.893" class="g">[2023-09-19</text><text x="12.024" y="29.893" class="g">09:59:34,904]</text><text x="26.052" y="29.893" class="g">WARN</text><text x="31.062" y="29.893" class="g">[Producer</text><text x="41.082" y="29.893" class="g">clientId=console-producer]</text><text x="68.136" y="29.893" class="g">Bootstrap</text><text x="78.156" y="29.893" class="g">broker</text><text x="85.17" y="29.893" class="g">localhost:7969</text><text x="100.2" y="29.893" class="g">(id:</text><text x="105.21" y="29.893" class="g">-2</text><text x="108.216" y="29.893" class="g">rack:</text><text x="114.228" y="29.893" class="g">null)</text><text x="120.24" y="29.893" class="g">disconnected</text><text x="133.266" y="29.893" class="g">(org.ap</text><use xlink:href="#12" y="30.394"/></svg></svg></g></g></svg></svg>