<svg xmlns="http://www.w3.org/2000/svg" xmlns:xlink="http://www.w3.org/1999/xlink" width="1440" height="298.81"><rect width="1440" height="298.81" rx="5" ry="5" class="a"/><svg y="0%" x="0%"><circle cx="20" cy="20" r="6" fill="#ff5f58"/><circle cx="40" cy="20" r="6" fill="#ffbd2e"/><circle cx="60" cy="20" r="6" fill="#18c132"/></svg><svg height="238.81" viewBox="0 0 140 23.881" width="1400" x="15" xmlns="http://www.w3.org/2000/svg" xmlns:xlink="http://www.w3.org/1999/xlink" y="50"><style>@keyframes j{0%{transform:translateX(0)}.4%{transform:translateX(-140px)}.5%{transform:translateX(-280px)}8.6%{transform:translateX(-420px)}12.8%{transform:translateX(-560px)}17%{transform:translateX(-700px)}21.2%{transform:translateX(-840px)}25.2%{transform:translateX(-980px)}29.6%{transform:translateX(-1120px)}33.8%{transform:translateX(-1260px)}38.1%{transform:translateX(-1400px)}42.7%{transform:translateX(-1540px)}46.8%{transform:translateX(-1680px)}50.9%{transform:translateX(-1820px)}55.2%{transform:translateX(-1960px)}59.4%{transform:translateX(-2100px)}63.5%{transform:translateX(-2240px)}67.7%{transform:translateX(-2380px)}76%{transform:translateX(-2520px)}80.2%{transform:translateX(-2660px)}84.5%{transform:translateX(-2800px)}88.7%{transform:translateX(-2940px)}93.2%{transform:translateX(-3080px)}97.5%{transform:translateX(-3220px)}97.6%{transform:translateX(-3360px)}97.8%{transform:translateX(-3500px)}to{transform:translateX(-3640px)}}.a{fill:#282d35}.f,.g,.l{fill:#a8cc8c;white-space:pre}.g,.l{fill:#b9c0cb}.l{fill:#b9bfca;font-weight:700}</style><g font-family="Monaco,Consolas,Menlo,'Bitstream Vera Sans Mono','Powerline Symbols',monospace" font-size="1.67"><defs><symbol id="1"><text y="1.67" class="f">echo</text><text x="5.01" y="1.67" class="f">&apos;Step</text><text x="11.022" y="1.67" class="f">17</text><text x="14.028" y="1.67" class="f">SH</text><text x="17.034" y="1.67" class="f">Listing</text><text x="25.05" y="1.67" class="f">keys</text><text x="30.06" y="1.67" class="f">created</text><text x="38.076" y="1.67" class="f">in</text><text x="41.082" y="1.67" class="f">Vault&apos;</text></symbol><symbol id="2"><text y="1.67" class="f">curl</text><text x="5.01" y="1.67" class="f">\</text></symbol><symbol id="3"><text x="2.004" y="1.67" class="f">--request</text><text x="12.024" y="1.67" class="f">GET</text><text x="16.032" y="1.67" class="f">&apos;http://localhost:8200/v1/transit/keys/?list=true&apos;</text><text x="67.134" y="1.67" class="f">\</text></symbol><symbol id="4"><text x="2.004" y="1.67" class="f">--silent</text><text x="11.022" y="1.67" class="f">\</text></symbol><symbol id="5"><text x="2.004" y="1.67" class="f">--header</text><text x="11.022" y="1.67" class="f">&quot;X-Vault-Token:</text><text x="27.054" y="1.67" class="f">vault-plaintext-root-token&quot;</text><text x="55.11" y="1.67" class="f">|</text><text x="57.114" y="1.67" class="f">jq</text><text x="60.12" y="1.67" class="f">-r</text><text x="63.126" y="1.67" class="f">&quot;.data.keys&quot;</text></symbol><symbol id="6"><text y="1.67" class="g">Step</text><text x="5.01" y="1.67" class="g">17</text><text x="8.016" y="1.67" class="g">SH</text><text x="11.022" y="1.67" class="g">Listing</text><text x="19.038" y="1.67" class="g">keys</text><text x="24.048" y="1.67" class="g">created</text><text x="32.064" y="1.67" class="g">in</text><text x="35.07" y="1.67" class="g">Vault</text></symbol><symbol id="a"><path fill="transparent" d="M0 0h140v12H0z"/></symbol><symbol id="b"><path fill="#6f7683" d="M0 0h1.102v2.171H0z"/></symbol></defs><path class="a" d="M0 0h140v23.881H0z"/><g style="animation-duration:2.233583s;animation-iteration-count:infinite;animation-name:j;animation-timing-function:steps(1,end)"><svg width="3780"><svg><use xlink:href="#a"/><use xlink:href="#b" x="-.004"/></svg><svg x="140"><use xlink:href="#a"/><use xlink:href="#b" x="-.004"/></svg><svg x="280"><use xlink:href="#a"/><use xlink:href="#b" x="9.996"/><text y="1.67" class="f">echo</text><text x="5.01" y="1.67" class="f">&apos;Step</text></svg><svg x="420"><use xlink:href="#a"/><use xlink:href="#b" x="19.996"/><text y="1.67" class="f">echo</text><text x="5.01" y="1.67" class="f">&apos;Step</text><text x="11.022" y="1.67" class="f">17</text><text x="14.028" y="1.67" class="f">SH</text><text x="17.034" y="1.67" class="f">Lis</text></svg><svg x="560"><use xlink:href="#a"/><use xlink:href="#b" x="29.996"/><text y="1.67" class="f">echo</text><text x="5.01" y="1.67" class="f">&apos;Step</text><text x="11.022" y="1.67" class="f">17</text><text x="14.028" y="1.67" class="f">SH</text><text x="17.034" y="1.67" class="f">Listing</text><text x="25.05" y="1.67" class="f">keys</text></svg><svg x="700"><use xlink:href="#a"/><use xlink:href="#b" x="39.996"/><text y="1.67" class="f">echo</text><text x="5.01" y="1.67" class="f">&apos;Step</text><text x="11.022" y="1.67" class="f">17</text><text x="14.028" y="1.67" class="f">SH</text><text x="17.034" y="1.67" class="f">Listing</text><text x="25.05" y="1.67" class="f">keys</text><text x="30.06" y="1.67" class="f">created</text><text x="38.076" y="1.67" class="f">in</text></svg><svg x="840"><use xlink:href="#a"/><use xlink:href="#b" x="1.996" y="2.146"/><use xlink:href="#1"/><text y="3.841" class="f">cu</text></svg><svg x="980"><use xlink:href="#a"/><use xlink:href="#b" x="4.996" y="4.317"/><use xlink:href="#1"/><use xlink:href="#2" y="2.171"/><text x="2.004" y="6.012" class="f">--r</text></svg><svg x="1120"><use xlink:href="#a"/><use xlink:href="#b" x="14.996" y="4.317"/><use xlink:href="#1"/><use xlink:href="#2" y="2.171"/><text x="2.004" y="6.012" class="f">--request</text><text x="12.024" y="6.012" class="f">GET</text></svg><svg x="1260"><use xlink:href="#a"/><use xlink:href="#b" x="24.996" y="4.317"/><use xlink:href="#1"/><use xlink:href="#2" y="2.171"/><text x="2.004" y="6.012" class="f">--request</text><text x="12.024" y="6.012" class="f">GET</text><text x="16.032" y="6.012" class="f">&apos;http://l</text></svg><svg x="1400"><use xlink:href="#a"/><use xlink:href="#b" x="34.996" y="4.317"/><use xlink:href="#1"/><use xlink:href="#2" y="2.171"/><text x="2.004" y="6.012" class="f">--request</text><text x="12.024" y="6.012" class="f">GET</text><text x="16.032" y="6.012" class="f">&apos;http://localhost:8</text></svg><svg x="1540"><use xlink:href="#a"/><use xlink:href="#b" x="44.996" y="4.317"/><use xlink:href="#1"/><use xlink:href="#2" y="2.171"/><text x="2.004" y="6.012" class="f">--request</text><text x="12.024" y="6.012" class="f">GET</text><text x="16.032" y="6.012" class="f">&apos;http://localhost:8200/v1/tra</text></svg><svg x="1680"><use xlink:href="#a"/><use xlink:href="#b" x="54.996" y="4.317"/><use xlink:href="#1"/><use xlink:href="#2" y="2.171"/><text x="2.004" y="6.012" class="f">--request</text><text x="12.024" y="6.012" class="f">GET</text><text x="16.032" y="6.012" class="f">&apos;http://localhost:8200/v1/transit/keys/</text></svg><svg x="1820"><use xlink:href="#a"/><use xlink:href="#b" x="64.996" y="4.317"/><use xlink:href="#1"/><use xlink:href="#2" y="2.171"/><text x="2.004" y="6.012" class="f">--request</text><text x="12.024" y="6.012" class="f">GET</text><text x="16.032" y="6.012" class="f">&apos;http://localhost:8200/v1/transit/keys/?list=true</text></svg><svg x="1960"><use xlink:href="#a"/><use xlink:href="#b" x="5.996" y="6.488"/><use xlink:href="#1"/><use xlink:href="#2" y="2.171"/><use xlink:href="#3" y="4.342"/><text x="2.004" y="8.183" class="f">--si</text></svg><svg x="2100"><use xlink:href="#a"/><use xlink:href="#b" x="2.996" y="8.659"/><use xlink:href="#1"/><use xlink:href="#2" y="2.171"/><use xlink:href="#3" y="4.342"/><use xlink:href="#4" y="6.513"/><text x="2.004" y="10.354" class="f">-</text></svg><svg x="2240"><use xlink:href="#a"/><use xlink:href="#b" x="12.996" y="8.659"/><use xlink:href="#1"/><use xlink:href="#2" y="2.171"/><use xlink:href="#3" y="4.342"/><use xlink:href="#4" y="6.513"/><text x="2.004" y="10.354" class="f">--header</text><text x="11.022" y="10.354" class="f">&quot;X</text></svg><svg x="2380"><use xlink:href="#a"/><use xlink:href="#b" x="22.996" y="8.659"/><use xlink:href="#1"/><use xlink:href="#2" y="2.171"/><use xlink:href="#3" y="4.342"/><use xlink:href="#4" y="6.513"/><text x="2.004" y="10.354" class="f">--header</text><text x="11.022" y="10.354" class="f">&quot;X-Vault-Tok</text></svg><svg x="2520"><use xlink:href="#a"/><use xlink:href="#b" x="32.996" y="8.659"/><use xlink:href="#1"/><use xlink:href="#2" y="2.171"/><use xlink:href="#3" y="4.342"/><use xlink:href="#4" y="6.513"/><text x="2.004" y="10.354" class="f">--header</text><text x="11.022" y="10.354" class="f">&quot;X-Vault-Token:</text><text x="27.054" y="10.354" class="f">vault-</text></svg><svg x="2660"><use xlink:href="#a"/><use xlink:href="#b" x="42.996" y="8.659"/><use xlink:href="#1"/><use xlink:href="#2" y="2.171"/><use xlink:href="#3" y="4.342"/><use xlink:href="#4" y="6.513"/><text x="2.004" y="10.354" class="f">--header</text><text x="11.022" y="10.354" class="f">&quot;X-Vault-Token:</text><text x="27.054" y="10.354" class="f">vault-plaintext-</text></svg><svg x="2800"><use xlink:href="#a"/><use xlink:href="#b" x="52.996" y="8.659"/><use xlink:href="#1"/><use xlink:href="#2" y="2.171"/><use xlink:href="#3" y="4.342"/><use xlink:href="#4" y="6.513"/><text x="2.004" y="10.354" class="f">--header</text><text x="11.022" y="10.354" class="f">&quot;X-Vault-Token:</text><text x="27.054" y="10.354" class="f">vault-plaintext-root-token</text></svg><svg x="2940"><use xlink:href="#a"/><use xlink:href="#b" x="62.996" y="8.659"/><use xlink:href="#1"/><use xlink:href="#2" y="2.171"/><use xlink:href="#3" y="4.342"/><use xlink:href="#4" y="6.513"/><text x="2.004" y="10.354" class="f">--header</text><text x="11.022" y="10.354" class="f">&quot;X-Vault-Token:</text><text x="27.054" y="10.354" class="f">vault-plaintext-root-token&quot;</text><text x="55.11" y="10.354" class="f">|</text><text x="57.114" y="10.354" class="f">jq</text><text x="60.12" y="10.354" class="f">-r</text></svg><svg x="3080"><use xlink:href="#a"/><use xlink:href="#b" x="72.996" y="8.659"/><use xlink:href="#1"/><use xlink:href="#2" y="2.171"/><use xlink:href="#3" y="4.342"/><use xlink:href="#4" y="6.513"/><text x="2.004" y="10.354" class="f">--header</text><text x="11.022" y="10.354" class="f">&quot;X-Vault-Token:</text><text x="27.054" y="10.354" class="f">vault-plaintext-root-token&quot;</text><text x="55.11" y="10.354" class="f">|</text><text x="57.114" y="10.354" class="f">jq</text><text x="60.12" y="10.354" class="f">-r</text><text x="63.126" y="10.354" class="f">&quot;.data.key</text></svg><svg x="3220"><use xlink:href="#a"/><use xlink:href="#b" x="-.004" y="10.83"/><use xlink:href="#1"/><use xlink:href="#2" y="2.171"/><use xlink:href="#3" y="4.342"/><use xlink:href="#4" y="6.513"/><use xlink:href="#5" y="8.684"/></svg><svg x="3360"><use xlink:href="#a"/><use xlink:href="#b" x="-.004" y="13.001"/><use xlink:href="#1"/><use xlink:href="#2" y="2.171"/><use xlink:href="#3" y="4.342"/><use xlink:href="#4" y="6.513"/><use xlink:href="#5" y="8.684"/></svg><svg x="3500"><use xlink:href="#a"/><use xlink:href="#b" x="-.004" y="15.172"/><use xlink:href="#1"/><use xlink:href="#2" y="2.171"/><use xlink:href="#3" y="4.342"/><use xlink:href="#4" y="6.513"/><use xlink:href="#5" y="8.684"/><use xlink:href="#6" y="13.026"/></svg><svg x="3640"><use xlink:href="#a"/><use xlink:href="#b" x="-.004" y="23.856"/><use xlink:href="#1"/><use xlink:href="#2" y="2.171"/><use xlink:href="#3" y="4.342"/><use xlink:href="#4" y="6.513"/><use xlink:href="#5" y="8.684"/><use xlink:href="#6" y="13.026"/><text y="16.867" class="l">[</text><text x="2.004" y="19.038" class="f">&quot;secret-for-florent&quot;</text><text x="22.044" y="19.038" class="l">,</text><text x="2.004" y="21.209" class="f">&quot;secret-for-tom&quot;</text><text y="23.38" class="l">]</text></svg></svg></g></g></svg></svg>