<svg xmlns="http://www.w3.org/2000/svg" xmlns:xlink="http://www.w3.org/1999/xlink" width="1440" height="494.2"><rect width="1440" height="494.2" rx="5" ry="5" class="a"/><svg y="0%" x="0%"><circle cx="20" cy="20" r="6" fill="#ff5f58"/><circle cx="40" cy="20" r="6" fill="#ffbd2e"/><circle cx="60" cy="20" r="6" fill="#18c132"/></svg><svg height="434.2" viewBox="0 0 140 43.42" width="1400" x="15" xmlns="http://www.w3.org/2000/svg" xmlns:xlink="http://www.w3.org/1999/xlink" y="50"><style>@keyframes l{0%{transform:translateX(0)}.2%{transform:translateX(-140px)}.3%{transform:translateX(-280px)}3.3%{transform:translateX(-420px)}4.8%{transform:translateX(-560px)}6.3%{transform:translateX(-700px)}7.9%{transform:translateX(-840px)}9.4%{transform:translateX(-980px)}10.8%{transform:translateX(-1120px)}12.4%{transform:translateX(-1260px)}13.8%{transform:translateX(-1400px)}15.3%{transform:translateX(-1540px)}16.9%{transform:translateX(-1680px)}18.4%{transform:translateX(-1820px)}19.9%{transform:translateX(-1960px)}21.5%{transform:translateX(-2100px)}23%{transform:translateX(-2240px)}24.4%{transform:translateX(-2380px)}25.9%{transform:translateX(-2520px)}27.6%{transform:translateX(-2660px)}30.5%{transform:translateX(-2800px)}32.1%{transform:translateX(-3080px)}64.1%{transform:translateX(-3360px)}96.2%{transform:translateX(-3500px)}to{transform:translateX(-3640px)}}.a{fill:#282d35}.f{fill:#a8cc8c;white-space:pre}.g{fill:#b9bfca;font-weight:700}.g,.h,.i{white-space:pre}.h{fill:#71bef2;font-weight:700}.i{fill:#b9c0cb}</style><g font-family="Monaco,Consolas,Menlo,'Bitstream Vera Sans Mono','Powerline Symbols',monospace" font-size="1.67"><defs><symbol id="1"><text y="1.67" class="f">kafka-console-consumer</text><text x="23.046" y="1.67" class="f">\</text></symbol><symbol id="2"><text x="4.008" y="1.67" class="f">-</text></symbol><symbol id="3"><text x="4.008" y="1.67" class="f">--bootstrap-server</text><text x="23.046" y="1.67" class="f">localhost:6969</text><text x="38.076" y="1.67" class="f">\</text></symbol><symbol id="4"><text x="4.008" y="1.67" class="f">--consumer.config</text><text x="22.044" y="1.67" class="f">teamA-sa.properties</text><text x="42.084" y="1.67" class="f">\</text></symbol><symbol id="5"><text x="4.008" y="1.67" class="f">--topic</text><text x="12.024" y="1.67" class="f">customers-shredding</text><text x="32.064" y="1.67" class="f">\</text></symbol><symbol id="6"><text x="4.008" y="1.67" class="f">--from-beginning</text><text x="21.042" y="1.67" class="f">\</text></symbol><symbol id="7"><text x="4.008" y="1.67" class="f">--timeout-ms</text><text x="17.034" y="1.67" class="f">5000</text><text x="22.044" y="1.67" class="f">|</text><text x="24.048" y="1.67" class="f">jq</text></symbol><symbol id="8"><text y="1.67" class="g">{</text></symbol><symbol id="9"><text x="2.004" y="1.67" class="h">&quot;name&quot;</text><text x="8.016" y="1.67" class="g">:</text><text x="10.02" y="1.67" class="f">&quot;tom&quot;</text><text x="15.03" y="1.67" class="g">,</text></symbol><symbol id="10"><text x="2.004" y="1.67" class="h">&quot;username&quot;</text><text x="12.024" y="1.67" class="g">:</text><text x="14.028" y="1.67" class="f">&quot;tom@conduktor.io&quot;</text><text x="32.064" y="1.67" class="g">,</text></symbol><symbol id="11"><text x="2.004" y="1.67" class="h">&quot;password&quot;</text><text x="12.024" y="1.67" class="g">:</text><text x="14.028" y="1.67" class="f">&quot;AAAABQAAAEl2YXVsdDp2MTpSSjJ5WkpwMmZ0Z1dpcGFpSzBSWTNmalVudU9ZcS9PMFg1ak9heXVPVjJNNlhReHV1dVhRRUtwcjNRSUludz09hX8Ggu536deSBbAB4</text></symbol><symbol id="12"><text y="1.67" class="f">Syc2oWkonRJ7YMuXNpyJs+kPvNVorfQRIoN1pg8CVM=&quot;</text><text x="44.088" y="1.67" class="g">,</text></symbol><symbol id="13"><text x="2.004" y="1.67" class="h">&quot;visa&quot;</text><text x="8.016" y="1.67" class="g">:</text><text x="10.02" y="1.67" class="f">&quot;AAAABQAAAEl2YXVsdDp2MTp1Nnh0U2E4MEtKc3JDbGpZMnM4UDVDWDNmR3dZVUVPNjVYc3g0MnNCLzh1T3JIRmpoMkNCUUtqNWp4azlGdz090Bzn0GsJ9Nzgz1yq9TLxi</text></symbol><symbol id="14"><text y="1.67" class="f">dXLI8cPnW2wcbc7UIJVHY8iFND+/BHJ970K&quot;</text><text x="36.072" y="1.67" class="g">,</text></symbol><symbol id="15"><text x="2.004" y="1.67" class="h">&quot;address&quot;</text><text x="11.022" y="1.67" class="g">:</text><text x="13.026" y="1.67" class="f">&quot;Chancery</text><text x="23.046" y="1.67" class="f">lane,</text><text x="29.058" y="1.67" class="f">London&quot;</text></symbol><symbol id="16"><text y="1.67" class="g">}</text></symbol><symbol id="17"><text x="2.004" y="1.67" class="h">&quot;name&quot;</text><text x="8.016" y="1.67" class="g">:</text><text x="10.02" y="1.67" class="f">&quot;florent&quot;</text><text x="19.038" y="1.67" class="g">,</text></symbol><symbol id="18"><text x="2.004" y="1.67" class="h">&quot;username&quot;</text><text x="12.024" y="1.67" class="g">:</text><text x="14.028" y="1.67" class="f">&quot;florent@conduktor.io&quot;</text><text x="36.072" y="1.67" class="g">,</text></symbol><symbol id="19"><text x="2.004" y="1.67" class="h">&quot;password&quot;</text><text x="12.024" y="1.67" class="g">:</text><text x="14.028" y="1.67" class="f">&quot;AAAABQAAAEl2YXVsdDp2MTpUcS9FcjU2ZWppbVdERkl2Ly9YOENKalJSbGoybThnVGZjU01KUmlQekNtTVBJeDRxZzVvTk1JN2FuOE1tdz09QdyulMPtAAvx9SF0f</text></symbol><symbol id="20"><text y="1.67" class="f">haKp8dS20mmhFp1QcId9LXeCoBJux2rGdnXyn9WZQ==&quot;</text><text x="44.088" y="1.67" class="g">,</text></symbol><symbol id="21"><text x="2.004" y="1.67" class="h">&quot;visa&quot;</text><text x="8.016" y="1.67" class="g">:</text><text x="10.02" y="1.67" class="f">&quot;AAAABQAAAEl2YXVsdDp2MTpLeW1TVENJWXBDMWh1b0xRcVdtNTcwbnBmYS9ONSt6WURjWk05ZFlMNDlMNURiY0NFSm5tTjNweFFMSXNWdz09b1J5CRxKD0MnfV7ZUv09A</text></symbol><symbol id="22"><text y="1.67" class="f">brHOGkGUlZneYdbhHu1YZNKZ6kFgVgyDtlqOlw=&quot;</text><text x="40.08" y="1.67" class="g">,</text></symbol><symbol id="23"><text x="2.004" y="1.67" class="h">&quot;address&quot;</text><text x="11.022" y="1.67" class="g">:</text><text x="13.026" y="1.67" class="f">&quot;Dubai,</text><text x="21.042" y="1.67" class="f">UAE&quot;</text></symbol><symbol id="24"><text y="1.67" class="i">[2023-09-19</text><text x="12.024" y="1.67" class="i">10:28:41,132]</text><text x="26.052" y="1.67" class="i">ERROR</text><text x="32.064" y="1.67" class="i">Error</text><text x="38.076" y="1.67" class="i">processing</text><text x="49.098" y="1.67" class="i">message,</text><text x="58.116" y="1.67" class="i">terminating</text><text x="70.14" y="1.67" class="i">consumer</text><text x="79.158" y="1.67" class="i">process:</text><text x="89.178" y="1.67" class="i">(kafka.tools.ConsoleConsumer$)</text></symbol><symbol id="25"><text y="1.67" class="i">org.apache.kafka.common.errors.TimeoutException</text></symbol><symbol id="a"><path fill="transparent" d="M0 0h140v21H0z"/></symbol><symbol id="b"><path fill="#6f7683" d="M0 0h1.102v2.171H0z"/></symbol></defs><path class="a" d="M0 0h140v43.42H0z"/><g style="animation-duration:6.236978s;animation-iteration-count:infinite;animation-name:l;animation-timing-function:steps(1,end)"><svg width="3780"><svg><use xlink:href="#a"/><use xlink:href="#b" x="-.004"/></svg><svg x="140"><use xlink:href="#a"/><use xlink:href="#b" x="-.004"/></svg><svg x="280"><use xlink:href="#a"/><use xlink:href="#b" x="9.996"/><text y="1.67" class="f">kafka-cons</text></svg><svg x="420"><use xlink:href="#a"/><use xlink:href="#b" x="19.996"/><text y="1.67" class="f">kafka-console-consum</text></svg><svg x="560"><use xlink:href="#a"/><use xlink:href="#b" x="4.996" y="2.146"/><use xlink:href="#1"/><use xlink:href="#2" y="2.171"/></svg><svg x="700"><use xlink:href="#a"/><use xlink:href="#b" x="14.996" y="2.146"/><use xlink:href="#1"/><text x="4.008" y="3.841" class="f">--bootstrap</text></svg><svg x="840"><use xlink:href="#a"/><use xlink:href="#b" x="24.996" y="2.146"/><use xlink:href="#1"/><text x="4.008" y="3.841" class="f">--bootstrap-server</text><text x="23.046" y="3.841" class="f">lo</text></svg><svg x="980"><use xlink:href="#a"/><use xlink:href="#b" x="34.996" y="2.146"/><use xlink:href="#1"/><text x="4.008" y="3.841" class="f">--bootstrap-server</text><text x="23.046" y="3.841" class="f">localhost:69</text></svg><svg x="1120"><use xlink:href="#a"/><use xlink:href="#b" x="4.996" y="4.317"/><use xlink:href="#1"/><use xlink:href="#3" y="2.171"/><use xlink:href="#2" y="4.342"/></svg><svg x="1260"><use xlink:href="#a"/><use xlink:href="#b" x="14.996" y="4.317"/><use xlink:href="#1"/><use xlink:href="#3" y="2.171"/><text x="4.008" y="6.012" class="f">--consumer.</text></svg><svg x="1400"><use xlink:href="#a"/><use xlink:href="#b" x="24.996" y="4.317"/><use xlink:href="#1"/><use xlink:href="#3" y="2.171"/><text x="4.008" y="6.012" class="f">--consumer.config</text><text x="22.044" y="6.012" class="f">tea</text></svg><svg x="1540"><use xlink:href="#a"/><use xlink:href="#b" x="34.996" y="4.317"/><use xlink:href="#1"/><use xlink:href="#3" y="2.171"/><text x="4.008" y="6.012" class="f">--consumer.config</text><text x="22.044" y="6.012" class="f">teamA-sa.prop</text></svg><svg x="1680"><use xlink:href="#a"/><use xlink:href="#b" x=".996" y="6.488"/><use xlink:href="#1"/><use xlink:href="#3" y="2.171"/><use xlink:href="#4" y="4.342"/></svg><svg x="1820"><use xlink:href="#a"/><use xlink:href="#b" x="10.996" y="6.488"/><use xlink:href="#1"/><use xlink:href="#3" y="2.171"/><use xlink:href="#4" y="4.342"/><text x="4.008" y="8.183" class="f">--topic</text></svg><svg x="1960"><use xlink:href="#a"/><use xlink:href="#b" x="20.996" y="6.488"/><use xlink:href="#1"/><use xlink:href="#3" y="2.171"/><use xlink:href="#4" y="4.342"/><text x="4.008" y="8.183" class="f">--topic</text><text x="12.024" y="8.183" class="f">customers</text></svg><svg x="2100"><use xlink:href="#a"/><use xlink:href="#b" x="30.996" y="6.488"/><use xlink:href="#1"/><use xlink:href="#3" y="2.171"/><use xlink:href="#4" y="4.342"/><text x="4.008" y="8.183" class="f">--topic</text><text x="12.024" y="8.183" class="f">customers-shredding</text></svg><svg x="2240"><use xlink:href="#a"/><use xlink:href="#b" x="6.996" y="8.659"/><use xlink:href="#1"/><use xlink:href="#3" y="2.171"/><use xlink:href="#4" y="4.342"/><use xlink:href="#5" y="6.513"/><text x="4.008" y="10.354" class="f">--f</text></svg><svg x="2380"><use xlink:href="#a"/><use xlink:href="#b" x="16.996" y="8.659"/><use xlink:href="#1"/><use xlink:href="#3" y="2.171"/><use xlink:href="#4" y="4.342"/><use xlink:href="#5" y="6.513"/><text x="4.008" y="10.354" class="f">--from-beginn</text></svg><svg x="2520"><use xlink:href="#a"/><use xlink:href="#b" x="3.996" y="10.83"/><use xlink:href="#1"/><use xlink:href="#3" y="2.171"/><use xlink:href="#4" y="4.342"/><use xlink:href="#5" y="6.513"/><use xlink:href="#6" y="8.684"/></svg><svg x="2660"><use xlink:href="#a"/><use xlink:href="#b" x="13.996" y="10.83"/><use xlink:href="#1"/><use xlink:href="#3" y="2.171"/><use xlink:href="#4" y="4.342"/><use xlink:href="#5" y="6.513"/><use xlink:href="#6" y="8.684"/><text x="4.008" y="12.525" class="f">--timeout-</text></svg><svg x="2800"><use xlink:href="#a"/><use xlink:href="#b" x="23.996" y="10.83"/><use xlink:href="#1"/><use xlink:href="#3" y="2.171"/><use xlink:href="#4" y="4.342"/><use xlink:href="#5" y="6.513"/><use xlink:href="#6" y="8.684"/><text x="4.008" y="12.525" class="f">--timeout-ms</text><text x="17.034" y="12.525" class="f">5000</text><text x="22.044" y="12.525" class="f">|</text></svg><svg x="2940"><use xlink:href="#a"/><use xlink:href="#b" x="-.004" y="13.001"/><use xlink:href="#1"/><use xlink:href="#3" y="2.171"/><use xlink:href="#4" y="4.342"/><use xlink:href="#5" y="6.513"/><use xlink:href="#6" y="8.684"/><use xlink:href="#7" y="10.855"/></svg><svg x="3080"><use xlink:href="#a"/><use xlink:href="#b" x="-.004" y="15.172"/><use xlink:href="#1"/><use xlink:href="#3" y="2.171"/><use xlink:href="#4" y="4.342"/><use xlink:href="#5" y="6.513"/><use xlink:href="#6" y="8.684"/><use xlink:href="#7" y="10.855"/></svg><svg x="3220"><use xlink:href="#a"/><use xlink:href="#b" x="130.996" y="41.224"/><use xlink:href="#1"/><use xlink:href="#3" y="2.171"/><use xlink:href="#4" y="4.342"/><use xlink:href="#5" y="6.513"/><use xlink:href="#6" y="8.684"/><use xlink:href="#7" y="10.855"/><use xlink:href="#8" y="15.197"/><use xlink:href="#9" y="17.368"/><use xlink:href="#10" y="19.539"/><use xlink:href="#11" y="21.71"/><use xlink:href="#12" y="23.881"/><use xlink:href="#13" y="26.052"/><use xlink:href="#14" y="28.223"/><use xlink:href="#15" y="30.394"/><use xlink:href="#16" y="32.565"/><use xlink:href="#8" y="34.736"/><use xlink:href="#17" y="36.907"/><use xlink:href="#18" y="39.078"/><text x="2.004" y="42.919" class="h">&quot;password&quot;</text><text x="12.024" y="42.919" class="g">:</text><text x="14.028" y="42.919" class="f">&quot;AAAABQAAAEl2YXVsdDp2MTpUcS9FcjU2ZWppbVdERkl2Ly9YOENKalJSbGoybThnVGZjU01KUmlQekNtTVBJeDRxZzVvTk1JN2FuOE1tdz09QdyulMPt</text></svg><svg x="3360"><use xlink:href="#a"/><use xlink:href="#b" x="-.004" y="43.395"/><use xlink:href="#7"/><use xlink:href="#8" y="4.342"/><use xlink:href="#9" y="6.513"/><use xlink:href="#10" y="8.684"/><use xlink:href="#11" y="10.855"/><use xlink:href="#12" y="13.026"/><use xlink:href="#13" y="15.197"/><use xlink:href="#14" y="17.368"/><use xlink:href="#15" y="19.539"/><use xlink:href="#16" y="21.71"/><use xlink:href="#8" y="23.881"/><use xlink:href="#17" y="26.052"/><use xlink:href="#18" y="28.223"/><use xlink:href="#19" y="30.394"/><use xlink:href="#20" y="32.565"/><use xlink:href="#21" y="34.736"/><use xlink:href="#22" y="36.907"/><use xlink:href="#23" y="39.078"/><use xlink:href="#16" y="41.249"/></svg><svg x="3500"><use xlink:href="#a"/><use xlink:href="#b" x="-.004" y="43.395"/><use xlink:href="#8"/><use xlink:href="#9" y="2.171"/><use xlink:href="#10" y="4.342"/><use xlink:href="#11" y="6.513"/><use xlink:href="#12" y="8.684"/><use xlink:href="#13" y="10.855"/><use xlink:href="#14" y="13.026"/><use xlink:href="#15" y="15.197"/><use xlink:href="#16" y="17.368"/><use xlink:href="#8" y="19.539"/><use xlink:href="#17" y="21.71"/><use xlink:href="#18" y="23.881"/><use xlink:href="#19" y="26.052"/><use xlink:href="#20" y="28.223"/><use xlink:href="#21" y="30.394"/><use xlink:href="#22" y="32.565"/><use xlink:href="#23" y="34.736"/><use xlink:href="#16" y="36.907"/><use xlink:href="#24" y="39.078"/><use xlink:href="#25" y="41.249"/></svg><svg x="3640"><use xlink:href="#a"/><use xlink:href="#b" x="-.004" y="43.395"/><use xlink:href="#9"/><use xlink:href="#10" y="2.171"/><use xlink:href="#11" y="4.342"/><use xlink:href="#12" y="6.513"/><use xlink:href="#13" y="8.684"/><use xlink:href="#14" y="10.855"/><use xlink:href="#15" y="13.026"/><use xlink:href="#16" y="15.197"/><use xlink:href="#8" y="17.368"/><use xlink:href="#17" y="19.539"/><use xlink:href="#18" y="21.71"/><use xlink:href="#19" y="23.881"/><use xlink:href="#20" y="26.052"/><use xlink:href="#21" y="28.223"/><use xlink:href="#22" y="30.394"/><use xlink:href="#23" y="32.565"/><use xlink:href="#16" y="34.736"/><use xlink:href="#24" y="36.907"/><use xlink:href="#25" y="39.078"/><text y="42.919" class="i">Processed</text><text x="10.02" y="42.919" class="i">a</text><text x="12.024" y="42.919" class="i">total</text><text x="18.036" y="42.919" class="i">of</text><text x="21.042" y="42.919" class="i">2</text><text x="23.046" y="42.919" class="i">messages</text></svg></svg></g></g></svg></svg>