<svg xmlns="http://www.w3.org/2000/svg" xmlns:xlink="http://www.w3.org/1999/xlink" width="1440" height="494.2"><rect width="1440" height="494.2" rx="5" ry="5" class="a"/><svg y="0%" x="0%"><circle cx="20" cy="20" r="6" fill="#ff5f58"/><circle cx="40" cy="20" r="6" fill="#ffbd2e"/><circle cx="60" cy="20" r="6" fill="#18c132"/></svg><svg height="434.2" viewBox="0 0 140 43.42" width="1400" x="15" xmlns="http://www.w3.org/2000/svg" xmlns:xlink="http://www.w3.org/1999/xlink" y="50"><style>@keyframes m{0%{transform:translateX(0)}.9%{transform:translateX(-140px)}1.1%{transform:translateX(-280px)}10.7%{transform:translateX(-420px)}15.7%{transform:translateX(-560px)}20.4%{transform:translateX(-700px)}25.4%{transform:translateX(-840px)}30.6%{transform:translateX(-980px)}35.3%{transform:translateX(-1120px)}40.7%{transform:translateX(-1260px)}45.6%{transform:translateX(-1400px)}50.5%{transform:translateX(-1540px)}57.5%{transform:translateX(-1680px)}62.3%{transform:translateX(-1820px)}67.2%{transform:translateX(-1960px)}72.2%{transform:translateX(-2100px)}77.2%{transform:translateX(-2240px)}81.9%{transform:translateX(-2380px)}86.7%{transform:translateX(-2520px)}91.4%{transform:translateX(-2660px)}91.5%{transform:translateX(-2800px)}93.7%{transform:translateX(-3220px)}99.8%{transform:translateX(-3360px)}to{transform:translateX(-3920px)}}.a{fill:#282d35}.f,.g,.h{fill:#a8cc8c;white-space:pre}.g,.h{fill:#b9c0cb}.h{fill:#71bef2}.h,.i{font-weight:700}.i,.j,.o{fill:#b9bfca;white-space:pre}.o{fill:#6f7783}</style><g font-family="Monaco,Consolas,Menlo,'Bitstream Vera Sans Mono','Powerline Symbols',monospace" font-size="1.67"><defs><symbol id="1"><text y="1.67" class="f">curl</text><text x="5.01" y="1.67" class="f">\</text></symbol><symbol id="2"><text x="4.008" y="1.67" class="f">-u</text><text x="7.014" y="1.67" class="f">&quot;admin:conduktor&quot;</text><text x="25.05" y="1.67" class="f">\</text></symbol><symbol id="3"><text x="4.008" y="1.67" class="f">--request</text><text x="14.028" y="1.67" class="f">GET</text><text x="18.036" y="1.67" class="f">&quot;http://localhost:8888/admin/interceptors/v1/vcluster/teamA/interceptors&quot;</text><text x="92.184" y="1.67" class="f">\</text></symbol><symbol id="4"><text x="4.008" y="1.67" class="f">--header</text><text x="13.026" y="1.67" class="f">&apos;Content-Type:</text><text x="28.056" y="1.67" class="f">application/json&apos;</text><text x="46.092" y="1.67" class="f">|</text><text x="48.096" y="1.67" class="f">jq</text></symbol><symbol id="5"><text x="2.004" y="1.67" class="g">%</text><text x="4.008" y="1.67" class="g">Total</text><text x="13.026" y="1.67" class="g">%</text><text x="15.03" y="1.67" class="g">Received</text><text x="24.048" y="1.67" class="g">%</text><text x="26.052" y="1.67" class="g">Xferd</text><text x="33.066" y="1.67" class="g">Average</text><text x="41.082" y="1.67" class="g">Speed</text><text x="49.098" y="1.67" class="g">Time</text><text x="57.114" y="1.67" class="g">Time</text><text x="66.132" y="1.67" class="g">Time</text><text x="72.144" y="1.67" class="g">Current</text></symbol><symbol id="6"><text x="33.066" y="1.67" class="g">Dload</text><text x="40.08" y="1.67" class="g">Upload</text><text x="49.098" y="1.67" class="g">Total</text><text x="57.114" y="1.67" class="g">Spent</text><text x="66.132" y="1.67" class="g">Left</text><text x="72.144" y="1.67" class="g">Speed</text></symbol><symbol id="7"><text y="1.67" class="g">100</text><text x="6.012" y="1.67" class="g">620</text><text x="11.022" y="1.67" class="g">100</text><text x="17.034" y="1.67" class="g">620</text><text x="24.048" y="1.67" class="g">0</text><text x="30.06" y="1.67" class="g">0</text><text x="34.068" y="1.67" class="g">5074</text><text x="44.088" y="1.67" class="g">0</text><text x="46.092" y="1.67" class="g">--:--:--</text><text x="55.11" y="1.67" class="g">--:--:--</text><text x="64.128" y="1.67" class="g">--:--:--</text><text x="74.148" y="1.67" class="g">5535</text></symbol><symbol id="8"><text x="8.016" y="1.67" class="h">&quot;kmsConfig&quot;</text><text x="19.038" y="1.67" class="i">:</text><text x="21.042" y="1.67" class="i">{</text></symbol><symbol id="9"><text x="10.02" y="1.67" class="h">&quot;vault&quot;</text><text x="17.034" y="1.67" class="i">:</text><text x="19.038" y="1.67" class="i">{</text></symbol><symbol id="10"><text x="12.024" y="1.67" class="h">&quot;uri&quot;</text><text x="17.034" y="1.67" class="i">:</text><text x="19.038" y="1.67" class="f">&quot;http://vault:8200&quot;</text><text x="38.076" y="1.67" class="i">,</text></symbol><symbol id="11"><text x="12.024" y="1.67" class="h">&quot;token&quot;</text><text x="19.038" y="1.67" class="i">:</text><text x="21.042" y="1.67" class="f">&quot;vault-plaintext-root-token&quot;</text><text x="49.098" y="1.67" class="i">,</text></symbol><symbol id="12"><text x="12.024" y="1.67" class="h">&quot;version&quot;</text><text x="21.042" y="1.67" class="i">:</text><text x="23.046" y="1.67" class="j">1</text></symbol><symbol id="13"><text x="10.02" y="1.67" class="i">}</text></symbol><symbol id="14"><text x="10.02" y="1.67" class="i">{</text></symbol><symbol id="15"><text x="12.024" y="1.67" class="h">&quot;fieldName&quot;</text><text x="23.046" y="1.67" class="i">:</text><text x="25.05" y="1.67" class="f">&quot;password&quot;</text><text x="35.07" y="1.67" class="i">,</text></symbol><symbol id="16"><text x="12.024" y="1.67" class="h">&quot;keySecretId&quot;</text><text x="25.05" y="1.67" class="i">:</text><text x="27.054" y="1.67" class="f">&quot;vault-kms://vault:8200/transit/keys/secret-for-{{record.value.name}}&quot;</text><text x="97.194" y="1.67" class="i">,</text></symbol><symbol id="17"><text x="12.024" y="1.67" class="h">&quot;algorithm&quot;</text><text x="23.046" y="1.67" class="i">:</text><text x="25.05" y="1.67" class="i">{</text></symbol><symbol id="18"><text x="14.028" y="1.67" class="h">&quot;type&quot;</text><text x="20.04" y="1.67" class="i">:</text><text x="22.044" y="1.67" class="f">&quot;AES_GCM&quot;</text><text x="31.062" y="1.67" class="i">,</text></symbol><symbol id="19"><text x="14.028" y="1.67" class="h">&quot;kms&quot;</text><text x="19.038" y="1.67" class="i">:</text><text x="21.042" y="1.67" class="f">&quot;VAULT&quot;</text></symbol><symbol id="20"><text x="12.024" y="1.67" class="i">}</text></symbol><symbol id="21"><text x="10.02" y="1.67" class="i">},</text></symbol><symbol id="22"><text x="12.024" y="1.67" class="h">&quot;fieldName&quot;</text><text x="23.046" y="1.67" class="i">:</text><text x="25.05" y="1.67" class="f">&quot;visa&quot;</text><text x="31.062" y="1.67" class="i">,</text></symbol><symbol id="23"><text x="8.016" y="1.67" class="i">]</text></symbol><symbol id="24"><text x="6.012" y="1.67" class="i">}</text></symbol><symbol id="25"><text x="4.008" y="1.67" class="i">}</text></symbol><symbol id="26"><text x="2.004" y="1.67" class="i">]</text></symbol><symbol id="a"><path fill="transparent" d="M0 0h140v21H0z"/></symbol><symbol id="b"><path fill="#6f7683" d="M0 0h1.102v2.171H0z"/></symbol></defs><path class="a" d="M0 0h140v43.42H0z"/><g style="animation-duration:1.911611s;animation-iteration-count:infinite;animation-name:m;animation-timing-function:steps(1,end)"><svg width="4060"><svg><use xlink:href="#a"/><use xlink:href="#b" x="-.004"/></svg><svg x="140"><use xlink:href="#a"/><use xlink:href="#b" x="-.004"/></svg><svg x="280"><use xlink:href="#a"/><use xlink:href="#b" x="2.996" y="2.146"/><use xlink:href="#1"/></svg><svg x="420"><use xlink:href="#a"/><use xlink:href="#b" x="12.996" y="2.146"/><use xlink:href="#1"/><text x="4.008" y="3.841" class="f">-u</text><text x="7.014" y="3.841" class="f">&quot;admin</text></svg><svg x="560"><use xlink:href="#a"/><use xlink:href="#b" x="22.996" y="2.146"/><use xlink:href="#1"/><text x="4.008" y="3.841" class="f">-u</text><text x="7.014" y="3.841" class="f">&quot;admin:conduktor</text></svg><svg x="700"><use xlink:href="#a"/><use xlink:href="#b" x="5.996" y="4.317"/><use xlink:href="#1"/><use xlink:href="#2" y="2.171"/><text x="4.008" y="6.012" class="f">--</text></svg><svg x="840"><use xlink:href="#a"/><use xlink:href="#b" x="15.996" y="4.317"/><use xlink:href="#1"/><use xlink:href="#2" y="2.171"/><text x="4.008" y="6.012" class="f">--request</text><text x="14.028" y="6.012" class="f">GE</text></svg><svg x="980"><use xlink:href="#a"/><use xlink:href="#b" x="25.996" y="4.317"/><use xlink:href="#1"/><use xlink:href="#2" y="2.171"/><text x="4.008" y="6.012" class="f">--request</text><text x="14.028" y="6.012" class="f">GET</text><text x="18.036" y="6.012" class="f">&quot;http://</text></svg><svg x="1120"><use xlink:href="#a"/><use xlink:href="#b" x="35.996" y="4.317"/><use xlink:href="#1"/><use xlink:href="#2" y="2.171"/><text x="4.008" y="6.012" class="f">--request</text><text x="14.028" y="6.012" class="f">GET</text><text x="18.036" y="6.012" class="f">&quot;http://localhost:</text></svg><svg x="1260"><use xlink:href="#a"/><use xlink:href="#b" x="45.996" y="4.317"/><use xlink:href="#1"/><use xlink:href="#2" y="2.171"/><text x="4.008" y="6.012" class="f">--request</text><text x="14.028" y="6.012" class="f">GET</text><text x="18.036" y="6.012" class="f">&quot;http://localhost:8888/admin</text></svg><svg x="1400"><use xlink:href="#a"/><use xlink:href="#b" x="55.996" y="4.317"/><use xlink:href="#1"/><use xlink:href="#2" y="2.171"/><text x="4.008" y="6.012" class="f">--request</text><text x="14.028" y="6.012" class="f">GET</text><text x="18.036" y="6.012" class="f">&quot;http://localhost:8888/admin/intercept</text></svg><svg x="1540"><use xlink:href="#a"/><use xlink:href="#b" x="65.996" y="4.317"/><use xlink:href="#1"/><use xlink:href="#2" y="2.171"/><text x="4.008" y="6.012" class="f">--request</text><text x="14.028" y="6.012" class="f">GET</text><text x="18.036" y="6.012" class="f">&quot;http://localhost:8888/admin/interceptors/v1/vcl</text></svg><svg x="1680"><use xlink:href="#a"/><use xlink:href="#b" x="75.996" y="4.317"/><use xlink:href="#1"/><use xlink:href="#2" y="2.171"/><text x="4.008" y="6.012" class="f">--request</text><text x="14.028" y="6.012" class="f">GET</text><text x="18.036" y="6.012" class="f">&quot;http://localhost:8888/admin/interceptors/v1/vcluster/team</text></svg><svg x="1820"><use xlink:href="#a"/><use xlink:href="#b" x="85.996" y="4.317"/><use xlink:href="#1"/><use xlink:href="#2" y="2.171"/><text x="4.008" y="6.012" class="f">--request</text><text x="14.028" y="6.012" class="f">GET</text><text x="18.036" y="6.012" class="f">&quot;http://localhost:8888/admin/interceptors/v1/vcluster/teamA/intercep</text></svg><svg x="1960"><use xlink:href="#a"/><use xlink:href="#b" x="1.996" y="6.488"/><use xlink:href="#1"/><use xlink:href="#2" y="2.171"/><use xlink:href="#3" y="4.342"/></svg><svg x="2100"><use xlink:href="#a"/><use xlink:href="#b" x="11.996" y="6.488"/><use xlink:href="#1"/><use xlink:href="#2" y="2.171"/><use xlink:href="#3" y="4.342"/><text x="4.008" y="8.183" class="f">--header</text></svg><svg x="2240"><use xlink:href="#a"/><use xlink:href="#b" x="21.996" y="6.488"/><use xlink:href="#1"/><use xlink:href="#2" y="2.171"/><use xlink:href="#3" y="4.342"/><text x="4.008" y="8.183" class="f">--header</text><text x="13.026" y="8.183" class="f">&apos;Content-</text></svg><svg x="2380"><use xlink:href="#a"/><use xlink:href="#b" x="31.996" y="6.488"/><use xlink:href="#1"/><use xlink:href="#2" y="2.171"/><use xlink:href="#3" y="4.342"/><text x="4.008" y="8.183" class="f">--header</text><text x="13.026" y="8.183" class="f">&apos;Content-Type:</text><text x="28.056" y="8.183" class="f">appl</text></svg><svg x="2520"><use xlink:href="#a"/><use xlink:href="#b" x="41.996" y="6.488"/><use xlink:href="#1"/><use xlink:href="#2" y="2.171"/><use xlink:href="#3" y="4.342"/><text x="4.008" y="8.183" class="f">--header</text><text x="13.026" y="8.183" class="f">&apos;Content-Type:</text><text x="28.056" y="8.183" class="f">application/js</text></svg><svg x="2660"><use xlink:href="#a"/><use xlink:href="#b" x="-.004" y="8.659"/><use xlink:href="#1"/><use xlink:href="#2" y="2.171"/><use xlink:href="#3" y="4.342"/><use xlink:href="#4" y="6.513"/></svg><svg x="2800"><use xlink:href="#a"/><use xlink:href="#b" x="-.004" y="10.83"/><use xlink:href="#1"/><use xlink:href="#2" y="2.171"/><use xlink:href="#3" y="4.342"/><use xlink:href="#4" y="6.513"/></svg><svg x="2940"><use xlink:href="#a"/><use xlink:href="#b" x="52.996" y="13.001"/><use xlink:href="#1"/><use xlink:href="#2" y="2.171"/><use xlink:href="#3" y="4.342"/><use xlink:href="#4" y="6.513"/><use xlink:href="#5" y="10.855"/><text x="33.066" y="14.696" class="g">Dload</text><text x="40.08" y="14.696" class="g">Upload</text><text x="49.098" y="14.696" class="g">Tota</text></svg><svg x="3080"><use xlink:href="#a"/><use xlink:href="#b" x="4.996" y="15.172"/><use xlink:href="#1"/><use xlink:href="#2" y="2.171"/><use xlink:href="#3" y="4.342"/><use xlink:href="#4" y="6.513"/><use xlink:href="#5" y="10.855"/><use xlink:href="#6" y="13.026"/><text x="2.004" y="16.867" class="g">0</text></svg><svg x="3220"><use xlink:href="#a"/><use xlink:href="#b" x="77.996" y="15.172"/><use xlink:href="#1"/><use xlink:href="#2" y="2.171"/><use xlink:href="#3" y="4.342"/><use xlink:href="#4" y="6.513"/><use xlink:href="#5" y="10.855"/><use xlink:href="#6" y="13.026"/><text x="2.004" y="16.867" class="g">0</text><text x="8.016" y="16.867" class="g">0</text><text x="13.026" y="16.867" class="g">0</text><text x="19.038" y="16.867" class="g">0</text><text x="24.048" y="16.867" class="g">0</text><text x="30.06" y="16.867" class="g">0</text><text x="37.074" y="16.867" class="g">0</text><text x="44.088" y="16.867" class="g">0</text><text x="46.092" y="16.867" class="g">--:--:--</text><text x="55.11" y="16.867" class="g">--:--:--</text><text x="64.128" y="16.867" class="g">--:--:--</text><text x="77.154" y="16.867" class="g">0</text></svg><svg x="3360"><use xlink:href="#a"/><use xlink:href="#b" x="-.004" y="17.343"/><use xlink:href="#1"/><use xlink:href="#2" y="2.171"/><use xlink:href="#3" y="4.342"/><use xlink:href="#4" y="6.513"/><use xlink:href="#5" y="10.855"/><use xlink:href="#6" y="13.026"/><use xlink:href="#7" y="15.197"/></svg><svg x="3500"><use xlink:href="#a"/><use xlink:href="#b" x="6.996" y="43.395"/><use xlink:href="#5" y="2.171"/><use xlink:href="#6" y="4.342"/><use xlink:href="#7" y="6.513"/><text y="10.354" class="i">{</text><text x="2.004" y="12.525" class="h">&quot;interceptors&quot;</text><text x="16.032" y="12.525" class="i">:</text><text x="18.036" y="12.525" class="i">[</text><text x="4.008" y="14.696" class="i">{</text><text x="6.012" y="16.867" class="h">&quot;name&quot;</text><text x="12.024" y="16.867" class="i">:</text><text x="14.028" y="16.867" class="f">&quot;crypto-shredding-encrypt&quot;</text><text x="40.08" y="16.867" class="i">,</text><text x="6.012" y="19.038" class="h">&quot;pluginClass&quot;</text><text x="19.038" y="19.038" class="i">:</text><text x="21.042" y="19.038" class="f">&quot;io.conduktor.gateway.interceptor.EncryptPlugin&quot;</text><text x="69.138" y="19.038" class="i">,</text><text x="6.012" y="21.209" class="h">&quot;apiKey&quot;</text><text x="14.028" y="21.209" class="i">:</text><text x="16.032" y="21.209" class="o">null</text><text x="20.04" y="21.209" class="i">,</text><text x="6.012" y="23.38" class="h">&quot;priority&quot;</text><text x="16.032" y="23.38" class="i">:</text><text x="18.036" y="23.38" class="j">100</text><text x="21.042" y="23.38" class="i">,</text><text x="6.012" y="25.551" class="h">&quot;timeoutMs&quot;</text><text x="17.034" y="25.551" class="i">:</text><text x="19.038" y="25.551" class="o">null</text><text x="23.046" y="25.551" class="i">,</text><text x="6.012" y="27.722" class="h">&quot;config&quot;</text><text x="14.028" y="27.722" class="i">:</text><text x="16.032" y="27.722" class="i">{</text><text x="8.016" y="29.893" class="h">&quot;topic&quot;</text><text x="15.03" y="29.893" class="i">:</text><text x="17.034" y="29.893" class="f">&quot;customers-shredding&quot;</text><text x="38.076" y="29.893" class="i">,</text><use xlink:href="#8" y="30.394"/><use xlink:href="#9" y="32.565"/><use xlink:href="#10" y="34.736"/><use xlink:href="#11" y="36.907"/><use xlink:href="#12" y="39.078"/><use xlink:href="#13" y="41.249"/></svg><svg x="3640"><use xlink:href="#a"/><use xlink:href="#b" x="-.004" y="43.395"/><use xlink:href="#8"/><use xlink:href="#9" y="2.171"/><use xlink:href="#10" y="4.342"/><use xlink:href="#11" y="6.513"/><use xlink:href="#12" y="8.684"/><use xlink:href="#13" y="10.855"/><text x="8.016" y="14.696" class="i">},</text><text x="8.016" y="16.867" class="h">&quot;fields&quot;</text><text x="16.032" y="16.867" class="i">:</text><text x="18.036" y="16.867" class="i">[</text><use xlink:href="#14" y="17.368"/><use xlink:href="#15" y="19.539"/><use xlink:href="#16" y="21.71"/><use xlink:href="#17" y="23.881"/><use xlink:href="#18" y="26.052"/><use xlink:href="#19" y="28.223"/><use xlink:href="#20" y="30.394"/><use xlink:href="#21" y="32.565"/><use xlink:href="#14" y="34.736"/><use xlink:href="#22" y="36.907"/><use xlink:href="#16" y="39.078"/><use xlink:href="#17" y="41.249"/></svg><svg x="3780"><use xlink:href="#a"/><use xlink:href="#b" x="-.004" y="43.395"/><use xlink:href="#14"/><use xlink:href="#15" y="2.171"/><use xlink:href="#16" y="4.342"/><use xlink:href="#17" y="6.513"/><use xlink:href="#18" y="8.684"/><use xlink:href="#19" y="10.855"/><use xlink:href="#20" y="13.026"/><use xlink:href="#21" y="15.197"/><use xlink:href="#14" y="17.368"/><use xlink:href="#22" y="19.539"/><use xlink:href="#16" y="21.71"/><use xlink:href="#17" y="23.881"/><use xlink:href="#18" y="26.052"/><use xlink:href="#19" y="28.223"/><use xlink:href="#20" y="30.394"/><use xlink:href="#13" y="32.565"/><use xlink:href="#23" y="34.736"/><use xlink:href="#24" y="36.907"/><use xlink:href="#25" y="39.078"/><use xlink:href="#26" y="41.249"/></svg><svg x="3920"><use xlink:href="#a"/><use xlink:href="#b" x="-.004" y="43.395"/><use xlink:href="#15"/><use xlink:href="#16" y="2.171"/><use xlink:href="#17" y="4.342"/><use xlink:href="#18" y="6.513"/><use xlink:href="#19" y="8.684"/><use xlink:href="#20" y="10.855"/><use xlink:href="#21" y="13.026"/><use xlink:href="#14" y="15.197"/><use xlink:href="#22" y="17.368"/><use xlink:href="#16" y="19.539"/><use xlink:href="#17" y="21.71"/><use xlink:href="#18" y="23.881"/><use xlink:href="#19" y="26.052"/><use xlink:href="#20" y="28.223"/><use xlink:href="#13" y="30.394"/><use xlink:href="#23" y="32.565"/><use xlink:href="#24" y="34.736"/><use xlink:href="#25" y="36.907"/><use xlink:href="#26" y="39.078"/><text y="42.919" class="i">}</text></svg></svg></g></g></svg></svg>