<svg xmlns="http://www.w3.org/2000/svg" xmlns:xlink="http://www.w3.org/1999/xlink" width="1440" height="103.42"><rect width="1440" height="103.42" rx="5" ry="5" class="a"/><svg y="0%" x="0%"><circle cx="20" cy="20" r="6" fill="#ff5f58"/><circle cx="40" cy="20" r="6" fill="#ffbd2e"/><circle cx="60" cy="20" r="6" fill="#18c132"/></svg><svg height="43.42" viewBox="0 0 140 4.342" width="1400" x="15" xmlns="http://www.w3.org/2000/svg" xmlns:xlink="http://www.w3.org/1999/xlink" y="50"><style>@keyframes i{0%{transform:translateX(0)}1.5%{transform:translateX(-140px)}1.9%{transform:translateX(-280px)}18.2%{transform:translateX(-420px)}26.2%{transform:translateX(-560px)}34.7%{transform:translateX(-700px)}42.8%{transform:translateX(-840px)}50.9%{transform:translateX(-980px)}59.2%{transform:translateX(-1120px)}67.6%{transform:translateX(-1260px)}75.6%{transform:translateX(-1400px)}83.6%{transform:translateX(-1540px)}91.7%{transform:translateX(-1680px)}to{transform:translateX(-1960px)}}.a{fill:#282d35}.f{fill:#fff;white-space:pre}</style><g font-family="Monaco,Consolas,Menlo,'Bitstream Vera Sans Mono','Powerline Symbols',monospace" font-size="1.67"><defs><symbol id="1"><text y="1.67" class="f">echo</text><text x="5.01" y="1.67" class="f">&gt;&gt;</text><text x="8.016" y="1.67" class="f">teamA-sa.properties</text></symbol><symbol id="2"><text y="1.67" class="f">echo</text><text x="5.01" y="1.67" class="f">&quot;client.id=naming-convention-for-this-application&quot;</text><text x="56.112" y="1.67" class="f">&gt;&gt;</text><text x="59.118" y="1.67" class="f">teamA-sa.properties</text></symbol><symbol id="a"><path fill="transparent" d="M0 0h140v3H0z"/></symbol><symbol id="b"><path fill="#6f7683" d="M0 0h1.102v2.171H0z"/></symbol></defs><path class="a" d="M0 0h140v4.342H0z"/><g style="animation-duration:1.135905s;animation-iteration-count:infinite;animation-name:i;animation-timing-function:steps(1,end)"><svg width="2100"><svg><use xlink:href="#a"/><use xlink:href="#b" x="-.004"/></svg><svg x="140"><use xlink:href="#a"/><use xlink:href="#b" x="-.004"/></svg><svg x="280"><use xlink:href="#a"/><use xlink:href="#b" x="9.996"/><text y="1.67" class="f">echo</text><text x="5.01" y="1.67" class="f">&gt;&gt;</text><text x="8.016" y="1.67" class="f">te</text></svg><svg x="420"><use xlink:href="#a"/><use xlink:href="#b" x="19.996"/><text y="1.67" class="f">echo</text><text x="5.01" y="1.67" class="f">&gt;&gt;</text><text x="8.016" y="1.67" class="f">teamA-sa.pro</text></svg><svg x="560"><use xlink:href="#a"/><use xlink:href="#b" x="29.996"/><use xlink:href="#1"/></svg><svg x="700"><use xlink:href="#a"/><use xlink:href="#b" x="7.996" y="2.146"/><use xlink:href="#1"/><text y="3.841" class="f">echo</text><text x="5.01" y="3.841" class="f">&quot;cl</text></svg><svg x="840"><use xlink:href="#a"/><use xlink:href="#b" x="17.996" y="2.146"/><use xlink:href="#1"/><text y="3.841" class="f">echo</text><text x="5.01" y="3.841" class="f">&quot;client.id=na</text></svg><svg x="980"><use xlink:href="#a"/><use xlink:href="#b" x="27.996" y="2.146"/><use xlink:href="#1"/><text y="3.841" class="f">echo</text><text x="5.01" y="3.841" class="f">&quot;client.id=naming-conve</text></svg><svg x="1120"><use xlink:href="#a"/><use xlink:href="#b" x="37.996" y="2.146"/><use xlink:href="#1"/><text y="3.841" class="f">echo</text><text x="5.01" y="3.841" class="f">&quot;client.id=naming-convention-for-</text></svg><svg x="1260"><use xlink:href="#a"/><use xlink:href="#b" x="47.996" y="2.146"/><use xlink:href="#1"/><text y="3.841" class="f">echo</text><text x="5.01" y="3.841" class="f">&quot;client.id=naming-convention-for-this-appli</text></svg><svg x="1400"><use xlink:href="#a"/><use xlink:href="#b" x="57.996" y="2.146"/><use xlink:href="#1"/><text y="3.841" class="f">echo</text><text x="5.01" y="3.841" class="f">&quot;client.id=naming-convention-for-this-application&quot;</text><text x="56.112" y="3.841" class="f">&gt;&gt;</text></svg><svg x="1540"><use xlink:href="#a"/><use xlink:href="#b" x="67.996" y="2.146"/><use xlink:href="#1"/><text y="3.841" class="f">echo</text><text x="5.01" y="3.841" class="f">&quot;client.id=naming-convention-for-this-application&quot;</text><text x="56.112" y="3.841" class="f">&gt;&gt;</text><text x="59.118" y="3.841" class="f">teamA-sa.</text></svg><svg x="1680"><use xlink:href="#a"/><use xlink:href="#b" x="77.996" y="2.146"/><use xlink:href="#1"/><use xlink:href="#2" y="2.171"/></svg><svg x="1820"><use xlink:href="#a"/><use xlink:href="#b" x="81.996" y="2.146"/><use xlink:href="#1"/><use xlink:href="#2" y="2.171"/></svg><svg x="1960"><use xlink:href="#a"/><use xlink:href="#b" x="-.004" y="4.317"/><use xlink:href="#1"/><use xlink:href="#2" y="2.171"/></svg></svg></g></g></svg></svg>