<svg xmlns="http://www.w3.org/2000/svg" xmlns:xlink="http://www.w3.org/1999/xlink" width="1440" height="429.07"><rect width="1440" height="429.07" rx="5" ry="5" class="a"/><svg y="0%" x="0%"><circle cx="20" cy="20" r="6" fill="#ff5f58"/><circle cx="40" cy="20" r="6" fill="#ffbd2e"/><circle cx="60" cy="20" r="6" fill="#18c132"/></svg><svg height="369.07" viewBox="0 0 140 36.907" width="1400" x="15" xmlns="http://www.w3.org/2000/svg" xmlns:xlink="http://www.w3.org/1999/xlink" y="50"><style>@keyframes i{0%{transform:translateX(0)}.7%{transform:translateX(-140px)}.9%{transform:translateX(-280px)}9.4%{transform:translateX(-420px)}13.6%{transform:translateX(-560px)}17.8%{transform:translateX(-700px)}22.1%{transform:translateX(-840px)}26.3%{transform:translateX(-980px)}30.5%{transform:translateX(-1120px)}34.8%{transform:translateX(-1260px)}39.1%{transform:translateX(-1400px)}43.3%{transform:translateX(-1540px)}47.7%{transform:translateX(-1680px)}52.2%{transform:translateX(-1820px)}56.5%{transform:translateX(-1960px)}60.9%{transform:translateX(-2100px)}69.3%{transform:translateX(-2240px)}73.7%{transform:translateX(-2380px)}78%{transform:translateX(-2520px)}82.3%{transform:translateX(-2660px)}82.4%{transform:translateX(-2800px)}to{transform:translateX(-2940px)}}.a{fill:#282d35}.f{fill:#fff;white-space:pre}.k{fill:#b9bfca;font-weight:700}.k,.l,.m,.n{white-space:pre}.l{fill:#71bef2;font-weight:700}.m,.n{fill:#a8cc8c}.n{fill:#b9bfca}</style><g font-family="Monaco,Consolas,Menlo,'Bitstream Vera Sans Mono','Powerline Symbols',monospace" font-size="1.67"><defs><symbol id="1"><text y="1.67" class="f">curl</text><text x="5.01" y="1.67" class="f">\</text></symbol><symbol id="2"><text x="4.008" y="1.67" class="f">--silent</text><text x="13.026" y="1.67" class="f">\</text></symbol><symbol id="3"><text x="4.008" y="1.67" class="f">--user</text><text x="11.022" y="1.67" class="f">&quot;admin:conduktor&quot;</text><text x="29.058" y="1.67" class="f">\</text></symbol><symbol id="4"><text x="4.008" y="1.67" class="f">--request</text><text x="14.028" y="1.67" class="f">POST</text><text x="19.038" y="1.67" class="f">&apos;http://localhost:8888/admin/vclusters/v1/vcluster/teamA/topics/concentrated-.%2A&apos;</text><text x="102.204" y="1.67" class="f">\</text></symbol><symbol id="5"><text x="4.008" y="1.67" class="f">--header</text><text x="13.026" y="1.67" class="f">&apos;Content-Type:</text><text x="28.056" y="1.67" class="f">application/json&apos;</text><text x="46.092" y="1.67" class="f">\</text></symbol><symbol id="6"><text x="4.008" y="1.67" class="f">--data-raw</text><text x="15.03" y="1.67" class="f">&apos;{</text></symbol><symbol id="7"><text x="8.016" y="1.67" class="f">&quot;physicalTopicName&quot;:</text><text x="29.058" y="1.67" class="f">&quot;hold-many-concentrated-topics&quot;,</text></symbol><symbol id="8"><text x="8.016" y="1.67" class="f">&quot;readOnly&quot;:</text><text x="20.04" y="1.67" class="f">false,</text></symbol><symbol id="9"><text x="8.016" y="1.67" class="f">&quot;concentrated&quot;:</text><text x="24.048" y="1.67" class="f">true</text></symbol><symbol id="10"><text x="4.008" y="1.67" class="f">}&apos;</text><text x="7.014" y="1.67" class="f">|</text><text x="9.018" y="1.67" class="f">jq</text></symbol><symbol id="a"><path fill="transparent" d="M0 0h140v18H0z"/></symbol><symbol id="b"><path fill="#6f7683" d="M0 0h1.102v2.171H0z"/></symbol></defs><path class="a" d="M0 0h140v36.907H0z"/><g style="animation-duration:2.172505s;animation-iteration-count:infinite;animation-name:i;animation-timing-function:steps(1,end)"><svg width="3080"><svg><use xlink:href="#a"/><use xlink:href="#b" x="-.004"/></svg><svg x="140"><use xlink:href="#a"/><use xlink:href="#b" x="-.004"/></svg><svg x="280"><use xlink:href="#a"/><use xlink:href="#b" x="12.996" y="2.146"/><use xlink:href="#1"/><text x="4.008" y="3.841" class="f">--silent</text></svg><svg x="420"><use xlink:href="#a"/><use xlink:href="#b" x="17.996" y="4.317"/><use xlink:href="#1"/><use xlink:href="#2" y="2.171"/><text x="4.008" y="6.012" class="f">--user</text><text x="11.022" y="6.012" class="f">&quot;admin:</text></svg><svg x="560"><use xlink:href="#a"/><use xlink:href="#b" x="6.996" y="6.488"/><use xlink:href="#1"/><use xlink:href="#2" y="2.171"/><use xlink:href="#3" y="4.342"/><text x="4.008" y="8.183" class="f">--r</text></svg><svg x="700"><use xlink:href="#a"/><use xlink:href="#b" x="26.996" y="6.488"/><use xlink:href="#1"/><use xlink:href="#2" y="2.171"/><use xlink:href="#3" y="4.342"/><text x="4.008" y="8.183" class="f">--request</text><text x="14.028" y="8.183" class="f">POST</text><text x="19.038" y="8.183" class="f">&apos;http://</text></svg><svg x="840"><use xlink:href="#a"/><use xlink:href="#b" x="46.996" y="6.488"/><use xlink:href="#1"/><use xlink:href="#2" y="2.171"/><use xlink:href="#3" y="4.342"/><text x="4.008" y="8.183" class="f">--request</text><text x="14.028" y="8.183" class="f">POST</text><text x="19.038" y="8.183" class="f">&apos;http://localhost:8888/admin</text></svg><svg x="980"><use xlink:href="#a"/><use xlink:href="#b" x="66.996" y="6.488"/><use xlink:href="#1"/><use xlink:href="#2" y="2.171"/><use xlink:href="#3" y="4.342"/><text x="4.008" y="8.183" class="f">--request</text><text x="14.028" y="8.183" class="f">POST</text><text x="19.038" y="8.183" class="f">&apos;http://localhost:8888/admin/vclusters/v1/vclust</text></svg><svg x="1120"><use xlink:href="#a"/><use xlink:href="#b" x="86.996" y="6.488"/><use xlink:href="#1"/><use xlink:href="#2" y="2.171"/><use xlink:href="#3" y="4.342"/><text x="4.008" y="8.183" class="f">--request</text><text x="14.028" y="8.183" class="f">POST</text><text x="19.038" y="8.183" class="f">&apos;http://localhost:8888/admin/vclusters/v1/vcluster/teamA/topics/conc</text></svg><svg x="1260"><use xlink:href="#a"/><use xlink:href="#b" x="2.996" y="8.659"/><use xlink:href="#1"/><use xlink:href="#2" y="2.171"/><use xlink:href="#3" y="4.342"/><use xlink:href="#4" y="6.513"/></svg><svg x="1400"><use xlink:href="#a"/><use xlink:href="#b" x="22.996" y="8.659"/><use xlink:href="#1"/><use xlink:href="#2" y="2.171"/><use xlink:href="#3" y="4.342"/><use xlink:href="#4" y="6.513"/><text x="4.008" y="10.354" class="f">--header</text><text x="13.026" y="10.354" class="f">&apos;Content-T</text></svg><svg x="1540"><use xlink:href="#a"/><use xlink:href="#b" x="42.996" y="8.659"/><use xlink:href="#1"/><use xlink:href="#2" y="2.171"/><use xlink:href="#3" y="4.342"/><use xlink:href="#4" y="6.513"/><text x="4.008" y="10.354" class="f">--header</text><text x="13.026" y="10.354" class="f">&apos;Content-Type:</text><text x="28.056" y="10.354" class="f">application/jso</text></svg><svg x="1680"><use xlink:href="#a"/><use xlink:href="#b" x="14.996" y="10.83"/><use xlink:href="#1"/><use xlink:href="#2" y="2.171"/><use xlink:href="#3" y="4.342"/><use xlink:href="#4" y="6.513"/><use xlink:href="#5" y="8.684"/><text x="4.008" y="12.525" class="f">--data-raw</text></svg><svg x="1820"><use xlink:href="#a"/><use xlink:href="#b" x="16.996" y="13.001"/><use xlink:href="#1"/><use xlink:href="#2" y="2.171"/><use xlink:href="#3" y="4.342"/><use xlink:href="#4" y="6.513"/><use xlink:href="#5" y="8.684"/><use xlink:href="#6" y="10.855"/><text x="8.016" y="14.696" class="f">&quot;physical</text></svg><svg x="1960"><use xlink:href="#a"/><use xlink:href="#b" x="36.996" y="13.001"/><use xlink:href="#1"/><use xlink:href="#2" y="2.171"/><use xlink:href="#3" y="4.342"/><use xlink:href="#4" y="6.513"/><use xlink:href="#5" y="8.684"/><use xlink:href="#6" y="10.855"/><text x="8.016" y="14.696" class="f">&quot;physicalTopicName&quot;:</text><text x="29.058" y="14.696" class="f">&quot;hold-ma</text></svg><svg x="2100"><use xlink:href="#a"/><use xlink:href="#b" x="56.996" y="13.001"/><use xlink:href="#1"/><use xlink:href="#2" y="2.171"/><use xlink:href="#3" y="4.342"/><use xlink:href="#4" y="6.513"/><use xlink:href="#5" y="8.684"/><use xlink:href="#6" y="10.855"/><text x="8.016" y="14.696" class="f">&quot;physicalTopicName&quot;:</text><text x="29.058" y="14.696" class="f">&quot;hold-many-concentrated-topi</text></svg><svg x="2240"><use xlink:href="#a"/><use xlink:href="#b" x="14.996" y="15.172"/><use xlink:href="#1"/><use xlink:href="#2" y="2.171"/><use xlink:href="#3" y="4.342"/><use xlink:href="#4" y="6.513"/><use xlink:href="#5" y="8.684"/><use xlink:href="#6" y="10.855"/><use xlink:href="#7" y="13.026"/><text x="8.016" y="16.867" class="f">&quot;readOn</text></svg><svg x="2380"><use xlink:href="#a"/><use xlink:href="#b" x="7.996" y="17.343"/><use xlink:href="#1"/><use xlink:href="#2" y="2.171"/><use xlink:href="#3" y="4.342"/><use xlink:href="#4" y="6.513"/><use xlink:href="#5" y="8.684"/><use xlink:href="#6" y="10.855"/><use xlink:href="#7" y="13.026"/><use xlink:href="#8" y="15.197"/></svg><svg x="2520"><use xlink:href="#a"/><use xlink:href="#b" x="27.996" y="17.343"/><use xlink:href="#1"/><use xlink:href="#2" y="2.171"/><use xlink:href="#3" y="4.342"/><use xlink:href="#4" y="6.513"/><use xlink:href="#5" y="8.684"/><use xlink:href="#6" y="10.855"/><use xlink:href="#7" y="13.026"/><use xlink:href="#8" y="15.197"/><use xlink:href="#9" y="17.368"/></svg><svg x="2660"><use xlink:href="#a"/><use xlink:href="#b" x="-.004" y="21.685"/><use xlink:href="#1"/><use xlink:href="#2" y="2.171"/><use xlink:href="#3" y="4.342"/><use xlink:href="#4" y="6.513"/><use xlink:href="#5" y="8.684"/><use xlink:href="#6" y="10.855"/><use xlink:href="#7" y="13.026"/><use xlink:href="#8" y="15.197"/><use xlink:href="#9" y="17.368"/><use xlink:href="#10" y="19.539"/></svg><svg x="2800"><use xlink:href="#a"/><use xlink:href="#b" x="-.004" y="23.856"/><use xlink:href="#1"/><use xlink:href="#2" y="2.171"/><use xlink:href="#3" y="4.342"/><use xlink:href="#4" y="6.513"/><use xlink:href="#5" y="8.684"/><use xlink:href="#6" y="10.855"/><use xlink:href="#7" y="13.026"/><use xlink:href="#8" y="15.197"/><use xlink:href="#9" y="17.368"/><use xlink:href="#10" y="19.539"/></svg><svg x="2940"><use xlink:href="#a"/><use xlink:href="#b" x="-.004" y="36.882"/><use xlink:href="#1"/><use xlink:href="#2" y="2.171"/><use xlink:href="#3" y="4.342"/><use xlink:href="#4" y="6.513"/><use xlink:href="#5" y="8.684"/><use xlink:href="#6" y="10.855"/><use xlink:href="#7" y="13.026"/><use xlink:href="#8" y="15.197"/><use xlink:href="#9" y="17.368"/><use xlink:href="#10" y="19.539"/><text y="25.551" class="k">{</text><text x="2.004" y="27.722" class="l">&quot;logicalTopicName&quot;</text><text x="20.04" y="27.722" class="k">:</text><text x="22.044" y="27.722" class="m">&quot;concentrated-.*&quot;</text><text x="39.078" y="27.722" class="k">,</text><text x="2.004" y="29.893" class="l">&quot;physicalTopicName&quot;</text><text x="21.042" y="29.893" class="k">:</text><text x="23.046" y="29.893" class="m">&quot;hold-many-concentrated-topics&quot;</text><text x="54.108" y="29.893" class="k">,</text><text x="2.004" y="32.064" class="l">&quot;readOnly&quot;</text><text x="12.024" y="32.064" class="k">:</text><text x="14.028" y="32.064" class="n">false</text><text x="19.038" y="32.064" class="k">,</text><text x="2.004" y="34.235" class="l">&quot;concentrated&quot;</text><text x="16.032" y="34.235" class="k">:</text><text x="18.036" y="34.235" class="n">true</text><text y="36.406" class="k">}</text></svg></svg></g></g></svg></svg>