<svg xmlns="http://www.w3.org/2000/svg" xmlns:xlink="http://www.w3.org/1999/xlink" width="1440" height="494.2"><rect width="1440" height="494.2" rx="5" ry="5" class="a"/><svg y="0%" x="0%"><circle cx="20" cy="20" r="6" fill="#ff5f58"/><circle cx="40" cy="20" r="6" fill="#ffbd2e"/><circle cx="60" cy="20" r="6" fill="#18c132"/></svg><svg height="434.2" viewBox="0 0 140 43.42" width="1400" x="15" xmlns="http://www.w3.org/2000/svg" xmlns:xlink="http://www.w3.org/1999/xlink" y="50"><style>@keyframes j{0%{transform:translateX(0)}.1%{transform:translateX(-280px)}1.8%{transform:translateX(-420px)}2.7%{transform:translateX(-560px)}3.5%{transform:translateX(-700px)}4.3%{transform:translateX(-840px)}6%{transform:translateX(-1820px)}23.3%{transform:translateX(-1960px)}37%{transform:translateX(-2100px)}50.7%{transform:translateX(-2240px)}62.6%{transform:translateX(-2380px)}76.2%{transform:translateX(-2520px)}88.1%{transform:translateX(-2660px)}to{transform:translateX(-2800px)}}.a{fill:#282d35}.f,.g{fill:#fff;white-space:pre}.g{fill:#b9c0cb}</style><g font-family="Monaco,Consolas,Menlo,'Bitstream Vera Sans Mono','Powerline Symbols',monospace" font-size="1.67"><defs><symbol id="1"><text y="1.67" class="f">kafka-topics</text><text x="13.026" y="1.67" class="f">\</text></symbol><symbol id="2"><text x="4.008" y="1.67" class="f">--bootstrap-server</text><text x="23.046" y="1.67" class="f">localhost:6969</text><text x="38.076" y="1.67" class="f">\</text></symbol><symbol id="3"><text x="4.008" y="1.67" class="f">--command-config</text><text x="21.042" y="1.67" class="f">teamA-sa.properties</text><text x="41.082" y="1.67" class="f">\</text></symbol><symbol id="4"><text x="4.008" y="1.67" class="f">--replication-factor</text><text x="25.05" y="1.67" class="f">1</text><text x="27.054" y="1.67" class="f">\</text></symbol><symbol id="5"><text x="4.008" y="1.67" class="f">--partitions</text><text x="17.034" y="1.67" class="f">1</text><text x="19.038" y="1.67" class="f">\</text></symbol><symbol id="6"><text x="4.008" y="1.67" class="f">--create</text><text x="13.026" y="1.67" class="f">--if-not-exists</text><text x="29.058" y="1.67" class="f">\</text></symbol><symbol id="7"><text x="4.008" y="1.67" class="f">--topic</text><text x="12.024" y="1.67" class="f">concentrated-normal</text></symbol><symbol id="8"><text x="4.008" y="1.67" class="f">--config</text><text x="13.026" y="1.67" class="f">cleanup.policy=delete</text><text x="35.07" y="1.67" class="f">\</text></symbol><symbol id="9"><text x="4.008" y="1.67" class="f">--topic</text><text x="12.024" y="1.67" class="f">concentrated-delete</text></symbol><symbol id="10"><text x="4.008" y="1.67" class="f">--config</text><text x="13.026" y="1.67" class="f">cleanup.policy=compact</text><text x="36.072" y="1.67" class="f">\</text></symbol><symbol id="11"><text x="4.008" y="1.67" class="f">--topic</text><text x="12.024" y="1.67" class="f">concentrated-compact</text></symbol><symbol id="12"><text x="4.008" y="1.67" class="f">--config</text><text x="13.026" y="1.67" class="f">cleanup.policy=delete,compact</text><text x="43.086" y="1.67" class="f">\</text></symbol><symbol id="13"><text x="4.008" y="1.67" class="f">--topic</text><text x="12.024" y="1.67" class="f">concentrated-delete-compact</text></symbol><symbol id="14"><text x="4.008" y="1.67" class="f">--config</text><text x="13.026" y="1.67" class="f">cleanup.policy=compact,delete</text><text x="43.086" y="1.67" class="f">\</text></symbol><symbol id="15"><text x="4.008" y="1.67" class="f">--topic</text><text x="12.024" y="1.67" class="f">concentrated-compact-delete</text></symbol><symbol id="16"><text x="4.008" y="1.67" class="f">--config</text><text x="13.026" y="1.67" class="f">retention.ms=10000</text><text x="32.064" y="1.67" class="f">\</text></symbol><symbol id="17"><text x="4.008" y="1.67" class="f">--topic</text><text x="12.024" y="1.67" class="f">concentrated-small-retention</text></symbol><symbol id="18"><text x="4.008" y="1.67" class="f">--config</text><text x="13.026" y="1.67" class="f">retention.ms=6048000000</text><text x="37.074" y="1.67" class="f">\</text></symbol><symbol id="19"><text x="4.008" y="1.67" class="f">--topic</text><text x="12.024" y="1.67" class="f">concentrated-large-retention</text></symbol><symbol id="20"><text y="1.67" class="g">Created</text><text x="8.016" y="1.67" class="g">topic</text><text x="14.028" y="1.67" class="g">concentrated-normal.</text></symbol><symbol id="21"><text y="1.67" class="g">Created</text><text x="8.016" y="1.67" class="g">topic</text><text x="14.028" y="1.67" class="g">concentrated-delete.</text></symbol><symbol id="22"><text y="1.67" class="g">Created</text><text x="8.016" y="1.67" class="g">topic</text><text x="14.028" y="1.67" class="g">concentrated-compact.</text></symbol><symbol id="23"><text y="1.67" class="g">Created</text><text x="8.016" y="1.67" class="g">topic</text><text x="14.028" y="1.67" class="g">concentrated-delete-compact.</text></symbol><symbol id="24"><text y="1.67" class="g">Created</text><text x="8.016" y="1.67" class="g">topic</text><text x="14.028" y="1.67" class="g">concentrated-compact-delete.</text></symbol><symbol id="25"><text y="1.67" class="g">Created</text><text x="8.016" y="1.67" class="g">topic</text><text x="14.028" y="1.67" class="g">concentrated-small-retention.</text></symbol><symbol id="a"><path fill="transparent" d="M0 0h140v21H0z"/></symbol><symbol id="b"><path fill="#6f7683" d="M0 0h1.102v2.171H0z"/></symbol></defs><path class="a" d="M0 0h140v43.42H0z"/><g style="animation-duration:11.580953999999998s;animation-iteration-count:infinite;animation-name:j;animation-timing-function:steps(1,end)"><svg width="2940"><svg><use xlink:href="#a"/><use xlink:href="#b" x="-.004"/></svg><svg x="140"><use xlink:href="#a"/><use xlink:href="#b" x="-.004"/></svg><svg x="280"><use xlink:href="#a"/><use xlink:href="#b" x="24.996" y="2.146"/><use xlink:href="#1"/><text x="4.008" y="3.841" class="f">--bootstrap-server</text><text x="23.046" y="3.841" class="f">lo</text></svg><svg x="420"><use xlink:href="#a"/><use xlink:href="#b" x="24.996" y="4.317"/><use xlink:href="#1"/><use xlink:href="#2" y="2.171"/><text x="4.008" y="6.012" class="f">--command-config</text><text x="21.042" y="6.012" class="f">team</text></svg><svg x="560"><use xlink:href="#a"/><use xlink:href="#b" x="21.996" y="6.488"/><use xlink:href="#1"/><use xlink:href="#2" y="2.171"/><use xlink:href="#3" y="4.342"/><text x="4.008" y="8.183" class="f">--replication-fact</text></svg><svg x="700"><use xlink:href="#a"/><use xlink:href="#b" x="11.996" y="10.83"/><use xlink:href="#1"/><use xlink:href="#2" y="2.171"/><use xlink:href="#3" y="4.342"/><use xlink:href="#4" y="6.513"/><use xlink:href="#5" y="8.684"/><text x="4.008" y="12.525" class="f">--create</text></svg><svg x="840"><use xlink:href="#a"/><use xlink:href="#b" x="20.996" y="13.001"/><use xlink:href="#1"/><use xlink:href="#2" y="2.171"/><use xlink:href="#3" y="4.342"/><use xlink:href="#4" y="6.513"/><use xlink:href="#5" y="8.684"/><use xlink:href="#6" y="10.855"/><text x="4.008" y="14.696" class="f">--topic</text><text x="12.024" y="14.696" class="f">concentra</text></svg><svg x="980"><use xlink:href="#a"/><use xlink:href="#b" x="5.996" y="34.711"/><use xlink:href="#1"/><use xlink:href="#2" y="2.171"/><use xlink:href="#3" y="4.342"/><use xlink:href="#4" y="6.513"/><use xlink:href="#5" y="8.684"/><use xlink:href="#6" y="10.855"/><use xlink:href="#7" y="13.026"/><use xlink:href="#1" y="15.197"/><use xlink:href="#2" y="17.368"/><use xlink:href="#3" y="19.539"/><use xlink:href="#4" y="21.71"/><use xlink:href="#5" y="23.881"/><use xlink:href="#8" y="26.052"/><use xlink:href="#6" y="28.223"/><use xlink:href="#9" y="30.394"/><use xlink:href="#1" y="32.565"/><text x="4.008" y="36.406" class="f">--</text></svg><svg x="1120"><use xlink:href="#a"/><use xlink:href="#b" x="35.996" y="43.395"/><use xlink:href="#5"/><use xlink:href="#6" y="2.171"/><use xlink:href="#7" y="4.342"/><use xlink:href="#1" y="6.513"/><use xlink:href="#2" y="8.684"/><use xlink:href="#3" y="10.855"/><use xlink:href="#4" y="13.026"/><use xlink:href="#5" y="15.197"/><use xlink:href="#8" y="17.368"/><use xlink:href="#6" y="19.539"/><use xlink:href="#9" y="21.71"/><use xlink:href="#1" y="23.881"/><use xlink:href="#2" y="26.052"/><use xlink:href="#3" y="28.223"/><use xlink:href="#4" y="30.394"/><use xlink:href="#5" y="32.565"/><use xlink:href="#10" y="34.736"/><use xlink:href="#6" y="36.907"/><use xlink:href="#11" y="39.078"/><use xlink:href="#1" y="41.249"/><text x="4.008" y="45.09" class="f">--bootstrap-server</text><text x="23.046" y="45.09" class="f">localhost:696</text></svg><svg x="1260"><use xlink:href="#a"/><use xlink:href="#b" x="11.996" y="43.395"/><use xlink:href="#6"/><use xlink:href="#9" y="2.171"/><use xlink:href="#1" y="4.342"/><use xlink:href="#2" y="6.513"/><use xlink:href="#3" y="8.684"/><use xlink:href="#4" y="10.855"/><use xlink:href="#5" y="13.026"/><use xlink:href="#10" y="15.197"/><use xlink:href="#6" y="17.368"/><use xlink:href="#11" y="19.539"/><use xlink:href="#1" y="21.71"/><use xlink:href="#2" y="23.881"/><use xlink:href="#3" y="26.052"/><use xlink:href="#4" y="28.223"/><use xlink:href="#5" y="30.394"/><use xlink:href="#12" y="32.565"/><use xlink:href="#6" y="34.736"/><use xlink:href="#13" y="36.907"/><use xlink:href="#1" y="39.078"/><use xlink:href="#2" y="41.249"/><text x="4.008" y="45.09" class="f">--comman</text></svg><svg x="1400"><use xlink:href="#a"/><use xlink:href="#b" x="27.996" y="43.395"/><use xlink:href="#6"/><use xlink:href="#11" y="2.171"/><use xlink:href="#1" y="4.342"/><use xlink:href="#2" y="6.513"/><use xlink:href="#3" y="8.684"/><use xlink:href="#4" y="10.855"/><use xlink:href="#5" y="13.026"/><use xlink:href="#12" y="15.197"/><use xlink:href="#6" y="17.368"/><use xlink:href="#13" y="19.539"/><use xlink:href="#1" y="21.71"/><use xlink:href="#2" y="23.881"/><use xlink:href="#3" y="26.052"/><use xlink:href="#4" y="28.223"/><use xlink:href="#5" y="30.394"/><use xlink:href="#14" y="32.565"/><use xlink:href="#6" y="34.736"/><use xlink:href="#15" y="36.907"/><use xlink:href="#1" y="39.078"/><use xlink:href="#2" y="41.249"/><text x="4.008" y="45.09" class="f">--command-config</text><text x="21.042" y="45.09" class="f">teamA-s</text></svg><svg x="1540"><use xlink:href="#a"/><use xlink:href="#b" x="10.996" y="43.395"/><use xlink:href="#13"/><use xlink:href="#1" y="2.171"/><use xlink:href="#2" y="4.342"/><use xlink:href="#3" y="6.513"/><use xlink:href="#4" y="8.684"/><use xlink:href="#5" y="10.855"/><use xlink:href="#14" y="13.026"/><use xlink:href="#6" y="15.197"/><use xlink:href="#15" y="17.368"/><use xlink:href="#1" y="19.539"/><use xlink:href="#2" y="21.71"/><use xlink:href="#3" y="23.881"/><use xlink:href="#4" y="26.052"/><use xlink:href="#5" y="28.223"/><use xlink:href="#16" y="30.394"/><use xlink:href="#6" y="32.565"/><use xlink:href="#17" y="34.736"/><use xlink:href="#1" y="36.907"/><use xlink:href="#2" y="39.078"/><use xlink:href="#3" y="41.249"/><text x="4.008" y="45.09" class="f">--repli</text></svg><svg x="1680"><use xlink:href="#a"/><use xlink:href="#b" x="-.004" y="43.395"/><use xlink:href="#5"/><use xlink:href="#14" y="2.171"/><use xlink:href="#6" y="4.342"/><use xlink:href="#15" y="6.513"/><use xlink:href="#1" y="8.684"/><use xlink:href="#2" y="10.855"/><use xlink:href="#3" y="13.026"/><use xlink:href="#4" y="15.197"/><use xlink:href="#5" y="17.368"/><use xlink:href="#16" y="19.539"/><use xlink:href="#6" y="21.71"/><use xlink:href="#17" y="23.881"/><use xlink:href="#1" y="26.052"/><use xlink:href="#2" y="28.223"/><use xlink:href="#3" y="30.394"/><use xlink:href="#4" y="32.565"/><use xlink:href="#5" y="34.736"/><use xlink:href="#18" y="36.907"/><use xlink:href="#6" y="39.078"/><use xlink:href="#19" y="41.249"/></svg><svg x="1820"><use xlink:href="#a"/><use xlink:href="#b" x="-.004" y="43.395"/><use xlink:href="#14"/><use xlink:href="#6" y="2.171"/><use xlink:href="#15" y="4.342"/><use xlink:href="#1" y="6.513"/><use xlink:href="#2" y="8.684"/><use xlink:href="#3" y="10.855"/><use xlink:href="#4" y="13.026"/><use xlink:href="#5" y="15.197"/><use xlink:href="#16" y="17.368"/><use xlink:href="#6" y="19.539"/><use xlink:href="#17" y="21.71"/><use xlink:href="#1" y="23.881"/><use xlink:href="#2" y="26.052"/><use xlink:href="#3" y="28.223"/><use xlink:href="#4" y="30.394"/><use xlink:href="#5" y="32.565"/><use xlink:href="#18" y="34.736"/><use xlink:href="#6" y="36.907"/><use xlink:href="#19" y="39.078"/></svg><svg x="1960"><use xlink:href="#a"/><use xlink:href="#b" x="-.004" y="43.395"/><use xlink:href="#6"/><use xlink:href="#15" y="2.171"/><use xlink:href="#1" y="4.342"/><use xlink:href="#2" y="6.513"/><use xlink:href="#3" y="8.684"/><use xlink:href="#4" y="10.855"/><use xlink:href="#5" y="13.026"/><use xlink:href="#16" y="15.197"/><use xlink:href="#6" y="17.368"/><use xlink:href="#17" y="19.539"/><use xlink:href="#1" y="21.71"/><use xlink:href="#2" y="23.881"/><use xlink:href="#3" y="26.052"/><use xlink:href="#4" y="28.223"/><use xlink:href="#5" y="30.394"/><use xlink:href="#18" y="32.565"/><use xlink:href="#6" y="34.736"/><use xlink:href="#19" y="36.907"/><use xlink:href="#20" y="41.249"/></svg><svg x="2100"><use xlink:href="#a"/><use xlink:href="#b" x="-.004" y="43.395"/><use xlink:href="#15"/><use xlink:href="#1" y="2.171"/><use xlink:href="#2" y="4.342"/><use xlink:href="#3" y="6.513"/><use xlink:href="#4" y="8.684"/><use xlink:href="#5" y="10.855"/><use xlink:href="#16" y="13.026"/><use xlink:href="#6" y="15.197"/><use xlink:href="#17" y="17.368"/><use xlink:href="#1" y="19.539"/><use xlink:href="#2" y="21.71"/><use xlink:href="#3" y="23.881"/><use xlink:href="#4" y="26.052"/><use xlink:href="#5" y="28.223"/><use xlink:href="#18" y="30.394"/><use xlink:href="#6" y="32.565"/><use xlink:href="#19" y="34.736"/><use xlink:href="#20" y="39.078"/><use xlink:href="#21" y="41.249"/></svg><svg x="2240"><use xlink:href="#a"/><use xlink:href="#b" x="-.004" y="43.395"/><use xlink:href="#1"/><use xlink:href="#2" y="2.171"/><use xlink:href="#3" y="4.342"/><use xlink:href="#4" y="6.513"/><use xlink:href="#5" y="8.684"/><use xlink:href="#16" y="10.855"/><use xlink:href="#6" y="13.026"/><use xlink:href="#17" y="15.197"/><use xlink:href="#1" y="17.368"/><use xlink:href="#2" y="19.539"/><use xlink:href="#3" y="21.71"/><use xlink:href="#4" y="23.881"/><use xlink:href="#5" y="26.052"/><use xlink:href="#18" y="28.223"/><use xlink:href="#6" y="30.394"/><use xlink:href="#19" y="32.565"/><use xlink:href="#20" y="36.907"/><use xlink:href="#21" y="39.078"/><use xlink:href="#22" y="41.249"/></svg><svg x="2380"><use xlink:href="#a"/><use xlink:href="#b" x="-.004" y="43.395"/><use xlink:href="#2"/><use xlink:href="#3" y="2.171"/><use xlink:href="#4" y="4.342"/><use xlink:href="#5" y="6.513"/><use xlink:href="#16" y="8.684"/><use xlink:href="#6" y="10.855"/><use xlink:href="#17" y="13.026"/><use xlink:href="#1" y="15.197"/><use xlink:href="#2" y="17.368"/><use xlink:href="#3" y="19.539"/><use xlink:href="#4" y="21.71"/><use xlink:href="#5" y="23.881"/><use xlink:href="#18" y="26.052"/><use xlink:href="#6" y="28.223"/><use xlink:href="#19" y="30.394"/><use xlink:href="#20" y="34.736"/><use xlink:href="#21" y="36.907"/><use xlink:href="#22" y="39.078"/><use xlink:href="#23" y="41.249"/></svg><svg x="2520"><use xlink:href="#a"/><use xlink:href="#b" x="-.004" y="43.395"/><use xlink:href="#3"/><use xlink:href="#4" y="2.171"/><use xlink:href="#5" y="4.342"/><use xlink:href="#16" y="6.513"/><use xlink:href="#6" y="8.684"/><use xlink:href="#17" y="10.855"/><use xlink:href="#1" y="13.026"/><use xlink:href="#2" y="15.197"/><use xlink:href="#3" y="17.368"/><use xlink:href="#4" y="19.539"/><use xlink:href="#5" y="21.71"/><use xlink:href="#18" y="23.881"/><use xlink:href="#6" y="26.052"/><use xlink:href="#19" y="28.223"/><use xlink:href="#20" y="32.565"/><use xlink:href="#21" y="34.736"/><use xlink:href="#22" y="36.907"/><use xlink:href="#23" y="39.078"/><use xlink:href="#24" y="41.249"/></svg><svg x="2660"><use xlink:href="#a"/><use xlink:href="#b" x="-.004" y="43.395"/><use xlink:href="#4"/><use xlink:href="#5" y="2.171"/><use xlink:href="#16" y="4.342"/><use xlink:href="#6" y="6.513"/><use xlink:href="#17" y="8.684"/><use xlink:href="#1" y="10.855"/><use xlink:href="#2" y="13.026"/><use xlink:href="#3" y="15.197"/><use xlink:href="#4" y="17.368"/><use xlink:href="#5" y="19.539"/><use xlink:href="#18" y="21.71"/><use xlink:href="#6" y="23.881"/><use xlink:href="#19" y="26.052"/><use xlink:href="#20" y="30.394"/><use xlink:href="#21" y="32.565"/><use xlink:href="#22" y="34.736"/><use xlink:href="#23" y="36.907"/><use xlink:href="#24" y="39.078"/><use xlink:href="#25" y="41.249"/></svg><svg x="2800"><use xlink:href="#a"/><use xlink:href="#b" x="-.004" y="43.395"/><use xlink:href="#5"/><use xlink:href="#16" y="2.171"/><use xlink:href="#6" y="4.342"/><use xlink:href="#17" y="6.513"/><use xlink:href="#1" y="8.684"/><use xlink:href="#2" y="10.855"/><use xlink:href="#3" y="13.026"/><use xlink:href="#4" y="15.197"/><use xlink:href="#5" y="17.368"/><use xlink:href="#18" y="19.539"/><use xlink:href="#6" y="21.71"/><use xlink:href="#19" y="23.881"/><use xlink:href="#20" y="28.223"/><use xlink:href="#21" y="30.394"/><use xlink:href="#22" y="32.565"/><use xlink:href="#23" y="34.736"/><use xlink:href="#24" y="36.907"/><use xlink:href="#25" y="39.078"/><text y="42.919" class="g">Created</text><text x="8.016" y="42.919" class="g">topic</text><text x="14.028" y="42.919" class="g">concentrated-large-retention.</text></svg></svg></g></g></svg></svg>