<svg xmlns="http://www.w3.org/2000/svg" xmlns:xlink="http://www.w3.org/1999/xlink" width="1440" height="494.2"><rect width="1440" height="494.2" rx="5" ry="5" class="a"/><svg y="0%" x="0%"><circle cx="20" cy="20" r="6" fill="#ff5f58"/><circle cx="40" cy="20" r="6" fill="#ffbd2e"/><circle cx="60" cy="20" r="6" fill="#18c132"/></svg><svg height="434.2" viewBox="0 0 140 43.42" width="1400" x="15" xmlns="http://www.w3.org/2000/svg" xmlns:xlink="http://www.w3.org/1999/xlink" y="50"><style>@keyframes l{0%{transform:translateX(0)}.8%{transform:translateX(-140px)}1.2%{transform:translateX(-280px)}7.9%{transform:translateX(-420px)}11.2%{transform:translateX(-560px)}14.8%{transform:translateX(-700px)}18.1%{transform:translateX(-840px)}21.4%{transform:translateX(-980px)}24.8%{transform:translateX(-1120px)}28.2%{transform:translateX(-1260px)}31.5%{transform:translateX(-1400px)}34.8%{transform:translateX(-1540px)}38.7%{transform:translateX(-1680px)}38.8%{transform:translateX(-1820px)}45.3%{transform:translateX(-2100px)}49%{transform:translateX(-2380px)}52.6%{transform:translateX(-2520px)}52.7%{transform:translateX(-2660px)}56.2%{transform:translateX(-3080px)}59.8%{transform:translateX(-3640px)}63.4%{transform:translateX(-3920px)}63.5%{transform:translateX(-4060px)}67.1%{transform:translateX(-4480px)}70.7%{transform:translateX(-4760px)}74.4%{transform:translateX(-5040px)}78%{transform:translateX(-5460px)}81.6%{transform:translateX(-5740px)}85.2%{transform:translateX(-6160px)}88.9%{transform:translateX(-6580px)}92.5%{transform:translateX(-7000px)}96.1%{transform:translateX(-7420px)}99.7%{transform:translateX(-7700px)}to{transform:translateX(-7980px)}}.a{fill:#282d35}.f,.g,.h,.i{fill:#fff;white-space:pre}.g,.h,.i{fill:#b9c0cb}.h,.i{fill:#a8cc8c}.i{fill:#71bef2}</style><g font-family="Monaco,Consolas,Menlo,'Bitstream Vera Sans Mono','Powerline Symbols',monospace" font-size="1.67"><defs><symbol id="1"><text y="1.67" class="f">docker</text><text x="7.014" y="1.67" class="f">compose</text><text x="15.03" y="1.67" class="f">up</text><text x="18.036" y="1.67" class="f">--detach</text><text x="27.054" y="1.67" class="f">--wait</text></symbol><symbol id="2"><text y="1.67" class="g">[+]</text><text x="4.008" y="1.67" class="g">Running</text><text x="12.024" y="1.67" class="g">8/0</text></symbol><symbol id="3"><text x="1.002" y="1.67" class="h">✔</text><text x="3.006" y="1.67" class="g">Container</text><text x="13.026" y="1.67" class="g">cli-kcat</text><text x="30.06" y="1.67" class="h">Running</text><text x="135.27" y="1.67" class="i">0.0s</text></symbol><symbol id="4"><text x="1.002" y="1.67" class="h">✔</text><text x="3.006" y="1.67" class="g">Container</text><text x="13.026" y="1.67" class="g">zookeeper</text><text x="30.06" y="1.67" class="h">Running</text><text x="135.27" y="1.67" class="i">0.0s</text></symbol><symbol id="5"><text x="1.002" y="1.67" class="h">✔</text><text x="3.006" y="1.67" class="g">Container</text><text x="13.026" y="1.67" class="g">kafka2</text><text x="30.06" y="1.67" class="h">Running</text><text x="135.27" y="1.67" class="i">0.0s</text></symbol><symbol id="6"><text x="1.002" y="1.67" class="h">✔</text><text x="3.006" y="1.67" class="g">Container</text><text x="13.026" y="1.67" class="g">kafka3</text><text x="30.06" y="1.67" class="h">Running</text><text x="135.27" y="1.67" class="i">0.0s</text></symbol><symbol id="7"><text x="1.002" y="1.67" class="h">✔</text><text x="3.006" y="1.67" class="g">Container</text><text x="13.026" y="1.67" class="g">kafka1</text><text x="30.06" y="1.67" class="h">Running</text><text x="135.27" y="1.67" class="i">0.0s</text></symbol><symbol id="8"><text x="1.002" y="1.67" class="h">✔</text><text x="3.006" y="1.67" class="g">Container</text><text x="13.026" y="1.67" class="g">gateway2</text><text x="30.06" y="1.67" class="h">Running</text><text x="135.27" y="1.67" class="i">0.0s</text></symbol><symbol id="9"><text x="1.002" y="1.67" class="h">✔</text><text x="3.006" y="1.67" class="g">Container</text><text x="13.026" y="1.67" class="g">schema-registry</text><text x="30.06" y="1.67" class="h">Running</text><text x="135.27" y="1.67" class="i">0.0s</text></symbol><symbol id="10"><text x="1.002" y="1.67" class="h">✔</text><text x="3.006" y="1.67" class="g">Container</text><text x="13.026" y="1.67" class="g">gateway1</text><text x="30.06" y="1.67" class="h">Running</text><text x="135.27" y="1.67" class="i">0.0s</text></symbol><symbol id="11"><text y="1.67" class="i">[+]</text><text x="4.008" y="1.67" class="i">Running</text><text x="12.024" y="1.67" class="i">8/8</text></symbol><symbol id="12"><text x="1.002" y="1.67" class="h">✔</text><text x="3.006" y="1.67" class="g">Container</text><text x="13.026" y="1.67" class="g">zookeeper</text><text x="30.06" y="1.67" class="h">Healthy</text><text x="135.27" y="1.67" class="i">0.0s</text></symbol><symbol id="13"><text x="1.002" y="1.67" class="h">✔</text><text x="3.006" y="1.67" class="g">Container</text><text x="13.026" y="1.67" class="g">kafka2</text><text x="30.06" y="1.67" class="h">Healthy</text><text x="135.27" y="1.67" class="i">0.0s</text></symbol><symbol id="14"><text x="1.002" y="1.67" class="h">✔</text><text x="3.006" y="1.67" class="g">Container</text><text x="13.026" y="1.67" class="g">kafka3</text><text x="30.06" y="1.67" class="h">Healthy</text><text x="135.27" y="1.67" class="i">0.0s</text></symbol><symbol id="15"><text x="1.002" y="1.67" class="h">✔</text><text x="3.006" y="1.67" class="g">Container</text><text x="13.026" y="1.67" class="g">kafka1</text><text x="30.06" y="1.67" class="h">Healthy</text><text x="135.27" y="1.67" class="i">0.0s</text></symbol><symbol id="16"><text x="1.002" y="1.67" class="h">✔</text><text x="3.006" y="1.67" class="g">Container</text><text x="13.026" y="1.67" class="g">cli-kcat</text><text x="30.06" y="1.67" class="h">Healthy</text><text x="135.27" y="1.67" class="i">0.0s</text></symbol><symbol id="a"><path fill="transparent" d="M0 0h140v21H0z"/></symbol><symbol id="b"><path fill="#6f7683" d="M0 0h1.102v2.171H0z"/></symbol></defs><path class="a" d="M0 0h140v43.42H0z"/><g style="animation-duration:2.756996s;animation-iteration-count:infinite;animation-name:l;animation-timing-function:steps(1,end)"><svg width="8120"><svg><use xlink:href="#a"/><use xlink:href="#b" x="-.004"/></svg><svg x="140"><use xlink:href="#a"/><use xlink:href="#b" x="-.004"/></svg><svg x="280"><use xlink:href="#a"/><use xlink:href="#b" x="2.996"/><text y="1.67" class="f">doc</text></svg><svg x="420"><use xlink:href="#a"/><use xlink:href="#b" x="5.996"/><text y="1.67" class="f">docker</text></svg><svg x="560"><use xlink:href="#a"/><use xlink:href="#b" x="8.996"/><text y="1.67" class="f">docker</text><text x="7.014" y="1.67" class="f">co</text></svg><svg x="700"><use xlink:href="#a"/><use xlink:href="#b" x="11.996"/><text y="1.67" class="f">docker</text><text x="7.014" y="1.67" class="f">compo</text></svg><svg x="840"><use xlink:href="#a"/><use xlink:href="#b" x="14.996"/><text y="1.67" class="f">docker</text><text x="7.014" y="1.67" class="f">compose</text></svg><svg x="980"><use xlink:href="#a"/><use xlink:href="#b" x="17.996"/><text y="1.67" class="f">docker</text><text x="7.014" y="1.67" class="f">compose</text><text x="15.03" y="1.67" class="f">up</text></svg><svg x="1120"><use xlink:href="#a"/><use xlink:href="#b" x="20.996"/><text y="1.67" class="f">docker</text><text x="7.014" y="1.67" class="f">compose</text><text x="15.03" y="1.67" class="f">up</text><text x="18.036" y="1.67" class="f">--d</text></svg><svg x="1260"><use xlink:href="#a"/><use xlink:href="#b" x="23.996"/><text y="1.67" class="f">docker</text><text x="7.014" y="1.67" class="f">compose</text><text x="15.03" y="1.67" class="f">up</text><text x="18.036" y="1.67" class="f">--deta</text></svg><svg x="1400"><use xlink:href="#a"/><use xlink:href="#b" x="26.996"/><text y="1.67" class="f">docker</text><text x="7.014" y="1.67" class="f">compose</text><text x="15.03" y="1.67" class="f">up</text><text x="18.036" y="1.67" class="f">--detach</text></svg><svg x="1540"><use xlink:href="#a"/><use xlink:href="#b" x="29.996"/><text y="1.67" class="f">docker</text><text x="7.014" y="1.67" class="f">compose</text><text x="15.03" y="1.67" class="f">up</text><text x="18.036" y="1.67" class="f">--detach</text><text x="27.054" y="1.67" class="f">--w</text></svg><svg x="1680"><use xlink:href="#a"/><use xlink:href="#b" x="32.996"/><use xlink:href="#1"/></svg><svg x="1820"><use xlink:href="#a"/><use xlink:href="#b" x="-.004" y="2.146"/><use xlink:href="#1"/></svg><svg x="1960"><use xlink:href="#a"/><use xlink:href="#1"/><use xlink:href="#2" y="2.171"/><use xlink:href="#3" y="4.342"/><use xlink:href="#4" y="6.513"/><use xlink:href="#5" y="8.684"/><use xlink:href="#6" y="10.855"/><use xlink:href="#7" y="13.026"/><text x="1.002" y="16.867" class="h">✔</text><text x="3.006" y="16.867" class="g">Container</text><text x="13.026" y="16.867" class="g">gateway2</text><text x="30.06" y="16.867" class="h">Running</text></svg><svg x="2100"><use xlink:href="#a"/><use xlink:href="#b" x="-.004" y="21.685"/><use xlink:href="#1"/><use xlink:href="#2" y="2.171"/><use xlink:href="#3" y="4.342"/><use xlink:href="#4" y="6.513"/><use xlink:href="#5" y="8.684"/><use xlink:href="#6" y="10.855"/><use xlink:href="#7" y="13.026"/><use xlink:href="#8" y="15.197"/><use xlink:href="#9" y="17.368"/><use xlink:href="#10" y="19.539"/></svg><svg x="2240"><use xlink:href="#a"/><use xlink:href="#1"/><use xlink:href="#11" y="2.171"/><use xlink:href="#3" y="4.342"/><use xlink:href="#4" y="6.513"/><use xlink:href="#5" y="8.684"/><use xlink:href="#6" y="10.855"/><use xlink:href="#7" y="13.026"/><use xlink:href="#8" y="15.197"/><use xlink:href="#9" y="17.368"/><use xlink:href="#10" y="19.539"/></svg><svg x="2380"><use xlink:href="#a"/><use xlink:href="#b" x="-.004" y="21.685"/><use xlink:href="#1"/><use xlink:href="#11" y="2.171"/><use xlink:href="#3" y="4.342"/><use xlink:href="#4" y="6.513"/><use xlink:href="#5" y="8.684"/><use xlink:href="#6" y="10.855"/><use xlink:href="#7" y="13.026"/><use xlink:href="#8" y="15.197"/><use xlink:href="#9" y="17.368"/><use xlink:href="#10" y="19.539"/></svg><svg x="2520"><use xlink:href="#a"/><use xlink:href="#1"/><use xlink:href="#11" y="2.171"/><use xlink:href="#3" y="4.342"/><use xlink:href="#4" y="6.513"/><use xlink:href="#5" y="8.684"/><use xlink:href="#6" y="10.855"/><use xlink:href="#7" y="13.026"/><use xlink:href="#8" y="15.197"/><use xlink:href="#9" y="17.368"/><use xlink:href="#10" y="19.539"/></svg><svg x="2660"><use xlink:href="#a"/><use xlink:href="#b" x="-.004" y="21.685"/><use xlink:href="#1"/><use xlink:href="#11" y="2.171"/><use xlink:href="#3" y="4.342"/><use xlink:href="#4" y="6.513"/><use xlink:href="#5" y="8.684"/><use xlink:href="#6" y="10.855"/><use xlink:href="#7" y="13.026"/><use xlink:href="#8" y="15.197"/><use xlink:href="#9" y="17.368"/><use xlink:href="#10" y="19.539"/></svg><svg x="2800"><use xlink:href="#a"/><use xlink:href="#1"/><use xlink:href="#11" y="2.171"/><use xlink:href="#3" y="4.342"/><use xlink:href="#4" y="6.513"/><use xlink:href="#5" y="8.684"/><use xlink:href="#6" y="10.855"/><use xlink:href="#7" y="13.026"/><use xlink:href="#8" y="15.197"/><use xlink:href="#9" y="17.368"/><use xlink:href="#10" y="19.539"/></svg><svg x="2940"><use xlink:href="#a"/><use xlink:href="#1"/><use xlink:href="#11" y="2.171"/><use xlink:href="#3" y="4.342"/><use xlink:href="#4" y="6.513"/><use xlink:href="#5" y="8.684"/><use xlink:href="#6" y="10.855"/><use xlink:href="#7" y="13.026"/><use xlink:href="#8" y="15.197"/><use xlink:href="#9" y="17.368"/><use xlink:href="#10" y="19.539"/></svg><svg x="3080"><use xlink:href="#a"/><use xlink:href="#b" x="-.004" y="21.685"/><use xlink:href="#1"/><use xlink:href="#11" y="2.171"/><use xlink:href="#3" y="4.342"/><use xlink:href="#4" y="6.513"/><use xlink:href="#5" y="8.684"/><use xlink:href="#6" y="10.855"/><use xlink:href="#7" y="13.026"/><use xlink:href="#8" y="15.197"/><use xlink:href="#9" y="17.368"/><use xlink:href="#10" y="19.539"/></svg><svg x="3220"><use xlink:href="#a"/><use xlink:href="#1"/><use xlink:href="#11" y="2.171"/><use xlink:href="#3" y="4.342"/><use xlink:href="#4" y="6.513"/><use xlink:href="#5" y="8.684"/><use xlink:href="#6" y="10.855"/><use xlink:href="#7" y="13.026"/><use xlink:href="#8" y="15.197"/><use xlink:href="#9" y="17.368"/><use xlink:href="#10" y="19.539"/></svg><svg x="3360"><use xlink:href="#a"/><use xlink:href="#1"/><use xlink:href="#11" y="2.171"/><use xlink:href="#3" y="4.342"/><use xlink:href="#4" y="6.513"/><use xlink:href="#5" y="8.684"/><use xlink:href="#6" y="10.855"/><use xlink:href="#7" y="13.026"/><use xlink:href="#8" y="15.197"/><use xlink:href="#9" y="17.368"/><use xlink:href="#10" y="19.539"/></svg><svg x="3500"><use xlink:href="#a"/><use xlink:href="#1"/><use xlink:href="#11" y="2.171"/><use xlink:href="#3" y="4.342"/><use xlink:href="#4" y="6.513"/><use xlink:href="#5" y="8.684"/><use xlink:href="#6" y="10.855"/><use xlink:href="#7" y="13.026"/><use xlink:href="#8" y="15.197"/><use xlink:href="#9" y="17.368"/><use xlink:href="#10" y="19.539"/></svg><svg x="3640"><use xlink:href="#a"/><use xlink:href="#b" x="-.004" y="21.685"/><use xlink:href="#1"/><use xlink:href="#11" y="2.171"/><use xlink:href="#3" y="4.342"/><use xlink:href="#4" y="6.513"/><use xlink:href="#5" y="8.684"/><use xlink:href="#6" y="10.855"/><use xlink:href="#7" y="13.026"/><use xlink:href="#8" y="15.197"/><use xlink:href="#9" y="17.368"/><use xlink:href="#10" y="19.539"/></svg><svg x="3780"><use xlink:href="#a"/><use xlink:href="#1"/><use xlink:href="#11" y="2.171"/><use xlink:href="#3" y="4.342"/><use xlink:href="#4" y="6.513"/><use xlink:href="#5" y="8.684"/><use xlink:href="#6" y="10.855"/><use xlink:href="#7" y="13.026"/><use xlink:href="#8" y="15.197"/><use xlink:href="#9" y="17.368"/><use xlink:href="#10" y="19.539"/></svg><svg x="3920"><use xlink:href="#a"/><use xlink:href="#1"/><use xlink:href="#11" y="2.171"/><use xlink:href="#3" y="4.342"/><use xlink:href="#12" y="6.513"/><use xlink:href="#5" y="8.684"/><use xlink:href="#6" y="10.855"/><use xlink:href="#7" y="13.026"/><use xlink:href="#8" y="15.197"/><use xlink:href="#9" y="17.368"/><use xlink:href="#10" y="19.539"/></svg><svg x="4060"><use xlink:href="#a"/><use xlink:href="#b" x="-.004" y="21.685"/><use xlink:href="#1"/><use xlink:href="#11" y="2.171"/><use xlink:href="#3" y="4.342"/><use xlink:href="#12" y="6.513"/><use xlink:href="#5" y="8.684"/><use xlink:href="#6" y="10.855"/><use xlink:href="#7" y="13.026"/><use xlink:href="#8" y="15.197"/><use xlink:href="#9" y="17.368"/><use xlink:href="#10" y="19.539"/></svg><svg x="4200"><use xlink:href="#a"/><use xlink:href="#1"/><use xlink:href="#11" y="2.171"/><use xlink:href="#3" y="4.342"/><use xlink:href="#12" y="6.513"/><use xlink:href="#5" y="8.684"/><use xlink:href="#6" y="10.855"/><use xlink:href="#7" y="13.026"/><use xlink:href="#8" y="15.197"/><use xlink:href="#9" y="17.368"/><use xlink:href="#10" y="19.539"/></svg><svg x="4340"><use xlink:href="#a"/><use xlink:href="#1"/><use xlink:href="#11" y="2.171"/><use xlink:href="#3" y="4.342"/><use xlink:href="#12" y="6.513"/><use xlink:href="#5" y="8.684"/><use xlink:href="#6" y="10.855"/><use xlink:href="#7" y="13.026"/><use xlink:href="#8" y="15.197"/><use xlink:href="#9" y="17.368"/><use xlink:href="#10" y="19.539"/></svg><svg x="4480"><use xlink:href="#a"/><use xlink:href="#b" x="-.004" y="21.685"/><use xlink:href="#1"/><use xlink:href="#11" y="2.171"/><use xlink:href="#3" y="4.342"/><use xlink:href="#12" y="6.513"/><use xlink:href="#5" y="8.684"/><use xlink:href="#6" y="10.855"/><use xlink:href="#7" y="13.026"/><use xlink:href="#8" y="15.197"/><use xlink:href="#9" y="17.368"/><use xlink:href="#10" y="19.539"/></svg><svg x="4620"><use xlink:href="#a"/><use xlink:href="#1"/><use xlink:href="#11" y="2.171"/><use xlink:href="#3" y="4.342"/><use xlink:href="#12" y="6.513"/><use xlink:href="#5" y="8.684"/><use xlink:href="#6" y="10.855"/><use xlink:href="#7" y="13.026"/><use xlink:href="#8" y="15.197"/><use xlink:href="#9" y="17.368"/><use xlink:href="#10" y="19.539"/></svg><svg x="4760"><use xlink:href="#a"/><use xlink:href="#b" x="-.004" y="21.685"/><use xlink:href="#1"/><use xlink:href="#11" y="2.171"/><use xlink:href="#3" y="4.342"/><use xlink:href="#12" y="6.513"/><use xlink:href="#5" y="8.684"/><use xlink:href="#6" y="10.855"/><use xlink:href="#7" y="13.026"/><use xlink:href="#8" y="15.197"/><use xlink:href="#9" y="17.368"/><use xlink:href="#10" y="19.539"/></svg><svg x="4900"><use xlink:href="#a"/><use xlink:href="#1"/><use xlink:href="#11" y="2.171"/><use xlink:href="#3" y="4.342"/><use xlink:href="#12" y="6.513"/><use xlink:href="#5" y="8.684"/><use xlink:href="#6" y="10.855"/><use xlink:href="#7" y="13.026"/><use xlink:href="#8" y="15.197"/><use xlink:href="#9" y="17.368"/><use xlink:href="#10" y="19.539"/></svg><svg x="5040"><use xlink:href="#a"/><use xlink:href="#b" x="-.004" y="21.685"/><use xlink:href="#1"/><use xlink:href="#11" y="2.171"/><use xlink:href="#3" y="4.342"/><use xlink:href="#12" y="6.513"/><use xlink:href="#5" y="8.684"/><use xlink:href="#6" y="10.855"/><use xlink:href="#7" y="13.026"/><use xlink:href="#8" y="15.197"/><use xlink:href="#9" y="17.368"/><use xlink:href="#10" y="19.539"/></svg><svg x="5180"><use xlink:href="#a"/><use xlink:href="#1"/><use xlink:href="#11" y="2.171"/><use xlink:href="#3" y="4.342"/><use xlink:href="#12" y="6.513"/><use xlink:href="#5" y="8.684"/><use xlink:href="#6" y="10.855"/><use xlink:href="#7" y="13.026"/><use xlink:href="#8" y="15.197"/><use xlink:href="#9" y="17.368"/><use xlink:href="#10" y="19.539"/></svg><svg x="5320"><use xlink:href="#a"/><use xlink:href="#1"/><use xlink:href="#11" y="2.171"/><use xlink:href="#3" y="4.342"/><use xlink:href="#12" y="6.513"/><use xlink:href="#5" y="8.684"/><use xlink:href="#6" y="10.855"/><use xlink:href="#7" y="13.026"/><use xlink:href="#8" y="15.197"/><use xlink:href="#9" y="17.368"/><use xlink:href="#10" y="19.539"/></svg><svg x="5460"><use xlink:href="#a"/><use xlink:href="#b" x="-.004" y="21.685"/><use xlink:href="#1"/><use xlink:href="#11" y="2.171"/><use xlink:href="#3" y="4.342"/><use xlink:href="#12" y="6.513"/><use xlink:href="#5" y="8.684"/><use xlink:href="#6" y="10.855"/><use xlink:href="#7" y="13.026"/><use xlink:href="#8" y="15.197"/><use xlink:href="#9" y="17.368"/><use xlink:href="#10" y="19.539"/></svg><svg x="5600"><use xlink:href="#a"/><use xlink:href="#1"/><use xlink:href="#11" y="2.171"/><use xlink:href="#3" y="4.342"/><use xlink:href="#12" y="6.513"/><use xlink:href="#13" y="8.684"/><use xlink:href="#6" y="10.855"/><use xlink:href="#7" y="13.026"/><use xlink:href="#8" y="15.197"/><use xlink:href="#9" y="17.368"/><use xlink:href="#10" y="19.539"/></svg><svg x="5740"><use xlink:href="#a"/><use xlink:href="#b" x="-.004" y="21.685"/><use xlink:href="#1"/><use xlink:href="#11" y="2.171"/><use xlink:href="#3" y="4.342"/><use xlink:href="#12" y="6.513"/><use xlink:href="#13" y="8.684"/><use xlink:href="#14" y="10.855"/><use xlink:href="#15" y="13.026"/><use xlink:href="#8" y="15.197"/><use xlink:href="#9" y="17.368"/><use xlink:href="#10" y="19.539"/></svg><svg x="5880"><use xlink:href="#a"/><use xlink:href="#1"/><use xlink:href="#11" y="2.171"/><use xlink:href="#3" y="4.342"/><use xlink:href="#12" y="6.513"/><use xlink:href="#13" y="8.684"/><use xlink:href="#14" y="10.855"/><use xlink:href="#15" y="13.026"/><use xlink:href="#8" y="15.197"/><use xlink:href="#9" y="17.368"/><use xlink:href="#10" y="19.539"/></svg><svg x="6020"><use xlink:href="#a"/><use xlink:href="#1"/><use xlink:href="#11" y="2.171"/><use xlink:href="#3" y="4.342"/><use xlink:href="#12" y="6.513"/><use xlink:href="#13" y="8.684"/><use xlink:href="#14" y="10.855"/><use xlink:href="#15" y="13.026"/><use xlink:href="#8" y="15.197"/><use xlink:href="#9" y="17.368"/><use xlink:href="#10" y="19.539"/></svg><svg x="6160"><use xlink:href="#a"/><use xlink:href="#b" x="-.004" y="21.685"/><use xlink:href="#1"/><use xlink:href="#11" y="2.171"/><use xlink:href="#3" y="4.342"/><use xlink:href="#12" y="6.513"/><use xlink:href="#13" y="8.684"/><use xlink:href="#14" y="10.855"/><use xlink:href="#15" y="13.026"/><use xlink:href="#8" y="15.197"/><use xlink:href="#9" y="17.368"/><use xlink:href="#10" y="19.539"/></svg><svg x="6300"><use xlink:href="#a"/><use xlink:href="#1"/><use xlink:href="#11" y="2.171"/><use xlink:href="#3" y="4.342"/><use xlink:href="#12" y="6.513"/><use xlink:href="#13" y="8.684"/><use xlink:href="#14" y="10.855"/><use xlink:href="#15" y="13.026"/><use xlink:href="#8" y="15.197"/><use xlink:href="#9" y="17.368"/><use xlink:href="#10" y="19.539"/></svg><svg x="6440"><use xlink:href="#a"/><use xlink:href="#1"/><use xlink:href="#11" y="2.171"/><use xlink:href="#3" y="4.342"/><use xlink:href="#12" y="6.513"/><use xlink:href="#13" y="8.684"/><use xlink:href="#14" y="10.855"/><use xlink:href="#15" y="13.026"/><use xlink:href="#8" y="15.197"/><use xlink:href="#9" y="17.368"/><use xlink:href="#10" y="19.539"/></svg><svg x="6580"><use xlink:href="#a"/><use xlink:href="#b" x="-.004" y="21.685"/><use xlink:href="#1"/><use xlink:href="#11" y="2.171"/><use xlink:href="#3" y="4.342"/><use xlink:href="#12" y="6.513"/><use xlink:href="#13" y="8.684"/><use xlink:href="#14" y="10.855"/><use xlink:href="#15" y="13.026"/><use xlink:href="#8" y="15.197"/><use xlink:href="#9" y="17.368"/><use xlink:href="#10" y="19.539"/></svg><svg x="6720"><use xlink:href="#a"/><use xlink:href="#1"/><use xlink:href="#11" y="2.171"/><use xlink:href="#3" y="4.342"/><use xlink:href="#12" y="6.513"/><use xlink:href="#13" y="8.684"/><use xlink:href="#14" y="10.855"/><use xlink:href="#15" y="13.026"/><use xlink:href="#8" y="15.197"/><use xlink:href="#9" y="17.368"/><use xlink:href="#10" y="19.539"/></svg><svg x="6860"><use xlink:href="#a"/><use xlink:href="#1"/><use xlink:href="#11" y="2.171"/><use xlink:href="#3" y="4.342"/><use xlink:href="#12" y="6.513"/><use xlink:href="#13" y="8.684"/><use xlink:href="#14" y="10.855"/><use xlink:href="#15" y="13.026"/><use xlink:href="#8" y="15.197"/><use xlink:href="#9" y="17.368"/><use xlink:href="#10" y="19.539"/></svg><svg x="7000"><use xlink:href="#a"/><use xlink:href="#b" x="-.004" y="21.685"/><use xlink:href="#1"/><use xlink:href="#11" y="2.171"/><use xlink:href="#3" y="4.342"/><use xlink:href="#12" y="6.513"/><use xlink:href="#13" y="8.684"/><use xlink:href="#14" y="10.855"/><use xlink:href="#15" y="13.026"/><use xlink:href="#8" y="15.197"/><use xlink:href="#9" y="17.368"/><use xlink:href="#10" y="19.539"/></svg><svg x="7140"><use xlink:href="#a"/><use xlink:href="#1"/><use xlink:href="#11" y="2.171"/><use xlink:href="#3" y="4.342"/><use xlink:href="#12" y="6.513"/><use xlink:href="#13" y="8.684"/><use xlink:href="#14" y="10.855"/><use xlink:href="#15" y="13.026"/><use xlink:href="#8" y="15.197"/><use xlink:href="#9" y="17.368"/><use xlink:href="#10" y="19.539"/></svg><svg x="7280"><use xlink:href="#a"/><use xlink:href="#1"/><use xlink:href="#11" y="2.171"/><use xlink:href="#3" y="4.342"/><use xlink:href="#12" y="6.513"/><use xlink:href="#13" y="8.684"/><use xlink:href="#14" y="10.855"/><use xlink:href="#15" y="13.026"/><use xlink:href="#8" y="15.197"/><use xlink:href="#9" y="17.368"/><use xlink:href="#10" y="19.539"/></svg><svg x="7420"><use xlink:href="#a"/><use xlink:href="#b" x="-.004" y="21.685"/><use xlink:href="#1"/><use xlink:href="#11" y="2.171"/><use xlink:href="#3" y="4.342"/><use xlink:href="#12" y="6.513"/><use xlink:href="#13" y="8.684"/><use xlink:href="#14" y="10.855"/><use xlink:href="#15" y="13.026"/><use xlink:href="#8" y="15.197"/><use xlink:href="#9" y="17.368"/><use xlink:href="#10" y="19.539"/></svg><svg x="7560"><use xlink:href="#a"/><use xlink:href="#1"/><use xlink:href="#11" y="2.171"/><use xlink:href="#3" y="4.342"/><use xlink:href="#12" y="6.513"/><use xlink:href="#13" y="8.684"/><use xlink:href="#14" y="10.855"/><use xlink:href="#15" y="13.026"/><use xlink:href="#8" y="15.197"/><use xlink:href="#9" y="17.368"/><use xlink:href="#10" y="19.539"/></svg><svg x="7700"><use xlink:href="#a"/><use xlink:href="#b" x="-.004" y="21.685"/><use xlink:href="#1"/><use xlink:href="#11" y="2.171"/><use xlink:href="#3" y="4.342"/><use xlink:href="#12" y="6.513"/><use xlink:href="#13" y="8.684"/><use xlink:href="#14" y="10.855"/><use xlink:href="#15" y="13.026"/><use xlink:href="#8" y="15.197"/><use xlink:href="#9" y="17.368"/><use xlink:href="#10" y="19.539"/></svg><svg x="7840"><use xlink:href="#a"/><use xlink:href="#1"/><use xlink:href="#11" y="2.171"/><use xlink:href="#16" y="4.342"/><use xlink:href="#12" y="6.513"/><use xlink:href="#13" y="8.684"/><use xlink:href="#14" y="10.855"/><use xlink:href="#15" y="13.026"/><use xlink:href="#8" y="15.197"/><use xlink:href="#9" y="17.368"/><use xlink:href="#10" y="19.539"/></svg><svg x="7980"><use xlink:href="#a"/><use xlink:href="#b" x="-.004" y="21.685"/><use xlink:href="#1"/><use xlink:href="#11" y="2.171"/><use xlink:href="#16" y="4.342"/><use xlink:href="#12" y="6.513"/><use xlink:href="#13" y="8.684"/><use xlink:href="#14" y="10.855"/><use xlink:href="#15" y="13.026"/><text x="1.002" y="16.867" class="h">✔</text><text x="3.006" y="16.867" class="g">Container</text><text x="13.026" y="16.867" class="g">gateway2</text><text x="30.06" y="16.867" class="h">Healthy</text><text x="135.27" y="16.867" class="i">0.0s</text><text x="1.002" y="19.038" class="h">✔</text><text x="3.006" y="19.038" class="g">Container</text><text x="13.026" y="19.038" class="g">schema-registry</text><text x="30.06" y="19.038" class="h">Healthy</text><text x="135.27" y="19.038" class="i">0.0s</text><text x="1.002" y="21.209" class="h">✔</text><text x="3.006" y="21.209" class="g">Container</text><text x="13.026" y="21.209" class="g">gateway1</text><text x="30.06" y="21.209" class="h">Healthy</text><text x="135.27" y="21.209" class="i">0.0s</text></svg></svg></g></g></svg></svg>