<svg xmlns="http://www.w3.org/2000/svg" xmlns:xlink="http://www.w3.org/1999/xlink" width="1440" height="429.07"><rect width="1440" height="429.07" rx="5" ry="5" class="a"/><svg y="0%" x="0%"><circle cx="20" cy="20" r="6" fill="#ff5f58"/><circle cx="40" cy="20" r="6" fill="#ffbd2e"/><circle cx="60" cy="20" r="6" fill="#18c132"/></svg><svg height="369.07" viewBox="0 0 140 36.907" width="1400" x="15" xmlns="http://www.w3.org/2000/svg" xmlns:xlink="http://www.w3.org/1999/xlink" y="50"><style>@keyframes j{0%{transform:translateX(0)}.2%{transform:translateX(-280px)}2.4%{transform:translateX(-420px)}4.6%{transform:translateX(-560px)}6.7%{transform:translateX(-700px)}10.7%{transform:translateX(-840px)}12.9%{transform:translateX(-980px)}15%{transform:translateX(-1120px)}17.1%{transform:translateX(-1260px)}19.2%{transform:translateX(-1400px)}21.3%{transform:translateX(-1540px)}23.5%{transform:translateX(-1680px)}25.6%{transform:translateX(-1820px)}27.7%{transform:translateX(-1960px)}29.8%{transform:translateX(-2100px)}31.8%{transform:translateX(-2240px)}33.9%{transform:translateX(-2380px)}36%{transform:translateX(-2520px)}38.1%{transform:translateX(-2660px)}40.2%{transform:translateX(-2800px)}42.2%{transform:translateX(-2940px)}44.3%{transform:translateX(-3080px)}46.4%{transform:translateX(-3220px)}48.4%{transform:translateX(-3360px)}50.6%{transform:translateX(-3640px)}70.9%{transform:translateX(-3780px)}to{transform:translateX(-3920px)}}.a{fill:#282d35}.f,.g{fill:#fff;white-space:pre}.g{fill:#b9c0cb}</style><g font-family="Monaco,Consolas,Menlo,'Bitstream Vera Sans Mono','Powerline Symbols',monospace" font-size="1.67"><defs><symbol id="1"><text y="1.67" class="f">kafka-topics</text><text x="13.026" y="1.67" class="f">\</text></symbol><symbol id="2"><text x="4.008" y="1.67" class="f">-</text></symbol><symbol id="3"><text x="4.008" y="1.67" class="f">--bootstrap-server</text><text x="23.046" y="1.67" class="f">localhost:6969</text><text x="38.076" y="1.67" class="f">\</text></symbol><symbol id="4"><text x="4.008" y="1.67" class="f">--command-config</text><text x="21.042" y="1.67" class="f">teamA-sa.properties</text><text x="41.082" y="1.67" class="f">\</text></symbol><symbol id="5"><text x="4.008" y="1.67" class="f">--replication-factor</text><text x="25.05" y="1.67" class="f">1</text><text x="27.054" y="1.67" class="f">\</text></symbol><symbol id="6"><text x="4.008" y="1.67" class="f">--partitions</text><text x="17.034" y="1.67" class="f">10</text><text x="20.04" y="1.67" class="f">\</text></symbol><symbol id="7"><text x="4.008" y="1.67" class="f">--create</text><text x="13.026" y="1.67" class="f">--if-not-exists</text><text x="29.058" y="1.67" class="f">\</text></symbol><symbol id="8"><text x="4.008" y="1.67" class="f">--topic</text><text x="12.024" y="1.67" class="f">concentrated-topic-with-10-partitions</text></symbol><symbol id="9"><text x="4.008" y="1.67" class="f">--partitions</text><text x="17.034" y="1.67" class="f">100</text><text x="21.042" y="1.67" class="f">\</text></symbol><symbol id="10"><text x="4.008" y="1.67" class="f">--topic</text><text x="12.024" y="1.67" class="f">concentrated-topic-with-100-partitions</text></symbol><symbol id="11"><text y="1.67" class="g">Created</text><text x="8.016" y="1.67" class="g">topic</text><text x="14.028" y="1.67" class="g">concentrated-topic-with-10-partitions.</text></symbol><symbol id="a"><path fill="transparent" d="M0 0h140v18H0z"/></symbol><symbol id="b"><path fill="#6f7683" d="M0 0h1.102v2.171H0z"/></symbol></defs><path class="a" d="M0 0h140v36.907H0z"/><g style="animation-duration:4.63668s;animation-iteration-count:infinite;animation-name:j;animation-timing-function:steps(1,end)"><svg width="4060"><svg><use xlink:href="#a"/><use xlink:href="#b" x="-.004"/></svg><svg x="140"><use xlink:href="#a"/><use xlink:href="#b" x="-.004"/></svg><svg x="280"><use xlink:href="#a"/><use xlink:href="#b" x="4.996" y="2.146"/><use xlink:href="#1"/><use xlink:href="#2" y="2.171"/></svg><svg x="420"><use xlink:href="#a"/><use xlink:href="#b" x="24.996" y="2.146"/><use xlink:href="#1"/><text x="4.008" y="3.841" class="f">--bootstrap-server</text><text x="23.046" y="3.841" class="f">lo</text></svg><svg x="560"><use xlink:href="#a"/><use xlink:href="#b" x="4.996" y="4.317"/><use xlink:href="#1"/><use xlink:href="#3" y="2.171"/><use xlink:href="#2" y="4.342"/></svg><svg x="700"><use xlink:href="#a"/><use xlink:href="#b" x="24.996" y="4.317"/><use xlink:href="#1"/><use xlink:href="#3" y="2.171"/><text x="4.008" y="6.012" class="f">--command-config</text><text x="21.042" y="6.012" class="f">team</text></svg><svg x="840"><use xlink:href="#a"/><use xlink:href="#b" x="1.996" y="6.488"/><use xlink:href="#1"/><use xlink:href="#3" y="2.171"/><use xlink:href="#4" y="4.342"/></svg><svg x="980"><use xlink:href="#a"/><use xlink:href="#b" x="21.996" y="6.488"/><use xlink:href="#1"/><use xlink:href="#3" y="2.171"/><use xlink:href="#4" y="4.342"/><text x="4.008" y="8.183" class="f">--replication-fact</text></svg><svg x="1120"><use xlink:href="#a"/><use xlink:href="#b" x="12.996" y="8.659"/><use xlink:href="#1"/><use xlink:href="#3" y="2.171"/><use xlink:href="#4" y="4.342"/><use xlink:href="#5" y="6.513"/><text x="4.008" y="10.354" class="f">--partiti</text></svg><svg x="1260"><use xlink:href="#a"/><use xlink:href="#b" x="10.996" y="10.83"/><use xlink:href="#1"/><use xlink:href="#3" y="2.171"/><use xlink:href="#4" y="4.342"/><use xlink:href="#5" y="6.513"/><use xlink:href="#6" y="8.684"/><text x="4.008" y="12.525" class="f">--creat</text></svg><svg x="1400"><use xlink:href="#a"/><use xlink:href="#b" x="-.004" y="13.001"/><use xlink:href="#1"/><use xlink:href="#3" y="2.171"/><use xlink:href="#4" y="4.342"/><use xlink:href="#5" y="6.513"/><use xlink:href="#6" y="8.684"/><use xlink:href="#7" y="10.855"/></svg><svg x="1540"><use xlink:href="#a"/><use xlink:href="#b" x="19.996" y="13.001"/><use xlink:href="#1"/><use xlink:href="#3" y="2.171"/><use xlink:href="#4" y="4.342"/><use xlink:href="#5" y="6.513"/><use xlink:href="#6" y="8.684"/><use xlink:href="#7" y="10.855"/><text x="4.008" y="14.696" class="f">--topic</text><text x="12.024" y="14.696" class="f">concentr</text></svg><svg x="1680"><use xlink:href="#a"/><use xlink:href="#b" x="39.996" y="13.001"/><use xlink:href="#1"/><use xlink:href="#3" y="2.171"/><use xlink:href="#4" y="4.342"/><use xlink:href="#5" y="6.513"/><use xlink:href="#6" y="8.684"/><use xlink:href="#7" y="10.855"/><text x="4.008" y="14.696" class="f">--topic</text><text x="12.024" y="14.696" class="f">concentrated-topic-with-10-p</text></svg><svg x="1820"><use xlink:href="#a"/><use xlink:href="#b" x="9.996" y="15.172"/><use xlink:href="#1"/><use xlink:href="#3" y="2.171"/><use xlink:href="#4" y="4.342"/><use xlink:href="#5" y="6.513"/><use xlink:href="#6" y="8.684"/><use xlink:href="#7" y="10.855"/><use xlink:href="#8" y="13.026"/><text y="16.867" class="f">kafka-topi</text></svg><svg x="1960"><use xlink:href="#a"/><use xlink:href="#b" x="14.996" y="17.343"/><use xlink:href="#1"/><use xlink:href="#3" y="2.171"/><use xlink:href="#4" y="4.342"/><use xlink:href="#5" y="6.513"/><use xlink:href="#6" y="8.684"/><use xlink:href="#7" y="10.855"/><use xlink:href="#8" y="13.026"/><use xlink:href="#1" y="15.197"/><text x="4.008" y="19.038" class="f">--bootstrap</text></svg><svg x="2100"><use xlink:href="#a"/><use xlink:href="#b" x="34.996" y="17.343"/><use xlink:href="#1"/><use xlink:href="#3" y="2.171"/><use xlink:href="#4" y="4.342"/><use xlink:href="#5" y="6.513"/><use xlink:href="#6" y="8.684"/><use xlink:href="#7" y="10.855"/><use xlink:href="#8" y="13.026"/><use xlink:href="#1" y="15.197"/><text x="4.008" y="19.038" class="f">--bootstrap-server</text><text x="23.046" y="19.038" class="f">localhost:69</text></svg><svg x="2240"><use xlink:href="#a"/><use xlink:href="#b" x="14.996" y="19.514"/><use xlink:href="#1"/><use xlink:href="#3" y="2.171"/><use xlink:href="#4" y="4.342"/><use xlink:href="#5" y="6.513"/><use xlink:href="#6" y="8.684"/><use xlink:href="#7" y="10.855"/><use xlink:href="#8" y="13.026"/><use xlink:href="#1" y="15.197"/><use xlink:href="#3" y="17.368"/><text x="4.008" y="21.209" class="f">--command-c</text></svg><svg x="2380"><use xlink:href="#a"/><use xlink:href="#b" x="34.996" y="19.514"/><use xlink:href="#1"/><use xlink:href="#3" y="2.171"/><use xlink:href="#4" y="4.342"/><use xlink:href="#5" y="6.513"/><use xlink:href="#6" y="8.684"/><use xlink:href="#7" y="10.855"/><use xlink:href="#8" y="13.026"/><use xlink:href="#1" y="15.197"/><use xlink:href="#3" y="17.368"/><text x="4.008" y="21.209" class="f">--command-config</text><text x="21.042" y="21.209" class="f">teamA-sa.prope</text></svg><svg x="2520"><use xlink:href="#a"/><use xlink:href="#b" x="11.996" y="21.685"/><use xlink:href="#1"/><use xlink:href="#3" y="2.171"/><use xlink:href="#4" y="4.342"/><use xlink:href="#5" y="6.513"/><use xlink:href="#6" y="8.684"/><use xlink:href="#7" y="10.855"/><use xlink:href="#8" y="13.026"/><use xlink:href="#1" y="15.197"/><use xlink:href="#3" y="17.368"/><use xlink:href="#4" y="19.539"/><text x="4.008" y="23.38" class="f">--replic</text></svg><svg x="2660"><use xlink:href="#a"/><use xlink:href="#b" x="2.996" y="23.856"/><use xlink:href="#1"/><use xlink:href="#3" y="2.171"/><use xlink:href="#4" y="4.342"/><use xlink:href="#5" y="6.513"/><use xlink:href="#6" y="8.684"/><use xlink:href="#7" y="10.855"/><use xlink:href="#8" y="13.026"/><use xlink:href="#1" y="15.197"/><use xlink:href="#3" y="17.368"/><use xlink:href="#4" y="19.539"/><use xlink:href="#5" y="21.71"/></svg><svg x="2800"><use xlink:href="#a"/><use xlink:href="#b" x="-.004" y="26.027"/><use xlink:href="#1"/><use xlink:href="#3" y="2.171"/><use xlink:href="#4" y="4.342"/><use xlink:href="#5" y="6.513"/><use xlink:href="#6" y="8.684"/><use xlink:href="#7" y="10.855"/><use xlink:href="#8" y="13.026"/><use xlink:href="#1" y="15.197"/><use xlink:href="#3" y="17.368"/><use xlink:href="#4" y="19.539"/><use xlink:href="#5" y="21.71"/><use xlink:href="#9" y="23.881"/></svg><svg x="2940"><use xlink:href="#a"/><use xlink:href="#b" x="19.996" y="26.027"/><use xlink:href="#1"/><use xlink:href="#3" y="2.171"/><use xlink:href="#4" y="4.342"/><use xlink:href="#5" y="6.513"/><use xlink:href="#6" y="8.684"/><use xlink:href="#7" y="10.855"/><use xlink:href="#8" y="13.026"/><use xlink:href="#1" y="15.197"/><use xlink:href="#3" y="17.368"/><use xlink:href="#4" y="19.539"/><use xlink:href="#5" y="21.71"/><use xlink:href="#9" y="23.881"/><text x="4.008" y="27.722" class="f">--create</text><text x="13.026" y="27.722" class="f">--if-no</text></svg><svg x="3080"><use xlink:href="#a"/><use xlink:href="#b" x="8.996" y="28.198"/><use xlink:href="#1"/><use xlink:href="#3" y="2.171"/><use xlink:href="#4" y="4.342"/><use xlink:href="#5" y="6.513"/><use xlink:href="#6" y="8.684"/><use xlink:href="#7" y="10.855"/><use xlink:href="#8" y="13.026"/><use xlink:href="#1" y="15.197"/><use xlink:href="#3" y="17.368"/><use xlink:href="#4" y="19.539"/><use xlink:href="#5" y="21.71"/><use xlink:href="#9" y="23.881"/><use xlink:href="#7" y="26.052"/><text x="4.008" y="29.893" class="f">--top</text></svg><svg x="3220"><use xlink:href="#a"/><use xlink:href="#b" x="28.996" y="28.198"/><use xlink:href="#1"/><use xlink:href="#3" y="2.171"/><use xlink:href="#4" y="4.342"/><use xlink:href="#5" y="6.513"/><use xlink:href="#6" y="8.684"/><use xlink:href="#7" y="10.855"/><use xlink:href="#8" y="13.026"/><use xlink:href="#1" y="15.197"/><use xlink:href="#3" y="17.368"/><use xlink:href="#4" y="19.539"/><use xlink:href="#5" y="21.71"/><use xlink:href="#9" y="23.881"/><use xlink:href="#7" y="26.052"/><text x="4.008" y="29.893" class="f">--topic</text><text x="12.024" y="29.893" class="f">concentrated-topi</text></svg><svg x="3360"><use xlink:href="#a"/><use xlink:href="#b" x="48.996" y="28.198"/><use xlink:href="#1"/><use xlink:href="#3" y="2.171"/><use xlink:href="#4" y="4.342"/><use xlink:href="#5" y="6.513"/><use xlink:href="#6" y="8.684"/><use xlink:href="#7" y="10.855"/><use xlink:href="#8" y="13.026"/><use xlink:href="#1" y="15.197"/><use xlink:href="#3" y="17.368"/><use xlink:href="#4" y="19.539"/><use xlink:href="#5" y="21.71"/><use xlink:href="#9" y="23.881"/><use xlink:href="#7" y="26.052"/><text x="4.008" y="29.893" class="f">--topic</text><text x="12.024" y="29.893" class="f">concentrated-topic-with-100-partition</text></svg><svg x="3500"><use xlink:href="#a"/><use xlink:href="#b" x="-.004" y="30.369"/><use xlink:href="#1"/><use xlink:href="#3" y="2.171"/><use xlink:href="#4" y="4.342"/><use xlink:href="#5" y="6.513"/><use xlink:href="#6" y="8.684"/><use xlink:href="#7" y="10.855"/><use xlink:href="#8" y="13.026"/><use xlink:href="#1" y="15.197"/><use xlink:href="#3" y="17.368"/><use xlink:href="#4" y="19.539"/><use xlink:href="#5" y="21.71"/><use xlink:href="#9" y="23.881"/><use xlink:href="#7" y="26.052"/><use xlink:href="#10" y="28.223"/></svg><svg x="3640"><use xlink:href="#a"/><use xlink:href="#b" x="-.004" y="32.54"/><use xlink:href="#1"/><use xlink:href="#3" y="2.171"/><use xlink:href="#4" y="4.342"/><use xlink:href="#5" y="6.513"/><use xlink:href="#6" y="8.684"/><use xlink:href="#7" y="10.855"/><use xlink:href="#8" y="13.026"/><use xlink:href="#1" y="15.197"/><use xlink:href="#3" y="17.368"/><use xlink:href="#4" y="19.539"/><use xlink:href="#5" y="21.71"/><use xlink:href="#9" y="23.881"/><use xlink:href="#7" y="26.052"/><use xlink:href="#10" y="28.223"/></svg><svg x="3780"><use xlink:href="#a"/><use xlink:href="#b" x="-.004" y="34.711"/><use xlink:href="#1"/><use xlink:href="#3" y="2.171"/><use xlink:href="#4" y="4.342"/><use xlink:href="#5" y="6.513"/><use xlink:href="#6" y="8.684"/><use xlink:href="#7" y="10.855"/><use xlink:href="#8" y="13.026"/><use xlink:href="#1" y="15.197"/><use xlink:href="#3" y="17.368"/><use xlink:href="#4" y="19.539"/><use xlink:href="#5" y="21.71"/><use xlink:href="#9" y="23.881"/><use xlink:href="#7" y="26.052"/><use xlink:href="#10" y="28.223"/><use xlink:href="#11" y="32.565"/></svg><svg x="3920"><use xlink:href="#a"/><use xlink:href="#b" x="-.004" y="36.882"/><use xlink:href="#1"/><use xlink:href="#3" y="2.171"/><use xlink:href="#4" y="4.342"/><use xlink:href="#5" y="6.513"/><use xlink:href="#6" y="8.684"/><use xlink:href="#7" y="10.855"/><use xlink:href="#8" y="13.026"/><use xlink:href="#1" y="15.197"/><use xlink:href="#3" y="17.368"/><use xlink:href="#4" y="19.539"/><use xlink:href="#5" y="21.71"/><use xlink:href="#9" y="23.881"/><use xlink:href="#7" y="26.052"/><use xlink:href="#10" y="28.223"/><use xlink:href="#11" y="32.565"/><text y="36.406" class="g">Created</text><text x="8.016" y="36.406" class="g">topic</text><text x="14.028" y="36.406" class="g">concentrated-topic-with-100-partitions.</text></svg></svg></g></g></svg></svg>