<svg xmlns="http://www.w3.org/2000/svg" xmlns:xlink="http://www.w3.org/1999/xlink" width="1440" height="168.55"><rect width="1440" height="168.55" rx="5" ry="5" class="a"/><svg y="0%" x="0%"><circle cx="20" cy="20" r="6" fill="#ff5f58"/><circle cx="40" cy="20" r="6" fill="#ffbd2e"/><circle cx="60" cy="20" r="6" fill="#18c132"/></svg><svg height="108.55" viewBox="0 0 140 10.855" width="1400" x="15" xmlns="http://www.w3.org/2000/svg" xmlns:xlink="http://www.w3.org/1999/xlink" y="50"><style>@keyframes i{0%{transform:translateX(0)}.4%{transform:translateX(-140px)}.5%{transform:translateX(-280px)}4.7%{transform:translateX(-420px)}13%{transform:translateX(-560px)}17.2%{transform:translateX(-700px)}21.4%{transform:translateX(-840px)}25.3%{transform:translateX(-980px)}29.5%{transform:translateX(-1120px)}33.7%{transform:translateX(-1260px)}37.7%{transform:translateX(-1400px)}41.7%{transform:translateX(-1540px)}45.8%{transform:translateX(-1680px)}50.2%{transform:translateX(-1820px)}54.3%{transform:translateX(-1960px)}58.4%{transform:translateX(-2100px)}62.6%{transform:translateX(-2240px)}66.7%{transform:translateX(-2380px)}70.9%{transform:translateX(-2520px)}75%{transform:translateX(-2660px)}79%{transform:translateX(-2800px)}83.2%{transform:translateX(-2940px)}87.4%{transform:translateX(-3080px)}91.6%{transform:translateX(-3220px)}95.6%{transform:translateX(-3360px)}99.9%{transform:translateX(-3500px)}to{transform:translateX(-3640px)}}.a{fill:#282d35}.f{fill:#fff;white-space:pre}</style><g font-family="Monaco,Consolas,Menlo,'Bitstream Vera Sans Mono','Powerline Symbols',monospace" font-size="1.67"><defs><symbol id="1"><text y="1.67" class="f">echo</text><text x="5.01" y="1.67" class="f">&apos;{&quot;type&quot;:</text><text x="15.03" y="1.67" class="f">&quot;Sports&quot;,</text><text x="25.05" y="1.67" class="f">&quot;price&quot;:</text><text x="34.068" y="1.67" class="f">75,</text><text x="38.076" y="1.67" class="f">&quot;color&quot;:</text><text x="47.094" y="1.67" class="f">&quot;blue&quot;}&apos;</text><text x="56.112" y="1.67" class="f">|</text><text x="58.116" y="1.67" class="f">\</text></symbol><symbol id="2"><text x="4.008" y="1.67" class="f">kafka-console-producer</text><text x="27.054" y="1.67" class="f">\</text></symbol><symbol id="3"><text x="8.016" y="1.67" class="f">--bootstrap-server</text><text x="27.054" y="1.67" class="f">localhost:6969</text><text x="42.084" y="1.67" class="f">\</text></symbol><symbol id="4"><text x="8.016" y="1.67" class="f">--producer.config</text><text x="26.052" y="1.67" class="f">teamA-sa.properties</text><text x="46.092" y="1.67" class="f">\</text></symbol><symbol id="5"><text x="8.016" y="1.67" class="f">--topic</text><text x="16.032" y="1.67" class="f">concentrated-topic-with-10-partitions</text></symbol><symbol id="a"><path fill="transparent" d="M0 0h140v6H0z"/></symbol><symbol id="b"><path fill="#6f7683" d="M0 0h1.102v2.171H0z"/></symbol></defs><path class="a" d="M0 0h140v10.855H0z"/><g style="animation-duration:2.349723s;animation-iteration-count:infinite;animation-name:i;animation-timing-function:steps(1,end)"><svg width="3780"><svg><use xlink:href="#a"/><use xlink:href="#b" x="-.004"/></svg><svg x="140"><use xlink:href="#a"/><use xlink:href="#b" x="-.004"/></svg><svg x="280"><use xlink:href="#a"/><use xlink:href="#b" x="9.996"/><text y="1.67" class="f">echo</text><text x="5.01" y="1.67" class="f">&apos;{&quot;ty</text></svg><svg x="420"><use xlink:href="#a"/><use xlink:href="#b" x="19.996"/><text y="1.67" class="f">echo</text><text x="5.01" y="1.67" class="f">&apos;{&quot;type&quot;:</text><text x="15.03" y="1.67" class="f">&quot;Spor</text></svg><svg x="560"><use xlink:href="#a"/><use xlink:href="#b" x="29.996"/><text y="1.67" class="f">echo</text><text x="5.01" y="1.67" class="f">&apos;{&quot;type&quot;:</text><text x="15.03" y="1.67" class="f">&quot;Sports&quot;,</text><text x="25.05" y="1.67" class="f">&quot;pric</text></svg><svg x="700"><use xlink:href="#a"/><use xlink:href="#b" x="39.996"/><text y="1.67" class="f">echo</text><text x="5.01" y="1.67" class="f">&apos;{&quot;type&quot;:</text><text x="15.03" y="1.67" class="f">&quot;Sports&quot;,</text><text x="25.05" y="1.67" class="f">&quot;price&quot;:</text><text x="34.068" y="1.67" class="f">75,</text><text x="38.076" y="1.67" class="f">&quot;c</text></svg><svg x="840"><use xlink:href="#a"/><use xlink:href="#b" x="49.996"/><text y="1.67" class="f">echo</text><text x="5.01" y="1.67" class="f">&apos;{&quot;type&quot;:</text><text x="15.03" y="1.67" class="f">&quot;Sports&quot;,</text><text x="25.05" y="1.67" class="f">&quot;price&quot;:</text><text x="34.068" y="1.67" class="f">75,</text><text x="38.076" y="1.67" class="f">&quot;color&quot;:</text><text x="47.094" y="1.67" class="f">&quot;bl</text></svg><svg x="980"><use xlink:href="#a"/><use xlink:href="#b" x="-.004" y="2.146"/><use xlink:href="#1"/></svg><svg x="1120"><use xlink:href="#a"/><use xlink:href="#b" x="9.996" y="2.146"/><use xlink:href="#1"/><text x="4.008" y="3.841" class="f">kafka-</text></svg><svg x="1260"><use xlink:href="#a"/><use xlink:href="#b" x="19.996" y="2.146"/><use xlink:href="#1"/><text x="4.008" y="3.841" class="f">kafka-console-pr</text></svg><svg x="1400"><use xlink:href="#a"/><use xlink:href="#b" x=".996" y="4.317"/><use xlink:href="#1"/><use xlink:href="#2" y="2.171"/></svg><svg x="1540"><use xlink:href="#a"/><use xlink:href="#b" x="10.996" y="4.317"/><use xlink:href="#1"/><use xlink:href="#2" y="2.171"/><text x="8.016" y="6.012" class="f">--b</text></svg><svg x="1680"><use xlink:href="#a"/><use xlink:href="#b" x="20.996" y="4.317"/><use xlink:href="#1"/><use xlink:href="#2" y="2.171"/><text x="8.016" y="6.012" class="f">--bootstrap-s</text></svg><svg x="1820"><use xlink:href="#a"/><use xlink:href="#b" x="30.996" y="4.317"/><use xlink:href="#1"/><use xlink:href="#2" y="2.171"/><text x="8.016" y="6.012" class="f">--bootstrap-server</text><text x="27.054" y="6.012" class="f">loca</text></svg><svg x="1960"><use xlink:href="#a"/><use xlink:href="#b" x="40.996" y="4.317"/><use xlink:href="#1"/><use xlink:href="#2" y="2.171"/><text x="8.016" y="6.012" class="f">--bootstrap-server</text><text x="27.054" y="6.012" class="f">localhost:6969</text></svg><svg x="2100"><use xlink:href="#a"/><use xlink:href="#b" x="6.996" y="6.488"/><use xlink:href="#1"/><use xlink:href="#2" y="2.171"/><use xlink:href="#3" y="4.342"/></svg><svg x="2240"><use xlink:href="#a"/><use xlink:href="#b" x="16.996" y="6.488"/><use xlink:href="#1"/><use xlink:href="#2" y="2.171"/><use xlink:href="#3" y="4.342"/><text x="8.016" y="8.183" class="f">--produce</text></svg><svg x="2380"><use xlink:href="#a"/><use xlink:href="#b" x="26.996" y="6.488"/><use xlink:href="#1"/><use xlink:href="#2" y="2.171"/><use xlink:href="#3" y="4.342"/><text x="8.016" y="8.183" class="f">--producer.config</text><text x="26.052" y="8.183" class="f">t</text></svg><svg x="2520"><use xlink:href="#a"/><use xlink:href="#b" x="36.996" y="6.488"/><use xlink:href="#1"/><use xlink:href="#2" y="2.171"/><use xlink:href="#3" y="4.342"/><text x="8.016" y="8.183" class="f">--producer.config</text><text x="26.052" y="8.183" class="f">teamA-sa.pr</text></svg><svg x="2660"><use xlink:href="#a"/><use xlink:href="#b" x="46.996" y="6.488"/><use xlink:href="#1"/><use xlink:href="#2" y="2.171"/><use xlink:href="#3" y="4.342"/><use xlink:href="#4" y="6.513"/></svg><svg x="2800"><use xlink:href="#a"/><use xlink:href="#b" x="8.996" y="8.659"/><use xlink:href="#1"/><use xlink:href="#2" y="2.171"/><use xlink:href="#3" y="4.342"/><use xlink:href="#4" y="6.513"/><text x="8.016" y="10.354" class="f">-</text></svg><svg x="2940"><use xlink:href="#a"/><use xlink:href="#b" x="18.996" y="8.659"/><use xlink:href="#1"/><use xlink:href="#2" y="2.171"/><use xlink:href="#3" y="4.342"/><use xlink:href="#4" y="6.513"/><text x="8.016" y="10.354" class="f">--topic</text><text x="16.032" y="10.354" class="f">con</text></svg><svg x="3080"><use xlink:href="#a"/><use xlink:href="#b" x="28.996" y="8.659"/><use xlink:href="#1"/><use xlink:href="#2" y="2.171"/><use xlink:href="#3" y="4.342"/><use xlink:href="#4" y="6.513"/><text x="8.016" y="10.354" class="f">--topic</text><text x="16.032" y="10.354" class="f">concentrated-</text></svg><svg x="3220"><use xlink:href="#a"/><use xlink:href="#b" x="38.996" y="8.659"/><use xlink:href="#1"/><use xlink:href="#2" y="2.171"/><use xlink:href="#3" y="4.342"/><use xlink:href="#4" y="6.513"/><text x="8.016" y="10.354" class="f">--topic</text><text x="16.032" y="10.354" class="f">concentrated-topic-with</text></svg><svg x="3360"><use xlink:href="#a"/><use xlink:href="#b" x="48.996" y="8.659"/><use xlink:href="#1"/><use xlink:href="#2" y="2.171"/><use xlink:href="#3" y="4.342"/><use xlink:href="#4" y="6.513"/><text x="8.016" y="10.354" class="f">--topic</text><text x="16.032" y="10.354" class="f">concentrated-topic-with-10-partit</text></svg><svg x="3500"><use xlink:href="#a"/><use xlink:href="#b" x="52.996" y="8.659"/><use xlink:href="#1"/><use xlink:href="#2" y="2.171"/><use xlink:href="#3" y="4.342"/><use xlink:href="#4" y="6.513"/><use xlink:href="#5" y="8.684"/></svg><svg x="3640"><use xlink:href="#a"/><use xlink:href="#b" x="-.004" y="10.83"/><use xlink:href="#1"/><use xlink:href="#2" y="2.171"/><use xlink:href="#3" y="4.342"/><use xlink:href="#4" y="6.513"/><use xlink:href="#5" y="8.684"/></svg></svg></g></g></svg></svg>