<svg xmlns="http://www.w3.org/2000/svg" xmlns:xlink="http://www.w3.org/1999/xlink" width="1440" height="494.2"><rect width="1440" height="494.2" rx="5" ry="5" class="a"/><svg y="0%" x="0%"><circle cx="20" cy="20" r="6" fill="#ff5f58"/><circle cx="40" cy="20" r="6" fill="#ffbd2e"/><circle cx="60" cy="20" r="6" fill="#18c132"/></svg><svg height="434.2" viewBox="0 0 140 43.42" width="1400" x="15" xmlns="http://www.w3.org/2000/svg" xmlns:xlink="http://www.w3.org/1999/xlink" y="50"><style>@keyframes j{0%{transform:translateX(0)}.08%{transform:translateX(-140px)}.1%{transform:translateX(-280px)}1.17%{transform:translateX(-420px)}1.69%{transform:translateX(-560px)}2.22%{transform:translateX(-700px)}2.75%{transform:translateX(-840px)}3.3%{transform:translateX(-980px)}3.84%{transform:translateX(-1120px)}4.38%{transform:translateX(-1260px)}4.91%{transform:translateX(-1400px)}5.46%{transform:translateX(-1540px)}6.07%{transform:translateX(-1680px)}6.63%{transform:translateX(-1820px)}7.18%{transform:translateX(-1960px)}7.72%{transform:translateX(-2100px)}8.24%{transform:translateX(-2240px)}8.79%{transform:translateX(-2380px)}9.85%{transform:translateX(-2520px)}10.39%{transform:translateX(-2660px)}10.91%{transform:translateX(-2800px)}11.43%{transform:translateX(-2940px)}11.96%{transform:translateX(-3080px)}12.49%{transform:translateX(-3220px)}13.01%{transform:translateX(-3360px)}13.62%{transform:translateX(-3500px)}14.16%{transform:translateX(-3640px)}14.7%{transform:translateX(-3780px)}15.25%{transform:translateX(-3920px)}15.79%{transform:translateX(-4060px)}16.34%{transform:translateX(-4200px)}16.96%{transform:translateX(-4340px)}17.5%{transform:translateX(-4480px)}18.02%{transform:translateX(-4620px)}18.56%{transform:translateX(-4760px)}19.62%{transform:translateX(-4900px)}20.15%{transform:translateX(-5040px)}20.7%{transform:translateX(-5180px)}21.22%{transform:translateX(-5320px)}21.74%{transform:translateX(-5460px)}22.29%{transform:translateX(-5600px)}22.81%{transform:translateX(-5740px)}23.36%{transform:translateX(-5880px)}23.91%{transform:translateX(-6020px)}24.45%{transform:translateX(-6160px)}24.97%{transform:translateX(-6300px)}24.98%{transform:translateX(-6440px)}36.5%{transform:translateX(-6580px)}46.27%{transform:translateX(-6720px)}56.38%{transform:translateX(-6860px)}66.5%{transform:translateX(-7000px)}78.02%{transform:translateX(-7140px)}88.48%{transform:translateX(-7280px)}to{transform:translateX(-7420px)}}.a{fill:#282d35}.f,.g{fill:#fff;white-space:pre}.g{fill:#b9c0cb}</style><g font-family="Monaco,Consolas,Menlo,'Bitstream Vera Sans Mono','Powerline Symbols',monospace" font-size="1.67"><defs><symbol id="1"><text y="1.67" class="f">kafka-topics</text><text x="13.026" y="1.67" class="f">\</text></symbol><symbol id="2"><text x="4.008" y="1.67" class="f">--bootstrap-server</text><text x="23.046" y="1.67" class="f">localhost:6969</text><text x="38.076" y="1.67" class="f">\</text></symbol><symbol id="3"><text x="4.008" y="1.67" class="f">--command-config</text><text x="21.042" y="1.67" class="f">teamA-sa.properties</text><text x="41.082" y="1.67" class="f">\</text></symbol><symbol id="4"><text x="4.008" y="1.67" class="f">--replication-factor</text><text x="25.05" y="1.67" class="f">1</text><text x="27.054" y="1.67" class="f">\</text></symbol><symbol id="5"><text x="4.008" y="1.67" class="f">--partitions</text><text x="17.034" y="1.67" class="f">1</text><text x="19.038" y="1.67" class="f">\</text></symbol><symbol id="6"><text x="4.008" y="1.67" class="f">--create</text><text x="13.026" y="1.67" class="f">--if-not-exists</text><text x="29.058" y="1.67" class="f">\</text></symbol><symbol id="7"><text x="4.008" y="1.67" class="f">--topic</text><text x="12.024" y="1.67" class="f">concentrated-normal</text></symbol><symbol id="8"><text x="4.008" y="1.67" class="f">--bootstra</text></symbol><symbol id="9"><text x="4.008" y="1.67" class="f">--command-</text></symbol><symbol id="10"><text x="4.008" y="1.67" class="f">--repli</text></symbol><symbol id="11"><text x="4.008" y="1.67" class="f">--config</text><text x="13.026" y="1.67" class="f">cleanup.policy=delete</text><text x="35.07" y="1.67" class="f">\</text></symbol><symbol id="12"><text x="4.008" y="1.67" class="f">--topic</text><text x="12.024" y="1.67" class="f">concentrated-delete</text></symbol><symbol id="13"><text x="4.008" y="1.67" class="f">--</text></symbol><symbol id="14"><text x="4.008" y="1.67" class="f">--config</text><text x="13.026" y="1.67" class="f">cleanup.policy=compact</text><text x="36.072" y="1.67" class="f">\</text></symbol><symbol id="15"><text x="4.008" y="1.67" class="f">--topic</text><text x="12.024" y="1.67" class="f">concentrated-compact</text></symbol><symbol id="16"><text x="4.008" y="1.67" class="f">--config</text><text x="13.026" y="1.67" class="f">cleanup.policy=delete,compact</text><text x="43.086" y="1.67" class="f">\</text></symbol><symbol id="17"><text x="4.008" y="1.67" class="f">--topic</text><text x="12.024" y="1.67" class="f">concentrated-delete-compact</text></symbol><symbol id="18"><text x="4.008" y="1.67" class="f">--config</text><text x="13.026" y="1.67" class="f">cleanup.policy=compact,delete</text><text x="43.086" y="1.67" class="f">\</text></symbol><symbol id="19"><text x="4.008" y="1.67" class="f">--topic</text><text x="12.024" y="1.67" class="f">concentrated-compact-delete</text></symbol><symbol id="20"><text x="4.008" y="1.67" class="f">--config</text><text x="13.026" y="1.67" class="f">retention.ms=10000</text><text x="32.064" y="1.67" class="f">\</text></symbol><symbol id="21"><text x="4.008" y="1.67" class="f">--topic</text><text x="12.024" y="1.67" class="f">concentrated-small-retention</text></symbol><symbol id="22"><text x="4.008" y="1.67" class="f">--config</text><text x="13.026" y="1.67" class="f">retention.ms=6048000000</text><text x="37.074" y="1.67" class="f">\</text></symbol><symbol id="23"><text x="4.008" y="1.67" class="f">--topic</text><text x="12.024" y="1.67" class="f">concentrated-large-retention</text></symbol><symbol id="24"><text y="1.67" class="g">Created</text><text x="8.016" y="1.67" class="g">topic</text><text x="14.028" y="1.67" class="g">concentrated-normal.</text></symbol><symbol id="25"><text y="1.67" class="g">Created</text><text x="8.016" y="1.67" class="g">topic</text><text x="14.028" y="1.67" class="g">concentrated-delete.</text></symbol><symbol id="26"><text y="1.67" class="g">Created</text><text x="8.016" y="1.67" class="g">topic</text><text x="14.028" y="1.67" class="g">concentrated-compact.</text></symbol><symbol id="27"><text y="1.67" class="g">Created</text><text x="8.016" y="1.67" class="g">topic</text><text x="14.028" y="1.67" class="g">concentrated-delete-compact.</text></symbol><symbol id="28"><text y="1.67" class="g">Created</text><text x="8.016" y="1.67" class="g">topic</text><text x="14.028" y="1.67" class="g">concentrated-compact-delete.</text></symbol><symbol id="29"><text y="1.67" class="g">Created</text><text x="8.016" y="1.67" class="g">topic</text><text x="14.028" y="1.67" class="g">concentrated-small-retention.</text></symbol><symbol id="a"><path fill="transparent" d="M0 0h140v21H0z"/></symbol><symbol id="b"><path fill="#6f7683" d="M0 0h1.102v2.171H0z"/></symbol></defs><path class="a" d="M0 0h140v43.42H0z"/><g style="animation-duration:17.362479s;animation-iteration-count:infinite;animation-name:j;animation-timing-function:steps(1,end)"><svg width="7560"><svg><use xlink:href="#a"/><use xlink:href="#b" x="-.004"/></svg><svg x="140"><use xlink:href="#a"/><use xlink:href="#b" x="-.004"/></svg><svg x="280"><use xlink:href="#a"/><use xlink:href="#b" x="24.996" y="2.146"/><use xlink:href="#1"/><text x="4.008" y="3.841" class="f">--bootstrap-server</text><text x="23.046" y="3.841" class="f">lo</text></svg><svg x="420"><use xlink:href="#a"/><use xlink:href="#b" x="24.996" y="4.317"/><use xlink:href="#1"/><use xlink:href="#2" y="2.171"/><text x="4.008" y="6.012" class="f">--command-config</text><text x="21.042" y="6.012" class="f">team</text></svg><svg x="560"><use xlink:href="#a"/><use xlink:href="#b" x="21.996" y="6.488"/><use xlink:href="#1"/><use xlink:href="#2" y="2.171"/><use xlink:href="#3" y="4.342"/><text x="4.008" y="8.183" class="f">--replication-fact</text></svg><svg x="700"><use xlink:href="#a"/><use xlink:href="#b" x="11.996" y="10.83"/><use xlink:href="#1"/><use xlink:href="#2" y="2.171"/><use xlink:href="#3" y="4.342"/><use xlink:href="#4" y="6.513"/><use xlink:href="#5" y="8.684"/><text x="4.008" y="12.525" class="f">--create</text></svg><svg x="840"><use xlink:href="#a"/><use xlink:href="#b" x="20.996" y="13.001"/><use xlink:href="#1"/><use xlink:href="#2" y="2.171"/><use xlink:href="#3" y="4.342"/><use xlink:href="#4" y="6.513"/><use xlink:href="#5" y="8.684"/><use xlink:href="#6" y="10.855"/><text x="4.008" y="14.696" class="f">--topic</text><text x="12.024" y="14.696" class="f">concentra</text></svg><svg x="980"><use xlink:href="#a"/><use xlink:href="#b" x="13.996" y="17.343"/><use xlink:href="#1"/><use xlink:href="#2" y="2.171"/><use xlink:href="#3" y="4.342"/><use xlink:href="#4" y="6.513"/><use xlink:href="#5" y="8.684"/><use xlink:href="#6" y="10.855"/><use xlink:href="#7" y="13.026"/><use xlink:href="#1" y="15.197"/><use xlink:href="#8" y="17.368"/></svg><svg x="1120"><use xlink:href="#a"/><use xlink:href="#b" x="13.996" y="19.514"/><use xlink:href="#1"/><use xlink:href="#2" y="2.171"/><use xlink:href="#3" y="4.342"/><use xlink:href="#4" y="6.513"/><use xlink:href="#5" y="8.684"/><use xlink:href="#6" y="10.855"/><use xlink:href="#7" y="13.026"/><use xlink:href="#1" y="15.197"/><use xlink:href="#2" y="17.368"/><use xlink:href="#9" y="19.539"/></svg><svg x="1260"><use xlink:href="#a"/><use xlink:href="#b" x="10.996" y="21.685"/><use xlink:href="#1"/><use xlink:href="#2" y="2.171"/><use xlink:href="#3" y="4.342"/><use xlink:href="#4" y="6.513"/><use xlink:href="#5" y="8.684"/><use xlink:href="#6" y="10.855"/><use xlink:href="#7" y="13.026"/><use xlink:href="#1" y="15.197"/><use xlink:href="#2" y="17.368"/><use xlink:href="#3" y="19.539"/><use xlink:href="#10" y="21.71"/></svg><svg x="1400"><use xlink:href="#a"/><use xlink:href="#b" x=".996" y="26.027"/><use xlink:href="#1"/><use xlink:href="#2" y="2.171"/><use xlink:href="#3" y="4.342"/><use xlink:href="#4" y="6.513"/><use xlink:href="#5" y="8.684"/><use xlink:href="#6" y="10.855"/><use xlink:href="#7" y="13.026"/><use xlink:href="#1" y="15.197"/><use xlink:href="#2" y="17.368"/><use xlink:href="#3" y="19.539"/><use xlink:href="#4" y="21.71"/><use xlink:href="#5" y="23.881"/></svg><svg x="1540"><use xlink:href="#a"/><use xlink:href="#b" x="3.996" y="28.198"/><use xlink:href="#1"/><use xlink:href="#2" y="2.171"/><use xlink:href="#3" y="4.342"/><use xlink:href="#4" y="6.513"/><use xlink:href="#5" y="8.684"/><use xlink:href="#6" y="10.855"/><use xlink:href="#7" y="13.026"/><use xlink:href="#1" y="15.197"/><use xlink:href="#2" y="17.368"/><use xlink:href="#3" y="19.539"/><use xlink:href="#4" y="21.71"/><use xlink:href="#5" y="23.881"/><use xlink:href="#11" y="26.052"/></svg><svg x="1680"><use xlink:href="#a"/><use xlink:href="#b" x="12.996" y="30.369"/><use xlink:href="#1"/><use xlink:href="#2" y="2.171"/><use xlink:href="#3" y="4.342"/><use xlink:href="#4" y="6.513"/><use xlink:href="#5" y="8.684"/><use xlink:href="#6" y="10.855"/><use xlink:href="#7" y="13.026"/><use xlink:href="#1" y="15.197"/><use xlink:href="#2" y="17.368"/><use xlink:href="#3" y="19.539"/><use xlink:href="#4" y="21.71"/><use xlink:href="#5" y="23.881"/><use xlink:href="#11" y="26.052"/><use xlink:href="#6" y="28.223"/><text x="4.008" y="32.064" class="f">--topic</text><text x="12.024" y="32.064" class="f">c</text></svg><svg x="1820"><use xlink:href="#a"/><use xlink:href="#b" x="5.996" y="34.711"/><use xlink:href="#1"/><use xlink:href="#2" y="2.171"/><use xlink:href="#3" y="4.342"/><use xlink:href="#4" y="6.513"/><use xlink:href="#5" y="8.684"/><use xlink:href="#6" y="10.855"/><use xlink:href="#7" y="13.026"/><use xlink:href="#1" y="15.197"/><use xlink:href="#2" y="17.368"/><use xlink:href="#3" y="19.539"/><use xlink:href="#4" y="21.71"/><use xlink:href="#5" y="23.881"/><use xlink:href="#11" y="26.052"/><use xlink:href="#6" y="28.223"/><use xlink:href="#12" y="30.394"/><use xlink:href="#1" y="32.565"/><use xlink:href="#13" y="34.736"/></svg><svg x="1960"><use xlink:href="#a"/><use xlink:href="#b" x="5.996" y="36.882"/><use xlink:href="#1"/><use xlink:href="#2" y="2.171"/><use xlink:href="#3" y="4.342"/><use xlink:href="#4" y="6.513"/><use xlink:href="#5" y="8.684"/><use xlink:href="#6" y="10.855"/><use xlink:href="#7" y="13.026"/><use xlink:href="#1" y="15.197"/><use xlink:href="#2" y="17.368"/><use xlink:href="#3" y="19.539"/><use xlink:href="#4" y="21.71"/><use xlink:href="#5" y="23.881"/><use xlink:href="#11" y="26.052"/><use xlink:href="#6" y="28.223"/><use xlink:href="#12" y="30.394"/><use xlink:href="#1" y="32.565"/><use xlink:href="#2" y="34.736"/><use xlink:href="#13" y="36.907"/></svg><svg x="2100"><use xlink:href="#a"/><use xlink:href="#b" x="2.996" y="39.053"/><use xlink:href="#1"/><use xlink:href="#2" y="2.171"/><use xlink:href="#3" y="4.342"/><use xlink:href="#4" y="6.513"/><use xlink:href="#5" y="8.684"/><use xlink:href="#6" y="10.855"/><use xlink:href="#7" y="13.026"/><use xlink:href="#1" y="15.197"/><use xlink:href="#2" y="17.368"/><use xlink:href="#3" y="19.539"/><use xlink:href="#4" y="21.71"/><use xlink:href="#5" y="23.881"/><use xlink:href="#11" y="26.052"/><use xlink:href="#6" y="28.223"/><use xlink:href="#12" y="30.394"/><use xlink:href="#1" y="32.565"/><use xlink:href="#2" y="34.736"/><use xlink:href="#3" y="36.907"/></svg><svg x="2240"><use xlink:href="#a"/><use xlink:href="#b" x="13.996" y="41.224"/><use xlink:href="#1"/><use xlink:href="#2" y="2.171"/><use xlink:href="#3" y="4.342"/><use xlink:href="#4" y="6.513"/><use xlink:href="#5" y="8.684"/><use xlink:href="#6" y="10.855"/><use xlink:href="#7" y="13.026"/><use xlink:href="#1" y="15.197"/><use xlink:href="#2" y="17.368"/><use xlink:href="#3" y="19.539"/><use xlink:href="#4" y="21.71"/><use xlink:href="#5" y="23.881"/><use xlink:href="#11" y="26.052"/><use xlink:href="#6" y="28.223"/><use xlink:href="#12" y="30.394"/><use xlink:href="#1" y="32.565"/><use xlink:href="#2" y="34.736"/><use xlink:href="#3" y="36.907"/><use xlink:href="#4" y="39.078"/><text x="4.008" y="42.919" class="f">--partitio</text></svg><svg x="2380"><use xlink:href="#a"/><use xlink:href="#b" x="32.996" y="43.395"/><use xlink:href="#1"/><use xlink:href="#2" y="2.171"/><use xlink:href="#3" y="4.342"/><use xlink:href="#4" y="6.513"/><use xlink:href="#5" y="8.684"/><use xlink:href="#6" y="10.855"/><use xlink:href="#7" y="13.026"/><use xlink:href="#1" y="15.197"/><use xlink:href="#2" y="17.368"/><use xlink:href="#3" y="19.539"/><use xlink:href="#4" y="21.71"/><use xlink:href="#5" y="23.881"/><use xlink:href="#11" y="26.052"/><use xlink:href="#6" y="28.223"/><use xlink:href="#12" y="30.394"/><use xlink:href="#1" y="32.565"/><use xlink:href="#2" y="34.736"/><use xlink:href="#3" y="36.907"/><use xlink:href="#4" y="39.078"/><use xlink:href="#5" y="41.249"/><text x="4.008" y="45.09" class="f">--config</text><text x="13.026" y="45.09" class="f">cleanup.policy=compa</text></svg><svg x="2520"><use xlink:href="#a"/><use xlink:href="#b" x="3.996" y="43.395"/><use xlink:href="#3"/><use xlink:href="#4" y="2.171"/><use xlink:href="#5" y="4.342"/><use xlink:href="#6" y="6.513"/><use xlink:href="#7" y="8.684"/><use xlink:href="#1" y="10.855"/><use xlink:href="#2" y="13.026"/><use xlink:href="#3" y="15.197"/><use xlink:href="#4" y="17.368"/><use xlink:href="#5" y="19.539"/><use xlink:href="#11" y="21.71"/><use xlink:href="#6" y="23.881"/><use xlink:href="#12" y="26.052"/><use xlink:href="#1" y="28.223"/><use xlink:href="#2" y="30.394"/><use xlink:href="#3" y="32.565"/><use xlink:href="#4" y="34.736"/><use xlink:href="#5" y="36.907"/><use xlink:href="#14" y="39.078"/><use xlink:href="#6" y="41.249"/></svg><svg x="2660"><use xlink:href="#a"/><use xlink:href="#b" x="10.996" y="43.395"/><use xlink:href="#4"/><use xlink:href="#5" y="2.171"/><use xlink:href="#6" y="4.342"/><use xlink:href="#7" y="6.513"/><use xlink:href="#1" y="8.684"/><use xlink:href="#2" y="10.855"/><use xlink:href="#3" y="13.026"/><use xlink:href="#4" y="15.197"/><use xlink:href="#5" y="17.368"/><use xlink:href="#11" y="19.539"/><use xlink:href="#6" y="21.71"/><use xlink:href="#12" y="23.881"/><use xlink:href="#1" y="26.052"/><use xlink:href="#2" y="28.223"/><use xlink:href="#3" y="30.394"/><use xlink:href="#4" y="32.565"/><use xlink:href="#5" y="34.736"/><use xlink:href="#14" y="36.907"/><use xlink:href="#6" y="39.078"/><use xlink:href="#15" y="41.249"/><text y="45.09" class="f">kafka-topic</text></svg><svg x="2800"><use xlink:href="#a"/><use xlink:href="#b" x="35.996" y="43.395"/><use xlink:href="#5"/><use xlink:href="#6" y="2.171"/><use xlink:href="#7" y="4.342"/><use xlink:href="#1" y="6.513"/><use xlink:href="#2" y="8.684"/><use xlink:href="#3" y="10.855"/><use xlink:href="#4" y="13.026"/><use xlink:href="#5" y="15.197"/><use xlink:href="#11" y="17.368"/><use xlink:href="#6" y="19.539"/><use xlink:href="#12" y="21.71"/><use xlink:href="#1" y="23.881"/><use xlink:href="#2" y="26.052"/><use xlink:href="#3" y="28.223"/><use xlink:href="#4" y="30.394"/><use xlink:href="#5" y="32.565"/><use xlink:href="#14" y="34.736"/><use xlink:href="#6" y="36.907"/><use xlink:href="#15" y="39.078"/><use xlink:href="#1" y="41.249"/><text x="4.008" y="45.09" class="f">--bootstrap-server</text><text x="23.046" y="45.09" class="f">localhost:696</text></svg><svg x="2940"><use xlink:href="#a"/><use xlink:href="#b" x="35.996" y="43.395"/><use xlink:href="#6"/><use xlink:href="#7" y="2.171"/><use xlink:href="#1" y="4.342"/><use xlink:href="#2" y="6.513"/><use xlink:href="#3" y="8.684"/><use xlink:href="#4" y="10.855"/><use xlink:href="#5" y="13.026"/><use xlink:href="#11" y="15.197"/><use xlink:href="#6" y="17.368"/><use xlink:href="#12" y="19.539"/><use xlink:href="#1" y="21.71"/><use xlink:href="#2" y="23.881"/><use xlink:href="#3" y="26.052"/><use xlink:href="#4" y="28.223"/><use xlink:href="#5" y="30.394"/><use xlink:href="#14" y="32.565"/><use xlink:href="#6" y="34.736"/><use xlink:href="#15" y="36.907"/><use xlink:href="#1" y="39.078"/><use xlink:href="#2" y="41.249"/><text x="4.008" y="45.09" class="f">--command-config</text><text x="21.042" y="45.09" class="f">teamA-sa.proper</text></svg><svg x="3080"><use xlink:href="#a"/><use xlink:href="#b" x="3.996" y="43.395"/><use xlink:href="#1"/><use xlink:href="#2" y="2.171"/><use xlink:href="#3" y="4.342"/><use xlink:href="#4" y="6.513"/><use xlink:href="#5" y="8.684"/><use xlink:href="#11" y="10.855"/><use xlink:href="#6" y="13.026"/><use xlink:href="#12" y="15.197"/><use xlink:href="#1" y="17.368"/><use xlink:href="#2" y="19.539"/><use xlink:href="#3" y="21.71"/><use xlink:href="#4" y="23.881"/><use xlink:href="#5" y="26.052"/><use xlink:href="#14" y="28.223"/><use xlink:href="#6" y="30.394"/><use xlink:href="#15" y="32.565"/><use xlink:href="#1" y="34.736"/><use xlink:href="#2" y="36.907"/><use xlink:href="#3" y="39.078"/><use xlink:href="#4" y="41.249"/></svg><svg x="3220"><use xlink:href="#a"/><use xlink:href="#b" x="22.996" y="43.395"/><use xlink:href="#2"/><use xlink:href="#3" y="2.171"/><use xlink:href="#4" y="4.342"/><use xlink:href="#5" y="6.513"/><use xlink:href="#11" y="8.684"/><use xlink:href="#6" y="10.855"/><use xlink:href="#12" y="13.026"/><use xlink:href="#1" y="15.197"/><use xlink:href="#2" y="17.368"/><use xlink:href="#3" y="19.539"/><use xlink:href="#4" y="21.71"/><use xlink:href="#5" y="23.881"/><use xlink:href="#14" y="26.052"/><use xlink:href="#6" y="28.223"/><use xlink:href="#15" y="30.394"/><use xlink:href="#1" y="32.565"/><use xlink:href="#2" y="34.736"/><use xlink:href="#3" y="36.907"/><use xlink:href="#4" y="39.078"/><use xlink:href="#5" y="41.249"/><text x="4.008" y="45.09" class="f">--config</text><text x="13.026" y="45.09" class="f">cleanup.po</text></svg><svg x="3360"><use xlink:href="#a"/><use xlink:href="#b" x="17.996" y="43.395"/><use xlink:href="#3"/><use xlink:href="#4" y="2.171"/><use xlink:href="#5" y="4.342"/><use xlink:href="#11" y="6.513"/><use xlink:href="#6" y="8.684"/><use xlink:href="#12" y="10.855"/><use xlink:href="#1" y="13.026"/><use xlink:href="#2" y="15.197"/><use xlink:href="#3" y="17.368"/><use xlink:href="#4" y="19.539"/><use xlink:href="#5" y="21.71"/><use xlink:href="#14" y="23.881"/><use xlink:href="#6" y="26.052"/><use xlink:href="#15" y="28.223"/><use xlink:href="#1" y="30.394"/><use xlink:href="#2" y="32.565"/><use xlink:href="#3" y="34.736"/><use xlink:href="#4" y="36.907"/><use xlink:href="#5" y="39.078"/><use xlink:href="#16" y="41.249"/><text x="4.008" y="45.09" class="f">--create</text><text x="13.026" y="45.09" class="f">--if-</text></svg><svg x="3500"><use xlink:href="#a"/><use xlink:href="#b" x="26.996" y="43.395"/><use xlink:href="#4"/><use xlink:href="#5" y="2.171"/><use xlink:href="#11" y="4.342"/><use xlink:href="#6" y="6.513"/><use xlink:href="#12" y="8.684"/><use xlink:href="#1" y="10.855"/><use xlink:href="#2" y="13.026"/><use xlink:href="#3" y="15.197"/><use xlink:href="#4" y="17.368"/><use xlink:href="#5" y="19.539"/><use xlink:href="#14" y="21.71"/><use xlink:href="#6" y="23.881"/><use xlink:href="#15" y="26.052"/><use xlink:href="#1" y="28.223"/><use xlink:href="#2" y="30.394"/><use xlink:href="#3" y="32.565"/><use xlink:href="#4" y="34.736"/><use xlink:href="#5" y="36.907"/><use xlink:href="#16" y="39.078"/><use xlink:href="#6" y="41.249"/><text x="4.008" y="45.09" class="f">--topic</text><text x="12.024" y="45.09" class="f">concentrated-de</text></svg><svg x="3640"><use xlink:href="#a"/><use xlink:href="#b" x="11.996" y="43.395"/><use xlink:href="#11"/><use xlink:href="#6" y="2.171"/><use xlink:href="#12" y="4.342"/><use xlink:href="#1" y="6.513"/><use xlink:href="#2" y="8.684"/><use xlink:href="#3" y="10.855"/><use xlink:href="#4" y="13.026"/><use xlink:href="#5" y="15.197"/><use xlink:href="#14" y="17.368"/><use xlink:href="#6" y="19.539"/><use xlink:href="#15" y="21.71"/><use xlink:href="#1" y="23.881"/><use xlink:href="#2" y="26.052"/><use xlink:href="#3" y="28.223"/><use xlink:href="#4" y="30.394"/><use xlink:href="#5" y="32.565"/><use xlink:href="#16" y="34.736"/><use xlink:href="#6" y="36.907"/><use xlink:href="#17" y="39.078"/><use xlink:href="#1" y="41.249"/><text x="4.008" y="45.09" class="f">--bootst</text></svg><svg x="3780"><use xlink:href="#a"/><use xlink:href="#b" x="11.996" y="43.395"/><use xlink:href="#6"/><use xlink:href="#12" y="2.171"/><use xlink:href="#1" y="4.342"/><use xlink:href="#2" y="6.513"/><use xlink:href="#3" y="8.684"/><use xlink:href="#4" y="10.855"/><use xlink:href="#5" y="13.026"/><use xlink:href="#14" y="15.197"/><use xlink:href="#6" y="17.368"/><use xlink:href="#15" y="19.539"/><use xlink:href="#1" y="21.71"/><use xlink:href="#2" y="23.881"/><use xlink:href="#3" y="26.052"/><use xlink:href="#4" y="28.223"/><use xlink:href="#5" y="30.394"/><use xlink:href="#16" y="32.565"/><use xlink:href="#6" y="34.736"/><use xlink:href="#17" y="36.907"/><use xlink:href="#1" y="39.078"/><use xlink:href="#2" y="41.249"/><text x="4.008" y="45.09" class="f">--comman</text></svg><svg x="3920"><use xlink:href="#a"/><use xlink:href="#b" x="8.996" y="43.395"/><use xlink:href="#12"/><use xlink:href="#1" y="2.171"/><use xlink:href="#2" y="4.342"/><use xlink:href="#3" y="6.513"/><use xlink:href="#4" y="8.684"/><use xlink:href="#5" y="10.855"/><use xlink:href="#14" y="13.026"/><use xlink:href="#6" y="15.197"/><use xlink:href="#15" y="17.368"/><use xlink:href="#1" y="19.539"/><use xlink:href="#2" y="21.71"/><use xlink:href="#3" y="23.881"/><use xlink:href="#4" y="26.052"/><use xlink:href="#5" y="28.223"/><use xlink:href="#16" y="30.394"/><use xlink:href="#6" y="32.565"/><use xlink:href="#17" y="34.736"/><use xlink:href="#1" y="36.907"/><use xlink:href="#2" y="39.078"/><use xlink:href="#3" y="41.249"/><text x="4.008" y="45.09" class="f">--rep</text></svg><svg x="4060"><use xlink:href="#a"/><use xlink:href="#b" x="19.996" y="43.395"/><use xlink:href="#1"/><use xlink:href="#2" y="2.171"/><use xlink:href="#3" y="4.342"/><use xlink:href="#4" y="6.513"/><use xlink:href="#5" y="8.684"/><use xlink:href="#14" y="10.855"/><use xlink:href="#6" y="13.026"/><use xlink:href="#15" y="15.197"/><use xlink:href="#1" y="17.368"/><use xlink:href="#2" y="19.539"/><use xlink:href="#3" y="21.71"/><use xlink:href="#4" y="23.881"/><use xlink:href="#5" y="26.052"/><use xlink:href="#16" y="28.223"/><use xlink:href="#6" y="30.394"/><use xlink:href="#17" y="32.565"/><use xlink:href="#1" y="34.736"/><use xlink:href="#2" y="36.907"/><use xlink:href="#3" y="39.078"/><use xlink:href="#4" y="41.249"/><use xlink:href="#5" y="43.42"/></svg><svg x="4200"><use xlink:href="#a"/><use xlink:href="#b" x="38.996" y="43.395"/><use xlink:href="#2"/><use xlink:href="#3" y="2.171"/><use xlink:href="#4" y="4.342"/><use xlink:href="#5" y="6.513"/><use xlink:href="#14" y="8.684"/><use xlink:href="#6" y="10.855"/><use xlink:href="#15" y="13.026"/><use xlink:href="#1" y="15.197"/><use xlink:href="#2" y="17.368"/><use xlink:href="#3" y="19.539"/><use xlink:href="#4" y="21.71"/><use xlink:href="#5" y="23.881"/><use xlink:href="#16" y="26.052"/><use xlink:href="#6" y="28.223"/><use xlink:href="#17" y="30.394"/><use xlink:href="#1" y="32.565"/><use xlink:href="#2" y="34.736"/><use xlink:href="#3" y="36.907"/><use xlink:href="#4" y="39.078"/><use xlink:href="#5" y="41.249"/><text x="4.008" y="45.09" class="f">--config</text><text x="13.026" y="45.09" class="f">cleanup.policy=compact,del</text></svg><svg x="4340"><use xlink:href="#a"/><use xlink:href="#b" x="2.996" y="43.395"/><use xlink:href="#4"/><use xlink:href="#5" y="2.171"/><use xlink:href="#14" y="4.342"/><use xlink:href="#6" y="6.513"/><use xlink:href="#15" y="8.684"/><use xlink:href="#1" y="10.855"/><use xlink:href="#2" y="13.026"/><use xlink:href="#3" y="15.197"/><use xlink:href="#4" y="17.368"/><use xlink:href="#5" y="19.539"/><use xlink:href="#16" y="21.71"/><use xlink:href="#6" y="23.881"/><use xlink:href="#17" y="26.052"/><use xlink:href="#1" y="28.223"/><use xlink:href="#2" y="30.394"/><use xlink:href="#3" y="32.565"/><use xlink:href="#4" y="34.736"/><use xlink:href="#5" y="36.907"/><use xlink:href="#18" y="39.078"/><use xlink:href="#6" y="41.249"/></svg><svg x="4480"><use xlink:href="#a"/><use xlink:href="#b" x="2.996" y="43.395"/><use xlink:href="#5"/><use xlink:href="#14" y="2.171"/><use xlink:href="#6" y="4.342"/><use xlink:href="#15" y="6.513"/><use xlink:href="#1" y="8.684"/><use xlink:href="#2" y="10.855"/><use xlink:href="#3" y="13.026"/><use xlink:href="#4" y="15.197"/><use xlink:href="#5" y="17.368"/><use xlink:href="#16" y="19.539"/><use xlink:href="#6" y="21.71"/><use xlink:href="#17" y="23.881"/><use xlink:href="#1" y="26.052"/><use xlink:href="#2" y="28.223"/><use xlink:href="#3" y="30.394"/><use xlink:href="#4" y="32.565"/><use xlink:href="#5" y="34.736"/><use xlink:href="#18" y="36.907"/><use xlink:href="#6" y="39.078"/><use xlink:href="#19" y="41.249"/><text y="45.09" class="f">kaf</text></svg><svg x="4620"><use xlink:href="#a"/><use xlink:href="#b" x="27.996" y="43.395"/><use xlink:href="#14"/><use xlink:href="#6" y="2.171"/><use xlink:href="#15" y="4.342"/><use xlink:href="#1" y="6.513"/><use xlink:href="#2" y="8.684"/><use xlink:href="#3" y="10.855"/><use xlink:href="#4" y="13.026"/><use xlink:href="#5" y="15.197"/><use xlink:href="#16" y="17.368"/><use xlink:href="#6" y="19.539"/><use xlink:href="#17" y="21.71"/><use xlink:href="#1" y="23.881"/><use xlink:href="#2" y="26.052"/><use xlink:href="#3" y="28.223"/><use xlink:href="#4" y="30.394"/><use xlink:href="#5" y="32.565"/><use xlink:href="#18" y="34.736"/><use xlink:href="#6" y="36.907"/><use xlink:href="#19" y="39.078"/><use xlink:href="#1" y="41.249"/><text x="4.008" y="45.09" class="f">--bootstrap-server</text><text x="23.046" y="45.09" class="f">local</text></svg><svg x="4760"><use xlink:href="#a"/><use xlink:href="#b" x="27.996" y="43.395"/><use xlink:href="#6"/><use xlink:href="#15" y="2.171"/><use xlink:href="#1" y="4.342"/><use xlink:href="#2" y="6.513"/><use xlink:href="#3" y="8.684"/><use xlink:href="#4" y="10.855"/><use xlink:href="#5" y="13.026"/><use xlink:href="#16" y="15.197"/><use xlink:href="#6" y="17.368"/><use xlink:href="#17" y="19.539"/><use xlink:href="#1" y="21.71"/><use xlink:href="#2" y="23.881"/><use xlink:href="#3" y="26.052"/><use xlink:href="#4" y="28.223"/><use xlink:href="#5" y="30.394"/><use xlink:href="#18" y="32.565"/><use xlink:href="#6" y="34.736"/><use xlink:href="#19" y="36.907"/><use xlink:href="#1" y="39.078"/><use xlink:href="#2" y="41.249"/><text x="4.008" y="45.09" class="f">--command-config</text><text x="21.042" y="45.09" class="f">teamA-s</text></svg><svg x="4900"><use xlink:href="#a"/><use xlink:href="#b" x="24.996" y="43.395"/><use xlink:href="#15"/><use xlink:href="#1" y="2.171"/><use xlink:href="#2" y="4.342"/><use xlink:href="#3" y="6.513"/><use xlink:href="#4" y="8.684"/><use xlink:href="#5" y="10.855"/><use xlink:href="#16" y="13.026"/><use xlink:href="#6" y="15.197"/><use xlink:href="#17" y="17.368"/><use xlink:href="#1" y="19.539"/><use xlink:href="#2" y="21.71"/><use xlink:href="#3" y="23.881"/><use xlink:href="#4" y="26.052"/><use xlink:href="#5" y="28.223"/><use xlink:href="#18" y="30.394"/><use xlink:href="#6" y="32.565"/><use xlink:href="#19" y="34.736"/><use xlink:href="#1" y="36.907"/><use xlink:href="#2" y="39.078"/><use xlink:href="#3" y="41.249"/><text x="4.008" y="45.09" class="f">--replication-factor</text></svg><svg x="5040"><use xlink:href="#a"/><use xlink:href="#b" x="14.996" y="43.395"/><use xlink:href="#2"/><use xlink:href="#3" y="2.171"/><use xlink:href="#4" y="4.342"/><use xlink:href="#5" y="6.513"/><use xlink:href="#16" y="8.684"/><use xlink:href="#6" y="10.855"/><use xlink:href="#17" y="13.026"/><use xlink:href="#1" y="15.197"/><use xlink:href="#2" y="17.368"/><use xlink:href="#3" y="19.539"/><use xlink:href="#4" y="21.71"/><use xlink:href="#5" y="23.881"/><use xlink:href="#18" y="26.052"/><use xlink:href="#6" y="28.223"/><use xlink:href="#19" y="30.394"/><use xlink:href="#1" y="32.565"/><use xlink:href="#2" y="34.736"/><use xlink:href="#3" y="36.907"/><use xlink:href="#4" y="39.078"/><use xlink:href="#5" y="41.249"/><text x="4.008" y="45.09" class="f">--config</text><text x="13.026" y="45.09" class="f">re</text></svg><svg x="5180"><use xlink:href="#a"/><use xlink:href="#b" x="20.996" y="43.395"/><use xlink:href="#3"/><use xlink:href="#4" y="2.171"/><use xlink:href="#5" y="4.342"/><use xlink:href="#16" y="6.513"/><use xlink:href="#6" y="8.684"/><use xlink:href="#17" y="10.855"/><use xlink:href="#1" y="13.026"/><use xlink:href="#2" y="15.197"/><use xlink:href="#3" y="17.368"/><use xlink:href="#4" y="19.539"/><use xlink:href="#5" y="21.71"/><use xlink:href="#18" y="23.881"/><use xlink:href="#6" y="26.052"/><use xlink:href="#19" y="28.223"/><use xlink:href="#1" y="30.394"/><use xlink:href="#2" y="32.565"/><use xlink:href="#3" y="34.736"/><use xlink:href="#4" y="36.907"/><use xlink:href="#5" y="39.078"/><use xlink:href="#20" y="41.249"/><text x="4.008" y="45.09" class="f">--create</text><text x="13.026" y="45.09" class="f">--if-not</text></svg><svg x="5320"><use xlink:href="#a"/><use xlink:href="#b" x="29.996" y="43.395"/><use xlink:href="#4"/><use xlink:href="#5" y="2.171"/><use xlink:href="#16" y="4.342"/><use xlink:href="#6" y="6.513"/><use xlink:href="#17" y="8.684"/><use xlink:href="#1" y="10.855"/><use xlink:href="#2" y="13.026"/><use xlink:href="#3" y="15.197"/><use xlink:href="#4" y="17.368"/><use xlink:href="#5" y="19.539"/><use xlink:href="#18" y="21.71"/><use xlink:href="#6" y="23.881"/><use xlink:href="#19" y="26.052"/><use xlink:href="#1" y="28.223"/><use xlink:href="#2" y="30.394"/><use xlink:href="#3" y="32.565"/><use xlink:href="#4" y="34.736"/><use xlink:href="#5" y="36.907"/><use xlink:href="#20" y="39.078"/><use xlink:href="#6" y="41.249"/><text x="4.008" y="45.09" class="f">--topic</text><text x="12.024" y="45.09" class="f">concentrated-small</text></svg><svg x="5460"><use xlink:href="#a"/><use xlink:href="#b" x="13.996" y="43.395"/><use xlink:href="#16"/><use xlink:href="#6" y="2.171"/><use xlink:href="#17" y="4.342"/><use xlink:href="#1" y="6.513"/><use xlink:href="#2" y="8.684"/><use xlink:href="#3" y="10.855"/><use xlink:href="#4" y="13.026"/><use xlink:href="#5" y="15.197"/><use xlink:href="#18" y="17.368"/><use xlink:href="#6" y="19.539"/><use xlink:href="#19" y="21.71"/><use xlink:href="#1" y="23.881"/><use xlink:href="#2" y="26.052"/><use xlink:href="#3" y="28.223"/><use xlink:href="#4" y="30.394"/><use xlink:href="#5" y="32.565"/><use xlink:href="#20" y="34.736"/><use xlink:href="#6" y="36.907"/><use xlink:href="#21" y="39.078"/><use xlink:href="#1" y="41.249"/><use xlink:href="#8" y="43.42"/></svg><svg x="5600"><use xlink:href="#a"/><use xlink:href="#b" x="13.996" y="43.395"/><use xlink:href="#6"/><use xlink:href="#17" y="2.171"/><use xlink:href="#1" y="4.342"/><use xlink:href="#2" y="6.513"/><use xlink:href="#3" y="8.684"/><use xlink:href="#4" y="10.855"/><use xlink:href="#5" y="13.026"/><use xlink:href="#18" y="15.197"/><use xlink:href="#6" y="17.368"/><use xlink:href="#19" y="19.539"/><use xlink:href="#1" y="21.71"/><use xlink:href="#2" y="23.881"/><use xlink:href="#3" y="26.052"/><use xlink:href="#4" y="28.223"/><use xlink:href="#5" y="30.394"/><use xlink:href="#20" y="32.565"/><use xlink:href="#6" y="34.736"/><use xlink:href="#21" y="36.907"/><use xlink:href="#1" y="39.078"/><use xlink:href="#2" y="41.249"/><use xlink:href="#9" y="43.42"/></svg><svg x="5740"><use xlink:href="#a"/><use xlink:href="#b" x="10.996" y="43.395"/><use xlink:href="#17"/><use xlink:href="#1" y="2.171"/><use xlink:href="#2" y="4.342"/><use xlink:href="#3" y="6.513"/><use xlink:href="#4" y="8.684"/><use xlink:href="#5" y="10.855"/><use xlink:href="#18" y="13.026"/><use xlink:href="#6" y="15.197"/><use xlink:href="#19" y="17.368"/><use xlink:href="#1" y="19.539"/><use xlink:href="#2" y="21.71"/><use xlink:href="#3" y="23.881"/><use xlink:href="#4" y="26.052"/><use xlink:href="#5" y="28.223"/><use xlink:href="#20" y="30.394"/><use xlink:href="#6" y="32.565"/><use xlink:href="#21" y="34.736"/><use xlink:href="#1" y="36.907"/><use xlink:href="#2" y="39.078"/><use xlink:href="#3" y="41.249"/><use xlink:href="#10" y="43.42"/></svg><svg x="5880"><use xlink:href="#a"/><use xlink:href="#b" x=".996" y="43.395"/><use xlink:href="#2"/><use xlink:href="#3" y="2.171"/><use xlink:href="#4" y="4.342"/><use xlink:href="#5" y="6.513"/><use xlink:href="#18" y="8.684"/><use xlink:href="#6" y="10.855"/><use xlink:href="#19" y="13.026"/><use xlink:href="#1" y="15.197"/><use xlink:href="#2" y="17.368"/><use xlink:href="#3" y="19.539"/><use xlink:href="#4" y="21.71"/><use xlink:href="#5" y="23.881"/><use xlink:href="#20" y="26.052"/><use xlink:href="#6" y="28.223"/><use xlink:href="#21" y="30.394"/><use xlink:href="#1" y="32.565"/><use xlink:href="#2" y="34.736"/><use xlink:href="#3" y="36.907"/><use xlink:href="#4" y="39.078"/><use xlink:href="#5" y="41.249"/></svg><svg x="6020"><use xlink:href="#a"/><use xlink:href="#b" x="1.996" y="43.395"/><use xlink:href="#3"/><use xlink:href="#4" y="2.171"/><use xlink:href="#5" y="4.342"/><use xlink:href="#18" y="6.513"/><use xlink:href="#6" y="8.684"/><use xlink:href="#19" y="10.855"/><use xlink:href="#1" y="13.026"/><use xlink:href="#2" y="15.197"/><use xlink:href="#3" y="17.368"/><use xlink:href="#4" y="19.539"/><use xlink:href="#5" y="21.71"/><use xlink:href="#20" y="23.881"/><use xlink:href="#6" y="26.052"/><use xlink:href="#21" y="28.223"/><use xlink:href="#1" y="30.394"/><use xlink:href="#2" y="32.565"/><use xlink:href="#3" y="34.736"/><use xlink:href="#4" y="36.907"/><use xlink:href="#5" y="39.078"/><use xlink:href="#22" y="41.249"/></svg><svg x="6160"><use xlink:href="#a"/><use xlink:href="#b" x="10.996" y="43.395"/><use xlink:href="#4"/><use xlink:href="#5" y="2.171"/><use xlink:href="#18" y="4.342"/><use xlink:href="#6" y="6.513"/><use xlink:href="#19" y="8.684"/><use xlink:href="#1" y="10.855"/><use xlink:href="#2" y="13.026"/><use xlink:href="#3" y="15.197"/><use xlink:href="#4" y="17.368"/><use xlink:href="#5" y="19.539"/><use xlink:href="#20" y="21.71"/><use xlink:href="#6" y="23.881"/><use xlink:href="#21" y="26.052"/><use xlink:href="#1" y="28.223"/><use xlink:href="#2" y="30.394"/><use xlink:href="#3" y="32.565"/><use xlink:href="#4" y="34.736"/><use xlink:href="#5" y="36.907"/><use xlink:href="#22" y="39.078"/><use xlink:href="#6" y="41.249"/><text x="4.008" y="45.09" class="f">--topic</text></svg><svg x="6300"><use xlink:href="#a"/><use xlink:href="#b" x="-.004" y="43.395"/><use xlink:href="#5"/><use xlink:href="#18" y="2.171"/><use xlink:href="#6" y="4.342"/><use xlink:href="#19" y="6.513"/><use xlink:href="#1" y="8.684"/><use xlink:href="#2" y="10.855"/><use xlink:href="#3" y="13.026"/><use xlink:href="#4" y="15.197"/><use xlink:href="#5" y="17.368"/><use xlink:href="#20" y="19.539"/><use xlink:href="#6" y="21.71"/><use xlink:href="#21" y="23.881"/><use xlink:href="#1" y="26.052"/><use xlink:href="#2" y="28.223"/><use xlink:href="#3" y="30.394"/><use xlink:href="#4" y="32.565"/><use xlink:href="#5" y="34.736"/><use xlink:href="#22" y="36.907"/><use xlink:href="#6" y="39.078"/><use xlink:href="#23" y="41.249"/></svg><svg x="6440"><use xlink:href="#a"/><use xlink:href="#b" x="-.004" y="43.395"/><use xlink:href="#18"/><use xlink:href="#6" y="2.171"/><use xlink:href="#19" y="4.342"/><use xlink:href="#1" y="6.513"/><use xlink:href="#2" y="8.684"/><use xlink:href="#3" y="10.855"/><use xlink:href="#4" y="13.026"/><use xlink:href="#5" y="15.197"/><use xlink:href="#20" y="17.368"/><use xlink:href="#6" y="19.539"/><use xlink:href="#21" y="21.71"/><use xlink:href="#1" y="23.881"/><use xlink:href="#2" y="26.052"/><use xlink:href="#3" y="28.223"/><use xlink:href="#4" y="30.394"/><use xlink:href="#5" y="32.565"/><use xlink:href="#22" y="34.736"/><use xlink:href="#6" y="36.907"/><use xlink:href="#23" y="39.078"/></svg><svg x="6580"><use xlink:href="#a"/><use xlink:href="#b" x="-.004" y="43.395"/><use xlink:href="#6"/><use xlink:href="#19" y="2.171"/><use xlink:href="#1" y="4.342"/><use xlink:href="#2" y="6.513"/><use xlink:href="#3" y="8.684"/><use xlink:href="#4" y="10.855"/><use xlink:href="#5" y="13.026"/><use xlink:href="#20" y="15.197"/><use xlink:href="#6" y="17.368"/><use xlink:href="#21" y="19.539"/><use xlink:href="#1" y="21.71"/><use xlink:href="#2" y="23.881"/><use xlink:href="#3" y="26.052"/><use xlink:href="#4" y="28.223"/><use xlink:href="#5" y="30.394"/><use xlink:href="#22" y="32.565"/><use xlink:href="#6" y="34.736"/><use xlink:href="#23" y="36.907"/><use xlink:href="#24" y="41.249"/></svg><svg x="6720"><use xlink:href="#a"/><use xlink:href="#b" x="-.004" y="43.395"/><use xlink:href="#19"/><use xlink:href="#1" y="2.171"/><use xlink:href="#2" y="4.342"/><use xlink:href="#3" y="6.513"/><use xlink:href="#4" y="8.684"/><use xlink:href="#5" y="10.855"/><use xlink:href="#20" y="13.026"/><use xlink:href="#6" y="15.197"/><use xlink:href="#21" y="17.368"/><use xlink:href="#1" y="19.539"/><use xlink:href="#2" y="21.71"/><use xlink:href="#3" y="23.881"/><use xlink:href="#4" y="26.052"/><use xlink:href="#5" y="28.223"/><use xlink:href="#22" y="30.394"/><use xlink:href="#6" y="32.565"/><use xlink:href="#23" y="34.736"/><use xlink:href="#24" y="39.078"/><use xlink:href="#25" y="41.249"/></svg><svg x="6860"><use xlink:href="#a"/><use xlink:href="#b" x="-.004" y="43.395"/><use xlink:href="#1"/><use xlink:href="#2" y="2.171"/><use xlink:href="#3" y="4.342"/><use xlink:href="#4" y="6.513"/><use xlink:href="#5" y="8.684"/><use xlink:href="#20" y="10.855"/><use xlink:href="#6" y="13.026"/><use xlink:href="#21" y="15.197"/><use xlink:href="#1" y="17.368"/><use xlink:href="#2" y="19.539"/><use xlink:href="#3" y="21.71"/><use xlink:href="#4" y="23.881"/><use xlink:href="#5" y="26.052"/><use xlink:href="#22" y="28.223"/><use xlink:href="#6" y="30.394"/><use xlink:href="#23" y="32.565"/><use xlink:href="#24" y="36.907"/><use xlink:href="#25" y="39.078"/><use xlink:href="#26" y="41.249"/></svg><svg x="7000"><use xlink:href="#a"/><use xlink:href="#b" x="-.004" y="43.395"/><use xlink:href="#2"/><use xlink:href="#3" y="2.171"/><use xlink:href="#4" y="4.342"/><use xlink:href="#5" y="6.513"/><use xlink:href="#20" y="8.684"/><use xlink:href="#6" y="10.855"/><use xlink:href="#21" y="13.026"/><use xlink:href="#1" y="15.197"/><use xlink:href="#2" y="17.368"/><use xlink:href="#3" y="19.539"/><use xlink:href="#4" y="21.71"/><use xlink:href="#5" y="23.881"/><use xlink:href="#22" y="26.052"/><use xlink:href="#6" y="28.223"/><use xlink:href="#23" y="30.394"/><use xlink:href="#24" y="34.736"/><use xlink:href="#25" y="36.907"/><use xlink:href="#26" y="39.078"/><use xlink:href="#27" y="41.249"/></svg><svg x="7140"><use xlink:href="#a"/><use xlink:href="#b" x="-.004" y="43.395"/><use xlink:href="#3"/><use xlink:href="#4" y="2.171"/><use xlink:href="#5" y="4.342"/><use xlink:href="#20" y="6.513"/><use xlink:href="#6" y="8.684"/><use xlink:href="#21" y="10.855"/><use xlink:href="#1" y="13.026"/><use xlink:href="#2" y="15.197"/><use xlink:href="#3" y="17.368"/><use xlink:href="#4" y="19.539"/><use xlink:href="#5" y="21.71"/><use xlink:href="#22" y="23.881"/><use xlink:href="#6" y="26.052"/><use xlink:href="#23" y="28.223"/><use xlink:href="#24" y="32.565"/><use xlink:href="#25" y="34.736"/><use xlink:href="#26" y="36.907"/><use xlink:href="#27" y="39.078"/><use xlink:href="#28" y="41.249"/></svg><svg x="7280"><use xlink:href="#a"/><use xlink:href="#b" x="-.004" y="43.395"/><use xlink:href="#4"/><use xlink:href="#5" y="2.171"/><use xlink:href="#20" y="4.342"/><use xlink:href="#6" y="6.513"/><use xlink:href="#21" y="8.684"/><use xlink:href="#1" y="10.855"/><use xlink:href="#2" y="13.026"/><use xlink:href="#3" y="15.197"/><use xlink:href="#4" y="17.368"/><use xlink:href="#5" y="19.539"/><use xlink:href="#22" y="21.71"/><use xlink:href="#6" y="23.881"/><use xlink:href="#23" y="26.052"/><use xlink:href="#24" y="30.394"/><use xlink:href="#25" y="32.565"/><use xlink:href="#26" y="34.736"/><use xlink:href="#27" y="36.907"/><use xlink:href="#28" y="39.078"/><use xlink:href="#29" y="41.249"/></svg><svg x="7420"><use xlink:href="#a"/><use xlink:href="#b" x="-.004" y="43.395"/><use xlink:href="#5"/><use xlink:href="#20" y="2.171"/><use xlink:href="#6" y="4.342"/><use xlink:href="#21" y="6.513"/><use xlink:href="#1" y="8.684"/><use xlink:href="#2" y="10.855"/><use xlink:href="#3" y="13.026"/><use xlink:href="#4" y="15.197"/><use xlink:href="#5" y="17.368"/><use xlink:href="#22" y="19.539"/><use xlink:href="#6" y="21.71"/><use xlink:href="#23" y="23.881"/><use xlink:href="#24" y="28.223"/><use xlink:href="#25" y="30.394"/><use xlink:href="#26" y="32.565"/><use xlink:href="#27" y="34.736"/><use xlink:href="#28" y="36.907"/><use xlink:href="#29" y="39.078"/><text y="42.919" class="g">Created</text><text x="8.016" y="42.919" class="g">topic</text><text x="14.028" y="42.919" class="g">concentrated-large-retention.</text></svg></svg></g></g></svg></svg>