<svg xmlns="http://www.w3.org/2000/svg" xmlns:xlink="http://www.w3.org/1999/xlink" width="1440" height="320.52"><rect width="1440" height="320.52" rx="5" ry="5" class="a"/><svg y="0%" x="0%"><circle cx="20" cy="20" r="6" fill="#ff5f58"/><circle cx="40" cy="20" r="6" fill="#ffbd2e"/><circle cx="60" cy="20" r="6" fill="#18c132"/></svg><svg height="260.52" viewBox="0 0 140 26.052" width="1400" x="15" xmlns="http://www.w3.org/2000/svg" xmlns:xlink="http://www.w3.org/1999/xlink" y="50"><style>@keyframes j{0%{transform:translateX(0)}.4%{transform:translateX(-280px)}2.2%{transform:translateX(-420px)}4%{transform:translateX(-560px)}7.5%{transform:translateX(-700px)}9.2%{transform:translateX(-840px)}11%{transform:translateX(-980px)}12.7%{transform:translateX(-1120px)}14.5%{transform:translateX(-1260px)}16.3%{transform:translateX(-1400px)}18.1%{transform:translateX(-1540px)}19.9%{transform:translateX(-1680px)}21.6%{transform:translateX(-1820px)}23.4%{transform:translateX(-1960px)}25.2%{transform:translateX(-2100px)}27%{transform:translateX(-2240px)}28.7%{transform:translateX(-2380px)}30.4%{transform:translateX(-2520px)}32.2%{transform:translateX(-2660px)}33.9%{transform:translateX(-2800px)}35.7%{transform:translateX(-2940px)}37.5%{transform:translateX(-3080px)}39.3%{transform:translateX(-3220px)}41%{transform:translateX(-3360px)}42.8%{transform:translateX(-3500px)}44.6%{transform:translateX(-3780px)}63%{transform:translateX(-4060px)}99.2%{transform:translateX(-4200px)}to{transform:translateX(-4340px)}}.a{fill:#282d35}.f,.g{fill:#fff;white-space:pre}.g{fill:#b9c0cb}</style><g font-family="Monaco,Consolas,Menlo,'Bitstream Vera Sans Mono','Powerline Symbols',monospace" font-size="1.67"><defs><symbol id="1"><text y="1.67" class="f">kafka-console-consumer</text><text x="23.046" y="1.67" class="f">\</text></symbol><symbol id="2"><text x="4.008" y="1.67" class="f">-</text></symbol><symbol id="3"><text x="4.008" y="1.67" class="f">--bootstrap-server</text><text x="23.046" y="1.67" class="f">localhost:6969</text><text x="38.076" y="1.67" class="f">\</text></symbol><symbol id="4"><text x="4.008" y="1.67" class="f">--consumer.config</text><text x="22.044" y="1.67" class="f">teamA-sa.properties</text><text x="42.084" y="1.67" class="f">\</text></symbol><symbol id="5"><text x="4.008" y="1.67" class="f">--topic</text><text x="12.024" y="1.67" class="f">concentrated-topic-with-100-partitions</text><text x="51.102" y="1.67" class="f">\</text></symbol><symbol id="6"><text x="4.008" y="1.67" class="f">--from-beginning</text><text x="21.042" y="1.67" class="f">\</text></symbol><symbol id="7"><text x="4.008" y="1.67" class="f">--timeout-ms</text><text x="17.034" y="1.67" class="f">10000</text><text x="23.046" y="1.67" class="f">\</text></symbol><symbol id="8"><text x="4.008" y="1.67" class="f">--property</text><text x="15.03" y="1.67" class="f">print.headers=true</text></symbol><symbol id="9"><text y="1.67" class="g">NO_HEADERS</text><text x="16.032" y="1.67" class="g">{&quot;msg&quot;:&quot;hello</text><text x="30.06" y="1.67" class="g">world&quot;}</text></symbol><symbol id="10"><text y="1.67" class="g">[2024-01-23</text><text x="12.024" y="1.67" class="g">03:10:18,628]</text><text x="26.052" y="1.67" class="g">ERROR</text><text x="32.064" y="1.67" class="g">Error</text><text x="38.076" y="1.67" class="g">processing</text><text x="49.098" y="1.67" class="g">message,</text><text x="58.116" y="1.67" class="g">terminating</text><text x="70.14" y="1.67" class="g">consumer</text><text x="79.158" y="1.67" class="g">process:</text><text x="89.178" y="1.67" class="g">(kafka.tools.ConsoleConsumer$)</text></symbol><symbol id="11"><text y="1.67" class="g">org.apache.kafka.common.errors.TimeoutException</text></symbol><symbol id="a"><path fill="transparent" d="M0 0h140v13H0z"/></symbol><symbol id="b"><path fill="#6f7683" d="M0 0h1.102v2.171H0z"/></symbol></defs><path class="a" d="M0 0h140v26.052H0z"/><g style="animation-duration:5.5241430000000005s;animation-iteration-count:infinite;animation-name:j;animation-timing-function:steps(1,end)"><svg width="4480"><svg><use xlink:href="#a"/><use xlink:href="#b" x="-.004"/></svg><svg x="140"><use xlink:href="#a"/><use xlink:href="#b" x="-.004"/></svg><svg x="280"><use xlink:href="#a"/><use xlink:href="#b" x="9.996"/><text y="1.67" class="f">kafka-cons</text></svg><svg x="420"><use xlink:href="#a"/><use xlink:href="#b" x="19.996"/><text y="1.67" class="f">kafka-console-consum</text></svg><svg x="560"><use xlink:href="#a"/><use xlink:href="#b" x="4.996" y="2.146"/><use xlink:href="#1"/><use xlink:href="#2" y="2.171"/></svg><svg x="700"><use xlink:href="#a"/><use xlink:href="#b" x="14.996" y="2.146"/><use xlink:href="#1"/><text x="4.008" y="3.841" class="f">--bootstrap</text></svg><svg x="840"><use xlink:href="#a"/><use xlink:href="#b" x="24.996" y="2.146"/><use xlink:href="#1"/><text x="4.008" y="3.841" class="f">--bootstrap-server</text><text x="23.046" y="3.841" class="f">lo</text></svg><svg x="980"><use xlink:href="#a"/><use xlink:href="#b" x="34.996" y="2.146"/><use xlink:href="#1"/><text x="4.008" y="3.841" class="f">--bootstrap-server</text><text x="23.046" y="3.841" class="f">localhost:69</text></svg><svg x="1120"><use xlink:href="#a"/><use xlink:href="#b" x="4.996" y="4.317"/><use xlink:href="#1"/><use xlink:href="#3" y="2.171"/><use xlink:href="#2" y="4.342"/></svg><svg x="1260"><use xlink:href="#a"/><use xlink:href="#b" x="14.996" y="4.317"/><use xlink:href="#1"/><use xlink:href="#3" y="2.171"/><text x="4.008" y="6.012" class="f">--consumer.</text></svg><svg x="1400"><use xlink:href="#a"/><use xlink:href="#b" x="24.996" y="4.317"/><use xlink:href="#1"/><use xlink:href="#3" y="2.171"/><text x="4.008" y="6.012" class="f">--consumer.config</text><text x="22.044" y="6.012" class="f">tea</text></svg><svg x="1540"><use xlink:href="#a"/><use xlink:href="#b" x="34.996" y="4.317"/><use xlink:href="#1"/><use xlink:href="#3" y="2.171"/><text x="4.008" y="6.012" class="f">--consumer.config</text><text x="22.044" y="6.012" class="f">teamA-sa.prop</text></svg><svg x="1680"><use xlink:href="#a"/><use xlink:href="#b" x=".996" y="6.488"/><use xlink:href="#1"/><use xlink:href="#3" y="2.171"/><use xlink:href="#4" y="4.342"/></svg><svg x="1820"><use xlink:href="#a"/><use xlink:href="#b" x="10.996" y="6.488"/><use xlink:href="#1"/><use xlink:href="#3" y="2.171"/><use xlink:href="#4" y="4.342"/><text x="4.008" y="8.183" class="f">--topic</text></svg><svg x="1960"><use xlink:href="#a"/><use xlink:href="#b" x="20.996" y="6.488"/><use xlink:href="#1"/><use xlink:href="#3" y="2.171"/><use xlink:href="#4" y="4.342"/><text x="4.008" y="8.183" class="f">--topic</text><text x="12.024" y="8.183" class="f">concentra</text></svg><svg x="2100"><use xlink:href="#a"/><use xlink:href="#b" x="30.996" y="6.488"/><use xlink:href="#1"/><use xlink:href="#3" y="2.171"/><use xlink:href="#4" y="4.342"/><text x="4.008" y="8.183" class="f">--topic</text><text x="12.024" y="8.183" class="f">concentrated-topic-</text></svg><svg x="2240"><use xlink:href="#a"/><use xlink:href="#b" x="40.996" y="6.488"/><use xlink:href="#1"/><use xlink:href="#3" y="2.171"/><use xlink:href="#4" y="4.342"/><text x="4.008" y="8.183" class="f">--topic</text><text x="12.024" y="8.183" class="f">concentrated-topic-with-100-p</text></svg><svg x="2380"><use xlink:href="#a"/><use xlink:href="#b" x="50.996" y="6.488"/><use xlink:href="#1"/><use xlink:href="#3" y="2.171"/><use xlink:href="#4" y="4.342"/><text x="4.008" y="8.183" class="f">--topic</text><text x="12.024" y="8.183" class="f">concentrated-topic-with-100-partitions</text></svg><svg x="2520"><use xlink:href="#a"/><use xlink:href="#b" x="7.996" y="8.659"/><use xlink:href="#1"/><use xlink:href="#3" y="2.171"/><use xlink:href="#4" y="4.342"/><use xlink:href="#5" y="6.513"/><text x="4.008" y="10.354" class="f">--fr</text></svg><svg x="2660"><use xlink:href="#a"/><use xlink:href="#b" x="17.996" y="8.659"/><use xlink:href="#1"/><use xlink:href="#3" y="2.171"/><use xlink:href="#4" y="4.342"/><use xlink:href="#5" y="6.513"/><text x="4.008" y="10.354" class="f">--from-beginni</text></svg><svg x="2800"><use xlink:href="#a"/><use xlink:href="#b" x="4.996" y="10.83"/><use xlink:href="#1"/><use xlink:href="#3" y="2.171"/><use xlink:href="#4" y="4.342"/><use xlink:href="#5" y="6.513"/><use xlink:href="#6" y="8.684"/><use xlink:href="#2" y="10.855"/></svg><svg x="2940"><use xlink:href="#a"/><use xlink:href="#b" x="14.996" y="10.83"/><use xlink:href="#1"/><use xlink:href="#3" y="2.171"/><use xlink:href="#4" y="4.342"/><use xlink:href="#5" y="6.513"/><use xlink:href="#6" y="8.684"/><text x="4.008" y="12.525" class="f">--timeout-m</text></svg><svg x="3080"><use xlink:href="#a"/><use xlink:href="#b" x="-.004" y="13.001"/><use xlink:href="#1"/><use xlink:href="#3" y="2.171"/><use xlink:href="#4" y="4.342"/><use xlink:href="#5" y="6.513"/><use xlink:href="#6" y="8.684"/><use xlink:href="#7" y="10.855"/></svg><svg x="3220"><use xlink:href="#a"/><use xlink:href="#b" x="9.996" y="13.001"/><use xlink:href="#1"/><use xlink:href="#3" y="2.171"/><use xlink:href="#4" y="4.342"/><use xlink:href="#5" y="6.513"/><use xlink:href="#6" y="8.684"/><use xlink:href="#7" y="10.855"/><text x="4.008" y="14.696" class="f">--prop</text></svg><svg x="3360"><use xlink:href="#a"/><use xlink:href="#b" x="19.996" y="13.001"/><use xlink:href="#1"/><use xlink:href="#3" y="2.171"/><use xlink:href="#4" y="4.342"/><use xlink:href="#5" y="6.513"/><use xlink:href="#6" y="8.684"/><use xlink:href="#7" y="10.855"/><text x="4.008" y="14.696" class="f">--property</text><text x="15.03" y="14.696" class="f">print</text></svg><svg x="3500"><use xlink:href="#a"/><use xlink:href="#b" x="29.996" y="13.001"/><use xlink:href="#1"/><use xlink:href="#3" y="2.171"/><use xlink:href="#4" y="4.342"/><use xlink:href="#5" y="6.513"/><use xlink:href="#6" y="8.684"/><use xlink:href="#7" y="10.855"/><text x="4.008" y="14.696" class="f">--property</text><text x="15.03" y="14.696" class="f">print.headers=t</text></svg><svg x="3640"><use xlink:href="#a"/><use xlink:href="#b" x="-.004" y="15.172"/><use xlink:href="#1"/><use xlink:href="#3" y="2.171"/><use xlink:href="#4" y="4.342"/><use xlink:href="#5" y="6.513"/><use xlink:href="#6" y="8.684"/><use xlink:href="#7" y="10.855"/><use xlink:href="#8" y="13.026"/></svg><svg x="3780"><use xlink:href="#a"/><use xlink:href="#b" x="-.004" y="17.343"/><use xlink:href="#1"/><use xlink:href="#3" y="2.171"/><use xlink:href="#4" y="4.342"/><use xlink:href="#5" y="6.513"/><use xlink:href="#6" y="8.684"/><use xlink:href="#7" y="10.855"/><use xlink:href="#8" y="13.026"/></svg><svg x="3920"><use xlink:href="#a"/><use xlink:href="#b" x="15.996" y="17.343"/><use xlink:href="#1"/><use xlink:href="#3" y="2.171"/><use xlink:href="#4" y="4.342"/><use xlink:href="#5" y="6.513"/><use xlink:href="#6" y="8.684"/><use xlink:href="#7" y="10.855"/><use xlink:href="#8" y="13.026"/><text y="19.038" class="g">NO_HEADERS</text></svg><svg x="4060"><use xlink:href="#a"/><use xlink:href="#b" x="-.004" y="19.514"/><use xlink:href="#1"/><use xlink:href="#3" y="2.171"/><use xlink:href="#4" y="4.342"/><use xlink:href="#5" y="6.513"/><use xlink:href="#6" y="8.684"/><use xlink:href="#7" y="10.855"/><use xlink:href="#8" y="13.026"/><use xlink:href="#9" y="17.368"/></svg><svg x="4200"><use xlink:href="#a"/><use xlink:href="#b" x="-.004" y="23.856"/><use xlink:href="#1"/><use xlink:href="#3" y="2.171"/><use xlink:href="#4" y="4.342"/><use xlink:href="#5" y="6.513"/><use xlink:href="#6" y="8.684"/><use xlink:href="#7" y="10.855"/><use xlink:href="#8" y="13.026"/><use xlink:href="#9" y="17.368"/><use xlink:href="#10" y="19.539"/><use xlink:href="#11" y="21.71"/></svg><svg x="4340"><use xlink:href="#a"/><use xlink:href="#b" x="-.004" y="26.027"/><use xlink:href="#1"/><use xlink:href="#3" y="2.171"/><use xlink:href="#4" y="4.342"/><use xlink:href="#5" y="6.513"/><use xlink:href="#6" y="8.684"/><use xlink:href="#7" y="10.855"/><use xlink:href="#8" y="13.026"/><use xlink:href="#9" y="17.368"/><use xlink:href="#10" y="19.539"/><use xlink:href="#11" y="21.71"/><text y="25.551" class="g">Processed</text><text x="10.02" y="25.551" class="g">a</text><text x="12.024" y="25.551" class="g">total</text><text x="18.036" y="25.551" class="g">of</text><text x="21.042" y="25.551" class="g">1</text><text x="23.046" y="25.551" class="g">messages</text></svg></svg></g></g></svg></svg>