<svg xmlns="http://www.w3.org/2000/svg" xmlns:xlink="http://www.w3.org/1999/xlink" width="1440" height="211.97"><rect width="1440" height="211.97" rx="5" ry="5" class="a"/><svg y="0%" x="0%"><circle cx="20" cy="20" r="6" fill="#ff5f58"/><circle cx="40" cy="20" r="6" fill="#ffbd2e"/><circle cx="60" cy="20" r="6" fill="#18c132"/></svg><svg height="151.97" viewBox="0 0 140 15.197" width="1400" x="15" xmlns="http://www.w3.org/2000/svg" xmlns:xlink="http://www.w3.org/1999/xlink" y="50"><style>@keyframes i{0%{transform:translateX(0)}.4%{transform:translateX(-140px)}.7%{transform:translateX(-280px)}9.1%{transform:translateX(-420px)}13.3%{transform:translateX(-560px)}17.5%{transform:translateX(-700px)}21.6%{transform:translateX(-840px)}25.8%{transform:translateX(-980px)}30%{transform:translateX(-1120px)}43.2%{transform:translateX(-1400px)}to{transform:translateX(-1540px)}}.a{fill:#282d35}.f,.k{fill:#fff;white-space:pre}.k{fill:#b9c0cb}</style><g font-family="Monaco,Consolas,Menlo,'Bitstream Vera Sans Mono','Powerline Symbols',monospace" font-size="1.67"><defs><symbol id="1"><text y="1.67" class="f">echo</text><text x="5.01" y="1.67" class="f">&apos;{&quot;type&quot;:&quot;SUV&quot;,&quot;price&quot;:2000,&quot;color&quot;:&quot;blue&quot;}&apos;</text><text x="50.1" y="1.67" class="f">|</text><text x="52.104" y="1.67" class="f">\</text></symbol><symbol id="2"><text x="4.008" y="1.67" class="f">kafka-console-producer</text><text x="27.054" y="1.67" class="f">\</text></symbol><symbol id="3"><text x="8.016" y="1.67" class="f">--bootstrap-server</text><text x="27.054" y="1.67" class="f">localhost:6969</text><text x="42.084" y="1.67" class="f">\</text></symbol><symbol id="4"><text x="8.016" y="1.67" class="f">--producer.config</text><text x="26.052" y="1.67" class="f">teamA-sa.properties</text><text x="46.092" y="1.67" class="f">\</text></symbol><symbol id="5"><text x="8.016" y="1.67" class="f">--topic</text><text x="16.032" y="1.67" class="f">cars</text></symbol><symbol id="a"><path fill="transparent" d="M0 0h140v8H0z"/></symbol><symbol id="b"><path fill="#6f7683" d="M0 0h1.102v2.171H0z"/></symbol></defs><path class="a" d="M0 0h140v15.197H0z"/><g style="animation-duration:2.344481s;animation-iteration-count:infinite;animation-name:i;animation-timing-function:steps(1,end)"><svg width="1680"><svg><use xlink:href="#a"/><use xlink:href="#b" x="-.004"/></svg><svg x="140"><use xlink:href="#a"/><use xlink:href="#b" x="-.004"/></svg><svg x="280"><use xlink:href="#a"/><use xlink:href="#b" x="9.996"/><text y="1.67" class="f">echo</text><text x="5.01" y="1.67" class="f">&apos;{&quot;ty</text></svg><svg x="420"><use xlink:href="#a"/><use xlink:href="#b" x="19.996"/><text y="1.67" class="f">echo</text><text x="5.01" y="1.67" class="f">&apos;{&quot;type&quot;:&quot;SUV&quot;,</text></svg><svg x="560"><use xlink:href="#a"/><use xlink:href="#b" x="29.996"/><text y="1.67" class="f">echo</text><text x="5.01" y="1.67" class="f">&apos;{&quot;type&quot;:&quot;SUV&quot;,&quot;price&quot;:20</text></svg><svg x="700"><use xlink:href="#a"/><use xlink:href="#b" x="39.996"/><text y="1.67" class="f">echo</text><text x="5.01" y="1.67" class="f">&apos;{&quot;type&quot;:&quot;SUV&quot;,&quot;price&quot;:2000,&quot;color&quot;</text></svg><svg x="840"><use xlink:href="#a"/><use xlink:href="#b" x="49.996"/><text y="1.67" class="f">echo</text><text x="5.01" y="1.67" class="f">&apos;{&quot;type&quot;:&quot;SUV&quot;,&quot;price&quot;:2000,&quot;color&quot;:&quot;blue&quot;}&apos;</text></svg><svg x="980"><use xlink:href="#a"/><use xlink:href="#b" x="5.996" y="2.146"/><use xlink:href="#1"/><text x="4.008" y="3.841" class="f">ka</text></svg><svg x="1120"><use xlink:href="#a"/><use xlink:href="#b" x="15.996" y="2.146"/><use xlink:href="#1"/><text x="4.008" y="3.841" class="f">kafka-consol</text></svg><svg x="1260"><use xlink:href="#a"/><use xlink:href="#b" x="19.996" y="8.659"/><use xlink:href="#1"/><use xlink:href="#2" y="2.171"/><use xlink:href="#3" y="4.342"/><use xlink:href="#4" y="6.513"/><use xlink:href="#5" y="8.684"/></svg><svg x="1400"><use xlink:href="#a"/><use xlink:href="#b" x="-.004" y="10.83"/><use xlink:href="#1"/><use xlink:href="#2" y="2.171"/><use xlink:href="#3" y="4.342"/><use xlink:href="#4" y="6.513"/><use xlink:href="#5" y="8.684"/></svg><svg x="1540"><use xlink:href="#a"/><use xlink:href="#b" x="-.004" y="15.172"/><use xlink:href="#3"/><use xlink:href="#4" y="2.171"/><use xlink:href="#5" y="4.342"/><text y="8.183" class="k">[2024-01-23</text><text x="12.024" y="8.183" class="k">02:31:58,245]</text><text x="26.052" y="8.183" class="k">ERROR</text><text x="32.064" y="8.183" class="k">Error</text><text x="38.076" y="8.183" class="k">when</text><text x="43.086" y="8.183" class="k">sending</text><text x="51.102" y="8.183" class="k">message</text><text x="59.118" y="8.183" class="k">to</text><text x="62.124" y="8.183" class="k">topic</text><text x="68.136" y="8.183" class="k">cars</text><text x="73.146" y="8.183" class="k">with</text><text x="78.156" y="8.183" class="k">key:</text><text x="83.166" y="8.183" class="k">null,</text><text x="89.178" y="8.183" class="k">value:</text><text x="96.192" y="8.183" class="k">42</text><text x="99.198" y="8.183" class="k">bytes</text><text x="105.21" y="8.183" class="k">with</text><text x="110.22" y="8.183" class="k">error:</text><text x="117.234" y="8.183" class="k">(org.apache.kafka.clien</text><text y="10.354" class="k">ts.producer.internals.ErrorLoggingCallback)</text><text y="12.525" class="k">org.apache.kafka.common.errors.PolicyViolationException:</text><text x="57.114" y="12.525" class="k">Request</text><text x="65.13" y="12.525" class="k">parameters</text><text x="76.152" y="12.525" class="k">do</text><text x="79.158" y="12.525" class="k">not</text><text x="83.166" y="12.525" class="k">satisfy</text><text x="91.182" y="12.525" class="k">the</text><text x="95.19" y="12.525" class="k">configured</text><text x="106.212" y="12.525" class="k">policy:</text><text x="114.228" y="12.525" class="k">Data</text><text x="119.238" y="12.525" class="k">quality</text><text x="127.254" y="12.525" class="k">policy</text><text x="134.268" y="12.525" class="k">is</text><text x="137.274" y="12.525" class="k">vio</text><text y="14.696" class="k">lated.</text></svg></svg></g></g></svg></svg>