<svg xmlns="http://www.w3.org/2000/svg" xmlns:xlink="http://www.w3.org/1999/xlink" width="1440" height="494.2"><rect width="1440" height="494.2" rx="5" ry="5" class="a"/><svg y="0%" x="0%"><circle cx="20" cy="20" r="6" fill="#ff5f58"/><circle cx="40" cy="20" r="6" fill="#ffbd2e"/><circle cx="60" cy="20" r="6" fill="#18c132"/></svg><svg height="434.2" viewBox="0 0 140 43.42" width="1400" x="15" xmlns="http://www.w3.org/2000/svg" xmlns:xlink="http://www.w3.org/1999/xlink" y="50"><style>@keyframes n{0%{transform:translateX(0)}.4%{transform:translateX(-140px)}.5%{transform:translateX(-280px)}4.7%{transform:translateX(-420px)}6.8%{transform:translateX(-560px)}8.8%{transform:translateX(-700px)}10.9%{transform:translateX(-840px)}13.1%{transform:translateX(-980px)}15.2%{transform:translateX(-1120px)}17.3%{transform:translateX(-1260px)}19.4%{transform:translateX(-1400px)}21.6%{transform:translateX(-1540px)}23.7%{transform:translateX(-1680px)}25.8%{transform:translateX(-1820px)}27.9%{transform:translateX(-1960px)}30%{transform:translateX(-2100px)}32.1%{transform:translateX(-2240px)}32.2%{transform:translateX(-2380px)}49.8%{transform:translateX(-2660px)}56.1%{transform:translateX(-2940px)}99.1%{transform:translateX(-3080px)}to{transform:translateX(-3220px)}}.a{fill:#282d35}.f{fill:#fff;white-space:pre}.g,.h{fill:#b9c0cb}.g{white-space:pre}.h{font-weight:700}.h,.i,.j{white-space:pre}.i{fill:#71bef2;font-weight:700}.j{fill:#a8cc8c}</style><g font-family="Monaco,Consolas,Menlo,'Bitstream Vera Sans Mono','Powerline Symbols',monospace" font-size="1.67"><defs><symbol id="1"><text y="1.67" class="f">kafka-console-consumer</text><text x="23.046" y="1.67" class="f">\</text></symbol><symbol id="2"><text x="4.008" y="1.67" class="f">--bootstrap-server</text><text x="23.046" y="1.67" class="f">localhost:19092,localhost:29093,localhost:29094</text><text x="71.142" y="1.67" class="f">\</text></symbol><symbol id="3"><text x="4.008" y="1.67" class="f">--topic</text><text x="12.024" y="1.67" class="f">_auditLogs</text><text x="23.046" y="1.67" class="f">\</text></symbol><symbol id="4"><text x="4.008" y="1.67" class="f">--from-beginning</text><text x="21.042" y="1.67" class="f">\</text></symbol><symbol id="5"><text x="4.008" y="1.67" class="f">--timeout-ms</text><text x="17.034" y="1.67" class="f">3000</text><text x="22.044" y="1.67" class="f">\</text></symbol><symbol id="6"><text x="1.002" y="1.67" class="f">|</text><text x="3.006" y="1.67" class="f">jq</text><text x="6.012" y="1.67" class="f">&apos;select(.type==&quot;SAFEGUARD&quot;</text><text x="33.066" y="1.67" class="f">and</text><text x="37.074" y="1.67" class="f">.eventData.plugin==&quot;io.conduktor.gateway.interceptor.DataQualityProducerInterceptor&quot;)&apos;</text></symbol><symbol id="7"><text y="1.67" class="g">[2024-01-23</text><text x="12.024" y="1.67" class="g">02:32:01,175]</text><text x="26.052" y="1.67" class="g">WARN</text><text x="31.062" y="1.67" class="g">[Consumer</text><text x="41.082" y="1.67" class="g">clientId=console-consumer,</text><text x="68.136" y="1.67" class="g">groupId=console-consumer-17640]</text><text x="100.2" y="1.67" class="g">Connection</text><text x="111.222" y="1.67" class="g">to</text><text x="114.228" y="1.67" class="g">node</text><text x="119.238" y="1.67" class="g">-2</text><text x="122.244" y="1.67" class="g">(localhost/127.0.0</text></symbol><symbol id="8"><text y="1.67" class="g">.1:29093)</text><text x="10.02" y="1.67" class="g">could</text><text x="16.032" y="1.67" class="g">not</text><text x="20.04" y="1.67" class="g">be</text><text x="23.046" y="1.67" class="g">established.</text><text x="36.072" y="1.67" class="g">Broker</text><text x="43.086" y="1.67" class="g">may</text><text x="47.094" y="1.67" class="g">not</text><text x="51.102" y="1.67" class="g">be</text><text x="54.108" y="1.67" class="g">available.</text><text x="65.13" y="1.67" class="g">(org.apache.kafka.clients.NetworkClient)</text></symbol><symbol id="9"><text y="1.67" class="g">[2024-01-23</text><text x="12.024" y="1.67" class="g">02:32:01,175]</text><text x="26.052" y="1.67" class="g">WARN</text><text x="31.062" y="1.67" class="g">[Consumer</text><text x="41.082" y="1.67" class="g">clientId=console-consumer,</text><text x="68.136" y="1.67" class="g">groupId=console-consumer-17640]</text><text x="100.2" y="1.67" class="g">Bootstrap</text><text x="110.22" y="1.67" class="g">broker</text><text x="117.234" y="1.67" class="g">localhost:29093</text><text x="133.266" y="1.67" class="g">(id:</text><text x="138.276" y="1.67" class="g">-2</text></symbol><symbol id="10"><text x="1.002" y="1.67" class="g">rack:</text><text x="7.014" y="1.67" class="g">null)</text><text x="13.026" y="1.67" class="g">disconnected</text><text x="26.052" y="1.67" class="g">(org.apache.kafka.clients.NetworkClient)</text></symbol><symbol id="11"><text y="1.67" class="h">{</text></symbol><symbol id="12"><text x="2.004" y="1.67" class="i">&quot;id&quot;</text><text x="6.012" y="1.67" class="h">:</text><text x="8.016" y="1.67" class="j">&quot;56b77c28-6acb-4c7b-86d0-80f938a0599d&quot;</text><text x="46.092" y="1.67" class="h">,</text></symbol><symbol id="13"><text x="2.004" y="1.67" class="i">&quot;source&quot;</text><text x="10.02" y="1.67" class="h">:</text><text x="12.024" y="1.67" class="j">&quot;krn://cluster=fOb13TauTUa-Sgp9w0M-4g&quot;</text><text x="50.1" y="1.67" class="h">,</text></symbol><symbol id="14"><text x="2.004" y="1.67" class="i">&quot;type&quot;</text><text x="8.016" y="1.67" class="h">:</text><text x="10.02" y="1.67" class="j">&quot;SAFEGUARD&quot;</text><text x="21.042" y="1.67" class="h">,</text></symbol><symbol id="15"><text x="2.004" y="1.67" class="i">&quot;authenticationPrincipal&quot;</text><text x="27.054" y="1.67" class="h">:</text><text x="29.058" y="1.67" class="j">&quot;teamA&quot;</text><text x="36.072" y="1.67" class="h">,</text></symbol><symbol id="16"><text x="2.004" y="1.67" class="i">&quot;userName&quot;</text><text x="12.024" y="1.67" class="h">:</text><text x="14.028" y="1.67" class="j">&quot;sa&quot;</text><text x="18.036" y="1.67" class="h">,</text></symbol><symbol id="17"><text x="2.004" y="1.67" class="i">&quot;connection&quot;</text><text x="14.028" y="1.67" class="h">:</text><text x="16.032" y="1.67" class="h">{</text></symbol><symbol id="18"><text x="4.008" y="1.67" class="i">&quot;localAddress&quot;</text><text x="18.036" y="1.67" class="h">:</text><text x="20.04" y="1.67" style="white-space:pre" fill="#6f7783">null</text><text x="24.048" y="1.67" class="h">,</text></symbol><symbol id="19"><text x="4.008" y="1.67" class="i">&quot;remoteAddress&quot;</text><text x="19.038" y="1.67" class="h">:</text><text x="21.042" y="1.67" class="j">&quot;/192.168.65.1:31457&quot;</text></symbol><symbol id="20"><text x="2.004" y="1.67" class="h">},</text></symbol><symbol id="21"><text x="2.004" y="1.67" class="i">&quot;specVersion&quot;</text><text x="15.03" y="1.67" class="h">:</text><text x="17.034" y="1.67" class="j">&quot;0.1.0&quot;</text><text x="24.048" y="1.67" class="h">,</text></symbol><symbol id="22"><text x="2.004" y="1.67" class="i">&quot;time&quot;</text><text x="8.016" y="1.67" class="h">:</text><text x="10.02" y="1.67" class="j">&quot;2024-01-23T01:15:16.460207966Z&quot;</text><text x="42.084" y="1.67" class="h">,</text></symbol><symbol id="23"><text x="2.004" y="1.67" class="i">&quot;eventData&quot;</text><text x="13.026" y="1.67" class="h">:</text><text x="15.03" y="1.67" class="h">{</text></symbol><symbol id="24"><text x="4.008" y="1.67" class="i">&quot;level&quot;</text><text x="11.022" y="1.67" class="h">:</text><text x="13.026" y="1.67" class="j">&quot;error&quot;</text><text x="20.04" y="1.67" class="h">,</text></symbol><symbol id="25"><text x="4.008" y="1.67" class="i">&quot;plugin&quot;</text><text x="12.024" y="1.67" class="h">:</text><text x="14.028" y="1.67" class="j">&quot;io.conduktor.gateway.interceptor.DataQualityProducerInterceptor&quot;</text><text x="79.158" y="1.67" class="h">,</text></symbol><symbol id="26"><text x="4.008" y="1.67" class="i">&quot;message&quot;</text><text x="13.026" y="1.67" class="h">:</text><text x="15.03" y="1.67" class="j">&quot;Request</text><text x="24.048" y="1.67" class="j">parameters</text><text x="35.07" y="1.67" class="j">do</text><text x="38.076" y="1.67" class="j">not</text><text x="42.084" y="1.67" class="j">satisfy</text><text x="50.1" y="1.67" class="j">the</text><text x="54.108" y="1.67" class="j">configured</text><text x="65.13" y="1.67" class="j">policy:</text><text x="73.146" y="1.67" class="j">Data</text><text x="78.156" y="1.67" class="j">quality</text><text x="86.172" y="1.67" class="j">policy</text><text x="93.186" y="1.67" class="j">is</text><text x="96.192" y="1.67" class="j">violated.&quot;</text></symbol><symbol id="27"><text x="2.004" y="1.67" class="h">}</text></symbol><symbol id="28"><text y="1.67" class="h">}</text></symbol><symbol id="29"><text y="1.67" class="g">[2024-01-23</text><text x="12.024" y="1.67" class="g">02:32:04,468]</text><text x="26.052" y="1.67" class="g">ERROR</text><text x="32.064" y="1.67" class="g">Error</text><text x="38.076" y="1.67" class="g">processing</text><text x="49.098" y="1.67" class="g">message,</text><text x="58.116" y="1.67" class="g">terminating</text><text x="70.14" y="1.67" class="g">consumer</text><text x="79.158" y="1.67" class="g">process:</text><text x="89.178" y="1.67" class="g">(kafka.tools.ConsoleConsumer$)</text></symbol><symbol id="30"><text y="1.67" class="g">org.apache.kafka.common.errors.TimeoutException</text></symbol><symbol id="a"><path fill="transparent" d="M0 0h140v21H0z"/></symbol><symbol id="b"><path fill="#6f7683" d="M0 0h1.102v2.171H0z"/></symbol></defs><path class="a" d="M0 0h140v43.42H0z"/><g style="animation-duration:4.651465s;animation-iteration-count:infinite;animation-name:n;animation-timing-function:steps(1,end)"><svg width="3360"><svg><use xlink:href="#a"/><use xlink:href="#b" x="-.004"/></svg><svg x="140"><use xlink:href="#a"/><use xlink:href="#b" x="-.004"/></svg><svg x="280"><use xlink:href="#a"/><use xlink:href="#b" x="19.996"/><text y="1.67" class="f">kafka-console-consum</text></svg><svg x="420"><use xlink:href="#a"/><use xlink:href="#b" x="14.996" y="2.146"/><use xlink:href="#1"/><text x="4.008" y="3.841" class="f">--bootstrap</text></svg><svg x="560"><use xlink:href="#a"/><use xlink:href="#b" x="34.996" y="2.146"/><use xlink:href="#1"/><text x="4.008" y="3.841" class="f">--bootstrap-server</text><text x="23.046" y="3.841" class="f">localhost:19</text></svg><svg x="700"><use xlink:href="#a"/><use xlink:href="#b" x="54.996" y="2.146"/><use xlink:href="#1"/><text x="4.008" y="3.841" class="f">--bootstrap-server</text><text x="23.046" y="3.841" class="f">localhost:19092,localhost:29093,</text></svg><svg x="840"><use xlink:href="#a"/><use xlink:href="#b" x="1.996" y="4.317"/><use xlink:href="#1"/><use xlink:href="#2" y="2.171"/></svg><svg x="980"><use xlink:href="#a"/><use xlink:href="#b" x="21.996" y="4.317"/><use xlink:href="#1"/><use xlink:href="#2" y="2.171"/><text x="4.008" y="6.012" class="f">--topic</text><text x="12.024" y="6.012" class="f">_auditLogs</text></svg><svg x="1120"><use xlink:href="#a"/><use xlink:href="#b" x="16.996" y="6.488"/><use xlink:href="#1"/><use xlink:href="#2" y="2.171"/><use xlink:href="#3" y="4.342"/><text x="4.008" y="8.183" class="f">--from-beginn</text></svg><svg x="1260"><use xlink:href="#a"/><use xlink:href="#b" x="13.996" y="8.659"/><use xlink:href="#1"/><use xlink:href="#2" y="2.171"/><use xlink:href="#3" y="4.342"/><use xlink:href="#4" y="6.513"/><text x="4.008" y="10.354" class="f">--timeout-</text></svg><svg x="1400"><use xlink:href="#a"/><use xlink:href="#b" x="9.996" y="10.83"/><use xlink:href="#1"/><use xlink:href="#2" y="2.171"/><use xlink:href="#3" y="4.342"/><use xlink:href="#4" y="6.513"/><use xlink:href="#5" y="8.684"/><text x="1.002" y="12.525" class="f">|</text><text x="3.006" y="12.525" class="f">jq</text><text x="6.012" y="12.525" class="f">&apos;sel</text></svg><svg x="1540"><use xlink:href="#a"/><use xlink:href="#b" x="29.996" y="10.83"/><use xlink:href="#1"/><use xlink:href="#2" y="2.171"/><use xlink:href="#3" y="4.342"/><use xlink:href="#4" y="6.513"/><use xlink:href="#5" y="8.684"/><text x="1.002" y="12.525" class="f">|</text><text x="3.006" y="12.525" class="f">jq</text><text x="6.012" y="12.525" class="f">&apos;select(.type==&quot;SAFEGUAR</text></svg><svg x="1680"><use xlink:href="#a"/><use xlink:href="#b" x="49.996" y="10.83"/><use xlink:href="#1"/><use xlink:href="#2" y="2.171"/><use xlink:href="#3" y="4.342"/><use xlink:href="#4" y="6.513"/><use xlink:href="#5" y="8.684"/><text x="1.002" y="12.525" class="f">|</text><text x="3.006" y="12.525" class="f">jq</text><text x="6.012" y="12.525" class="f">&apos;select(.type==&quot;SAFEGUARD&quot;</text><text x="33.066" y="12.525" class="f">and</text><text x="37.074" y="12.525" class="f">.eventData.pl</text></svg><svg x="1820"><use xlink:href="#a"/><use xlink:href="#b" x="69.996" y="10.83"/><use xlink:href="#1"/><use xlink:href="#2" y="2.171"/><use xlink:href="#3" y="4.342"/><use xlink:href="#4" y="6.513"/><use xlink:href="#5" y="8.684"/><text x="1.002" y="12.525" class="f">|</text><text x="3.006" y="12.525" class="f">jq</text><text x="6.012" y="12.525" class="f">&apos;select(.type==&quot;SAFEGUARD&quot;</text><text x="33.066" y="12.525" class="f">and</text><text x="37.074" y="12.525" class="f">.eventData.plugin==&quot;io.conduktor.</text></svg><svg x="1960"><use xlink:href="#a"/><use xlink:href="#b" x="89.996" y="10.83"/><use xlink:href="#1"/><use xlink:href="#2" y="2.171"/><use xlink:href="#3" y="4.342"/><use xlink:href="#4" y="6.513"/><use xlink:href="#5" y="8.684"/><text x="1.002" y="12.525" class="f">|</text><text x="3.006" y="12.525" class="f">jq</text><text x="6.012" y="12.525" class="f">&apos;select(.type==&quot;SAFEGUARD&quot;</text><text x="33.066" y="12.525" class="f">and</text><text x="37.074" y="12.525" class="f">.eventData.plugin==&quot;io.conduktor.gateway.interceptor.</text></svg><svg x="2100"><use xlink:href="#a"/><use xlink:href="#b" x="109.996" y="10.83"/><use xlink:href="#1"/><use xlink:href="#2" y="2.171"/><use xlink:href="#3" y="4.342"/><use xlink:href="#4" y="6.513"/><use xlink:href="#5" y="8.684"/><text x="1.002" y="12.525" class="f">|</text><text x="3.006" y="12.525" class="f">jq</text><text x="6.012" y="12.525" class="f">&apos;select(.type==&quot;SAFEGUARD&quot;</text><text x="33.066" y="12.525" class="f">and</text><text x="37.074" y="12.525" class="f">.eventData.plugin==&quot;io.conduktor.gateway.interceptor.DataQualityProducerI</text></svg><svg x="2240"><use xlink:href="#a"/><use xlink:href="#b" x="-.004" y="13.001"/><use xlink:href="#1"/><use xlink:href="#2" y="2.171"/><use xlink:href="#3" y="4.342"/><use xlink:href="#4" y="6.513"/><use xlink:href="#5" y="8.684"/><use xlink:href="#6" y="10.855"/></svg><svg x="2380"><use xlink:href="#a"/><use xlink:href="#b" x="-.004" y="15.172"/><use xlink:href="#1"/><use xlink:href="#2" y="2.171"/><use xlink:href="#3" y="4.342"/><use xlink:href="#4" y="6.513"/><use xlink:href="#5" y="8.684"/><use xlink:href="#6" y="10.855"/></svg><svg x="2520"><use xlink:href="#a"/><use xlink:href="#b" x="-.004" y="19.514"/><use xlink:href="#1"/><use xlink:href="#2" y="2.171"/><use xlink:href="#3" y="4.342"/><use xlink:href="#4" y="6.513"/><use xlink:href="#5" y="8.684"/><use xlink:href="#6" y="10.855"/><use xlink:href="#7" y="15.197"/><use xlink:href="#8" y="17.368"/></svg><svg x="2660"><use xlink:href="#a"/><use xlink:href="#b" x="-.004" y="23.856"/><use xlink:href="#1"/><use xlink:href="#2" y="2.171"/><use xlink:href="#3" y="4.342"/><use xlink:href="#4" y="6.513"/><use xlink:href="#5" y="8.684"/><use xlink:href="#6" y="10.855"/><use xlink:href="#7" y="15.197"/><use xlink:href="#8" y="17.368"/><use xlink:href="#9" y="19.539"/><use xlink:href="#10" y="21.71"/></svg><svg x="2800"><use xlink:href="#a"/><use xlink:href="#b" x="-.004" y="43.395"/><use xlink:href="#2"/><use xlink:href="#3" y="2.171"/><use xlink:href="#4" y="4.342"/><use xlink:href="#5" y="6.513"/><use xlink:href="#6" y="8.684"/><use xlink:href="#7" y="13.026"/><use xlink:href="#8" y="15.197"/><use xlink:href="#9" y="17.368"/><use xlink:href="#10" y="19.539"/><use xlink:href="#11" y="21.71"/><use xlink:href="#12" y="23.881"/><use xlink:href="#13" y="26.052"/><use xlink:href="#14" y="28.223"/><use xlink:href="#15" y="30.394"/><use xlink:href="#16" y="32.565"/><use xlink:href="#17" y="34.736"/><use xlink:href="#18" y="36.907"/><use xlink:href="#19" y="39.078"/><use xlink:href="#20" y="41.249"/></svg><svg x="2940"><use xlink:href="#a"/><use xlink:href="#b" x="-.004" y="43.395"/><use xlink:href="#9"/><use xlink:href="#10" y="2.171"/><use xlink:href="#11" y="4.342"/><use xlink:href="#12" y="6.513"/><use xlink:href="#13" y="8.684"/><use xlink:href="#14" y="10.855"/><use xlink:href="#15" y="13.026"/><use xlink:href="#16" y="15.197"/><use xlink:href="#17" y="17.368"/><use xlink:href="#18" y="19.539"/><use xlink:href="#19" y="21.71"/><use xlink:href="#20" y="23.881"/><use xlink:href="#21" y="26.052"/><use xlink:href="#22" y="28.223"/><use xlink:href="#23" y="30.394"/><use xlink:href="#24" y="32.565"/><use xlink:href="#25" y="34.736"/><use xlink:href="#26" y="36.907"/><use xlink:href="#27" y="39.078"/><use xlink:href="#28" y="41.249"/></svg><svg x="3080"><use xlink:href="#a"/><use xlink:href="#b" x="-.004" y="43.395"/><use xlink:href="#11"/><use xlink:href="#12" y="2.171"/><use xlink:href="#13" y="4.342"/><use xlink:href="#14" y="6.513"/><use xlink:href="#15" y="8.684"/><use xlink:href="#16" y="10.855"/><use xlink:href="#17" y="13.026"/><use xlink:href="#18" y="15.197"/><use xlink:href="#19" y="17.368"/><use xlink:href="#20" y="19.539"/><use xlink:href="#21" y="21.71"/><use xlink:href="#22" y="23.881"/><use xlink:href="#23" y="26.052"/><use xlink:href="#24" y="28.223"/><use xlink:href="#25" y="30.394"/><use xlink:href="#26" y="32.565"/><use xlink:href="#27" y="34.736"/><use xlink:href="#28" y="36.907"/><use xlink:href="#29" y="39.078"/><use xlink:href="#30" y="41.249"/></svg><svg x="3220"><use xlink:href="#a"/><use xlink:href="#b" x="-.004" y="43.395"/><use xlink:href="#12"/><use xlink:href="#13" y="2.171"/><use xlink:href="#14" y="4.342"/><use xlink:href="#15" y="6.513"/><use xlink:href="#16" y="8.684"/><use xlink:href="#17" y="10.855"/><use xlink:href="#18" y="13.026"/><use xlink:href="#19" y="15.197"/><use xlink:href="#20" y="17.368"/><use xlink:href="#21" y="19.539"/><use xlink:href="#22" y="21.71"/><use xlink:href="#23" y="23.881"/><use xlink:href="#24" y="26.052"/><use xlink:href="#25" y="28.223"/><use xlink:href="#26" y="30.394"/><use xlink:href="#27" y="32.565"/><use xlink:href="#28" y="34.736"/><use xlink:href="#29" y="36.907"/><use xlink:href="#30" y="39.078"/><text y="42.919" class="g">Processed</text><text x="10.02" y="42.919" class="g">a</text><text x="12.024" y="42.919" class="g">total</text><text x="18.036" y="42.919" class="g">of</text><text x="21.042" y="42.919" class="g">9</text><text x="23.046" y="42.919" class="g">messages</text></svg></svg></g></g></svg></svg>