<svg xmlns="http://www.w3.org/2000/svg" xmlns:xlink="http://www.w3.org/1999/xlink" width="1440" height="494.2"><rect width="1440" height="494.2" rx="5" ry="5" class="a"/><svg y="0%" x="0%"><circle cx="20" cy="20" r="6" fill="#ff5f58"/><circle cx="40" cy="20" r="6" fill="#ffbd2e"/><circle cx="60" cy="20" r="6" fill="#18c132"/></svg><svg height="434.2" viewBox="0 0 140 43.42" width="1400" x="15" xmlns="http://www.w3.org/2000/svg" xmlns:xlink="http://www.w3.org/1999/xlink" y="50"><style>@keyframes j{0%{transform:translateX(0)}.1%{transform:translateX(-280px)}.7%{transform:translateX(-420px)}1.9%{transform:translateX(-560px)}2.5%{transform:translateX(-700px)}3.1%{transform:translateX(-840px)}3.7%{transform:translateX(-980px)}4.3%{transform:translateX(-1120px)}4.9%{transform:translateX(-1260px)}5.5%{transform:translateX(-1400px)}6.1%{transform:translateX(-1540px)}6.7%{transform:translateX(-1680px)}7.4%{transform:translateX(-1820px)}7.9%{transform:translateX(-1960px)}8.5%{transform:translateX(-2240px)}12.3%{transform:translateX(-2520px)}24.6%{transform:translateX(-2660px)}24.7%{transform:translateX(-2800px)}37.1%{transform:translateX(-2940px)}49.4%{transform:translateX(-3080px)}61.8%{transform:translateX(-3360px)}74.2%{transform:translateX(-3500px)}86.6%{transform:translateX(-3780px)}99%{transform:translateX(-3920px)}to{transform:translateX(-4200px)}}.a{fill:#282d35}.f,.g{fill:#fff;white-space:pre}.g{fill:#b9c0cb}</style><g font-family="Monaco,Consolas,Menlo,'Bitstream Vera Sans Mono','Powerline Symbols',monospace" font-size="1.67"><defs><symbol id="1"><text y="1.67" class="f">kafka-producer-perf-test</text><text x="25.05" y="1.67" class="f">\</text></symbol><symbol id="2"><text x="2.004" y="1.67" class="f">--topic</text><text x="10.02" y="1.67" class="f">customers</text><text x="20.04" y="1.67" class="f">\</text></symbol><symbol id="3"><text x="2.004" y="1.67" class="f">--throughput</text><text x="15.03" y="1.67" class="f">-1</text><text x="18.036" y="1.67" class="f">\</text></symbol><symbol id="4"><text x="2.004" y="1.67" class="f">--num-records</text><text x="16.032" y="1.67" class="f">1000000</text><text x="24.048" y="1.67" class="f">\</text></symbol><symbol id="5"><text x="2.004" y="1.67" class="f">--producer-props</text><text x="19.038" y="1.67" class="f">\</text></symbol><symbol id="6"><text x="6.012" y="1.67" class="f">bootstrap.servers=localhost:6969</text><text x="39.078" y="1.67" class="f">\</text></symbol><symbol id="7"><text x="6.012" y="1.67" class="f">linger.ms=100</text><text x="20.04" y="1.67" class="f">\</text></symbol><symbol id="8"><text x="6.012" y="1.67" class="f">compression.type=lz4</text><text x="27.054" y="1.67" class="f">\</text></symbol><symbol id="9"><text x="2.004" y="1.67" class="f">--producer.config</text><text x="20.04" y="1.67" class="f">teamA-sa.properties</text><text x="40.08" y="1.67" class="f">\</text></symbol><symbol id="10"><text x="2.004" y="1.67" class="f">--payload-file</text><text x="17.034" y="1.67" class="f">examples.json</text></symbol><symbol id="11"><text y="1.67" class="g">Reading</text><text x="8.016" y="1.67" class="g">payloads</text><text x="17.034" y="1.67" class="g">from:</text><text x="23.046" y="1.67" class="g">/Users/framiere/conduktor/conduktor-gateway-soak-func/target/2023.09.20-09:47:20/encryption-performance/examples.json</text></symbol><symbol id="12"><text y="1.67" class="g">Number</text><text x="7.014" y="1.67" class="g">of</text><text x="10.02" y="1.67" class="g">messages</text><text x="19.038" y="1.67" class="g">read:</text><text x="25.05" y="1.67" class="g">2</text></symbol><symbol id="13"><text y="1.67" class="g">30033</text><text x="6.012" y="1.67" class="g">records</text><text x="14.028" y="1.67" class="g">sent,</text><text x="20.04" y="1.67" class="g">5974,3</text><text x="27.054" y="1.67" class="g">records/sec</text><text x="39.078" y="1.67" class="g">(0,70</text><text x="45.09" y="1.67" class="g">MB/sec),</text><text x="54.108" y="1.67" class="g">2486,7</text><text x="61.122" y="1.67" class="g">ms</text><text x="64.128" y="1.67" class="g">avg</text><text x="68.136" y="1.67" class="g">latency,</text><text x="77.154" y="1.67" class="g">3536,0</text><text x="84.168" y="1.67" class="g">ms</text><text x="87.174" y="1.67" class="g">max</text><text x="91.182" y="1.67" class="g">latency.</text></symbol><symbol id="14"><text y="1.67" class="g">111720</text><text x="7.014" y="1.67" class="g">records</text><text x="15.03" y="1.67" class="g">sent,</text><text x="21.042" y="1.67" class="g">22330,6</text><text x="29.058" y="1.67" class="g">records/sec</text><text x="41.082" y="1.67" class="g">(2,62</text><text x="47.094" y="1.67" class="g">MB/sec),</text><text x="56.112" y="1.67" class="g">6146,0</text><text x="63.126" y="1.67" class="g">ms</text><text x="66.132" y="1.67" class="g">avg</text><text x="70.14" y="1.67" class="g">latency,</text><text x="79.158" y="1.67" class="g">8391,0</text><text x="86.172" y="1.67" class="g">ms</text><text x="89.178" y="1.67" class="g">max</text><text x="93.186" y="1.67" class="g">latency.</text></symbol><symbol id="15"><text y="1.67" class="g">130805</text><text x="7.014" y="1.67" class="g">records</text><text x="15.03" y="1.67" class="g">sent,</text><text x="21.042" y="1.67" class="g">26062,0</text><text x="29.058" y="1.67" class="g">records/sec</text><text x="41.082" y="1.67" class="g">(3,06</text><text x="47.094" y="1.67" class="g">MB/sec),</text><text x="56.112" y="1.67" class="g">10332,8</text><text x="64.128" y="1.67" class="g">ms</text><text x="67.134" y="1.67" class="g">avg</text><text x="71.142" y="1.67" class="g">latency,</text><text x="80.16" y="1.67" class="g">11917,0</text><text x="88.176" y="1.67" class="g">ms</text><text x="91.182" y="1.67" class="g">max</text><text x="95.19" y="1.67" class="g">latency.</text></symbol><symbol id="16"><text y="1.67" class="g">188856</text><text x="7.014" y="1.67" class="g">records</text><text x="15.03" y="1.67" class="g">sent,</text><text x="21.042" y="1.67" class="g">37665,7</text><text x="29.058" y="1.67" class="g">records/sec</text><text x="41.082" y="1.67" class="g">(4,42</text><text x="47.094" y="1.67" class="g">MB/sec),</text><text x="56.112" y="1.67" class="g">12720,8</text><text x="64.128" y="1.67" class="g">ms</text><text x="67.134" y="1.67" class="g">avg</text><text x="71.142" y="1.67" class="g">latency,</text><text x="80.16" y="1.67" class="g">14768,0</text><text x="88.176" y="1.67" class="g">ms</text><text x="91.182" y="1.67" class="g">max</text><text x="95.19" y="1.67" class="g">latency.</text></symbol><symbol id="17"><text y="1.67" class="g">194342</text><text x="7.014" y="1.67" class="g">records</text><text x="15.03" y="1.67" class="g">sent,</text><text x="21.042" y="1.67" class="g">38422,7</text><text x="29.058" y="1.67" class="g">records/sec</text><text x="41.082" y="1.67" class="g">(4,51</text><text x="47.094" y="1.67" class="g">MB/sec),</text><text x="56.112" y="1.67" class="g">16744,8</text><text x="64.128" y="1.67" class="g">ms</text><text x="67.134" y="1.67" class="g">avg</text><text x="71.142" y="1.67" class="g">latency,</text><text x="80.16" y="1.67" class="g">18924,0</text><text x="88.176" y="1.67" class="g">ms</text><text x="91.182" y="1.67" class="g">max</text><text x="95.19" y="1.67" class="g">latency.</text></symbol><symbol id="18"><text y="1.67" class="g">167936</text><text x="7.014" y="1.67" class="g">records</text><text x="15.03" y="1.67" class="g">sent,</text><text x="21.042" y="1.67" class="g">33340,5</text><text x="29.058" y="1.67" class="g">records/sec</text><text x="41.082" y="1.67" class="g">(3,91</text><text x="47.094" y="1.67" class="g">MB/sec),</text><text x="56.112" y="1.67" class="g">20927,6</text><text x="64.128" y="1.67" class="g">ms</text><text x="67.134" y="1.67" class="g">avg</text><text x="71.142" y="1.67" class="g">latency,</text><text x="80.16" y="1.67" class="g">23161,0</text><text x="88.176" y="1.67" class="g">ms</text><text x="91.182" y="1.67" class="g">max</text><text x="95.19" y="1.67" class="g">latency.</text></symbol><symbol id="19"><text y="1.67" class="g">168560</text><text x="7.014" y="1.67" class="g">records</text><text x="15.03" y="1.67" class="g">sent,</text><text x="21.042" y="1.67" class="g">33115,9</text><text x="29.058" y="1.67" class="g">records/sec</text><text x="41.082" y="1.67" class="g">(3,88</text><text x="47.094" y="1.67" class="g">MB/sec),</text><text x="56.112" y="1.67" class="g">25276,7</text><text x="64.128" y="1.67" class="g">ms</text><text x="67.134" y="1.67" class="g">avg</text><text x="71.142" y="1.67" class="g">latency,</text><text x="80.16" y="1.67" class="g">27564,0</text><text x="88.176" y="1.67" class="g">ms</text><text x="91.182" y="1.67" class="g">max</text><text x="95.19" y="1.67" class="g">latency.</text></symbol><symbol id="a"><path fill="transparent" d="M0 0h140v21H0z"/></symbol><symbol id="b"><path fill="#6f7683" d="M0 0h1.102v2.171H0z"/></symbol></defs><path class="a" d="M0 0h140v43.42H0z"/><g style="animation-duration:16.154452s;animation-iteration-count:infinite;animation-name:j;animation-timing-function:steps(1,end)"><svg width="4340"><svg><use xlink:href="#a"/><use xlink:href="#b" x="-.004"/></svg><svg x="140"><use xlink:href="#a"/><use xlink:href="#b" x="-.004"/></svg><svg x="280"><use xlink:href="#a"/><use xlink:href="#b" x="19.996"/><text y="1.67" class="f">kafka-producer-perf-</text></svg><svg x="420"><use xlink:href="#a"/><use xlink:href="#b" x="12.996" y="2.146"/><use xlink:href="#1"/><text x="2.004" y="3.841" class="f">--topic</text><text x="10.02" y="3.841" class="f">cus</text></svg><svg x="560"><use xlink:href="#a"/><use xlink:href="#b" x="10.996" y="4.317"/><use xlink:href="#1"/><use xlink:href="#2" y="2.171"/><text x="2.004" y="6.012" class="f">--through</text></svg><svg x="700"><use xlink:href="#a"/><use xlink:href="#b" x="10.996" y="6.488"/><use xlink:href="#1"/><use xlink:href="#2" y="2.171"/><use xlink:href="#3" y="4.342"/><text x="2.004" y="8.183" class="f">--num-rec</text></svg><svg x="840"><use xlink:href="#a"/><use xlink:href="#b" x="4.996" y="8.659"/><use xlink:href="#1"/><use xlink:href="#2" y="2.171"/><use xlink:href="#3" y="4.342"/><use xlink:href="#4" y="6.513"/><text x="2.004" y="10.354" class="f">--p</text></svg><svg x="980"><use xlink:href="#a"/><use xlink:href="#b" x="3.996" y="10.83"/><use xlink:href="#1"/><use xlink:href="#2" y="2.171"/><use xlink:href="#3" y="4.342"/><use xlink:href="#4" y="6.513"/><use xlink:href="#5" y="8.684"/></svg><svg x="1120"><use xlink:href="#a"/><use xlink:href="#b" x="23.996" y="10.83"/><use xlink:href="#1"/><use xlink:href="#2" y="2.171"/><use xlink:href="#3" y="4.342"/><use xlink:href="#4" y="6.513"/><use xlink:href="#5" y="8.684"/><text x="6.012" y="12.525" class="f">bootstrap.servers=</text></svg><svg x="1260"><use xlink:href="#a"/><use xlink:href="#b" x="2.996" y="13.001"/><use xlink:href="#1"/><use xlink:href="#2" y="2.171"/><use xlink:href="#3" y="4.342"/><use xlink:href="#4" y="6.513"/><use xlink:href="#5" y="8.684"/><use xlink:href="#6" y="10.855"/></svg><svg x="1400"><use xlink:href="#a"/><use xlink:href="#b" x=".996" y="15.172"/><use xlink:href="#1"/><use xlink:href="#2" y="2.171"/><use xlink:href="#3" y="4.342"/><use xlink:href="#4" y="6.513"/><use xlink:href="#5" y="8.684"/><use xlink:href="#6" y="10.855"/><use xlink:href="#7" y="13.026"/></svg><svg x="1540"><use xlink:href="#a"/><use xlink:href="#b" x="20.996" y="15.172"/><use xlink:href="#1"/><use xlink:href="#2" y="2.171"/><use xlink:href="#3" y="4.342"/><use xlink:href="#4" y="6.513"/><use xlink:href="#5" y="8.684"/><use xlink:href="#6" y="10.855"/><use xlink:href="#7" y="13.026"/><text x="6.012" y="16.867" class="f">compression.typ</text></svg><svg x="1680"><use xlink:href="#a"/><use xlink:href="#b" x="11.996" y="17.343"/><use xlink:href="#1"/><use xlink:href="#2" y="2.171"/><use xlink:href="#3" y="4.342"/><use xlink:href="#4" y="6.513"/><use xlink:href="#5" y="8.684"/><use xlink:href="#6" y="10.855"/><use xlink:href="#7" y="13.026"/><use xlink:href="#8" y="15.197"/><text x="2.004" y="19.038" class="f">--producer</text></svg><svg x="1820"><use xlink:href="#a"/><use xlink:href="#b" x="31.996" y="17.343"/><use xlink:href="#1"/><use xlink:href="#2" y="2.171"/><use xlink:href="#3" y="4.342"/><use xlink:href="#4" y="6.513"/><use xlink:href="#5" y="8.684"/><use xlink:href="#6" y="10.855"/><use xlink:href="#7" y="13.026"/><use xlink:href="#8" y="15.197"/><text x="2.004" y="19.038" class="f">--producer.config</text><text x="20.04" y="19.038" class="f">teamA-sa.pro</text></svg><svg x="1960"><use xlink:href="#a"/><use xlink:href="#b" x="9.996" y="19.514"/><use xlink:href="#1"/><use xlink:href="#2" y="2.171"/><use xlink:href="#3" y="4.342"/><use xlink:href="#4" y="6.513"/><use xlink:href="#5" y="8.684"/><use xlink:href="#6" y="10.855"/><use xlink:href="#7" y="13.026"/><use xlink:href="#8" y="15.197"/><use xlink:href="#9" y="17.368"/><text x="2.004" y="21.209" class="f">--payloa</text></svg><svg x="2100"><use xlink:href="#a"/><use xlink:href="#b" x="29.996" y="19.514"/><use xlink:href="#1"/><use xlink:href="#2" y="2.171"/><use xlink:href="#3" y="4.342"/><use xlink:href="#4" y="6.513"/><use xlink:href="#5" y="8.684"/><use xlink:href="#6" y="10.855"/><use xlink:href="#7" y="13.026"/><use xlink:href="#8" y="15.197"/><use xlink:href="#9" y="17.368"/><use xlink:href="#10" y="19.539"/></svg><svg x="2240"><use xlink:href="#a"/><use xlink:href="#b" x="-.004" y="21.685"/><use xlink:href="#1"/><use xlink:href="#2" y="2.171"/><use xlink:href="#3" y="4.342"/><use xlink:href="#4" y="6.513"/><use xlink:href="#5" y="8.684"/><use xlink:href="#6" y="10.855"/><use xlink:href="#7" y="13.026"/><use xlink:href="#8" y="15.197"/><use xlink:href="#9" y="17.368"/><use xlink:href="#10" y="19.539"/></svg><svg x="2380"><use xlink:href="#a"/><use xlink:href="#b" x="-.004" y="23.856"/><use xlink:href="#1"/><use xlink:href="#2" y="2.171"/><use xlink:href="#3" y="4.342"/><use xlink:href="#4" y="6.513"/><use xlink:href="#5" y="8.684"/><use xlink:href="#6" y="10.855"/><use xlink:href="#7" y="13.026"/><use xlink:href="#8" y="15.197"/><use xlink:href="#9" y="17.368"/><use xlink:href="#10" y="19.539"/><use xlink:href="#11" y="21.71"/></svg><svg x="2520"><use xlink:href="#a"/><use xlink:href="#b" x="-.004" y="26.027"/><use xlink:href="#1"/><use xlink:href="#2" y="2.171"/><use xlink:href="#3" y="4.342"/><use xlink:href="#4" y="6.513"/><use xlink:href="#5" y="8.684"/><use xlink:href="#6" y="10.855"/><use xlink:href="#7" y="13.026"/><use xlink:href="#8" y="15.197"/><use xlink:href="#9" y="17.368"/><use xlink:href="#10" y="19.539"/><use xlink:href="#11" y="21.71"/><use xlink:href="#12" y="23.881"/></svg><svg x="2660"><use xlink:href="#a"/><use xlink:href="#b" x="19.996" y="26.027"/><use xlink:href="#1"/><use xlink:href="#2" y="2.171"/><use xlink:href="#3" y="4.342"/><use xlink:href="#4" y="6.513"/><use xlink:href="#5" y="8.684"/><use xlink:href="#6" y="10.855"/><use xlink:href="#7" y="13.026"/><use xlink:href="#8" y="15.197"/><use xlink:href="#9" y="17.368"/><use xlink:href="#10" y="19.539"/><use xlink:href="#11" y="21.71"/><use xlink:href="#12" y="23.881"/><text y="27.722" class="g">30033</text><text x="6.012" y="27.722" class="g">records</text><text x="14.028" y="27.722" class="g">sent,</text></svg><svg x="2800"><use xlink:href="#a"/><use xlink:href="#b" x="-.004" y="28.198"/><use xlink:href="#1"/><use xlink:href="#2" y="2.171"/><use xlink:href="#3" y="4.342"/><use xlink:href="#4" y="6.513"/><use xlink:href="#5" y="8.684"/><use xlink:href="#6" y="10.855"/><use xlink:href="#7" y="13.026"/><use xlink:href="#8" y="15.197"/><use xlink:href="#9" y="17.368"/><use xlink:href="#10" y="19.539"/><use xlink:href="#11" y="21.71"/><use xlink:href="#12" y="23.881"/><use xlink:href="#13" y="26.052"/></svg><svg x="2940"><use xlink:href="#a"/><use xlink:href="#b" x="-.004" y="30.369"/><use xlink:href="#1"/><use xlink:href="#2" y="2.171"/><use xlink:href="#3" y="4.342"/><use xlink:href="#4" y="6.513"/><use xlink:href="#5" y="8.684"/><use xlink:href="#6" y="10.855"/><use xlink:href="#7" y="13.026"/><use xlink:href="#8" y="15.197"/><use xlink:href="#9" y="17.368"/><use xlink:href="#10" y="19.539"/><use xlink:href="#11" y="21.71"/><use xlink:href="#12" y="23.881"/><use xlink:href="#13" y="26.052"/><use xlink:href="#14" y="28.223"/></svg><svg x="3080"><use xlink:href="#a"/><use xlink:href="#b" x="-.004" y="32.54"/><use xlink:href="#1"/><use xlink:href="#2" y="2.171"/><use xlink:href="#3" y="4.342"/><use xlink:href="#4" y="6.513"/><use xlink:href="#5" y="8.684"/><use xlink:href="#6" y="10.855"/><use xlink:href="#7" y="13.026"/><use xlink:href="#8" y="15.197"/><use xlink:href="#9" y="17.368"/><use xlink:href="#10" y="19.539"/><use xlink:href="#11" y="21.71"/><use xlink:href="#12" y="23.881"/><use xlink:href="#13" y="26.052"/><use xlink:href="#14" y="28.223"/><use xlink:href="#15" y="30.394"/></svg><svg x="3220"><use xlink:href="#a"/><use xlink:href="#b" x="20.996" y="32.54"/><use xlink:href="#1"/><use xlink:href="#2" y="2.171"/><use xlink:href="#3" y="4.342"/><use xlink:href="#4" y="6.513"/><use xlink:href="#5" y="8.684"/><use xlink:href="#6" y="10.855"/><use xlink:href="#7" y="13.026"/><use xlink:href="#8" y="15.197"/><use xlink:href="#9" y="17.368"/><use xlink:href="#10" y="19.539"/><use xlink:href="#11" y="21.71"/><use xlink:href="#12" y="23.881"/><use xlink:href="#13" y="26.052"/><use xlink:href="#14" y="28.223"/><use xlink:href="#15" y="30.394"/><text y="34.235" class="g">188856</text><text x="7.014" y="34.235" class="g">records</text><text x="15.03" y="34.235" class="g">sent,</text></svg><svg x="3360"><use xlink:href="#a"/><use xlink:href="#b" x="-.004" y="34.711"/><use xlink:href="#1"/><use xlink:href="#2" y="2.171"/><use xlink:href="#3" y="4.342"/><use xlink:href="#4" y="6.513"/><use xlink:href="#5" y="8.684"/><use xlink:href="#6" y="10.855"/><use xlink:href="#7" y="13.026"/><use xlink:href="#8" y="15.197"/><use xlink:href="#9" y="17.368"/><use xlink:href="#10" y="19.539"/><use xlink:href="#11" y="21.71"/><use xlink:href="#12" y="23.881"/><use xlink:href="#13" y="26.052"/><use xlink:href="#14" y="28.223"/><use xlink:href="#15" y="30.394"/><use xlink:href="#16" y="32.565"/></svg><svg x="3500"><use xlink:href="#a"/><use xlink:href="#b" x="-.004" y="36.882"/><use xlink:href="#1"/><use xlink:href="#2" y="2.171"/><use xlink:href="#3" y="4.342"/><use xlink:href="#4" y="6.513"/><use xlink:href="#5" y="8.684"/><use xlink:href="#6" y="10.855"/><use xlink:href="#7" y="13.026"/><use xlink:href="#8" y="15.197"/><use xlink:href="#9" y="17.368"/><use xlink:href="#10" y="19.539"/><use xlink:href="#11" y="21.71"/><use xlink:href="#12" y="23.881"/><use xlink:href="#13" y="26.052"/><use xlink:href="#14" y="28.223"/><use xlink:href="#15" y="30.394"/><use xlink:href="#16" y="32.565"/><use xlink:href="#17" y="34.736"/></svg><svg x="3640"><use xlink:href="#a"/><use xlink:href="#b" x="55.996" y="36.882"/><use xlink:href="#1"/><use xlink:href="#2" y="2.171"/><use xlink:href="#3" y="4.342"/><use xlink:href="#4" y="6.513"/><use xlink:href="#5" y="8.684"/><use xlink:href="#6" y="10.855"/><use xlink:href="#7" y="13.026"/><use xlink:href="#8" y="15.197"/><use xlink:href="#9" y="17.368"/><use xlink:href="#10" y="19.539"/><use xlink:href="#11" y="21.71"/><use xlink:href="#12" y="23.881"/><use xlink:href="#13" y="26.052"/><use xlink:href="#14" y="28.223"/><use xlink:href="#15" y="30.394"/><use xlink:href="#16" y="32.565"/><use xlink:href="#17" y="34.736"/><text y="38.577" class="g">167936</text><text x="7.014" y="38.577" class="g">records</text><text x="15.03" y="38.577" class="g">sent,</text><text x="21.042" y="38.577" class="g">33340,5</text><text x="29.058" y="38.577" class="g">records/sec</text><text x="41.082" y="38.577" class="g">(3,91</text><text x="47.094" y="38.577" class="g">MB/sec),</text></svg><svg x="3780"><use xlink:href="#a"/><use xlink:href="#b" x="-.004" y="39.053"/><use xlink:href="#1"/><use xlink:href="#2" y="2.171"/><use xlink:href="#3" y="4.342"/><use xlink:href="#4" y="6.513"/><use xlink:href="#5" y="8.684"/><use xlink:href="#6" y="10.855"/><use xlink:href="#7" y="13.026"/><use xlink:href="#8" y="15.197"/><use xlink:href="#9" y="17.368"/><use xlink:href="#10" y="19.539"/><use xlink:href="#11" y="21.71"/><use xlink:href="#12" y="23.881"/><use xlink:href="#13" y="26.052"/><use xlink:href="#14" y="28.223"/><use xlink:href="#15" y="30.394"/><use xlink:href="#16" y="32.565"/><use xlink:href="#17" y="34.736"/><use xlink:href="#18" y="36.907"/></svg><svg x="3920"><use xlink:href="#a"/><use xlink:href="#b" x="-.004" y="41.224"/><use xlink:href="#1"/><use xlink:href="#2" y="2.171"/><use xlink:href="#3" y="4.342"/><use xlink:href="#4" y="6.513"/><use xlink:href="#5" y="8.684"/><use xlink:href="#6" y="10.855"/><use xlink:href="#7" y="13.026"/><use xlink:href="#8" y="15.197"/><use xlink:href="#9" y="17.368"/><use xlink:href="#10" y="19.539"/><use xlink:href="#11" y="21.71"/><use xlink:href="#12" y="23.881"/><use xlink:href="#13" y="26.052"/><use xlink:href="#14" y="28.223"/><use xlink:href="#15" y="30.394"/><use xlink:href="#16" y="32.565"/><use xlink:href="#17" y="34.736"/><use xlink:href="#18" y="36.907"/><use xlink:href="#19" y="39.078"/></svg><svg x="4060"><use xlink:href="#a"/><use xlink:href="#b" x="21.996" y="41.224"/><use xlink:href="#1"/><use xlink:href="#2" y="2.171"/><use xlink:href="#3" y="4.342"/><use xlink:href="#4" y="6.513"/><use xlink:href="#5" y="8.684"/><use xlink:href="#6" y="10.855"/><use xlink:href="#7" y="13.026"/><use xlink:href="#8" y="15.197"/><use xlink:href="#9" y="17.368"/><use xlink:href="#10" y="19.539"/><use xlink:href="#11" y="21.71"/><use xlink:href="#12" y="23.881"/><use xlink:href="#13" y="26.052"/><use xlink:href="#14" y="28.223"/><use xlink:href="#15" y="30.394"/><use xlink:href="#16" y="32.565"/><use xlink:href="#17" y="34.736"/><use xlink:href="#18" y="36.907"/><use xlink:href="#19" y="39.078"/><text y="42.919" class="g">1000000</text><text x="8.016" y="42.919" class="g">records</text><text x="16.032" y="42.919" class="g">sent,</text></svg><svg x="4200"><use xlink:href="#a"/><use xlink:href="#b" x="-.004" y="43.395"/><use xlink:href="#2"/><use xlink:href="#3" y="2.171"/><use xlink:href="#4" y="4.342"/><use xlink:href="#5" y="6.513"/><use xlink:href="#6" y="8.684"/><use xlink:href="#7" y="10.855"/><use xlink:href="#8" y="13.026"/><use xlink:href="#9" y="15.197"/><use xlink:href="#10" y="17.368"/><use xlink:href="#11" y="19.539"/><use xlink:href="#12" y="21.71"/><use xlink:href="#13" y="23.881"/><use xlink:href="#14" y="26.052"/><use xlink:href="#15" y="28.223"/><use xlink:href="#16" y="30.394"/><use xlink:href="#17" y="32.565"/><use xlink:href="#18" y="34.736"/><use xlink:href="#19" y="36.907"/><text y="40.748" class="g">1000000</text><text x="8.016" y="40.748" class="g">records</text><text x="16.032" y="40.748" class="g">sent,</text><text x="22.044" y="40.748" class="g">28231,839869</text><text x="35.07" y="40.748" class="g">records/sec</text><text x="47.094" y="40.748" class="g">(3,31</text><text x="53.106" y="40.748" class="g">MB/sec),</text><text x="62.124" y="40.748" class="g">15758,86</text><text x="71.142" y="40.748" class="g">ms</text><text x="74.148" y="40.748" class="g">avg</text><text x="78.156" y="40.748" class="g">latency,</text><text x="87.174" y="40.748" class="g">27682,00</text><text x="96.192" y="40.748" class="g">ms</text><text x="99.198" y="40.748" class="g">max</text><text x="103.206" y="40.748" class="g">latency,</text><text x="112.224" y="40.748" class="g">15443</text><text x="118.236" y="40.748" class="g">ms</text><text x="121.242" y="40.748" class="g">50th,</text><text x="127.254" y="40.748" class="g">26383</text><text x="133.266" y="40.748" class="g">ms</text><text x="136.272" y="40.748" class="g">95th</text><text y="42.919" class="g">,</text><text x="2.004" y="42.919" class="g">27469</text><text x="8.016" y="42.919" class="g">ms</text><text x="11.022" y="42.919" class="g">99th,</text><text x="17.034" y="42.919" class="g">27681</text><text x="23.046" y="42.919" class="g">ms</text><text x="26.052" y="42.919" class="g">99.9th.</text></svg></svg></g></g></svg></svg>