<svg xmlns="http://www.w3.org/2000/svg" xmlns:xlink="http://www.w3.org/1999/xlink" width="1440" height="298.81"><rect width="1440" height="298.81" rx="5" ry="5" class="a"/><svg y="0%" x="0%"><circle cx="20" cy="20" r="6" fill="#ff5f58"/><circle cx="40" cy="20" r="6" fill="#ffbd2e"/><circle cx="60" cy="20" r="6" fill="#18c132"/></svg><svg height="238.81" viewBox="0 0 140 23.881" width="1400" x="15" xmlns="http://www.w3.org/2000/svg" xmlns:xlink="http://www.w3.org/1999/xlink" y="50"><style>@keyframes j{0%{transform:translateX(0)}.9%{transform:translateX(-140px)}1.1%{transform:translateX(-280px)}7.1%{transform:translateX(-420px)}10.2%{transform:translateX(-560px)}13.3%{transform:translateX(-700px)}16.3%{transform:translateX(-840px)}19.5%{transform:translateX(-980px)}22.6%{transform:translateX(-1120px)}25.7%{transform:translateX(-1260px)}28.8%{transform:translateX(-1400px)}31.8%{transform:translateX(-1540px)}34.9%{transform:translateX(-1680px)}38%{transform:translateX(-1820px)}41.2%{transform:translateX(-1960px)}44.2%{transform:translateX(-2100px)}50.4%{transform:translateX(-2240px)}53.5%{transform:translateX(-2380px)}56.6%{transform:translateX(-2520px)}59.7%{transform:translateX(-2660px)}62.8%{transform:translateX(-2800px)}65.9%{transform:translateX(-3080px)}to{transform:translateX(-3360px)}}.a{fill:#282d35}.f,.g{fill:#fff;white-space:pre}.g{fill:#b9c0cb}</style><g font-family="Monaco,Consolas,Menlo,'Bitstream Vera Sans Mono','Powerline Symbols',monospace" font-size="1.67"><defs><symbol id="1"><text y="1.67" class="f">kafka-topics</text><text x="13.026" y="1.67" class="f">\</text></symbol><symbol id="2"><text x="4.008" y="1.67" class="f">-</text></symbol><symbol id="3"><text x="4.008" y="1.67" class="f">--bootstrap-server</text><text x="23.046" y="1.67" class="f">localhost:6969</text><text x="38.076" y="1.67" class="f">\</text></symbol><symbol id="4"><text x="4.008" y="1.67" class="f">--command-config</text><text x="21.042" y="1.67" class="f">teamA-sa.properties</text><text x="41.082" y="1.67" class="f">\</text></symbol><symbol id="5"><text x="4.008" y="1.67" class="f">--replication-factor</text><text x="25.05" y="1.67" class="f">1</text><text x="27.054" y="1.67" class="f">\</text></symbol><symbol id="6"><text x="4.008" y="1.67" class="f">--partitions</text><text x="17.034" y="1.67" class="f">100</text><text x="21.042" y="1.67" class="f">\</text></symbol><symbol id="7"><text x="4.008" y="1.67" class="f">--create</text><text x="13.026" y="1.67" class="f">--if-not-exists</text><text x="29.058" y="1.67" class="f">\</text></symbol><symbol id="8"><text x="4.008" y="1.67" class="f">--topic</text><text x="12.024" y="1.67" class="f">roads</text></symbol><symbol id="9"><text y="1.67" class="g">Error</text><text x="6.012" y="1.67" class="g">while</text><text x="12.024" y="1.67" class="g">executing</text><text x="22.044" y="1.67" class="g">topic</text><text x="28.056" y="1.67" class="g">command</text><text x="36.072" y="1.67" class="g">:</text><text x="38.076" y="1.67" class="g">Request</text><text x="46.092" y="1.67" class="g">parameters</text><text x="57.114" y="1.67" class="g">do</text><text x="60.12" y="1.67" class="g">not</text><text x="64.128" y="1.67" class="g">satisfy</text><text x="72.144" y="1.67" class="g">the</text><text x="76.152" y="1.67" class="g">configured</text><text x="87.174" y="1.67" class="g">policy.</text><text x="95.19" y="1.67" class="g">Topic</text><text x="101.202" y="1.67" class="g">&apos;roads&apos;</text><text x="109.218" y="1.67" class="g">with</text><text x="114.228" y="1.67" class="g">number</text><text x="121.242" y="1.67" class="g">partitions</text><text x="132.264" y="1.67" class="g">is</text><text x="135.27" y="1.67" class="g">&apos;100&apos;</text></symbol><symbol id="10"><text y="1.67" class="g">,</text><text x="2.004" y="1.67" class="g">must</text><text x="7.014" y="1.67" class="g">not</text><text x="11.022" y="1.67" class="g">be</text><text x="14.028" y="1.67" class="g">greater</text><text x="22.044" y="1.67" class="g">than</text><text x="27.054" y="1.67" class="g">3.</text><text x="30.06" y="1.67" class="g">Topic</text><text x="36.072" y="1.67" class="g">&apos;roads&apos;</text><text x="44.088" y="1.67" class="g">with</text><text x="49.098" y="1.67" class="g">replication</text><text x="61.122" y="1.67" class="g">factor</text><text x="68.136" y="1.67" class="g">is</text><text x="71.142" y="1.67" class="g">&apos;1&apos;,</text><text x="76.152" y="1.67" class="g">must</text><text x="81.162" y="1.67" class="g">not</text><text x="85.17" y="1.67" class="g">be</text><text x="88.176" y="1.67" class="g">less</text><text x="93.186" y="1.67" class="g">than</text><text x="98.196" y="1.67" class="g">2</text></symbol><symbol id="a"><path fill="transparent" d="M0 0h140v12H0z"/></symbol><symbol id="b"><path fill="#6f7683" d="M0 0h1.102v2.171H0z"/></symbol></defs><path class="a" d="M0 0h140v23.881H0z"/><g style="animation-duration:3.030529s;animation-iteration-count:infinite;animation-name:j;animation-timing-function:steps(1,end)"><svg width="3500"><svg><use xlink:href="#a"/><use xlink:href="#b" x="-.004"/></svg><svg x="140"><use xlink:href="#a"/><use xlink:href="#b" x="-.004"/></svg><svg x="280"><use xlink:href="#a"/><use xlink:href="#b" x="9.996"/><text y="1.67" class="f">kafka-topi</text></svg><svg x="420"><use xlink:href="#a"/><use xlink:href="#b" x="4.996" y="2.146"/><use xlink:href="#1"/><use xlink:href="#2" y="2.171"/></svg><svg x="560"><use xlink:href="#a"/><use xlink:href="#b" x="14.996" y="2.146"/><use xlink:href="#1"/><text x="4.008" y="3.841" class="f">--bootstrap</text></svg><svg x="700"><use xlink:href="#a"/><use xlink:href="#b" x="24.996" y="2.146"/><use xlink:href="#1"/><text x="4.008" y="3.841" class="f">--bootstrap-server</text><text x="23.046" y="3.841" class="f">lo</text></svg><svg x="840"><use xlink:href="#a"/><use xlink:href="#b" x="34.996" y="2.146"/><use xlink:href="#1"/><text x="4.008" y="3.841" class="f">--bootstrap-server</text><text x="23.046" y="3.841" class="f">localhost:69</text></svg><svg x="980"><use xlink:href="#a"/><use xlink:href="#b" x="4.996" y="4.317"/><use xlink:href="#1"/><use xlink:href="#3" y="2.171"/><use xlink:href="#2" y="4.342"/></svg><svg x="1120"><use xlink:href="#a"/><use xlink:href="#b" x="14.996" y="4.317"/><use xlink:href="#1"/><use xlink:href="#3" y="2.171"/><text x="4.008" y="6.012" class="f">--command-c</text></svg><svg x="1260"><use xlink:href="#a"/><use xlink:href="#b" x="24.996" y="4.317"/><use xlink:href="#1"/><use xlink:href="#3" y="2.171"/><text x="4.008" y="6.012" class="f">--command-config</text><text x="21.042" y="6.012" class="f">team</text></svg><svg x="1400"><use xlink:href="#a"/><use xlink:href="#b" x="34.996" y="4.317"/><use xlink:href="#1"/><use xlink:href="#3" y="2.171"/><text x="4.008" y="6.012" class="f">--command-config</text><text x="21.042" y="6.012" class="f">teamA-sa.prope</text></svg><svg x="1540"><use xlink:href="#a"/><use xlink:href="#b" x="1.996" y="6.488"/><use xlink:href="#1"/><use xlink:href="#3" y="2.171"/><use xlink:href="#4" y="4.342"/></svg><svg x="1680"><use xlink:href="#a"/><use xlink:href="#b" x="11.996" y="6.488"/><use xlink:href="#1"/><use xlink:href="#3" y="2.171"/><use xlink:href="#4" y="4.342"/><text x="4.008" y="8.183" class="f">--replic</text></svg><svg x="1820"><use xlink:href="#a"/><use xlink:href="#b" x="21.996" y="6.488"/><use xlink:href="#1"/><use xlink:href="#3" y="2.171"/><use xlink:href="#4" y="4.342"/><text x="4.008" y="8.183" class="f">--replication-fact</text></svg><svg x="1960"><use xlink:href="#a"/><use xlink:href="#b" x="2.996" y="8.659"/><use xlink:href="#1"/><use xlink:href="#3" y="2.171"/><use xlink:href="#4" y="4.342"/><use xlink:href="#5" y="6.513"/></svg><svg x="2100"><use xlink:href="#a"/><use xlink:href="#b" x="12.996" y="8.659"/><use xlink:href="#1"/><use xlink:href="#3" y="2.171"/><use xlink:href="#4" y="4.342"/><use xlink:href="#5" y="6.513"/><text x="4.008" y="10.354" class="f">--partiti</text></svg><svg x="2240"><use xlink:href="#a"/><use xlink:href="#b" x="-.004" y="10.83"/><use xlink:href="#1"/><use xlink:href="#3" y="2.171"/><use xlink:href="#4" y="4.342"/><use xlink:href="#5" y="6.513"/><use xlink:href="#6" y="8.684"/></svg><svg x="2380"><use xlink:href="#a"/><use xlink:href="#b" x="9.996" y="10.83"/><use xlink:href="#1"/><use xlink:href="#3" y="2.171"/><use xlink:href="#4" y="4.342"/><use xlink:href="#5" y="6.513"/><use xlink:href="#6" y="8.684"/><text x="4.008" y="12.525" class="f">--crea</text></svg><svg x="2520"><use xlink:href="#a"/><use xlink:href="#b" x="19.996" y="10.83"/><use xlink:href="#1"/><use xlink:href="#3" y="2.171"/><use xlink:href="#4" y="4.342"/><use xlink:href="#5" y="6.513"/><use xlink:href="#6" y="8.684"/><text x="4.008" y="12.525" class="f">--create</text><text x="13.026" y="12.525" class="f">--if-no</text></svg><svg x="2660"><use xlink:href="#a"/><use xlink:href="#b" x="29.996" y="10.83"/><use xlink:href="#1"/><use xlink:href="#3" y="2.171"/><use xlink:href="#4" y="4.342"/><use xlink:href="#5" y="6.513"/><use xlink:href="#6" y="8.684"/><use xlink:href="#7" y="10.855"/></svg><svg x="2800"><use xlink:href="#a"/><use xlink:href="#b" x="8.996" y="13.001"/><use xlink:href="#1"/><use xlink:href="#3" y="2.171"/><use xlink:href="#4" y="4.342"/><use xlink:href="#5" y="6.513"/><use xlink:href="#6" y="8.684"/><use xlink:href="#7" y="10.855"/><text x="4.008" y="14.696" class="f">--top</text></svg><svg x="2940"><use xlink:href="#a"/><use xlink:href="#b" x="-.004" y="15.172"/><use xlink:href="#1"/><use xlink:href="#3" y="2.171"/><use xlink:href="#4" y="4.342"/><use xlink:href="#5" y="6.513"/><use xlink:href="#6" y="8.684"/><use xlink:href="#7" y="10.855"/><use xlink:href="#8" y="13.026"/></svg><svg x="3080"><use xlink:href="#a"/><use xlink:href="#b" x="-.004" y="17.343"/><use xlink:href="#1"/><use xlink:href="#3" y="2.171"/><use xlink:href="#4" y="4.342"/><use xlink:href="#5" y="6.513"/><use xlink:href="#6" y="8.684"/><use xlink:href="#7" y="10.855"/><use xlink:href="#8" y="13.026"/></svg><svg x="3220"><use xlink:href="#a"/><use xlink:href="#b" x="-.004" y="21.685"/><use xlink:href="#1"/><use xlink:href="#3" y="2.171"/><use xlink:href="#4" y="4.342"/><use xlink:href="#5" y="6.513"/><use xlink:href="#6" y="8.684"/><use xlink:href="#7" y="10.855"/><use xlink:href="#8" y="13.026"/><use xlink:href="#9" y="17.368"/><use xlink:href="#10" y="19.539"/></svg><svg x="3360"><use xlink:href="#a"/><use xlink:href="#b" x="-.004" y="23.856"/><use xlink:href="#5"/><use xlink:href="#6" y="2.171"/><use xlink:href="#7" y="4.342"/><use xlink:href="#8" y="6.513"/><use xlink:href="#9" y="10.855"/><use xlink:href="#10" y="13.026"/><text y="16.867" class="g">[2024-01-23</text><text x="12.024" y="16.867" class="g">00:24:47,296]</text><text x="26.052" y="16.867" class="g">ERROR</text><text x="32.064" y="16.867" class="g">org.apache.kafka.common.errors.PolicyViolationException:</text><text x="89.178" y="16.867" class="g">Request</text><text x="97.194" y="16.867" class="g">parameters</text><text x="108.216" y="16.867" class="g">do</text><text x="111.222" y="16.867" class="g">not</text><text x="115.23" y="16.867" class="g">satisfy</text><text x="123.246" y="16.867" class="g">the</text><text x="127.254" y="16.867" class="g">configured</text><text x="138.276" y="16.867" class="g">po</text><text y="19.038" class="g">licy.</text><text x="6.012" y="19.038" class="g">Topic</text><text x="12.024" y="19.038" class="g">&apos;roads&apos;</text><text x="20.04" y="19.038" class="g">with</text><text x="25.05" y="19.038" class="g">number</text><text x="32.064" y="19.038" class="g">partitions</text><text x="43.086" y="19.038" class="g">is</text><text x="46.092" y="19.038" class="g">&apos;100&apos;,</text><text x="53.106" y="19.038" class="g">must</text><text x="58.116" y="19.038" class="g">not</text><text x="62.124" y="19.038" class="g">be</text><text x="65.13" y="19.038" class="g">greater</text><text x="73.146" y="19.038" class="g">than</text><text x="78.156" y="19.038" class="g">3.</text><text x="81.162" y="19.038" class="g">Topic</text><text x="87.174" y="19.038" class="g">&apos;roads&apos;</text><text x="95.19" y="19.038" class="g">with</text><text x="100.2" y="19.038" class="g">replication</text><text x="112.224" y="19.038" class="g">factor</text><text x="119.238" y="19.038" class="g">is</text><text x="122.244" y="19.038" class="g">&apos;1&apos;,</text><text x="127.254" y="19.038" class="g">must</text><text x="132.264" y="19.038" class="g">not</text><text x="136.272" y="19.038" class="g">be</text><text x="139.278" y="19.038" class="g">l</text><text y="21.209" class="g">ess</text><text x="4.008" y="21.209" class="g">than</text><text x="9.018" y="21.209" class="g">2</text><text x="1.002" y="23.38" class="g">(kafka.admin.TopicCommand$)</text></svg></svg></g></g></svg></svg>