<svg xmlns="http://www.w3.org/2000/svg" xmlns:xlink="http://www.w3.org/1999/xlink" width="1440" height="233.68"><rect width="1440" height="233.68" rx="5" ry="5" class="a"/><svg y="0%" x="0%"><circle cx="20" cy="20" r="6" fill="#ff5f58"/><circle cx="40" cy="20" r="6" fill="#ffbd2e"/><circle cx="60" cy="20" r="6" fill="#18c132"/></svg><svg height="173.68" viewBox="0 0 140 17.368" width="1400" x="15" xmlns="http://www.w3.org/2000/svg" xmlns:xlink="http://www.w3.org/1999/xlink" y="50"><style>@keyframes j{0%{transform:translateX(0)}3.6%{transform:translateX(-140px)}4%{transform:translateX(-280px)}11.3%{transform:translateX(-420px)}14.9%{transform:translateX(-560px)}18.6%{transform:translateX(-700px)}22.3%{transform:translateX(-840px)}26.1%{transform:translateX(-980px)}29.9%{transform:translateX(-1120px)}33.7%{transform:translateX(-1260px)}37.4%{transform:translateX(-1400px)}41.2%{transform:translateX(-1540px)}45%{transform:translateX(-1680px)}48.5%{transform:translateX(-1820px)}52.3%{transform:translateX(-1960px)}56.1%{transform:translateX(-2100px)}56.2%{transform:translateX(-2240px)}to{transform:translateX(-3360px)}}.a{fill:#282d35}.f,.g{fill:#fff;white-space:pre}.g{fill:#b9c0cb}</style><g font-family="Monaco,Consolas,Menlo,'Bitstream Vera Sans Mono','Powerline Symbols',monospace" font-size="1.67"><defs><symbol id="1"><text y="1.67" class="f">kafka-topics</text><text x="13.026" y="1.67" class="f">\</text></symbol><symbol id="2"><text x="4.008" y="1.67" class="f">-</text></symbol><symbol id="3"><text x="4.008" y="1.67" class="f">--bootstrap-server</text><text x="23.046" y="1.67" class="f">localhost:6969</text><text x="38.076" y="1.67" class="f">\</text></symbol><symbol id="4"><text x="4.008" y="1.67" class="f">--command-config</text><text x="21.042" y="1.67" class="f">teamA-sa.properties</text><text x="41.082" y="1.67" class="f">\</text></symbol><symbol id="5"><text x="4.008" y="1.67" class="f">--describe</text><text x="15.03" y="1.67" class="f">\</text></symbol><symbol id="6"><text x="4.008" y="1.67" class="f">--topic</text><text x="12.024" y="1.67" class="f">cars</text></symbol><symbol id="7"><text y="1.67" class="g">Topic:</text><text x="7.014" y="1.67" class="g">cars</text><text x="16.032" y="1.67" class="g">TopicId:</text><text x="25.05" y="1.67" class="g">Wz_b2SCMQNSRFzHB71SWQw</text><text x="48.096" y="1.67" class="g">PartitionCount:</text><text x="64.128" y="1.67" class="g">1</text><text x="72.144" y="1.67" class="g">ReplicationFactor:</text><text x="91.182" y="1.67" class="g">1</text><text x="96.192" y="1.67" class="g">Configs:</text></symbol><symbol id="8"><text x="8.016" y="1.67" class="g">Topic:</text><text x="15.03" y="1.67" class="g">cars</text><text x="24.048" y="1.67" class="g">Partition:</text><text x="35.07" y="1.67" class="g">0</text><text x="40.08" y="1.67" class="g">Leader:</text><text x="48.096" y="1.67" class="g">3</text><text x="56.112" y="1.67" class="g">Replicas:</text><text x="66.132" y="1.67" class="g">3</text><text x="72.144" y="1.67" class="g">Isr:</text><text x="77.154" y="1.67" class="g">3</text></symbol><symbol id="a"><path fill="transparent" d="M0 0h140v9H0z"/></symbol><symbol id="b"><path fill="#6f7683" d="M0 0h1.102v2.171H0z"/></symbol></defs><path class="a" d="M0 0h140v17.368H0z"/><g style="animation-duration:2.520742s;animation-iteration-count:infinite;animation-name:j;animation-timing-function:steps(1,end)"><svg width="3500"><svg><use xlink:href="#a"/><use xlink:href="#b" x="-.004"/></svg><svg x="140"><use xlink:href="#a"/><use xlink:href="#b" x="-.004"/></svg><svg x="280"><use xlink:href="#a"/><use xlink:href="#b" x="9.996"/><text y="1.67" class="f">kafka-topi</text></svg><svg x="420"><use xlink:href="#a"/><use xlink:href="#b" x="4.996" y="2.146"/><use xlink:href="#1"/><use xlink:href="#2" y="2.171"/></svg><svg x="560"><use xlink:href="#a"/><use xlink:href="#b" x="14.996" y="2.146"/><use xlink:href="#1"/><text x="4.008" y="3.841" class="f">--bootstrap</text></svg><svg x="700"><use xlink:href="#a"/><use xlink:href="#b" x="24.996" y="2.146"/><use xlink:href="#1"/><text x="4.008" y="3.841" class="f">--bootstrap-server</text><text x="23.046" y="3.841" class="f">lo</text></svg><svg x="840"><use xlink:href="#a"/><use xlink:href="#b" x="34.996" y="2.146"/><use xlink:href="#1"/><text x="4.008" y="3.841" class="f">--bootstrap-server</text><text x="23.046" y="3.841" class="f">localhost:69</text></svg><svg x="980"><use xlink:href="#a"/><use xlink:href="#b" x="4.996" y="4.317"/><use xlink:href="#1"/><use xlink:href="#3" y="2.171"/><use xlink:href="#2" y="4.342"/></svg><svg x="1120"><use xlink:href="#a"/><use xlink:href="#b" x="14.996" y="4.317"/><use xlink:href="#1"/><use xlink:href="#3" y="2.171"/><text x="4.008" y="6.012" class="f">--command-c</text></svg><svg x="1260"><use xlink:href="#a"/><use xlink:href="#b" x="24.996" y="4.317"/><use xlink:href="#1"/><use xlink:href="#3" y="2.171"/><text x="4.008" y="6.012" class="f">--command-config</text><text x="21.042" y="6.012" class="f">team</text></svg><svg x="1400"><use xlink:href="#a"/><use xlink:href="#b" x="34.996" y="4.317"/><use xlink:href="#1"/><use xlink:href="#3" y="2.171"/><text x="4.008" y="6.012" class="f">--command-config</text><text x="21.042" y="6.012" class="f">teamA-sa.prope</text></svg><svg x="1540"><use xlink:href="#a"/><use xlink:href="#b" x="1.996" y="6.488"/><use xlink:href="#1"/><use xlink:href="#3" y="2.171"/><use xlink:href="#4" y="4.342"/></svg><svg x="1680"><use xlink:href="#a"/><use xlink:href="#b" x="11.996" y="6.488"/><use xlink:href="#1"/><use xlink:href="#3" y="2.171"/><use xlink:href="#4" y="4.342"/><text x="4.008" y="8.183" class="f">--descri</text></svg><svg x="1820"><use xlink:href="#a"/><use xlink:href="#b" x="4.996" y="8.659"/><use xlink:href="#1"/><use xlink:href="#3" y="2.171"/><use xlink:href="#4" y="4.342"/><use xlink:href="#5" y="6.513"/><use xlink:href="#2" y="8.684"/></svg><svg x="1960"><use xlink:href="#a"/><use xlink:href="#b" x="14.996" y="8.659"/><use xlink:href="#1"/><use xlink:href="#3" y="2.171"/><use xlink:href="#4" y="4.342"/><use xlink:href="#5" y="6.513"/><text x="4.008" y="10.354" class="f">--topic</text><text x="12.024" y="10.354" class="f">car</text></svg><svg x="2100"><use xlink:href="#a"/><use xlink:href="#b" x="-.004" y="10.83"/><use xlink:href="#1"/><use xlink:href="#3" y="2.171"/><use xlink:href="#4" y="4.342"/><use xlink:href="#5" y="6.513"/><use xlink:href="#6" y="8.684"/></svg><svg x="2240"><use xlink:href="#a"/><use xlink:href="#b" x="-.004" y="13.001"/><use xlink:href="#1"/><use xlink:href="#3" y="2.171"/><use xlink:href="#4" y="4.342"/><use xlink:href="#5" y="6.513"/><use xlink:href="#6" y="8.684"/></svg><svg x="2380"><use xlink:href="#a"/><use xlink:href="#b" x="10.996" y="13.001"/><use xlink:href="#1"/><use xlink:href="#3" y="2.171"/><use xlink:href="#4" y="4.342"/><use xlink:href="#5" y="6.513"/><use xlink:href="#6" y="8.684"/><text y="14.696" class="g">Topic:</text><text x="7.014" y="14.696" class="g">cars</text></svg><svg x="2520"><use xlink:href="#a"/><use xlink:href="#b" x="64.996" y="13.001"/><use xlink:href="#1"/><use xlink:href="#3" y="2.171"/><use xlink:href="#4" y="4.342"/><use xlink:href="#5" y="6.513"/><use xlink:href="#6" y="8.684"/><text y="14.696" class="g">Topic:</text><text x="7.014" y="14.696" class="g">cars</text><text x="16.032" y="14.696" class="g">TopicId:</text><text x="25.05" y="14.696" class="g">Wz_b2SCMQNSRFzHB71SWQw</text><text x="48.096" y="14.696" class="g">PartitionCount:</text><text x="64.128" y="14.696" class="g">1</text></svg><svg x="2660"><use xlink:href="#a"/><use xlink:href="#b" x="-.004" y="15.172"/><use xlink:href="#1"/><use xlink:href="#3" y="2.171"/><use xlink:href="#4" y="4.342"/><use xlink:href="#5" y="6.513"/><use xlink:href="#6" y="8.684"/><use xlink:href="#7" y="13.026"/></svg><svg x="2800"><use xlink:href="#a"/><use xlink:href="#b" x="18.996" y="15.172"/><use xlink:href="#1"/><use xlink:href="#3" y="2.171"/><use xlink:href="#4" y="4.342"/><use xlink:href="#5" y="6.513"/><use xlink:href="#6" y="8.684"/><use xlink:href="#7" y="13.026"/><text x="8.016" y="16.867" class="g">Topic:</text><text x="15.03" y="16.867" class="g">cars</text></svg><svg x="2940"><use xlink:href="#a"/><use xlink:href="#b" x="48.996" y="15.172"/><use xlink:href="#1"/><use xlink:href="#3" y="2.171"/><use xlink:href="#4" y="4.342"/><use xlink:href="#5" y="6.513"/><use xlink:href="#6" y="8.684"/><use xlink:href="#7" y="13.026"/><text x="8.016" y="16.867" class="g">Topic:</text><text x="15.03" y="16.867" class="g">cars</text><text x="24.048" y="16.867" class="g">Partition:</text><text x="35.07" y="16.867" class="g">0</text><text x="40.08" y="16.867" class="g">Leader:</text><text x="48.096" y="16.867" class="g">3</text></svg><svg x="3080"><use xlink:href="#a"/><use xlink:href="#b" x="66.996" y="15.172"/><use xlink:href="#1"/><use xlink:href="#3" y="2.171"/><use xlink:href="#4" y="4.342"/><use xlink:href="#5" y="6.513"/><use xlink:href="#6" y="8.684"/><use xlink:href="#7" y="13.026"/><text x="8.016" y="16.867" class="g">Topic:</text><text x="15.03" y="16.867" class="g">cars</text><text x="24.048" y="16.867" class="g">Partition:</text><text x="35.07" y="16.867" class="g">0</text><text x="40.08" y="16.867" class="g">Leader:</text><text x="48.096" y="16.867" class="g">3</text><text x="56.112" y="16.867" class="g">Replicas:</text><text x="66.132" y="16.867" class="g">3</text></svg><svg x="3220"><use xlink:href="#a"/><use xlink:href="#b" x="77.996" y="15.172"/><use xlink:href="#1"/><use xlink:href="#3" y="2.171"/><use xlink:href="#4" y="4.342"/><use xlink:href="#5" y="6.513"/><use xlink:href="#6" y="8.684"/><use xlink:href="#7" y="13.026"/><use xlink:href="#8" y="15.197"/></svg><svg x="3360"><use xlink:href="#a"/><use xlink:href="#b" x="-.004" y="17.343"/><use xlink:href="#1"/><use xlink:href="#3" y="2.171"/><use xlink:href="#4" y="4.342"/><use xlink:href="#5" y="6.513"/><use xlink:href="#6" y="8.684"/><use xlink:href="#7" y="13.026"/><use xlink:href="#8" y="15.197"/></svg></svg></g></g></svg></svg>