<svg xmlns="http://www.w3.org/2000/svg" xmlns:xlink="http://www.w3.org/1999/xlink" width="1440" height="277.1"><rect width="1440" height="277.1" rx="5" ry="5" class="a"/><svg y="0%" x="0%"><circle cx="20" cy="20" r="6" fill="#ff5f58"/><circle cx="40" cy="20" r="6" fill="#ffbd2e"/><circle cx="60" cy="20" r="6" fill="#18c132"/></svg><svg height="217.1" viewBox="0 0 140 21.71" width="1400" x="15" xmlns="http://www.w3.org/2000/svg" xmlns:xlink="http://www.w3.org/1999/xlink" y="50"><style>@keyframes j{0%{transform:translateX(0)}2.4%{transform:translateX(-140px)}2.6%{transform:translateX(-280px)}7.5%{transform:translateX(-420px)}10%{transform:translateX(-560px)}12.5%{transform:translateX(-700px)}15%{transform:translateX(-840px)}17.6%{transform:translateX(-980px)}20.1%{transform:translateX(-1120px)}22.7%{transform:translateX(-1260px)}25.2%{transform:translateX(-1400px)}27.7%{transform:translateX(-1540px)}30.2%{transform:translateX(-1680px)}32.7%{transform:translateX(-1820px)}35.3%{transform:translateX(-1960px)}37.7%{transform:translateX(-2100px)}40.1%{transform:translateX(-2240px)}45.1%{transform:translateX(-2520px)}98.6%{transform:translateX(-2660px)}to{transform:translateX(-2800px)}}.a{fill:#282d35}.f,.g{fill:#fff;white-space:pre}.g{fill:#b9c0cb}</style><g font-family="Monaco,Consolas,Menlo,'Bitstream Vera Sans Mono','Powerline Symbols',monospace" font-size="1.67"><defs><symbol id="1"><text y="1.67" class="f">kafka-console-consumer</text><text x="23.046" y="1.67" class="f">\</text></symbol><symbol id="2"><text x="4.008" y="1.67" class="f">--bootstrap-server</text><text x="23.046" y="1.67" class="f">localhost:19092,localhost:19093,localhost:19094</text><text x="71.142" y="1.67" class="f">\</text></symbol><symbol id="3"><text x="4.008" y="1.67" class="f">--topic</text><text x="12.024" y="1.67" class="f">_auditLogs</text><text x="23.046" y="1.67" class="f">\</text></symbol><symbol id="4"><text x="4.008" y="1.67" class="f">--from-beginning</text><text x="21.042" y="1.67" class="f">\</text></symbol><symbol id="5"><text x="4.008" y="1.67" class="f">--timeout-ms</text><text x="17.034" y="1.67" class="f">3000</text><text x="22.044" y="1.67" class="f">\</text></symbol><symbol id="6"><text x="1.002" y="1.67" class="f">|</text><text x="3.006" y="1.67" class="f">jq</text><text x="6.012" y="1.67" class="f">&apos;select(.type==&quot;SAFEGUARD&quot;</text><text x="33.066" y="1.67" class="f">and</text><text x="37.074" y="1.67" class="f">.eventData.plugin==&quot;io.conduktor.gateway.interceptor.safeguard.LimitCommitOffsetPolicyPlugin&quot;)&apos;</text></symbol><symbol id="7"><text y="1.67" class="g">[2024-01-23</text><text x="12.024" y="1.67" class="g">00:26:39,552]</text><text x="26.052" y="1.67" class="g">ERROR</text><text x="32.064" y="1.67" class="g">Error</text><text x="38.076" y="1.67" class="g">processing</text><text x="49.098" y="1.67" class="g">message,</text><text x="58.116" y="1.67" class="g">terminating</text><text x="70.14" y="1.67" class="g">consumer</text><text x="79.158" y="1.67" class="g">process:</text><text x="89.178" y="1.67" class="g">(kafka.tools.ConsoleConsumer$)</text></symbol><symbol id="8"><text y="1.67" class="g">org.apache.kafka.common.errors.TimeoutException</text></symbol><symbol id="a"><path fill="transparent" d="M0 0h140v11H0z"/></symbol><symbol id="b"><path fill="#6f7683" d="M0 0h1.102v2.171H0z"/></symbol></defs><path class="a" d="M0 0h140v21.71H0z"/><g style="animation-duration:3.7396589999999996s;animation-iteration-count:infinite;animation-name:j;animation-timing-function:steps(1,end)"><svg width="2940"><svg><use xlink:href="#a"/><use xlink:href="#b" x="-.004"/></svg><svg x="140"><use xlink:href="#a"/><use xlink:href="#b" x="-.004"/></svg><svg x="280"><use xlink:href="#a"/><use xlink:href="#b" x="19.996"/><text y="1.67" class="f">kafka-console-consum</text></svg><svg x="420"><use xlink:href="#a"/><use xlink:href="#b" x="14.996" y="2.146"/><use xlink:href="#1"/><text x="4.008" y="3.841" class="f">--bootstrap</text></svg><svg x="560"><use xlink:href="#a"/><use xlink:href="#b" x="34.996" y="2.146"/><use xlink:href="#1"/><text x="4.008" y="3.841" class="f">--bootstrap-server</text><text x="23.046" y="3.841" class="f">localhost:19</text></svg><svg x="700"><use xlink:href="#a"/><use xlink:href="#b" x="54.996" y="2.146"/><use xlink:href="#1"/><text x="4.008" y="3.841" class="f">--bootstrap-server</text><text x="23.046" y="3.841" class="f">localhost:19092,localhost:19093,</text></svg><svg x="840"><use xlink:href="#a"/><use xlink:href="#b" x="1.996" y="4.317"/><use xlink:href="#1"/><use xlink:href="#2" y="2.171"/></svg><svg x="980"><use xlink:href="#a"/><use xlink:href="#b" x="21.996" y="4.317"/><use xlink:href="#1"/><use xlink:href="#2" y="2.171"/><text x="4.008" y="6.012" class="f">--topic</text><text x="12.024" y="6.012" class="f">_auditLogs</text></svg><svg x="1120"><use xlink:href="#a"/><use xlink:href="#b" x="16.996" y="6.488"/><use xlink:href="#1"/><use xlink:href="#2" y="2.171"/><use xlink:href="#3" y="4.342"/><text x="4.008" y="8.183" class="f">--from-beginn</text></svg><svg x="1260"><use xlink:href="#a"/><use xlink:href="#b" x="13.996" y="8.659"/><use xlink:href="#1"/><use xlink:href="#2" y="2.171"/><use xlink:href="#3" y="4.342"/><use xlink:href="#4" y="6.513"/><text x="4.008" y="10.354" class="f">--timeout-</text></svg><svg x="1400"><use xlink:href="#a"/><use xlink:href="#b" x="9.996" y="10.83"/><use xlink:href="#1"/><use xlink:href="#2" y="2.171"/><use xlink:href="#3" y="4.342"/><use xlink:href="#4" y="6.513"/><use xlink:href="#5" y="8.684"/><text x="1.002" y="12.525" class="f">|</text><text x="3.006" y="12.525" class="f">jq</text><text x="6.012" y="12.525" class="f">&apos;sel</text></svg><svg x="1540"><use xlink:href="#a"/><use xlink:href="#b" x="29.996" y="10.83"/><use xlink:href="#1"/><use xlink:href="#2" y="2.171"/><use xlink:href="#3" y="4.342"/><use xlink:href="#4" y="6.513"/><use xlink:href="#5" y="8.684"/><text x="1.002" y="12.525" class="f">|</text><text x="3.006" y="12.525" class="f">jq</text><text x="6.012" y="12.525" class="f">&apos;select(.type==&quot;SAFEGUAR</text></svg><svg x="1680"><use xlink:href="#a"/><use xlink:href="#b" x="49.996" y="10.83"/><use xlink:href="#1"/><use xlink:href="#2" y="2.171"/><use xlink:href="#3" y="4.342"/><use xlink:href="#4" y="6.513"/><use xlink:href="#5" y="8.684"/><text x="1.002" y="12.525" class="f">|</text><text x="3.006" y="12.525" class="f">jq</text><text x="6.012" y="12.525" class="f">&apos;select(.type==&quot;SAFEGUARD&quot;</text><text x="33.066" y="12.525" class="f">and</text><text x="37.074" y="12.525" class="f">.eventData.pl</text></svg><svg x="1820"><use xlink:href="#a"/><use xlink:href="#b" x="69.996" y="10.83"/><use xlink:href="#1"/><use xlink:href="#2" y="2.171"/><use xlink:href="#3" y="4.342"/><use xlink:href="#4" y="6.513"/><use xlink:href="#5" y="8.684"/><text x="1.002" y="12.525" class="f">|</text><text x="3.006" y="12.525" class="f">jq</text><text x="6.012" y="12.525" class="f">&apos;select(.type==&quot;SAFEGUARD&quot;</text><text x="33.066" y="12.525" class="f">and</text><text x="37.074" y="12.525" class="f">.eventData.plugin==&quot;io.conduktor.</text></svg><svg x="1960"><use xlink:href="#a"/><use xlink:href="#b" x="89.996" y="10.83"/><use xlink:href="#1"/><use xlink:href="#2" y="2.171"/><use xlink:href="#3" y="4.342"/><use xlink:href="#4" y="6.513"/><use xlink:href="#5" y="8.684"/><text x="1.002" y="12.525" class="f">|</text><text x="3.006" y="12.525" class="f">jq</text><text x="6.012" y="12.525" class="f">&apos;select(.type==&quot;SAFEGUARD&quot;</text><text x="33.066" y="12.525" class="f">and</text><text x="37.074" y="12.525" class="f">.eventData.plugin==&quot;io.conduktor.gateway.interceptor.</text></svg><svg x="2100"><use xlink:href="#a"/><use xlink:href="#b" x="109.996" y="10.83"/><use xlink:href="#1"/><use xlink:href="#2" y="2.171"/><use xlink:href="#3" y="4.342"/><use xlink:href="#4" y="6.513"/><use xlink:href="#5" y="8.684"/><text x="1.002" y="12.525" class="f">|</text><text x="3.006" y="12.525" class="f">jq</text><text x="6.012" y="12.525" class="f">&apos;select(.type==&quot;SAFEGUARD&quot;</text><text x="33.066" y="12.525" class="f">and</text><text x="37.074" y="12.525" class="f">.eventData.plugin==&quot;io.conduktor.gateway.interceptor.safeguard.LimitCommi</text></svg><svg x="2240"><use xlink:href="#a"/><use xlink:href="#b" x="129.996" y="10.83"/><use xlink:href="#1"/><use xlink:href="#2" y="2.171"/><use xlink:href="#3" y="4.342"/><use xlink:href="#4" y="6.513"/><use xlink:href="#5" y="8.684"/><text x="1.002" y="12.525" class="f">|</text><text x="3.006" y="12.525" class="f">jq</text><text x="6.012" y="12.525" class="f">&apos;select(.type==&quot;SAFEGUARD&quot;</text><text x="33.066" y="12.525" class="f">and</text><text x="37.074" y="12.525" class="f">.eventData.plugin==&quot;io.conduktor.gateway.interceptor.safeguard.LimitCommitOffsetPolicyPlugin&quot;</text></svg><svg x="2380"><use xlink:href="#a"/><use xlink:href="#b" x="-.004" y="13.001"/><use xlink:href="#1"/><use xlink:href="#2" y="2.171"/><use xlink:href="#3" y="4.342"/><use xlink:href="#4" y="6.513"/><use xlink:href="#5" y="8.684"/><use xlink:href="#6" y="10.855"/></svg><svg x="2520"><use xlink:href="#a"/><use xlink:href="#b" x="-.004" y="15.172"/><use xlink:href="#1"/><use xlink:href="#2" y="2.171"/><use xlink:href="#3" y="4.342"/><use xlink:href="#4" y="6.513"/><use xlink:href="#5" y="8.684"/><use xlink:href="#6" y="10.855"/></svg><svg x="2660"><use xlink:href="#a"/><use xlink:href="#b" x="-.004" y="19.514"/><use xlink:href="#1"/><use xlink:href="#2" y="2.171"/><use xlink:href="#3" y="4.342"/><use xlink:href="#4" y="6.513"/><use xlink:href="#5" y="8.684"/><use xlink:href="#6" y="10.855"/><use xlink:href="#7" y="15.197"/><use xlink:href="#8" y="17.368"/></svg><svg x="2800"><use xlink:href="#a"/><use xlink:href="#b" x="-.004" y="21.685"/><use xlink:href="#1"/><use xlink:href="#2" y="2.171"/><use xlink:href="#3" y="4.342"/><use xlink:href="#4" y="6.513"/><use xlink:href="#5" y="8.684"/><use xlink:href="#6" y="10.855"/><use xlink:href="#7" y="15.197"/><use xlink:href="#8" y="17.368"/><text y="21.209" class="g">Processed</text><text x="10.02" y="21.209" class="g">a</text><text x="12.024" y="21.209" class="g">total</text><text x="18.036" y="21.209" class="g">of</text><text x="21.042" y="21.209" class="g">89</text><text x="24.048" y="21.209" class="g">messages</text></svg></svg></g></g></svg></svg>