<svg xmlns="http://www.w3.org/2000/svg" xmlns:xlink="http://www.w3.org/1999/xlink" width="1440" height="494.2"><rect width="1440" height="494.2" rx="5" ry="5" class="a"/><svg y="0%" x="0%"><circle cx="20" cy="20" r="6" fill="#ff5f58"/><circle cx="40" cy="20" r="6" fill="#ffbd2e"/><circle cx="60" cy="20" r="6" fill="#18c132"/></svg><svg height="434.2" viewBox="0 0 140 43.42" width="1400" x="15" xmlns="http://www.w3.org/2000/svg" xmlns:xlink="http://www.w3.org/1999/xlink" y="50"><style>@keyframes j{0%{transform:translateX(0)}1%{transform:translateX(-140px)}1.3%{transform:translateX(-280px)}6.8%{transform:translateX(-420px)}9.6%{transform:translateX(-560px)}12.3%{transform:translateX(-700px)}15.1%{transform:translateX(-840px)}17.8%{transform:translateX(-980px)}20.8%{transform:translateX(-1120px)}23.6%{transform:translateX(-1260px)}26.7%{transform:translateX(-1400px)}29.5%{transform:translateX(-1540px)}32.3%{transform:translateX(-1680px)}35.1%{transform:translateX(-1820px)}38%{transform:translateX(-1960px)}40.8%{transform:translateX(-2100px)}43.7%{transform:translateX(-2240px)}46.5%{transform:translateX(-2380px)}49.3%{transform:translateX(-2520px)}52.1%{transform:translateX(-2660px)}57.8%{transform:translateX(-2800px)}60.5%{transform:translateX(-2940px)}63.4%{transform:translateX(-3080px)}66.2%{transform:translateX(-3220px)}69%{transform:translateX(-3500px)}99.6%{transform:translateX(-4060px)}to{transform:translateX(-4200px)}}.a{fill:#282d35}.f,.g{fill:#fff;white-space:pre}.g{fill:#b9c0cb}</style><g font-family="Monaco,Consolas,Menlo,'Bitstream Vera Sans Mono','Powerline Symbols',monospace" font-size="1.67"><defs><symbol id="1"><text y="1.67" class="f">kafka-console-consumer</text><text x="23.046" y="1.67" class="f">\</text></symbol><symbol id="2"><text x="4.008" y="1.67" class="f">-</text></symbol><symbol id="3"><text x="4.008" y="1.67" class="f">--bootstrap-server</text><text x="23.046" y="1.67" class="f">localhost:6969</text><text x="38.076" y="1.67" class="f">\</text></symbol><symbol id="4"><text x="4.008" y="1.67" class="f">--consumer.config</text><text x="22.044" y="1.67" class="f">teamA-sa.properties</text><text x="42.084" y="1.67" class="f">\</text></symbol><symbol id="5"><text x="4.008" y="1.67" class="f">--topic</text><text x="12.024" y="1.67" class="f">cars</text><text x="17.034" y="1.67" class="f">\</text></symbol><symbol id="6"><text x="4.008" y="1.67" class="f">--from-beginning</text><text x="21.042" y="1.67" class="f">\</text></symbol><symbol id="7"><text x="4.008" y="1.67" class="f">--timeout-ms</text><text x="17.034" y="1.67" class="f">10000</text><text x="23.046" y="1.67" class="f">\</text></symbol><symbol id="8"><text x="4.008" y="1.67" class="f">--group</text><text x="12.024" y="1.67" class="f">group-with-aggressive-autocommit</text><text x="45.09" y="1.67" class="f">\</text></symbol><symbol id="9"><text x="1.002" y="1.67" class="f">|</text><text x="3.006" y="1.67" class="f">jq</text></symbol><symbol id="10"><text y="1.67" class="g">[2024-01-23</text><text x="12.024" y="1.67" class="g">00:26:33,186]</text><text x="26.052" y="1.67" class="g">ERROR</text><text x="32.064" y="1.67" class="g">[Consumer</text><text x="42.084" y="1.67" class="g">clientId=console-consumer,</text><text x="69.138" y="1.67" class="g">groupId=group-with-aggressive-autocommit]</text><text x="111.222" y="1.67" class="g">JoinGroup</text><text x="121.242" y="1.67" class="g">failed</text><text x="128.256" y="1.67" class="g">due</text><text x="132.264" y="1.67" class="g">to</text><text x="135.27" y="1.67" class="g">unexp</text></symbol><symbol id="11"><text y="1.67" class="g">ected</text><text x="6.012" y="1.67" class="g">error:</text><text x="13.026" y="1.67" class="g">Request</text><text x="21.042" y="1.67" class="g">parameters</text><text x="32.064" y="1.67" class="g">do</text><text x="35.07" y="1.67" class="g">not</text><text x="39.078" y="1.67" class="g">satisfy</text><text x="47.094" y="1.67" class="g">the</text><text x="51.102" y="1.67" class="g">configured</text><text x="62.124" y="1.67" class="g">policy.</text><text x="70.14" y="1.67" class="g">(org.apache.kafka.clients.consumer.internals.ConsumerCoordinator)</text></symbol><symbol id="12"><text y="1.67" class="g">[2024-01-23</text><text x="12.024" y="1.67" class="g">00:26:33,186]</text><text x="26.052" y="1.67" class="g">ERROR</text><text x="32.064" y="1.67" class="g">Error</text><text x="38.076" y="1.67" class="g">processing</text><text x="49.098" y="1.67" class="g">message,</text><text x="58.116" y="1.67" class="g">terminating</text><text x="70.14" y="1.67" class="g">consumer</text><text x="79.158" y="1.67" class="g">process:</text><text x="89.178" y="1.67" class="g">(kafka.tools.ConsoleConsumer$)</text></symbol><symbol id="13"><text y="1.67" class="g">org.apache.kafka.common.KafkaException:</text><text x="40.08" y="1.67" class="g">Unexpected</text><text x="51.102" y="1.67" class="g">error</text><text x="57.114" y="1.67" class="g">in</text><text x="60.12" y="1.67" class="g">join</text><text x="65.13" y="1.67" class="g">group</text><text x="71.142" y="1.67" class="g">response:</text><text x="81.162" y="1.67" class="g">Request</text><text x="89.178" y="1.67" class="g">parameters</text><text x="100.2" y="1.67" class="g">do</text><text x="103.206" y="1.67" class="g">not</text><text x="107.214" y="1.67" class="g">satisfy</text><text x="115.23" y="1.67" class="g">the</text><text x="119.238" y="1.67" class="g">configured</text><text x="130.26" y="1.67" class="g">policy.</text></symbol><symbol id="14"><text x="8.016" y="1.67" class="g">at</text><text x="11.022" y="1.67" class="g">org.apache.kafka.clients.consumer.internals.AbstractCoordinator$JoinGroupResponseHandler.handle(AbstractCoordinator.java:711)</text></symbol><symbol id="15"><text x="8.016" y="1.67" class="g">at</text><text x="11.022" y="1.67" class="g">org.apache.kafka.clients.consumer.internals.AbstractCoordinator$JoinGroupResponseHandler.handle(AbstractCoordinator.java:603)</text></symbol><symbol id="16"><text x="8.016" y="1.67" class="g">at</text><text x="11.022" y="1.67" class="g">org.apache.kafka.clients.consumer.internals.AbstractCoordinator$CoordinatorResponseHandler.onSuccess(AbstractCoordinator.java:127</text></symbol><symbol id="17"><text y="1.67" class="g">0)</text></symbol><symbol id="18"><text x="8.016" y="1.67" class="g">at</text><text x="11.022" y="1.67" class="g">org.apache.kafka.clients.consumer.internals.AbstractCoordinator$CoordinatorResponseHandler.onSuccess(AbstractCoordinator.java:124</text></symbol><symbol id="19"><text y="1.67" class="g">5)</text></symbol><symbol id="20"><text x="8.016" y="1.67" class="g">at</text><text x="11.022" y="1.67" class="g">org.apache.kafka.clients.consumer.internals.RequestFuture$1.onSuccess(RequestFuture.java:206)</text></symbol><symbol id="21"><text x="8.016" y="1.67" class="g">at</text><text x="11.022" y="1.67" class="g">org.apache.kafka.clients.consumer.internals.RequestFuture.fireSuccess(RequestFuture.java:169)</text></symbol><symbol id="22"><text x="8.016" y="1.67" class="g">at</text><text x="11.022" y="1.67" class="g">org.apache.kafka.clients.consumer.internals.RequestFuture.complete(RequestFuture.java:129)</text></symbol><symbol id="23"><text x="8.016" y="1.67" class="g">at</text><text x="11.022" y="1.67" class="g">org.apache.kafka.clients.consumer.internals.ConsumerNetworkClient$RequestFutureCompletionHandler.fireCompletion(ConsumerNetworkCl</text></symbol><symbol id="24"><text y="1.67" class="g">ient.java:617)</text></symbol><symbol id="25"><text x="8.016" y="1.67" class="g">at</text><text x="11.022" y="1.67" class="g">org.apache.kafka.clients.consumer.internals.ConsumerNetworkClient.firePendingCompletedRequests(ConsumerNetworkClient.java:427)</text></symbol><symbol id="26"><text x="8.016" y="1.67" class="g">at</text><text x="11.022" y="1.67" class="g">org.apache.kafka.clients.consumer.internals.ConsumerNetworkClient.poll(ConsumerNetworkClient.java:312)</text></symbol><symbol id="27"><text x="8.016" y="1.67" class="g">at</text><text x="11.022" y="1.67" class="g">org.apache.kafka.clients.consumer.internals.ConsumerNetworkClient.poll(ConsumerNetworkClient.java:251)</text></symbol><symbol id="28"><text x="8.016" y="1.67" class="g">at</text><text x="11.022" y="1.67" class="g">org.apache.kafka.clients.consumer.KafkaConsumer.pollForFetches(KafkaConsumer.java:1255)</text></symbol><symbol id="29"><text x="8.016" y="1.67" class="g">at</text><text x="11.022" y="1.67" class="g">org.apache.kafka.clients.consumer.KafkaConsumer.poll(KafkaConsumer.java:1186)</text></symbol><symbol id="30"><text x="8.016" y="1.67" class="g">at</text><text x="11.022" y="1.67" class="g">org.apache.kafka.clients.consumer.KafkaConsumer.poll(KafkaConsumer.java:1159)</text></symbol><symbol id="31"><text x="8.016" y="1.67" class="g">at</text><text x="11.022" y="1.67" class="g">kafka.tools.ConsoleConsumer$ConsumerWrapper.receive(ConsoleConsumer.scala:473)</text></symbol><symbol id="32"><text x="8.016" y="1.67" class="g">at</text><text x="11.022" y="1.67" class="g">kafka.tools.ConsoleConsumer$.process(ConsoleConsumer.scala:103)</text></symbol><symbol id="33"><text x="8.016" y="1.67" class="g">at</text><text x="11.022" y="1.67" class="g">kafka.tools.ConsoleConsumer$.run(ConsoleConsumer.scala:77)</text></symbol><symbol id="34"><text x="8.016" y="1.67" class="g">at</text><text x="11.022" y="1.67" class="g">kafka.tools.ConsoleConsumer$.main(ConsoleConsumer.scala:54)</text></symbol><symbol id="35"><text x="8.016" y="1.67" class="g">at</text><text x="11.022" y="1.67" class="g">kafka.tools.ConsoleConsumer.main(ConsoleConsumer.scala)</text></symbol><symbol id="a"><path fill="transparent" d="M0 0h140v21H0z"/></symbol><symbol id="b"><path fill="#6f7683" d="M0 0h1.102v2.171H0z"/></symbol></defs><path class="a" d="M0 0h140v43.42H0z"/><g style="animation-duration:3.342557s;animation-iteration-count:infinite;animation-name:j;animation-timing-function:steps(1,end)"><svg width="4340"><svg><use xlink:href="#a"/><use xlink:href="#b" x="-.004"/></svg><svg x="140"><use xlink:href="#a"/><use xlink:href="#b" x="-.004"/></svg><svg x="280"><use xlink:href="#a"/><use xlink:href="#b" x="9.996"/><text y="1.67" class="f">kafka-cons</text></svg><svg x="420"><use xlink:href="#a"/><use xlink:href="#b" x="19.996"/><text y="1.67" class="f">kafka-console-consum</text></svg><svg x="560"><use xlink:href="#a"/><use xlink:href="#b" x="4.996" y="2.146"/><use xlink:href="#1"/><use xlink:href="#2" y="2.171"/></svg><svg x="700"><use xlink:href="#a"/><use xlink:href="#b" x="14.996" y="2.146"/><use xlink:href="#1"/><text x="4.008" y="3.841" class="f">--bootstrap</text></svg><svg x="840"><use xlink:href="#a"/><use xlink:href="#b" x="24.996" y="2.146"/><use xlink:href="#1"/><text x="4.008" y="3.841" class="f">--bootstrap-server</text><text x="23.046" y="3.841" class="f">lo</text></svg><svg x="980"><use xlink:href="#a"/><use xlink:href="#b" x="34.996" y="2.146"/><use xlink:href="#1"/><text x="4.008" y="3.841" class="f">--bootstrap-server</text><text x="23.046" y="3.841" class="f">localhost:69</text></svg><svg x="1120"><use xlink:href="#a"/><use xlink:href="#b" x="4.996" y="4.317"/><use xlink:href="#1"/><use xlink:href="#3" y="2.171"/><use xlink:href="#2" y="4.342"/></svg><svg x="1260"><use xlink:href="#a"/><use xlink:href="#b" x="14.996" y="4.317"/><use xlink:href="#1"/><use xlink:href="#3" y="2.171"/><text x="4.008" y="6.012" class="f">--consumer.</text></svg><svg x="1400"><use xlink:href="#a"/><use xlink:href="#b" x="24.996" y="4.317"/><use xlink:href="#1"/><use xlink:href="#3" y="2.171"/><text x="4.008" y="6.012" class="f">--consumer.config</text><text x="22.044" y="6.012" class="f">tea</text></svg><svg x="1540"><use xlink:href="#a"/><use xlink:href="#b" x="34.996" y="4.317"/><use xlink:href="#1"/><use xlink:href="#3" y="2.171"/><text x="4.008" y="6.012" class="f">--consumer.config</text><text x="22.044" y="6.012" class="f">teamA-sa.prop</text></svg><svg x="1680"><use xlink:href="#a"/><use xlink:href="#b" x=".996" y="6.488"/><use xlink:href="#1"/><use xlink:href="#3" y="2.171"/><use xlink:href="#4" y="4.342"/></svg><svg x="1820"><use xlink:href="#a"/><use xlink:href="#b" x="10.996" y="6.488"/><use xlink:href="#1"/><use xlink:href="#3" y="2.171"/><use xlink:href="#4" y="4.342"/><text x="4.008" y="8.183" class="f">--topic</text></svg><svg x="1960"><use xlink:href="#a"/><use xlink:href="#b" x="1.996" y="8.659"/><use xlink:href="#1"/><use xlink:href="#3" y="2.171"/><use xlink:href="#4" y="4.342"/><use xlink:href="#5" y="6.513"/></svg><svg x="2100"><use xlink:href="#a"/><use xlink:href="#b" x="11.996" y="8.659"/><use xlink:href="#1"/><use xlink:href="#3" y="2.171"/><use xlink:href="#4" y="4.342"/><use xlink:href="#5" y="6.513"/><text x="4.008" y="10.354" class="f">--from-b</text></svg><svg x="2240"><use xlink:href="#a"/><use xlink:href="#b" x="21.996" y="8.659"/><use xlink:href="#1"/><use xlink:href="#3" y="2.171"/><use xlink:href="#4" y="4.342"/><use xlink:href="#5" y="6.513"/><use xlink:href="#6" y="8.684"/></svg><svg x="2380"><use xlink:href="#a"/><use xlink:href="#b" x="8.996" y="10.83"/><use xlink:href="#1"/><use xlink:href="#3" y="2.171"/><use xlink:href="#4" y="4.342"/><use xlink:href="#5" y="6.513"/><use xlink:href="#6" y="8.684"/><text x="4.008" y="12.525" class="f">--tim</text></svg><svg x="2520"><use xlink:href="#a"/><use xlink:href="#b" x="18.996" y="10.83"/><use xlink:href="#1"/><use xlink:href="#3" y="2.171"/><use xlink:href="#4" y="4.342"/><use xlink:href="#5" y="6.513"/><use xlink:href="#6" y="8.684"/><text x="4.008" y="12.525" class="f">--timeout-ms</text><text x="17.034" y="12.525" class="f">10</text></svg><svg x="2660"><use xlink:href="#a"/><use xlink:href="#b" x="3.996" y="13.001"/><use xlink:href="#1"/><use xlink:href="#3" y="2.171"/><use xlink:href="#4" y="4.342"/><use xlink:href="#5" y="6.513"/><use xlink:href="#6" y="8.684"/><use xlink:href="#7" y="10.855"/></svg><svg x="2800"><use xlink:href="#a"/><use xlink:href="#b" x="13.996" y="13.001"/><use xlink:href="#1"/><use xlink:href="#3" y="2.171"/><use xlink:href="#4" y="4.342"/><use xlink:href="#5" y="6.513"/><use xlink:href="#6" y="8.684"/><use xlink:href="#7" y="10.855"/><text x="4.008" y="14.696" class="f">--group</text><text x="12.024" y="14.696" class="f">gr</text></svg><svg x="2940"><use xlink:href="#a"/><use xlink:href="#b" x="23.996" y="13.001"/><use xlink:href="#1"/><use xlink:href="#3" y="2.171"/><use xlink:href="#4" y="4.342"/><use xlink:href="#5" y="6.513"/><use xlink:href="#6" y="8.684"/><use xlink:href="#7" y="10.855"/><text x="4.008" y="14.696" class="f">--group</text><text x="12.024" y="14.696" class="f">group-with-a</text></svg><svg x="3080"><use xlink:href="#a"/><use xlink:href="#b" x="33.996" y="13.001"/><use xlink:href="#1"/><use xlink:href="#3" y="2.171"/><use xlink:href="#4" y="4.342"/><use xlink:href="#5" y="6.513"/><use xlink:href="#6" y="8.684"/><use xlink:href="#7" y="10.855"/><text x="4.008" y="14.696" class="f">--group</text><text x="12.024" y="14.696" class="f">group-with-aggressive-</text></svg><svg x="3220"><use xlink:href="#a"/><use xlink:href="#b" x="43.996" y="13.001"/><use xlink:href="#1"/><use xlink:href="#3" y="2.171"/><use xlink:href="#4" y="4.342"/><use xlink:href="#5" y="6.513"/><use xlink:href="#6" y="8.684"/><use xlink:href="#7" y="10.855"/><text x="4.008" y="14.696" class="f">--group</text><text x="12.024" y="14.696" class="f">group-with-aggressive-autocommit</text></svg><svg x="3360"><use xlink:href="#a"/><use xlink:href="#b" x="-.004" y="17.343"/><use xlink:href="#1"/><use xlink:href="#3" y="2.171"/><use xlink:href="#4" y="4.342"/><use xlink:href="#5" y="6.513"/><use xlink:href="#6" y="8.684"/><use xlink:href="#7" y="10.855"/><use xlink:href="#8" y="13.026"/><use xlink:href="#9" y="15.197"/></svg><svg x="3500"><use xlink:href="#a"/><use xlink:href="#b" x="-.004" y="19.514"/><use xlink:href="#1"/><use xlink:href="#3" y="2.171"/><use xlink:href="#4" y="4.342"/><use xlink:href="#5" y="6.513"/><use xlink:href="#6" y="8.684"/><use xlink:href="#7" y="10.855"/><use xlink:href="#8" y="13.026"/><use xlink:href="#9" y="15.197"/></svg><svg x="3640"><use xlink:href="#a"/><use xlink:href="#b" x="-.004" y="23.856"/><use xlink:href="#1"/><use xlink:href="#3" y="2.171"/><use xlink:href="#4" y="4.342"/><use xlink:href="#5" y="6.513"/><use xlink:href="#6" y="8.684"/><use xlink:href="#7" y="10.855"/><use xlink:href="#8" y="13.026"/><use xlink:href="#9" y="15.197"/><use xlink:href="#10" y="19.539"/><use xlink:href="#11" y="21.71"/></svg><svg x="3780"><use xlink:href="#a"/><use xlink:href="#b" x="44.996" y="41.224"/><use xlink:href="#1"/><use xlink:href="#3" y="2.171"/><use xlink:href="#4" y="4.342"/><use xlink:href="#5" y="6.513"/><use xlink:href="#6" y="8.684"/><use xlink:href="#7" y="10.855"/><use xlink:href="#8" y="13.026"/><use xlink:href="#9" y="15.197"/><use xlink:href="#10" y="19.539"/><use xlink:href="#11" y="21.71"/><use xlink:href="#12" y="23.881"/><use xlink:href="#13" y="26.052"/><use xlink:href="#14" y="28.223"/><use xlink:href="#15" y="30.394"/><use xlink:href="#16" y="32.565"/><use xlink:href="#17" y="34.736"/><use xlink:href="#18" y="36.907"/><use xlink:href="#19" y="39.078"/><text x="8.016" y="42.919" class="g">at</text><text x="11.022" y="42.919" class="g">org.apache.kafka.clients.consumer.</text></svg><svg x="3920"><use xlink:href="#a"/><use xlink:href="#b" x="88.996" y="43.395"/><use xlink:href="#9"/><use xlink:href="#10" y="4.342"/><use xlink:href="#11" y="6.513"/><use xlink:href="#12" y="8.684"/><use xlink:href="#13" y="10.855"/><use xlink:href="#14" y="13.026"/><use xlink:href="#15" y="15.197"/><use xlink:href="#16" y="17.368"/><use xlink:href="#17" y="19.539"/><use xlink:href="#18" y="21.71"/><use xlink:href="#19" y="23.881"/><use xlink:href="#20" y="26.052"/><use xlink:href="#21" y="28.223"/><use xlink:href="#22" y="30.394"/><use xlink:href="#23" y="32.565"/><use xlink:href="#24" y="34.736"/><use xlink:href="#25" y="36.907"/><use xlink:href="#26" y="39.078"/><use xlink:href="#27" y="41.249"/><text x="8.016" y="45.09" class="g">at</text><text x="11.022" y="45.09" class="g">org.apache.kafka.clients.consumer.KafkaConsumer.pollForFetches(KafkaConsumer.j</text></svg><svg x="4060"><use xlink:href="#a"/><use xlink:href="#b" x="-.004" y="43.395"/><use xlink:href="#16"/><use xlink:href="#17" y="2.171"/><use xlink:href="#18" y="4.342"/><use xlink:href="#19" y="6.513"/><use xlink:href="#20" y="8.684"/><use xlink:href="#21" y="10.855"/><use xlink:href="#22" y="13.026"/><use xlink:href="#23" y="15.197"/><use xlink:href="#24" y="17.368"/><use xlink:href="#25" y="19.539"/><use xlink:href="#26" y="21.71"/><use xlink:href="#27" y="23.881"/><use xlink:href="#28" y="26.052"/><use xlink:href="#29" y="28.223"/><use xlink:href="#30" y="30.394"/><use xlink:href="#31" y="32.565"/><use xlink:href="#32" y="34.736"/><use xlink:href="#33" y="36.907"/><use xlink:href="#34" y="39.078"/><use xlink:href="#35" y="41.249"/></svg><svg x="4200"><use xlink:href="#a"/><use xlink:href="#b" x="-.004" y="43.395"/><use xlink:href="#17"/><use xlink:href="#18" y="2.171"/><use xlink:href="#19" y="4.342"/><use xlink:href="#20" y="6.513"/><use xlink:href="#21" y="8.684"/><use xlink:href="#22" y="10.855"/><use xlink:href="#23" y="13.026"/><use xlink:href="#24" y="15.197"/><use xlink:href="#25" y="17.368"/><use xlink:href="#26" y="19.539"/><use xlink:href="#27" y="21.71"/><use xlink:href="#28" y="23.881"/><use xlink:href="#29" y="26.052"/><use xlink:href="#30" y="28.223"/><use xlink:href="#31" y="30.394"/><use xlink:href="#32" y="32.565"/><use xlink:href="#33" y="34.736"/><use xlink:href="#34" y="36.907"/><use xlink:href="#35" y="39.078"/><text y="42.919" class="g">Processed</text><text x="10.02" y="42.919" class="g">a</text><text x="12.024" y="42.919" class="g">total</text><text x="18.036" y="42.919" class="g">of</text><text x="21.042" y="42.919" class="g">0</text><text x="23.046" y="42.919" class="g">messages</text></svg></svg></g></g></svg></svg>