<svg xmlns="http://www.w3.org/2000/svg" xmlns:xlink="http://www.w3.org/1999/xlink" width="1440" height="450.78"><rect width="1440" height="450.78" rx="5" ry="5" class="a"/><svg y="0%" x="0%"><circle cx="20" cy="20" r="6" fill="#ff5f58"/><circle cx="40" cy="20" r="6" fill="#ffbd2e"/><circle cx="60" cy="20" r="6" fill="#18c132"/></svg><svg height="390.78" viewBox="0 0 140 39.078" width="1400" x="15" xmlns="http://www.w3.org/2000/svg" xmlns:xlink="http://www.w3.org/1999/xlink" y="50"><style>@keyframes j{0%{transform:translateX(0)}.7%{transform:translateX(-140px)}.8%{transform:translateX(-280px)}6.6%{transform:translateX(-420px)}9.5%{transform:translateX(-560px)}12.2%{transform:translateX(-700px)}15%{transform:translateX(-840px)}17.8%{transform:translateX(-980px)}20.7%{transform:translateX(-1120px)}23.6%{transform:translateX(-1260px)}26.5%{transform:translateX(-1400px)}29.3%{transform:translateX(-1540px)}32.2%{transform:translateX(-1680px)}35.2%{transform:translateX(-1820px)}38.1%{transform:translateX(-1960px)}41%{transform:translateX(-2100px)}43.8%{transform:translateX(-2240px)}49.6%{transform:translateX(-2380px)}52.5%{transform:translateX(-2520px)}55.4%{transform:translateX(-2660px)}58.3%{transform:translateX(-2800px)}61.2%{transform:translateX(-2940px)}64.1%{transform:translateX(-3220px)}to{transform:translateX(-3920px)}}.a{fill:#282d35}.f,.g{fill:#fff;white-space:pre}.g{fill:#b9c0cb}</style><g font-family="Monaco,Consolas,Menlo,'Bitstream Vera Sans Mono','Powerline Symbols',monospace" font-size="1.67"><defs><symbol id="1"><text y="1.67" class="f">kafka-configs</text><text x="14.028" y="1.67" class="f">\</text></symbol><symbol id="2"><text x="4.008" y="1.67" class="f">--bootstrap-server</text><text x="23.046" y="1.67" class="f">localhost:6969</text><text x="38.076" y="1.67" class="f">\</text></symbol><symbol id="3"><text x="4.008" y="1.67" class="f">--command-config</text><text x="21.042" y="1.67" class="f">teamA-sa.properties</text><text x="41.082" y="1.67" class="f">\</text></symbol><symbol id="4"><text x="4.008" y="1.67" class="f">--alter</text><text x="12.024" y="1.67" class="f">\</text></symbol><symbol id="5"><text x="4.008" y="1.67" class="f">--entity-type</text><text x="18.036" y="1.67" class="f">topics</text><text x="25.05" y="1.67" class="f">\</text></symbol><symbol id="6"><text x="4.008" y="1.67" class="f">--entity-name</text><text x="18.036" y="1.67" class="f">roads</text><text x="24.048" y="1.67" class="f">\</text></symbol><symbol id="7"><text x="4.008" y="1.67" class="f">--add-config</text><text x="17.034" y="1.67" class="f">retention.ms=5184000000</text></symbol><symbol id="8"><text y="1.67" class="g">Error</text><text x="6.012" y="1.67" class="g">while</text><text x="12.024" y="1.67" class="g">executing</text><text x="22.044" y="1.67" class="g">config</text><text x="29.058" y="1.67" class="g">command</text><text x="37.074" y="1.67" class="g">with</text><text x="42.084" y="1.67" class="g">args</text><text x="47.094" y="1.67" class="g">&apos;--bootstrap-server</text><text x="67.134" y="1.67" class="g">localhost:6969</text><text x="82.164" y="1.67" class="g">--command-config</text><text x="99.198" y="1.67" class="g">teamA-sa.properties</text><text x="119.238" y="1.67" class="g">--alter</text><text x="127.254" y="1.67" class="g">--entity-type</text></symbol><symbol id="9"><text x="1.002" y="1.67" class="g">topics</text><text x="8.016" y="1.67" class="g">--entity-name</text><text x="22.044" y="1.67" class="g">roads</text><text x="28.056" y="1.67" class="g">--add-config</text><text x="41.082" y="1.67" class="g">retention.ms=5184000000&apos;</text></symbol><symbol id="10"><text y="1.67" class="g">java.util.concurrent.ExecutionException:</text><text x="41.082" y="1.67" class="g">org.apache.kafka.common.errors.PolicyViolationException:</text><text x="98.196" y="1.67" class="g">Request</text><text x="106.212" y="1.67" class="g">parameters</text><text x="117.234" y="1.67" class="g">do</text><text x="120.24" y="1.67" class="g">not</text><text x="124.248" y="1.67" class="g">satisfy</text><text x="132.264" y="1.67" class="g">the</text><text x="136.272" y="1.67" class="g">conf</text></symbol><symbol id="11"><text y="1.67" class="g">igured</text><text x="7.014" y="1.67" class="g">policy.</text><text x="15.03" y="1.67" class="g">Resource</text><text x="24.048" y="1.67" class="g">&apos;roads&apos;</text><text x="32.064" y="1.67" class="g">with</text><text x="37.074" y="1.67" class="g">retention.ms</text><text x="50.1" y="1.67" class="g">is</text><text x="53.106" y="1.67" class="g">&apos;5184000000&apos;,</text><text x="67.134" y="1.67" class="g">must</text><text x="72.144" y="1.67" class="g">not</text><text x="76.152" y="1.67" class="g">be</text><text x="79.158" y="1.67" class="g">greater</text><text x="87.174" y="1.67" class="g">than</text><text x="92.184" y="1.67" class="g">&apos;432000000&apos;</text></symbol><symbol id="12"><text x="8.016" y="1.67" class="g">at</text><text x="11.022" y="1.67" class="g">java.base/java.util.concurrent.CompletableFuture.reportGet(CompletableFuture.java:396)</text></symbol><symbol id="13"><text x="8.016" y="1.67" class="g">at</text><text x="11.022" y="1.67" class="g">java.base/java.util.concurrent.CompletableFuture.get(CompletableFuture.java:2096)</text></symbol><symbol id="14"><text x="8.016" y="1.67" class="g">at</text><text x="11.022" y="1.67" class="g">org.apache.kafka.common.internals.KafkaFutureImpl.get(KafkaFutureImpl.java:180)</text></symbol><symbol id="15"><text x="8.016" y="1.67" class="g">at</text><text x="11.022" y="1.67" class="g">kafka.admin.ConfigCommand$.alterConfig(ConfigCommand.scala:361)</text></symbol><symbol id="16"><text x="8.016" y="1.67" class="g">at</text><text x="11.022" y="1.67" class="g">kafka.admin.ConfigCommand$.processCommand(ConfigCommand.scala:328)</text></symbol><symbol id="17"><text x="8.016" y="1.67" class="g">at</text><text x="11.022" y="1.67" class="g">kafka.admin.ConfigCommand$.main(ConfigCommand.scala:97)</text></symbol><symbol id="18"><text x="8.016" y="1.67" class="g">at</text><text x="11.022" y="1.67" class="g">kafka.admin.ConfigCommand.main(ConfigCommand.scala)</text></symbol><symbol id="a"><path fill="transparent" d="M0 0h140v19H0z"/></symbol><symbol id="b"><path fill="#6f7683" d="M0 0h1.102v2.171H0z"/></symbol></defs><path class="a" d="M0 0h140v39.078H0z"/><g style="animation-duration:3.26141s;animation-iteration-count:infinite;animation-name:j;animation-timing-function:steps(1,end)"><svg width="4060"><svg><use xlink:href="#a"/><use xlink:href="#b" x="-.004"/></svg><svg x="140"><use xlink:href="#a"/><use xlink:href="#b" x="-.004"/></svg><svg x="280"><use xlink:href="#a"/><use xlink:href="#b" x="9.996"/><text y="1.67" class="f">kafka-conf</text></svg><svg x="420"><use xlink:href="#a"/><use xlink:href="#b" x="3.996" y="2.146"/><use xlink:href="#1"/></svg><svg x="560"><use xlink:href="#a"/><use xlink:href="#b" x="13.996" y="2.146"/><use xlink:href="#1"/><text x="4.008" y="3.841" class="f">--bootstra</text></svg><svg x="700"><use xlink:href="#a"/><use xlink:href="#b" x="23.996" y="2.146"/><use xlink:href="#1"/><text x="4.008" y="3.841" class="f">--bootstrap-server</text><text x="23.046" y="3.841" class="f">l</text></svg><svg x="840"><use xlink:href="#a"/><use xlink:href="#b" x="33.996" y="2.146"/><use xlink:href="#1"/><text x="4.008" y="3.841" class="f">--bootstrap-server</text><text x="23.046" y="3.841" class="f">localhost:6</text></svg><svg x="980"><use xlink:href="#a"/><use xlink:href="#b" x="3.996" y="4.317"/><use xlink:href="#1"/><use xlink:href="#2" y="2.171"/></svg><svg x="1120"><use xlink:href="#a"/><use xlink:href="#b" x="13.996" y="4.317"/><use xlink:href="#1"/><use xlink:href="#2" y="2.171"/><text x="4.008" y="6.012" class="f">--command-</text></svg><svg x="1260"><use xlink:href="#a"/><use xlink:href="#b" x="23.996" y="4.317"/><use xlink:href="#1"/><use xlink:href="#2" y="2.171"/><text x="4.008" y="6.012" class="f">--command-config</text><text x="21.042" y="6.012" class="f">tea</text></svg><svg x="1400"><use xlink:href="#a"/><use xlink:href="#b" x="33.996" y="4.317"/><use xlink:href="#1"/><use xlink:href="#2" y="2.171"/><text x="4.008" y="6.012" class="f">--command-config</text><text x="21.042" y="6.012" class="f">teamA-sa.prop</text></svg><svg x="1540"><use xlink:href="#a"/><use xlink:href="#b" x=".996" y="6.488"/><use xlink:href="#1"/><use xlink:href="#2" y="2.171"/><use xlink:href="#3" y="4.342"/></svg><svg x="1680"><use xlink:href="#a"/><use xlink:href="#b" x="10.996" y="6.488"/><use xlink:href="#1"/><use xlink:href="#2" y="2.171"/><use xlink:href="#3" y="4.342"/><text x="4.008" y="8.183" class="f">--alter</text></svg><svg x="1820"><use xlink:href="#a"/><use xlink:href="#b" x="6.996" y="8.659"/><use xlink:href="#1"/><use xlink:href="#2" y="2.171"/><use xlink:href="#3" y="4.342"/><use xlink:href="#4" y="6.513"/><text x="4.008" y="10.354" class="f">--e</text></svg><svg x="1960"><use xlink:href="#a"/><use xlink:href="#b" x="16.996" y="8.659"/><use xlink:href="#1"/><use xlink:href="#2" y="2.171"/><use xlink:href="#3" y="4.342"/><use xlink:href="#4" y="6.513"/><text x="4.008" y="10.354" class="f">--entity-type</text></svg><svg x="2100"><use xlink:href="#a"/><use xlink:href="#b" x="-.004" y="10.83"/><use xlink:href="#1"/><use xlink:href="#2" y="2.171"/><use xlink:href="#3" y="4.342"/><use xlink:href="#4" y="6.513"/><use xlink:href="#5" y="8.684"/></svg><svg x="2240"><use xlink:href="#a"/><use xlink:href="#b" x="9.996" y="10.83"/><use xlink:href="#1"/><use xlink:href="#2" y="2.171"/><use xlink:href="#3" y="4.342"/><use xlink:href="#4" y="6.513"/><use xlink:href="#5" y="8.684"/><text x="4.008" y="12.525" class="f">--enti</text></svg><svg x="2380"><use xlink:href="#a"/><use xlink:href="#b" x="19.996" y="10.83"/><use xlink:href="#1"/><use xlink:href="#2" y="2.171"/><use xlink:href="#3" y="4.342"/><use xlink:href="#4" y="6.513"/><use xlink:href="#5" y="8.684"/><text x="4.008" y="12.525" class="f">--entity-name</text><text x="18.036" y="12.525" class="f">ro</text></svg><svg x="2520"><use xlink:href="#a"/><use xlink:href="#b" x="3.996" y="13.001"/><use xlink:href="#1"/><use xlink:href="#2" y="2.171"/><use xlink:href="#3" y="4.342"/><use xlink:href="#4" y="6.513"/><use xlink:href="#5" y="8.684"/><use xlink:href="#6" y="10.855"/></svg><svg x="2660"><use xlink:href="#a"/><use xlink:href="#b" x="13.996" y="13.001"/><use xlink:href="#1"/><use xlink:href="#2" y="2.171"/><use xlink:href="#3" y="4.342"/><use xlink:href="#4" y="6.513"/><use xlink:href="#5" y="8.684"/><use xlink:href="#6" y="10.855"/><text x="4.008" y="14.696" class="f">--add-conf</text></svg><svg x="2800"><use xlink:href="#a"/><use xlink:href="#b" x="23.996" y="13.001"/><use xlink:href="#1"/><use xlink:href="#2" y="2.171"/><use xlink:href="#3" y="4.342"/><use xlink:href="#4" y="6.513"/><use xlink:href="#5" y="8.684"/><use xlink:href="#6" y="10.855"/><text x="4.008" y="14.696" class="f">--add-config</text><text x="17.034" y="14.696" class="f">retenti</text></svg><svg x="2940"><use xlink:href="#a"/><use xlink:href="#b" x="33.996" y="13.001"/><use xlink:href="#1"/><use xlink:href="#2" y="2.171"/><use xlink:href="#3" y="4.342"/><use xlink:href="#4" y="6.513"/><use xlink:href="#5" y="8.684"/><use xlink:href="#6" y="10.855"/><text x="4.008" y="14.696" class="f">--add-config</text><text x="17.034" y="14.696" class="f">retention.ms=5184</text></svg><svg x="3080"><use xlink:href="#a"/><use xlink:href="#b" x="-.004" y="15.172"/><use xlink:href="#1"/><use xlink:href="#2" y="2.171"/><use xlink:href="#3" y="4.342"/><use xlink:href="#4" y="6.513"/><use xlink:href="#5" y="8.684"/><use xlink:href="#6" y="10.855"/><use xlink:href="#7" y="13.026"/></svg><svg x="3220"><use xlink:href="#a"/><use xlink:href="#b" x="-.004" y="17.343"/><use xlink:href="#1"/><use xlink:href="#2" y="2.171"/><use xlink:href="#3" y="4.342"/><use xlink:href="#4" y="6.513"/><use xlink:href="#5" y="8.684"/><use xlink:href="#6" y="10.855"/><use xlink:href="#7" y="13.026"/></svg><svg x="3360"><use xlink:href="#a"/><use xlink:href="#b" x="-.004" y="21.685"/><use xlink:href="#1"/><use xlink:href="#2" y="2.171"/><use xlink:href="#3" y="4.342"/><use xlink:href="#4" y="6.513"/><use xlink:href="#5" y="8.684"/><use xlink:href="#6" y="10.855"/><use xlink:href="#7" y="13.026"/><use xlink:href="#8" y="17.368"/><use xlink:href="#9" y="19.539"/></svg><svg x="3500"><use xlink:href="#a"/><use xlink:href="#b" x="-.004" y="26.027"/><use xlink:href="#1"/><use xlink:href="#2" y="2.171"/><use xlink:href="#3" y="4.342"/><use xlink:href="#4" y="6.513"/><use xlink:href="#5" y="8.684"/><use xlink:href="#6" y="10.855"/><use xlink:href="#7" y="13.026"/><use xlink:href="#8" y="17.368"/><use xlink:href="#9" y="19.539"/><use xlink:href="#10" y="21.71"/><use xlink:href="#11" y="23.881"/></svg><svg x="3640"><use xlink:href="#a"/><use xlink:href="#b" x="-.004" y="36.882"/><use xlink:href="#1"/><use xlink:href="#2" y="2.171"/><use xlink:href="#3" y="4.342"/><use xlink:href="#4" y="6.513"/><use xlink:href="#5" y="8.684"/><use xlink:href="#6" y="10.855"/><use xlink:href="#7" y="13.026"/><use xlink:href="#8" y="17.368"/><use xlink:href="#9" y="19.539"/><use xlink:href="#10" y="21.71"/><use xlink:href="#11" y="23.881"/><use xlink:href="#12" y="26.052"/><use xlink:href="#13" y="28.223"/><use xlink:href="#14" y="30.394"/><use xlink:href="#15" y="32.565"/><use xlink:href="#16" y="34.736"/></svg><svg x="3780"><use xlink:href="#a"/><use xlink:href="#b" x="-.004" y="39.053"/><use xlink:href="#2"/><use xlink:href="#3" y="2.171"/><use xlink:href="#4" y="4.342"/><use xlink:href="#5" y="6.513"/><use xlink:href="#6" y="8.684"/><use xlink:href="#7" y="10.855"/><use xlink:href="#8" y="15.197"/><use xlink:href="#9" y="17.368"/><use xlink:href="#10" y="19.539"/><use xlink:href="#11" y="21.71"/><use xlink:href="#12" y="23.881"/><use xlink:href="#13" y="26.052"/><use xlink:href="#14" y="28.223"/><use xlink:href="#15" y="30.394"/><use xlink:href="#16" y="32.565"/><use xlink:href="#17" y="34.736"/><use xlink:href="#18" y="36.907"/></svg><svg x="3920"><use xlink:href="#a"/><use xlink:href="#b" x="-.004" y="39.053"/><use xlink:href="#4"/><use xlink:href="#5" y="2.171"/><use xlink:href="#6" y="4.342"/><use xlink:href="#7" y="6.513"/><use xlink:href="#8" y="10.855"/><use xlink:href="#9" y="13.026"/><use xlink:href="#10" y="15.197"/><use xlink:href="#11" y="17.368"/><use xlink:href="#12" y="19.539"/><use xlink:href="#13" y="21.71"/><use xlink:href="#14" y="23.881"/><use xlink:href="#15" y="26.052"/><use xlink:href="#16" y="28.223"/><use xlink:href="#17" y="30.394"/><use xlink:href="#18" y="32.565"/><text y="36.406" class="g">Caused</text><text x="7.014" y="36.406" class="g">by:</text><text x="11.022" y="36.406" class="g">org.apache.kafka.common.errors.PolicyViolationException:</text><text x="68.136" y="36.406" class="g">Request</text><text x="76.152" y="36.406" class="g">parameters</text><text x="87.174" y="36.406" class="g">do</text><text x="90.18" y="36.406" class="g">not</text><text x="94.188" y="36.406" class="g">satisfy</text><text x="102.204" y="36.406" class="g">the</text><text x="106.212" y="36.406" class="g">configured</text><text x="117.234" y="36.406" class="g">policy.</text><text x="125.25" y="36.406" class="g">Resource</text><text x="134.268" y="36.406" class="g">&apos;roads</text><text y="38.577" class="g">&apos;</text><text x="2.004" y="38.577" class="g">with</text><text x="7.014" y="38.577" class="g">retention.ms</text><text x="20.04" y="38.577" class="g">is</text><text x="23.046" y="38.577" class="g">&apos;5184000000&apos;,</text><text x="37.074" y="38.577" class="g">must</text><text x="42.084" y="38.577" class="g">not</text><text x="46.092" y="38.577" class="g">be</text><text x="49.098" y="38.577" class="g">greater</text><text x="57.114" y="38.577" class="g">than</text><text x="62.124" y="38.577" class="g">&apos;432000000&apos;</text></svg></svg></g></g></svg></svg>