<svg xmlns="http://www.w3.org/2000/svg" xmlns:xlink="http://www.w3.org/1999/xlink" width="1440" height="494.2"><rect width="1440" height="494.2" rx="5" ry="5" class="a"/><svg y="0%" x="0%"><circle cx="20" cy="20" r="6" fill="#ff5f58"/><circle cx="40" cy="20" r="6" fill="#ffbd2e"/><circle cx="60" cy="20" r="6" fill="#18c132"/></svg><svg height="434.2" viewBox="0 0 140 43.42" width="1400" x="15" xmlns="http://www.w3.org/2000/svg" xmlns:xlink="http://www.w3.org/1999/xlink" y="50"><style>@keyframes m{0%{transform:translateX(0)}.16%{transform:translateX(-140px)}.18%{transform:translateX(-280px)}1.27%{transform:translateX(-420px)}1.83%{transform:translateX(-560px)}2.38%{transform:translateX(-700px)}2.93%{transform:translateX(-840px)}3.47%{transform:translateX(-980px)}4.02%{transform:translateX(-1120px)}4.57%{transform:translateX(-1260px)}5.13%{transform:translateX(-1400px)}5.68%{transform:translateX(-1540px)}6.26%{transform:translateX(-1680px)}6.79%{transform:translateX(-1820px)}7.35%{transform:translateX(-1960px)}7.89%{transform:translateX(-2100px)}8.43%{transform:translateX(-2240px)}8.97%{transform:translateX(-2380px)}9.52%{transform:translateX(-2520px)}10.07%{transform:translateX(-2660px)}11.16%{transform:translateX(-2800px)}11.69%{transform:translateX(-2940px)}12.24%{transform:translateX(-3080px)}12.79%{transform:translateX(-3220px)}13.34%{transform:translateX(-3360px)}13.35%{transform:translateX(-3500px)}20.46%{transform:translateX(-3640px)}22.16%{transform:translateX(-3780px)}25.44%{transform:translateX(-3920px)}27.86%{transform:translateX(-4060px)}34.67%{transform:translateX(-4200px)}39.53%{transform:translateX(-4340px)}47.14%{transform:translateX(-4480px)}56.28%{transform:translateX(-4620px)}65.58%{transform:translateX(-4760px)}68.56%{transform:translateX(-4900px)}71.55%{transform:translateX(-5040px)}74.67%{transform:translateX(-5320px)}86.27%{transform:translateX(-5460px)}97.87%{transform:translateX(-5600px)}to{transform:translateX(-5740px)}}.a{fill:#282d35}.f{fill:#fff;white-space:pre}.g,.h{fill:#b9c0cb}.g{white-space:pre}.h{font-weight:700}.h,.i,.j{white-space:pre}.i{fill:#71bef2;font-weight:700}.j{fill:#a8cc8c}</style><g font-family="Monaco,Consolas,Menlo,'Bitstream Vera Sans Mono','Powerline Symbols',monospace" font-size="1.67"><defs><symbol id="1"><text y="1.67" class="f">kafka-console-consumer</text><text x="23.046" y="1.67" class="f">\</text></symbol><symbol id="2"><text x="4.008" y="1.67" class="f">-</text></symbol><symbol id="3"><text x="4.008" y="1.67" class="f">--bootstrap-server</text><text x="23.046" y="1.67" class="f">localhost:6969</text><text x="38.076" y="1.67" class="f">\</text></symbol><symbol id="4"><text x="4.008" y="1.67" class="f">--consumer.config</text><text x="22.044" y="1.67" class="f">teamA-sa.properties</text><text x="42.084" y="1.67" class="f">\</text></symbol><symbol id="5"><text x="4.008" y="1.67" class="f">--topic</text><text x="12.024" y="1.67" class="f">cars</text><text x="17.034" y="1.67" class="f">\</text></symbol><symbol id="6"><text x="4.008" y="1.67" class="f">--from-beginning</text><text x="21.042" y="1.67" class="f">\</text></symbol><symbol id="7"><text x="4.008" y="1.67" class="f">--timeout-ms</text><text x="17.034" y="1.67" class="f">10000</text><text x="23.046" y="1.67" class="f">\</text></symbol><symbol id="8"><text x="4.008" y="1.67" class="f">--group</text><text x="12.024" y="1.67" class="f">my-group-id-convention-cars</text><text x="40.08" y="1.67" class="f">\</text></symbol><symbol id="9"><text x="1.002" y="1.67" class="f">|</text><text x="3.006" y="1.67" class="f">jq</text></symbol><symbol id="10"><text y="1.67" class="g">[2024-01-23</text><text x="12.024" y="1.67" class="g">00:25:57,888]</text><text x="26.052" y="1.67" class="g">WARN</text><text x="31.062" y="1.67" class="g">[Consumer</text><text x="41.082" y="1.67" class="g">clientId=console-consumer,</text><text x="68.136" y="1.67" class="g">groupId=my-group-id-convention-cars]</text><text x="105.21" y="1.67" class="g">Received</text><text x="114.228" y="1.67" class="g">error</text><text x="120.24" y="1.67" class="g">POLICY_VIOLATION</text><text x="137.274" y="1.67" class="g">fro</text></symbol><symbol id="11"><text y="1.67" class="g">m</text><text x="2.004" y="1.67" class="g">node</text><text x="7.014" y="1.67" class="g">2147483646</text><text x="18.036" y="1.67" class="g">when</text><text x="23.046" y="1.67" class="g">making</text><text x="30.06" y="1.67" class="g">an</text><text x="33.066" y="1.67" class="g">ApiVersionsRequest</text><text x="52.104" y="1.67" class="g">with</text><text x="57.114" y="1.67" class="g">correlation</text><text x="69.138" y="1.67" class="g">id</text><text x="72.144" y="1.67" class="g">4.</text><text x="75.15" y="1.67" class="g">Disconnecting.</text><text x="90.18" y="1.67" class="g">(org.apache.kafka.clients.NetworkClient)</text></symbol><symbol id="12"><text y="1.67" class="g">[2024-01-23</text><text x="12.024" y="1.67" class="g">00:25:58,182]</text><text x="26.052" y="1.67" class="g">WARN</text><text x="31.062" y="1.67" class="g">[Consumer</text><text x="41.082" y="1.67" class="g">clientId=console-consumer,</text><text x="68.136" y="1.67" class="g">groupId=my-group-id-convention-cars]</text><text x="105.21" y="1.67" class="g">Received</text><text x="114.228" y="1.67" class="g">error</text><text x="120.24" y="1.67" class="g">POLICY_VIOLATION</text><text x="137.274" y="1.67" class="g">fro</text></symbol><symbol id="13"><text y="1.67" class="g">m</text><text x="2.004" y="1.67" class="g">node</text><text x="7.014" y="1.67" class="g">3</text><text x="9.018" y="1.67" class="g">when</text><text x="14.028" y="1.67" class="g">making</text><text x="21.042" y="1.67" class="g">an</text><text x="24.048" y="1.67" class="g">ApiVersionsRequest</text><text x="43.086" y="1.67" class="g">with</text><text x="48.096" y="1.67" class="g">correlation</text><text x="60.12" y="1.67" class="g">id</text><text x="63.126" y="1.67" class="g">6.</text><text x="66.132" y="1.67" class="g">Disconnecting.</text><text x="81.162" y="1.67" class="g">(org.apache.kafka.clients.NetworkClient)</text></symbol><symbol id="14"><text y="1.67" class="g">[2024-01-23</text><text x="12.024" y="1.67" class="g">00:25:58,742]</text><text x="26.052" y="1.67" class="g">WARN</text><text x="31.062" y="1.67" class="g">[Consumer</text><text x="41.082" y="1.67" class="g">clientId=console-consumer,</text><text x="68.136" y="1.67" class="g">groupId=my-group-id-convention-cars]</text><text x="105.21" y="1.67" class="g">Received</text><text x="114.228" y="1.67" class="g">error</text><text x="120.24" y="1.67" class="g">POLICY_VIOLATION</text><text x="137.274" y="1.67" class="g">fro</text></symbol><symbol id="15"><text y="1.67" class="g">m</text><text x="2.004" y="1.67" class="g">node</text><text x="7.014" y="1.67" class="g">2147483646</text><text x="18.036" y="1.67" class="g">when</text><text x="23.046" y="1.67" class="g">making</text><text x="30.06" y="1.67" class="g">an</text><text x="33.066" y="1.67" class="g">ApiVersionsRequest</text><text x="52.104" y="1.67" class="g">with</text><text x="57.114" y="1.67" class="g">correlation</text><text x="69.138" y="1.67" class="g">id</text><text x="72.144" y="1.67" class="g">11.</text><text x="76.152" y="1.67" class="g">Disconnecting.</text><text x="91.182" y="1.67" class="g">(org.apache.kafka.clients.NetworkClient)</text></symbol><symbol id="16"><text y="1.67" class="g">[2024-01-23</text><text x="12.024" y="1.67" class="g">00:25:59,164]</text><text x="26.052" y="1.67" class="g">WARN</text><text x="31.062" y="1.67" class="g">[Consumer</text><text x="41.082" y="1.67" class="g">clientId=console-consumer,</text><text x="68.136" y="1.67" class="g">groupId=my-group-id-convention-cars]</text><text x="105.21" y="1.67" class="g">Received</text><text x="114.228" y="1.67" class="g">error</text><text x="120.24" y="1.67" class="g">POLICY_VIOLATION</text><text x="137.274" y="1.67" class="g">fro</text></symbol><symbol id="17"><text y="1.67" class="g">m</text><text x="2.004" y="1.67" class="g">node</text><text x="7.014" y="1.67" class="g">2147483646</text><text x="18.036" y="1.67" class="g">when</text><text x="23.046" y="1.67" class="g">making</text><text x="30.06" y="1.67" class="g">an</text><text x="33.066" y="1.67" class="g">ApiVersionsRequest</text><text x="52.104" y="1.67" class="g">with</text><text x="57.114" y="1.67" class="g">correlation</text><text x="69.138" y="1.67" class="g">id</text><text x="72.144" y="1.67" class="g">16.</text><text x="76.152" y="1.67" class="g">Disconnecting.</text><text x="91.182" y="1.67" class="g">(org.apache.kafka.clients.NetworkClient)</text></symbol><symbol id="18"><text y="1.67" class="g">[2024-01-23</text><text x="12.024" y="1.67" class="g">00:26:00,340]</text><text x="26.052" y="1.67" class="g">WARN</text><text x="31.062" y="1.67" class="g">[Consumer</text><text x="41.082" y="1.67" class="g">clientId=console-consumer,</text><text x="68.136" y="1.67" class="g">groupId=my-group-id-convention-cars]</text><text x="105.21" y="1.67" class="g">Received</text><text x="114.228" y="1.67" class="g">error</text><text x="120.24" y="1.67" class="g">POLICY_VIOLATION</text><text x="137.274" y="1.67" class="g">fro</text></symbol><symbol id="19"><text y="1.67" class="g">m</text><text x="2.004" y="1.67" class="g">node</text><text x="7.014" y="1.67" class="g">2147483646</text><text x="18.036" y="1.67" class="g">when</text><text x="23.046" y="1.67" class="g">making</text><text x="30.06" y="1.67" class="g">an</text><text x="33.066" y="1.67" class="g">ApiVersionsRequest</text><text x="52.104" y="1.67" class="g">with</text><text x="57.114" y="1.67" class="g">correlation</text><text x="69.138" y="1.67" class="g">id</text><text x="72.144" y="1.67" class="g">22.</text><text x="76.152" y="1.67" class="g">Disconnecting.</text><text x="91.182" y="1.67" class="g">(org.apache.kafka.clients.NetworkClient)</text></symbol><symbol id="20"><text y="1.67" class="g">[2024-01-23</text><text x="12.024" y="1.67" class="g">00:26:01,174]</text><text x="26.052" y="1.67" class="g">WARN</text><text x="31.062" y="1.67" class="g">[Consumer</text><text x="41.082" y="1.67" class="g">clientId=console-consumer,</text><text x="68.136" y="1.67" class="g">groupId=my-group-id-convention-cars]</text><text x="105.21" y="1.67" class="g">Received</text><text x="114.228" y="1.67" class="g">error</text><text x="120.24" y="1.67" class="g">POLICY_VIOLATION</text><text x="137.274" y="1.67" class="g">fro</text></symbol><symbol id="21"><text y="1.67" class="g">m</text><text x="2.004" y="1.67" class="g">node</text><text x="7.014" y="1.67" class="g">2147483646</text><text x="18.036" y="1.67" class="g">when</text><text x="23.046" y="1.67" class="g">making</text><text x="30.06" y="1.67" class="g">an</text><text x="33.066" y="1.67" class="g">ApiVersionsRequest</text><text x="52.104" y="1.67" class="g">with</text><text x="57.114" y="1.67" class="g">correlation</text><text x="69.138" y="1.67" class="g">id</text><text x="72.144" y="1.67" class="g">30.</text><text x="76.152" y="1.67" class="g">Disconnecting.</text><text x="91.182" y="1.67" class="g">(org.apache.kafka.clients.NetworkClient)</text></symbol><symbol id="22"><text y="1.67" class="g">[2024-01-23</text><text x="12.024" y="1.67" class="g">00:26:02,490]</text><text x="26.052" y="1.67" class="g">WARN</text><text x="31.062" y="1.67" class="g">[Consumer</text><text x="41.082" y="1.67" class="g">clientId=console-consumer,</text><text x="68.136" y="1.67" class="g">groupId=my-group-id-convention-cars]</text><text x="105.21" y="1.67" class="g">Received</text><text x="114.228" y="1.67" class="g">error</text><text x="120.24" y="1.67" class="g">POLICY_VIOLATION</text><text x="137.274" y="1.67" class="g">fro</text></symbol><symbol id="23"><text y="1.67" class="g">m</text><text x="2.004" y="1.67" class="g">node</text><text x="7.014" y="1.67" class="g">2147483646</text><text x="18.036" y="1.67" class="g">when</text><text x="23.046" y="1.67" class="g">making</text><text x="30.06" y="1.67" class="g">an</text><text x="33.066" y="1.67" class="g">ApiVersionsRequest</text><text x="52.104" y="1.67" class="g">with</text><text x="57.114" y="1.67" class="g">correlation</text><text x="69.138" y="1.67" class="g">id</text><text x="72.144" y="1.67" class="g">40.</text><text x="76.152" y="1.67" class="g">Disconnecting.</text><text x="91.182" y="1.67" class="g">(org.apache.kafka.clients.NetworkClient)</text></symbol><symbol id="24"><text y="1.67" class="g">[2024-01-23</text><text x="12.024" y="1.67" class="g">00:26:04,065]</text><text x="26.052" y="1.67" class="g">WARN</text><text x="31.062" y="1.67" class="g">[Consumer</text><text x="41.082" y="1.67" class="g">clientId=console-consumer,</text><text x="68.136" y="1.67" class="g">groupId=my-group-id-convention-cars]</text><text x="105.21" y="1.67" class="g">Received</text><text x="114.228" y="1.67" class="g">error</text><text x="120.24" y="1.67" class="g">POLICY_VIOLATION</text><text x="137.274" y="1.67" class="g">fro</text></symbol><symbol id="25"><text y="1.67" class="g">m</text><text x="2.004" y="1.67" class="g">node</text><text x="7.014" y="1.67" class="g">2147483646</text><text x="18.036" y="1.67" class="g">when</text><text x="23.046" y="1.67" class="g">making</text><text x="30.06" y="1.67" class="g">an</text><text x="33.066" y="1.67" class="g">ApiVersionsRequest</text><text x="52.104" y="1.67" class="g">with</text><text x="57.114" y="1.67" class="g">correlation</text><text x="69.138" y="1.67" class="g">id</text><text x="72.144" y="1.67" class="g">54.</text><text x="76.152" y="1.67" class="g">Disconnecting.</text><text x="91.182" y="1.67" class="g">(org.apache.kafka.clients.NetworkClient)</text></symbol><symbol id="26"><text y="1.67" class="g">[2024-01-23</text><text x="12.024" y="1.67" class="g">00:26:05,668]</text><text x="26.052" y="1.67" class="g">WARN</text><text x="31.062" y="1.67" class="g">[Consumer</text><text x="41.082" y="1.67" class="g">clientId=console-consumer,</text><text x="68.136" y="1.67" class="g">groupId=my-group-id-convention-cars]</text><text x="105.21" y="1.67" class="g">Received</text><text x="114.228" y="1.67" class="g">error</text><text x="120.24" y="1.67" class="g">POLICY_VIOLATION</text><text x="137.274" y="1.67" class="g">fro</text></symbol><symbol id="27"><text y="1.67" class="g">m</text><text x="2.004" y="1.67" class="g">node</text><text x="7.014" y="1.67" class="g">3</text><text x="9.018" y="1.67" class="g">when</text><text x="14.028" y="1.67" class="g">making</text><text x="21.042" y="1.67" class="g">an</text><text x="24.048" y="1.67" class="g">ApiVersionsRequest</text><text x="43.086" y="1.67" class="g">with</text><text x="48.096" y="1.67" class="g">correlation</text><text x="60.12" y="1.67" class="g">id</text><text x="63.126" y="1.67" class="g">73.</text><text x="67.134" y="1.67" class="g">Disconnecting.</text><text x="82.164" y="1.67" class="g">(org.apache.kafka.clients.NetworkClient)</text></symbol><symbol id="28"><text y="1.67" class="g">[2024-01-23</text><text x="12.024" y="1.67" class="g">00:26:06,179]</text><text x="26.052" y="1.67" class="g">WARN</text><text x="31.062" y="1.67" class="g">[Consumer</text><text x="41.082" y="1.67" class="g">clientId=console-consumer,</text><text x="68.136" y="1.67" class="g">groupId=my-group-id-convention-cars]</text><text x="105.21" y="1.67" class="g">Received</text><text x="114.228" y="1.67" class="g">error</text><text x="120.24" y="1.67" class="g">POLICY_VIOLATION</text><text x="137.274" y="1.67" class="g">fro</text></symbol><symbol id="29"><text y="1.67" class="g">m</text><text x="2.004" y="1.67" class="g">node</text><text x="7.014" y="1.67" class="g">3</text><text x="9.018" y="1.67" class="g">when</text><text x="14.028" y="1.67" class="g">making</text><text x="21.042" y="1.67" class="g">an</text><text x="24.048" y="1.67" class="g">ApiVersionsRequest</text><text x="43.086" y="1.67" class="g">with</text><text x="48.096" y="1.67" class="g">correlation</text><text x="60.12" y="1.67" class="g">id</text><text x="63.126" y="1.67" class="g">76.</text><text x="67.134" y="1.67" class="g">Disconnecting.</text><text x="82.164" y="1.67" class="g">(org.apache.kafka.clients.NetworkClient)</text></symbol><symbol id="30"><text y="1.67" class="h">}</text></symbol><symbol id="31"><text y="1.67" class="h">{</text></symbol><symbol id="32"><text x="2.004" y="1.67" class="i">&quot;type&quot;</text><text x="8.016" y="1.67" class="h">:</text><text x="10.02" y="1.67" class="j">&quot;RollsRoyce&quot;</text><text x="22.044" y="1.67" class="h">,</text></symbol><symbol id="33"><text x="2.004" y="1.67" class="i">&quot;color&quot;</text><text x="9.018" y="1.67" class="h">:</text><text x="11.022" y="1.67" class="j">&quot;black&quot;</text><text x="18.036" y="1.67" class="h">,</text></symbol><symbol id="34"><text x="2.004" y="1.67" class="i">&quot;price&quot;</text><text x="9.018" y="1.67" class="h">:</text><text x="11.022" y="1.67" class="g">9000</text></symbol><symbol id="35"><text x="2.004" y="1.67" class="i">&quot;type&quot;</text><text x="8.016" y="1.67" class="h">:</text><text x="10.02" y="1.67" class="j">&quot;Mercedes&quot;</text><text x="20.04" y="1.67" class="h">,</text></symbol><symbol id="36"><text x="2.004" y="1.67" class="i">&quot;price&quot;</text><text x="9.018" y="1.67" class="h">:</text><text x="11.022" y="1.67" class="g">6000</text></symbol><symbol id="37"><text x="2.004" y="1.67" class="i">&quot;type&quot;</text><text x="8.016" y="1.67" class="h">:</text><text x="10.02" y="1.67" class="j">&quot;Fiat&quot;</text><text x="16.032" y="1.67" class="h">,</text></symbol><symbol id="38"><text x="2.004" y="1.67" class="i">&quot;color&quot;</text><text x="9.018" y="1.67" class="h">:</text><text x="11.022" y="1.67" class="j">&quot;red&quot;</text><text x="16.032" y="1.67" class="h">,</text></symbol><symbol id="39"><text x="2.004" y="1.67" class="i">&quot;price&quot;</text><text x="9.018" y="1.67" class="h">:</text><text x="11.022" y="1.67" class="g">-1</text></symbol><symbol id="40"><text y="1.67" class="g">[2024-01-23</text><text x="12.024" y="1.67" class="g">00:26:11,336]</text><text x="26.052" y="1.67" class="g">ERROR</text><text x="32.064" y="1.67" class="g">[Consumer</text><text x="42.084" y="1.67" class="g">clientId=console-consumer,</text><text x="69.138" y="1.67" class="g">groupId=my-group-id-convention-cars]</text><text x="106.212" y="1.67" class="g">Offset</text><text x="113.226" y="1.67" class="g">commit</text><text x="120.24" y="1.67" class="g">failed</text><text x="127.254" y="1.67" class="g">on</text><text x="130.26" y="1.67" class="g">partition</text></symbol><symbol id="41"><text y="1.67" class="g">cars-0</text><text x="7.014" y="1.67" class="g">at</text><text x="10.02" y="1.67" class="g">offset</text><text x="17.034" y="1.67" class="g">5:</text><text x="20.04" y="1.67" class="g">Request</text><text x="28.056" y="1.67" class="g">parameters</text><text x="39.078" y="1.67" class="g">do</text><text x="42.084" y="1.67" class="g">not</text><text x="46.092" y="1.67" class="g">satisfy</text><text x="54.108" y="1.67" class="g">the</text><text x="58.116" y="1.67" class="g">configured</text><text x="69.138" y="1.67" class="g">policy.</text><text x="77.154" y="1.67" class="g">(org.apache.kafka.clients.consumer.internals.ConsumerCoordinato</text></symbol><symbol id="42"><text y="1.67" class="g">r)</text></symbol><symbol id="43"><text y="1.67" class="g">[2024-01-23</text><text x="12.024" y="1.67" class="g">00:26:11,336]</text><text x="26.052" y="1.67" class="g">WARN</text><text x="31.062" y="1.67" class="g">[Consumer</text><text x="41.082" y="1.67" class="g">clientId=console-consumer,</text><text x="68.136" y="1.67" class="g">groupId=my-group-id-convention-cars]</text><text x="105.21" y="1.67" class="g">Asynchronous</text><text x="118.236" y="1.67" class="g">auto-commit</text><text x="130.26" y="1.67" class="g">of</text><text x="133.266" y="1.67" class="g">offsets</text></symbol><symbol id="44"><text x="1.002" y="1.67" class="g">{cars-0=OffsetAndMetadata{offset=5,</text><text x="37.074" y="1.67" class="g">leaderEpoch=0,</text><text x="52.104" y="1.67" class="g">metadata=&apos;&apos;}}</text><text x="66.132" y="1.67" class="g">failed:</text><text x="74.148" y="1.67" class="g">Unexpected</text><text x="85.17" y="1.67" class="g">error</text><text x="91.182" y="1.67" class="g">in</text><text x="94.188" y="1.67" class="g">commit:</text><text x="102.204" y="1.67" class="g">Request</text><text x="110.22" y="1.67" class="g">parameters</text><text x="121.242" y="1.67" class="g">do</text><text x="124.248" y="1.67" class="g">not</text><text x="128.256" y="1.67" class="g">satisfy</text><text x="136.272" y="1.67" class="g">the</text></symbol><symbol id="45"><text y="1.67" class="g">configured</text><text x="11.022" y="1.67" class="g">policy.</text><text x="19.038" y="1.67" class="g">(org.apache.kafka.clients.consumer.internals.ConsumerCoordinator)</text></symbol><symbol id="46"><text y="1.67" class="g">[2024-01-23</text><text x="12.024" y="1.67" class="g">00:26:17,243]</text><text x="26.052" y="1.67" class="g">ERROR</text><text x="32.064" y="1.67" class="g">Error</text><text x="38.076" y="1.67" class="g">processing</text><text x="49.098" y="1.67" class="g">message,</text><text x="58.116" y="1.67" class="g">terminating</text><text x="70.14" y="1.67" class="g">consumer</text><text x="79.158" y="1.67" class="g">process:</text><text x="89.178" y="1.67" class="g">(kafka.tools.ConsoleConsumer$)</text></symbol><symbol id="47"><text y="1.67" class="g">org.apache.kafka.common.errors.TimeoutException</text></symbol><symbol id="a"><path fill="transparent" d="M0 0h140v21H0z"/></symbol><symbol id="b"><path fill="#6f7683" d="M0 0h1.102v2.171H0z"/></symbol></defs><path class="a" d="M0 0h140v43.42H0z"/><g style="animation-duration:17.244732000000003s;animation-iteration-count:infinite;animation-name:m;animation-timing-function:steps(1,end)"><svg width="5880"><svg><use xlink:href="#a"/><use xlink:href="#b" x="-.004"/></svg><svg x="140"><use xlink:href="#a"/><use xlink:href="#b" x="-.004"/></svg><svg x="280"><use xlink:href="#a"/><use xlink:href="#b" x="9.996"/><text y="1.67" class="f">kafka-cons</text></svg><svg x="420"><use xlink:href="#a"/><use xlink:href="#b" x="19.996"/><text y="1.67" class="f">kafka-console-consum</text></svg><svg x="560"><use xlink:href="#a"/><use xlink:href="#b" x="4.996" y="2.146"/><use xlink:href="#1"/><use xlink:href="#2" y="2.171"/></svg><svg x="700"><use xlink:href="#a"/><use xlink:href="#b" x="14.996" y="2.146"/><use xlink:href="#1"/><text x="4.008" y="3.841" class="f">--bootstrap</text></svg><svg x="840"><use xlink:href="#a"/><use xlink:href="#b" x="24.996" y="2.146"/><use xlink:href="#1"/><text x="4.008" y="3.841" class="f">--bootstrap-server</text><text x="23.046" y="3.841" class="f">lo</text></svg><svg x="980"><use xlink:href="#a"/><use xlink:href="#b" x="34.996" y="2.146"/><use xlink:href="#1"/><text x="4.008" y="3.841" class="f">--bootstrap-server</text><text x="23.046" y="3.841" class="f">localhost:69</text></svg><svg x="1120"><use xlink:href="#a"/><use xlink:href="#b" x="4.996" y="4.317"/><use xlink:href="#1"/><use xlink:href="#3" y="2.171"/><use xlink:href="#2" y="4.342"/></svg><svg x="1260"><use xlink:href="#a"/><use xlink:href="#b" x="14.996" y="4.317"/><use xlink:href="#1"/><use xlink:href="#3" y="2.171"/><text x="4.008" y="6.012" class="f">--consumer.</text></svg><svg x="1400"><use xlink:href="#a"/><use xlink:href="#b" x="24.996" y="4.317"/><use xlink:href="#1"/><use xlink:href="#3" y="2.171"/><text x="4.008" y="6.012" class="f">--consumer.config</text><text x="22.044" y="6.012" class="f">tea</text></svg><svg x="1540"><use xlink:href="#a"/><use xlink:href="#b" x="34.996" y="4.317"/><use xlink:href="#1"/><use xlink:href="#3" y="2.171"/><text x="4.008" y="6.012" class="f">--consumer.config</text><text x="22.044" y="6.012" class="f">teamA-sa.prop</text></svg><svg x="1680"><use xlink:href="#a"/><use xlink:href="#b" x=".996" y="6.488"/><use xlink:href="#1"/><use xlink:href="#3" y="2.171"/><use xlink:href="#4" y="4.342"/></svg><svg x="1820"><use xlink:href="#a"/><use xlink:href="#b" x="10.996" y="6.488"/><use xlink:href="#1"/><use xlink:href="#3" y="2.171"/><use xlink:href="#4" y="4.342"/><text x="4.008" y="8.183" class="f">--topic</text></svg><svg x="1960"><use xlink:href="#a"/><use xlink:href="#b" x="1.996" y="8.659"/><use xlink:href="#1"/><use xlink:href="#3" y="2.171"/><use xlink:href="#4" y="4.342"/><use xlink:href="#5" y="6.513"/></svg><svg x="2100"><use xlink:href="#a"/><use xlink:href="#b" x="11.996" y="8.659"/><use xlink:href="#1"/><use xlink:href="#3" y="2.171"/><use xlink:href="#4" y="4.342"/><use xlink:href="#5" y="6.513"/><text x="4.008" y="10.354" class="f">--from-b</text></svg><svg x="2240"><use xlink:href="#a"/><use xlink:href="#b" x="21.996" y="8.659"/><use xlink:href="#1"/><use xlink:href="#3" y="2.171"/><use xlink:href="#4" y="4.342"/><use xlink:href="#5" y="6.513"/><use xlink:href="#6" y="8.684"/></svg><svg x="2380"><use xlink:href="#a"/><use xlink:href="#b" x="8.996" y="10.83"/><use xlink:href="#1"/><use xlink:href="#3" y="2.171"/><use xlink:href="#4" y="4.342"/><use xlink:href="#5" y="6.513"/><use xlink:href="#6" y="8.684"/><text x="4.008" y="12.525" class="f">--tim</text></svg><svg x="2520"><use xlink:href="#a"/><use xlink:href="#b" x="18.996" y="10.83"/><use xlink:href="#1"/><use xlink:href="#3" y="2.171"/><use xlink:href="#4" y="4.342"/><use xlink:href="#5" y="6.513"/><use xlink:href="#6" y="8.684"/><text x="4.008" y="12.525" class="f">--timeout-ms</text><text x="17.034" y="12.525" class="f">10</text></svg><svg x="2660"><use xlink:href="#a"/><use xlink:href="#b" x="3.996" y="13.001"/><use xlink:href="#1"/><use xlink:href="#3" y="2.171"/><use xlink:href="#4" y="4.342"/><use xlink:href="#5" y="6.513"/><use xlink:href="#6" y="8.684"/><use xlink:href="#7" y="10.855"/></svg><svg x="2800"><use xlink:href="#a"/><use xlink:href="#b" x="13.996" y="13.001"/><use xlink:href="#1"/><use xlink:href="#3" y="2.171"/><use xlink:href="#4" y="4.342"/><use xlink:href="#5" y="6.513"/><use xlink:href="#6" y="8.684"/><use xlink:href="#7" y="10.855"/><text x="4.008" y="14.696" class="f">--group</text><text x="12.024" y="14.696" class="f">my</text></svg><svg x="2940"><use xlink:href="#a"/><use xlink:href="#b" x="23.996" y="13.001"/><use xlink:href="#1"/><use xlink:href="#3" y="2.171"/><use xlink:href="#4" y="4.342"/><use xlink:href="#5" y="6.513"/><use xlink:href="#6" y="8.684"/><use xlink:href="#7" y="10.855"/><text x="4.008" y="14.696" class="f">--group</text><text x="12.024" y="14.696" class="f">my-group-id-</text></svg><svg x="3080"><use xlink:href="#a"/><use xlink:href="#b" x="33.996" y="13.001"/><use xlink:href="#1"/><use xlink:href="#3" y="2.171"/><use xlink:href="#4" y="4.342"/><use xlink:href="#5" y="6.513"/><use xlink:href="#6" y="8.684"/><use xlink:href="#7" y="10.855"/><text x="4.008" y="14.696" class="f">--group</text><text x="12.024" y="14.696" class="f">my-group-id-convention</text></svg><svg x="3220"><use xlink:href="#a"/><use xlink:href="#b" x="1.996" y="15.172"/><use xlink:href="#1"/><use xlink:href="#3" y="2.171"/><use xlink:href="#4" y="4.342"/><use xlink:href="#5" y="6.513"/><use xlink:href="#6" y="8.684"/><use xlink:href="#7" y="10.855"/><use xlink:href="#8" y="13.026"/><text x="1.002" y="16.867" class="f">|</text></svg><svg x="3360"><use xlink:href="#a"/><use xlink:href="#b" x="-.004" y="17.343"/><use xlink:href="#1"/><use xlink:href="#3" y="2.171"/><use xlink:href="#4" y="4.342"/><use xlink:href="#5" y="6.513"/><use xlink:href="#6" y="8.684"/><use xlink:href="#7" y="10.855"/><use xlink:href="#8" y="13.026"/><use xlink:href="#9" y="15.197"/></svg><svg x="3500"><use xlink:href="#a"/><use xlink:href="#b" x="-.004" y="19.514"/><use xlink:href="#1"/><use xlink:href="#3" y="2.171"/><use xlink:href="#4" y="4.342"/><use xlink:href="#5" y="6.513"/><use xlink:href="#6" y="8.684"/><use xlink:href="#7" y="10.855"/><use xlink:href="#8" y="13.026"/><use xlink:href="#9" y="15.197"/></svg><svg x="3640"><use xlink:href="#a"/><use xlink:href="#b" x="-.004" y="23.856"/><use xlink:href="#1"/><use xlink:href="#3" y="2.171"/><use xlink:href="#4" y="4.342"/><use xlink:href="#5" y="6.513"/><use xlink:href="#6" y="8.684"/><use xlink:href="#7" y="10.855"/><use xlink:href="#8" y="13.026"/><use xlink:href="#9" y="15.197"/><use xlink:href="#10" y="19.539"/><use xlink:href="#11" y="21.71"/></svg><svg x="3780"><use xlink:href="#a"/><use xlink:href="#b" x="-.004" y="28.198"/><use xlink:href="#1"/><use xlink:href="#3" y="2.171"/><use xlink:href="#4" y="4.342"/><use xlink:href="#5" y="6.513"/><use xlink:href="#6" y="8.684"/><use xlink:href="#7" y="10.855"/><use xlink:href="#8" y="13.026"/><use xlink:href="#9" y="15.197"/><use xlink:href="#10" y="19.539"/><use xlink:href="#11" y="21.71"/><use xlink:href="#12" y="23.881"/><use xlink:href="#13" y="26.052"/></svg><svg x="3920"><use xlink:href="#a"/><use xlink:href="#b" x="-.004" y="32.54"/><use xlink:href="#1"/><use xlink:href="#3" y="2.171"/><use xlink:href="#4" y="4.342"/><use xlink:href="#5" y="6.513"/><use xlink:href="#6" y="8.684"/><use xlink:href="#7" y="10.855"/><use xlink:href="#8" y="13.026"/><use xlink:href="#9" y="15.197"/><use xlink:href="#10" y="19.539"/><use xlink:href="#11" y="21.71"/><use xlink:href="#12" y="23.881"/><use xlink:href="#13" y="26.052"/><use xlink:href="#14" y="28.223"/><use xlink:href="#15" y="30.394"/></svg><svg x="4060"><use xlink:href="#a"/><use xlink:href="#b" x="-.004" y="36.882"/><use xlink:href="#1"/><use xlink:href="#3" y="2.171"/><use xlink:href="#4" y="4.342"/><use xlink:href="#5" y="6.513"/><use xlink:href="#6" y="8.684"/><use xlink:href="#7" y="10.855"/><use xlink:href="#8" y="13.026"/><use xlink:href="#9" y="15.197"/><use xlink:href="#10" y="19.539"/><use xlink:href="#11" y="21.71"/><use xlink:href="#12" y="23.881"/><use xlink:href="#13" y="26.052"/><use xlink:href="#14" y="28.223"/><use xlink:href="#15" y="30.394"/><use xlink:href="#16" y="32.565"/><use xlink:href="#17" y="34.736"/></svg><svg x="4200"><use xlink:href="#a"/><use xlink:href="#b" x="-.004" y="41.224"/><use xlink:href="#1"/><use xlink:href="#3" y="2.171"/><use xlink:href="#4" y="4.342"/><use xlink:href="#5" y="6.513"/><use xlink:href="#6" y="8.684"/><use xlink:href="#7" y="10.855"/><use xlink:href="#8" y="13.026"/><use xlink:href="#9" y="15.197"/><use xlink:href="#10" y="19.539"/><use xlink:href="#11" y="21.71"/><use xlink:href="#12" y="23.881"/><use xlink:href="#13" y="26.052"/><use xlink:href="#14" y="28.223"/><use xlink:href="#15" y="30.394"/><use xlink:href="#16" y="32.565"/><use xlink:href="#17" y="34.736"/><use xlink:href="#18" y="36.907"/><use xlink:href="#19" y="39.078"/></svg><svg x="4340"><use xlink:href="#a"/><use xlink:href="#b" x="-.004" y="43.395"/><use xlink:href="#3"/><use xlink:href="#4" y="2.171"/><use xlink:href="#5" y="4.342"/><use xlink:href="#6" y="6.513"/><use xlink:href="#7" y="8.684"/><use xlink:href="#8" y="10.855"/><use xlink:href="#9" y="13.026"/><use xlink:href="#10" y="17.368"/><use xlink:href="#11" y="19.539"/><use xlink:href="#12" y="21.71"/><use xlink:href="#13" y="23.881"/><use xlink:href="#14" y="26.052"/><use xlink:href="#15" y="28.223"/><use xlink:href="#16" y="30.394"/><use xlink:href="#17" y="32.565"/><use xlink:href="#18" y="34.736"/><use xlink:href="#19" y="36.907"/><use xlink:href="#20" y="39.078"/><use xlink:href="#21" y="41.249"/></svg><svg x="4480"><use xlink:href="#a"/><use xlink:href="#b" x="-.004" y="43.395"/><use xlink:href="#5"/><use xlink:href="#6" y="2.171"/><use xlink:href="#7" y="4.342"/><use xlink:href="#8" y="6.513"/><use xlink:href="#9" y="8.684"/><use xlink:href="#10" y="13.026"/><use xlink:href="#11" y="15.197"/><use xlink:href="#12" y="17.368"/><use xlink:href="#13" y="19.539"/><use xlink:href="#14" y="21.71"/><use xlink:href="#15" y="23.881"/><use xlink:href="#16" y="26.052"/><use xlink:href="#17" y="28.223"/><use xlink:href="#18" y="30.394"/><use xlink:href="#19" y="32.565"/><use xlink:href="#20" y="34.736"/><use xlink:href="#21" y="36.907"/><use xlink:href="#22" y="39.078"/><use xlink:href="#23" y="41.249"/></svg><svg x="4620"><use xlink:href="#a"/><use xlink:href="#b" x="-.004" y="43.395"/><use xlink:href="#7"/><use xlink:href="#8" y="2.171"/><use xlink:href="#9" y="4.342"/><use xlink:href="#10" y="8.684"/><use xlink:href="#11" y="10.855"/><use xlink:href="#12" y="13.026"/><use xlink:href="#13" y="15.197"/><use xlink:href="#14" y="17.368"/><use xlink:href="#15" y="19.539"/><use xlink:href="#16" y="21.71"/><use xlink:href="#17" y="23.881"/><use xlink:href="#18" y="26.052"/><use xlink:href="#19" y="28.223"/><use xlink:href="#20" y="30.394"/><use xlink:href="#21" y="32.565"/><use xlink:href="#22" y="34.736"/><use xlink:href="#23" y="36.907"/><use xlink:href="#24" y="39.078"/><use xlink:href="#25" y="41.249"/></svg><svg x="4760"><use xlink:href="#a"/><use xlink:href="#b" x="-.004" y="43.395"/><use xlink:href="#9"/><use xlink:href="#10" y="4.342"/><use xlink:href="#11" y="6.513"/><use xlink:href="#12" y="8.684"/><use xlink:href="#13" y="10.855"/><use xlink:href="#14" y="13.026"/><use xlink:href="#15" y="15.197"/><use xlink:href="#16" y="17.368"/><use xlink:href="#17" y="19.539"/><use xlink:href="#18" y="21.71"/><use xlink:href="#19" y="23.881"/><use xlink:href="#20" y="26.052"/><use xlink:href="#21" y="28.223"/><use xlink:href="#22" y="30.394"/><use xlink:href="#23" y="32.565"/><use xlink:href="#24" y="34.736"/><use xlink:href="#25" y="36.907"/><use xlink:href="#26" y="39.078"/><use xlink:href="#27" y="41.249"/></svg><svg x="4900"><use xlink:href="#a"/><use xlink:href="#b" x="-.004" y="43.395"/><use xlink:href="#10"/><use xlink:href="#11" y="2.171"/><use xlink:href="#12" y="4.342"/><use xlink:href="#13" y="6.513"/><use xlink:href="#14" y="8.684"/><use xlink:href="#15" y="10.855"/><use xlink:href="#16" y="13.026"/><use xlink:href="#17" y="15.197"/><use xlink:href="#18" y="17.368"/><use xlink:href="#19" y="19.539"/><use xlink:href="#20" y="21.71"/><use xlink:href="#21" y="23.881"/><use xlink:href="#22" y="26.052"/><use xlink:href="#23" y="28.223"/><use xlink:href="#24" y="30.394"/><use xlink:href="#25" y="32.565"/><use xlink:href="#26" y="34.736"/><use xlink:href="#27" y="36.907"/><use xlink:href="#28" y="39.078"/><use xlink:href="#29" y="41.249"/></svg><svg x="5040"><use xlink:href="#a"/><use xlink:href="#b" x="-.004" y="43.395"/><use xlink:href="#12"/><use xlink:href="#13" y="2.171"/><use xlink:href="#14" y="4.342"/><use xlink:href="#15" y="6.513"/><use xlink:href="#16" y="8.684"/><use xlink:href="#17" y="10.855"/><use xlink:href="#18" y="13.026"/><use xlink:href="#19" y="15.197"/><use xlink:href="#20" y="17.368"/><use xlink:href="#21" y="19.539"/><use xlink:href="#22" y="21.71"/><use xlink:href="#23" y="23.881"/><use xlink:href="#24" y="26.052"/><use xlink:href="#25" y="28.223"/><use xlink:href="#26" y="30.394"/><use xlink:href="#27" y="32.565"/><use xlink:href="#28" y="34.736"/><use xlink:href="#29" y="36.907"/><text y="40.748" class="g">[2024-01-23</text><text x="12.024" y="40.748" class="g">00:26:06,699]</text><text x="26.052" y="40.748" class="g">WARN</text><text x="31.062" y="40.748" class="g">[Consumer</text><text x="41.082" y="40.748" class="g">clientId=console-consumer,</text><text x="68.136" y="40.748" class="g">groupId=my-group-id-convention-cars]</text><text x="105.21" y="40.748" class="g">Received</text><text x="114.228" y="40.748" class="g">error</text><text x="120.24" y="40.748" class="g">POLICY_VIOLATION</text><text x="137.274" y="40.748" class="g">fro</text><text y="42.919" class="g">m</text><text x="2.004" y="42.919" class="g">node</text><text x="7.014" y="42.919" class="g">3</text><text x="9.018" y="42.919" class="g">when</text><text x="14.028" y="42.919" class="g">making</text><text x="21.042" y="42.919" class="g">an</text><text x="24.048" y="42.919" class="g">ApiVersionsRequest</text><text x="43.086" y="42.919" class="g">with</text><text x="48.096" y="42.919" class="g">correlation</text><text x="60.12" y="42.919" class="g">id</text><text x="63.126" y="42.919" class="g">79.</text><text x="67.134" y="42.919" class="g">Disconnecting.</text><text x="82.164" y="42.919" class="g">(org.apache.kafka.clients.NetworkClient)</text></svg><svg x="5180"><use xlink:href="#a"/><use xlink:href="#b" x="8.996" y="43.395"/><text x="2.004" y="1.67" class="i">&quot;price&quot;</text><text x="9.018" y="1.67" class="h">:</text><text x="11.022" y="1.67" class="g">10000</text><use xlink:href="#30" y="2.171"/><use xlink:href="#31" y="4.342"/><use xlink:href="#32" y="6.513"/><use xlink:href="#33" y="8.684"/><use xlink:href="#34" y="10.855"/><use xlink:href="#30" y="13.026"/><use xlink:href="#31" y="15.197"/><use xlink:href="#35" y="17.368"/><use xlink:href="#33" y="19.539"/><use xlink:href="#36" y="21.71"/><use xlink:href="#30" y="23.881"/><use xlink:href="#31" y="26.052"/><use xlink:href="#37" y="28.223"/><use xlink:href="#38" y="30.394"/><use xlink:href="#39" y="32.565"/><use xlink:href="#30" y="34.736"/><use xlink:href="#31" y="36.907"/><use xlink:href="#37" y="39.078"/><use xlink:href="#38" y="41.249"/><text x="2.004" y="45.09" class="i">&quot;price&quot;</text></svg><svg x="5320"><use xlink:href="#a"/><use xlink:href="#b" x="-.004" y="43.395"/><use xlink:href="#31"/><use xlink:href="#32" y="2.171"/><use xlink:href="#33" y="4.342"/><use xlink:href="#34" y="6.513"/><use xlink:href="#30" y="8.684"/><use xlink:href="#31" y="10.855"/><use xlink:href="#35" y="13.026"/><use xlink:href="#33" y="15.197"/><use xlink:href="#36" y="17.368"/><use xlink:href="#30" y="19.539"/><use xlink:href="#31" y="21.71"/><use xlink:href="#37" y="23.881"/><use xlink:href="#38" y="26.052"/><use xlink:href="#39" y="28.223"/><use xlink:href="#30" y="30.394"/><use xlink:href="#31" y="32.565"/><use xlink:href="#37" y="34.736"/><use xlink:href="#38" y="36.907"/><use xlink:href="#39" y="39.078"/><use xlink:href="#30" y="41.249"/></svg><svg x="5460"><use xlink:href="#a"/><use xlink:href="#b" x="-.004" y="43.395"/><use xlink:href="#35"/><use xlink:href="#33" y="2.171"/><use xlink:href="#36" y="4.342"/><use xlink:href="#30" y="6.513"/><use xlink:href="#31" y="8.684"/><use xlink:href="#37" y="10.855"/><use xlink:href="#38" y="13.026"/><use xlink:href="#39" y="15.197"/><use xlink:href="#30" y="17.368"/><use xlink:href="#31" y="19.539"/><use xlink:href="#37" y="21.71"/><use xlink:href="#38" y="23.881"/><use xlink:href="#39" y="26.052"/><use xlink:href="#30" y="28.223"/><use xlink:href="#40" y="30.394"/><use xlink:href="#41" y="32.565"/><use xlink:href="#42" y="34.736"/><use xlink:href="#43" y="36.907"/><use xlink:href="#44" y="39.078"/><use xlink:href="#45" y="41.249"/></svg><svg x="5600"><use xlink:href="#a"/><use xlink:href="#b" x="-.004" y="43.395"/><use xlink:href="#36"/><use xlink:href="#30" y="2.171"/><use xlink:href="#31" y="4.342"/><use xlink:href="#37" y="6.513"/><use xlink:href="#38" y="8.684"/><use xlink:href="#39" y="10.855"/><use xlink:href="#30" y="13.026"/><use xlink:href="#31" y="15.197"/><use xlink:href="#37" y="17.368"/><use xlink:href="#38" y="19.539"/><use xlink:href="#39" y="21.71"/><use xlink:href="#30" y="23.881"/><use xlink:href="#40" y="26.052"/><use xlink:href="#41" y="28.223"/><use xlink:href="#42" y="30.394"/><use xlink:href="#43" y="32.565"/><use xlink:href="#44" y="34.736"/><use xlink:href="#45" y="36.907"/><use xlink:href="#46" y="39.078"/><use xlink:href="#47" y="41.249"/></svg><svg x="5740"><use xlink:href="#a"/><use xlink:href="#b" x="-.004" y="43.395"/><use xlink:href="#30"/><use xlink:href="#31" y="2.171"/><use xlink:href="#37" y="4.342"/><use xlink:href="#38" y="6.513"/><use xlink:href="#39" y="8.684"/><use xlink:href="#30" y="10.855"/><use xlink:href="#31" y="13.026"/><use xlink:href="#37" y="15.197"/><use xlink:href="#38" y="17.368"/><use xlink:href="#39" y="19.539"/><use xlink:href="#30" y="21.71"/><use xlink:href="#40" y="23.881"/><use xlink:href="#41" y="26.052"/><use xlink:href="#42" y="28.223"/><use xlink:href="#43" y="30.394"/><use xlink:href="#44" y="32.565"/><use xlink:href="#45" y="34.736"/><use xlink:href="#46" y="36.907"/><use xlink:href="#47" y="39.078"/><text y="42.919" class="g">Processed</text><text x="10.02" y="42.919" class="g">a</text><text x="12.024" y="42.919" class="g">total</text><text x="18.036" y="42.919" class="g">of</text><text x="21.042" y="42.919" class="g">5</text><text x="23.046" y="42.919" class="g">messages</text></svg></svg></g></g></svg></svg>