<svg xmlns="http://www.w3.org/2000/svg" xmlns:xlink="http://www.w3.org/1999/xlink" width="1440" height="494.2"><rect width="1440" height="494.2" rx="5" ry="5" class="a"/><svg y="0%" x="0%"><circle cx="20" cy="20" r="6" fill="#ff5f58"/><circle cx="40" cy="20" r="6" fill="#ffbd2e"/><circle cx="60" cy="20" r="6" fill="#18c132"/></svg><svg height="434.2" viewBox="0 0 140 43.42" width="1400" x="15" xmlns="http://www.w3.org/2000/svg" xmlns:xlink="http://www.w3.org/1999/xlink" y="50"><style>@keyframes m{0%{transform:translateX(0)}.9%{transform:translateX(-140px)}1.3%{transform:translateX(-280px)}9.8%{transform:translateX(-420px)}14.3%{transform:translateX(-560px)}18.5%{transform:translateX(-700px)}22.9%{transform:translateX(-840px)}27.2%{transform:translateX(-980px)}31.7%{transform:translateX(-1120px)}36.1%{transform:translateX(-1260px)}40.6%{transform:translateX(-1400px)}44.9%{transform:translateX(-1540px)}49.7%{transform:translateX(-1680px)}54.1%{transform:translateX(-1820px)}58.6%{transform:translateX(-1960px)}62.9%{transform:translateX(-2100px)}67.1%{transform:translateX(-2240px)}71.6%{transform:translateX(-2380px)}71.7%{transform:translateX(-2520px)}72.7%{transform:translateX(-2660px)}to{transform:translateX(-2800px)}}.a{fill:#282d35}.f{fill:#fff;white-space:pre}.g{fill:#b9c0cb;font-weight:700}.g,.h,.i,.j{white-space:pre}.h{fill:#71bef2;font-weight:700}.i,.j{fill:#a8cc8c}.j{fill:#b9c0cb}</style><g font-family="Monaco,Consolas,Menlo,'Bitstream Vera Sans Mono','Powerline Symbols',monospace" font-size="1.67"><defs><symbol id="1"><text y="1.67" class="f">cat</text><text x="4.008" y="1.67" class="f">step-11-guard-on-create-topic.json</text><text x="39.078" y="1.67" class="f">|</text><text x="41.082" y="1.67" class="f">jq</text></symbol><symbol id="2"><text y="1.67" class="f">curl</text><text x="5.01" y="1.67" class="f">\</text></symbol><symbol id="3"><text x="4.008" y="1.67" class="f">--request</text><text x="14.028" y="1.67" class="f">POST</text><text x="19.038" y="1.67" class="f">&quot;http://localhost:8888/admin/interceptors/v1/vcluster/teamA/interceptor/guard-on-create-topic&quot;</text><text x="114.228" y="1.67" class="f">\</text></symbol><symbol id="4"><text x="4.008" y="1.67" class="f">--header</text><text x="13.026" y="1.67" class="f">&apos;Content-Type:</text><text x="28.056" y="1.67" class="f">application/json&apos;</text><text x="46.092" y="1.67" class="f">\</text></symbol><symbol id="5"><text x="4.008" y="1.67" class="f">--user</text><text x="11.022" y="1.67" class="f">&apos;admin:conduktor&apos;</text><text x="29.058" y="1.67" class="f">\</text></symbol><symbol id="6"><text x="4.008" y="1.67" class="f">--silent</text><text x="13.026" y="1.67" class="f">\</text></symbol><symbol id="7"><text x="4.008" y="1.67" class="f">--data</text><text x="11.022" y="1.67" class="f">@step-11-guard-on-create-topic.json</text><text x="47.094" y="1.67" class="f">|</text><text x="49.098" y="1.67" class="f">jq</text></symbol><symbol id="8"><text y="1.67" class="g">{</text></symbol><symbol id="9"><text x="2.004" y="1.67" class="h">&quot;pluginClass&quot;</text><text x="15.03" y="1.67" class="g">:</text><text x="17.034" y="1.67" class="i">&quot;io.conduktor.gateway.interceptor.safeguard.CreateTopicPolicyPlugin&quot;</text><text x="85.17" y="1.67" class="g">,</text></symbol><symbol id="10"><text x="2.004" y="1.67" class="h">&quot;priority&quot;</text><text x="12.024" y="1.67" class="g">:</text><text x="14.028" y="1.67" class="j">100</text><text x="17.034" y="1.67" class="g">,</text></symbol><symbol id="11"><text x="2.004" y="1.67" class="h">&quot;config&quot;</text><text x="10.02" y="1.67" class="g">:</text><text x="12.024" y="1.67" class="g">{</text></symbol><symbol id="12"><text x="4.008" y="1.67" class="h">&quot;replicationFactor&quot;</text><text x="23.046" y="1.67" class="g">:</text><text x="25.05" y="1.67" class="g">{</text></symbol><symbol id="13"><text x="6.012" y="1.67" class="h">&quot;min&quot;</text><text x="11.022" y="1.67" class="g">:</text><text x="13.026" y="1.67" class="j">2</text><text x="14.028" y="1.67" class="g">,</text></symbol><symbol id="14"><text x="6.012" y="1.67" class="h">&quot;max&quot;</text><text x="11.022" y="1.67" class="g">:</text><text x="13.026" y="1.67" class="j">2</text></symbol><symbol id="15"><text x="4.008" y="1.67" class="g">},</text></symbol><symbol id="16"><text x="4.008" y="1.67" class="h">&quot;numPartition&quot;</text><text x="18.036" y="1.67" class="g">:</text><text x="20.04" y="1.67" class="g">{</text></symbol><symbol id="17"><text x="6.012" y="1.67" class="h">&quot;min&quot;</text><text x="11.022" y="1.67" class="g">:</text><text x="13.026" y="1.67" class="j">1</text><text x="14.028" y="1.67" class="g">,</text></symbol><symbol id="18"><text x="6.012" y="1.67" class="h">&quot;max&quot;</text><text x="11.022" y="1.67" class="g">:</text><text x="13.026" y="1.67" class="j">3</text></symbol><symbol id="19"><text x="4.008" y="1.67" class="g">}</text></symbol><symbol id="20"><text x="2.004" y="1.67" class="g">}</text></symbol><symbol id="21"><text y="1.67" class="g">}</text></symbol><symbol id="a"><path fill="transparent" d="M0 0h140v21H0z"/></symbol><symbol id="b"><path fill="#6f7683" d="M0 0h1.102v2.171H0z"/></symbol></defs><path class="a" d="M0 0h140v43.42H0z"/><g style="animation-duration:2.138821s;animation-iteration-count:infinite;animation-name:m;animation-timing-function:steps(1,end)"><svg width="2940"><svg><use xlink:href="#a"/><use xlink:href="#b" x="-.004"/></svg><svg x="140"><use xlink:href="#a"/><use xlink:href="#b" x="-.004"/></svg><svg x="280"><use xlink:href="#a"/><use xlink:href="#b" x="19.996"/><text y="1.67" class="f">cat</text><text x="4.008" y="1.67" class="f">step-11-guard-on</text></svg><svg x="420"><use xlink:href="#a"/><use xlink:href="#b" x="39.996"/><text y="1.67" class="f">cat</text><text x="4.008" y="1.67" class="f">step-11-guard-on-create-topic.json</text><text x="39.078" y="1.67" class="f">|</text></svg><svg x="560"><use xlink:href="#a"/><use xlink:href="#b" x="7.996" y="6.488"/><use xlink:href="#1"/><use xlink:href="#2" y="4.342"/><text x="4.008" y="8.183" class="f">--re</text></svg><svg x="700"><use xlink:href="#a"/><use xlink:href="#b" x="27.996" y="6.488"/><use xlink:href="#1"/><use xlink:href="#2" y="4.342"/><text x="4.008" y="8.183" class="f">--request</text><text x="14.028" y="8.183" class="f">POST</text><text x="19.038" y="8.183" class="f">&quot;http://l</text></svg><svg x="840"><use xlink:href="#a"/><use xlink:href="#b" x="47.996" y="6.488"/><use xlink:href="#1"/><use xlink:href="#2" y="4.342"/><text x="4.008" y="8.183" class="f">--request</text><text x="14.028" y="8.183" class="f">POST</text><text x="19.038" y="8.183" class="f">&quot;http://localhost:8888/admin/</text></svg><svg x="980"><use xlink:href="#a"/><use xlink:href="#b" x="67.996" y="6.488"/><use xlink:href="#1"/><use xlink:href="#2" y="4.342"/><text x="4.008" y="8.183" class="f">--request</text><text x="14.028" y="8.183" class="f">POST</text><text x="19.038" y="8.183" class="f">&quot;http://localhost:8888/admin/interceptors/v1/vclu</text></svg><svg x="1120"><use xlink:href="#a"/><use xlink:href="#b" x="87.996" y="6.488"/><use xlink:href="#1"/><use xlink:href="#2" y="4.342"/><text x="4.008" y="8.183" class="f">--request</text><text x="14.028" y="8.183" class="f">POST</text><text x="19.038" y="8.183" class="f">&quot;http://localhost:8888/admin/interceptors/v1/vcluster/teamA/intercept</text></svg><svg x="1260"><use xlink:href="#a"/><use xlink:href="#b" x="107.996" y="6.488"/><use xlink:href="#1"/><use xlink:href="#2" y="4.342"/><text x="4.008" y="8.183" class="f">--request</text><text x="14.028" y="8.183" class="f">POST</text><text x="19.038" y="8.183" class="f">&quot;http://localhost:8888/admin/interceptors/v1/vcluster/teamA/interceptor/guard-on-create-t</text></svg><svg x="1400"><use xlink:href="#a"/><use xlink:href="#b" x="11.996" y="8.659"/><use xlink:href="#1"/><use xlink:href="#2" y="4.342"/><use xlink:href="#3" y="6.513"/><text x="4.008" y="10.354" class="f">--header</text></svg><svg x="1540"><use xlink:href="#a"/><use xlink:href="#b" x="31.996" y="8.659"/><use xlink:href="#1"/><use xlink:href="#2" y="4.342"/><use xlink:href="#3" y="6.513"/><text x="4.008" y="10.354" class="f">--header</text><text x="13.026" y="10.354" class="f">&apos;Content-Type:</text><text x="28.056" y="10.354" class="f">appl</text></svg><svg x="1680"><use xlink:href="#a"/><use xlink:href="#b" x="3.996" y="10.83"/><use xlink:href="#1"/><use xlink:href="#2" y="4.342"/><use xlink:href="#3" y="6.513"/><use xlink:href="#4" y="8.684"/></svg><svg x="1820"><use xlink:href="#a"/><use xlink:href="#b" x="23.996" y="10.83"/><use xlink:href="#1"/><use xlink:href="#2" y="4.342"/><use xlink:href="#3" y="6.513"/><use xlink:href="#4" y="8.684"/><text x="4.008" y="12.525" class="f">--user</text><text x="11.022" y="12.525" class="f">&apos;admin:conduk</text></svg><svg x="1960"><use xlink:href="#a"/><use xlink:href="#b" x="12.996" y="13.001"/><use xlink:href="#1"/><use xlink:href="#2" y="4.342"/><use xlink:href="#3" y="6.513"/><use xlink:href="#4" y="8.684"/><use xlink:href="#5" y="10.855"/><text x="4.008" y="14.696" class="f">--silent</text></svg><svg x="2100"><use xlink:href="#a"/><use xlink:href="#b" x="17.996" y="15.172"/><use xlink:href="#1"/><use xlink:href="#2" y="4.342"/><use xlink:href="#3" y="6.513"/><use xlink:href="#4" y="8.684"/><use xlink:href="#5" y="10.855"/><use xlink:href="#6" y="13.026"/><text x="4.008" y="16.867" class="f">--data</text><text x="11.022" y="16.867" class="f">@step-1</text></svg><svg x="2240"><use xlink:href="#a"/><use xlink:href="#b" x="37.996" y="15.172"/><use xlink:href="#1"/><use xlink:href="#2" y="4.342"/><use xlink:href="#3" y="6.513"/><use xlink:href="#4" y="8.684"/><use xlink:href="#5" y="10.855"/><use xlink:href="#6" y="13.026"/><text x="4.008" y="16.867" class="f">--data</text><text x="11.022" y="16.867" class="f">@step-11-guard-on-create-to</text></svg><svg x="2380"><use xlink:href="#a"/><use xlink:href="#b" x="-.004" y="17.343"/><use xlink:href="#1"/><use xlink:href="#2" y="4.342"/><use xlink:href="#3" y="6.513"/><use xlink:href="#4" y="8.684"/><use xlink:href="#5" y="10.855"/><use xlink:href="#6" y="13.026"/><use xlink:href="#7" y="15.197"/></svg><svg x="2520"><use xlink:href="#a"/><use xlink:href="#b" x="-.004" y="19.514"/><use xlink:href="#1"/><use xlink:href="#2" y="4.342"/><use xlink:href="#3" y="6.513"/><use xlink:href="#4" y="8.684"/><use xlink:href="#5" y="10.855"/><use xlink:href="#6" y="13.026"/><use xlink:href="#7" y="15.197"/></svg><svg x="2660"><use xlink:href="#a"/><use xlink:href="#b" x="-.004" y="43.395"/><use xlink:href="#3"/><use xlink:href="#4" y="2.171"/><use xlink:href="#5" y="4.342"/><use xlink:href="#6" y="6.513"/><use xlink:href="#7" y="8.684"/><use xlink:href="#8" y="13.026"/><use xlink:href="#9" y="15.197"/><use xlink:href="#10" y="17.368"/><use xlink:href="#11" y="19.539"/><use xlink:href="#12" y="21.71"/><use xlink:href="#13" y="23.881"/><use xlink:href="#14" y="26.052"/><use xlink:href="#15" y="28.223"/><use xlink:href="#16" y="30.394"/><use xlink:href="#17" y="32.565"/><use xlink:href="#18" y="34.736"/><use xlink:href="#19" y="36.907"/><use xlink:href="#20" y="39.078"/><use xlink:href="#21" y="41.249"/></svg><svg x="2800"><use xlink:href="#a"/><use xlink:href="#b" x="-.004" y="43.395"/><use xlink:href="#6"/><use xlink:href="#7" y="2.171"/><use xlink:href="#8" y="6.513"/><use xlink:href="#9" y="8.684"/><use xlink:href="#10" y="10.855"/><use xlink:href="#11" y="13.026"/><use xlink:href="#12" y="15.197"/><use xlink:href="#13" y="17.368"/><use xlink:href="#14" y="19.539"/><use xlink:href="#15" y="21.71"/><use xlink:href="#16" y="23.881"/><use xlink:href="#17" y="26.052"/><use xlink:href="#18" y="28.223"/><use xlink:href="#19" y="30.394"/><use xlink:href="#20" y="32.565"/><use xlink:href="#21" y="34.736"/><use xlink:href="#8" y="36.907"/><text x="2.004" y="40.748" class="h">&quot;message&quot;</text><text x="11.022" y="40.748" class="g">:</text><text x="13.026" y="40.748" class="i">&quot;guard-on-create-topic</text><text x="36.072" y="40.748" class="i">is</text><text x="39.078" y="40.748" class="i">created&quot;</text><use xlink:href="#21" y="41.249"/></svg></svg></g></g></svg></svg>