<svg xmlns="http://www.w3.org/2000/svg" xmlns:xlink="http://www.w3.org/1999/xlink" width="1440" height="494.2"><rect width="1440" height="494.2" rx="5" ry="5" class="a"/><svg y="0%" x="0%"><circle cx="20" cy="20" r="6" fill="#ff5f58"/><circle cx="40" cy="20" r="6" fill="#ffbd2e"/><circle cx="60" cy="20" r="6" fill="#18c132"/></svg><svg height="434.2" viewBox="0 0 140 43.42" width="1400" x="15" xmlns="http://www.w3.org/2000/svg" xmlns:xlink="http://www.w3.org/1999/xlink" y="50"><style>@keyframes n{0%{transform:translateX(0)}.2%{transform:translateX(-140px)}.3%{transform:translateX(-280px)}4.3%{transform:translateX(-420px)}6.3%{transform:translateX(-560px)}8.3%{transform:translateX(-700px)}10.3%{transform:translateX(-840px)}12.3%{transform:translateX(-980px)}14.2%{transform:translateX(-1120px)}16.3%{transform:translateX(-1260px)}18.3%{transform:translateX(-1400px)}20.4%{transform:translateX(-1540px)}22.3%{transform:translateX(-1680px)}24.3%{transform:translateX(-1820px)}26.4%{transform:translateX(-1960px)}28.5%{transform:translateX(-2100px)}32.6%{transform:translateX(-2380px)}55.5%{transform:translateX(-2660px)}98.6%{transform:translateX(-2800px)}to{transform:translateX(-2940px)}}.a{fill:#282d35}.f{fill:#fff;white-space:pre}.g{fill:#b9c0cb;font-weight:700}.g,.h,.i,.k{white-space:pre}.h{fill:#71bef2;font-weight:700}.i,.k{fill:#a8cc8c}.k{fill:#b9c0cb}</style><g font-family="Monaco,Consolas,Menlo,'Bitstream Vera Sans Mono','Powerline Symbols',monospace" font-size="1.67"><defs><symbol id="1"><text y="1.67" class="f">kafka-console-consumer</text><text x="23.046" y="1.67" class="f">\</text></symbol><symbol id="2"><text x="4.008" y="1.67" class="f">--bootstrap-server</text><text x="23.046" y="1.67" class="f">localhost:19092,localhost:19093,localhost:19094</text><text x="71.142" y="1.67" class="f">\</text></symbol><symbol id="3"><text x="4.008" y="1.67" class="f">--topic</text><text x="12.024" y="1.67" class="f">_auditLogs</text><text x="23.046" y="1.67" class="f">\</text></symbol><symbol id="4"><text x="4.008" y="1.67" class="f">--from-beginning</text><text x="21.042" y="1.67" class="f">\</text></symbol><symbol id="5"><text x="4.008" y="1.67" class="f">--timeout-ms</text><text x="17.034" y="1.67" class="f">3000</text><text x="22.044" y="1.67" class="f">\</text></symbol><symbol id="6"><text x="1.002" y="1.67" class="f">|</text><text x="3.006" y="1.67" class="f">jq</text><text x="6.012" y="1.67" class="f">&apos;select(.type==&quot;SAFEGUARD&quot;</text><text x="33.066" y="1.67" class="f">and</text><text x="37.074" y="1.67" class="f">.eventData.plugin==&quot;io.conduktor.gateway.interceptor.safeguard.ConsumerGroupPolicyPlugin&quot;)&apos;</text></symbol><symbol id="7"><text y="1.67" class="g">{</text></symbol><symbol id="8"><text x="2.004" y="1.67" class="h">&quot;id&quot;</text><text x="6.012" y="1.67" class="g">:</text><text x="8.016" y="1.67" class="i">&quot;34ae0df6-03ea-4e70-b27d-af67ff823d58&quot;</text><text x="46.092" y="1.67" class="g">,</text></symbol><symbol id="9"><text x="2.004" y="1.67" class="h">&quot;source&quot;</text><text x="10.02" y="1.67" class="g">:</text><text x="12.024" y="1.67" class="i">&quot;krn://cluster=dVna8FVbQqaMCBlz0mKQsA&quot;</text><text x="50.1" y="1.67" class="g">,</text></symbol><symbol id="10"><text x="2.004" y="1.67" class="h">&quot;type&quot;</text><text x="8.016" y="1.67" class="g">:</text><text x="10.02" y="1.67" class="i">&quot;SAFEGUARD&quot;</text><text x="21.042" y="1.67" class="g">,</text></symbol><symbol id="11"><text x="2.004" y="1.67" class="h">&quot;authenticationPrincipal&quot;</text><text x="27.054" y="1.67" class="g">:</text><text x="29.058" y="1.67" class="i">&quot;teamA&quot;</text><text x="36.072" y="1.67" class="g">,</text></symbol><symbol id="12"><text x="2.004" y="1.67" class="h">&quot;userName&quot;</text><text x="12.024" y="1.67" class="g">:</text><text x="14.028" y="1.67" class="i">&quot;sa&quot;</text><text x="18.036" y="1.67" class="g">,</text></symbol><symbol id="13"><text x="2.004" y="1.67" class="h">&quot;connection&quot;</text><text x="14.028" y="1.67" class="g">:</text><text x="16.032" y="1.67" class="g">{</text></symbol><symbol id="14"><text x="4.008" y="1.67" class="h">&quot;localAddress&quot;</text><text x="18.036" y="1.67" class="g">:</text><text x="20.04" y="1.67" style="white-space:pre" fill="#6f7783">null</text><text x="24.048" y="1.67" class="g">,</text></symbol><symbol id="15"><text x="4.008" y="1.67" class="h">&quot;remoteAddress&quot;</text><text x="19.038" y="1.67" class="g">:</text><text x="21.042" y="1.67" class="i">&quot;/192.168.65.1:22095&quot;</text></symbol><symbol id="16"><text x="2.004" y="1.67" class="g">},</text></symbol><symbol id="17"><text x="2.004" y="1.67" class="h">&quot;specVersion&quot;</text><text x="15.03" y="1.67" class="g">:</text><text x="17.034" y="1.67" class="i">&quot;0.1.0&quot;</text><text x="24.048" y="1.67" class="g">,</text></symbol><symbol id="18"><text x="2.004" y="1.67" class="h">&quot;time&quot;</text><text x="8.016" y="1.67" class="g">:</text><text x="10.02" y="1.67" class="i">&quot;2024-01-22T23:25:28.779839344Z&quot;</text><text x="42.084" y="1.67" class="g">,</text></symbol><symbol id="19"><text x="2.004" y="1.67" class="h">&quot;eventData&quot;</text><text x="13.026" y="1.67" class="g">:</text><text x="15.03" y="1.67" class="g">{</text></symbol><symbol id="20"><text x="4.008" y="1.67" class="h">&quot;level&quot;</text><text x="11.022" y="1.67" class="g">:</text><text x="13.026" y="1.67" class="i">&quot;error&quot;</text><text x="20.04" y="1.67" class="g">,</text></symbol><symbol id="21"><text x="4.008" y="1.67" class="h">&quot;plugin&quot;</text><text x="12.024" y="1.67" class="g">:</text><text x="14.028" y="1.67" class="i">&quot;io.conduktor.gateway.interceptor.safeguard.ConsumerGroupPolicyPlugin&quot;</text><text x="84.168" y="1.67" class="g">,</text></symbol><symbol id="22"><text x="4.008" y="1.67" class="h">&quot;message&quot;</text><text x="13.026" y="1.67" class="g">:</text><text x="15.03" y="1.67" class="i">&quot;Request</text><text x="24.048" y="1.67" class="i">parameters</text><text x="35.07" y="1.67" class="i">do</text><text x="38.076" y="1.67" class="i">not</text><text x="42.084" y="1.67" class="i">satisfy</text><text x="50.1" y="1.67" class="i">the</text><text x="54.108" y="1.67" class="i">configured</text><text x="65.13" y="1.67" class="i">policy.</text><text x="73.146" y="1.67" class="i">GroupId</text><text x="81.162" y="1.67" class="i">&apos;group-not-within-policy&apos;</text><text x="107.214" y="1.67" class="i">is</text><text x="110.22" y="1.67" class="i">invalid,</text><text x="119.238" y="1.67" class="i">naming</text><text x="126.252" y="1.67" class="i">convention</text><text x="137.274" y="1.67" class="i">mus</text></symbol><symbol id="23"><text y="1.67" class="i">t</text><text x="2.004" y="1.67" class="i">match</text><text x="8.016" y="1.67" class="i">with</text><text x="13.026" y="1.67" class="i">regular</text><text x="21.042" y="1.67" class="i">expression</text><text x="32.064" y="1.67" class="i">my-group.*&quot;</text></symbol><symbol id="24"><text x="2.004" y="1.67" class="g">}</text></symbol><symbol id="25"><text y="1.67" class="g">}</text></symbol><symbol id="26"><text y="1.67" class="k">[2024-01-23</text><text x="12.024" y="1.67" class="k">00:25:34,927]</text><text x="26.052" y="1.67" class="k">ERROR</text><text x="32.064" y="1.67" class="k">Error</text><text x="38.076" y="1.67" class="k">processing</text><text x="49.098" y="1.67" class="k">message,</text><text x="58.116" y="1.67" class="k">terminating</text><text x="70.14" y="1.67" class="k">consumer</text><text x="79.158" y="1.67" class="k">process:</text><text x="89.178" y="1.67" class="k">(kafka.tools.ConsoleConsumer$)</text></symbol><symbol id="27"><text y="1.67" class="k">org.apache.kafka.common.errors.TimeoutException</text></symbol><symbol id="a"><path fill="transparent" d="M0 0h140v21H0z"/></symbol><symbol id="b"><path fill="#6f7683" d="M0 0h1.102v2.171H0z"/></symbol></defs><path class="a" d="M0 0h140v43.42H0z"/><g style="animation-duration:4.634698s;animation-iteration-count:infinite;animation-name:n;animation-timing-function:steps(1,end)"><svg width="3080"><svg><use xlink:href="#a"/><use xlink:href="#b" x="-.004"/></svg><svg x="140"><use xlink:href="#a"/><use xlink:href="#b" x="-.004"/></svg><svg x="280"><use xlink:href="#a"/><use xlink:href="#b" x="19.996"/><text y="1.67" class="f">kafka-console-consum</text></svg><svg x="420"><use xlink:href="#a"/><use xlink:href="#b" x="14.996" y="2.146"/><use xlink:href="#1"/><text x="4.008" y="3.841" class="f">--bootstrap</text></svg><svg x="560"><use xlink:href="#a"/><use xlink:href="#b" x="34.996" y="2.146"/><use xlink:href="#1"/><text x="4.008" y="3.841" class="f">--bootstrap-server</text><text x="23.046" y="3.841" class="f">localhost:19</text></svg><svg x="700"><use xlink:href="#a"/><use xlink:href="#b" x="54.996" y="2.146"/><use xlink:href="#1"/><text x="4.008" y="3.841" class="f">--bootstrap-server</text><text x="23.046" y="3.841" class="f">localhost:19092,localhost:19093,</text></svg><svg x="840"><use xlink:href="#a"/><use xlink:href="#b" x="1.996" y="4.317"/><use xlink:href="#1"/><use xlink:href="#2" y="2.171"/></svg><svg x="980"><use xlink:href="#a"/><use xlink:href="#b" x="21.996" y="4.317"/><use xlink:href="#1"/><use xlink:href="#2" y="2.171"/><text x="4.008" y="6.012" class="f">--topic</text><text x="12.024" y="6.012" class="f">_auditLogs</text></svg><svg x="1120"><use xlink:href="#a"/><use xlink:href="#b" x="16.996" y="6.488"/><use xlink:href="#1"/><use xlink:href="#2" y="2.171"/><use xlink:href="#3" y="4.342"/><text x="4.008" y="8.183" class="f">--from-beginn</text></svg><svg x="1260"><use xlink:href="#a"/><use xlink:href="#b" x="13.996" y="8.659"/><use xlink:href="#1"/><use xlink:href="#2" y="2.171"/><use xlink:href="#3" y="4.342"/><use xlink:href="#4" y="6.513"/><text x="4.008" y="10.354" class="f">--timeout-</text></svg><svg x="1400"><use xlink:href="#a"/><use xlink:href="#b" x="9.996" y="10.83"/><use xlink:href="#1"/><use xlink:href="#2" y="2.171"/><use xlink:href="#3" y="4.342"/><use xlink:href="#4" y="6.513"/><use xlink:href="#5" y="8.684"/><text x="1.002" y="12.525" class="f">|</text><text x="3.006" y="12.525" class="f">jq</text><text x="6.012" y="12.525" class="f">&apos;sel</text></svg><svg x="1540"><use xlink:href="#a"/><use xlink:href="#b" x="29.996" y="10.83"/><use xlink:href="#1"/><use xlink:href="#2" y="2.171"/><use xlink:href="#3" y="4.342"/><use xlink:href="#4" y="6.513"/><use xlink:href="#5" y="8.684"/><text x="1.002" y="12.525" class="f">|</text><text x="3.006" y="12.525" class="f">jq</text><text x="6.012" y="12.525" class="f">&apos;select(.type==&quot;SAFEGUAR</text></svg><svg x="1680"><use xlink:href="#a"/><use xlink:href="#b" x="49.996" y="10.83"/><use xlink:href="#1"/><use xlink:href="#2" y="2.171"/><use xlink:href="#3" y="4.342"/><use xlink:href="#4" y="6.513"/><use xlink:href="#5" y="8.684"/><text x="1.002" y="12.525" class="f">|</text><text x="3.006" y="12.525" class="f">jq</text><text x="6.012" y="12.525" class="f">&apos;select(.type==&quot;SAFEGUARD&quot;</text><text x="33.066" y="12.525" class="f">and</text><text x="37.074" y="12.525" class="f">.eventData.pl</text></svg><svg x="1820"><use xlink:href="#a"/><use xlink:href="#b" x="69.996" y="10.83"/><use xlink:href="#1"/><use xlink:href="#2" y="2.171"/><use xlink:href="#3" y="4.342"/><use xlink:href="#4" y="6.513"/><use xlink:href="#5" y="8.684"/><text x="1.002" y="12.525" class="f">|</text><text x="3.006" y="12.525" class="f">jq</text><text x="6.012" y="12.525" class="f">&apos;select(.type==&quot;SAFEGUARD&quot;</text><text x="33.066" y="12.525" class="f">and</text><text x="37.074" y="12.525" class="f">.eventData.plugin==&quot;io.conduktor.</text></svg><svg x="1960"><use xlink:href="#a"/><use xlink:href="#b" x="89.996" y="10.83"/><use xlink:href="#1"/><use xlink:href="#2" y="2.171"/><use xlink:href="#3" y="4.342"/><use xlink:href="#4" y="6.513"/><use xlink:href="#5" y="8.684"/><text x="1.002" y="12.525" class="f">|</text><text x="3.006" y="12.525" class="f">jq</text><text x="6.012" y="12.525" class="f">&apos;select(.type==&quot;SAFEGUARD&quot;</text><text x="33.066" y="12.525" class="f">and</text><text x="37.074" y="12.525" class="f">.eventData.plugin==&quot;io.conduktor.gateway.interceptor.</text></svg><svg x="2100"><use xlink:href="#a"/><use xlink:href="#b" x="109.996" y="10.83"/><use xlink:href="#1"/><use xlink:href="#2" y="2.171"/><use xlink:href="#3" y="4.342"/><use xlink:href="#4" y="6.513"/><use xlink:href="#5" y="8.684"/><text x="1.002" y="12.525" class="f">|</text><text x="3.006" y="12.525" class="f">jq</text><text x="6.012" y="12.525" class="f">&apos;select(.type==&quot;SAFEGUARD&quot;</text><text x="33.066" y="12.525" class="f">and</text><text x="37.074" y="12.525" class="f">.eventData.plugin==&quot;io.conduktor.gateway.interceptor.safeguard.ConsumerGr</text></svg><svg x="2240"><use xlink:href="#a"/><use xlink:href="#b" x="-.004" y="13.001"/><use xlink:href="#1"/><use xlink:href="#2" y="2.171"/><use xlink:href="#3" y="4.342"/><use xlink:href="#4" y="6.513"/><use xlink:href="#5" y="8.684"/><use xlink:href="#6" y="10.855"/></svg><svg x="2380"><use xlink:href="#a"/><use xlink:href="#b" x="-.004" y="15.172"/><use xlink:href="#1"/><use xlink:href="#2" y="2.171"/><use xlink:href="#3" y="4.342"/><use xlink:href="#4" y="6.513"/><use xlink:href="#5" y="8.684"/><use xlink:href="#6" y="10.855"/></svg><svg x="2520"><use xlink:href="#a"/><use xlink:href="#b" x="-.004" y="39.053"/><use xlink:href="#1"/><use xlink:href="#2" y="2.171"/><use xlink:href="#3" y="4.342"/><use xlink:href="#4" y="6.513"/><use xlink:href="#5" y="8.684"/><use xlink:href="#6" y="10.855"/><use xlink:href="#7" y="15.197"/><use xlink:href="#8" y="17.368"/><use xlink:href="#9" y="19.539"/><use xlink:href="#10" y="21.71"/><use xlink:href="#11" y="23.881"/><use xlink:href="#12" y="26.052"/><use xlink:href="#13" y="28.223"/><use xlink:href="#14" y="30.394"/><use xlink:href="#15" y="32.565"/><use xlink:href="#16" y="34.736"/><use xlink:href="#17" y="36.907"/></svg><svg x="2660"><use xlink:href="#a"/><use xlink:href="#b" x="-.004" y="43.395"/><use xlink:href="#7" y="2.171"/><use xlink:href="#8" y="4.342"/><use xlink:href="#9" y="6.513"/><use xlink:href="#10" y="8.684"/><use xlink:href="#11" y="10.855"/><use xlink:href="#12" y="13.026"/><use xlink:href="#13" y="15.197"/><use xlink:href="#14" y="17.368"/><use xlink:href="#15" y="19.539"/><use xlink:href="#16" y="21.71"/><use xlink:href="#17" y="23.881"/><use xlink:href="#18" y="26.052"/><use xlink:href="#19" y="28.223"/><use xlink:href="#20" y="30.394"/><use xlink:href="#21" y="32.565"/><use xlink:href="#22" y="34.736"/><use xlink:href="#23" y="36.907"/><use xlink:href="#24" y="39.078"/><use xlink:href="#25" y="41.249"/></svg><svg x="2800"><use xlink:href="#a"/><use xlink:href="#b" x="-.004" y="43.395"/><use xlink:href="#8"/><use xlink:href="#9" y="2.171"/><use xlink:href="#10" y="4.342"/><use xlink:href="#11" y="6.513"/><use xlink:href="#12" y="8.684"/><use xlink:href="#13" y="10.855"/><use xlink:href="#14" y="13.026"/><use xlink:href="#15" y="15.197"/><use xlink:href="#16" y="17.368"/><use xlink:href="#17" y="19.539"/><use xlink:href="#18" y="21.71"/><use xlink:href="#19" y="23.881"/><use xlink:href="#20" y="26.052"/><use xlink:href="#21" y="28.223"/><use xlink:href="#22" y="30.394"/><use xlink:href="#23" y="32.565"/><use xlink:href="#24" y="34.736"/><use xlink:href="#25" y="36.907"/><use xlink:href="#26" y="39.078"/><use xlink:href="#27" y="41.249"/></svg><svg x="2940"><use xlink:href="#a"/><use xlink:href="#b" x="-.004" y="43.395"/><use xlink:href="#9"/><use xlink:href="#10" y="2.171"/><use xlink:href="#11" y="4.342"/><use xlink:href="#12" y="6.513"/><use xlink:href="#13" y="8.684"/><use xlink:href="#14" y="10.855"/><use xlink:href="#15" y="13.026"/><use xlink:href="#16" y="15.197"/><use xlink:href="#17" y="17.368"/><use xlink:href="#18" y="19.539"/><use xlink:href="#19" y="21.71"/><use xlink:href="#20" y="23.881"/><use xlink:href="#21" y="26.052"/><use xlink:href="#22" y="28.223"/><use xlink:href="#23" y="30.394"/><use xlink:href="#24" y="32.565"/><use xlink:href="#25" y="34.736"/><use xlink:href="#26" y="36.907"/><use xlink:href="#27" y="39.078"/><text y="42.919" class="k">Processed</text><text x="10.02" y="42.919" class="k">a</text><text x="12.024" y="42.919" class="k">total</text><text x="18.036" y="42.919" class="k">of</text><text x="21.042" y="42.919" class="k">42</text><text x="24.048" y="42.919" class="k">messages</text></svg></svg></g></g></svg></svg>