<svg xmlns="http://www.w3.org/2000/svg" xmlns:xlink="http://www.w3.org/1999/xlink" width="1440" height="211.97"><rect width="1440" height="211.97" rx="5" ry="5" class="a"/><svg y="0%" x="0%"><circle cx="20" cy="20" r="6" fill="#ff5f58"/><circle cx="40" cy="20" r="6" fill="#ffbd2e"/><circle cx="60" cy="20" r="6" fill="#18c132"/></svg><svg height="151.97" viewBox="0 0 140 15.197" width="1400" x="15" xmlns="http://www.w3.org/2000/svg" xmlns:xlink="http://www.w3.org/1999/xlink" y="50"><style>@keyframes i{0%{transform:translateX(0)}.6%{transform:translateX(-140px)}.8%{transform:translateX(-280px)}9%{transform:translateX(-420px)}14.7%{transform:translateX(-560px)}17.5%{transform:translateX(-700px)}25%{transform:translateX(-840px)}28.9%{transform:translateX(-980px)}32.7%{transform:translateX(-1120px)}36.6%{transform:translateX(-1260px)}40.5%{transform:translateX(-1400px)}44.2%{transform:translateX(-1540px)}48.3%{transform:translateX(-1680px)}52.4%{transform:translateX(-1820px)}56.1%{transform:translateX(-1960px)}59.9%{transform:translateX(-2100px)}63.8%{transform:translateX(-2240px)}67.6%{transform:translateX(-2380px)}71.5%{transform:translateX(-2520px)}75.4%{transform:translateX(-2660px)}79.2%{transform:translateX(-2800px)}82.9%{transform:translateX(-2940px)}87.5%{transform:translateX(-3080px)}91.9%{transform:translateX(-3220px)}92%{transform:translateX(-3360px)}to{transform:translateX(-3500px)}}.a{fill:#282d35}.f,.k{fill:#fff;white-space:pre}.k{fill:#b9c0cb}</style><g font-family="Monaco,Consolas,Menlo,'Bitstream Vera Sans Mono','Powerline Symbols',monospace" font-size="1.67"><defs><symbol id="1"><text y="1.67" class="f">curl</text><text x="5.01" y="1.67" class="f">\</text></symbol><symbol id="2"><text x="4.008" y="1.67" class="f">--request</text><text x="14.028" y="1.67" class="f">DELETE</text><text x="21.042" y="1.67" class="f">&quot;http://localhost:8888/admin/interceptors/v1/vcluster/teamA/interceptor/simulate-broken-brokers&quot;</text><text x="118.236" y="1.67" class="f">\</text></symbol><symbol id="3"><text x="4.008" y="1.67" class="f">--header</text><text x="13.026" y="1.67" class="f">&apos;Content-Type:</text><text x="28.056" y="1.67" class="f">application/json&apos;</text></symbol><symbol id="4"><text x="4.008" y="1.67" class="f">--user</text><text x="11.022" y="1.67" class="f">&apos;admin:conduktor&apos;</text><text x="29.058" y="1.67" class="f">\</text></symbol><symbol id="5"><text x="4.008" y="1.67" class="f">--silent</text><text x="13.026" y="1.67" class="f">|</text><text x="15.03" y="1.67" class="f">jq</text></symbol><symbol id="a"><path fill="transparent" d="M0 0h140v8H0z"/></symbol><symbol id="b"><path fill="#6f7683" d="M0 0h1.102v2.171H0z"/></symbol></defs><path class="a" d="M0 0h140v15.197H0z"/><g style="animation-duration:2.4463s;animation-iteration-count:infinite;animation-name:i;animation-timing-function:steps(1,end)"><svg width="3640"><svg><use xlink:href="#a"/><use xlink:href="#b" x="-.004"/></svg><svg x="140"><use xlink:href="#a"/><use xlink:href="#b" x="-.004"/></svg><svg x="280"><use xlink:href="#a"/><use xlink:href="#b" x="2.996" y="2.146"/><use xlink:href="#1"/></svg><svg x="420"><use xlink:href="#a"/><use xlink:href="#b" x="22.996" y="2.146"/><use xlink:href="#1"/><text x="4.008" y="3.841" class="f">--request</text><text x="14.028" y="3.841" class="f">DELETE</text><text x="21.042" y="3.841" class="f">&quot;h</text></svg><svg x="560"><use xlink:href="#a"/><use xlink:href="#b" x="32.996" y="2.146"/><use xlink:href="#1"/><text x="4.008" y="3.841" class="f">--request</text><text x="14.028" y="3.841" class="f">DELETE</text><text x="21.042" y="3.841" class="f">&quot;http://loca</text></svg><svg x="700"><use xlink:href="#a"/><use xlink:href="#b" x="42.996" y="2.146"/><use xlink:href="#1"/><text x="4.008" y="3.841" class="f">--request</text><text x="14.028" y="3.841" class="f">DELETE</text><text x="21.042" y="3.841" class="f">&quot;http://localhost:8888</text></svg><svg x="840"><use xlink:href="#a"/><use xlink:href="#b" x="52.996" y="2.146"/><use xlink:href="#1"/><text x="4.008" y="3.841" class="f">--request</text><text x="14.028" y="3.841" class="f">DELETE</text><text x="21.042" y="3.841" class="f">&quot;http://localhost:8888/admin/int</text></svg><svg x="980"><use xlink:href="#a"/><use xlink:href="#b" x="62.996" y="2.146"/><use xlink:href="#1"/><text x="4.008" y="3.841" class="f">--request</text><text x="14.028" y="3.841" class="f">DELETE</text><text x="21.042" y="3.841" class="f">&quot;http://localhost:8888/admin/interceptors/</text></svg><svg x="1120"><use xlink:href="#a"/><use xlink:href="#b" x="72.996" y="2.146"/><use xlink:href="#1"/><text x="4.008" y="3.841" class="f">--request</text><text x="14.028" y="3.841" class="f">DELETE</text><text x="21.042" y="3.841" class="f">&quot;http://localhost:8888/admin/interceptors/v1/vcluste</text></svg><svg x="1260"><use xlink:href="#a"/><use xlink:href="#b" x="82.996" y="2.146"/><use xlink:href="#1"/><text x="4.008" y="3.841" class="f">--request</text><text x="14.028" y="3.841" class="f">DELETE</text><text x="21.042" y="3.841" class="f">&quot;http://localhost:8888/admin/interceptors/v1/vcluster/teamA/in</text></svg><svg x="1400"><use xlink:href="#a"/><use xlink:href="#b" x="92.996" y="2.146"/><use xlink:href="#1"/><text x="4.008" y="3.841" class="f">--request</text><text x="14.028" y="3.841" class="f">DELETE</text><text x="21.042" y="3.841" class="f">&quot;http://localhost:8888/admin/interceptors/v1/vcluster/teamA/interceptor/</text></svg><svg x="1540"><use xlink:href="#a"/><use xlink:href="#b" x="102.996" y="2.146"/><use xlink:href="#1"/><text x="4.008" y="3.841" class="f">--request</text><text x="14.028" y="3.841" class="f">DELETE</text><text x="21.042" y="3.841" class="f">&quot;http://localhost:8888/admin/interceptors/v1/vcluster/teamA/interceptor/simulate-b</text></svg><svg x="1680"><use xlink:href="#a"/><use xlink:href="#b" x="112.996" y="2.146"/><use xlink:href="#1"/><text x="4.008" y="3.841" class="f">--request</text><text x="14.028" y="3.841" class="f">DELETE</text><text x="21.042" y="3.841" class="f">&quot;http://localhost:8888/admin/interceptors/v1/vcluster/teamA/interceptor/simulate-broken-brok</text></svg><svg x="1820"><use xlink:href="#a"/><use xlink:href="#b" x="2.996" y="4.317"/><use xlink:href="#1"/><use xlink:href="#2" y="2.171"/></svg><svg x="1960"><use xlink:href="#a"/><use xlink:href="#b" x="12.996" y="4.317"/><use xlink:href="#1"/><use xlink:href="#2" y="2.171"/><text x="4.008" y="6.012" class="f">--header</text></svg><svg x="2100"><use xlink:href="#a"/><use xlink:href="#b" x="22.996" y="4.317"/><use xlink:href="#1"/><use xlink:href="#2" y="2.171"/><text x="4.008" y="6.012" class="f">--header</text><text x="13.026" y="6.012" class="f">&apos;Content-T</text></svg><svg x="2240"><use xlink:href="#a"/><use xlink:href="#b" x="32.996" y="4.317"/><use xlink:href="#1"/><use xlink:href="#2" y="2.171"/><text x="4.008" y="6.012" class="f">--header</text><text x="13.026" y="6.012" class="f">&apos;Content-Type:</text><text x="28.056" y="6.012" class="f">appli</text></svg><svg x="2380"><use xlink:href="#a"/><use xlink:href="#b" x="42.996" y="4.317"/><use xlink:href="#1"/><use xlink:href="#2" y="2.171"/><text x="4.008" y="6.012" class="f">--header</text><text x="13.026" y="6.012" class="f">&apos;Content-Type:</text><text x="28.056" y="6.012" class="f">application/jso</text></svg><svg x="2520"><use xlink:href="#a"/><use xlink:href="#b" x="6.996" y="6.488"/><use xlink:href="#1"/><use xlink:href="#2" y="2.171"/><use xlink:href="#3" y="4.342"/><text x="4.008" y="8.183" class="f">--u</text></svg><svg x="2660"><use xlink:href="#a"/><use xlink:href="#b" x="16.996" y="6.488"/><use xlink:href="#1"/><use xlink:href="#2" y="2.171"/><use xlink:href="#3" y="4.342"/><text x="4.008" y="8.183" class="f">--user</text><text x="11.022" y="8.183" class="f">&apos;admin</text></svg><svg x="2800"><use xlink:href="#a"/><use xlink:href="#b" x="26.996" y="6.488"/><use xlink:href="#1"/><use xlink:href="#2" y="2.171"/><use xlink:href="#3" y="4.342"/><text x="4.008" y="8.183" class="f">--user</text><text x="11.022" y="8.183" class="f">&apos;admin:conduktor</text></svg><svg x="2940"><use xlink:href="#a"/><use xlink:href="#b" x="5.996" y="8.659"/><use xlink:href="#1"/><use xlink:href="#2" y="2.171"/><use xlink:href="#3" y="4.342"/><use xlink:href="#4" y="6.513"/><text x="4.008" y="10.354" class="f">--</text></svg><svg x="3080"><use xlink:href="#a"/><use xlink:href="#b" x="15.996" y="8.659"/><use xlink:href="#1"/><use xlink:href="#2" y="2.171"/><use xlink:href="#3" y="4.342"/><use xlink:href="#4" y="6.513"/><text x="4.008" y="10.354" class="f">--silent</text><text x="13.026" y="10.354" class="f">|</text><text x="15.03" y="10.354" class="f">j</text></svg><svg x="3220"><use xlink:href="#a"/><use xlink:href="#b" x="-.004" y="10.83"/><use xlink:href="#1"/><use xlink:href="#2" y="2.171"/><use xlink:href="#3" y="4.342"/><use xlink:href="#4" y="6.513"/><use xlink:href="#5" y="8.684"/></svg><svg x="3360"><use xlink:href="#a"/><use xlink:href="#b" x="-.004" y="13.001"/><use xlink:href="#1"/><use xlink:href="#2" y="2.171"/><use xlink:href="#3" y="4.342"/><use xlink:href="#4" y="6.513"/><use xlink:href="#5" y="8.684"/></svg><svg x="3500"><use xlink:href="#a"/><use xlink:href="#b" x="-.004" y="15.172"/><use xlink:href="#1"/><use xlink:href="#2" y="2.171"/><use xlink:href="#3" y="4.342"/><use xlink:href="#4" y="6.513"/><use xlink:href="#5" y="8.684"/><text y="14.696" class="k">./step-11-REMOVE_INTERCEPTORS.sh:</text><text x="34.068" y="14.696" class="k">line</text><text x="39.078" y="14.696" class="k">4:</text><text x="42.084" y="14.696" class="k">--user:</text><text x="50.1" y="14.696" class="k">command</text><text x="58.116" y="14.696" class="k">not</text><text x="62.124" y="14.696" class="k">found</text></svg></svg></g></g></svg></svg>