<svg xmlns="http://www.w3.org/2000/svg" xmlns:xlink="http://www.w3.org/1999/xlink" width="1440" height="494.2"><rect width="1440" height="494.2" rx="5" ry="5" class="a"/><svg y="0%" x="0%"><circle cx="20" cy="20" r="6" fill="#ff5f58"/><circle cx="40" cy="20" r="6" fill="#ffbd2e"/><circle cx="60" cy="20" r="6" fill="#18c132"/></svg><svg height="434.2" viewBox="0 0 140 43.42" width="1400" x="15" xmlns="http://www.w3.org/2000/svg" xmlns:xlink="http://www.w3.org/1999/xlink" y="50"><style>@keyframes l{0%{transform:translateX(0)}1%{transform:translateX(-140px)}1.7%{transform:translateX(-280px)}8.5%{transform:translateX(-420px)}11.8%{transform:translateX(-560px)}15.2%{transform:translateX(-700px)}18.5%{transform:translateX(-840px)}21.9%{transform:translateX(-980px)}25.1%{transform:translateX(-1120px)}28.5%{transform:translateX(-1260px)}31.9%{transform:translateX(-1400px)}35.2%{transform:translateX(-1540px)}38.5%{transform:translateX(-1680px)}41.8%{transform:translateX(-1820px)}45.1%{transform:translateX(-1960px)}48.6%{transform:translateX(-2100px)}55.4%{transform:translateX(-2240px)}58.8%{transform:translateX(-2380px)}62.2%{transform:translateX(-2660px)}62.9%{transform:translateX(-2940px)}to{transform:translateX(-3080px)}}.a{fill:#282d35}.f{fill:#fff;white-space:pre}.g{fill:#b9c0cb;font-weight:700}.g,.h,.i{white-space:pre}.h{fill:#71bef2;font-weight:700}.i{fill:#a8cc8c}</style><g font-family="Monaco,Consolas,Menlo,'Bitstream Vera Sans Mono','Powerline Symbols',monospace" font-size="1.67"><defs><symbol id="1"><text y="1.67" class="f">cat</text><text x="4.008" y="1.67" class="f">step-09-encrypt-on-consume.json</text><text x="36.072" y="1.67" class="f">|</text><text x="38.076" y="1.67" class="f">jq</text></symbol><symbol id="2"><text y="1.67" class="f">curl</text><text x="5.01" y="1.67" class="f">\</text></symbol><symbol id="3"><text x="4.008" y="1.67" class="f">--request</text><text x="14.028" y="1.67" class="f">POST</text><text x="19.038" y="1.67" class="f">&quot;http://localhost:8888/admin/interceptors/v1/vcluster/teamA/username/third-party/interceptor/encrypt-on-consume&quot;</text><text x="132.264" y="1.67" class="f">\</text></symbol><symbol id="4"><text x="4.008" y="1.67" class="f">--header</text><text x="13.026" y="1.67" class="f">&apos;Content-Type:</text><text x="28.056" y="1.67" class="f">application/json&apos;</text><text x="46.092" y="1.67" class="f">\</text></symbol><symbol id="5"><text x="4.008" y="1.67" class="f">--user</text><text x="11.022" y="1.67" class="f">&apos;admin:conduktor&apos;</text><text x="29.058" y="1.67" class="f">\</text></symbol><symbol id="6"><text x="4.008" y="1.67" class="f">--silent</text><text x="13.026" y="1.67" class="f">\</text></symbol><symbol id="7"><text x="4.008" y="1.67" class="f">--data</text><text x="11.022" y="1.67" class="f">@step-09-encrypt-on-consume.json</text><text x="44.088" y="1.67" class="f">|</text><text x="46.092" y="1.67" class="f">jq</text></symbol><symbol id="8"><text y="1.67" class="g">{</text></symbol><symbol id="9"><text x="4.008" y="1.67" class="h">&quot;fields&quot;</text><text x="12.024" y="1.67" class="g">:</text><text x="14.028" y="1.67" class="g">[</text></symbol><symbol id="10"><text x="6.012" y="1.67" class="g">{</text></symbol><symbol id="11"><text x="8.016" y="1.67" class="h">&quot;fieldName&quot;</text><text x="19.038" y="1.67" class="g">:</text><text x="21.042" y="1.67" class="i">&quot;password&quot;</text><text x="31.062" y="1.67" class="g">,</text></symbol><symbol id="12"><text x="8.016" y="1.67" class="h">&quot;keySecretId&quot;</text><text x="21.042" y="1.67" class="g">:</text><text x="23.046" y="1.67" class="i">&quot;password-secret&quot;</text><text x="40.08" y="1.67" class="g">,</text></symbol><symbol id="13"><text x="8.016" y="1.67" class="h">&quot;algorithm&quot;</text><text x="19.038" y="1.67" class="g">:</text><text x="21.042" y="1.67" class="g">{</text></symbol><symbol id="14"><text x="10.02" y="1.67" class="h">&quot;type&quot;</text><text x="16.032" y="1.67" class="g">:</text><text x="18.036" y="1.67" class="i">&quot;AES_GCM&quot;</text><text x="27.054" y="1.67" class="g">,</text></symbol><symbol id="15"><text x="10.02" y="1.67" class="h">&quot;kms&quot;</text><text x="15.03" y="1.67" class="g">:</text><text x="17.034" y="1.67" class="i">&quot;IN_MEMORY&quot;</text></symbol><symbol id="16"><text x="8.016" y="1.67" class="g">}</text></symbol><symbol id="17"><text x="6.012" y="1.67" class="g">},</text></symbol><symbol id="18"><text x="8.016" y="1.67" class="h">&quot;fieldName&quot;</text><text x="19.038" y="1.67" class="g">:</text><text x="21.042" y="1.67" class="i">&quot;visa&quot;</text><text x="27.054" y="1.67" class="g">,</text></symbol><symbol id="19"><text x="8.016" y="1.67" class="h">&quot;keySecretId&quot;</text><text x="21.042" y="1.67" class="g">:</text><text x="23.046" y="1.67" class="i">&quot;visa-secret&quot;</text><text x="36.072" y="1.67" class="g">,</text></symbol><symbol id="20"><text x="6.012" y="1.67" class="g">}</text></symbol><symbol id="21"><text x="4.008" y="1.67" class="g">]</text></symbol><symbol id="22"><text x="2.004" y="1.67" class="g">}</text></symbol><symbol id="23"><text y="1.67" class="g">}</text></symbol><symbol id="a"><path fill="transparent" d="M0 0h140v21H0z"/></symbol><symbol id="b"><path fill="#6f7683" d="M0 0h1.102v2.171H0z"/></symbol></defs><path class="a" d="M0 0h140v43.42H0z"/><g style="animation-duration:2.774352s;animation-iteration-count:infinite;animation-name:l;animation-timing-function:steps(1,end)"><svg width="3220"><svg><use xlink:href="#a"/><use xlink:href="#b" x="-.004"/></svg><svg x="140"><use xlink:href="#a"/><use xlink:href="#b" x="-.004"/></svg><svg x="280"><use xlink:href="#a"/><use xlink:href="#b" x="19.996"/><text y="1.67" class="f">cat</text><text x="4.008" y="1.67" class="f">step-09-encrypt-</text></svg><svg x="420"><use xlink:href="#a"/><use xlink:href="#b" x="39.996"/><use xlink:href="#1"/></svg><svg x="560"><use xlink:href="#a"/><use xlink:href="#b" x="10.996" y="6.488"/><use xlink:href="#1"/><use xlink:href="#2" y="4.342"/><text x="4.008" y="8.183" class="f">--reque</text></svg><svg x="700"><use xlink:href="#a"/><use xlink:href="#b" x="30.996" y="6.488"/><use xlink:href="#1"/><use xlink:href="#2" y="4.342"/><text x="4.008" y="8.183" class="f">--request</text><text x="14.028" y="8.183" class="f">POST</text><text x="19.038" y="8.183" class="f">&quot;http://loca</text></svg><svg x="840"><use xlink:href="#a"/><use xlink:href="#b" x="50.996" y="6.488"/><use xlink:href="#1"/><use xlink:href="#2" y="4.342"/><text x="4.008" y="8.183" class="f">--request</text><text x="14.028" y="8.183" class="f">POST</text><text x="19.038" y="8.183" class="f">&quot;http://localhost:8888/admin/int</text></svg><svg x="980"><use xlink:href="#a"/><use xlink:href="#b" x="70.996" y="6.488"/><use xlink:href="#1"/><use xlink:href="#2" y="4.342"/><text x="4.008" y="8.183" class="f">--request</text><text x="14.028" y="8.183" class="f">POST</text><text x="19.038" y="8.183" class="f">&quot;http://localhost:8888/admin/interceptors/v1/vcluste</text></svg><svg x="1120"><use xlink:href="#a"/><use xlink:href="#b" x="90.996" y="6.488"/><use xlink:href="#1"/><use xlink:href="#2" y="4.342"/><text x="4.008" y="8.183" class="f">--request</text><text x="14.028" y="8.183" class="f">POST</text><text x="19.038" y="8.183" class="f">&quot;http://localhost:8888/admin/interceptors/v1/vcluster/teamA/username/thi</text></svg><svg x="1260"><use xlink:href="#a"/><use xlink:href="#b" x="110.996" y="6.488"/><use xlink:href="#1"/><use xlink:href="#2" y="4.342"/><text x="4.008" y="8.183" class="f">--request</text><text x="14.028" y="8.183" class="f">POST</text><text x="19.038" y="8.183" class="f">&quot;http://localhost:8888/admin/interceptors/v1/vcluster/teamA/username/third-party/interceptor</text></svg><svg x="1400"><use xlink:href="#a"/><use xlink:href="#b" x="130.996" y="6.488"/><use xlink:href="#1"/><use xlink:href="#2" y="4.342"/><text x="4.008" y="8.183" class="f">--request</text><text x="14.028" y="8.183" class="f">POST</text><text x="19.038" y="8.183" class="f">&quot;http://localhost:8888/admin/interceptors/v1/vcluster/teamA/username/third-party/interceptor/encrypt-on-consume&quot;</text></svg><svg x="1540"><use xlink:href="#a"/><use xlink:href="#b" x="16.996" y="8.659"/><use xlink:href="#1"/><use xlink:href="#2" y="4.342"/><use xlink:href="#3" y="6.513"/><text x="4.008" y="10.354" class="f">--header</text><text x="13.026" y="10.354" class="f">&apos;Con</text></svg><svg x="1680"><use xlink:href="#a"/><use xlink:href="#b" x="36.996" y="8.659"/><use xlink:href="#1"/><use xlink:href="#2" y="4.342"/><use xlink:href="#3" y="6.513"/><text x="4.008" y="10.354" class="f">--header</text><text x="13.026" y="10.354" class="f">&apos;Content-Type:</text><text x="28.056" y="10.354" class="f">applicati</text></svg><svg x="1820"><use xlink:href="#a"/><use xlink:href="#b" x="8.996" y="10.83"/><use xlink:href="#1"/><use xlink:href="#2" y="4.342"/><use xlink:href="#3" y="6.513"/><use xlink:href="#4" y="8.684"/><text x="4.008" y="12.525" class="f">--use</text></svg><svg x="1960"><use xlink:href="#a"/><use xlink:href="#b" x="28.996" y="10.83"/><use xlink:href="#1"/><use xlink:href="#2" y="4.342"/><use xlink:href="#3" y="6.513"/><use xlink:href="#4" y="8.684"/><text x="4.008" y="12.525" class="f">--user</text><text x="11.022" y="12.525" class="f">&apos;admin:conduktor&apos;</text></svg><svg x="2100"><use xlink:href="#a"/><use xlink:href="#b" x="2.996" y="15.172"/><use xlink:href="#1"/><use xlink:href="#2" y="4.342"/><use xlink:href="#3" y="6.513"/><use xlink:href="#4" y="8.684"/><use xlink:href="#5" y="10.855"/><use xlink:href="#6" y="13.026"/></svg><svg x="2240"><use xlink:href="#a"/><use xlink:href="#b" x="22.996" y="15.172"/><use xlink:href="#1"/><use xlink:href="#2" y="4.342"/><use xlink:href="#3" y="6.513"/><use xlink:href="#4" y="8.684"/><use xlink:href="#5" y="10.855"/><use xlink:href="#6" y="13.026"/><text x="4.008" y="16.867" class="f">--data</text><text x="11.022" y="16.867" class="f">@step-09-enc</text></svg><svg x="2380"><use xlink:href="#a"/><use xlink:href="#b" x="42.996" y="15.172"/><use xlink:href="#1"/><use xlink:href="#2" y="4.342"/><use xlink:href="#3" y="6.513"/><use xlink:href="#4" y="8.684"/><use xlink:href="#5" y="10.855"/><use xlink:href="#6" y="13.026"/><text x="4.008" y="16.867" class="f">--data</text><text x="11.022" y="16.867" class="f">@step-09-encrypt-on-consume.json</text></svg><svg x="2520"><use xlink:href="#a"/><use xlink:href="#b" x="-.004" y="17.343"/><use xlink:href="#1"/><use xlink:href="#2" y="4.342"/><use xlink:href="#3" y="6.513"/><use xlink:href="#4" y="8.684"/><use xlink:href="#5" y="10.855"/><use xlink:href="#6" y="13.026"/><use xlink:href="#7" y="15.197"/></svg><svg x="2660"><use xlink:href="#a"/><use xlink:href="#b" x="-.004" y="19.514"/><use xlink:href="#1"/><use xlink:href="#2" y="4.342"/><use xlink:href="#3" y="6.513"/><use xlink:href="#4" y="8.684"/><use xlink:href="#5" y="10.855"/><use xlink:href="#6" y="13.026"/><use xlink:href="#7" y="15.197"/></svg><svg x="2800"><use xlink:href="#a"/><use xlink:href="#b" x="-.004" y="43.395"/><use xlink:href="#4"/><use xlink:href="#5" y="2.171"/><use xlink:href="#6" y="4.342"/><use xlink:href="#7" y="6.513"/><use xlink:href="#8" y="10.855"/><text x="2.004" y="14.696" class="h">&quot;pluginClass&quot;</text><text x="15.03" y="14.696" class="g">:</text><text x="17.034" y="14.696" class="i">&quot;io.conduktor.gateway.interceptor.FetchEncryptPlugin&quot;</text><text x="70.14" y="14.696" class="g">,</text><text x="2.004" y="16.867" class="h">&quot;priority&quot;</text><text x="12.024" y="16.867" class="g">:</text><text x="14.028" y="16.867" style="white-space:pre" fill="#b9c0cb">100</text><text x="17.034" y="16.867" class="g">,</text><text x="2.004" y="19.038" class="h">&quot;config&quot;</text><text x="10.02" y="19.038" class="g">:</text><text x="12.024" y="19.038" class="g">{</text><use xlink:href="#9" y="19.539"/><use xlink:href="#10" y="21.71"/><use xlink:href="#11" y="23.881"/><use xlink:href="#12" y="26.052"/><use xlink:href="#13" y="28.223"/><use xlink:href="#14" y="30.394"/><use xlink:href="#15" y="32.565"/><use xlink:href="#16" y="34.736"/><use xlink:href="#17" y="36.907"/><use xlink:href="#10" y="39.078"/><use xlink:href="#18" y="41.249"/></svg><svg x="2940"><use xlink:href="#a"/><use xlink:href="#b" x="-.004" y="43.395"/><use xlink:href="#9"/><use xlink:href="#10" y="2.171"/><use xlink:href="#11" y="4.342"/><use xlink:href="#12" y="6.513"/><use xlink:href="#13" y="8.684"/><use xlink:href="#14" y="10.855"/><use xlink:href="#15" y="13.026"/><use xlink:href="#16" y="15.197"/><use xlink:href="#17" y="17.368"/><use xlink:href="#10" y="19.539"/><use xlink:href="#18" y="21.71"/><use xlink:href="#19" y="23.881"/><use xlink:href="#13" y="26.052"/><use xlink:href="#14" y="28.223"/><use xlink:href="#15" y="30.394"/><use xlink:href="#16" y="32.565"/><use xlink:href="#20" y="34.736"/><use xlink:href="#21" y="36.907"/><use xlink:href="#22" y="39.078"/><use xlink:href="#23" y="41.249"/></svg><svg x="3080"><use xlink:href="#a"/><use xlink:href="#b" x="-.004" y="43.395"/><use xlink:href="#12"/><use xlink:href="#13" y="2.171"/><use xlink:href="#14" y="4.342"/><use xlink:href="#15" y="6.513"/><use xlink:href="#16" y="8.684"/><use xlink:href="#17" y="10.855"/><use xlink:href="#10" y="13.026"/><use xlink:href="#18" y="15.197"/><use xlink:href="#19" y="17.368"/><use xlink:href="#13" y="19.539"/><use xlink:href="#14" y="21.71"/><use xlink:href="#15" y="23.881"/><use xlink:href="#16" y="26.052"/><use xlink:href="#20" y="28.223"/><use xlink:href="#21" y="30.394"/><use xlink:href="#22" y="32.565"/><use xlink:href="#23" y="34.736"/><use xlink:href="#8" y="36.907"/><text x="2.004" y="40.748" class="h">&quot;message&quot;</text><text x="11.022" y="40.748" class="g">:</text><text x="13.026" y="40.748" class="i">&quot;encrypt-on-consume</text><text x="33.066" y="40.748" class="i">is</text><text x="36.072" y="40.748" class="i">created&quot;</text><use xlink:href="#23" y="41.249"/></svg></svg></g></g></svg></svg>