<svg xmlns="http://www.w3.org/2000/svg" xmlns:xlink="http://www.w3.org/1999/xlink" width="1440" height="429.07"><rect width="1440" height="429.07" rx="5" ry="5" class="a"/><svg y="0%" x="0%"><circle cx="20" cy="20" r="6" fill="#ff5f58"/><circle cx="40" cy="20" r="6" fill="#ffbd2e"/><circle cx="60" cy="20" r="6" fill="#18c132"/></svg><svg height="369.07" viewBox="0 0 140 36.907" width="1400" x="15" xmlns="http://www.w3.org/2000/svg" xmlns:xlink="http://www.w3.org/1999/xlink" y="50"><style>@keyframes j{0%{transform:translateX(0)}.5%{transform:translateX(-140px)}.7%{transform:translateX(-280px)}6.3%{transform:translateX(-420px)}9.2%{transform:translateX(-560px)}12%{transform:translateX(-700px)}14.9%{transform:translateX(-840px)}17.8%{transform:translateX(-980px)}20.7%{transform:translateX(-1120px)}23.5%{transform:translateX(-1260px)}26.5%{transform:translateX(-1400px)}29.3%{transform:translateX(-1540px)}32.1%{transform:translateX(-1680px)}35%{transform:translateX(-1820px)}38%{transform:translateX(-1960px)}38.3%{transform:translateX(-2100px)}to{transform:translateX(-2240px)}}.a{fill:#282d35}.f{fill:#fff;white-space:pre}.g{fill:#b9bfca;font-weight:700}.g,.l,.m,.n{white-space:pre}.l{fill:#71bef2;font-weight:700}.m,.n{fill:#a8cc8c}.n{fill:#b9bfca}</style><g font-family="Monaco,Consolas,Menlo,'Bitstream Vera Sans Mono','Powerline Symbols',monospace" font-size="1.67"><defs><symbol id="1"><text y="1.67" class="f">kafka-avro-console-consumer</text><text x="29.058" y="1.67" class="f">\</text></symbol><symbol id="2"><text x="4.008" y="1.67" class="f">--bootstrap-server</text><text x="23.046" y="1.67" class="f">localhost:6969</text><text x="38.076" y="1.67" class="f">\</text></symbol><symbol id="3"><text x="4.008" y="1.67" class="f">--consumer.config</text><text x="22.044" y="1.67" class="f">teamA-sa.properties</text><text x="42.084" y="1.67" class="f">\</text></symbol><symbol id="4"><text x="4.008" y="1.67" class="f">--topic</text><text x="12.024" y="1.67" class="f">cars</text><text x="17.034" y="1.67" class="f">\</text></symbol><symbol id="5"><text x="4.008" y="1.67" class="f">--property</text><text x="15.03" y="1.67" class="f">schema.registry.url=http://localhost:8081</text><text x="57.114" y="1.67" class="f">\</text></symbol><symbol id="6"><text x="4.008" y="1.67" class="f">--from-beginning</text><text x="21.042" y="1.67" class="f">\</text></symbol><symbol id="7"><text x="4.008" y="1.67" class="f">--max-messages</text><text x="19.038" y="1.67" class="f">2</text><text x="21.042" y="1.67" class="f">2&gt;&amp;1</text><text x="26.052" y="1.67" class="f">|</text><text x="28.056" y="1.67" class="f">grep</text><text x="33.066" y="1.67" class="f">&quot;{&quot;</text><text x="37.074" y="1.67" class="f">|</text><text x="39.078" y="1.67" class="f">jq</text></symbol><symbol id="8"><text y="1.67" class="g">{</text></symbol><symbol id="9"><text y="1.67" class="g">}</text></symbol><symbol id="a"><path fill="transparent" d="M0 0h140v18H0z"/></symbol><symbol id="b"><path fill="#6f7683" d="M0 0h1.102v2.171H0z"/></symbol></defs><path class="a" d="M0 0h140v36.907H0z"/><g style="animation-duration:3.2391959999999997s;animation-iteration-count:infinite;animation-name:j;animation-timing-function:steps(1,end)"><svg width="2380"><svg><use xlink:href="#a"/><use xlink:href="#b" x="-.004"/></svg><svg x="140"><use xlink:href="#a"/><use xlink:href="#b" x="-.004"/></svg><svg x="280"><use xlink:href="#a"/><use xlink:href="#b" x="19.996"/><text y="1.67" class="f">kafka-avro-console-c</text></svg><svg x="420"><use xlink:href="#a"/><use xlink:href="#b" x="8.996" y="2.146"/><use xlink:href="#1"/><text x="4.008" y="3.841" class="f">--boo</text></svg><svg x="560"><use xlink:href="#a"/><use xlink:href="#b" x="28.996" y="2.146"/><use xlink:href="#1"/><text x="4.008" y="3.841" class="f">--bootstrap-server</text><text x="23.046" y="3.841" class="f">localh</text></svg><svg x="700"><use xlink:href="#a"/><use xlink:href="#b" x="8.996" y="4.317"/><use xlink:href="#1"/><use xlink:href="#2" y="2.171"/><text x="4.008" y="6.012" class="f">--con</text></svg><svg x="840"><use xlink:href="#a"/><use xlink:href="#b" x="28.996" y="4.317"/><use xlink:href="#1"/><use xlink:href="#2" y="2.171"/><text x="4.008" y="6.012" class="f">--consumer.config</text><text x="22.044" y="6.012" class="f">teamA-s</text></svg><svg x="980"><use xlink:href="#a"/><use xlink:href="#b" x="4.996" y="6.488"/><use xlink:href="#1"/><use xlink:href="#2" y="2.171"/><use xlink:href="#3" y="4.342"/><text x="4.008" y="8.183" class="f">-</text></svg><svg x="1120"><use xlink:href="#a"/><use xlink:href="#b" x="5.996" y="8.659"/><use xlink:href="#1"/><use xlink:href="#2" y="2.171"/><use xlink:href="#3" y="4.342"/><use xlink:href="#4" y="6.513"/><text x="4.008" y="10.354" class="f">--</text></svg><svg x="1260"><use xlink:href="#a"/><use xlink:href="#b" x="25.996" y="8.659"/><use xlink:href="#1"/><use xlink:href="#2" y="2.171"/><use xlink:href="#3" y="4.342"/><use xlink:href="#4" y="6.513"/><text x="4.008" y="10.354" class="f">--property</text><text x="15.03" y="10.354" class="f">schema.regi</text></svg><svg x="1400"><use xlink:href="#a"/><use xlink:href="#b" x="45.996" y="8.659"/><use xlink:href="#1"/><use xlink:href="#2" y="2.171"/><use xlink:href="#3" y="4.342"/><use xlink:href="#4" y="6.513"/><text x="4.008" y="10.354" class="f">--property</text><text x="15.03" y="10.354" class="f">schema.registry.url=http://loca</text></svg><svg x="1540"><use xlink:href="#a"/><use xlink:href="#b" x="6.996" y="10.83"/><use xlink:href="#1"/><use xlink:href="#2" y="2.171"/><use xlink:href="#3" y="4.342"/><use xlink:href="#4" y="6.513"/><use xlink:href="#5" y="8.684"/><text x="4.008" y="12.525" class="f">--f</text></svg><svg x="1680"><use xlink:href="#a"/><use xlink:href="#b" x="3.996" y="13.001"/><use xlink:href="#1"/><use xlink:href="#2" y="2.171"/><use xlink:href="#3" y="4.342"/><use xlink:href="#4" y="6.513"/><use xlink:href="#5" y="8.684"/><use xlink:href="#6" y="10.855"/></svg><svg x="1820"><use xlink:href="#a"/><use xlink:href="#b" x="23.996" y="13.001"/><use xlink:href="#1"/><use xlink:href="#2" y="2.171"/><use xlink:href="#3" y="4.342"/><use xlink:href="#4" y="6.513"/><use xlink:href="#5" y="8.684"/><use xlink:href="#6" y="10.855"/><text x="4.008" y="14.696" class="f">--max-messages</text><text x="19.038" y="14.696" class="f">2</text><text x="21.042" y="14.696" class="f">2&gt;&amp;</text></svg><svg x="1960"><use xlink:href="#a"/><use xlink:href="#b" x="40.996" y="13.001"/><use xlink:href="#1"/><use xlink:href="#2" y="2.171"/><use xlink:href="#3" y="4.342"/><use xlink:href="#4" y="6.513"/><use xlink:href="#5" y="8.684"/><use xlink:href="#6" y="10.855"/><use xlink:href="#7" y="13.026"/></svg><svg x="2100"><use xlink:href="#a"/><use xlink:href="#b" x="-.004" y="15.172"/><use xlink:href="#1"/><use xlink:href="#2" y="2.171"/><use xlink:href="#3" y="4.342"/><use xlink:href="#4" y="6.513"/><use xlink:href="#5" y="8.684"/><use xlink:href="#6" y="10.855"/><use xlink:href="#7" y="13.026"/></svg><svg x="2240"><use xlink:href="#a"/><use xlink:href="#b" x="-.004" y="36.882"/><use xlink:href="#1"/><use xlink:href="#2" y="2.171"/><use xlink:href="#3" y="4.342"/><use xlink:href="#4" y="6.513"/><use xlink:href="#5" y="8.684"/><use xlink:href="#6" y="10.855"/><use xlink:href="#7" y="13.026"/><use xlink:href="#8" y="15.197"/><text x="2.004" y="19.038" class="l">&quot;type&quot;</text><text x="8.016" y="19.038" class="g">:</text><text x="10.02" y="19.038" class="m">&quot;Sports&quot;</text><text x="18.036" y="19.038" class="g">,</text><text x="2.004" y="21.209" class="l">&quot;price&quot;</text><text x="9.018" y="21.209" class="g">:</text><text x="11.022" y="21.209" class="n">75</text><text x="13.026" y="21.209" class="g">,</text><text x="2.004" y="23.38" class="l">&quot;color&quot;</text><text x="9.018" y="23.38" class="g">:</text><text x="11.022" y="23.38" class="m">&quot;blue&quot;</text><use xlink:href="#9" y="23.881"/><use xlink:href="#8" y="26.052"/><text x="2.004" y="29.893" class="l">&quot;type&quot;</text><text x="8.016" y="29.893" class="g">:</text><text x="10.02" y="29.893" class="m">&quot;SUV&quot;</text><text x="15.03" y="29.893" class="g">,</text><text x="2.004" y="32.064" class="l">&quot;price&quot;</text><text x="9.018" y="32.064" class="g">:</text><text x="11.022" y="32.064" class="n">55</text><text x="13.026" y="32.064" class="g">,</text><text x="2.004" y="34.235" class="l">&quot;color&quot;</text><text x="9.018" y="34.235" class="g">:</text><text x="11.022" y="34.235" class="m">&quot;red&quot;</text><use xlink:href="#9" y="34.736"/></svg></svg></g></g></svg></svg>