<svg xmlns="http://www.w3.org/2000/svg" xmlns:xlink="http://www.w3.org/1999/xlink" width="1440" height="494.2"><rect width="1440" height="494.2" rx="5" ry="5" class="a"/><svg y="0%" x="0%"><circle cx="20" cy="20" r="6" fill="#ff5f58"/><circle cx="40" cy="20" r="6" fill="#ffbd2e"/><circle cx="60" cy="20" r="6" fill="#18c132"/></svg><svg height="434.2" viewBox="0 0 140 43.42" width="1400" x="15" xmlns="http://www.w3.org/2000/svg" xmlns:xlink="http://www.w3.org/1999/xlink" y="50"><style>@keyframes j{0%{transform:translateX(0)}.1%{transform:translateX(-280px)}2.5%{transform:translateX(-420px)}3.8%{transform:translateX(-560px)}5%{transform:translateX(-700px)}6.2%{transform:translateX(-840px)}7.4%{transform:translateX(-980px)}8.6%{transform:translateX(-1120px)}9.8%{transform:translateX(-1260px)}11.1%{transform:translateX(-1400px)}12.3%{transform:translateX(-1540px)}13.5%{transform:translateX(-1680px)}14.7%{transform:translateX(-1820px)}15.9%{transform:translateX(-1960px)}17.2%{transform:translateX(-2100px)}18.3%{transform:translateX(-2240px)}19.4%{transform:translateX(-2380px)}20.7%{transform:translateX(-2520px)}21.9%{transform:translateX(-2660px)}23.1%{transform:translateX(-2800px)}24.3%{transform:translateX(-2940px)}25.5%{transform:translateX(-3080px)}26.7%{transform:translateX(-3220px)}27.9%{transform:translateX(-3500px)}35.7%{transform:translateX(-3920px)}60.6%{transform:translateX(-4060px)}75%{transform:translateX(-4480px)}to{transform:translateX(-4620px)}}.a{fill:#282d35}.f,.g{fill:#fff;white-space:pre}.g{fill:#b9c0cb}</style><g font-family="Monaco,Consolas,Menlo,'Bitstream Vera Sans Mono','Powerline Symbols',monospace" font-size="1.67"><defs><symbol id="1"><text y="1.67" class="f">schema=&apos;{</text></symbol><symbol id="2"><text x="12.024" y="1.67" class="f">&quot;type&quot;:</text><text x="20.04" y="1.67" class="f">&quot;record&quot;,</text></symbol><symbol id="3"><text x="12.024" y="1.67" class="f">&quot;name&quot;:</text><text x="20.04" y="1.67" class="f">&quot;car&quot;,</text></symbol><symbol id="4"><text x="12.024" y="1.67" class="f">&quot;fields&quot;:</text><text x="22.044" y="1.67" class="f">[</text></symbol><symbol id="5"><text x="14.028" y="1.67" class="f">{&quot;name&quot;:</text><text x="23.046" y="1.67" class="f">&quot;type&quot;,</text><text x="31.062" y="1.67" class="f">&quot;type&quot;:</text><text x="39.078" y="1.67" class="f">&quot;string&quot;},</text></symbol><symbol id="6"><text x="14.028" y="1.67" class="f">{&quot;name&quot;:</text><text x="23.046" y="1.67" class="f">&quot;price&quot;,</text><text x="32.064" y="1.67" class="f">&quot;type&quot;:</text><text x="40.08" y="1.67" class="f">&quot;long&quot;},</text></symbol><symbol id="7"><text x="14.028" y="1.67" class="f">{&quot;name&quot;:</text><text x="23.046" y="1.67" class="f">&quot;color&quot;,</text><text x="32.064" y="1.67" class="f">&quot;type&quot;:</text><text x="40.08" y="1.67" class="f">&quot;string&quot;}</text></symbol><symbol id="8"><text x="12.024" y="1.67" class="f">]</text></symbol><symbol id="9"><text x="10.02" y="1.67" class="f">}&apos;</text></symbol><symbol id="10"><text y="1.67" class="f">echo</text><text x="5.01" y="1.67" class="f">&apos;{&quot;type&quot;:&quot;Sports&quot;,&quot;price&quot;:75,&quot;color&quot;:&quot;blue&quot;}&apos;</text><text x="51.102" y="1.67" class="f">|</text><text x="53.106" y="1.67" class="f">\</text></symbol><symbol id="11"><text x="4.008" y="1.67" class="f">kafka-avro-console-producer</text><text x="33.066" y="1.67" class="f">\</text></symbol><symbol id="12"><text x="8.016" y="1.67" class="f">--bootstrap-server</text><text x="27.054" y="1.67" class="f">localhost:6969</text><text x="42.084" y="1.67" class="f">\</text></symbol><symbol id="13"><text x="8.016" y="1.67" class="f">--producer.config</text><text x="26.052" y="1.67" class="f">teamA-sa.properties</text><text x="46.092" y="1.67" class="f">\</text></symbol><symbol id="14"><text x="8.016" y="1.67" class="f">--topic</text><text x="16.032" y="1.67" class="f">cars</text><text x="21.042" y="1.67" class="f">\</text></symbol><symbol id="15"><text x="8.016" y="1.67" class="f">--property</text><text x="19.038" y="1.67" class="f">schema.registry.url=http://localhost:8081</text><text x="61.122" y="1.67" class="f">\</text></symbol><symbol id="16"><text x="8.016" y="1.67" class="f">--property</text><text x="19.038" y="1.67" class="f">&quot;value.schema=$schema&quot;</text></symbol><symbol id="17"><text y="1.67" class="f">echo</text><text x="5.01" y="1.67" class="f">&apos;{&quot;type&quot;:&quot;SUV&quot;,&quot;price&quot;:55,&quot;color&quot;:&quot;red&quot;}&apos;</text><text x="47.094" y="1.67" class="f">|</text><text x="49.098" y="1.67" class="f">\</text></symbol><symbol id="18"><text x="8.016" y="1.67" class="g">avro.remove.java.properties</text><text x="36.072" y="1.67" class="g">=</text><text x="38.076" y="1.67" class="g">false</text></symbol><symbol id="19"><text x="8.016" y="1.67" class="g">avro.use.logical.type.converters</text><text x="41.082" y="1.67" class="g">=</text><text x="43.086" y="1.67" class="g">false</text></symbol><symbol id="20"><text x="8.016" y="1.67" class="g">basic.auth.credentials.source</text><text x="38.076" y="1.67" class="g">=</text><text x="40.08" y="1.67" class="g">URL</text></symbol><symbol id="21"><text x="8.016" y="1.67" class="g">basic.auth.user.info</text><text x="29.058" y="1.67" class="g">=</text><text x="31.062" y="1.67" class="g">[hidden]</text></symbol><symbol id="22"><text x="8.016" y="1.67" class="g">bearer.auth.cache.expiry.buffer.seconds</text><text x="48.096" y="1.67" class="g">=</text><text x="50.1" y="1.67" class="g">300</text></symbol><symbol id="23"><text x="8.016" y="1.67" class="g">bearer.auth.client.id</text><text x="30.06" y="1.67" class="g">=</text><text x="32.064" y="1.67" class="g">null</text></symbol><symbol id="24"><text x="8.016" y="1.67" class="g">bearer.auth.client.secret</text><text x="34.068" y="1.67" class="g">=</text><text x="36.072" y="1.67" class="g">null</text></symbol><symbol id="25"><text x="8.016" y="1.67" class="g">bearer.auth.credentials.source</text><text x="39.078" y="1.67" class="g">=</text><text x="41.082" y="1.67" class="g">STATIC_TOKEN</text></symbol><symbol id="26"><text x="8.016" y="1.67" class="g">bearer.auth.custom.provider.class</text><text x="42.084" y="1.67" class="g">=</text><text x="44.088" y="1.67" class="g">null</text></symbol><symbol id="27"><text x="8.016" y="1.67" class="g">bearer.auth.identity.pool.id</text><text x="37.074" y="1.67" class="g">=</text><text x="39.078" y="1.67" class="g">null</text></symbol><symbol id="28"><text x="8.016" y="1.67" class="g">bearer.auth.issuer.endpoint.url</text><text x="40.08" y="1.67" class="g">=</text><text x="42.084" y="1.67" class="g">null</text></symbol><symbol id="29"><text x="8.016" y="1.67" class="g">bearer.auth.logical.cluster</text><text x="36.072" y="1.67" class="g">=</text><text x="38.076" y="1.67" class="g">null</text></symbol><symbol id="30"><text x="8.016" y="1.67" class="g">bearer.auth.scope</text><text x="26.052" y="1.67" class="g">=</text><text x="28.056" y="1.67" class="g">null</text></symbol><symbol id="31"><text x="8.016" y="1.67" class="g">bearer.auth.scope.claim.name</text><text x="37.074" y="1.67" class="g">=</text><text x="39.078" y="1.67" class="g">scope</text></symbol><symbol id="32"><text x="8.016" y="1.67" class="g">bearer.auth.sub.claim.name</text><text x="35.07" y="1.67" class="g">=</text><text x="37.074" y="1.67" class="g">sub</text></symbol><symbol id="33"><text x="8.016" y="1.67" class="g">bearer.auth.token</text><text x="26.052" y="1.67" class="g">=</text><text x="28.056" y="1.67" class="g">[hidden]</text></symbol><symbol id="34"><text x="8.016" y="1.67" class="g">context.name.strategy</text><text x="30.06" y="1.67" class="g">=</text><text x="32.064" y="1.67" class="g">class</text><text x="38.076" y="1.67" class="g">io.confluent.kafka.serializers.context.NullContextNameStrategy</text></symbol><symbol id="35"><text x="8.016" y="1.67" class="g">http.connect.timeout.ms</text><text x="32.064" y="1.67" class="g">=</text><text x="34.068" y="1.67" class="g">60000</text></symbol><symbol id="36"><text x="8.016" y="1.67" class="g">http.read.timeout.ms</text><text x="29.058" y="1.67" class="g">=</text><text x="31.062" y="1.67" class="g">60000</text></symbol><symbol id="37"><text x="8.016" y="1.67" class="g">id.compatibility.strict</text><text x="32.064" y="1.67" class="g">=</text><text x="34.068" y="1.67" class="g">true</text></symbol><symbol id="38"><text x="8.016" y="1.67" class="g">key.subject.name.strategy</text><text x="34.068" y="1.67" class="g">=</text><text x="36.072" y="1.67" class="g">class</text><text x="42.084" y="1.67" class="g">io.confluent.kafka.serializers.subject.TopicNameStrateg</text></symbol><symbol id="39"><text x="8.016" y="1.67" class="g">proxy.port</text><text x="19.038" y="1.67" class="g">=</text><text x="21.042" y="1.67" class="g">-1</text></symbol><symbol id="40"><text x="8.016" y="1.67" class="g">rule.actions</text><text x="21.042" y="1.67" class="g">=</text><text x="23.046" y="1.67" class="g">[]</text></symbol><symbol id="41"><text x="8.016" y="1.67" class="g">rule.executors</text><text x="23.046" y="1.67" class="g">=</text><text x="25.05" y="1.67" class="g">[]</text></symbol><symbol id="42"><text x="8.016" y="1.67" class="g">rule.service.loader.enable</text><text x="35.07" y="1.67" class="g">=</text><text x="37.074" y="1.67" class="g">true</text></symbol><symbol id="43"><text x="8.016" y="1.67" class="g">schema.format</text><text x="22.044" y="1.67" class="g">=</text><text x="24.048" y="1.67" class="g">null</text></symbol><symbol id="44"><text x="8.016" y="1.67" class="g">schema.reflection</text><text x="26.052" y="1.67" class="g">=</text><text x="28.056" y="1.67" class="g">false</text></symbol><symbol id="45"><text x="8.016" y="1.67" class="g">schema.registry.basic.auth.user.info</text><text x="45.09" y="1.67" class="g">=</text><text x="47.094" y="1.67" class="g">[hidden]</text></symbol><symbol id="46"><text x="8.016" y="1.67" class="g">schema.registry.ssl.cipher.suites</text><text x="42.084" y="1.67" class="g">=</text><text x="44.088" y="1.67" class="g">null</text></symbol><symbol id="47"><text x="8.016" y="1.67" class="g">schema.registry.ssl.enabled.protocols</text><text x="46.092" y="1.67" class="g">=</text><text x="48.096" y="1.67" class="g">[TLSv1.2,</text><text x="58.116" y="1.67" class="g">TLSv1.3]</text></symbol><symbol id="48"><text x="8.016" y="1.67" class="g">schema.registry.ssl.endpoint.identification.algorithm</text><text x="62.124" y="1.67" class="g">=</text><text x="64.128" y="1.67" class="g">https</text></symbol><symbol id="49"><text x="8.016" y="1.67" class="g">schema.registry.ssl.engine.factory.class</text><text x="49.098" y="1.67" class="g">=</text><text x="51.102" y="1.67" class="g">null</text></symbol><symbol id="50"><text x="8.016" y="1.67" class="g">schema.registry.ssl.key.password</text><text x="41.082" y="1.67" class="g">=</text><text x="43.086" y="1.67" class="g">null</text></symbol><symbol id="51"><text x="8.016" y="1.67" class="g">schema.registry.ssl.keymanager.algorithm</text><text x="49.098" y="1.67" class="g">=</text><text x="51.102" y="1.67" class="g">SunX509</text></symbol><symbol id="52"><text x="8.016" y="1.67" class="g">schema.registry.ssl.keystore.certificate.chain</text><text x="55.11" y="1.67" class="g">=</text><text x="57.114" y="1.67" class="g">null</text></symbol><symbol id="53"><text x="8.016" y="1.67" class="g">schema.registry.ssl.keystore.key</text><text x="41.082" y="1.67" class="g">=</text><text x="43.086" y="1.67" class="g">null</text></symbol><symbol id="54"><text x="8.016" y="1.67" class="g">schema.registry.ssl.keystore.location</text><text x="46.092" y="1.67" class="g">=</text><text x="48.096" y="1.67" class="g">null</text></symbol><symbol id="55"><text x="8.016" y="1.67" class="g">schema.registry.ssl.keystore.password</text><text x="46.092" y="1.67" class="g">=</text><text x="48.096" y="1.67" class="g">null</text></symbol><symbol id="56"><text x="8.016" y="1.67" class="g">schema.registry.ssl.keystore.type</text><text x="42.084" y="1.67" class="g">=</text><text x="44.088" y="1.67" class="g">JKS</text></symbol><symbol id="57"><text x="8.016" y="1.67" class="g">schema.registry.ssl.protocol</text><text x="37.074" y="1.67" class="g">=</text><text x="39.078" y="1.67" class="g">TLSv1.3</text></symbol><symbol id="58"><text x="8.016" y="1.67" class="g">schema.registry.ssl.provider</text><text x="37.074" y="1.67" class="g">=</text><text x="39.078" y="1.67" class="g">null</text></symbol><symbol id="59"><text x="8.016" y="1.67" class="g">schema.registry.ssl.secure.r</text></symbol><symbol id="60"><text x="8.016" y="1.67" class="g">schema.registry.ssl.secure.random.implementation</text><text x="57.114" y="1.67" class="g">=</text><text x="59.118" y="1.67" class="g">null</text></symbol><symbol id="61"><text x="8.016" y="1.67" class="g">schema.registry.ssl.trustmanager.algorithm</text><text x="51.102" y="1.67" class="g">=</text><text x="53.106" y="1.67" class="g">PKIX</text></symbol><symbol id="62"><text x="8.016" y="1.67" class="g">schema.registry.ssl.truststore.certificates</text><text x="52.104" y="1.67" class="g">=</text><text x="54.108" y="1.67" class="g">null</text></symbol><symbol id="63"><text x="8.016" y="1.67" class="g">schema.registry.ssl.truststore.location</text><text x="48.096" y="1.67" class="g">=</text><text x="50.1" y="1.67" class="g">null</text></symbol><symbol id="64"><text x="8.016" y="1.67" class="g">schema.registry.ssl.truststore.password</text><text x="48.096" y="1.67" class="g">=</text><text x="50.1" y="1.67" class="g">null</text></symbol><symbol id="65"><text x="8.016" y="1.67" class="g">schema.registry.ssl.truststore.type</text><text x="44.088" y="1.67" class="g">=</text><text x="46.092" y="1.67" class="g">JKS</text></symbol><symbol id="66"><text x="8.016" y="1.67" class="g">schema.registry.url</text><text x="28.056" y="1.67" class="g">=</text><text x="30.06" y="1.67" class="g">[http://localhost:8081]</text></symbol><symbol id="67"><text x="8.016" y="1.67" class="g">use.latest.version</text><text x="27.054" y="1.67" class="g">=</text><text x="29.058" y="1.67" class="g">false</text></symbol><symbol id="68"><text x="8.016" y="1.67" class="g">use.latest.with.metadata</text><text x="33.066" y="1.67" class="g">=</text><text x="35.07" y="1.67" class="g">null</text></symbol><symbol id="69"><text x="8.016" y="1.67" class="g">use.schema.id</text><text x="22.044" y="1.67" class="g">=</text><text x="24.048" y="1.67" class="g">-1</text></symbol><symbol id="70"><text x="8.016" y="1.67" class="g">value.subject.name.strategy</text><text x="36.072" y="1.67" class="g">=</text><text x="38.076" y="1.67" class="g">class</text><text x="44.088" y="1.67" class="g">io.confluent.kafka.serializers.subject.TopicNameStrategy</text></symbol><symbol id="71"><text x="1.002" y="1.67" class="g">(io.confluent.kafka.serializers.KafkaAvroSerializerConfig:376)</text></symbol><symbol id="72"><text y="1.67" class="g">[2023-09-20</text><text x="12.024" y="1.67" class="g">06:05:57,725]</text><text x="26.052" y="1.67" class="g">ERROR</text><text x="32.064" y="1.67" class="g">Error</text><text x="38.076" y="1.67" class="g">when</text><text x="43.086" y="1.67" class="g">sending</text><text x="51.102" y="1.67" class="g">message</text><text x="59.118" y="1.67" class="g">to</text><text x="62.124" y="1.67" class="g">topic</text><text x="68.136" y="1.67" class="g">cars</text><text x="73.146" y="1.67" class="g">with</text><text x="78.156" y="1.67" class="g">key:</text><text x="83.166" y="1.67" class="g">null,</text><text x="89.178" y="1.67" class="g">value:</text><text x="96.192" y="1.67" class="g">19</text><text x="99.198" y="1.67" class="g">bytes</text><text x="105.21" y="1.67" class="g">with</text><text x="110.22" y="1.67" class="g">error:</text><text x="117.234" y="1.67" class="g">(org.apache.kafka.clien</text></symbol><symbol id="73"><text y="1.67" class="g">ts.producer.internals.ErrorLoggingCallback:52)</text></symbol><symbol id="74"><text y="1.67" class="g">org.apache.kafka.common.errors.TimeoutException:</text><text x="49.098" y="1.67" class="g">Topic</text><text x="55.11" y="1.67" class="g">cars</text><text x="60.12" y="1.67" class="g">not</text><text x="64.128" y="1.67" class="g">present</text><text x="72.144" y="1.67" class="g">in</text><text x="75.15" y="1.67" class="g">metadata</text><text x="84.168" y="1.67" class="g">after</text><text x="90.18" y="1.67" class="g">60000</text><text x="96.192" y="1.67" class="g">ms.</text></symbol><symbol id="75"><text y="1.67" class="g">[2023-09-20</text><text x="12.024" y="1.67" class="g">06:13:25,048]</text><text x="26.052" y="1.67" class="g">ERROR</text><text x="32.064" y="1.67" class="g">Error</text><text x="38.076" y="1.67" class="g">when</text><text x="43.086" y="1.67" class="g">sending</text><text x="51.102" y="1.67" class="g">message</text><text x="59.118" y="1.67" class="g">to</text><text x="62.124" y="1.67" class="g">topic</text><text x="68.136" y="1.67" class="g">cars</text><text x="73.146" y="1.67" class="g">with</text><text x="78.156" y="1.67" class="g">key:</text><text x="83.166" y="1.67" class="g">null,</text><text x="89.178" y="1.67" class="g">value:</text><text x="96.192" y="1.67" class="g">14</text><text x="99.198" y="1.67" class="g">bytes</text><text x="105.21" y="1.67" class="g">with</text><text x="110.22" y="1.67" class="g">error:</text><text x="117.234" y="1.67" class="g">(org.apache.kafka.clien</text></symbol><symbol id="a"><path fill="transparent" d="M0 0h140v21H0z"/></symbol><symbol id="b"><path fill="#6f7683" d="M0 0h1.102v2.171H0z"/></symbol></defs><path class="a" d="M0 0h140v43.42H0z"/><g style="animation-duration:8.008138999999993s;animation-iteration-count:infinite;animation-name:j;animation-timing-function:steps(1,end)"><svg width="4760"><svg><use xlink:href="#a"/><use xlink:href="#b" x="-.004"/></svg><svg x="140"><use xlink:href="#a"/><use xlink:href="#b" x="-.004"/></svg><svg x="280"><use xlink:href="#a"/><use xlink:href="#b" x="-.004" y="4.317"/><use xlink:href="#1"/><use xlink:href="#2" y="2.171"/></svg><svg x="420"><use xlink:href="#a"/><use xlink:href="#b" x="12.996" y="6.488"/><use xlink:href="#1"/><use xlink:href="#2" y="2.171"/><use xlink:href="#3" y="4.342"/><text x="12.024" y="8.183" class="f">&quot;</text></svg><svg x="560"><use xlink:href="#a"/><use xlink:href="#b" x="28.996" y="8.659"/><use xlink:href="#1"/><use xlink:href="#2" y="2.171"/><use xlink:href="#3" y="4.342"/><use xlink:href="#4" y="6.513"/><text x="14.028" y="10.354" class="f">{&quot;name&quot;:</text><text x="23.046" y="10.354" class="f">&quot;type&quot;</text></svg><svg x="700"><use xlink:href="#a"/><use xlink:href="#b" x="18.996" y="10.83"/><use xlink:href="#1"/><use xlink:href="#2" y="2.171"/><use xlink:href="#3" y="4.342"/><use xlink:href="#4" y="6.513"/><use xlink:href="#5" y="8.684"/><text x="14.028" y="12.525" class="f">{&quot;nam</text></svg><svg x="840"><use xlink:href="#a"/><use xlink:href="#b" x="9.996" y="13.001"/><use xlink:href="#1"/><use xlink:href="#2" y="2.171"/><use xlink:href="#3" y="4.342"/><use xlink:href="#4" y="6.513"/><use xlink:href="#5" y="8.684"/><use xlink:href="#6" y="10.855"/></svg><svg x="980"><use xlink:href="#a"/><use xlink:href="#b" x="-.004" y="15.172"/><use xlink:href="#1"/><use xlink:href="#2" y="2.171"/><use xlink:href="#3" y="4.342"/><use xlink:href="#4" y="6.513"/><use xlink:href="#5" y="8.684"/><use xlink:href="#6" y="10.855"/><use xlink:href="#7" y="13.026"/></svg><svg x="1120"><use xlink:href="#a"/><use xlink:href="#b" x="12.996" y="19.514"/><use xlink:href="#1"/><use xlink:href="#2" y="2.171"/><use xlink:href="#3" y="4.342"/><use xlink:href="#4" y="6.513"/><use xlink:href="#5" y="8.684"/><use xlink:href="#6" y="10.855"/><use xlink:href="#7" y="13.026"/><use xlink:href="#8" y="15.197"/><use xlink:href="#9" y="17.368"/><text y="21.209" class="f">echo</text><text x="5.01" y="21.209" class="f">&apos;{&quot;type&quot;</text></svg><svg x="1260"><use xlink:href="#a"/><use xlink:href="#b" x="52.996" y="19.514"/><use xlink:href="#1"/><use xlink:href="#2" y="2.171"/><use xlink:href="#3" y="4.342"/><use xlink:href="#4" y="6.513"/><use xlink:href="#5" y="8.684"/><use xlink:href="#6" y="10.855"/><use xlink:href="#7" y="13.026"/><use xlink:href="#8" y="15.197"/><use xlink:href="#9" y="17.368"/><text y="21.209" class="f">echo</text><text x="5.01" y="21.209" class="f">&apos;{&quot;type&quot;:&quot;Sports&quot;,&quot;price&quot;:75,&quot;color&quot;:&quot;blue&quot;}&apos;</text><text x="51.102" y="21.209" class="f">|</text></svg><svg x="1400"><use xlink:href="#a"/><use xlink:href="#b" x="2.996" y="23.856"/><use xlink:href="#1"/><use xlink:href="#2" y="2.171"/><use xlink:href="#3" y="4.342"/><use xlink:href="#4" y="6.513"/><use xlink:href="#5" y="8.684"/><use xlink:href="#6" y="10.855"/><use xlink:href="#7" y="13.026"/><use xlink:href="#8" y="15.197"/><use xlink:href="#9" y="17.368"/><use xlink:href="#10" y="19.539"/><use xlink:href="#11" y="21.71"/></svg><svg x="1540"><use xlink:href="#a"/><use xlink:href="#b" x="42.996" y="23.856"/><use xlink:href="#1"/><use xlink:href="#2" y="2.171"/><use xlink:href="#3" y="4.342"/><use xlink:href="#4" y="6.513"/><use xlink:href="#5" y="8.684"/><use xlink:href="#6" y="10.855"/><use xlink:href="#7" y="13.026"/><use xlink:href="#8" y="15.197"/><use xlink:href="#9" y="17.368"/><use xlink:href="#10" y="19.539"/><use xlink:href="#11" y="21.71"/><use xlink:href="#12" y="23.881"/></svg><svg x="1680"><use xlink:href="#a"/><use xlink:href="#b" x="38.996" y="26.027"/><use xlink:href="#1"/><use xlink:href="#2" y="2.171"/><use xlink:href="#3" y="4.342"/><use xlink:href="#4" y="6.513"/><use xlink:href="#5" y="8.684"/><use xlink:href="#6" y="10.855"/><use xlink:href="#7" y="13.026"/><use xlink:href="#8" y="15.197"/><use xlink:href="#9" y="17.368"/><use xlink:href="#10" y="19.539"/><use xlink:href="#11" y="21.71"/><use xlink:href="#12" y="23.881"/><text x="8.016" y="27.722" class="f">--producer.config</text><text x="26.052" y="27.722" class="f">teamA-sa.prop</text></svg><svg x="1820"><use xlink:href="#a"/><use xlink:href="#b" x="7.996" y="30.369"/><use xlink:href="#1"/><use xlink:href="#2" y="2.171"/><use xlink:href="#3" y="4.342"/><use xlink:href="#4" y="6.513"/><use xlink:href="#5" y="8.684"/><use xlink:href="#6" y="10.855"/><use xlink:href="#7" y="13.026"/><use xlink:href="#8" y="15.197"/><use xlink:href="#9" y="17.368"/><use xlink:href="#10" y="19.539"/><use xlink:href="#11" y="21.71"/><use xlink:href="#12" y="23.881"/><use xlink:href="#13" y="26.052"/><use xlink:href="#14" y="28.223"/></svg><svg x="1960"><use xlink:href="#a"/><use xlink:href="#b" x="47.996" y="30.369"/><use xlink:href="#1"/><use xlink:href="#2" y="2.171"/><use xlink:href="#3" y="4.342"/><use xlink:href="#4" y="6.513"/><use xlink:href="#5" y="8.684"/><use xlink:href="#6" y="10.855"/><use xlink:href="#7" y="13.026"/><use xlink:href="#8" y="15.197"/><use xlink:href="#9" y="17.368"/><use xlink:href="#10" y="19.539"/><use xlink:href="#11" y="21.71"/><use xlink:href="#12" y="23.881"/><use xlink:href="#13" y="26.052"/><use xlink:href="#14" y="28.223"/><text x="8.016" y="32.064" class="f">--property</text><text x="19.038" y="32.064" class="f">schema.registry.url=http://lo</text></svg><svg x="2100"><use xlink:href="#a"/><use xlink:href="#b" x="24.996" y="32.54"/><use xlink:href="#1"/><use xlink:href="#2" y="2.171"/><use xlink:href="#3" y="4.342"/><use xlink:href="#4" y="6.513"/><use xlink:href="#5" y="8.684"/><use xlink:href="#6" y="10.855"/><use xlink:href="#7" y="13.026"/><use xlink:href="#8" y="15.197"/><use xlink:href="#9" y="17.368"/><use xlink:href="#10" y="19.539"/><use xlink:href="#11" y="21.71"/><use xlink:href="#12" y="23.881"/><use xlink:href="#13" y="26.052"/><use xlink:href="#14" y="28.223"/><use xlink:href="#15" y="30.394"/><text x="8.016" y="34.235" class="f">--property</text><text x="19.038" y="34.235" class="f">&quot;value</text></svg><svg x="2240"><use xlink:href="#a"/><use xlink:href="#b" x="21.996" y="36.882"/><use xlink:href="#1"/><use xlink:href="#2" y="2.171"/><use xlink:href="#3" y="4.342"/><use xlink:href="#4" y="6.513"/><use xlink:href="#5" y="8.684"/><use xlink:href="#6" y="10.855"/><use xlink:href="#7" y="13.026"/><use xlink:href="#8" y="15.197"/><use xlink:href="#9" y="17.368"/><use xlink:href="#10" y="19.539"/><use xlink:href="#11" y="21.71"/><use xlink:href="#12" y="23.881"/><use xlink:href="#13" y="26.052"/><use xlink:href="#14" y="28.223"/><use xlink:href="#15" y="30.394"/><use xlink:href="#16" y="32.565"/><text y="38.577" class="f">echo</text><text x="5.01" y="38.577" class="f">&apos;{&quot;type&quot;:&quot;SUV&quot;,&quot;p</text></svg><svg x="2380"><use xlink:href="#a"/><use xlink:href="#b" x="10.996" y="39.053"/><use xlink:href="#1"/><use xlink:href="#2" y="2.171"/><use xlink:href="#3" y="4.342"/><use xlink:href="#4" y="6.513"/><use xlink:href="#5" y="8.684"/><use xlink:href="#6" y="10.855"/><use xlink:href="#7" y="13.026"/><use xlink:href="#8" y="15.197"/><use xlink:href="#9" y="17.368"/><use xlink:href="#10" y="19.539"/><use xlink:href="#11" y="21.71"/><use xlink:href="#12" y="23.881"/><use xlink:href="#13" y="26.052"/><use xlink:href="#14" y="28.223"/><use xlink:href="#15" y="30.394"/><use xlink:href="#16" y="32.565"/><use xlink:href="#17" y="36.907"/><text x="4.008" y="40.748" class="f">kafka-a</text></svg><svg x="2520"><use xlink:href="#a"/><use xlink:href="#b" x="15.996" y="41.224"/><use xlink:href="#1"/><use xlink:href="#2" y="2.171"/><use xlink:href="#3" y="4.342"/><use xlink:href="#4" y="6.513"/><use xlink:href="#5" y="8.684"/><use xlink:href="#6" y="10.855"/><use xlink:href="#7" y="13.026"/><use xlink:href="#8" y="15.197"/><use xlink:href="#9" y="17.368"/><use xlink:href="#10" y="19.539"/><use xlink:href="#11" y="21.71"/><use xlink:href="#12" y="23.881"/><use xlink:href="#13" y="26.052"/><use xlink:href="#14" y="28.223"/><use xlink:href="#15" y="30.394"/><use xlink:href="#16" y="32.565"/><use xlink:href="#17" y="36.907"/><use xlink:href="#11" y="39.078"/><text x="8.016" y="42.919" class="f">--bootst</text></svg><svg x="2660"><use xlink:href="#a"/><use xlink:href="#b" x="11.996" y="43.395"/><use xlink:href="#1"/><use xlink:href="#2" y="2.171"/><use xlink:href="#3" y="4.342"/><use xlink:href="#4" y="6.513"/><use xlink:href="#5" y="8.684"/><use xlink:href="#6" y="10.855"/><use xlink:href="#7" y="13.026"/><use xlink:href="#8" y="15.197"/><use xlink:href="#9" y="17.368"/><use xlink:href="#10" y="19.539"/><use xlink:href="#11" y="21.71"/><use xlink:href="#12" y="23.881"/><use xlink:href="#13" y="26.052"/><use xlink:href="#14" y="28.223"/><use xlink:href="#15" y="30.394"/><use xlink:href="#16" y="32.565"/><use xlink:href="#17" y="36.907"/><use xlink:href="#11" y="39.078"/><use xlink:href="#12" y="41.249"/><text x="8.016" y="45.09" class="f">--pr</text></svg><svg x="2800"><use xlink:href="#a"/><use xlink:href="#b" x="3.996" y="43.395"/><use xlink:href="#2"/><use xlink:href="#3" y="2.171"/><use xlink:href="#4" y="4.342"/><use xlink:href="#5" y="6.513"/><use xlink:href="#6" y="8.684"/><use xlink:href="#7" y="10.855"/><use xlink:href="#8" y="13.026"/><use xlink:href="#9" y="15.197"/><use xlink:href="#10" y="17.368"/><use xlink:href="#11" y="19.539"/><use xlink:href="#12" y="21.71"/><use xlink:href="#13" y="23.881"/><use xlink:href="#14" y="26.052"/><use xlink:href="#15" y="28.223"/><use xlink:href="#16" y="30.394"/><use xlink:href="#17" y="34.736"/><use xlink:href="#11" y="36.907"/><use xlink:href="#12" y="39.078"/><use xlink:href="#13" y="41.249"/></svg><svg x="2940"><use xlink:href="#a"/><use xlink:href="#b" x="20.996" y="43.395"/><use xlink:href="#3"/><use xlink:href="#4" y="2.171"/><use xlink:href="#5" y="4.342"/><use xlink:href="#6" y="6.513"/><use xlink:href="#7" y="8.684"/><use xlink:href="#8" y="10.855"/><use xlink:href="#9" y="13.026"/><use xlink:href="#10" y="15.197"/><use xlink:href="#11" y="17.368"/><use xlink:href="#12" y="19.539"/><use xlink:href="#13" y="21.71"/><use xlink:href="#14" y="23.881"/><use xlink:href="#15" y="26.052"/><use xlink:href="#16" y="28.223"/><use xlink:href="#17" y="32.565"/><use xlink:href="#11" y="34.736"/><use xlink:href="#12" y="36.907"/><use xlink:href="#13" y="39.078"/><use xlink:href="#14" y="41.249"/><text x="8.016" y="45.09" class="f">--property</text><text x="19.038" y="45.09" class="f">sc</text></svg><svg x="3080"><use xlink:href="#a"/><use xlink:href="#b" x="60.996" y="43.395"/><use xlink:href="#3"/><use xlink:href="#4" y="2.171"/><use xlink:href="#5" y="4.342"/><use xlink:href="#6" y="6.513"/><use xlink:href="#7" y="8.684"/><use xlink:href="#8" y="10.855"/><use xlink:href="#9" y="13.026"/><use xlink:href="#10" y="15.197"/><use xlink:href="#11" y="17.368"/><use xlink:href="#12" y="19.539"/><use xlink:href="#13" y="21.71"/><use xlink:href="#14" y="23.881"/><use xlink:href="#15" y="26.052"/><use xlink:href="#16" y="28.223"/><use xlink:href="#17" y="32.565"/><use xlink:href="#11" y="34.736"/><use xlink:href="#12" y="36.907"/><use xlink:href="#13" y="39.078"/><use xlink:href="#14" y="41.249"/><text x="8.016" y="45.09" class="f">--property</text><text x="19.038" y="45.09" class="f">schema.registry.url=http://localhost:8081</text></svg><svg x="3220"><use xlink:href="#a"/><use xlink:href="#b" x="37.996" y="43.395"/><use xlink:href="#4"/><use xlink:href="#5" y="2.171"/><use xlink:href="#6" y="4.342"/><use xlink:href="#7" y="6.513"/><use xlink:href="#8" y="8.684"/><use xlink:href="#9" y="10.855"/><use xlink:href="#10" y="13.026"/><use xlink:href="#11" y="15.197"/><use xlink:href="#12" y="17.368"/><use xlink:href="#13" y="19.539"/><use xlink:href="#14" y="21.71"/><use xlink:href="#15" y="23.881"/><use xlink:href="#16" y="26.052"/><use xlink:href="#17" y="30.394"/><use xlink:href="#11" y="32.565"/><use xlink:href="#12" y="34.736"/><use xlink:href="#13" y="36.907"/><use xlink:href="#14" y="39.078"/><use xlink:href="#15" y="41.249"/><text x="8.016" y="45.09" class="f">--property</text><text x="19.038" y="45.09" class="f">&quot;value.schema=$sche</text></svg><svg x="3360"><use xlink:href="#a"/><use xlink:href="#b" x="40.996" y="43.395"/><use xlink:href="#4"/><use xlink:href="#5" y="2.171"/><use xlink:href="#6" y="4.342"/><use xlink:href="#7" y="6.513"/><use xlink:href="#8" y="8.684"/><use xlink:href="#9" y="10.855"/><use xlink:href="#10" y="13.026"/><use xlink:href="#11" y="15.197"/><use xlink:href="#12" y="17.368"/><use xlink:href="#13" y="19.539"/><use xlink:href="#14" y="21.71"/><use xlink:href="#15" y="23.881"/><use xlink:href="#16" y="26.052"/><use xlink:href="#17" y="30.394"/><use xlink:href="#11" y="32.565"/><use xlink:href="#12" y="34.736"/><use xlink:href="#13" y="36.907"/><use xlink:href="#14" y="39.078"/><use xlink:href="#15" y="41.249"/><use xlink:href="#16" y="43.42"/></svg><svg x="3500"><use xlink:href="#a"/><use xlink:href="#b" x="-.004" y="43.395"/><use xlink:href="#5"/><use xlink:href="#6" y="2.171"/><use xlink:href="#7" y="4.342"/><use xlink:href="#8" y="6.513"/><use xlink:href="#9" y="8.684"/><use xlink:href="#10" y="10.855"/><use xlink:href="#11" y="13.026"/><use xlink:href="#12" y="15.197"/><use xlink:href="#13" y="17.368"/><use xlink:href="#14" y="19.539"/><use xlink:href="#15" y="21.71"/><use xlink:href="#16" y="23.881"/><use xlink:href="#17" y="28.223"/><use xlink:href="#11" y="30.394"/><use xlink:href="#12" y="32.565"/><use xlink:href="#13" y="34.736"/><use xlink:href="#14" y="36.907"/><use xlink:href="#15" y="39.078"/><use xlink:href="#16" y="41.249"/></svg><svg x="3640"><use xlink:href="#a"/><use xlink:href="#b" x="96.996" y="43.395"/><use xlink:href="#18"/><use xlink:href="#19" y="2.171"/><use xlink:href="#20" y="4.342"/><use xlink:href="#21" y="6.513"/><use xlink:href="#22" y="8.684"/><use xlink:href="#23" y="10.855"/><use xlink:href="#24" y="13.026"/><use xlink:href="#25" y="15.197"/><use xlink:href="#26" y="17.368"/><use xlink:href="#27" y="19.539"/><use xlink:href="#28" y="21.71"/><use xlink:href="#29" y="23.881"/><use xlink:href="#30" y="26.052"/><use xlink:href="#31" y="28.223"/><use xlink:href="#32" y="30.394"/><use xlink:href="#33" y="32.565"/><use xlink:href="#34" y="34.736"/><use xlink:href="#35" y="36.907"/><use xlink:href="#36" y="39.078"/><use xlink:href="#37" y="41.249"/><use xlink:href="#38" y="43.42"/></svg><svg x="3780"><use xlink:href="#a"/><use xlink:href="#b" x="35.996" y="43.395"/><use xlink:href="#39"/><use xlink:href="#40" y="2.171"/><use xlink:href="#41" y="4.342"/><use xlink:href="#42" y="6.513"/><use xlink:href="#43" y="8.684"/><use xlink:href="#44" y="10.855"/><use xlink:href="#45" y="13.026"/><use xlink:href="#46" y="15.197"/><use xlink:href="#47" y="17.368"/><use xlink:href="#48" y="19.539"/><use xlink:href="#49" y="21.71"/><use xlink:href="#50" y="23.881"/><use xlink:href="#51" y="26.052"/><use xlink:href="#52" y="28.223"/><use xlink:href="#53" y="30.394"/><use xlink:href="#54" y="32.565"/><use xlink:href="#55" y="34.736"/><use xlink:href="#56" y="36.907"/><use xlink:href="#57" y="39.078"/><use xlink:href="#58" y="41.249"/><use xlink:href="#59" y="43.42"/></svg><svg x="3920"><use xlink:href="#a"/><use xlink:href="#b" x="-.004" y="43.395"/><use xlink:href="#51"/><use xlink:href="#52" y="2.171"/><use xlink:href="#53" y="4.342"/><use xlink:href="#54" y="6.513"/><use xlink:href="#55" y="8.684"/><use xlink:href="#56" y="10.855"/><use xlink:href="#57" y="13.026"/><use xlink:href="#58" y="15.197"/><use xlink:href="#60" y="17.368"/><use xlink:href="#61" y="19.539"/><use xlink:href="#62" y="21.71"/><use xlink:href="#63" y="23.881"/><use xlink:href="#64" y="26.052"/><use xlink:href="#65" y="28.223"/><use xlink:href="#66" y="30.394"/><use xlink:href="#67" y="32.565"/><use xlink:href="#68" y="34.736"/><use xlink:href="#69" y="36.907"/><use xlink:href="#70" y="39.078"/><use xlink:href="#71" y="41.249"/></svg><svg x="4060"><use xlink:href="#a"/><use xlink:href="#b" x="-.004" y="43.395"/><use xlink:href="#57"/><use xlink:href="#58" y="2.171"/><use xlink:href="#60" y="4.342"/><use xlink:href="#61" y="6.513"/><use xlink:href="#62" y="8.684"/><use xlink:href="#63" y="10.855"/><use xlink:href="#64" y="13.026"/><use xlink:href="#65" y="15.197"/><use xlink:href="#66" y="17.368"/><use xlink:href="#67" y="19.539"/><use xlink:href="#68" y="21.71"/><use xlink:href="#69" y="23.881"/><use xlink:href="#70" y="26.052"/><use xlink:href="#71" y="28.223"/><use xlink:href="#72" y="30.394"/><use xlink:href="#73" y="32.565"/><use xlink:href="#74" y="34.736"/><use xlink:href="#72" y="36.907"/><use xlink:href="#73" y="39.078"/><use xlink:href="#74" y="41.249"/></svg><svg x="4200"><use xlink:href="#a"/><use xlink:href="#b" x="96.996" y="43.395"/><use xlink:href="#18"/><use xlink:href="#19" y="2.171"/><use xlink:href="#20" y="4.342"/><use xlink:href="#21" y="6.513"/><use xlink:href="#22" y="8.684"/><use xlink:href="#23" y="10.855"/><use xlink:href="#24" y="13.026"/><use xlink:href="#25" y="15.197"/><use xlink:href="#26" y="17.368"/><use xlink:href="#27" y="19.539"/><use xlink:href="#28" y="21.71"/><use xlink:href="#29" y="23.881"/><use xlink:href="#30" y="26.052"/><use xlink:href="#31" y="28.223"/><use xlink:href="#32" y="30.394"/><use xlink:href="#33" y="32.565"/><use xlink:href="#34" y="34.736"/><use xlink:href="#35" y="36.907"/><use xlink:href="#36" y="39.078"/><use xlink:href="#37" y="41.249"/><use xlink:href="#38" y="43.42"/></svg><svg x="4340"><use xlink:href="#a"/><use xlink:href="#b" x="35.996" y="43.395"/><use xlink:href="#39"/><use xlink:href="#40" y="2.171"/><use xlink:href="#41" y="4.342"/><use xlink:href="#42" y="6.513"/><use xlink:href="#43" y="8.684"/><use xlink:href="#44" y="10.855"/><use xlink:href="#45" y="13.026"/><use xlink:href="#46" y="15.197"/><use xlink:href="#47" y="17.368"/><use xlink:href="#48" y="19.539"/><use xlink:href="#49" y="21.71"/><use xlink:href="#50" y="23.881"/><use xlink:href="#51" y="26.052"/><use xlink:href="#52" y="28.223"/><use xlink:href="#53" y="30.394"/><use xlink:href="#54" y="32.565"/><use xlink:href="#55" y="34.736"/><use xlink:href="#56" y="36.907"/><use xlink:href="#57" y="39.078"/><use xlink:href="#58" y="41.249"/><use xlink:href="#59" y="43.42"/></svg><svg x="4480"><use xlink:href="#a"/><use xlink:href="#b" x="-.004" y="43.395"/><use xlink:href="#51"/><use xlink:href="#52" y="2.171"/><use xlink:href="#53" y="4.342"/><use xlink:href="#54" y="6.513"/><use xlink:href="#55" y="8.684"/><use xlink:href="#56" y="10.855"/><use xlink:href="#57" y="13.026"/><use xlink:href="#58" y="15.197"/><use xlink:href="#60" y="17.368"/><use xlink:href="#61" y="19.539"/><use xlink:href="#62" y="21.71"/><use xlink:href="#63" y="23.881"/><use xlink:href="#64" y="26.052"/><use xlink:href="#65" y="28.223"/><use xlink:href="#66" y="30.394"/><use xlink:href="#67" y="32.565"/><use xlink:href="#68" y="34.736"/><use xlink:href="#69" y="36.907"/><use xlink:href="#70" y="39.078"/><use xlink:href="#71" y="41.249"/></svg><svg x="4620"><use xlink:href="#a"/><use xlink:href="#b" x="-.004" y="43.395"/><use xlink:href="#57"/><use xlink:href="#58" y="2.171"/><use xlink:href="#60" y="4.342"/><use xlink:href="#61" y="6.513"/><use xlink:href="#62" y="8.684"/><use xlink:href="#63" y="10.855"/><use xlink:href="#64" y="13.026"/><use xlink:href="#65" y="15.197"/><use xlink:href="#66" y="17.368"/><use xlink:href="#67" y="19.539"/><use xlink:href="#68" y="21.71"/><use xlink:href="#69" y="23.881"/><use xlink:href="#70" y="26.052"/><use xlink:href="#71" y="28.223"/><use xlink:href="#75" y="30.394"/><use xlink:href="#73" y="32.565"/><use xlink:href="#74" y="34.736"/><use xlink:href="#75" y="36.907"/><use xlink:href="#73" y="39.078"/><use xlink:href="#74" y="41.249"/></svg></svg></g></g></svg></svg>