<svg xmlns="http://www.w3.org/2000/svg" xmlns:xlink="http://www.w3.org/1999/xlink" width="1440" height="255.39"><rect width="1440" height="255.39" rx="5" ry="5" class="a"/><svg y="0%" x="0%"><circle cx="20" cy="20" r="6" fill="#ff5f58"/><circle cx="40" cy="20" r="6" fill="#ffbd2e"/><circle cx="60" cy="20" r="6" fill="#18c132"/></svg><svg height="195.39" viewBox="0 0 140 19.539" width="1400" x="15" xmlns="http://www.w3.org/2000/svg" xmlns:xlink="http://www.w3.org/1999/xlink" y="50"><style>@keyframes j{0%{transform:translateX(0)}.3%{transform:translateX(-140px)}.4%{transform:translateX(-280px)}3.5%{transform:translateX(-420px)}4.9%{transform:translateX(-560px)}6.3%{transform:translateX(-700px)}7.8%{transform:translateX(-840px)}9.2%{transform:translateX(-980px)}10.7%{transform:translateX(-1120px)}12.2%{transform:translateX(-1260px)}13.6%{transform:translateX(-1400px)}15.1%{transform:translateX(-1540px)}16.7%{transform:translateX(-1680px)}18.1%{transform:translateX(-1820px)}19.7%{transform:translateX(-1960px)}21.2%{transform:translateX(-2100px)}22.7%{transform:translateX(-2380px)}53.4%{transform:translateX(-2800px)}53.5%{transform:translateX(-2940px)}84.2%{transform:translateX(-3220px)}to{transform:translateX(-3780px)}}.a{fill:#282d35}.f,.g{fill:#fff;white-space:pre}.g{fill:#b9c0cb}</style><g font-family="Monaco,Consolas,Menlo,'Bitstream Vera Sans Mono','Powerline Symbols',monospace" font-size="1.67"><defs><symbol id="1"><text y="1.67" class="f">kafka-producer-perf-test</text><text x="25.05" y="1.67" class="f">\</text></symbol><symbol id="2"><text x="2.004" y="1.67" class="f">--producer.config</text><text x="20.04" y="1.67" class="f">teamA-sa.properties</text><text x="40.08" y="1.67" class="f">\</text></symbol><symbol id="3"><text x="2.004" y="1.67" class="f">--record-size</text><text x="16.032" y="1.67" class="f">10</text><text x="19.038" y="1.67" class="f">\</text></symbol><symbol id="4"><text x="2.004" y="1.67" class="f">--throughput</text><text x="15.03" y="1.67" class="f">1</text><text x="17.034" y="1.67" class="f">\</text></symbol><symbol id="5"><text x="2.004" y="1.67" class="f">--num-records</text><text x="16.032" y="1.67" class="f">10</text><text x="19.038" y="1.67" class="f">\</text></symbol><symbol id="6"><text x="2.004" y="1.67" class="f">--topic</text><text x="10.02" y="1.67" class="f">slow-topic</text></symbol><symbol id="7"><text y="1.67" class="g">4</text><text x="2.004" y="1.67" class="g">records</text><text x="10.02" y="1.67" class="g">sent,</text><text x="16.032" y="1.67" class="g">0,8</text><text x="20.04" y="1.67" class="g">records/sec</text><text x="32.064" y="1.67" class="g">(0,00</text><text x="38.076" y="1.67" class="g">MB/sec),</text><text x="47.094" y="1.67" class="g">3103,5</text><text x="54.108" y="1.67" class="g">ms</text><text x="57.114" y="1.67" class="g">avg</text><text x="61.122" y="1.67" class="g">latency,</text><text x="70.14" y="1.67" class="g">3266,0</text><text x="77.154" y="1.67" class="g">ms</text><text x="80.16" y="1.67" class="g">max</text><text x="84.168" y="1.67" class="g">latency.</text></symbol><symbol id="8"><text y="1.67" class="g">5</text><text x="2.004" y="1.67" class="g">records</text><text x="10.02" y="1.67" class="g">sent,</text><text x="16.032" y="1.67" class="g">1,0</text><text x="20.04" y="1.67" class="g">records/sec</text><text x="32.064" y="1.67" class="g">(0,00</text><text x="38.076" y="1.67" class="g">MB/sec),</text><text x="47.094" y="1.67" class="g">3028,0</text><text x="54.108" y="1.67" class="g">ms</text><text x="57.114" y="1.67" class="g">avg</text><text x="61.122" y="1.67" class="g">latency,</text><text x="70.14" y="1.67" class="g">3039,0</text><text x="77.154" y="1.67" class="g">ms</text><text x="80.16" y="1.67" class="g">max</text><text x="84.168" y="1.67" class="g">latency.</text></symbol><symbol id="a"><path fill="transparent" d="M0 0h140v10H0z"/></symbol><symbol id="b"><path fill="#6f7683" d="M0 0h1.102v2.171H0z"/></symbol></defs><path class="a" d="M0 0h140v19.539H0z"/><g style="animation-duration:6.503354s;animation-iteration-count:infinite;animation-name:j;animation-timing-function:steps(1,end)"><svg width="3920"><svg><use xlink:href="#a"/><use xlink:href="#b" x="-.004"/></svg><svg x="140"><use xlink:href="#a"/><use xlink:href="#b" x="-.004"/></svg><svg x="280"><use xlink:href="#a"/><use xlink:href="#b" x="9.996"/><text y="1.67" class="f">kafka-prod</text></svg><svg x="420"><use xlink:href="#a"/><use xlink:href="#b" x="19.996"/><text y="1.67" class="f">kafka-producer-perf-</text></svg><svg x="560"><use xlink:href="#a"/><use xlink:href="#b" x="2.996" y="2.146"/><use xlink:href="#1"/><text x="2.004" y="3.841" class="f">-</text></svg><svg x="700"><use xlink:href="#a"/><use xlink:href="#b" x="12.996" y="2.146"/><use xlink:href="#1"/><text x="2.004" y="3.841" class="f">--producer.</text></svg><svg x="840"><use xlink:href="#a"/><use xlink:href="#b" x="22.996" y="2.146"/><use xlink:href="#1"/><text x="2.004" y="3.841" class="f">--producer.config</text><text x="20.04" y="3.841" class="f">tea</text></svg><svg x="980"><use xlink:href="#a"/><use xlink:href="#b" x="32.996" y="2.146"/><use xlink:href="#1"/><text x="2.004" y="3.841" class="f">--producer.config</text><text x="20.04" y="3.841" class="f">teamA-sa.prop</text></svg><svg x="1120"><use xlink:href="#a"/><use xlink:href="#b" x=".996" y="4.317"/><use xlink:href="#1"/><use xlink:href="#2" y="2.171"/></svg><svg x="1260"><use xlink:href="#a"/><use xlink:href="#b" x="10.996" y="4.317"/><use xlink:href="#1"/><use xlink:href="#2" y="2.171"/><text x="2.004" y="6.012" class="f">--record-</text></svg><svg x="1400"><use xlink:href="#a"/><use xlink:href="#b" x="-.004" y="6.488"/><use xlink:href="#1"/><use xlink:href="#2" y="2.171"/><use xlink:href="#3" y="4.342"/></svg><svg x="1540"><use xlink:href="#a"/><use xlink:href="#b" x="9.996" y="6.488"/><use xlink:href="#1"/><use xlink:href="#2" y="2.171"/><use xlink:href="#3" y="4.342"/><text x="2.004" y="8.183" class="f">--throug</text></svg><svg x="1680"><use xlink:href="#a"/><use xlink:href="#b" x=".996" y="8.659"/><use xlink:href="#1"/><use xlink:href="#2" y="2.171"/><use xlink:href="#3" y="4.342"/><use xlink:href="#4" y="6.513"/></svg><svg x="1820"><use xlink:href="#a"/><use xlink:href="#b" x="10.996" y="8.659"/><use xlink:href="#1"/><use xlink:href="#2" y="2.171"/><use xlink:href="#3" y="4.342"/><use xlink:href="#4" y="6.513"/><text x="2.004" y="10.354" class="f">--num-rec</text></svg><svg x="1960"><use xlink:href="#a"/><use xlink:href="#b" x="-.004" y="10.83"/><use xlink:href="#1"/><use xlink:href="#2" y="2.171"/><use xlink:href="#3" y="4.342"/><use xlink:href="#4" y="6.513"/><use xlink:href="#5" y="8.684"/></svg><svg x="2100"><use xlink:href="#a"/><use xlink:href="#b" x="9.996" y="10.83"/><use xlink:href="#1"/><use xlink:href="#2" y="2.171"/><use xlink:href="#3" y="4.342"/><use xlink:href="#4" y="6.513"/><use xlink:href="#5" y="8.684"/><text x="2.004" y="12.525" class="f">--topic</text></svg><svg x="2240"><use xlink:href="#a"/><use xlink:href="#b" x="19.996" y="10.83"/><use xlink:href="#1"/><use xlink:href="#2" y="2.171"/><use xlink:href="#3" y="4.342"/><use xlink:href="#4" y="6.513"/><use xlink:href="#5" y="8.684"/><use xlink:href="#6" y="10.855"/></svg><svg x="2380"><use xlink:href="#a"/><use xlink:href="#b" x="-.004" y="13.001"/><use xlink:href="#1"/><use xlink:href="#2" y="2.171"/><use xlink:href="#3" y="4.342"/><use xlink:href="#4" y="6.513"/><use xlink:href="#5" y="8.684"/><use xlink:href="#6" y="10.855"/></svg><svg x="2520"><use xlink:href="#a"/><use xlink:href="#b" x="32.996" y="13.001"/><use xlink:href="#1"/><use xlink:href="#2" y="2.171"/><use xlink:href="#3" y="4.342"/><use xlink:href="#4" y="6.513"/><use xlink:href="#5" y="8.684"/><use xlink:href="#6" y="10.855"/><text y="14.696" class="g">4</text><text x="2.004" y="14.696" class="g">records</text><text x="10.02" y="14.696" class="g">sent,</text><text x="16.032" y="14.696" class="g">0,8</text><text x="20.04" y="14.696" class="g">records/sec</text><text x="32.064" y="14.696" class="g">(</text></svg><svg x="2660"><use xlink:href="#a"/><use xlink:href="#b" x="36.996" y="13.001"/><use xlink:href="#1"/><use xlink:href="#2" y="2.171"/><use xlink:href="#3" y="4.342"/><use xlink:href="#4" y="6.513"/><use xlink:href="#5" y="8.684"/><use xlink:href="#6" y="10.855"/><text y="14.696" class="g">4</text><text x="2.004" y="14.696" class="g">records</text><text x="10.02" y="14.696" class="g">sent,</text><text x="16.032" y="14.696" class="g">0,8</text><text x="20.04" y="14.696" class="g">records/sec</text><text x="32.064" y="14.696" class="g">(0,00</text></svg><svg x="2800"><use xlink:href="#a"/><use xlink:href="#b" x="46.996" y="13.001"/><use xlink:href="#1"/><use xlink:href="#2" y="2.171"/><use xlink:href="#3" y="4.342"/><use xlink:href="#4" y="6.513"/><use xlink:href="#5" y="8.684"/><use xlink:href="#6" y="10.855"/><text y="14.696" class="g">4</text><text x="2.004" y="14.696" class="g">records</text><text x="10.02" y="14.696" class="g">sent,</text><text x="16.032" y="14.696" class="g">0,8</text><text x="20.04" y="14.696" class="g">records/sec</text><text x="32.064" y="14.696" class="g">(0,00</text><text x="38.076" y="14.696" class="g">MB/sec),</text></svg><svg x="2940"><use xlink:href="#a"/><use xlink:href="#b" x="-.004" y="15.172"/><use xlink:href="#1"/><use xlink:href="#2" y="2.171"/><use xlink:href="#3" y="4.342"/><use xlink:href="#4" y="6.513"/><use xlink:href="#5" y="8.684"/><use xlink:href="#6" y="10.855"/><use xlink:href="#7" y="13.026"/></svg><svg x="3080"><use xlink:href="#a"/><use xlink:href="#b" x="52.996" y="15.172"/><use xlink:href="#1"/><use xlink:href="#2" y="2.171"/><use xlink:href="#3" y="4.342"/><use xlink:href="#4" y="6.513"/><use xlink:href="#5" y="8.684"/><use xlink:href="#6" y="10.855"/><use xlink:href="#7" y="13.026"/><text y="16.867" class="g">5</text><text x="2.004" y="16.867" class="g">records</text><text x="10.02" y="16.867" class="g">sent,</text><text x="16.032" y="16.867" class="g">1,0</text><text x="20.04" y="16.867" class="g">records/sec</text><text x="32.064" y="16.867" class="g">(0,00</text><text x="38.076" y="16.867" class="g">MB/sec),</text><text x="47.094" y="16.867" class="g">3028,0</text></svg><svg x="3220"><use xlink:href="#a"/><use xlink:href="#b" x="-.004" y="17.343"/><use xlink:href="#1"/><use xlink:href="#2" y="2.171"/><use xlink:href="#3" y="4.342"/><use xlink:href="#4" y="6.513"/><use xlink:href="#5" y="8.684"/><use xlink:href="#6" y="10.855"/><use xlink:href="#7" y="13.026"/><use xlink:href="#8" y="15.197"/></svg><svg x="3360"><use xlink:href="#a"/><use xlink:href="#b" x="38.996" y="17.343"/><use xlink:href="#1"/><use xlink:href="#2" y="2.171"/><use xlink:href="#3" y="4.342"/><use xlink:href="#4" y="6.513"/><use xlink:href="#5" y="8.684"/><use xlink:href="#6" y="10.855"/><use xlink:href="#7" y="13.026"/><use xlink:href="#8" y="15.197"/><text y="19.038" class="g">10</text><text x="3.006" y="19.038" class="g">records</text><text x="11.022" y="19.038" class="g">sent,</text><text x="17.034" y="19.038" class="g">0,886211</text><text x="26.052" y="19.038" class="g">records/sec</text><text x="38.076" y="19.038" class="g">(</text></svg><svg x="3500"><use xlink:href="#a"/><use xlink:href="#b" x="104.996" y="17.343"/><use xlink:href="#1"/><use xlink:href="#2" y="2.171"/><use xlink:href="#3" y="4.342"/><use xlink:href="#4" y="6.513"/><use xlink:href="#5" y="8.684"/><use xlink:href="#6" y="10.855"/><use xlink:href="#7" y="13.026"/><use xlink:href="#8" y="15.197"/><text y="19.038" class="g">10</text><text x="3.006" y="19.038" class="g">records</text><text x="11.022" y="19.038" class="g">sent,</text><text x="17.034" y="19.038" class="g">0,886211</text><text x="26.052" y="19.038" class="g">records/sec</text><text x="38.076" y="19.038" class="g">(0,00</text><text x="44.088" y="19.038" class="g">MB/sec),</text><text x="53.106" y="19.038" class="g">3058,20</text><text x="61.122" y="19.038" class="g">ms</text><text x="64.128" y="19.038" class="g">avg</text><text x="68.136" y="19.038" class="g">latency,</text><text x="77.154" y="19.038" class="g">3266,00</text><text x="85.17" y="19.038" class="g">ms</text><text x="88.176" y="19.038" class="g">max</text><text x="92.184" y="19.038" class="g">latency,</text><text x="101.202" y="19.038" class="g">3031</text></svg><svg x="3640"><use xlink:href="#a"/><use xlink:href="#b" x="114.996" y="17.343"/><use xlink:href="#1"/><use xlink:href="#2" y="2.171"/><use xlink:href="#3" y="4.342"/><use xlink:href="#4" y="6.513"/><use xlink:href="#5" y="8.684"/><use xlink:href="#6" y="10.855"/><use xlink:href="#7" y="13.026"/><use xlink:href="#8" y="15.197"/><text y="19.038" class="g">10</text><text x="3.006" y="19.038" class="g">records</text><text x="11.022" y="19.038" class="g">sent,</text><text x="17.034" y="19.038" class="g">0,886211</text><text x="26.052" y="19.038" class="g">records/sec</text><text x="38.076" y="19.038" class="g">(0,00</text><text x="44.088" y="19.038" class="g">MB/sec),</text><text x="53.106" y="19.038" class="g">3058,20</text><text x="61.122" y="19.038" class="g">ms</text><text x="64.128" y="19.038" class="g">avg</text><text x="68.136" y="19.038" class="g">latency,</text><text x="77.154" y="19.038" class="g">3266,00</text><text x="85.17" y="19.038" class="g">ms</text><text x="88.176" y="19.038" class="g">max</text><text x="92.184" y="19.038" class="g">latency,</text><text x="101.202" y="19.038" class="g">3031</text><text x="106.212" y="19.038" class="g">ms</text><text x="109.218" y="19.038" class="g">50th,</text></svg><svg x="3780"><use xlink:href="#a"/><use xlink:href="#b" x="-.004" y="19.514"/><use xlink:href="#2"/><use xlink:href="#3" y="2.171"/><use xlink:href="#4" y="4.342"/><use xlink:href="#5" y="6.513"/><use xlink:href="#6" y="8.684"/><use xlink:href="#7" y="10.855"/><use xlink:href="#8" y="13.026"/><text y="16.867" class="g">10</text><text x="3.006" y="16.867" class="g">records</text><text x="11.022" y="16.867" class="g">sent,</text><text x="17.034" y="16.867" class="g">0,886211</text><text x="26.052" y="16.867" class="g">records/sec</text><text x="38.076" y="16.867" class="g">(0,00</text><text x="44.088" y="16.867" class="g">MB/sec),</text><text x="53.106" y="16.867" class="g">3058,20</text><text x="61.122" y="16.867" class="g">ms</text><text x="64.128" y="16.867" class="g">avg</text><text x="68.136" y="16.867" class="g">latency,</text><text x="77.154" y="16.867" class="g">3266,00</text><text x="85.17" y="16.867" class="g">ms</text><text x="88.176" y="16.867" class="g">max</text><text x="92.184" y="16.867" class="g">latency,</text><text x="101.202" y="16.867" class="g">3031</text><text x="106.212" y="16.867" class="g">ms</text><text x="109.218" y="16.867" class="g">50th,</text><text x="115.23" y="16.867" class="g">3266</text><text x="120.24" y="16.867" class="g">ms</text><text x="123.246" y="16.867" class="g">95th,</text><text x="129.258" y="16.867" class="g">3266</text><text x="134.268" y="16.867" class="g">ms</text><text x="137.274" y="16.867" class="g">99t</text><text y="19.038" class="g">h,</text><text x="3.006" y="19.038" class="g">3266</text><text x="8.016" y="19.038" class="g">ms</text><text x="11.022" y="19.038" class="g">99.9th.</text></svg></svg></g></g></svg></svg>