<svg xmlns="http://www.w3.org/2000/svg" xmlns:xlink="http://www.w3.org/1999/xlink" width="1440" height="320.52"><rect width="1440" height="320.52" rx="5" ry="5" class="a"/><svg y="0%" x="0%"><circle cx="20" cy="20" r="6" fill="#ff5f58"/><circle cx="40" cy="20" r="6" fill="#ffbd2e"/><circle cx="60" cy="20" r="6" fill="#18c132"/></svg><svg height="260.52" viewBox="0 0 140 26.052" width="1400" x="15" xmlns="http://www.w3.org/2000/svg" xmlns:xlink="http://www.w3.org/1999/xlink" y="50"><style>@keyframes j{0%{transform:translateX(0)}.2%{transform:translateX(-280px)}1.7%{transform:translateX(-420px)}2.5%{transform:translateX(-560px)}3.4%{transform:translateX(-700px)}4.2%{transform:translateX(-840px)}5%{transform:translateX(-980px)}5.8%{transform:translateX(-1120px)}6.6%{transform:translateX(-1260px)}7.4%{transform:translateX(-1400px)}8.2%{transform:translateX(-1540px)}9%{transform:translateX(-1680px)}9.8%{transform:translateX(-1820px)}10.6%{transform:translateX(-1960px)}11.3%{transform:translateX(-2100px)}12.1%{transform:translateX(-2240px)}12.9%{transform:translateX(-2380px)}13.8%{transform:translateX(-2520px)}14.6%{transform:translateX(-2660px)}15.3%{transform:translateX(-2800px)}16.1%{transform:translateX(-2940px)}16.9%{transform:translateX(-3080px)}17.7%{transform:translateX(-3220px)}18.5%{transform:translateX(-3500px)}34.8%{transform:translateX(-3920px)}51.1%{transform:translateX(-4060px)}67.4%{transform:translateX(-4200px)}83.7%{transform:translateX(-4340px)}to{transform:translateX(-4620px)}}.a{fill:#282d35}.f,.g{fill:#fff;white-space:pre}.g{fill:#b9c0cb}</style><g font-family="Monaco,Consolas,Menlo,'Bitstream Vera Sans Mono','Powerline Symbols',monospace" font-size="1.67"><defs><symbol id="1"><text y="1.67" class="f">kafka-producer-perf-test</text><text x="25.05" y="1.67" class="f">\</text></symbol><symbol id="2"><text x="4.008" y="1.67" class="f">--topic</text><text x="12.024" y="1.67" class="f">via-gateway</text><text x="24.048" y="1.67" class="f">\</text></symbol><symbol id="3"><text x="4.008" y="1.67" class="f">--throughput</text><text x="17.034" y="1.67" class="f">-1</text><text x="20.04" y="1.67" class="f">\</text></symbol><symbol id="4"><text x="4.008" y="1.67" class="f">--num-records</text><text x="18.036" y="1.67" class="f">2500000</text><text x="26.052" y="1.67" class="f">\</text></symbol><symbol id="5"><text x="4.008" y="1.67" class="f">--record-size</text><text x="18.036" y="1.67" class="f">255</text><text x="22.044" y="1.67" class="f">\</text></symbol><symbol id="6"><text x="4.008" y="1.67" class="f">--producer-props</text><text x="21.042" y="1.67" class="f">bootstrap.servers=localhost:6969</text><text x="54.108" y="1.67" class="f">\</text></symbol><symbol id="7"><text x="4.008" y="1.67" class="f">--producer.config</text><text x="22.044" y="1.67" class="f">teamA-sa.properties</text></symbol><symbol id="8"><text y="1.67" class="g">382288</text><text x="7.014" y="1.67" class="g">records</text><text x="15.03" y="1.67" class="g">sent,</text><text x="21.042" y="1.67" class="g">76396,5</text><text x="29.058" y="1.67" class="g">records/sec</text><text x="41.082" y="1.67" class="g">(18,58</text><text x="48.096" y="1.67" class="g">MB/sec),</text><text x="57.114" y="1.67" class="g">1375,8</text><text x="64.128" y="1.67" class="g">ms</text><text x="67.134" y="1.67" class="g">avg</text><text x="71.142" y="1.67" class="g">latency,</text><text x="80.16" y="1.67" class="g">2213,0</text><text x="87.174" y="1.67" class="g">ms</text><text x="90.18" y="1.67" class="g">max</text><text x="94.188" y="1.67" class="g">latency.</text></symbol><symbol id="9"><text y="1.67" class="g">461343</text><text x="7.014" y="1.67" class="g">records</text><text x="15.03" y="1.67" class="g">sent,</text><text x="21.042" y="1.67" class="g">91355,0</text><text x="29.058" y="1.67" class="g">records/sec</text><text x="41.082" y="1.67" class="g">(22,22</text><text x="48.096" y="1.67" class="g">MB/sec),</text><text x="57.114" y="1.67" class="g">1139,6</text><text x="64.128" y="1.67" class="g">ms</text><text x="67.134" y="1.67" class="g">avg</text><text x="71.142" y="1.67" class="g">latency,</text><text x="80.16" y="1.67" class="g">2109,0</text><text x="87.174" y="1.67" class="g">ms</text><text x="90.18" y="1.67" class="g">max</text><text x="94.188" y="1.67" class="g">latency.</text></symbol><symbol id="10"><text y="1.67" class="g">564616</text><text x="7.014" y="1.67" class="g">records</text><text x="15.03" y="1.67" class="g">sent,</text><text x="21.042" y="1.67" class="g">110470,7</text><text x="30.06" y="1.67" class="g">records/sec</text><text x="42.084" y="1.67" class="g">(26,87</text><text x="49.098" y="1.67" class="g">MB/sec),</text><text x="58.116" y="1.67" class="g">998,6</text><text x="64.128" y="1.67" class="g">ms</text><text x="67.134" y="1.67" class="g">avg</text><text x="71.142" y="1.67" class="g">latency,</text><text x="80.16" y="1.67" class="g">2110,0</text><text x="87.174" y="1.67" class="g">ms</text><text x="90.18" y="1.67" class="g">max</text><text x="94.188" y="1.67" class="g">latency.</text></symbol><symbol id="11"><text y="1.67" class="g">535519</text><text x="7.014" y="1.67" class="g">records</text><text x="15.03" y="1.67" class="g">sent,</text><text x="21.042" y="1.67" class="g">107103,8</text><text x="30.06" y="1.67" class="g">records/sec</text><text x="42.084" y="1.67" class="g">(26,05</text><text x="49.098" y="1.67" class="g">MB/sec),</text><text x="58.116" y="1.67" class="g">1143,1</text><text x="65.13" y="1.67" class="g">ms</text><text x="68.136" y="1.67" class="g">avg</text><text x="72.144" y="1.67" class="g">latency,</text><text x="81.162" y="1.67" class="g">2057,0</text><text x="88.176" y="1.67" class="g">ms</text><text x="91.182" y="1.67" class="g">max</text><text x="95.19" y="1.67" class="g">latency.</text></symbol><symbol id="a"><path fill="transparent" d="M0 0h140v13H0z"/></symbol><symbol id="b"><path fill="#6f7683" d="M0 0h1.102v2.171H0z"/></symbol></defs><path class="a" d="M0 0h140v26.052H0z"/><g style="animation-duration:12.269756s;animation-iteration-count:infinite;animation-name:j;animation-timing-function:steps(1,end)"><svg width="4760"><svg><use xlink:href="#a"/><use xlink:href="#b" x="-.004"/></svg><svg x="140"><use xlink:href="#a"/><use xlink:href="#b" x="-.004"/></svg><svg x="280"><use xlink:href="#a"/><use xlink:href="#b" x="9.996"/><text y="1.67" class="f">kafka-prod</text></svg><svg x="420"><use xlink:href="#a"/><use xlink:href="#b" x="19.996"/><text y="1.67" class="f">kafka-producer-perf-</text></svg><svg x="560"><use xlink:href="#a"/><use xlink:href="#b" x="2.996" y="2.146"/><use xlink:href="#1"/></svg><svg x="700"><use xlink:href="#a"/><use xlink:href="#b" x="12.996" y="2.146"/><use xlink:href="#1"/><text x="4.008" y="3.841" class="f">--topic</text><text x="12.024" y="3.841" class="f">v</text></svg><svg x="840"><use xlink:href="#a"/><use xlink:href="#b" x="22.996" y="2.146"/><use xlink:href="#1"/><text x="4.008" y="3.841" class="f">--topic</text><text x="12.024" y="3.841" class="f">via-gateway</text></svg><svg x="980"><use xlink:href="#a"/><use xlink:href="#b" x="6.996" y="4.317"/><use xlink:href="#1"/><use xlink:href="#2" y="2.171"/><text x="4.008" y="6.012" class="f">--t</text></svg><svg x="1120"><use xlink:href="#a"/><use xlink:href="#b" x="16.996" y="4.317"/><use xlink:href="#1"/><use xlink:href="#2" y="2.171"/><text x="4.008" y="6.012" class="f">--throughput</text></svg><svg x="1260"><use xlink:href="#a"/><use xlink:href="#b" x="4.996" y="6.488"/><use xlink:href="#1"/><use xlink:href="#2" y="2.171"/><use xlink:href="#3" y="4.342"/><text x="4.008" y="8.183" class="f">-</text></svg><svg x="1400"><use xlink:href="#a"/><use xlink:href="#b" x="14.996" y="6.488"/><use xlink:href="#1"/><use xlink:href="#2" y="2.171"/><use xlink:href="#3" y="4.342"/><text x="4.008" y="8.183" class="f">--num-recor</text></svg><svg x="1540"><use xlink:href="#a"/><use xlink:href="#b" x="24.996" y="6.488"/><use xlink:href="#1"/><use xlink:href="#2" y="2.171"/><use xlink:href="#3" y="4.342"/><text x="4.008" y="8.183" class="f">--num-records</text><text x="18.036" y="8.183" class="f">2500000</text></svg><svg x="1680"><use xlink:href="#a"/><use xlink:href="#b" x="6.996" y="8.659"/><use xlink:href="#1"/><use xlink:href="#2" y="2.171"/><use xlink:href="#3" y="4.342"/><use xlink:href="#4" y="6.513"/><text x="4.008" y="10.354" class="f">--r</text></svg><svg x="1820"><use xlink:href="#a"/><use xlink:href="#b" x="16.996" y="8.659"/><use xlink:href="#1"/><use xlink:href="#2" y="2.171"/><use xlink:href="#3" y="4.342"/><use xlink:href="#4" y="6.513"/><text x="4.008" y="10.354" class="f">--record-size</text></svg><svg x="1960"><use xlink:href="#a"/><use xlink:href="#b" x="2.996" y="10.83"/><use xlink:href="#1"/><use xlink:href="#2" y="2.171"/><use xlink:href="#3" y="4.342"/><use xlink:href="#4" y="6.513"/><use xlink:href="#5" y="8.684"/></svg><svg x="2100"><use xlink:href="#a"/><use xlink:href="#b" x="12.996" y="10.83"/><use xlink:href="#1"/><use xlink:href="#2" y="2.171"/><use xlink:href="#3" y="4.342"/><use xlink:href="#4" y="6.513"/><use xlink:href="#5" y="8.684"/><text x="4.008" y="12.525" class="f">--produce</text></svg><svg x="2240"><use xlink:href="#a"/><use xlink:href="#b" x="22.996" y="10.83"/><use xlink:href="#1"/><use xlink:href="#2" y="2.171"/><use xlink:href="#3" y="4.342"/><use xlink:href="#4" y="6.513"/><use xlink:href="#5" y="8.684"/><text x="4.008" y="12.525" class="f">--producer-props</text><text x="21.042" y="12.525" class="f">bo</text></svg><svg x="2380"><use xlink:href="#a"/><use xlink:href="#b" x="32.996" y="10.83"/><use xlink:href="#1"/><use xlink:href="#2" y="2.171"/><use xlink:href="#3" y="4.342"/><use xlink:href="#4" y="6.513"/><use xlink:href="#5" y="8.684"/><text x="4.008" y="12.525" class="f">--producer-props</text><text x="21.042" y="12.525" class="f">bootstrap.se</text></svg><svg x="2520"><use xlink:href="#a"/><use xlink:href="#b" x="42.996" y="10.83"/><use xlink:href="#1"/><use xlink:href="#2" y="2.171"/><use xlink:href="#3" y="4.342"/><use xlink:href="#4" y="6.513"/><use xlink:href="#5" y="8.684"/><text x="4.008" y="12.525" class="f">--producer-props</text><text x="21.042" y="12.525" class="f">bootstrap.servers=loca</text></svg><svg x="2660"><use xlink:href="#a"/><use xlink:href="#b" x="52.996" y="10.83"/><use xlink:href="#1"/><use xlink:href="#2" y="2.171"/><use xlink:href="#3" y="4.342"/><use xlink:href="#4" y="6.513"/><use xlink:href="#5" y="8.684"/><text x="4.008" y="12.525" class="f">--producer-props</text><text x="21.042" y="12.525" class="f">bootstrap.servers=localhost:6969</text></svg><svg x="2800"><use xlink:href="#a"/><use xlink:href="#b" x="6.996" y="13.001"/><use xlink:href="#1"/><use xlink:href="#2" y="2.171"/><use xlink:href="#3" y="4.342"/><use xlink:href="#4" y="6.513"/><use xlink:href="#5" y="8.684"/><use xlink:href="#6" y="10.855"/><text x="4.008" y="14.696" class="f">--p</text></svg><svg x="2940"><use xlink:href="#a"/><use xlink:href="#b" x="16.996" y="13.001"/><use xlink:href="#1"/><use xlink:href="#2" y="2.171"/><use xlink:href="#3" y="4.342"/><use xlink:href="#4" y="6.513"/><use xlink:href="#5" y="8.684"/><use xlink:href="#6" y="10.855"/><text x="4.008" y="14.696" class="f">--producer.co</text></svg><svg x="3080"><use xlink:href="#a"/><use xlink:href="#b" x="26.996" y="13.001"/><use xlink:href="#1"/><use xlink:href="#2" y="2.171"/><use xlink:href="#3" y="4.342"/><use xlink:href="#4" y="6.513"/><use xlink:href="#5" y="8.684"/><use xlink:href="#6" y="10.855"/><text x="4.008" y="14.696" class="f">--producer.config</text><text x="22.044" y="14.696" class="f">teamA</text></svg><svg x="3220"><use xlink:href="#a"/><use xlink:href="#b" x="36.996" y="13.001"/><use xlink:href="#1"/><use xlink:href="#2" y="2.171"/><use xlink:href="#3" y="4.342"/><use xlink:href="#4" y="6.513"/><use xlink:href="#5" y="8.684"/><use xlink:href="#6" y="10.855"/><text x="4.008" y="14.696" class="f">--producer.config</text><text x="22.044" y="14.696" class="f">teamA-sa.proper</text></svg><svg x="3360"><use xlink:href="#a"/><use xlink:href="#b" x="40.996" y="13.001"/><use xlink:href="#1"/><use xlink:href="#2" y="2.171"/><use xlink:href="#3" y="4.342"/><use xlink:href="#4" y="6.513"/><use xlink:href="#5" y="8.684"/><use xlink:href="#6" y="10.855"/><use xlink:href="#7" y="13.026"/></svg><svg x="3500"><use xlink:href="#a"/><use xlink:href="#b" x="-.004" y="15.172"/><use xlink:href="#1"/><use xlink:href="#2" y="2.171"/><use xlink:href="#3" y="4.342"/><use xlink:href="#4" y="6.513"/><use xlink:href="#5" y="8.684"/><use xlink:href="#6" y="10.855"/><use xlink:href="#7" y="13.026"/></svg><svg x="3640"><use xlink:href="#a"/><use xlink:href="#b" x="20.996" y="15.172"/><use xlink:href="#1"/><use xlink:href="#2" y="2.171"/><use xlink:href="#3" y="4.342"/><use xlink:href="#4" y="6.513"/><use xlink:href="#5" y="8.684"/><use xlink:href="#6" y="10.855"/><use xlink:href="#7" y="13.026"/><text y="16.867" class="g">382288</text><text x="7.014" y="16.867" class="g">records</text><text x="15.03" y="16.867" class="g">sent,</text></svg><svg x="3780"><use xlink:href="#a"/><use xlink:href="#b" x="101.996" y="15.172"/><use xlink:href="#1"/><use xlink:href="#2" y="2.171"/><use xlink:href="#3" y="4.342"/><use xlink:href="#4" y="6.513"/><use xlink:href="#5" y="8.684"/><use xlink:href="#6" y="10.855"/><use xlink:href="#7" y="13.026"/><use xlink:href="#8" y="15.197"/></svg><svg x="3920"><use xlink:href="#a"/><use xlink:href="#b" x="-.004" y="17.343"/><use xlink:href="#1"/><use xlink:href="#2" y="2.171"/><use xlink:href="#3" y="4.342"/><use xlink:href="#4" y="6.513"/><use xlink:href="#5" y="8.684"/><use xlink:href="#6" y="10.855"/><use xlink:href="#7" y="13.026"/><use xlink:href="#8" y="15.197"/></svg><svg x="4060"><use xlink:href="#a"/><use xlink:href="#b" x="-.004" y="19.514"/><use xlink:href="#1"/><use xlink:href="#2" y="2.171"/><use xlink:href="#3" y="4.342"/><use xlink:href="#4" y="6.513"/><use xlink:href="#5" y="8.684"/><use xlink:href="#6" y="10.855"/><use xlink:href="#7" y="13.026"/><use xlink:href="#8" y="15.197"/><use xlink:href="#9" y="17.368"/></svg><svg x="4200"><use xlink:href="#a"/><use xlink:href="#b" x="-.004" y="21.685"/><use xlink:href="#1"/><use xlink:href="#2" y="2.171"/><use xlink:href="#3" y="4.342"/><use xlink:href="#4" y="6.513"/><use xlink:href="#5" y="8.684"/><use xlink:href="#6" y="10.855"/><use xlink:href="#7" y="13.026"/><use xlink:href="#8" y="15.197"/><use xlink:href="#9" y="17.368"/><use xlink:href="#10" y="19.539"/></svg><svg x="4340"><use xlink:href="#a"/><use xlink:href="#b" x="-.004" y="23.856"/><use xlink:href="#1"/><use xlink:href="#2" y="2.171"/><use xlink:href="#3" y="4.342"/><use xlink:href="#4" y="6.513"/><use xlink:href="#5" y="8.684"/><use xlink:href="#6" y="10.855"/><use xlink:href="#7" y="13.026"/><use xlink:href="#8" y="15.197"/><use xlink:href="#9" y="17.368"/><use xlink:href="#10" y="19.539"/><use xlink:href="#11" y="21.71"/></svg><svg x="4480"><use xlink:href="#a"/><use xlink:href="#b" x="114.996" y="23.856"/><use xlink:href="#1"/><use xlink:href="#2" y="2.171"/><use xlink:href="#3" y="4.342"/><use xlink:href="#4" y="6.513"/><use xlink:href="#5" y="8.684"/><use xlink:href="#6" y="10.855"/><use xlink:href="#7" y="13.026"/><use xlink:href="#8" y="15.197"/><use xlink:href="#9" y="17.368"/><use xlink:href="#10" y="19.539"/><use xlink:href="#11" y="21.71"/><text y="25.551" class="g">2500000</text><text x="8.016" y="25.551" class="g">records</text><text x="16.032" y="25.551" class="g">sent,</text><text x="22.044" y="25.551" class="g">103054,536461</text><text x="36.072" y="25.551" class="g">records/sec</text><text x="48.096" y="25.551" class="g">(25,06</text><text x="55.11" y="25.551" class="g">MB/sec),</text><text x="64.128" y="25.551" class="g">1082,62</text><text x="72.144" y="25.551" class="g">ms</text><text x="75.15" y="25.551" class="g">avg</text><text x="79.158" y="25.551" class="g">latency,</text><text x="88.176" y="25.551" class="g">2213,00</text><text x="96.192" y="25.551" class="g">ms</text><text x="99.198" y="25.551" class="g">max</text><text x="103.206" y="25.551" class="g">latency,</text><text x="112.224" y="25.551" class="g">967</text></svg><svg x="4620"><use xlink:href="#a"/><use xlink:href="#b" x="-.004" y="26.027"/><use xlink:href="#2"/><use xlink:href="#3" y="2.171"/><use xlink:href="#4" y="4.342"/><use xlink:href="#5" y="6.513"/><use xlink:href="#6" y="8.684"/><use xlink:href="#7" y="10.855"/><use xlink:href="#8" y="13.026"/><use xlink:href="#9" y="15.197"/><use xlink:href="#10" y="17.368"/><use xlink:href="#11" y="19.539"/><text y="23.38" class="g">2500000</text><text x="8.016" y="23.38" class="g">records</text><text x="16.032" y="23.38" class="g">sent,</text><text x="22.044" y="23.38" class="g">103054,536461</text><text x="36.072" y="23.38" class="g">records/sec</text><text x="48.096" y="23.38" class="g">(25,06</text><text x="55.11" y="23.38" class="g">MB/sec),</text><text x="64.128" y="23.38" class="g">1082,62</text><text x="72.144" y="23.38" class="g">ms</text><text x="75.15" y="23.38" class="g">avg</text><text x="79.158" y="23.38" class="g">latency,</text><text x="88.176" y="23.38" class="g">2213,00</text><text x="96.192" y="23.38" class="g">ms</text><text x="99.198" y="23.38" class="g">max</text><text x="103.206" y="23.38" class="g">latency,</text><text x="112.224" y="23.38" class="g">967</text><text x="116.232" y="23.38" class="g">ms</text><text x="119.238" y="23.38" class="g">50th,</text><text x="125.25" y="23.38" class="g">1936</text><text x="130.26" y="23.38" class="g">ms</text><text x="133.266" y="23.38" class="g">95th,</text><text x="139.278" y="23.38" class="g">2</text><text y="25.551" class="g">046</text><text x="4.008" y="25.551" class="g">ms</text><text x="7.014" y="25.551" class="g">99th,</text><text x="13.026" y="25.551" class="g">2131</text><text x="18.036" y="25.551" class="g">ms</text><text x="21.042" y="25.551" class="g">99.9th.</text></svg></svg></g></g></svg></svg>