<svg xmlns="http://www.w3.org/2000/svg" xmlns:xlink="http://www.w3.org/1999/xlink" width="1440" height="255.39"><rect width="1440" height="255.39" rx="5" ry="5" class="a"/><svg y="0%" x="0%"><circle cx="20" cy="20" r="6" fill="#ff5f58"/><circle cx="40" cy="20" r="6" fill="#ffbd2e"/><circle cx="60" cy="20" r="6" fill="#18c132"/></svg><svg height="195.39" viewBox="0 0 140 19.539" width="1400" x="15" xmlns="http://www.w3.org/2000/svg" xmlns:xlink="http://www.w3.org/1999/xlink" y="50"><style>@keyframes j{0%{transform:translateX(0)}2.3%{transform:translateX(-140px)}2.6%{transform:translateX(-280px)}5%{transform:translateX(-420px)}6.2%{transform:translateX(-560px)}7.3%{transform:translateX(-700px)}8.4%{transform:translateX(-840px)}9.5%{transform:translateX(-980px)}10.7%{transform:translateX(-1120px)}11.9%{transform:translateX(-1260px)}13%{transform:translateX(-1400px)}14.2%{transform:translateX(-1540px)}15.4%{transform:translateX(-1680px)}16.5%{transform:translateX(-1820px)}17.6%{transform:translateX(-1960px)}18.8%{transform:translateX(-2100px)}19.9%{transform:translateX(-2240px)}21%{transform:translateX(-2380px)}22.1%{transform:translateX(-2520px)}23.3%{transform:translateX(-2660px)}24.5%{transform:translateX(-2800px)}25.6%{transform:translateX(-2940px)}26.8%{transform:translateX(-3080px)}27.9%{transform:translateX(-3360px)}52%{transform:translateX(-3640px)}76%{transform:translateX(-3920px)}to{transform:translateX(-4200px)}}.a{fill:#282d35}.f,.g{fill:#fff;white-space:pre}.g{fill:#b9c0cb}</style><g font-family="Monaco,Consolas,Menlo,'Bitstream Vera Sans Mono','Powerline Symbols',monospace" font-size="1.67"><defs><symbol id="1"><text y="1.67" class="f">kafka-producer-perf-test</text><text x="25.05" y="1.67" class="f">\</text></symbol><symbol id="2"><text x="4.008" y="1.67" class="f">--topic</text><text x="12.024" y="1.67" class="f">physical-kafka</text><text x="27.054" y="1.67" class="f">\</text></symbol><symbol id="3"><text x="4.008" y="1.67" class="f">--throughput</text><text x="17.034" y="1.67" class="f">-1</text><text x="20.04" y="1.67" class="f">\</text></symbol><symbol id="4"><text x="4.008" y="1.67" class="f">--num-records</text><text x="18.036" y="1.67" class="f">2500000</text><text x="26.052" y="1.67" class="f">\</text></symbol><symbol id="5"><text x="4.008" y="1.67" class="f">--record-size</text><text x="18.036" y="1.67" class="f">255</text><text x="22.044" y="1.67" class="f">\</text></symbol><symbol id="6"><text x="4.008" y="1.67" class="f">--producer-props</text><text x="21.042" y="1.67" class="f">bootstrap.servers=localhost:19092,localhost:19093,localhost:19094</text></symbol><symbol id="7"><text y="1.67" class="g">766069</text><text x="7.014" y="1.67" class="g">records</text><text x="15.03" y="1.67" class="g">sent,</text><text x="21.042" y="1.67" class="g">153213,8</text><text x="30.06" y="1.67" class="g">records/sec</text><text x="42.084" y="1.67" class="g">(37,26</text><text x="49.098" y="1.67" class="g">MB/sec),</text><text x="58.116" y="1.67" class="g">119,6</text><text x="64.128" y="1.67" class="g">ms</text><text x="67.134" y="1.67" class="g">avg</text><text x="71.142" y="1.67" class="g">latency,</text><text x="80.16" y="1.67" class="g">606,0</text><text x="86.172" y="1.67" class="g">ms</text><text x="89.178" y="1.67" class="g">max</text><text x="93.186" y="1.67" class="g">latency.</text></symbol><symbol id="8"><text y="1.67" class="g">882286</text><text x="7.014" y="1.67" class="g">records</text><text x="15.03" y="1.67" class="g">sent,</text><text x="21.042" y="1.67" class="g">176457,2</text><text x="30.06" y="1.67" class="g">records/sec</text><text x="42.084" y="1.67" class="g">(42,91</text><text x="49.098" y="1.67" class="g">MB/sec),</text><text x="58.116" y="1.67" class="g">19,8</text><text x="63.126" y="1.67" class="g">ms</text><text x="66.132" y="1.67" class="g">avg</text><text x="70.14" y="1.67" class="g">latency,</text><text x="79.158" y="1.67" class="g">267,0</text><text x="85.17" y="1.67" class="g">ms</text><text x="88.176" y="1.67" class="g">max</text><text x="92.184" y="1.67" class="g">latency.</text></symbol><symbol id="a"><path fill="transparent" d="M0 0h140v10H0z"/></symbol><symbol id="b"><path fill="#6f7683" d="M0 0h1.102v2.171H0z"/></symbol></defs><path class="a" d="M0 0h140v19.539H0z"/><g style="animation-duration:8.329566s;animation-iteration-count:infinite;animation-name:j;animation-timing-function:steps(1,end)"><svg width="4340"><svg><use xlink:href="#a"/><use xlink:href="#b" x="-.004"/></svg><svg x="140"><use xlink:href="#a"/><use xlink:href="#b" x="-.004"/></svg><svg x="280"><use xlink:href="#a"/><use xlink:href="#b" x="9.996"/><text y="1.67" class="f">kafka-prod</text></svg><svg x="420"><use xlink:href="#a"/><use xlink:href="#b" x="19.996"/><text y="1.67" class="f">kafka-producer-perf-</text></svg><svg x="560"><use xlink:href="#a"/><use xlink:href="#b" x="2.996" y="2.146"/><use xlink:href="#1"/></svg><svg x="700"><use xlink:href="#a"/><use xlink:href="#b" x="12.996" y="2.146"/><use xlink:href="#1"/><text x="4.008" y="3.841" class="f">--topic</text><text x="12.024" y="3.841" class="f">p</text></svg><svg x="840"><use xlink:href="#a"/><use xlink:href="#b" x="22.996" y="2.146"/><use xlink:href="#1"/><text x="4.008" y="3.841" class="f">--topic</text><text x="12.024" y="3.841" class="f">physical-ka</text></svg><svg x="980"><use xlink:href="#a"/><use xlink:href="#b" x="3.996" y="4.317"/><use xlink:href="#1"/><use xlink:href="#2" y="2.171"/></svg><svg x="1120"><use xlink:href="#a"/><use xlink:href="#b" x="13.996" y="4.317"/><use xlink:href="#1"/><use xlink:href="#2" y="2.171"/><text x="4.008" y="6.012" class="f">--throughp</text></svg><svg x="1260"><use xlink:href="#a"/><use xlink:href="#b" x="1.996" y="6.488"/><use xlink:href="#1"/><use xlink:href="#2" y="2.171"/><use xlink:href="#3" y="4.342"/></svg><svg x="1400"><use xlink:href="#a"/><use xlink:href="#b" x="11.996" y="6.488"/><use xlink:href="#1"/><use xlink:href="#2" y="2.171"/><use xlink:href="#3" y="4.342"/><text x="4.008" y="8.183" class="f">--num-re</text></svg><svg x="1540"><use xlink:href="#a"/><use xlink:href="#b" x="21.996" y="6.488"/><use xlink:href="#1"/><use xlink:href="#2" y="2.171"/><use xlink:href="#3" y="4.342"/><text x="4.008" y="8.183" class="f">--num-records</text><text x="18.036" y="8.183" class="f">2500</text></svg><svg x="1680"><use xlink:href="#a"/><use xlink:href="#b" x="3.996" y="8.659"/><use xlink:href="#1"/><use xlink:href="#2" y="2.171"/><use xlink:href="#3" y="4.342"/><use xlink:href="#4" y="6.513"/></svg><svg x="1820"><use xlink:href="#a"/><use xlink:href="#b" x="13.996" y="8.659"/><use xlink:href="#1"/><use xlink:href="#2" y="2.171"/><use xlink:href="#3" y="4.342"/><use xlink:href="#4" y="6.513"/><text x="4.008" y="10.354" class="f">--record-s</text></svg><svg x="1960"><use xlink:href="#a"/><use xlink:href="#b" x="-.004" y="10.83"/><use xlink:href="#1"/><use xlink:href="#2" y="2.171"/><use xlink:href="#3" y="4.342"/><use xlink:href="#4" y="6.513"/><use xlink:href="#5" y="8.684"/></svg><svg x="2100"><use xlink:href="#a"/><use xlink:href="#b" x="9.996" y="10.83"/><use xlink:href="#1"/><use xlink:href="#2" y="2.171"/><use xlink:href="#3" y="4.342"/><use xlink:href="#4" y="6.513"/><use xlink:href="#5" y="8.684"/><text x="4.008" y="12.525" class="f">--prod</text></svg><svg x="2240"><use xlink:href="#a"/><use xlink:href="#b" x="19.996" y="10.83"/><use xlink:href="#1"/><use xlink:href="#2" y="2.171"/><use xlink:href="#3" y="4.342"/><use xlink:href="#4" y="6.513"/><use xlink:href="#5" y="8.684"/><text x="4.008" y="12.525" class="f">--producer-props</text></svg><svg x="2380"><use xlink:href="#a"/><use xlink:href="#b" x="29.996" y="10.83"/><use xlink:href="#1"/><use xlink:href="#2" y="2.171"/><use xlink:href="#3" y="4.342"/><use xlink:href="#4" y="6.513"/><use xlink:href="#5" y="8.684"/><text x="4.008" y="12.525" class="f">--producer-props</text><text x="21.042" y="12.525" class="f">bootstrap</text></svg><svg x="2520"><use xlink:href="#a"/><use xlink:href="#b" x="39.996" y="10.83"/><use xlink:href="#1"/><use xlink:href="#2" y="2.171"/><use xlink:href="#3" y="4.342"/><use xlink:href="#4" y="6.513"/><use xlink:href="#5" y="8.684"/><text x="4.008" y="12.525" class="f">--producer-props</text><text x="21.042" y="12.525" class="f">bootstrap.servers=l</text></svg><svg x="2660"><use xlink:href="#a"/><use xlink:href="#b" x="49.996" y="10.83"/><use xlink:href="#1"/><use xlink:href="#2" y="2.171"/><use xlink:href="#3" y="4.342"/><use xlink:href="#4" y="6.513"/><use xlink:href="#5" y="8.684"/><text x="4.008" y="12.525" class="f">--producer-props</text><text x="21.042" y="12.525" class="f">bootstrap.servers=localhost:1</text></svg><svg x="2800"><use xlink:href="#a"/><use xlink:href="#b" x="59.996" y="10.83"/><use xlink:href="#1"/><use xlink:href="#2" y="2.171"/><use xlink:href="#3" y="4.342"/><use xlink:href="#4" y="6.513"/><use xlink:href="#5" y="8.684"/><text x="4.008" y="12.525" class="f">--producer-props</text><text x="21.042" y="12.525" class="f">bootstrap.servers=localhost:19092,local</text></svg><svg x="2940"><use xlink:href="#a"/><use xlink:href="#b" x="69.996" y="10.83"/><use xlink:href="#1"/><use xlink:href="#2" y="2.171"/><use xlink:href="#3" y="4.342"/><use xlink:href="#4" y="6.513"/><use xlink:href="#5" y="8.684"/><text x="4.008" y="12.525" class="f">--producer-props</text><text x="21.042" y="12.525" class="f">bootstrap.servers=localhost:19092,localhost:19093</text></svg><svg x="3080"><use xlink:href="#a"/><use xlink:href="#b" x="79.996" y="10.83"/><use xlink:href="#1"/><use xlink:href="#2" y="2.171"/><use xlink:href="#3" y="4.342"/><use xlink:href="#4" y="6.513"/><use xlink:href="#5" y="8.684"/><text x="4.008" y="12.525" class="f">--producer-props</text><text x="21.042" y="12.525" class="f">bootstrap.servers=localhost:19092,localhost:19093,localhost</text></svg><svg x="3220"><use xlink:href="#a"/><use xlink:href="#b" x="85.996" y="10.83"/><use xlink:href="#1"/><use xlink:href="#2" y="2.171"/><use xlink:href="#3" y="4.342"/><use xlink:href="#4" y="6.513"/><use xlink:href="#5" y="8.684"/><use xlink:href="#6" y="10.855"/></svg><svg x="3360"><use xlink:href="#a"/><use xlink:href="#b" x="-.004" y="13.001"/><use xlink:href="#1"/><use xlink:href="#2" y="2.171"/><use xlink:href="#3" y="4.342"/><use xlink:href="#4" y="6.513"/><use xlink:href="#5" y="8.684"/><use xlink:href="#6" y="10.855"/></svg><svg x="3500"><use xlink:href="#a"/><use xlink:href="#b" x="20.996" y="13.001"/><use xlink:href="#1"/><use xlink:href="#2" y="2.171"/><use xlink:href="#3" y="4.342"/><use xlink:href="#4" y="6.513"/><use xlink:href="#5" y="8.684"/><use xlink:href="#6" y="10.855"/><text y="14.696" class="g">766069</text><text x="7.014" y="14.696" class="g">records</text><text x="15.03" y="14.696" class="g">sent,</text></svg><svg x="3640"><use xlink:href="#a"/><use xlink:href="#b" x="-.004" y="15.172"/><use xlink:href="#1"/><use xlink:href="#2" y="2.171"/><use xlink:href="#3" y="4.342"/><use xlink:href="#4" y="6.513"/><use xlink:href="#5" y="8.684"/><use xlink:href="#6" y="10.855"/><use xlink:href="#7" y="13.026"/></svg><svg x="3780"><use xlink:href="#a"/><use xlink:href="#b" x="28.996" y="15.172"/><use xlink:href="#1"/><use xlink:href="#2" y="2.171"/><use xlink:href="#3" y="4.342"/><use xlink:href="#4" y="6.513"/><use xlink:href="#5" y="8.684"/><use xlink:href="#6" y="10.855"/><use xlink:href="#7" y="13.026"/><text y="16.867" class="g">882286</text><text x="7.014" y="16.867" class="g">records</text><text x="15.03" y="16.867" class="g">sent,</text><text x="21.042" y="16.867" class="g">176457,2</text></svg><svg x="3920"><use xlink:href="#a"/><use xlink:href="#b" x="-.004" y="17.343"/><use xlink:href="#1"/><use xlink:href="#2" y="2.171"/><use xlink:href="#3" y="4.342"/><use xlink:href="#4" y="6.513"/><use xlink:href="#5" y="8.684"/><use xlink:href="#6" y="10.855"/><use xlink:href="#7" y="13.026"/><use xlink:href="#8" y="15.197"/></svg><svg x="4060"><use xlink:href="#a"/><use xlink:href="#b" x="108.996" y="17.343"/><use xlink:href="#1"/><use xlink:href="#2" y="2.171"/><use xlink:href="#3" y="4.342"/><use xlink:href="#4" y="6.513"/><use xlink:href="#5" y="8.684"/><use xlink:href="#6" y="10.855"/><use xlink:href="#7" y="13.026"/><use xlink:href="#8" y="15.197"/><text y="19.038" class="g">2500000</text><text x="8.016" y="19.038" class="g">records</text><text x="16.032" y="19.038" class="g">sent,</text><text x="22.044" y="19.038" class="g">171667,925565</text><text x="36.072" y="19.038" class="g">records/sec</text><text x="48.096" y="19.038" class="g">(41,75</text><text x="55.11" y="19.038" class="g">MB/sec),</text><text x="64.128" y="19.038" class="g">49,42</text><text x="70.14" y="19.038" class="g">ms</text><text x="73.146" y="19.038" class="g">avg</text><text x="77.154" y="19.038" class="g">latency,</text><text x="86.172" y="19.038" class="g">606,00</text><text x="93.186" y="19.038" class="g">ms</text><text x="96.192" y="19.038" class="g">max</text><text x="100.2" y="19.038" class="g">latency,</text></svg><svg x="4200"><use xlink:href="#a"/><use xlink:href="#b" x="-.004" y="19.514"/><use xlink:href="#2"/><use xlink:href="#3" y="2.171"/><use xlink:href="#4" y="4.342"/><use xlink:href="#5" y="6.513"/><use xlink:href="#6" y="8.684"/><use xlink:href="#7" y="10.855"/><use xlink:href="#8" y="13.026"/><text y="16.867" class="g">2500000</text><text x="8.016" y="16.867" class="g">records</text><text x="16.032" y="16.867" class="g">sent,</text><text x="22.044" y="16.867" class="g">171667,925565</text><text x="36.072" y="16.867" class="g">records/sec</text><text x="48.096" y="16.867" class="g">(41,75</text><text x="55.11" y="16.867" class="g">MB/sec),</text><text x="64.128" y="16.867" class="g">49,42</text><text x="70.14" y="16.867" class="g">ms</text><text x="73.146" y="16.867" class="g">avg</text><text x="77.154" y="16.867" class="g">latency,</text><text x="86.172" y="16.867" class="g">606,00</text><text x="93.186" y="16.867" class="g">ms</text><text x="96.192" y="16.867" class="g">max</text><text x="100.2" y="16.867" class="g">latency,</text><text x="109.218" y="16.867" class="g">12</text><text x="112.224" y="16.867" class="g">ms</text><text x="115.23" y="16.867" class="g">50th,</text><text x="121.242" y="16.867" class="g">262</text><text x="125.25" y="16.867" class="g">ms</text><text x="128.256" y="16.867" class="g">95th,</text><text x="134.268" y="16.867" class="g">414</text><text x="138.276" y="16.867" class="g">ms</text><text x="1.002" y="19.038" class="g">99th,</text><text x="7.014" y="19.038" class="g">590</text><text x="11.022" y="19.038" class="g">ms</text><text x="14.028" y="19.038" class="g">99.9th.</text></svg></svg></g></g></svg></svg>