<svg xmlns="http://www.w3.org/2000/svg" xmlns:xlink="http://www.w3.org/1999/xlink" width="1440" height="233.68"><rect width="1440" height="233.68" rx="5" ry="5" class="a"/><svg y="0%" x="0%"><circle cx="20" cy="20" r="6" fill="#ff5f58"/><circle cx="40" cy="20" r="6" fill="#ffbd2e"/><circle cx="60" cy="20" r="6" fill="#18c132"/></svg><svg height="173.68" viewBox="0 0 140 17.368" width="1400" x="15" xmlns="http://www.w3.org/2000/svg" xmlns:xlink="http://www.w3.org/1999/xlink" y="50"><style>@keyframes i{0%{transform:translateX(0)}.4%{transform:translateX(-140px)}.6%{transform:translateX(-280px)}6%{transform:translateX(-420px)}8.7%{transform:translateX(-560px)}11.5%{transform:translateX(-700px)}14.2%{transform:translateX(-840px)}17.1%{transform:translateX(-980px)}20.3%{transform:translateX(-1120px)}23%{transform:translateX(-1260px)}25.7%{transform:translateX(-1400px)}28.4%{transform:translateX(-1540px)}31.2%{transform:translateX(-1680px)}34%{transform:translateX(-1820px)}36.8%{transform:translateX(-1960px)}39.6%{transform:translateX(-2100px)}42.2%{transform:translateX(-2380px)}to{transform:translateX(-2520px)}}.a{fill:#282d35}.f{fill:#fff}.f,.k,.m{white-space:pre}.k{fill:#b9bfca;font-weight:700}.m{fill:#a8cc8c}</style><g font-family="Monaco,Consolas,Menlo,'Bitstream Vera Sans Mono','Powerline Symbols',monospace" font-size="1.67"><defs><symbol id="1"><text y="1.67" class="f">curl</text><text x="5.01" y="1.67" class="f">\</text></symbol><symbol id="2"><text x="2.004" y="1.67" class="f">--silent</text><text x="11.022" y="1.67" class="f">\</text></symbol><symbol id="3"><text x="2.004" y="1.67" class="f">--request</text><text x="12.024" y="1.67" class="f">POST</text><text x="17.034" y="1.67" class="f">&apos;http://localhost:8889/admin/pclusters/v1/pcluster/main/switch?to=failover&apos;</text><text x="93.186" y="1.67" class="f">\</text></symbol><symbol id="4"><text x="2.004" y="1.67" class="f">--user</text><text x="9.018" y="1.67" class="f">&quot;admin:conduktor&quot;</text><text x="27.054" y="1.67" class="f">|</text><text x="29.058" y="1.67" class="f">jq</text></symbol><symbol id="a"><path fill="transparent" d="M0 0h140v9H0z"/></symbol><symbol id="b"><path fill="#6f7683" d="M0 0h1.102v2.171H0z"/></symbol></defs><path class="a" d="M0 0h140v17.368H0z"/><g style="animation-duration:3.4621120000000003s;animation-iteration-count:infinite;animation-name:i;animation-timing-function:steps(1,end)"><svg width="2660"><svg><use xlink:href="#a"/><use xlink:href="#b" x="-.004"/></svg><svg x="140"><use xlink:href="#a"/><use xlink:href="#b" x="-.004"/></svg><svg x="280"><use xlink:href="#a"/><use xlink:href="#b" x="2.996" y="2.146"/><use xlink:href="#1"/><text x="2.004" y="3.841" class="f">-</text></svg><svg x="420"><use xlink:href="#a"/><use xlink:href="#b" x="-.004" y="4.317"/><use xlink:href="#1"/><use xlink:href="#2" y="2.171"/></svg><svg x="560"><use xlink:href="#a"/><use xlink:href="#b" x="9.996" y="4.317"/><use xlink:href="#1"/><use xlink:href="#2" y="2.171"/><text x="2.004" y="6.012" class="f">--reques</text></svg><svg x="700"><use xlink:href="#a"/><use xlink:href="#b" x="19.996" y="4.317"/><use xlink:href="#1"/><use xlink:href="#2" y="2.171"/><text x="2.004" y="6.012" class="f">--request</text><text x="12.024" y="6.012" class="f">POST</text><text x="17.034" y="6.012" class="f">&apos;ht</text></svg><svg x="840"><use xlink:href="#a"/><use xlink:href="#b" x="29.996" y="4.317"/><use xlink:href="#1"/><use xlink:href="#2" y="2.171"/><text x="2.004" y="6.012" class="f">--request</text><text x="12.024" y="6.012" class="f">POST</text><text x="17.034" y="6.012" class="f">&apos;http://local</text></svg><svg x="980"><use xlink:href="#a"/><use xlink:href="#b" x="39.996" y="4.317"/><use xlink:href="#1"/><use xlink:href="#2" y="2.171"/><text x="2.004" y="6.012" class="f">--request</text><text x="12.024" y="6.012" class="f">POST</text><text x="17.034" y="6.012" class="f">&apos;http://localhost:8889/</text></svg><svg x="1120"><use xlink:href="#a"/><use xlink:href="#b" x="49.996" y="4.317"/><use xlink:href="#1"/><use xlink:href="#2" y="2.171"/><text x="2.004" y="6.012" class="f">--request</text><text x="12.024" y="6.012" class="f">POST</text><text x="17.034" y="6.012" class="f">&apos;http://localhost:8889/admin/pclu</text></svg><svg x="1260"><use xlink:href="#a"/><use xlink:href="#b" x="59.996" y="4.317"/><use xlink:href="#1"/><use xlink:href="#2" y="2.171"/><text x="2.004" y="6.012" class="f">--request</text><text x="12.024" y="6.012" class="f">POST</text><text x="17.034" y="6.012" class="f">&apos;http://localhost:8889/admin/pclusters/v1/p</text></svg><svg x="1400"><use xlink:href="#a"/><use xlink:href="#b" x="69.996" y="4.317"/><use xlink:href="#1"/><use xlink:href="#2" y="2.171"/><text x="2.004" y="6.012" class="f">--request</text><text x="12.024" y="6.012" class="f">POST</text><text x="17.034" y="6.012" class="f">&apos;http://localhost:8889/admin/pclusters/v1/pcluster/ma</text></svg><svg x="1540"><use xlink:href="#a"/><use xlink:href="#b" x="79.996" y="4.317"/><use xlink:href="#1"/><use xlink:href="#2" y="2.171"/><text x="2.004" y="6.012" class="f">--request</text><text x="12.024" y="6.012" class="f">POST</text><text x="17.034" y="6.012" class="f">&apos;http://localhost:8889/admin/pclusters/v1/pcluster/main/switch?</text></svg><svg x="1680"><use xlink:href="#a"/><use xlink:href="#b" x="89.996" y="4.317"/><use xlink:href="#1"/><use xlink:href="#2" y="2.171"/><text x="2.004" y="6.012" class="f">--request</text><text x="12.024" y="6.012" class="f">POST</text><text x="17.034" y="6.012" class="f">&apos;http://localhost:8889/admin/pclusters/v1/pcluster/main/switch?to=failove</text></svg><svg x="1820"><use xlink:href="#a"/><use xlink:href="#b" x="4.996" y="6.488"/><use xlink:href="#1"/><use xlink:href="#2" y="2.171"/><use xlink:href="#3" y="4.342"/><text x="2.004" y="8.183" class="f">--u</text></svg><svg x="1960"><use xlink:href="#a"/><use xlink:href="#b" x="14.996" y="6.488"/><use xlink:href="#1"/><use xlink:href="#2" y="2.171"/><use xlink:href="#3" y="4.342"/><text x="2.004" y="8.183" class="f">--user</text><text x="9.018" y="8.183" class="f">&quot;admin</text></svg><svg x="2100"><use xlink:href="#a"/><use xlink:href="#b" x="24.996" y="6.488"/><use xlink:href="#1"/><use xlink:href="#2" y="2.171"/><use xlink:href="#3" y="4.342"/><text x="2.004" y="8.183" class="f">--user</text><text x="9.018" y="8.183" class="f">&quot;admin:conduktor</text></svg><svg x="2240"><use xlink:href="#a"/><use xlink:href="#b" x="-.004" y="8.659"/><use xlink:href="#1"/><use xlink:href="#2" y="2.171"/><use xlink:href="#3" y="4.342"/><use xlink:href="#4" y="6.513"/></svg><svg x="2380"><use xlink:href="#a"/><use xlink:href="#b" x="-.004" y="10.83"/><use xlink:href="#1"/><use xlink:href="#2" y="2.171"/><use xlink:href="#3" y="4.342"/><use xlink:href="#4" y="6.513"/></svg><svg x="2520"><use xlink:href="#a"/><use xlink:href="#b" x="-.004" y="17.343"/><use xlink:href="#1"/><use xlink:href="#2" y="2.171"/><use xlink:href="#3" y="4.342"/><use xlink:href="#4" y="6.513"/><text y="12.525" class="k">{</text><text x="2.004" y="14.696" style="white-space:pre" fill="#71bef2" font-weight="700">&quot;message&quot;</text><text x="11.022" y="14.696" class="k">:</text><text x="13.026" y="14.696" class="m">&quot;Cluster</text><text x="22.044" y="14.696" class="m">switched&quot;</text><text y="16.867" class="k">}</text></svg></svg></g></g></svg></svg>