<svg xmlns="http://www.w3.org/2000/svg" xmlns:xlink="http://www.w3.org/1999/xlink" width="1440" height="494.2"><rect width="1440" height="494.2" rx="5" ry="5" class="a"/><svg y="0%" x="0%"><circle cx="20" cy="20" r="6" fill="#ff5f58"/><circle cx="40" cy="20" r="6" fill="#ffbd2e"/><circle cx="60" cy="20" r="6" fill="#18c132"/></svg><svg height="434.2" viewBox="0 0 140 43.42" width="1400" x="15" xmlns="http://www.w3.org/2000/svg" xmlns:xlink="http://www.w3.org/1999/xlink" y="50"><style>@keyframes l{0%{transform:translateX(0)}.7%{transform:translateX(-140px)}1%{transform:translateX(-280px)}5.5%{transform:translateX(-420px)}7.7%{transform:translateX(-560px)}10%{transform:translateX(-700px)}12.1%{transform:translateX(-840px)}14.4%{transform:translateX(-980px)}16.5%{transform:translateX(-1120px)}18.7%{transform:translateX(-1260px)}20.9%{transform:translateX(-1400px)}23.1%{transform:translateX(-1540px)}25.3%{transform:translateX(-1680px)}29.6%{transform:translateX(-1820px)}31.8%{transform:translateX(-1960px)}34.1%{transform:translateX(-2100px)}36.2%{transform:translateX(-2240px)}38.4%{transform:translateX(-2380px)}40.7%{transform:translateX(-2520px)}42.9%{transform:translateX(-2660px)}43%{transform:translateX(-2800px)}87.9%{transform:translateX(-3080px)}to{transform:translateX(-3220px)}}.a{fill:#282d35}.f{fill:#fff;white-space:pre}.g{fill:#b9bfca;font-weight:700}.g,.h,.i,.n{white-space:pre}.h{fill:#71bef2;font-weight:700}.i,.n{fill:#a8cc8c}.n{fill:#b9c0cb}</style><g font-family="Monaco,Consolas,Menlo,'Bitstream Vera Sans Mono','Powerline Symbols',monospace" font-size="1.67"><defs><symbol id="1"><text y="1.67" class="f">kafka-console-consumer</text><text x="23.046" y="1.67" class="f">\</text></symbol><symbol id="2"><text x="4.008" y="1.67" class="f">--bootstrap-server</text><text x="23.046" y="1.67" class="f">localhost:39092,localhost:39093,localhost:39094</text><text x="71.142" y="1.67" class="f">\</text></symbol><symbol id="3"><text x="4.008" y="1.67" class="f">--topic</text><text x="12.024" y="1.67" class="f">teamAusers</text><text x="23.046" y="1.67" class="f">\</text></symbol><symbol id="4"><text x="4.008" y="1.67" class="f">--from-beginning</text><text x="21.042" y="1.67" class="f">\</text></symbol><symbol id="5"><text x="4.008" y="1.67" class="f">--max-messages</text><text x="19.038" y="1.67" class="f">3</text><text x="21.042" y="1.67" class="f">|</text><text x="23.046" y="1.67" class="f">jq</text></symbol><symbol id="6"><text y="1.67" class="g">{</text></symbol><symbol id="7"><text x="2.004" y="1.67" class="h">&quot;name&quot;</text><text x="8.016" y="1.67" class="g">:</text><text x="10.02" y="1.67" class="i">&quot;tom&quot;</text><text x="15.03" y="1.67" class="g">,</text></symbol><symbol id="8"><text x="2.004" y="1.67" class="h">&quot;username&quot;</text><text x="12.024" y="1.67" class="g">:</text><text x="14.028" y="1.67" class="i">&quot;tom@conduktor.io&quot;</text><text x="32.064" y="1.67" class="g">,</text></symbol><symbol id="9"><text x="2.004" y="1.67" class="h">&quot;password&quot;</text><text x="12.024" y="1.67" class="g">:</text><text x="14.028" y="1.67" class="i">&quot;motorhead&quot;</text><text x="25.05" y="1.67" class="g">,</text></symbol><symbol id="10"><text x="2.004" y="1.67" class="h">&quot;visa&quot;</text><text x="8.016" y="1.67" class="g">:</text><text x="10.02" y="1.67" class="i">&quot;#abc123&quot;</text><text x="19.038" y="1.67" class="g">,</text></symbol><symbol id="11"><text x="2.004" y="1.67" class="h">&quot;address&quot;</text><text x="11.022" y="1.67" class="g">:</text><text x="13.026" y="1.67" class="i">&quot;Chancery</text><text x="23.046" y="1.67" class="i">lane,</text><text x="29.058" y="1.67" class="i">London&quot;</text></symbol><symbol id="12"><text y="1.67" class="g">}</text></symbol><symbol id="13"><text x="2.004" y="1.67" class="h">&quot;name&quot;</text><text x="8.016" y="1.67" class="g">:</text><text x="10.02" y="1.67" class="i">&quot;florent&quot;</text><text x="19.038" y="1.67" class="g">,</text></symbol><symbol id="14"><text x="2.004" y="1.67" class="h">&quot;username&quot;</text><text x="12.024" y="1.67" class="g">:</text><text x="14.028" y="1.67" class="i">&quot;florent@conduktor.io&quot;</text><text x="36.072" y="1.67" class="g">,</text></symbol><symbol id="15"><text x="2.004" y="1.67" class="h">&quot;password&quot;</text><text x="12.024" y="1.67" class="g">:</text><text x="14.028" y="1.67" class="i">&quot;kitesurf&quot;</text><text x="24.048" y="1.67" class="g">,</text></symbol><symbol id="16"><text x="2.004" y="1.67" class="h">&quot;visa&quot;</text><text x="8.016" y="1.67" class="g">:</text><text x="10.02" y="1.67" class="i">&quot;#888999XZ&quot;</text><text x="21.042" y="1.67" class="g">,</text></symbol><symbol id="17"><text x="2.004" y="1.67" class="h">&quot;address&quot;</text><text x="11.022" y="1.67" class="g">:</text><text x="13.026" y="1.67" class="i">&quot;Dubai,</text><text x="21.042" y="1.67" class="i">UAE&quot;</text></symbol><symbol id="18"><text x="2.004" y="1.67" class="h">&quot;name&quot;</text><text x="8.016" y="1.67" class="g">:</text><text x="10.02" y="1.67" class="i">&quot;thibaut&quot;</text><text x="19.038" y="1.67" class="g">,</text></symbol><symbol id="19"><text x="2.004" y="1.67" class="h">&quot;username&quot;</text><text x="12.024" y="1.67" class="g">:</text><text x="14.028" y="1.67" class="i">&quot;thibaut@conduktor.io&quot;</text><text x="36.072" y="1.67" class="g">,</text></symbol><symbol id="20"><text x="2.004" y="1.67" class="h">&quot;password&quot;</text><text x="12.024" y="1.67" class="g">:</text><text x="14.028" y="1.67" class="i">&quot;youpi&quot;</text><text x="21.042" y="1.67" class="g">,</text></symbol><symbol id="21"><text x="2.004" y="1.67" class="h">&quot;visa&quot;</text><text x="8.016" y="1.67" class="g">:</text><text x="10.02" y="1.67" class="i">&quot;#812SSS&quot;</text><text x="19.038" y="1.67" class="g">,</text></symbol><symbol id="22"><text x="2.004" y="1.67" class="h">&quot;address&quot;</text><text x="11.022" y="1.67" class="g">:</text><text x="13.026" y="1.67" class="i">&quot;Les</text><text x="18.036" y="1.67" class="i">ifs&quot;</text></symbol><symbol id="a"><path fill="transparent" d="M0 0h140v21H0z"/></symbol><symbol id="b"><path fill="#6f7683" d="M0 0h1.102v2.171H0z"/></symbol></defs><path class="a" d="M0 0h140v43.42H0z"/><g style="animation-duration:4.160308s;animation-iteration-count:infinite;animation-name:l;animation-timing-function:steps(1,end)"><svg width="3360"><svg><use xlink:href="#a"/><use xlink:href="#b" x="-.004"/></svg><svg x="140"><use xlink:href="#a"/><use xlink:href="#b" x="-.004"/></svg><svg x="280"><use xlink:href="#a"/><use xlink:href="#b" x="9.996"/><text y="1.67" class="f">kafka-cons</text></svg><svg x="420"><use xlink:href="#a"/><use xlink:href="#b" x="19.996"/><text y="1.67" class="f">kafka-console-consum</text></svg><svg x="560"><use xlink:href="#a"/><use xlink:href="#b" x="4.996" y="2.146"/><use xlink:href="#1"/><text x="4.008" y="3.841" class="f">-</text></svg><svg x="700"><use xlink:href="#a"/><use xlink:href="#b" x="14.996" y="2.146"/><use xlink:href="#1"/><text x="4.008" y="3.841" class="f">--bootstrap</text></svg><svg x="840"><use xlink:href="#a"/><use xlink:href="#b" x="24.996" y="2.146"/><use xlink:href="#1"/><text x="4.008" y="3.841" class="f">--bootstrap-server</text><text x="23.046" y="3.841" class="f">lo</text></svg><svg x="980"><use xlink:href="#a"/><use xlink:href="#b" x="34.996" y="2.146"/><use xlink:href="#1"/><text x="4.008" y="3.841" class="f">--bootstrap-server</text><text x="23.046" y="3.841" class="f">localhost:39</text></svg><svg x="1120"><use xlink:href="#a"/><use xlink:href="#b" x="44.996" y="2.146"/><use xlink:href="#1"/><text x="4.008" y="3.841" class="f">--bootstrap-server</text><text x="23.046" y="3.841" class="f">localhost:39092,localh</text></svg><svg x="1260"><use xlink:href="#a"/><use xlink:href="#b" x="54.996" y="2.146"/><use xlink:href="#1"/><text x="4.008" y="3.841" class="f">--bootstrap-server</text><text x="23.046" y="3.841" class="f">localhost:39092,localhost:39093,</text></svg><svg x="1400"><use xlink:href="#a"/><use xlink:href="#b" x="64.996" y="2.146"/><use xlink:href="#1"/><text x="4.008" y="3.841" class="f">--bootstrap-server</text><text x="23.046" y="3.841" class="f">localhost:39092,localhost:39093,localhost:</text></svg><svg x="1540"><use xlink:href="#a"/><use xlink:href="#b" x="1.996" y="4.317"/><use xlink:href="#1"/><use xlink:href="#2" y="2.171"/></svg><svg x="1680"><use xlink:href="#a"/><use xlink:href="#b" x="11.996" y="4.317"/><use xlink:href="#1"/><use xlink:href="#2" y="2.171"/><text x="4.008" y="6.012" class="f">--topic</text></svg><svg x="1820"><use xlink:href="#a"/><use xlink:href="#b" x="21.996" y="4.317"/><use xlink:href="#1"/><use xlink:href="#2" y="2.171"/><text x="4.008" y="6.012" class="f">--topic</text><text x="12.024" y="6.012" class="f">teamAusers</text></svg><svg x="1960"><use xlink:href="#a"/><use xlink:href="#b" x="6.996" y="6.488"/><use xlink:href="#1"/><use xlink:href="#2" y="2.171"/><use xlink:href="#3" y="4.342"/><text x="4.008" y="8.183" class="f">--f</text></svg><svg x="2100"><use xlink:href="#a"/><use xlink:href="#b" x="16.996" y="6.488"/><use xlink:href="#1"/><use xlink:href="#2" y="2.171"/><use xlink:href="#3" y="4.342"/><text x="4.008" y="8.183" class="f">--from-beginn</text></svg><svg x="2240"><use xlink:href="#a"/><use xlink:href="#b" x="3.996" y="8.659"/><use xlink:href="#1"/><use xlink:href="#2" y="2.171"/><use xlink:href="#3" y="4.342"/><use xlink:href="#4" y="6.513"/></svg><svg x="2380"><use xlink:href="#a"/><use xlink:href="#b" x="13.996" y="8.659"/><use xlink:href="#1"/><use xlink:href="#2" y="2.171"/><use xlink:href="#3" y="4.342"/><use xlink:href="#4" y="6.513"/><text x="4.008" y="10.354" class="f">--max-mess</text></svg><svg x="2520"><use xlink:href="#a"/><use xlink:href="#b" x="23.996" y="8.659"/><use xlink:href="#1"/><use xlink:href="#2" y="2.171"/><use xlink:href="#3" y="4.342"/><use xlink:href="#4" y="6.513"/><text x="4.008" y="10.354" class="f">--max-messages</text><text x="19.038" y="10.354" class="f">3</text><text x="21.042" y="10.354" class="f">|</text><text x="23.046" y="10.354" class="f">j</text></svg><svg x="2660"><use xlink:href="#a"/><use xlink:href="#b" x="-.004" y="10.83"/><use xlink:href="#1"/><use xlink:href="#2" y="2.171"/><use xlink:href="#3" y="4.342"/><use xlink:href="#4" y="6.513"/><use xlink:href="#5" y="8.684"/></svg><svg x="2800"><use xlink:href="#a"/><use xlink:href="#b" x="-.004" y="13.001"/><use xlink:href="#1"/><use xlink:href="#2" y="2.171"/><use xlink:href="#3" y="4.342"/><use xlink:href="#4" y="6.513"/><use xlink:href="#5" y="8.684"/></svg><svg x="2940"><use xlink:href="#a"/><use xlink:href="#b" x="7.996" y="43.395"/><use xlink:href="#5"/><use xlink:href="#6" y="4.342"/><use xlink:href="#7" y="6.513"/><use xlink:href="#8" y="8.684"/><use xlink:href="#9" y="10.855"/><use xlink:href="#10" y="13.026"/><use xlink:href="#11" y="15.197"/><use xlink:href="#12" y="17.368"/><use xlink:href="#6" y="19.539"/><use xlink:href="#13" y="21.71"/><use xlink:href="#14" y="23.881"/><use xlink:href="#15" y="26.052"/><use xlink:href="#16" y="28.223"/><use xlink:href="#17" y="30.394"/><use xlink:href="#12" y="32.565"/><use xlink:href="#6" y="34.736"/><use xlink:href="#18" y="36.907"/><use xlink:href="#19" y="39.078"/><use xlink:href="#20" y="41.249"/><text x="2.004" y="45.09" class="h">&quot;visa&quot;</text></svg><svg x="3080"><use xlink:href="#a"/><use xlink:href="#b" x="-.004" y="43.395"/><use xlink:href="#7"/><use xlink:href="#8" y="2.171"/><use xlink:href="#9" y="4.342"/><use xlink:href="#10" y="6.513"/><use xlink:href="#11" y="8.684"/><use xlink:href="#12" y="10.855"/><use xlink:href="#6" y="13.026"/><use xlink:href="#13" y="15.197"/><use xlink:href="#14" y="17.368"/><use xlink:href="#15" y="19.539"/><use xlink:href="#16" y="21.71"/><use xlink:href="#17" y="23.881"/><use xlink:href="#12" y="26.052"/><use xlink:href="#6" y="28.223"/><use xlink:href="#18" y="30.394"/><use xlink:href="#19" y="32.565"/><use xlink:href="#20" y="34.736"/><use xlink:href="#21" y="36.907"/><use xlink:href="#22" y="39.078"/><use xlink:href="#12" y="41.249"/></svg><svg x="3220"><use xlink:href="#a"/><use xlink:href="#b" x="-.004" y="43.395"/><use xlink:href="#8"/><use xlink:href="#9" y="2.171"/><use xlink:href="#10" y="4.342"/><use xlink:href="#11" y="6.513"/><use xlink:href="#12" y="8.684"/><use xlink:href="#6" y="10.855"/><use xlink:href="#13" y="13.026"/><use xlink:href="#14" y="15.197"/><use xlink:href="#15" y="17.368"/><use xlink:href="#16" y="19.539"/><use xlink:href="#17" y="21.71"/><use xlink:href="#12" y="23.881"/><use xlink:href="#6" y="26.052"/><use xlink:href="#18" y="28.223"/><use xlink:href="#19" y="30.394"/><use xlink:href="#20" y="32.565"/><use xlink:href="#21" y="34.736"/><use xlink:href="#22" y="36.907"/><use xlink:href="#12" y="39.078"/><text y="42.919" class="n">Processed</text><text x="10.02" y="42.919" class="n">a</text><text x="12.024" y="42.919" class="n">total</text><text x="18.036" y="42.919" class="n">of</text><text x="21.042" y="42.919" class="n">3</text><text x="23.046" y="42.919" class="n">messages</text></svg></svg></g></g></svg></svg>