<svg xmlns="http://www.w3.org/2000/svg" xmlns:xlink="http://www.w3.org/1999/xlink" width="1440" height="320.52"><rect width="1440" height="320.52" rx="5" ry="5" class="a"/><svg y="0%" x="0%"><circle cx="20" cy="20" r="6" fill="#ff5f58"/><circle cx="40" cy="20" r="6" fill="#ffbd2e"/><circle cx="60" cy="20" r="6" fill="#18c132"/></svg><svg height="260.52" viewBox="0 0 140 26.052" width="1400" x="15" xmlns="http://www.w3.org/2000/svg" xmlns:xlink="http://www.w3.org/1999/xlink" y="50"><style>@keyframes j{0%{transform:translateX(0)}.2%{transform:translateX(-140px)}.3%{transform:translateX(-280px)}3.9%{transform:translateX(-420px)}5.6%{transform:translateX(-560px)}7.4%{transform:translateX(-700px)}9.2%{transform:translateX(-840px)}11%{transform:translateX(-980px)}12.8%{transform:translateX(-1120px)}14.6%{transform:translateX(-1260px)}16.3%{transform:translateX(-1400px)}18.1%{transform:translateX(-1540px)}19.8%{transform:translateX(-1680px)}21.6%{transform:translateX(-1820px)}23.4%{transform:translateX(-1960px)}25.2%{transform:translateX(-2100px)}27%{transform:translateX(-2240px)}29.1%{transform:translateX(-2380px)}30.8%{transform:translateX(-2520px)}32.6%{transform:translateX(-2660px)}36.1%{transform:translateX(-2800px)}37.9%{transform:translateX(-2940px)}39.7%{transform:translateX(-3080px)}39.8%{transform:translateX(-3220px)}60.3%{transform:translateX(-3780px)}98.2%{transform:translateX(-3920px)}to{transform:translateX(-4060px)}}.a{fill:#282d35}.f,.g{fill:#fff;white-space:pre}.g{fill:#b9c0cb}</style><g font-family="Monaco,Consolas,Menlo,'Bitstream Vera Sans Mono','Powerline Symbols',monospace" font-size="1.67"><defs><symbol id="1"><text y="1.67" class="f">kafka-console-consumer</text><text x="23.046" y="1.67" class="f">\</text></symbol><symbol id="2"><text x="4.008" y="1.67" class="f">--bootstrap-server</text><text x="23.046" y="1.67" class="f">localhost:29092,localhost:29093,localhost:29094</text><text x="71.142" y="1.67" class="f">\</text></symbol><symbol id="3"><text x="4.008" y="1.67" class="f">--topic</text><text x="12.024" y="1.67" class="f">teamAcustomers</text><text x="27.054" y="1.67" class="f">\</text></symbol><symbol id="4"><text x="4.008" y="1.67" class="f">--from-beginning</text><text x="21.042" y="1.67" class="f">\</text></symbol><symbol id="5"><text x="4.008" y="1.67" class="f">--timeout-ms</text><text x="17.034" y="1.67" class="f">5000</text><text x="22.044" y="1.67" class="f">\</text></symbol><symbol id="6"><text x="4.008" y="1.67" class="f">--property</text><text x="15.03" y="1.67" class="f">print.headers=true</text></symbol><symbol id="7"><text y="1.67" class="g">gateway_encrypted:</text></symbol><symbol id="8"><text y="1.67" class="g">gateway_encrypted:$80233e5e-0693-47cf-a31e-788f5f97297b[{&quot;fieldName&quot;:&quot;password&quot;,&quot;keySecretId&quot;:&quot;password-secret&quot;,&quot;algorithm&quot;:{&quot;type&quot;:&quot;AES_GCM</text></symbol><symbol id="9"><text y="1.67" class="g">&quot;,&quot;kms&quot;:&quot;IN_MEMORY&quot;}},{&quot;fieldName&quot;:&quot;visa&quot;,&quot;keySecretId&quot;:&quot;visa-secret&quot;,&quot;algorithm&quot;:{&quot;type&quot;:&quot;AES_GCM&quot;,&quot;kms&quot;:&quot;IN_MEMORY&quot;}}]</text><text x="128.256" y="1.67" class="g">{&quot;name&quot;:&quot;tom</text></symbol><symbol id="10"><text y="1.67" class="g">&quot;,&quot;username&quot;:&quot;tom@conduktor.io&quot;,&quot;password&quot;:&quot;AAAABQF8RViPShmuwQ7/5AXBGZlrOHgUwORV5BSwMquKuG8GQKUM7a8+2Y08XHgN+nWkzQY=&quot;,&quot;visa&quot;:&quot;AAAABQEPXvOH1o</text></symbol><symbol id="11"><text y="1.67" class="g">rPjemHcsec1M59CxKAkYEXr3dPMZma9O9cEg3FXXwM1mbvPNSOTHZh&quot;,&quot;address&quot;:&quot;Chancery</text><text x="76.152" y="1.67" class="g">lane,</text><text x="82.164" y="1.67" class="g">London&quot;}</text></symbol><symbol id="12"><text y="1.67" class="g">&quot;,&quot;kms&quot;:&quot;IN_MEMORY&quot;}},{&quot;fieldName&quot;:&quot;visa&quot;,&quot;keySecretId&quot;:&quot;visa-secret&quot;,&quot;algorithm&quot;:{&quot;type&quot;:&quot;AES_GCM&quot;,&quot;kms&quot;:&quot;IN_MEMORY&quot;}}]</text><text x="128.256" y="1.67" class="g">{&quot;name&quot;:&quot;flo</text></symbol><symbol id="13"><text y="1.67" class="g">rent&quot;,&quot;username&quot;:&quot;florent@conduktor.io&quot;,&quot;password&quot;:&quot;AAAABQF8RViPeb5XUFK1gcad/0bBRxwLWz2VsBtzGa3uWq1RCG4msguaITH7pmpisL4RkA==&quot;,&quot;visa&quot;:&quot;AAAABQ</text></symbol><symbol id="14"><text y="1.67" class="g">EPXvOH2LmVimugImeqkDaUPkBUe4lxOCaxgqtAwv1Kb1qDzjISfNFUUlpH5+f/pYnj&quot;,&quot;address&quot;:&quot;Dubai,</text><text x="86.172" y="1.67" class="g">UAE&quot;}</text></symbol><symbol id="15"><text y="1.67" class="g">[2023-09-20</text><text x="12.024" y="1.67" class="g">10:03:58,925]</text><text x="26.052" y="1.67" class="g">ERROR</text><text x="32.064" y="1.67" class="g">Error</text><text x="38.076" y="1.67" class="g">processing</text><text x="49.098" y="1.67" class="g">message,</text><text x="58.116" y="1.67" class="g">terminating</text><text x="70.14" y="1.67" class="g">consumer</text><text x="79.158" y="1.67" class="g">process:</text><text x="89.178" y="1.67" class="g">(kafka.tools.ConsoleConsumer$)</text></symbol><symbol id="16"><text y="1.67" class="g">org.apache.kafka.common.errors.TimeoutException</text></symbol><symbol id="a"><path fill="transparent" d="M0 0h140v13H0z"/></symbol><symbol id="b"><path fill="#6f7683" d="M0 0h1.102v2.171H0z"/></symbol></defs><path class="a" d="M0 0h140v26.052H0z"/><g style="animation-duration:5.2700569999999995s;animation-iteration-count:infinite;animation-name:j;animation-timing-function:steps(1,end)"><svg width="4200"><svg><use xlink:href="#a"/><use xlink:href="#b" x="-.004"/></svg><svg x="140"><use xlink:href="#a"/><use xlink:href="#b" x="-.004"/></svg><svg x="280"><use xlink:href="#a"/><use xlink:href="#b" x="9.996"/><text y="1.67" class="f">kafka-cons</text></svg><svg x="420"><use xlink:href="#a"/><use xlink:href="#b" x="19.996"/><text y="1.67" class="f">kafka-console-consum</text></svg><svg x="560"><use xlink:href="#a"/><use xlink:href="#b" x="4.996" y="2.146"/><use xlink:href="#1"/><text x="4.008" y="3.841" class="f">-</text></svg><svg x="700"><use xlink:href="#a"/><use xlink:href="#b" x="14.996" y="2.146"/><use xlink:href="#1"/><text x="4.008" y="3.841" class="f">--bootstrap</text></svg><svg x="840"><use xlink:href="#a"/><use xlink:href="#b" x="24.996" y="2.146"/><use xlink:href="#1"/><text x="4.008" y="3.841" class="f">--bootstrap-server</text><text x="23.046" y="3.841" class="f">lo</text></svg><svg x="980"><use xlink:href="#a"/><use xlink:href="#b" x="34.996" y="2.146"/><use xlink:href="#1"/><text x="4.008" y="3.841" class="f">--bootstrap-server</text><text x="23.046" y="3.841" class="f">localhost:29</text></svg><svg x="1120"><use xlink:href="#a"/><use xlink:href="#b" x="44.996" y="2.146"/><use xlink:href="#1"/><text x="4.008" y="3.841" class="f">--bootstrap-server</text><text x="23.046" y="3.841" class="f">localhost:29092,localh</text></svg><svg x="1260"><use xlink:href="#a"/><use xlink:href="#b" x="54.996" y="2.146"/><use xlink:href="#1"/><text x="4.008" y="3.841" class="f">--bootstrap-server</text><text x="23.046" y="3.841" class="f">localhost:29092,localhost:29093,</text></svg><svg x="1400"><use xlink:href="#a"/><use xlink:href="#b" x="64.996" y="2.146"/><use xlink:href="#1"/><text x="4.008" y="3.841" class="f">--bootstrap-server</text><text x="23.046" y="3.841" class="f">localhost:29092,localhost:29093,localhost:</text></svg><svg x="1540"><use xlink:href="#a"/><use xlink:href="#b" x="1.996" y="4.317"/><use xlink:href="#1"/><use xlink:href="#2" y="2.171"/></svg><svg x="1680"><use xlink:href="#a"/><use xlink:href="#b" x="11.996" y="4.317"/><use xlink:href="#1"/><use xlink:href="#2" y="2.171"/><text x="4.008" y="6.012" class="f">--topic</text></svg><svg x="1820"><use xlink:href="#a"/><use xlink:href="#b" x="21.996" y="4.317"/><use xlink:href="#1"/><use xlink:href="#2" y="2.171"/><text x="4.008" y="6.012" class="f">--topic</text><text x="12.024" y="6.012" class="f">teamAcusto</text></svg><svg x="1960"><use xlink:href="#a"/><use xlink:href="#b" x="2.996" y="6.488"/><use xlink:href="#1"/><use xlink:href="#2" y="2.171"/><use xlink:href="#3" y="4.342"/></svg><svg x="2100"><use xlink:href="#a"/><use xlink:href="#b" x="12.996" y="6.488"/><use xlink:href="#1"/><use xlink:href="#2" y="2.171"/><use xlink:href="#3" y="4.342"/><text x="4.008" y="8.183" class="f">--from-be</text></svg><svg x="2240"><use xlink:href="#a"/><use xlink:href="#b" x="-.004" y="8.659"/><use xlink:href="#1"/><use xlink:href="#2" y="2.171"/><use xlink:href="#3" y="4.342"/><use xlink:href="#4" y="6.513"/></svg><svg x="2380"><use xlink:href="#a"/><use xlink:href="#b" x="9.996" y="8.659"/><use xlink:href="#1"/><use xlink:href="#2" y="2.171"/><use xlink:href="#3" y="4.342"/><use xlink:href="#4" y="6.513"/><text x="4.008" y="10.354" class="f">--time</text></svg><svg x="2520"><use xlink:href="#a"/><use xlink:href="#b" x="19.996" y="8.659"/><use xlink:href="#1"/><use xlink:href="#2" y="2.171"/><use xlink:href="#3" y="4.342"/><use xlink:href="#4" y="6.513"/><text x="4.008" y="10.354" class="f">--timeout-ms</text><text x="17.034" y="10.354" class="f">500</text></svg><svg x="2660"><use xlink:href="#a"/><use xlink:href="#b" x="5.996" y="10.83"/><use xlink:href="#1"/><use xlink:href="#2" y="2.171"/><use xlink:href="#3" y="4.342"/><use xlink:href="#4" y="6.513"/><use xlink:href="#5" y="8.684"/><text x="4.008" y="12.525" class="f">--</text></svg><svg x="2800"><use xlink:href="#a"/><use xlink:href="#b" x="15.996" y="10.83"/><use xlink:href="#1"/><use xlink:href="#2" y="2.171"/><use xlink:href="#3" y="4.342"/><use xlink:href="#4" y="6.513"/><use xlink:href="#5" y="8.684"/><text x="4.008" y="12.525" class="f">--property</text><text x="15.03" y="12.525" class="f">p</text></svg><svg x="2940"><use xlink:href="#a"/><use xlink:href="#b" x="25.996" y="10.83"/><use xlink:href="#1"/><use xlink:href="#2" y="2.171"/><use xlink:href="#3" y="4.342"/><use xlink:href="#4" y="6.513"/><use xlink:href="#5" y="8.684"/><text x="4.008" y="12.525" class="f">--property</text><text x="15.03" y="12.525" class="f">print.heade</text></svg><svg x="3080"><use xlink:href="#a"/><use xlink:href="#b" x="-.004" y="13.001"/><use xlink:href="#1"/><use xlink:href="#2" y="2.171"/><use xlink:href="#3" y="4.342"/><use xlink:href="#4" y="6.513"/><use xlink:href="#5" y="8.684"/><use xlink:href="#6" y="10.855"/></svg><svg x="3220"><use xlink:href="#a"/><use xlink:href="#b" x="-.004" y="15.172"/><use xlink:href="#1"/><use xlink:href="#2" y="2.171"/><use xlink:href="#3" y="4.342"/><use xlink:href="#4" y="6.513"/><use xlink:href="#5" y="8.684"/><use xlink:href="#6" y="10.855"/></svg><svg x="3360"><use xlink:href="#a"/><use xlink:href="#b" x="17.996" y="15.172"/><use xlink:href="#1"/><use xlink:href="#2" y="2.171"/><use xlink:href="#3" y="4.342"/><use xlink:href="#4" y="6.513"/><use xlink:href="#5" y="8.684"/><use xlink:href="#6" y="10.855"/><use xlink:href="#7" y="15.197"/></svg><svg x="3500"><use xlink:href="#a"/><use xlink:href="#b" x="127.996" y="17.343"/><use xlink:href="#1"/><use xlink:href="#2" y="2.171"/><use xlink:href="#3" y="4.342"/><use xlink:href="#4" y="6.513"/><use xlink:href="#5" y="8.684"/><use xlink:href="#6" y="10.855"/><use xlink:href="#8" y="15.197"/><text y="19.038" class="g">&quot;,&quot;kms&quot;:&quot;IN_MEMORY&quot;}},{&quot;fieldName&quot;:&quot;visa&quot;,&quot;keySecretId&quot;:&quot;visa-secret&quot;,&quot;algorithm&quot;:{&quot;type&quot;:&quot;AES_GCM&quot;,&quot;kms&quot;:&quot;IN_MEMORY&quot;}}]</text></svg><svg x="3640"><use xlink:href="#a"/><use xlink:href="#b" x="17.996" y="23.856"/><use xlink:href="#1"/><use xlink:href="#2" y="2.171"/><use xlink:href="#3" y="4.342"/><use xlink:href="#4" y="6.513"/><use xlink:href="#5" y="8.684"/><use xlink:href="#6" y="10.855"/><use xlink:href="#8" y="15.197"/><use xlink:href="#9" y="17.368"/><use xlink:href="#10" y="19.539"/><use xlink:href="#11" y="21.71"/><use xlink:href="#7" y="23.881"/></svg><svg x="3780"><use xlink:href="#a"/><use xlink:href="#b" x="-.004" y="26.027"/><use xlink:href="#4"/><use xlink:href="#5" y="2.171"/><use xlink:href="#6" y="4.342"/><use xlink:href="#8" y="8.684"/><use xlink:href="#9" y="10.855"/><use xlink:href="#10" y="13.026"/><use xlink:href="#11" y="15.197"/><use xlink:href="#8" y="17.368"/><use xlink:href="#12" y="19.539"/><use xlink:href="#13" y="21.71"/><use xlink:href="#14" y="23.881"/></svg><svg x="3920"><use xlink:href="#a"/><use xlink:href="#b" x="-.004" y="26.027"/><use xlink:href="#6"/><use xlink:href="#8" y="4.342"/><use xlink:href="#9" y="6.513"/><use xlink:href="#10" y="8.684"/><use xlink:href="#11" y="10.855"/><use xlink:href="#8" y="13.026"/><use xlink:href="#12" y="15.197"/><use xlink:href="#13" y="17.368"/><use xlink:href="#14" y="19.539"/><use xlink:href="#15" y="21.71"/><use xlink:href="#16" y="23.881"/></svg><svg x="4060"><use xlink:href="#a"/><use xlink:href="#b" x="-.004" y="26.027"/><use xlink:href="#8" y="2.171"/><use xlink:href="#9" y="4.342"/><use xlink:href="#10" y="6.513"/><use xlink:href="#11" y="8.684"/><use xlink:href="#8" y="10.855"/><use xlink:href="#12" y="13.026"/><use xlink:href="#13" y="15.197"/><use xlink:href="#14" y="17.368"/><use xlink:href="#15" y="19.539"/><use xlink:href="#16" y="21.71"/><text y="25.551" class="g">Processed</text><text x="10.02" y="25.551" class="g">a</text><text x="12.024" y="25.551" class="g">total</text><text x="18.036" y="25.551" class="g">of</text><text x="21.042" y="25.551" class="g">2</text><text x="23.046" y="25.551" class="g">messages</text></svg></svg></g></g></svg></svg>