<svg xmlns="http://www.w3.org/2000/svg" xmlns:xlink="http://www.w3.org/1999/xlink" width="1440" height="494.2"><rect width="1440" height="494.2" rx="5" ry="5" class="a"/><svg y="0%" x="0%"><circle cx="20" cy="20" r="6" fill="#ff5f58"/><circle cx="40" cy="20" r="6" fill="#ffbd2e"/><circle cx="60" cy="20" r="6" fill="#18c132"/></svg><svg height="434.2" viewBox="0 0 140 43.42" width="1400" x="15" xmlns="http://www.w3.org/2000/svg" xmlns:xlink="http://www.w3.org/1999/xlink" y="50"><style>@keyframes n{0%{transform:translateX(0)}.8%{transform:translateX(-140px)}1%{transform:translateX(-280px)}10%{transform:translateX(-420px)}14.7%{transform:translateX(-560px)}19.4%{transform:translateX(-700px)}24.2%{transform:translateX(-840px)}28.8%{transform:translateX(-980px)}33.6%{transform:translateX(-1120px)}38.4%{transform:translateX(-1260px)}43.2%{transform:translateX(-1400px)}47.9%{transform:translateX(-1540px)}52.7%{transform:translateX(-1680px)}57.1%{transform:translateX(-1820px)}61.7%{transform:translateX(-1960px)}66.4%{transform:translateX(-2100px)}70.9%{transform:translateX(-2240px)}75.7%{transform:translateX(-2380px)}80%{transform:translateX(-2520px)}85%{transform:translateX(-2660px)}89.4%{transform:translateX(-2800px)}93.9%{transform:translateX(-2940px)}94%{transform:translateX(-3080px)}99.9%{transform:translateX(-3220px)}to{transform:translateX(-3500px)}}.a{fill:#282d35}.f{fill:#fff;white-space:pre}.g{fill:#b9bfca;font-weight:700}.g,.h,.i,.j,.k{white-space:pre}.h{fill:#71bef2;font-weight:700}.i,.j,.k{fill:#6f7783}.j,.k{fill:#b9bfca}.k{fill:#a8cc8c}</style><g font-family="Monaco,Consolas,Menlo,'Bitstream Vera Sans Mono','Powerline Symbols',monospace" font-size="1.67"><defs><symbol id="1"><text y="1.67" class="f">curl</text><text x="5.01" y="1.67" class="f">\</text></symbol><symbol id="2"><text x="4.008" y="1.67" class="f">--silent</text><text x="13.026" y="1.67" class="f">\</text></symbol><symbol id="3"><text x="4.008" y="1.67" class="f">--request</text><text x="14.028" y="1.67" class="f">GET</text><text x="18.036" y="1.67" class="f">&quot;http://localhost:8888/admin/interceptors/v1/vcluster/teamA/interceptors&quot;</text><text x="92.184" y="1.67" class="f">\</text></symbol><symbol id="4"><text x="4.008" y="1.67" class="f">--user</text><text x="11.022" y="1.67" class="f">&quot;admin:conduktor&quot;</text><text x="29.058" y="1.67" class="f">\</text></symbol><symbol id="5"><text x="4.008" y="1.67" class="f">--header</text><text x="13.026" y="1.67" class="f">&apos;Content-Type:</text><text x="28.056" y="1.67" class="f">application/json&apos;</text><text x="46.092" y="1.67" class="f">|</text><text x="48.096" y="1.67" class="f">jq</text></symbol><symbol id="6"><text x="4.008" y="1.67" class="g">{</text></symbol><symbol id="7"><text x="6.012" y="1.67" class="h">&quot;apiKey&quot;</text><text x="14.028" y="1.67" class="g">:</text><text x="16.032" y="1.67" class="i">null</text><text x="20.04" y="1.67" class="g">,</text></symbol><symbol id="8"><text x="6.012" y="1.67" class="h">&quot;priority&quot;</text><text x="16.032" y="1.67" class="g">:</text><text x="18.036" y="1.67" class="j">100</text><text x="21.042" y="1.67" class="g">,</text></symbol><symbol id="9"><text x="6.012" y="1.67" class="h">&quot;timeoutMs&quot;</text><text x="17.034" y="1.67" class="g">:</text><text x="19.038" y="1.67" class="i">null</text><text x="23.046" y="1.67" class="g">,</text></symbol><symbol id="10"><text x="6.012" y="1.67" class="h">&quot;config&quot;</text><text x="14.028" y="1.67" class="g">:</text><text x="16.032" y="1.67" class="g">{</text></symbol><symbol id="11"><text x="12.024" y="1.67" class="h">&quot;version&quot;</text><text x="21.042" y="1.67" class="g">:</text><text x="23.046" y="1.67" class="j">1</text></symbol><symbol id="12"><text x="10.02" y="1.67" class="g">}</text></symbol><symbol id="13"><text x="8.016" y="1.67" class="g">}</text></symbol><symbol id="14"><text x="6.012" y="1.67" class="g">}</text></symbol><symbol id="15"><text x="10.02" y="1.67" class="g">{</text></symbol><symbol id="16"><text x="12.024" y="1.67" class="h">&quot;fieldName&quot;</text><text x="23.046" y="1.67" class="g">:</text><text x="25.05" y="1.67" class="k">&quot;password&quot;</text><text x="35.07" y="1.67" class="g">,</text></symbol><symbol id="17"><text x="12.024" y="1.67" class="h">&quot;keySecretId&quot;</text><text x="25.05" y="1.67" class="g">:</text><text x="27.054" y="1.67" class="k">&quot;password-secret&quot;</text><text x="44.088" y="1.67" class="g">,</text></symbol><symbol id="18"><text x="12.024" y="1.67" class="h">&quot;algorithm&quot;</text><text x="23.046" y="1.67" class="g">:</text><text x="25.05" y="1.67" class="g">{</text></symbol><symbol id="19"><text x="14.028" y="1.67" class="h">&quot;type&quot;</text><text x="20.04" y="1.67" class="g">:</text><text x="22.044" y="1.67" class="k">&quot;AES_GCM&quot;</text><text x="31.062" y="1.67" class="g">,</text></symbol><symbol id="20"><text x="14.028" y="1.67" class="h">&quot;kms&quot;</text><text x="19.038" y="1.67" class="g">:</text><text x="21.042" y="1.67" class="k">&quot;IN_MEMORY&quot;</text></symbol><symbol id="21"><text x="12.024" y="1.67" class="g">}</text></symbol><symbol id="a"><path fill="transparent" d="M0 0h140v21H0z"/></symbol><symbol id="b"><path fill="#6f7683" d="M0 0h1.102v2.171H0z"/></symbol></defs><path class="a" d="M0 0h140v43.42H0z"/><g style="animation-duration:2.068207s;animation-iteration-count:infinite;animation-name:n;animation-timing-function:steps(1,end)"><svg width="3640"><svg><use xlink:href="#a"/><use xlink:href="#b" x="-.004"/></svg><svg x="140"><use xlink:href="#a"/><use xlink:href="#b" x="-.004"/></svg><svg x="280"><use xlink:href="#a"/><use xlink:href="#b" x="2.996" y="2.146"/><use xlink:href="#1"/></svg><svg x="420"><use xlink:href="#a"/><use xlink:href="#b" x="12.996" y="2.146"/><use xlink:href="#1"/><text x="4.008" y="3.841" class="f">--silent</text></svg><svg x="560"><use xlink:href="#a"/><use xlink:href="#b" x="7.996" y="4.317"/><use xlink:href="#1"/><use xlink:href="#2" y="2.171"/><text x="4.008" y="6.012" class="f">--re</text></svg><svg x="700"><use xlink:href="#a"/><use xlink:href="#b" x="17.996" y="4.317"/><use xlink:href="#1"/><use xlink:href="#2" y="2.171"/><text x="4.008" y="6.012" class="f">--request</text><text x="14.028" y="6.012" class="f">GET</text></svg><svg x="840"><use xlink:href="#a"/><use xlink:href="#b" x="27.996" y="4.317"/><use xlink:href="#1"/><use xlink:href="#2" y="2.171"/><text x="4.008" y="6.012" class="f">--request</text><text x="14.028" y="6.012" class="f">GET</text><text x="18.036" y="6.012" class="f">&quot;http://lo</text></svg><svg x="980"><use xlink:href="#a"/><use xlink:href="#b" x="37.996" y="4.317"/><use xlink:href="#1"/><use xlink:href="#2" y="2.171"/><text x="4.008" y="6.012" class="f">--request</text><text x="14.028" y="6.012" class="f">GET</text><text x="18.036" y="6.012" class="f">&quot;http://localhost:88</text></svg><svg x="1120"><use xlink:href="#a"/><use xlink:href="#b" x="47.996" y="4.317"/><use xlink:href="#1"/><use xlink:href="#2" y="2.171"/><text x="4.008" y="6.012" class="f">--request</text><text x="14.028" y="6.012" class="f">GET</text><text x="18.036" y="6.012" class="f">&quot;http://localhost:8888/admin/i</text></svg><svg x="1260"><use xlink:href="#a"/><use xlink:href="#b" x="57.996" y="4.317"/><use xlink:href="#1"/><use xlink:href="#2" y="2.171"/><text x="4.008" y="6.012" class="f">--request</text><text x="14.028" y="6.012" class="f">GET</text><text x="18.036" y="6.012" class="f">&quot;http://localhost:8888/admin/interceptor</text></svg><svg x="1400"><use xlink:href="#a"/><use xlink:href="#b" x="67.996" y="4.317"/><use xlink:href="#1"/><use xlink:href="#2" y="2.171"/><text x="4.008" y="6.012" class="f">--request</text><text x="14.028" y="6.012" class="f">GET</text><text x="18.036" y="6.012" class="f">&quot;http://localhost:8888/admin/interceptors/v1/vclus</text></svg><svg x="1540"><use xlink:href="#a"/><use xlink:href="#b" x="77.996" y="4.317"/><use xlink:href="#1"/><use xlink:href="#2" y="2.171"/><text x="4.008" y="6.012" class="f">--request</text><text x="14.028" y="6.012" class="f">GET</text><text x="18.036" y="6.012" class="f">&quot;http://localhost:8888/admin/interceptors/v1/vcluster/teamA/</text></svg><svg x="1680"><use xlink:href="#a"/><use xlink:href="#b" x="87.996" y="4.317"/><use xlink:href="#1"/><use xlink:href="#2" y="2.171"/><text x="4.008" y="6.012" class="f">--request</text><text x="14.028" y="6.012" class="f">GET</text><text x="18.036" y="6.012" class="f">&quot;http://localhost:8888/admin/interceptors/v1/vcluster/teamA/intercepto</text></svg><svg x="1820"><use xlink:href="#a"/><use xlink:href="#b" x="3.996" y="6.488"/><use xlink:href="#1"/><use xlink:href="#2" y="2.171"/><use xlink:href="#3" y="4.342"/></svg><svg x="1960"><use xlink:href="#a"/><use xlink:href="#b" x="13.996" y="6.488"/><use xlink:href="#1"/><use xlink:href="#2" y="2.171"/><use xlink:href="#3" y="4.342"/><text x="4.008" y="8.183" class="f">--user</text><text x="11.022" y="8.183" class="f">&quot;ad</text></svg><svg x="2100"><use xlink:href="#a"/><use xlink:href="#b" x="23.996" y="6.488"/><use xlink:href="#1"/><use xlink:href="#2" y="2.171"/><use xlink:href="#3" y="4.342"/><text x="4.008" y="8.183" class="f">--user</text><text x="11.022" y="8.183" class="f">&quot;admin:conduk</text></svg><svg x="2240"><use xlink:href="#a"/><use xlink:href="#b" x="2.996" y="8.659"/><use xlink:href="#1"/><use xlink:href="#2" y="2.171"/><use xlink:href="#3" y="4.342"/><use xlink:href="#4" y="6.513"/></svg><svg x="2380"><use xlink:href="#a"/><use xlink:href="#b" x="12.996" y="8.659"/><use xlink:href="#1"/><use xlink:href="#2" y="2.171"/><use xlink:href="#3" y="4.342"/><use xlink:href="#4" y="6.513"/><text x="4.008" y="10.354" class="f">--header</text></svg><svg x="2520"><use xlink:href="#a"/><use xlink:href="#b" x="22.996" y="8.659"/><use xlink:href="#1"/><use xlink:href="#2" y="2.171"/><use xlink:href="#3" y="4.342"/><use xlink:href="#4" y="6.513"/><text x="4.008" y="10.354" class="f">--header</text><text x="13.026" y="10.354" class="f">&apos;Content-T</text></svg><svg x="2660"><use xlink:href="#a"/><use xlink:href="#b" x="32.996" y="8.659"/><use xlink:href="#1"/><use xlink:href="#2" y="2.171"/><use xlink:href="#3" y="4.342"/><use xlink:href="#4" y="6.513"/><text x="4.008" y="10.354" class="f">--header</text><text x="13.026" y="10.354" class="f">&apos;Content-Type:</text><text x="28.056" y="10.354" class="f">appli</text></svg><svg x="2800"><use xlink:href="#a"/><use xlink:href="#b" x="42.996" y="8.659"/><use xlink:href="#1"/><use xlink:href="#2" y="2.171"/><use xlink:href="#3" y="4.342"/><use xlink:href="#4" y="6.513"/><text x="4.008" y="10.354" class="f">--header</text><text x="13.026" y="10.354" class="f">&apos;Content-Type:</text><text x="28.056" y="10.354" class="f">application/jso</text></svg><svg x="2940"><use xlink:href="#a"/><use xlink:href="#b" x="-.004" y="10.83"/><use xlink:href="#1"/><use xlink:href="#2" y="2.171"/><use xlink:href="#3" y="4.342"/><use xlink:href="#4" y="6.513"/><use xlink:href="#5" y="8.684"/></svg><svg x="3080"><use xlink:href="#a"/><use xlink:href="#b" x="-.004" y="13.001"/><use xlink:href="#1"/><use xlink:href="#2" y="2.171"/><use xlink:href="#3" y="4.342"/><use xlink:href="#4" y="6.513"/><use xlink:href="#5" y="8.684"/></svg><svg x="3220"><use xlink:href="#a"/><use xlink:href="#b" x="4.996" y="43.395"/><use xlink:href="#4"/><use xlink:href="#5" y="2.171"/><text y="8.183" class="g">{</text><text x="2.004" y="10.354" class="h">&quot;interceptors&quot;</text><text x="16.032" y="10.354" class="g">:</text><text x="18.036" y="10.354" class="g">[</text><use xlink:href="#6" y="10.855"/><text x="6.012" y="14.696" class="h">&quot;name&quot;</text><text x="12.024" y="14.696" class="g">:</text><text x="14.028" y="14.696" class="k">&quot;decrypt&quot;</text><text x="23.046" y="14.696" class="g">,</text><text x="6.012" y="16.867" class="h">&quot;pluginClass&quot;</text><text x="19.038" y="16.867" class="g">:</text><text x="21.042" y="16.867" class="k">&quot;io.conduktor.gateway.interceptor.DecryptPlugin&quot;</text><text x="69.138" y="16.867" class="g">,</text><use xlink:href="#7" y="17.368"/><use xlink:href="#8" y="19.539"/><use xlink:href="#9" y="21.71"/><use xlink:href="#10" y="23.881"/><text x="8.016" y="27.722" class="h">&quot;topic&quot;</text><text x="15.03" y="27.722" class="g">:</text><text x="17.034" y="27.722" class="k">&quot;customers&quot;</text><text x="28.056" y="27.722" class="g">,</text><text x="8.016" y="29.893" class="h">&quot;kmsConfig&quot;</text><text x="19.038" y="29.893" class="g">:</text><text x="21.042" y="29.893" class="g">{</text><text x="10.02" y="32.064" class="h">&quot;vault&quot;</text><text x="17.034" y="32.064" class="g">:</text><text x="19.038" y="32.064" class="g">{</text><text x="12.024" y="34.235" class="h">&quot;uri&quot;</text><text x="17.034" y="34.235" class="g">:</text><text x="19.038" y="34.235" class="k">&quot;http://vault:8200&quot;</text><text x="38.076" y="34.235" class="g">,</text><text x="12.024" y="36.406" class="h">&quot;token&quot;</text><text x="19.038" y="36.406" class="g">:</text><text x="21.042" y="36.406" class="k">&quot;vault-plaintext-root-token&quot;</text><text x="49.098" y="36.406" class="g">,</text><use xlink:href="#11" y="36.907"/><use xlink:href="#12" y="39.078"/><use xlink:href="#13" y="41.249"/></svg><svg x="3360"><use xlink:href="#a"/><use xlink:href="#b" x="10.996" y="43.395"/><use xlink:href="#11"/><use xlink:href="#12" y="2.171"/><use xlink:href="#13" y="4.342"/><use xlink:href="#14" y="6.513"/><text x="4.008" y="10.354" class="g">},</text><use xlink:href="#6" y="10.855"/><text x="6.012" y="14.696" class="h">&quot;name&quot;</text><text x="12.024" y="14.696" class="g">:</text><text x="14.028" y="14.696" class="k">&quot;encrypt&quot;</text><text x="23.046" y="14.696" class="g">,</text><text x="6.012" y="16.867" class="h">&quot;pluginClass&quot;</text><text x="19.038" y="16.867" class="g">:</text><text x="21.042" y="16.867" class="k">&quot;io.conduktor.gateway.interceptor.EncryptPlugin&quot;</text><text x="69.138" y="16.867" class="g">,</text><use xlink:href="#7" y="17.368"/><use xlink:href="#8" y="19.539"/><use xlink:href="#9" y="21.71"/><use xlink:href="#10" y="23.881"/><text x="8.016" y="27.722" class="h">&quot;fields&quot;</text><text x="16.032" y="27.722" class="g">:</text><text x="18.036" y="27.722" class="g">[</text><use xlink:href="#15" y="28.223"/><use xlink:href="#16" y="30.394"/><use xlink:href="#17" y="32.565"/><use xlink:href="#18" y="34.736"/><use xlink:href="#19" y="36.907"/><use xlink:href="#20" y="39.078"/><use xlink:href="#21" y="41.249"/><use xlink:href="#12" y="43.42"/></svg><svg x="3500"><use xlink:href="#a"/><use xlink:href="#b" x="-.004" y="43.395"/><use xlink:href="#16"/><use xlink:href="#17" y="2.171"/><use xlink:href="#18" y="4.342"/><use xlink:href="#19" y="6.513"/><use xlink:href="#20" y="8.684"/><use xlink:href="#21" y="10.855"/><text x="10.02" y="14.696" class="g">},</text><use xlink:href="#15" y="15.197"/><text x="12.024" y="19.038" class="h">&quot;fieldName&quot;</text><text x="23.046" y="19.038" class="g">:</text><text x="25.05" y="19.038" class="k">&quot;visa&quot;</text><text x="31.062" y="19.038" class="g">,</text><text x="12.024" y="21.209" class="h">&quot;keySecretId&quot;</text><text x="25.05" y="21.209" class="g">:</text><text x="27.054" y="21.209" class="k">&quot;visa-secret&quot;</text><text x="40.08" y="21.209" class="g">,</text><use xlink:href="#18" y="21.71"/><use xlink:href="#19" y="23.881"/><use xlink:href="#20" y="26.052"/><use xlink:href="#21" y="28.223"/><use xlink:href="#12" y="30.394"/><text x="8.016" y="34.235" class="g">]</text><use xlink:href="#14" y="34.736"/><text x="4.008" y="38.577" class="g">}</text><text x="2.004" y="40.748" class="g">]</text><text y="42.919" class="g">}</text></svg></svg></g></g></svg></svg>