<svg xmlns="http://www.w3.org/2000/svg" xmlns:xlink="http://www.w3.org/1999/xlink" width="1440" height="494.2"><rect width="1440" height="494.2" rx="5" ry="5" class="a"/><svg y="0%" x="0%"><circle cx="20" cy="20" r="6" fill="#ff5f58"/><circle cx="40" cy="20" r="6" fill="#ffbd2e"/><circle cx="60" cy="20" r="6" fill="#18c132"/></svg><svg height="434.2" viewBox="0 0 140 43.42" width="1400" x="15" xmlns="http://www.w3.org/2000/svg" xmlns:xlink="http://www.w3.org/1999/xlink" y="50"><style>@keyframes m{0%{transform:translateX(0)}1.7%{transform:translateX(-140px)}2.6%{transform:translateX(-280px)}11.5%{transform:translateX(-420px)}16%{transform:translateX(-560px)}20.4%{transform:translateX(-700px)}24.7%{transform:translateX(-840px)}29.1%{transform:translateX(-980px)}33.5%{transform:translateX(-1120px)}38%{transform:translateX(-1260px)}42.5%{transform:translateX(-1400px)}47%{transform:translateX(-1540px)}51.5%{transform:translateX(-1680px)}55.8%{transform:translateX(-1820px)}60.2%{transform:translateX(-1960px)}64.7%{transform:translateX(-2240px)}65%{transform:translateX(-2380px)}to{transform:translateX(-2520px)}}.a{fill:#282d35}.f{fill:#fff;white-space:pre}.g{fill:#b9c0cb;font-weight:700}.g,.h,.i,.j{white-space:pre}.h{fill:#71bef2;font-weight:700}.i,.j{fill:#b9c0cb}.j{fill:#a8cc8c}</style><g font-family="Monaco,Consolas,Menlo,'Bitstream Vera Sans Mono','Powerline Symbols',monospace" font-size="1.67"><defs><symbol id="1"><text y="1.67" class="f">cat</text><text x="4.008" y="1.67" class="f">step-06-mapping.json</text><text x="25.05" y="1.67" class="f">|</text><text x="27.054" y="1.67" class="f">jq</text></symbol><symbol id="2"><text y="1.67" class="f">curl</text><text x="5.01" y="1.67" class="f">\</text></symbol><symbol id="3"><text x="4.008" y="1.67" class="f">--request</text><text x="14.028" y="1.67" class="f">POST</text><text x="19.038" y="1.67" class="f">&apos;http://localhost:8888/admin/vclusters/v1/vcluster/teamA/topics/.%2A&apos;</text><text x="89.178" y="1.67" class="f">\</text></symbol><symbol id="4"><text x="4.008" y="1.67" class="f">--header</text><text x="13.026" y="1.67" class="f">&apos;Content-Type:</text><text x="28.056" y="1.67" class="f">application/json&apos;</text><text x="46.092" y="1.67" class="f">\</text></symbol><symbol id="5"><text x="4.008" y="1.67" class="f">--user</text><text x="11.022" y="1.67" class="f">&apos;admin:conduktor&apos;</text><text x="29.058" y="1.67" class="f">\</text></symbol><symbol id="6"><text x="4.008" y="1.67" class="f">--silent</text><text x="13.026" y="1.67" class="f">\</text></symbol><symbol id="7"><text x="4.008" y="1.67" class="f">--data</text><text x="11.022" y="1.67" class="f">&quot;@step-06-mapping.json&quot;</text><text x="35.07" y="1.67" class="f">|</text><text x="37.074" y="1.67" class="f">jq</text></symbol><symbol id="8"><text y="1.67" class="g">{</text></symbol><symbol id="9"><text x="2.004" y="1.67" class="h">&quot;concentrated&quot;</text><text x="16.032" y="1.67" class="g">:</text><text x="18.036" y="1.67" class="i">true</text><text x="22.044" y="1.67" class="g">,</text></symbol><symbol id="10"><text x="2.004" y="1.67" class="h">&quot;readOnly&quot;</text><text x="12.024" y="1.67" class="g">:</text><text x="14.028" y="1.67" class="i">false</text><text x="19.038" y="1.67" class="g">,</text></symbol><symbol id="11"><text x="2.004" y="1.67" class="h">&quot;physicalTopicName&quot;</text><text x="21.042" y="1.67" class="g">:</text><text x="23.046" y="1.67" class="j">&quot;concentrated&quot;</text></symbol><symbol id="12"><text y="1.67" class="g">}</text></symbol><symbol id="a"><path fill="transparent" d="M0 0h140v21H0z"/></symbol><symbol id="b"><path fill="#6f7683" d="M0 0h1.102v2.171H0z"/></symbol></defs><path class="a" d="M0 0h140v43.42H0z"/><g style="animation-duration:2.095932s;animation-iteration-count:infinite;animation-name:m;animation-timing-function:steps(1,end)"><svg width="2660"><svg><use xlink:href="#a"/><use xlink:href="#b" x="-.004"/></svg><svg x="140"><use xlink:href="#a"/><use xlink:href="#b" x="-.004"/></svg><svg x="280"><use xlink:href="#a"/><use xlink:href="#b" x="19.996"/><text y="1.67" class="f">cat</text><text x="4.008" y="1.67" class="f">step-06-mapping.</text></svg><svg x="420"><use xlink:href="#a"/><use xlink:href="#b" x="1.996" y="6.488"/><use xlink:href="#1"/><use xlink:href="#2" y="4.342"/></svg><svg x="560"><use xlink:href="#a"/><use xlink:href="#b" x="21.996" y="6.488"/><use xlink:href="#1"/><use xlink:href="#2" y="4.342"/><text x="4.008" y="8.183" class="f">--request</text><text x="14.028" y="8.183" class="f">POST</text><text x="19.038" y="8.183" class="f">&apos;ht</text></svg><svg x="700"><use xlink:href="#a"/><use xlink:href="#b" x="41.996" y="6.488"/><use xlink:href="#1"/><use xlink:href="#2" y="4.342"/><text x="4.008" y="8.183" class="f">--request</text><text x="14.028" y="8.183" class="f">POST</text><text x="19.038" y="8.183" class="f">&apos;http://localhost:8888/</text></svg><svg x="840"><use xlink:href="#a"/><use xlink:href="#b" x="61.996" y="6.488"/><use xlink:href="#1"/><use xlink:href="#2" y="4.342"/><text x="4.008" y="8.183" class="f">--request</text><text x="14.028" y="8.183" class="f">POST</text><text x="19.038" y="8.183" class="f">&apos;http://localhost:8888/admin/vclusters/v1/v</text></svg><svg x="980"><use xlink:href="#a"/><use xlink:href="#b" x="81.996" y="6.488"/><use xlink:href="#1"/><use xlink:href="#2" y="4.342"/><text x="4.008" y="8.183" class="f">--request</text><text x="14.028" y="8.183" class="f">POST</text><text x="19.038" y="8.183" class="f">&apos;http://localhost:8888/admin/vclusters/v1/vcluster/teamA/topics</text></svg><svg x="1120"><use xlink:href="#a"/><use xlink:href="#b" x="10.996" y="8.659"/><use xlink:href="#1"/><use xlink:href="#2" y="4.342"/><use xlink:href="#3" y="6.513"/><text x="4.008" y="10.354" class="f">--heade</text></svg><svg x="1260"><use xlink:href="#a"/><use xlink:href="#b" x="30.996" y="8.659"/><use xlink:href="#1"/><use xlink:href="#2" y="4.342"/><use xlink:href="#3" y="6.513"/><text x="4.008" y="10.354" class="f">--header</text><text x="13.026" y="10.354" class="f">&apos;Content-Type:</text><text x="28.056" y="10.354" class="f">app</text></svg><svg x="1400"><use xlink:href="#a"/><use xlink:href="#b" x="2.996" y="10.83"/><use xlink:href="#1"/><use xlink:href="#2" y="4.342"/><use xlink:href="#3" y="6.513"/><use xlink:href="#4" y="8.684"/></svg><svg x="1540"><use xlink:href="#a"/><use xlink:href="#b" x="22.996" y="10.83"/><use xlink:href="#1"/><use xlink:href="#2" y="4.342"/><use xlink:href="#3" y="6.513"/><use xlink:href="#4" y="8.684"/><text x="4.008" y="12.525" class="f">--user</text><text x="11.022" y="12.525" class="f">&apos;admin:condu</text></svg><svg x="1680"><use xlink:href="#a"/><use xlink:href="#b" x="11.996" y="13.001"/><use xlink:href="#1"/><use xlink:href="#2" y="4.342"/><use xlink:href="#3" y="6.513"/><use xlink:href="#4" y="8.684"/><use xlink:href="#5" y="10.855"/><text x="4.008" y="14.696" class="f">--silent</text></svg><svg x="1820"><use xlink:href="#a"/><use xlink:href="#b" x="16.996" y="15.172"/><use xlink:href="#1"/><use xlink:href="#2" y="4.342"/><use xlink:href="#3" y="6.513"/><use xlink:href="#4" y="8.684"/><use xlink:href="#5" y="10.855"/><use xlink:href="#6" y="13.026"/><text x="4.008" y="16.867" class="f">--data</text><text x="11.022" y="16.867" class="f">&quot;@step</text></svg><svg x="1960"><use xlink:href="#a"/><use xlink:href="#b" x="36.996" y="15.172"/><use xlink:href="#1"/><use xlink:href="#2" y="4.342"/><use xlink:href="#3" y="6.513"/><use xlink:href="#4" y="8.684"/><use xlink:href="#5" y="10.855"/><use xlink:href="#6" y="13.026"/><text x="4.008" y="16.867" class="f">--data</text><text x="11.022" y="16.867" class="f">&quot;@step-06-mapping.json&quot;</text><text x="35.07" y="16.867" class="f">|</text></svg><svg x="2100"><use xlink:href="#a"/><use xlink:href="#b" x="-.004" y="17.343"/><use xlink:href="#1"/><use xlink:href="#2" y="4.342"/><use xlink:href="#3" y="6.513"/><use xlink:href="#4" y="8.684"/><use xlink:href="#5" y="10.855"/><use xlink:href="#6" y="13.026"/><use xlink:href="#7" y="15.197"/></svg><svg x="2240"><use xlink:href="#a"/><use xlink:href="#b" x="-.004" y="19.514"/><use xlink:href="#1"/><use xlink:href="#2" y="4.342"/><use xlink:href="#3" y="6.513"/><use xlink:href="#4" y="8.684"/><use xlink:href="#5" y="10.855"/><use xlink:href="#6" y="13.026"/><use xlink:href="#7" y="15.197"/></svg><svg x="2380"><use xlink:href="#a"/><use xlink:href="#b" x="-.004" y="30.369"/><use xlink:href="#1"/><use xlink:href="#2" y="4.342"/><use xlink:href="#3" y="6.513"/><use xlink:href="#4" y="8.684"/><use xlink:href="#5" y="10.855"/><use xlink:href="#6" y="13.026"/><use xlink:href="#7" y="15.197"/><use xlink:href="#8" y="19.539"/><use xlink:href="#9" y="21.71"/><use xlink:href="#10" y="23.881"/><use xlink:href="#11" y="26.052"/><use xlink:href="#12" y="28.223"/></svg><svg x="2520"><use xlink:href="#a"/><use xlink:href="#b" x="-.004" y="43.395"/><use xlink:href="#1"/><use xlink:href="#2" y="4.342"/><use xlink:href="#3" y="6.513"/><use xlink:href="#4" y="8.684"/><use xlink:href="#5" y="10.855"/><use xlink:href="#6" y="13.026"/><use xlink:href="#7" y="15.197"/><use xlink:href="#8" y="19.539"/><use xlink:href="#9" y="21.71"/><use xlink:href="#10" y="23.881"/><use xlink:href="#11" y="26.052"/><use xlink:href="#12" y="28.223"/><use xlink:href="#8" y="30.394"/><text x="2.004" y="34.235" class="h">&quot;logicalTopicName&quot;</text><text x="20.04" y="34.235" class="g">:</text><text x="22.044" y="34.235" class="j">&quot;.*&quot;</text><text x="26.052" y="34.235" class="g">,</text><text x="2.004" y="36.406" class="h">&quot;physicalTopicName&quot;</text><text x="21.042" y="36.406" class="g">:</text><text x="23.046" y="36.406" class="j">&quot;concentrated&quot;</text><text x="37.074" y="36.406" class="g">,</text><use xlink:href="#10" y="36.907"/><text x="2.004" y="40.748" class="h">&quot;concentrated&quot;</text><text x="16.032" y="40.748" class="g">:</text><text x="18.036" y="40.748" class="i">true</text><use xlink:href="#12" y="41.249"/></svg></svg></g></g></svg></svg>