<svg xmlns="http://www.w3.org/2000/svg" xmlns:xlink="http://www.w3.org/1999/xlink" width="1440" height="494.2"><rect width="1440" height="494.2" rx="5" ry="5" class="a"/><svg y="0%" x="0%"><circle cx="20" cy="20" r="6" fill="#ff5f58"/><circle cx="40" cy="20" r="6" fill="#ffbd2e"/><circle cx="60" cy="20" r="6" fill="#18c132"/></svg><svg height="434.2" viewBox="0 0 140 43.42" width="1400" x="15" xmlns="http://www.w3.org/2000/svg" xmlns:xlink="http://www.w3.org/1999/xlink" y="50"><style>@keyframes j{0%{transform:translateX(0)}.7%{transform:translateX(-140px)}1%{transform:translateX(-280px)}4.8%{transform:translateX(-420px)}6.7%{transform:translateX(-560px)}8.7%{transform:translateX(-700px)}10.6%{transform:translateX(-840px)}12.5%{transform:translateX(-980px)}14.5%{transform:translateX(-1120px)}16.5%{transform:translateX(-1260px)}18.4%{transform:translateX(-1400px)}20.3%{transform:translateX(-1540px)}22.3%{transform:translateX(-1680px)}24.3%{transform:translateX(-1820px)}26.3%{transform:translateX(-1960px)}28.2%{transform:translateX(-2100px)}30.3%{transform:translateX(-2380px)}49.9%{transform:translateX(-2520px)}58.2%{transform:translateX(-2660px)}to{transform:translateX(-2940px)}}.a{fill:#282d35}.f,.g{fill:#fff;white-space:pre}.g{fill:#b9c0cb}</style><g font-family="Monaco,Consolas,Menlo,'Bitstream Vera Sans Mono','Powerline Symbols',monospace" font-size="1.67"><defs><symbol id="1"><text y="1.67" class="f">docker</text><text x="7.014" y="1.67" class="f">exec</text><text x="12.024" y="1.67" class="f">ksqldb-server</text><text x="26.052" y="1.67" class="f">ksql</text><text x="31.062" y="1.67" class="f">&apos;http://localhost:8088&apos;</text><text x="55.11" y="1.67" class="f">-f</text><text x="58.116" y="1.67" class="f">/sql/ksql.sql</text></symbol><symbol id="2"><text y="1.67" class="g">Jan</text><text x="4.008" y="1.67" class="g">22,</text><text x="8.016" y="1.67" class="g">2024</text><text x="13.026" y="1.67" class="g">10:39:17</text><text x="22.044" y="1.67" class="g">PM</text><text x="25.05" y="1.67" class="g">org.jline.utils.Log</text><text x="45.09" y="1.67" class="g">logr</text></symbol><symbol id="3"><text y="1.67" class="g">WARNING:</text><text x="9.018" y="1.67" class="g">Unable</text><text x="16.032" y="1.67" class="g">to</text><text x="19.038" y="1.67" class="g">create</text><text x="26.052" y="1.67" class="g">a</text><text x="28.056" y="1.67" class="g">system</text><text x="35.07" y="1.67" class="g">terminal,</text><text x="45.09" y="1.67" class="g">creating</text><text x="54.108" y="1.67" class="g">a</text><text x="56.112" y="1.67" class="g">dumb</text><text x="61.122" y="1.67" class="g">terminal</text><text x="70.14" y="1.67" class="g">(enable</text><text x="78.156" y="1.67" class="g">debug</text><text x="84.168" y="1.67" class="g">logging</text><text x="92.184" y="1.67" class="g">for</text><text x="96.192" y="1.67" class="g">more</text><text x="101.202" y="1.67" class="g">information)</text></symbol><symbol id="4"><text y="1.67" class="g">FROM</text><text x="5.01" y="1.67" class="g">RIDERLOCATIONS</text><text x="20.04" y="1.67" class="g">RIDERLOCATIONS</text></symbol><symbol id="5"><text y="1.67" class="g">GROUP</text><text x="6.012" y="1.67" class="g">BY</text><text x="9.018" y="1.67" class="g">RIDERLOCATIONS.PROFILEID</text></symbol><symbol id="6"><text y="1.67" class="g">EMIT</text><text x="5.01" y="1.67" class="g">CHANGES;</text></symbol><symbol id="7"><text x="1.002" y="1.67" class="g">Message</text></symbol><symbol id="8"><text x="1.002" y="1.67" class="g">Created</text><text x="9.018" y="1.67" class="g">query</text><text x="15.03" y="1.67" class="g">with</text><text x="20.04" y="1.67" class="g">ID</text><text x="23.046" y="1.67" class="g">CTAS_CURRENTLOCATION_3</text></symbol><symbol id="9"><text y="1.67" class="g">CREATE</text><text x="7.014" y="1.67" class="g">TABLE</text><text x="13.026" y="1.67" class="g">RIDERSNEARMOUNTAINVIEW</text><text x="36.072" y="1.67" class="g">WITH</text><text x="41.082" y="1.67" class="g">(CLEANUP_POLICY=&apos;compact&apos;,</text><text x="68.136" y="1.67" class="g">KAFKA_TOPIC=&apos;RIDERSNEARMOUNTAINVIEW&apos;,</text><text x="106.212" y="1.67" class="g">PARTITIONS=1,</text><text x="120.24" y="1.67" class="g">REPLICAS=1,</text><text x="132.264" y="1.67" class="g">RETENTIO</text></symbol><symbol id="10"><text y="1.67" class="g">N_MS=604800000)</text><text x="16.032" y="1.67" class="g">AS</text><text x="19.038" y="1.67" class="g">SELECT</text></symbol><symbol id="11"><text x="2.004" y="1.67" class="g">ROUND(GEO_DISTANCE(CURRENTLOCATION.LA,</text><text x="41.082" y="1.67" class="g">CURRENTLOCATION.LO,</text><text x="61.122" y="1.67" class="g">37.4133,</text><text x="70.14" y="1.67" class="g">-122.1162),</text><text x="82.164" y="1.67" class="g">-1)</text><text x="86.172" y="1.67" class="g">DISTANCEINMILES,</text></symbol><symbol id="a"><path fill="transparent" d="M0 0h140v21H0z"/></symbol><symbol id="b"><path fill="#6f7683" d="M0 0h1.102v2.171H0z"/></symbol></defs><path class="a" d="M0 0h140v43.42H0z"/><g style="animation-duration:4.787982s;animation-iteration-count:infinite;animation-name:j;animation-timing-function:steps(1,end)"><svg width="3080"><svg><use xlink:href="#a"/><use xlink:href="#b" x="-.004"/></svg><svg x="140"><use xlink:href="#a"/><use xlink:href="#b" x="-.004"/></svg><svg x="280"><use xlink:href="#a"/><use xlink:href="#b" x="4.996"/><text y="1.67" class="f">docke</text></svg><svg x="420"><use xlink:href="#a"/><use xlink:href="#b" x="9.996"/><text y="1.67" class="f">docker</text><text x="7.014" y="1.67" class="f">exe</text></svg><svg x="560"><use xlink:href="#a"/><use xlink:href="#b" x="14.996"/><text y="1.67" class="f">docker</text><text x="7.014" y="1.67" class="f">exec</text><text x="12.024" y="1.67" class="f">ksq</text></svg><svg x="700"><use xlink:href="#a"/><use xlink:href="#b" x="19.996"/><text y="1.67" class="f">docker</text><text x="7.014" y="1.67" class="f">exec</text><text x="12.024" y="1.67" class="f">ksqldb-s</text></svg><svg x="840"><use xlink:href="#a"/><use xlink:href="#b" x="24.996"/><text y="1.67" class="f">docker</text><text x="7.014" y="1.67" class="f">exec</text><text x="12.024" y="1.67" class="f">ksqldb-server</text></svg><svg x="980"><use xlink:href="#a"/><use xlink:href="#b" x="29.996"/><text y="1.67" class="f">docker</text><text x="7.014" y="1.67" class="f">exec</text><text x="12.024" y="1.67" class="f">ksqldb-server</text><text x="26.052" y="1.67" class="f">ksql</text></svg><svg x="1120"><use xlink:href="#a"/><use xlink:href="#b" x="34.996"/><text y="1.67" class="f">docker</text><text x="7.014" y="1.67" class="f">exec</text><text x="12.024" y="1.67" class="f">ksqldb-server</text><text x="26.052" y="1.67" class="f">ksql</text><text x="31.062" y="1.67" class="f">&apos;htt</text></svg><svg x="1260"><use xlink:href="#a"/><use xlink:href="#b" x="39.996"/><text y="1.67" class="f">docker</text><text x="7.014" y="1.67" class="f">exec</text><text x="12.024" y="1.67" class="f">ksqldb-server</text><text x="26.052" y="1.67" class="f">ksql</text><text x="31.062" y="1.67" class="f">&apos;http://l</text></svg><svg x="1400"><use xlink:href="#a"/><use xlink:href="#b" x="44.996"/><text y="1.67" class="f">docker</text><text x="7.014" y="1.67" class="f">exec</text><text x="12.024" y="1.67" class="f">ksqldb-server</text><text x="26.052" y="1.67" class="f">ksql</text><text x="31.062" y="1.67" class="f">&apos;http://localh</text></svg><svg x="1540"><use xlink:href="#a"/><use xlink:href="#b" x="49.996"/><text y="1.67" class="f">docker</text><text x="7.014" y="1.67" class="f">exec</text><text x="12.024" y="1.67" class="f">ksqldb-server</text><text x="26.052" y="1.67" class="f">ksql</text><text x="31.062" y="1.67" class="f">&apos;http://localhost:8</text></svg><svg x="1680"><use xlink:href="#a"/><use xlink:href="#b" x="54.996"/><text y="1.67" class="f">docker</text><text x="7.014" y="1.67" class="f">exec</text><text x="12.024" y="1.67" class="f">ksqldb-server</text><text x="26.052" y="1.67" class="f">ksql</text><text x="31.062" y="1.67" class="f">&apos;http://localhost:8088&apos;</text></svg><svg x="1820"><use xlink:href="#a"/><use xlink:href="#b" x="59.996"/><text y="1.67" class="f">docker</text><text x="7.014" y="1.67" class="f">exec</text><text x="12.024" y="1.67" class="f">ksqldb-server</text><text x="26.052" y="1.67" class="f">ksql</text><text x="31.062" y="1.67" class="f">&apos;http://localhost:8088&apos;</text><text x="55.11" y="1.67" class="f">-f</text><text x="58.116" y="1.67" class="f">/s</text></svg><svg x="1960"><use xlink:href="#a"/><use xlink:href="#b" x="64.996"/><text y="1.67" class="f">docker</text><text x="7.014" y="1.67" class="f">exec</text><text x="12.024" y="1.67" class="f">ksqldb-server</text><text x="26.052" y="1.67" class="f">ksql</text><text x="31.062" y="1.67" class="f">&apos;http://localhost:8088&apos;</text><text x="55.11" y="1.67" class="f">-f</text><text x="58.116" y="1.67" class="f">/sql/ks</text></svg><svg x="2100"><use xlink:href="#a"/><use xlink:href="#b" x="69.996"/><text y="1.67" class="f">docker</text><text x="7.014" y="1.67" class="f">exec</text><text x="12.024" y="1.67" class="f">ksqldb-server</text><text x="26.052" y="1.67" class="f">ksql</text><text x="31.062" y="1.67" class="f">&apos;http://localhost:8088&apos;</text><text x="55.11" y="1.67" class="f">-f</text><text x="58.116" y="1.67" class="f">/sql/ksql.sq</text></svg><svg x="2240"><use xlink:href="#a"/><use xlink:href="#b" x="70.996"/><use xlink:href="#1"/></svg><svg x="2380"><use xlink:href="#a"/><use xlink:href="#b" x="-.004" y="2.146"/><use xlink:href="#1"/></svg><svg x="2520"><use xlink:href="#a"/><use xlink:href="#b" x="-.004" y="6.488"/><use xlink:href="#1"/><use xlink:href="#2" y="2.171"/><use xlink:href="#3" y="4.342"/></svg><svg x="2660"><use xlink:href="#a"/><use xlink:href="#b" x="-.004" y="8.659"/><use xlink:href="#1"/><use xlink:href="#2" y="2.171"/><use xlink:href="#3" y="4.342"/><text y="8.183" class="g">Successfully</text><text x="13.026" y="8.183" class="g">changed</text><text x="21.042" y="8.183" class="g">local</text><text x="27.054" y="8.183" class="g">property</text><text x="36.072" y="8.183" class="g">&apos;processing.guarantee&apos;</text><text x="59.118" y="8.183" class="g">to</text><text x="62.124" y="8.183" class="g">&apos;exactly_once_v2&apos;.</text><text x="81.162" y="8.183" class="g">Use</text><text x="85.17" y="8.183" class="g">the</text><text x="89.178" y="8.183" class="g">UNSET</text><text x="95.19" y="8.183" class="g">command</text><text x="103.206" y="8.183" class="g">to</text><text x="106.212" y="8.183" class="g">revert</text><text x="113.226" y="8.183" class="g">your</text><text x="118.236" y="8.183" class="g">change.</text></svg><svg x="2800"><use xlink:href="#a"/><use xlink:href="#b" x="34.996" y="43.395"/><text x="1.002" y="3.841" class="g">Stream</text><text x="8.016" y="3.841" class="g">created</text><text y="10.354" class="g">CREATE</text><text x="7.014" y="10.354" class="g">TABLE</text><text x="13.026" y="10.354" class="g">CURRENTLOCATION</text><text x="29.058" y="10.354" class="g">WITH</text><text x="34.068" y="10.354" class="g">(CLEANUP_POLICY=&apos;compact&apos;,</text><text x="61.122" y="10.354" class="g">KAFKA_TOPIC=&apos;CURRENTLOCATION&apos;,</text><text x="92.184" y="10.354" class="g">PARTITIONS=1,</text><text x="106.212" y="10.354" class="g">REPLICAS=1,</text><text x="118.236" y="10.354" class="g">RETENTION_MS=604800000</text><text y="12.525" class="g">)</text><text x="2.004" y="12.525" class="g">AS</text><text x="5.01" y="12.525" class="g">SELECT</text><text x="2.004" y="14.696" class="g">RIDERLOCATIONS.PROFILEID</text><text x="27.054" y="14.696" class="g">PROFILEID,</text><text x="2.004" y="16.867" class="g">LATEST_BY_OFFSET(RIDERLOCATIONS.LATITUDE)</text><text x="44.088" y="16.867" class="g">LA,</text><text x="2.004" y="19.038" class="g">LATEST_BY_OFFSET(RIDERLOCATIONS.LONGITUDE)</text><text x="45.09" y="19.038" class="g">LO</text><use xlink:href="#4" y="19.539"/><use xlink:href="#5" y="21.71"/><use xlink:href="#6" y="23.881"/><use xlink:href="#7" y="26.052"/><use xlink:href="#8" y="30.394"/><use xlink:href="#9" y="36.907"/><use xlink:href="#10" y="39.078"/><use xlink:href="#11" y="41.249"/><text x="2.004" y="45.09" class="g">COLLECT_LIST(CURRENTLOCATION.PROF</text></svg><svg x="2940"><use xlink:href="#a"/><use xlink:href="#b" x="-.004" y="43.395"/><use xlink:href="#4"/><use xlink:href="#5" y="2.171"/><use xlink:href="#6" y="4.342"/><use xlink:href="#7" y="6.513"/><use xlink:href="#8" y="10.855"/><use xlink:href="#9" y="17.368"/><use xlink:href="#10" y="19.539"/><use xlink:href="#11" y="21.71"/><text x="2.004" y="25.551" class="g">COLLECT_LIST(CURRENTLOCATION.PROFILEID)</text><text x="42.084" y="25.551" class="g">RIDERS,</text><text x="2.004" y="27.722" class="g">COUNT(*)</text><text x="11.022" y="27.722" class="g">COUNT</text><text y="29.893" class="g">FROM</text><text x="5.01" y="29.893" class="g">CURRENTLOCATION</text><text x="21.042" y="29.893" class="g">CURRENTLOCATION</text><text y="32.064" class="g">GROUP</text><text x="6.012" y="32.064" class="g">BY</text><text x="9.018" y="32.064" class="g">ROUND(GEO_DISTANCE(CURRENTLOCATION.LA,</text><text x="48.096" y="32.064" class="g">CURRENTLOCATION.LO,</text><text x="68.136" y="32.064" class="g">37.4133,</text><text x="77.154" y="32.064" class="g">-122.1162),</text><text x="89.178" y="32.064" class="g">-1)</text><use xlink:href="#6" y="32.565"/><use xlink:href="#7" y="34.736"/><text x="1.002" y="40.748" class="g">Created</text><text x="9.018" y="40.748" class="g">query</text><text x="15.03" y="40.748" class="g">with</text><text x="20.04" y="40.748" class="g">ID</text><text x="23.046" y="40.748" class="g">CTAS_RIDERSNEARMOUNTAINVIEW_5</text></svg></svg></g></g></svg></svg>