<svg xmlns="http://www.w3.org/2000/svg" xmlns:xlink="http://www.w3.org/1999/xlink" width="1440" height="233.68"><rect width="1440" height="233.68" rx="5" ry="5" class="a"/><svg y="0%" x="0%"><circle cx="20" cy="20" r="6" fill="#ff5f58"/><circle cx="40" cy="20" r="6" fill="#ffbd2e"/><circle cx="60" cy="20" r="6" fill="#18c132"/></svg><svg height="173.68" viewBox="0 0 140 17.368" width="1400" x="15" xmlns="http://www.w3.org/2000/svg" xmlns:xlink="http://www.w3.org/1999/xlink" y="50"><style>@keyframes i{0%{transform:translateX(0)}.5%{transform:translateX(-140px)}.6%{transform:translateX(-280px)}12.1%{transform:translateX(-420px)}17.9%{transform:translateX(-560px)}23.9%{transform:translateX(-700px)}29.4%{transform:translateX(-840px)}35.3%{transform:translateX(-980px)}41.1%{transform:translateX(-1120px)}46.7%{transform:translateX(-1260px)}52.5%{transform:translateX(-1400px)}58.4%{transform:translateX(-1540px)}64.1%{transform:translateX(-1680px)}69.9%{transform:translateX(-1820px)}76%{transform:translateX(-1960px)}81.5%{transform:translateX(-2100px)}87.1%{transform:translateX(-2240px)}93%{transform:translateX(-2380px)}98.9%{transform:translateX(-2520px)}99%{transform:translateX(-2660px)}to{transform:translateX(-2800px)}}.a{fill:#282d35}.f{fill:#fff}.f,.k,.l{white-space:pre}.k{fill:#b9bfca;font-weight:700}.l{fill:#a8cc8c}</style><g font-family="Monaco,Consolas,Menlo,'Bitstream Vera Sans Mono','Powerline Symbols',monospace" font-size="1.67"><defs><symbol id="1"><text y="1.67" class="f">curl</text><text x="5.01" y="1.67" class="f">\</text></symbol><symbol id="2"><text x="2.004" y="1.67" class="f">--request</text><text x="12.024" y="1.67" class="f">GET</text><text x="16.032" y="1.67" class="f">&apos;http://localhost:8200/v1/transit/keys/?list=true&apos;</text><text x="67.134" y="1.67" class="f">\</text></symbol><symbol id="3"><text x="2.004" y="1.67" class="f">--silent</text><text x="11.022" y="1.67" class="f">\</text></symbol><symbol id="4"><text x="2.004" y="1.67" class="f">--header</text><text x="11.022" y="1.67" class="f">&quot;X-Vault-Token:</text><text x="27.054" y="1.67" class="f">vault-plaintext-root-token&quot;</text><text x="55.11" y="1.67" class="f">|</text><text x="57.114" y="1.67" class="f">jq</text><text x="60.12" y="1.67" class="f">-r</text><text x="63.126" y="1.67" class="f">&quot;.data.keys&quot;</text></symbol><symbol id="a"><path fill="transparent" d="M0 0h140v9H0z"/></symbol><symbol id="b"><path fill="#6f7683" d="M0 0h1.102v2.171H0z"/></symbol></defs><path class="a" d="M0 0h140v17.368H0z"/><g style="animation-duration:1.671281s;animation-iteration-count:infinite;animation-name:i;animation-timing-function:steps(1,end)"><svg width="2940"><svg><use xlink:href="#a"/><use xlink:href="#b" x="-.004"/></svg><svg x="140"><use xlink:href="#a"/><use xlink:href="#b" x="-.004"/></svg><svg x="280"><use xlink:href="#a"/><use xlink:href="#b" x="2.996" y="2.146"/><use xlink:href="#1"/><text x="2.004" y="3.841" class="f">-</text></svg><svg x="420"><use xlink:href="#a"/><use xlink:href="#b" x="12.996" y="2.146"/><use xlink:href="#1"/><text x="2.004" y="3.841" class="f">--request</text><text x="12.024" y="3.841" class="f">G</text></svg><svg x="560"><use xlink:href="#a"/><use xlink:href="#b" x="22.996" y="2.146"/><use xlink:href="#1"/><text x="2.004" y="3.841" class="f">--request</text><text x="12.024" y="3.841" class="f">GET</text><text x="16.032" y="3.841" class="f">&apos;http:/</text></svg><svg x="700"><use xlink:href="#a"/><use xlink:href="#b" x="32.996" y="2.146"/><use xlink:href="#1"/><text x="2.004" y="3.841" class="f">--request</text><text x="12.024" y="3.841" class="f">GET</text><text x="16.032" y="3.841" class="f">&apos;http://localhost</text></svg><svg x="840"><use xlink:href="#a"/><use xlink:href="#b" x="42.996" y="2.146"/><use xlink:href="#1"/><text x="2.004" y="3.841" class="f">--request</text><text x="12.024" y="3.841" class="f">GET</text><text x="16.032" y="3.841" class="f">&apos;http://localhost:8200/v1/t</text></svg><svg x="980"><use xlink:href="#a"/><use xlink:href="#b" x="52.996" y="2.146"/><use xlink:href="#1"/><text x="2.004" y="3.841" class="f">--request</text><text x="12.024" y="3.841" class="f">GET</text><text x="16.032" y="3.841" class="f">&apos;http://localhost:8200/v1/transit/key</text></svg><svg x="1120"><use xlink:href="#a"/><use xlink:href="#b" x="62.996" y="2.146"/><use xlink:href="#1"/><text x="2.004" y="3.841" class="f">--request</text><text x="12.024" y="3.841" class="f">GET</text><text x="16.032" y="3.841" class="f">&apos;http://localhost:8200/v1/transit/keys/?list=tr</text></svg><svg x="1260"><use xlink:href="#a"/><use xlink:href="#b" x="3.996" y="4.317"/><use xlink:href="#1"/><use xlink:href="#2" y="2.171"/><text x="2.004" y="6.012" class="f">--</text></svg><svg x="1400"><use xlink:href="#a"/><use xlink:href="#b" x=".996" y="6.488"/><use xlink:href="#1"/><use xlink:href="#2" y="2.171"/><use xlink:href="#3" y="4.342"/></svg><svg x="1540"><use xlink:href="#a"/><use xlink:href="#b" x="10.996" y="6.488"/><use xlink:href="#1"/><use xlink:href="#2" y="2.171"/><use xlink:href="#3" y="4.342"/><text x="2.004" y="8.183" class="f">--header</text></svg><svg x="1680"><use xlink:href="#a"/><use xlink:href="#b" x="20.996" y="6.488"/><use xlink:href="#1"/><use xlink:href="#2" y="2.171"/><use xlink:href="#3" y="4.342"/><text x="2.004" y="8.183" class="f">--header</text><text x="11.022" y="8.183" class="f">&quot;X-Vault-T</text></svg><svg x="1820"><use xlink:href="#a"/><use xlink:href="#b" x="30.996" y="6.488"/><use xlink:href="#1"/><use xlink:href="#2" y="2.171"/><use xlink:href="#3" y="4.342"/><text x="2.004" y="8.183" class="f">--header</text><text x="11.022" y="8.183" class="f">&quot;X-Vault-Token:</text><text x="27.054" y="8.183" class="f">vaul</text></svg><svg x="1960"><use xlink:href="#a"/><use xlink:href="#b" x="40.996" y="6.488"/><use xlink:href="#1"/><use xlink:href="#2" y="2.171"/><use xlink:href="#3" y="4.342"/><text x="2.004" y="8.183" class="f">--header</text><text x="11.022" y="8.183" class="f">&quot;X-Vault-Token:</text><text x="27.054" y="8.183" class="f">vault-plaintex</text></svg><svg x="2100"><use xlink:href="#a"/><use xlink:href="#b" x="50.996" y="6.488"/><use xlink:href="#1"/><use xlink:href="#2" y="2.171"/><use xlink:href="#3" y="4.342"/><text x="2.004" y="8.183" class="f">--header</text><text x="11.022" y="8.183" class="f">&quot;X-Vault-Token:</text><text x="27.054" y="8.183" class="f">vault-plaintext-root-tok</text></svg><svg x="2240"><use xlink:href="#a"/><use xlink:href="#b" x="60.996" y="6.488"/><use xlink:href="#1"/><use xlink:href="#2" y="2.171"/><use xlink:href="#3" y="4.342"/><text x="2.004" y="8.183" class="f">--header</text><text x="11.022" y="8.183" class="f">&quot;X-Vault-Token:</text><text x="27.054" y="8.183" class="f">vault-plaintext-root-token&quot;</text><text x="55.11" y="8.183" class="f">|</text><text x="57.114" y="8.183" class="f">jq</text><text x="60.12" y="8.183" class="f">-</text></svg><svg x="2380"><use xlink:href="#a"/><use xlink:href="#b" x="70.996" y="6.488"/><use xlink:href="#1"/><use xlink:href="#2" y="2.171"/><use xlink:href="#3" y="4.342"/><text x="2.004" y="8.183" class="f">--header</text><text x="11.022" y="8.183" class="f">&quot;X-Vault-Token:</text><text x="27.054" y="8.183" class="f">vault-plaintext-root-token&quot;</text><text x="55.11" y="8.183" class="f">|</text><text x="57.114" y="8.183" class="f">jq</text><text x="60.12" y="8.183" class="f">-r</text><text x="63.126" y="8.183" class="f">&quot;.data.k</text></svg><svg x="2520"><use xlink:href="#a"/><use xlink:href="#b" x="74.996" y="6.488"/><use xlink:href="#1"/><use xlink:href="#2" y="2.171"/><use xlink:href="#3" y="4.342"/><use xlink:href="#4" y="6.513"/></svg><svg x="2660"><use xlink:href="#a"/><use xlink:href="#b" x="-.004" y="8.659"/><use xlink:href="#1"/><use xlink:href="#2" y="2.171"/><use xlink:href="#3" y="4.342"/><use xlink:href="#4" y="6.513"/></svg><svg x="2800"><use xlink:href="#a"/><use xlink:href="#b" x="-.004" y="17.343"/><use xlink:href="#1"/><use xlink:href="#2" y="2.171"/><use xlink:href="#3" y="4.342"/><use xlink:href="#4" y="6.513"/><text y="10.354" class="k">[</text><text x="2.004" y="12.525" class="l">&quot;secret-for-florent&quot;</text><text x="22.044" y="12.525" class="k">,</text><text x="2.004" y="14.696" class="l">&quot;secret-for-tom&quot;</text><text y="16.867" class="k">]</text></svg></svg></g></g></svg></svg>