<svg xmlns="http://www.w3.org/2000/svg" xmlns:xlink="http://www.w3.org/1999/xlink" width="1440" height="146.84"><rect width="1440" height="146.84" rx="5" ry="5" class="a"/><svg y="0%" x="0%"><circle cx="20" cy="20" r="6" fill="#ff5f58"/><circle cx="40" cy="20" r="6" fill="#ffbd2e"/><circle cx="60" cy="20" r="6" fill="#18c132"/></svg><svg height="86.84" viewBox="0 0 140 8.684" width="1400" x="15" xmlns="http://www.w3.org/2000/svg" xmlns:xlink="http://www.w3.org/1999/xlink" y="50"><style>@keyframes i{0%{transform:translateX(0)}.5%{transform:translateX(-140px)}.6%{transform:translateX(-280px)}10.5%{transform:translateX(-420px)}15.4%{transform:translateX(-560px)}20.3%{transform:translateX(-700px)}25.6%{transform:translateX(-840px)}31%{transform:translateX(-980px)}35.9%{transform:translateX(-1120px)}41.2%{transform:translateX(-1260px)}46.3%{transform:translateX(-1400px)}51.6%{transform:translateX(-1540px)}56.6%{transform:translateX(-1680px)}62%{transform:translateX(-1820px)}67.1%{transform:translateX(-1960px)}72.3%{transform:translateX(-2100px)}77.3%{transform:translateX(-2240px)}82.7%{transform:translateX(-2380px)}87.5%{transform:translateX(-2520px)}92.8%{transform:translateX(-2660px)}98.1%{transform:translateX(-2940px)}to{transform:translateX(-3080px)}}.a{fill:#282d35}.f,.k{fill:#fff;white-space:pre}.k{fill:#b9c0cb}</style><g font-family="Monaco,Consolas,Menlo,'Bitstream Vera Sans Mono','Powerline Symbols',monospace" font-size="1.67"><defs><symbol id="1"><text y="1.67" class="f">docker</text><text x="7.014" y="1.67" class="f">logs</text><text x="13.026" y="1.67" class="f">gateway1</text><text x="22.044" y="1.67" class="f">2&gt;&amp;1</text><text x="28.056" y="1.67" class="f">|</text><text x="30.06" y="1.67" class="f">grep</text><text x="35.07" y="1.67" class="f">&quot;disabledAlgorithms&quot;</text></symbol><symbol id="a"><path fill="transparent" d="M0 0h140v5H0z"/></symbol><symbol id="b"><path fill="#6f7683" d="M0 0h1.102v2.171H0z"/></symbol></defs><path class="a" d="M0 0h140v8.684H0z"/><g style="animation-duration:1.858326s;animation-iteration-count:infinite;animation-name:i;animation-timing-function:steps(1,end)"><svg width="3220"><svg><use xlink:href="#a"/><use xlink:href="#b" x="-.004"/></svg><svg x="140"><use xlink:href="#a"/><use xlink:href="#b" x="-.004"/></svg><svg x="280"><use xlink:href="#a"/><use xlink:href="#b" x="2.996"/><text y="1.67" class="f">doc</text></svg><svg x="420"><use xlink:href="#a"/><use xlink:href="#b" x="5.996"/><text y="1.67" class="f">docker</text></svg><svg x="560"><use xlink:href="#a"/><use xlink:href="#b" x="8.996"/><text y="1.67" class="f">docker</text><text x="7.014" y="1.67" class="f">lo</text></svg><svg x="700"><use xlink:href="#a"/><use xlink:href="#b" x="11.996"/><text y="1.67" class="f">docker</text><text x="7.014" y="1.67" class="f">logs</text></svg><svg x="840"><use xlink:href="#a"/><use xlink:href="#b" x="14.996"/><text y="1.67" class="f">docker</text><text x="7.014" y="1.67" class="f">logs</text><text x="13.026" y="1.67" class="f">ga</text></svg><svg x="980"><use xlink:href="#a"/><use xlink:href="#b" x="17.996"/><text y="1.67" class="f">docker</text><text x="7.014" y="1.67" class="f">logs</text><text x="13.026" y="1.67" class="f">gatew</text></svg><svg x="1120"><use xlink:href="#a"/><use xlink:href="#b" x="20.996"/><text y="1.67" class="f">docker</text><text x="7.014" y="1.67" class="f">logs</text><text x="13.026" y="1.67" class="f">gateway1</text></svg><svg x="1260"><use xlink:href="#a"/><use xlink:href="#b" x="23.996"/><text y="1.67" class="f">docker</text><text x="7.014" y="1.67" class="f">logs</text><text x="13.026" y="1.67" class="f">gateway1</text><text x="22.044" y="1.67" class="f">2&gt;</text></svg><svg x="1400"><use xlink:href="#a"/><use xlink:href="#b" x="26.996"/><text y="1.67" class="f">docker</text><text x="7.014" y="1.67" class="f">logs</text><text x="13.026" y="1.67" class="f">gateway1</text><text x="22.044" y="1.67" class="f">2&gt;&amp;1</text></svg><svg x="1540"><use xlink:href="#a"/><use xlink:href="#b" x="29.996"/><text y="1.67" class="f">docker</text><text x="7.014" y="1.67" class="f">logs</text><text x="13.026" y="1.67" class="f">gateway1</text><text x="22.044" y="1.67" class="f">2&gt;&amp;1</text><text x="28.056" y="1.67" class="f">|</text></svg><svg x="1680"><use xlink:href="#a"/><use xlink:href="#b" x="32.996"/><text y="1.67" class="f">docker</text><text x="7.014" y="1.67" class="f">logs</text><text x="13.026" y="1.67" class="f">gateway1</text><text x="22.044" y="1.67" class="f">2&gt;&amp;1</text><text x="28.056" y="1.67" class="f">|</text><text x="30.06" y="1.67" class="f">gre</text></svg><svg x="1820"><use xlink:href="#a"/><use xlink:href="#b" x="35.996"/><text y="1.67" class="f">docker</text><text x="7.014" y="1.67" class="f">logs</text><text x="13.026" y="1.67" class="f">gateway1</text><text x="22.044" y="1.67" class="f">2&gt;&amp;1</text><text x="28.056" y="1.67" class="f">|</text><text x="30.06" y="1.67" class="f">grep</text><text x="35.07" y="1.67" class="f">&quot;</text></svg><svg x="1960"><use xlink:href="#a"/><use xlink:href="#b" x="38.996"/><text y="1.67" class="f">docker</text><text x="7.014" y="1.67" class="f">logs</text><text x="13.026" y="1.67" class="f">gateway1</text><text x="22.044" y="1.67" class="f">2&gt;&amp;1</text><text x="28.056" y="1.67" class="f">|</text><text x="30.06" y="1.67" class="f">grep</text><text x="35.07" y="1.67" class="f">&quot;dis</text></svg><svg x="2100"><use xlink:href="#a"/><use xlink:href="#b" x="41.996"/><text y="1.67" class="f">docker</text><text x="7.014" y="1.67" class="f">logs</text><text x="13.026" y="1.67" class="f">gateway1</text><text x="22.044" y="1.67" class="f">2&gt;&amp;1</text><text x="28.056" y="1.67" class="f">|</text><text x="30.06" y="1.67" class="f">grep</text><text x="35.07" y="1.67" class="f">&quot;disabl</text></svg><svg x="2240"><use xlink:href="#a"/><use xlink:href="#b" x="44.996"/><text y="1.67" class="f">docker</text><text x="7.014" y="1.67" class="f">logs</text><text x="13.026" y="1.67" class="f">gateway1</text><text x="22.044" y="1.67" class="f">2&gt;&amp;1</text><text x="28.056" y="1.67" class="f">|</text><text x="30.06" y="1.67" class="f">grep</text><text x="35.07" y="1.67" class="f">&quot;disabledA</text></svg><svg x="2380"><use xlink:href="#a"/><use xlink:href="#b" x="47.996"/><text y="1.67" class="f">docker</text><text x="7.014" y="1.67" class="f">logs</text><text x="13.026" y="1.67" class="f">gateway1</text><text x="22.044" y="1.67" class="f">2&gt;&amp;1</text><text x="28.056" y="1.67" class="f">|</text><text x="30.06" y="1.67" class="f">grep</text><text x="35.07" y="1.67" class="f">&quot;disabledAlgo</text></svg><svg x="2520"><use xlink:href="#a"/><use xlink:href="#b" x="50.996"/><text y="1.67" class="f">docker</text><text x="7.014" y="1.67" class="f">logs</text><text x="13.026" y="1.67" class="f">gateway1</text><text x="22.044" y="1.67" class="f">2&gt;&amp;1</text><text x="28.056" y="1.67" class="f">|</text><text x="30.06" y="1.67" class="f">grep</text><text x="35.07" y="1.67" class="f">&quot;disabledAlgorit</text></svg><svg x="2660"><use xlink:href="#a"/><use xlink:href="#b" x="53.996"/><text y="1.67" class="f">docker</text><text x="7.014" y="1.67" class="f">logs</text><text x="13.026" y="1.67" class="f">gateway1</text><text x="22.044" y="1.67" class="f">2&gt;&amp;1</text><text x="28.056" y="1.67" class="f">|</text><text x="30.06" y="1.67" class="f">grep</text><text x="35.07" y="1.67" class="f">&quot;disabledAlgorithms</text></svg><svg x="2800"><use xlink:href="#a"/><use xlink:href="#b" x="54.996"/><use xlink:href="#1"/></svg><svg x="2940"><use xlink:href="#a"/><use xlink:href="#b" x="-.004" y="2.146"/><use xlink:href="#1"/></svg><svg x="3080"><use xlink:href="#a"/><use xlink:href="#b" x="-.004" y="8.659"/><text y="1.67" class="k">e</text><text x="2.004" y="1.67" class="k">&lt;</text><text x="4.008" y="1.67" class="k">224,</text><text x="9.018" y="1.67" class="k">3DES_EDE_CBC,</text><text x="23.046" y="1.67" class="k">anon,</text><text x="29.058" y="1.67" class="k">NULL</text><text y="3.841" class="k">INFO:</text><text x="6.012" y="3.841" class="k">Found</text><text x="12.024" y="3.841" class="k">string</text><text x="19.038" y="3.841" class="k">security</text><text x="28.056" y="3.841" class="k">property</text><text x="37.074" y="3.841" class="k">[jdk.certpath.disabledAlgorithms]:</text><text x="72.144" y="3.841" class="k">MD2,</text><text x="77.154" y="3.841" class="k">MD5,</text><text x="82.164" y="3.841" class="k">SHA1</text><text x="87.174" y="3.841" class="k">jdkCA</text><text x="93.186" y="3.841" class="k">&amp;</text><text x="95.19" y="3.841" class="k">usage</text><text x="101.202" y="3.841" class="k">TLSServer,</text><text x="112.224" y="3.841" class="k">RSA</text><text x="116.232" y="3.841" class="k">keySize</text><text x="124.248" y="3.841" class="k">&lt;</text><text x="126.252" y="3.841" class="k">1024,</text><text x="132.264" y="3.841" class="k">DSA</text><text x="136.272" y="3.841" class="k">keyS</text><text y="6.012" class="k">ize</text><text x="4.008" y="6.012" class="k">&lt;</text><text x="6.012" y="6.012" class="k">1024,</text><text x="12.024" y="6.012" class="k">EC</text><text x="15.03" y="6.012" class="k">keySize</text><text x="23.046" y="6.012" class="k">&lt;</text><text x="25.05" y="6.012" class="k">224</text><text y="8.183" class="k">WARNING:</text><text x="9.018" y="8.183" class="k">Ignoring</text><text x="18.036" y="8.183" class="k">unsupported</text><text x="30.06" y="8.183" class="k">entry</text><text x="36.072" y="8.183" class="k">in</text><text x="39.078" y="8.183" class="k">&apos;jdk.certpath.disabledAlgorithms&apos;:</text><text x="74.148" y="8.183" class="k">SHA1</text><text x="79.158" y="8.183" class="k">jdkCA</text><text x="85.17" y="8.183" class="k">&amp;</text><text x="87.174" y="8.183" class="k">usage</text><text x="93.186" y="8.183" class="k">TLSServer</text></svg></svg></g></g></svg></svg>