<svg xmlns="http://www.w3.org/2000/svg" xmlns:xlink="http://www.w3.org/1999/xlink" width="1440" height="168.55"><rect width="1440" height="168.55" rx="5" ry="5" class="a"/><svg y="0%" x="0%"><circle cx="20" cy="20" r="6" fill="#ff5f58"/><circle cx="40" cy="20" r="6" fill="#ffbd2e"/><circle cx="60" cy="20" r="6" fill="#18c132"/></svg><svg height="108.55" viewBox="0 0 140 10.855" width="1400" x="15" xmlns="http://www.w3.org/2000/svg" xmlns:xlink="http://www.w3.org/1999/xlink" y="50"><style>@keyframes i{0%{transform:translateX(0)}2%{transform:translateX(-140px)}2.4%{transform:translateX(-280px)}16%{transform:translateX(-420px)}23%{transform:translateX(-560px)}30.1%{transform:translateX(-700px)}37.2%{transform:translateX(-840px)}44.3%{transform:translateX(-980px)}51.1%{transform:translateX(-1120px)}58.2%{transform:translateX(-1260px)}65.2%{transform:translateX(-1400px)}72.2%{transform:translateX(-1540px)}79.2%{transform:translateX(-1680px)}85.9%{transform:translateX(-1820px)}92.9%{transform:translateX(-1960px)}99.9%{transform:translateX(-2100px)}to{transform:translateX(-2240px)}}.a{fill:#282d35}.f{fill:#fff;white-space:pre}</style><g font-family="Monaco,Consolas,Menlo,'Bitstream Vera Sans Mono','Powerline Symbols',monospace" font-size="1.67"><defs><symbol id="1"><text y="1.67" class="f">echo</text><text x="5.01" y="1.67" class="f">&apos;{&quot;name&quot;:&quot;thibaut&quot;,&quot;username&quot;:&quot;thibaut@conduktor.io&quot;,&quot;password&quot;:&quot;youpi&quot;,&quot;visa&quot;:&quot;#812SSS&quot;,&quot;address&quot;:&quot;Les</text><text x="109.218" y="1.67" class="f">ifs&quot;}&apos;</text><text x="116.232" y="1.67" class="f">|</text><text x="118.236" y="1.67" class="f">\</text></symbol><symbol id="2"><text x="4.008" y="1.67" class="f">kafka-console-producer</text><text x="27.054" y="1.67" class="f">\</text></symbol><symbol id="3"><text x="8.016" y="1.67" class="f">--bootstrap-server</text><text x="27.054" y="1.67" class="f">localhost:6969</text><text x="42.084" y="1.67" class="f">\</text></symbol><symbol id="4"><text x="8.016" y="1.67" class="f">--producer.config</text><text x="26.052" y="1.67" class="f">teamA-sa.properties</text><text x="46.092" y="1.67" class="f">\</text></symbol><symbol id="5"><text x="8.016" y="1.67" class="f">--topic</text><text x="16.032" y="1.67" class="f">users</text></symbol><symbol id="a"><path fill="transparent" d="M0 0h140v6H0z"/></symbol><symbol id="b"><path fill="#6f7683" d="M0 0h1.102v2.171H0z"/></symbol></defs><path class="a" d="M0 0h140v10.855H0z"/><g style="animation-duration:1.412913s;animation-iteration-count:infinite;animation-name:i;animation-timing-function:steps(1,end)"><svg width="2380"><svg><use xlink:href="#a"/><use xlink:href="#b" x="-.004"/></svg><svg x="140"><use xlink:href="#a"/><use xlink:href="#b" x="-.004"/></svg><svg x="280"><use xlink:href="#a"/><use xlink:href="#b" x="19.996"/><text y="1.67" class="f">echo</text><text x="5.01" y="1.67" class="f">&apos;{&quot;name&quot;:&quot;thiba</text></svg><svg x="420"><use xlink:href="#a"/><use xlink:href="#b" x="39.996"/><text y="1.67" class="f">echo</text><text x="5.01" y="1.67" class="f">&apos;{&quot;name&quot;:&quot;thibaut&quot;,&quot;username&quot;:&quot;thib</text></svg><svg x="560"><use xlink:href="#a"/><use xlink:href="#b" x="59.996"/><text y="1.67" class="f">echo</text><text x="5.01" y="1.67" class="f">&apos;{&quot;name&quot;:&quot;thibaut&quot;,&quot;username&quot;:&quot;thibaut@conduktor.io&quot;,&quot;p</text></svg><svg x="700"><use xlink:href="#a"/><use xlink:href="#b" x="79.996"/><text y="1.67" class="f">echo</text><text x="5.01" y="1.67" class="f">&apos;{&quot;name&quot;:&quot;thibaut&quot;,&quot;username&quot;:&quot;thibaut@conduktor.io&quot;,&quot;password&quot;:&quot;youpi&quot;,&quot;vi</text></svg><svg x="840"><use xlink:href="#a"/><use xlink:href="#b" x="99.996"/><text y="1.67" class="f">echo</text><text x="5.01" y="1.67" class="f">&apos;{&quot;name&quot;:&quot;thibaut&quot;,&quot;username&quot;:&quot;thibaut@conduktor.io&quot;,&quot;password&quot;:&quot;youpi&quot;,&quot;visa&quot;:&quot;#812SSS&quot;,&quot;addre</text></svg><svg x="980"><use xlink:href="#a"/><use xlink:href="#b" x="-.004" y="2.146"/><use xlink:href="#1"/></svg><svg x="1120"><use xlink:href="#a"/><use xlink:href="#b" x="19.996" y="2.146"/><use xlink:href="#1"/><text x="4.008" y="3.841" class="f">kafka-console-pr</text></svg><svg x="1260"><use xlink:href="#a"/><use xlink:href="#b" x="10.996" y="4.317"/><use xlink:href="#1"/><use xlink:href="#2" y="2.171"/><text x="8.016" y="6.012" class="f">--b</text></svg><svg x="1400"><use xlink:href="#a"/><use xlink:href="#b" x="30.996" y="4.317"/><use xlink:href="#1"/><use xlink:href="#2" y="2.171"/><text x="8.016" y="6.012" class="f">--bootstrap-server</text><text x="27.054" y="6.012" class="f">loca</text></svg><svg x="1540"><use xlink:href="#a"/><use xlink:href="#b" x="6.996" y="6.488"/><use xlink:href="#1"/><use xlink:href="#2" y="2.171"/><use xlink:href="#3" y="4.342"/></svg><svg x="1680"><use xlink:href="#a"/><use xlink:href="#b" x="26.996" y="6.488"/><use xlink:href="#1"/><use xlink:href="#2" y="2.171"/><use xlink:href="#3" y="4.342"/><text x="8.016" y="8.183" class="f">--producer.config</text><text x="26.052" y="8.183" class="f">t</text></svg><svg x="1820"><use xlink:href="#a"/><use xlink:href="#b" x="46.996" y="6.488"/><use xlink:href="#1"/><use xlink:href="#2" y="2.171"/><use xlink:href="#3" y="4.342"/><use xlink:href="#4" y="6.513"/></svg><svg x="1960"><use xlink:href="#a"/><use xlink:href="#b" x="18.996" y="8.659"/><use xlink:href="#1"/><use xlink:href="#2" y="2.171"/><use xlink:href="#3" y="4.342"/><use xlink:href="#4" y="6.513"/><text x="8.016" y="10.354" class="f">--topic</text><text x="16.032" y="10.354" class="f">use</text></svg><svg x="2100"><use xlink:href="#a"/><use xlink:href="#b" x="20.996" y="8.659"/><use xlink:href="#1"/><use xlink:href="#2" y="2.171"/><use xlink:href="#3" y="4.342"/><use xlink:href="#4" y="6.513"/><use xlink:href="#5" y="8.684"/></svg><svg x="2240"><use xlink:href="#a"/><use xlink:href="#b" x="-.004" y="10.83"/><use xlink:href="#1"/><use xlink:href="#2" y="2.171"/><use xlink:href="#3" y="4.342"/><use xlink:href="#4" y="6.513"/><use xlink:href="#5" y="8.684"/></svg></svg></g></g></svg></svg>