<svg xmlns="http://www.w3.org/2000/svg" xmlns:xlink="http://www.w3.org/1999/xlink" width="1440" height="407.36"><rect width="1440" height="407.36" rx="5" ry="5" class="a"/><svg y="0%" x="0%"><circle cx="20" cy="20" r="6" fill="#ff5f58"/><circle cx="40" cy="20" r="6" fill="#ffbd2e"/><circle cx="60" cy="20" r="6" fill="#18c132"/></svg><svg height="347.36" viewBox="0 0 140 34.736" width="1400" x="15" xmlns="http://www.w3.org/2000/svg" xmlns:xlink="http://www.w3.org/1999/xlink" y="50"><style>@keyframes i{0%{transform:translateX(0)}.4%{transform:translateX(-140px)}.6%{transform:translateX(-280px)}6.3%{transform:translateX(-420px)}9.3%{transform:translateX(-560px)}12.2%{transform:translateX(-700px)}15.2%{transform:translateX(-840px)}18.1%{transform:translateX(-980px)}20.9%{transform:translateX(-1120px)}23.9%{transform:translateX(-1260px)}26.9%{transform:translateX(-1400px)}29.9%{transform:translateX(-1540px)}32.8%{transform:translateX(-1680px)}35.8%{transform:translateX(-1820px)}41.7%{transform:translateX(-1960px)}44.7%{transform:translateX(-2100px)}47.7%{transform:translateX(-2240px)}50.7%{transform:translateX(-2380px)}53.8%{transform:translateX(-2520px)}56.7%{transform:translateX(-2660px)}59.7%{transform:translateX(-2800px)}62.6%{transform:translateX(-3080px)}to{transform:translateX(-3220px)}}.a{fill:#282d35}.f,.k{fill:#fff;white-space:pre}.k{fill:#b9c0cb}</style><g font-family="Monaco,Consolas,Menlo,'Bitstream Vera Sans Mono','Powerline Symbols',monospace" font-size="1.67"><defs><symbol id="1"><text y="1.67" class="f">kafka-topics</text><text x="13.026" y="1.67" class="f">\</text></symbol><symbol id="2"><text x="4.008" y="1.67" class="f">--bootstrap-server</text><text x="23.046" y="1.67" class="f">localhost:19092,localhost:19093,localhost:19094</text><text x="71.142" y="1.67" class="f">\</text></symbol><symbol id="3"><text x="4.008" y="1.67" class="f">--list</text></symbol><symbol id="a"><path fill="transparent" d="M0 0h140v17H0z"/></symbol><symbol id="b"><path fill="#6f7683" d="M0 0h1.102v2.171H0z"/></symbol></defs><path class="a" d="M0 0h140v34.736H0z"/><g style="animation-duration:3.144057s;animation-iteration-count:infinite;animation-name:i;animation-timing-function:steps(1,end)"><svg width="3360"><svg><use xlink:href="#a"/><use xlink:href="#b" x="-.004"/></svg><svg x="140"><use xlink:href="#a"/><use xlink:href="#b" x="-.004"/></svg><svg x="280"><use xlink:href="#a"/><use xlink:href="#b" x="4.996"/><text y="1.67" class="f">kafka</text></svg><svg x="420"><use xlink:href="#a"/><use xlink:href="#b" x="9.996"/><text y="1.67" class="f">kafka-topi</text></svg><svg x="560"><use xlink:href="#a"/><use xlink:href="#b" x="-.004" y="2.146"/><use xlink:href="#1"/></svg><svg x="700"><use xlink:href="#a"/><use xlink:href="#b" x="4.996" y="2.146"/><use xlink:href="#1"/><text x="4.008" y="3.841" class="f">-</text></svg><svg x="840"><use xlink:href="#a"/><use xlink:href="#b" x="9.996" y="2.146"/><use xlink:href="#1"/><text x="4.008" y="3.841" class="f">--boot</text></svg><svg x="980"><use xlink:href="#a"/><use xlink:href="#b" x="14.996" y="2.146"/><use xlink:href="#1"/><text x="4.008" y="3.841" class="f">--bootstrap</text></svg><svg x="1120"><use xlink:href="#a"/><use xlink:href="#b" x="19.996" y="2.146"/><use xlink:href="#1"/><text x="4.008" y="3.841" class="f">--bootstrap-serv</text></svg><svg x="1260"><use xlink:href="#a"/><use xlink:href="#b" x="24.996" y="2.146"/><use xlink:href="#1"/><text x="4.008" y="3.841" class="f">--bootstrap-server</text><text x="23.046" y="3.841" class="f">lo</text></svg><svg x="1400"><use xlink:href="#a"/><use xlink:href="#b" x="29.996" y="2.146"/><use xlink:href="#1"/><text x="4.008" y="3.841" class="f">--bootstrap-server</text><text x="23.046" y="3.841" class="f">localho</text></svg><svg x="1540"><use xlink:href="#a"/><use xlink:href="#b" x="34.996" y="2.146"/><use xlink:href="#1"/><text x="4.008" y="3.841" class="f">--bootstrap-server</text><text x="23.046" y="3.841" class="f">localhost:19</text></svg><svg x="1680"><use xlink:href="#a"/><use xlink:href="#b" x="39.996" y="2.146"/><use xlink:href="#1"/><text x="4.008" y="3.841" class="f">--bootstrap-server</text><text x="23.046" y="3.841" class="f">localhost:19092,l</text></svg><svg x="1820"><use xlink:href="#a"/><use xlink:href="#b" x="44.996" y="2.146"/><use xlink:href="#1"/><text x="4.008" y="3.841" class="f">--bootstrap-server</text><text x="23.046" y="3.841" class="f">localhost:19092,localh</text></svg><svg x="1960"><use xlink:href="#a"/><use xlink:href="#b" x="49.996" y="2.146"/><use xlink:href="#1"/><text x="4.008" y="3.841" class="f">--bootstrap-server</text><text x="23.046" y="3.841" class="f">localhost:19092,localhost:1</text></svg><svg x="2100"><use xlink:href="#a"/><use xlink:href="#b" x="54.996" y="2.146"/><use xlink:href="#1"/><text x="4.008" y="3.841" class="f">--bootstrap-server</text><text x="23.046" y="3.841" class="f">localhost:19092,localhost:19093,</text></svg><svg x="2240"><use xlink:href="#a"/><use xlink:href="#b" x="59.996" y="2.146"/><use xlink:href="#1"/><text x="4.008" y="3.841" class="f">--bootstrap-server</text><text x="23.046" y="3.841" class="f">localhost:19092,localhost:19093,local</text></svg><svg x="2380"><use xlink:href="#a"/><use xlink:href="#b" x="64.996" y="2.146"/><use xlink:href="#1"/><text x="4.008" y="3.841" class="f">--bootstrap-server</text><text x="23.046" y="3.841" class="f">localhost:19092,localhost:19093,localhost:</text></svg><svg x="2520"><use xlink:href="#a"/><use xlink:href="#b" x="69.996" y="2.146"/><use xlink:href="#1"/><text x="4.008" y="3.841" class="f">--bootstrap-server</text><text x="23.046" y="3.841" class="f">localhost:19092,localhost:19093,localhost:19094</text></svg><svg x="2660"><use xlink:href="#a"/><use xlink:href="#b" x="1.996" y="4.317"/><use xlink:href="#1"/><use xlink:href="#2" y="2.171"/></svg><svg x="2800"><use xlink:href="#a"/><use xlink:href="#b" x="6.996" y="4.317"/><use xlink:href="#1"/><use xlink:href="#2" y="2.171"/><text x="4.008" y="6.012" class="f">--l</text></svg><svg x="2940"><use xlink:href="#a"/><use xlink:href="#b" x="-.004" y="6.488"/><use xlink:href="#1"/><use xlink:href="#2" y="2.171"/><use xlink:href="#3" y="4.342"/></svg><svg x="3080"><use xlink:href="#a"/><use xlink:href="#b" x="-.004" y="8.659"/><use xlink:href="#1"/><use xlink:href="#2" y="2.171"/><use xlink:href="#3" y="4.342"/></svg><svg x="3220"><use xlink:href="#a"/><use xlink:href="#b" x="-.004" y="34.711"/><use xlink:href="#1"/><use xlink:href="#2" y="2.171"/><use xlink:href="#3" y="4.342"/><text y="10.354" class="k">__consumer_offsets</text><text y="12.525" class="k">_acls</text><text y="14.696" class="k">_auditLogs</text><text y="16.867" class="k">_consumerGroupSubscriptionBackingTopic</text><text y="19.038" class="k">_encryptionConfig</text><text y="21.209" class="k">_interceptorConfigs</text><text y="23.38" class="k">_license</text><text y="25.551" class="k">_offsetStore</text><text y="27.722" class="k">_schemas</text><text y="29.893" class="k">_topicMappings</text><text y="32.064" class="k">_topicRegistry</text><text y="34.235" class="k">_userMapping</text></svg></svg></g></g></svg></svg>