<svg xmlns="http://www.w3.org/2000/svg" xmlns:xlink="http://www.w3.org/1999/xlink" width="1440" height="211.97"><rect width="1440" height="211.97" rx="5" ry="5" class="a"/><svg y="0%" x="0%"><circle cx="20" cy="20" r="6" fill="#ff5f58"/><circle cx="40" cy="20" r="6" fill="#ffbd2e"/><circle cx="60" cy="20" r="6" fill="#18c132"/></svg><svg height="151.97" viewBox="0 0 140 15.197" width="1400" x="15" xmlns="http://www.w3.org/2000/svg" xmlns:xlink="http://www.w3.org/1999/xlink" y="50"><style>@keyframes i{0%{transform:translateX(0)}2%{transform:translateX(-140px)}2.9%{transform:translateX(-280px)}11.9%{transform:translateX(-420px)}16.6%{transform:translateX(-560px)}21.2%{transform:translateX(-700px)}25.9%{transform:translateX(-840px)}30.5%{transform:translateX(-980px)}35.2%{transform:translateX(-1120px)}39.8%{transform:translateX(-1260px)}44.5%{transform:translateX(-1400px)}49.2%{transform:translateX(-1540px)}53.9%{transform:translateX(-1680px)}54.1%{transform:translateX(-1820px)}to{transform:translateX(-1960px)}}.a{fill:#282d35}.f,.k{fill:#fff;white-space:pre}.k{fill:#b9c0cb}</style><g font-family="Monaco,Consolas,Menlo,'Bitstream Vera Sans Mono','Powerline Symbols',monospace" font-size="1.67"><defs><symbol id="1"><text y="1.67" class="f">kafka-topics</text><text x="13.026" y="1.67" class="f">\</text></symbol><symbol id="2"><text x="4.008" y="1.67" class="f">-</text></symbol><symbol id="3"><text x="4.008" y="1.67" class="f">--bootstrap-server</text><text x="23.046" y="1.67" class="f">localhost:6969</text><text x="38.076" y="1.67" class="f">\</text></symbol><symbol id="4"><text x="4.008" y="1.67" class="f">--command-config</text><text x="21.042" y="1.67" class="f">london-sa.properties</text><text x="42.084" y="1.67" class="f">\</text></symbol><symbol id="5"><text x="4.008" y="1.67" class="f">--list</text></symbol><symbol id="a"><path fill="transparent" d="M0 0h140v8H0z"/></symbol><symbol id="b"><path fill="#6f7683" d="M0 0h1.102v2.171H0z"/></symbol></defs><path class="a" d="M0 0h140v15.197H0z"/><g style="animation-duration:2.017998s;animation-iteration-count:infinite;animation-name:i;animation-timing-function:steps(1,end)"><svg width="2100"><svg><use xlink:href="#a"/><use xlink:href="#b" x="-.004"/></svg><svg x="140"><use xlink:href="#a"/><use xlink:href="#b" x="-.004"/></svg><svg x="280"><use xlink:href="#a"/><use xlink:href="#b" x="9.996"/><text y="1.67" class="f">kafka-topi</text></svg><svg x="420"><use xlink:href="#a"/><use xlink:href="#b" x="4.996" y="2.146"/><use xlink:href="#1"/><use xlink:href="#2" y="2.171"/></svg><svg x="560"><use xlink:href="#a"/><use xlink:href="#b" x="14.996" y="2.146"/><use xlink:href="#1"/><text x="4.008" y="3.841" class="f">--bootstrap</text></svg><svg x="700"><use xlink:href="#a"/><use xlink:href="#b" x="24.996" y="2.146"/><use xlink:href="#1"/><text x="4.008" y="3.841" class="f">--bootstrap-server</text><text x="23.046" y="3.841" class="f">lo</text></svg><svg x="840"><use xlink:href="#a"/><use xlink:href="#b" x="34.996" y="2.146"/><use xlink:href="#1"/><text x="4.008" y="3.841" class="f">--bootstrap-server</text><text x="23.046" y="3.841" class="f">localhost:69</text></svg><svg x="980"><use xlink:href="#a"/><use xlink:href="#b" x="4.996" y="4.317"/><use xlink:href="#1"/><use xlink:href="#3" y="2.171"/><use xlink:href="#2" y="4.342"/></svg><svg x="1120"><use xlink:href="#a"/><use xlink:href="#b" x="14.996" y="4.317"/><use xlink:href="#1"/><use xlink:href="#3" y="2.171"/><text x="4.008" y="6.012" class="f">--command-c</text></svg><svg x="1260"><use xlink:href="#a"/><use xlink:href="#b" x="24.996" y="4.317"/><use xlink:href="#1"/><use xlink:href="#3" y="2.171"/><text x="4.008" y="6.012" class="f">--command-config</text><text x="21.042" y="6.012" class="f">lond</text></svg><svg x="1400"><use xlink:href="#a"/><use xlink:href="#b" x="34.996" y="4.317"/><use xlink:href="#1"/><use xlink:href="#3" y="2.171"/><text x="4.008" y="6.012" class="f">--command-config</text><text x="21.042" y="6.012" class="f">london-sa.prop</text></svg><svg x="1540"><use xlink:href="#a"/><use xlink:href="#b" x=".996" y="6.488"/><use xlink:href="#1"/><use xlink:href="#3" y="2.171"/><use xlink:href="#4" y="4.342"/></svg><svg x="1680"><use xlink:href="#a"/><use xlink:href="#b" x="-.004" y="8.659"/><use xlink:href="#1"/><use xlink:href="#3" y="2.171"/><use xlink:href="#4" y="4.342"/><use xlink:href="#5" y="6.513"/></svg><svg x="1820"><use xlink:href="#a"/><use xlink:href="#b" x="-.004" y="10.83"/><use xlink:href="#1"/><use xlink:href="#3" y="2.171"/><use xlink:href="#4" y="4.342"/><use xlink:href="#5" y="6.513"/></svg><svg x="1960"><use xlink:href="#a"/><use xlink:href="#b" x="-.004" y="15.172"/><use xlink:href="#1"/><use xlink:href="#3" y="2.171"/><use xlink:href="#4" y="4.342"/><use xlink:href="#5" y="6.513"/><text y="12.525" class="k">existingLondonTopic</text><text y="14.696" class="k">londonTopic</text></svg></svg></g></g></svg></svg>