<svg xmlns="http://www.w3.org/2000/svg" xmlns:xlink="http://www.w3.org/1999/xlink" width="1440" height="233.68"><rect width="1440" height="233.68" rx="5" ry="5" class="a"/><svg y="0%" x="0%"><circle cx="20" cy="20" r="6" fill="#ff5f58"/><circle cx="40" cy="20" r="6" fill="#ffbd2e"/><circle cx="60" cy="20" r="6" fill="#18c132"/></svg><svg height="173.68" viewBox="0 0 140 17.368" width="1400" x="15" xmlns="http://www.w3.org/2000/svg" xmlns:xlink="http://www.w3.org/1999/xlink" y="50"><style>@keyframes i{0%{transform:translateX(0)}.3%{transform:translateX(-140px)}.4%{transform:translateX(-280px)}7.1%{transform:translateX(-420px)}10.5%{transform:translateX(-560px)}13.9%{transform:translateX(-700px)}17.3%{transform:translateX(-840px)}20.7%{transform:translateX(-980px)}24.1%{transform:translateX(-1120px)}27.4%{transform:translateX(-1260px)}30.7%{transform:translateX(-1400px)}34.1%{transform:translateX(-1540px)}37.4%{transform:translateX(-1680px)}40.8%{transform:translateX(-1820px)}44.3%{transform:translateX(-1960px)}47.5%{transform:translateX(-2100px)}50.8%{transform:translateX(-2240px)}54.2%{transform:translateX(-2380px)}60.9%{transform:translateX(-2520px)}64.1%{transform:translateX(-2660px)}67.5%{transform:translateX(-2800px)}70.8%{transform:translateX(-2940px)}74.3%{transform:translateX(-3080px)}74.4%{transform:translateX(-3220px)}to{transform:translateX(-3360px)}}.a{fill:#282d35}.f,.k{fill:#fff;white-space:pre}.k{fill:#b9c0cb}</style><g font-family="Monaco,Consolas,Menlo,'Bitstream Vera Sans Mono','Powerline Symbols',monospace" font-size="1.67"><defs><symbol id="1"><text y="1.67" class="f">docker</text><text x="7.014" y="1.67" class="f">compose</text><text x="15.03" y="1.67" class="f">exec</text><text x="20.04" y="1.67" class="f">cli-aws</text><text x="28.056" y="1.67" class="f">\</text></symbol><symbol id="2"><text x="4.008" y="1.67" class="f">aws</text><text x="8.016" y="1.67" class="f">\</text></symbol><symbol id="3"><text x="8.016" y="1.67" class="f">--profile</text><text x="18.036" y="1.67" class="f">minio</text><text x="24.048" y="1.67" class="f">\</text></symbol><symbol id="4"><text x="8.016" y="1.67" class="f">--endpoint-url=http://minio:9000</text><text x="41.082" y="1.67" class="f">\</text></symbol><symbol id="5"><text x="8.016" y="1.67" class="f">--region</text><text x="17.034" y="1.67" class="f">eu-south-1</text><text x="28.056" y="1.67" class="f">\</text></symbol><symbol id="6"><text x="8.016" y="1.67" class="f">s3</text><text x="11.022" y="1.67" class="f">\</text></symbol><symbol id="7"><text x="8.016" y="1.67" class="f">ls</text><text x="11.022" y="1.67" class="f">s3://bucket</text><text x="23.046" y="1.67" class="f">--recursive</text><text x="35.07" y="1.67" class="f">--human-readable</text></symbol><symbol id="a"><path fill="transparent" d="M0 0h140v9H0z"/></symbol><symbol id="b"><path fill="#6f7683" d="M0 0h1.102v2.171H0z"/></symbol></defs><path class="a" d="M0 0h140v17.368H0z"/><g style="animation-duration:2.797991s;animation-iteration-count:infinite;animation-name:i;animation-timing-function:steps(1,end)"><svg width="3500"><svg><use xlink:href="#a"/><use xlink:href="#b" x="-.004"/></svg><svg x="140"><use xlink:href="#a"/><use xlink:href="#b" x="-.004"/></svg><svg x="280"><use xlink:href="#a"/><use xlink:href="#b" x="9.996"/><text y="1.67" class="f">docker</text><text x="7.014" y="1.67" class="f">com</text></svg><svg x="420"><use xlink:href="#a"/><use xlink:href="#b" x="19.996"/><text y="1.67" class="f">docker</text><text x="7.014" y="1.67" class="f">compose</text><text x="15.03" y="1.67" class="f">exec</text></svg><svg x="560"><use xlink:href="#a"/><use xlink:href="#b" x="-.004" y="2.146"/><use xlink:href="#1"/></svg><svg x="700"><use xlink:href="#a"/><use xlink:href="#b" x="-.004" y="4.317"/><use xlink:href="#1"/><use xlink:href="#2" y="2.171"/></svg><svg x="840"><use xlink:href="#a"/><use xlink:href="#b" x="9.996" y="4.317"/><use xlink:href="#1"/><use xlink:href="#2" y="2.171"/><text x="8.016" y="6.012" class="f">--</text></svg><svg x="980"><use xlink:href="#a"/><use xlink:href="#b" x="19.996" y="4.317"/><use xlink:href="#1"/><use xlink:href="#2" y="2.171"/><text x="8.016" y="6.012" class="f">--profile</text><text x="18.036" y="6.012" class="f">mi</text></svg><svg x="1120"><use xlink:href="#a"/><use xlink:href="#b" x="3.996" y="6.488"/><use xlink:href="#1"/><use xlink:href="#2" y="2.171"/><use xlink:href="#3" y="4.342"/></svg><svg x="1260"><use xlink:href="#a"/><use xlink:href="#b" x="13.996" y="6.488"/><use xlink:href="#1"/><use xlink:href="#2" y="2.171"/><use xlink:href="#3" y="4.342"/><text x="8.016" y="8.183" class="f">--endp</text></svg><svg x="1400"><use xlink:href="#a"/><use xlink:href="#b" x="23.996" y="6.488"/><use xlink:href="#1"/><use xlink:href="#2" y="2.171"/><use xlink:href="#3" y="4.342"/><text x="8.016" y="8.183" class="f">--endpoint-url=h</text></svg><svg x="1540"><use xlink:href="#a"/><use xlink:href="#b" x="33.996" y="6.488"/><use xlink:href="#1"/><use xlink:href="#2" y="2.171"/><use xlink:href="#3" y="4.342"/><text x="8.016" y="8.183" class="f">--endpoint-url=http://mini</text></svg><svg x="1680"><use xlink:href="#a"/><use xlink:href="#b" x=".996" y="8.659"/><use xlink:href="#1"/><use xlink:href="#2" y="2.171"/><use xlink:href="#3" y="4.342"/><use xlink:href="#4" y="6.513"/></svg><svg x="1820"><use xlink:href="#a"/><use xlink:href="#b" x="10.996" y="8.659"/><use xlink:href="#1"/><use xlink:href="#2" y="2.171"/><use xlink:href="#3" y="4.342"/><use xlink:href="#4" y="6.513"/><text x="8.016" y="10.354" class="f">--r</text></svg><svg x="1960"><use xlink:href="#a"/><use xlink:href="#b" x="20.996" y="8.659"/><use xlink:href="#1"/><use xlink:href="#2" y="2.171"/><use xlink:href="#3" y="4.342"/><use xlink:href="#4" y="6.513"/><text x="8.016" y="10.354" class="f">--region</text><text x="17.034" y="10.354" class="f">eu-s</text></svg><svg x="2100"><use xlink:href="#a"/><use xlink:href="#b" x=".996" y="10.83"/><use xlink:href="#1"/><use xlink:href="#2" y="2.171"/><use xlink:href="#3" y="4.342"/><use xlink:href="#4" y="6.513"/><use xlink:href="#5" y="8.684"/></svg><svg x="2240"><use xlink:href="#a"/><use xlink:href="#b" x="10.996" y="10.83"/><use xlink:href="#1"/><use xlink:href="#2" y="2.171"/><use xlink:href="#3" y="4.342"/><use xlink:href="#4" y="6.513"/><use xlink:href="#5" y="8.684"/><text x="8.016" y="12.525" class="f">s3</text></svg><svg x="2380"><use xlink:href="#a"/><use xlink:href="#b" x="7.996" y="13.001"/><use xlink:href="#1"/><use xlink:href="#2" y="2.171"/><use xlink:href="#3" y="4.342"/><use xlink:href="#4" y="6.513"/><use xlink:href="#5" y="8.684"/><use xlink:href="#6" y="10.855"/></svg><svg x="2520"><use xlink:href="#a"/><use xlink:href="#b" x="17.996" y="13.001"/><use xlink:href="#1"/><use xlink:href="#2" y="2.171"/><use xlink:href="#3" y="4.342"/><use xlink:href="#4" y="6.513"/><use xlink:href="#5" y="8.684"/><use xlink:href="#6" y="10.855"/><text x="8.016" y="14.696" class="f">ls</text><text x="11.022" y="14.696" class="f">s3://bu</text></svg><svg x="2660"><use xlink:href="#a"/><use xlink:href="#b" x="27.996" y="13.001"/><use xlink:href="#1"/><use xlink:href="#2" y="2.171"/><use xlink:href="#3" y="4.342"/><use xlink:href="#4" y="6.513"/><use xlink:href="#5" y="8.684"/><use xlink:href="#6" y="10.855"/><text x="8.016" y="14.696" class="f">ls</text><text x="11.022" y="14.696" class="f">s3://bucket</text><text x="23.046" y="14.696" class="f">--rec</text></svg><svg x="2800"><use xlink:href="#a"/><use xlink:href="#b" x="37.996" y="13.001"/><use xlink:href="#1"/><use xlink:href="#2" y="2.171"/><use xlink:href="#3" y="4.342"/><use xlink:href="#4" y="6.513"/><use xlink:href="#5" y="8.684"/><use xlink:href="#6" y="10.855"/><text x="8.016" y="14.696" class="f">ls</text><text x="11.022" y="14.696" class="f">s3://bucket</text><text x="23.046" y="14.696" class="f">--recursive</text><text x="35.07" y="14.696" class="f">--h</text></svg><svg x="2940"><use xlink:href="#a"/><use xlink:href="#b" x="47.996" y="13.001"/><use xlink:href="#1"/><use xlink:href="#2" y="2.171"/><use xlink:href="#3" y="4.342"/><use xlink:href="#4" y="6.513"/><use xlink:href="#5" y="8.684"/><use xlink:href="#6" y="10.855"/><text x="8.016" y="14.696" class="f">ls</text><text x="11.022" y="14.696" class="f">s3://bucket</text><text x="23.046" y="14.696" class="f">--recursive</text><text x="35.07" y="14.696" class="f">--human-reada</text></svg><svg x="3080"><use xlink:href="#a"/><use xlink:href="#b" x="50.996" y="13.001"/><use xlink:href="#1"/><use xlink:href="#2" y="2.171"/><use xlink:href="#3" y="4.342"/><use xlink:href="#4" y="6.513"/><use xlink:href="#5" y="8.684"/><use xlink:href="#6" y="10.855"/><use xlink:href="#7" y="13.026"/></svg><svg x="3220"><use xlink:href="#a"/><use xlink:href="#b" x="-.004" y="15.172"/><use xlink:href="#1"/><use xlink:href="#2" y="2.171"/><use xlink:href="#3" y="4.342"/><use xlink:href="#4" y="6.513"/><use xlink:href="#5" y="8.684"/><use xlink:href="#6" y="10.855"/><use xlink:href="#7" y="13.026"/></svg><svg x="3360"><use xlink:href="#a"/><use xlink:href="#b" x="-.004" y="17.343"/><use xlink:href="#1"/><use xlink:href="#2" y="2.171"/><use xlink:href="#3" y="4.342"/><use xlink:href="#4" y="6.513"/><use xlink:href="#5" y="8.684"/><use xlink:href="#6" y="10.855"/><use xlink:href="#7" y="13.026"/><text y="16.867" class="k">2024-01-22</text><text x="11.022" y="16.867" class="k">22:44:57</text><text x="22.044" y="16.867" class="k">40.0</text><text x="27.054" y="16.867" class="k">MiB</text><text x="31.062" y="16.867" class="k">large-messages/d71215cb-01e7-4209-bdc6-731e5e5a326f</text></svg></svg></g></g></svg></svg>