<svg xmlns="http://www.w3.org/2000/svg" xmlns:xlink="http://www.w3.org/1999/xlink" width="1440" height="125.13"><rect width="1440" height="125.13" rx="5" ry="5" class="a"/><svg y="0%" x="0%"><circle cx="20" cy="20" r="6" fill="#ff5f58"/><circle cx="40" cy="20" r="6" fill="#ffbd2e"/><circle cx="60" cy="20" r="6" fill="#18c132"/></svg><svg height="65.13" viewBox="0 0 140 6.513" width="1400" x="15" xmlns="http://www.w3.org/2000/svg" xmlns:xlink="http://www.w3.org/1999/xlink" y="50"><style>@keyframes i{0%{transform:translateX(0)}4.1%{transform:translateX(-140px)}5.3%{transform:translateX(-280px)}52.1%{transform:translateX(-420px)}74.9%{transform:translateX(-560px)}98.4%{transform:translateX(-700px)}98.5%{transform:translateX(-840px)}to{transform:translateX(-980px)}}.a{fill:#282d35}.f,.k{fill:#fff;white-space:pre}.k{fill:#b9c0cb}</style><g font-family="Monaco,Consolas,Menlo,'Bitstream Vera Sans Mono','Powerline Symbols',monospace" font-size="1.67"><defs><symbol id="1"><text y="1.67" class="f">ls</text><text x="3.006" y="1.67" class="f">-lH</text><text x="7.014" y="1.67" class="f">*bin</text></symbol><symbol id="a"><path fill="transparent" d="M0 0h140v4H0z"/></symbol><symbol id="b"><path fill="#6f7683" d="M0 0h1.102v2.171H0z"/></symbol></defs><path class="a" d="M0 0h140v6.513H0z"/><g style="animation-duration:.398636s;animation-iteration-count:infinite;animation-name:i;animation-timing-function:steps(1,end)"><svg width="1120"><svg><use xlink:href="#a"/><use xlink:href="#b" x="-.004"/></svg><svg x="140"><use xlink:href="#a"/><use xlink:href="#b" x="-.004"/></svg><svg x="280"><use xlink:href="#a"/><use xlink:href="#b" x="2.996"/><text y="1.67" class="f">ls</text></svg><svg x="420"><use xlink:href="#a"/><use xlink:href="#b" x="5.996"/><text y="1.67" class="f">ls</text><text x="3.006" y="1.67" class="f">-lH</text></svg><svg x="560"><use xlink:href="#a"/><use xlink:href="#b" x="8.996"/><text y="1.67" class="f">ls</text><text x="3.006" y="1.67" class="f">-lH</text><text x="7.014" y="1.67" class="f">*b</text></svg><svg x="700"><use xlink:href="#a"/><use xlink:href="#b" x="10.996"/><use xlink:href="#1"/></svg><svg x="840"><use xlink:href="#a"/><use xlink:href="#b" x="-.004" y="2.146"/><use xlink:href="#1"/></svg><svg x="980"><use xlink:href="#a"/><use xlink:href="#b" x="-.004" y="6.488"/><use xlink:href="#1"/><text y="3.841" class="k">-rw-r--r--@</text><text x="12.024" y="3.841" class="k">1</text><text x="14.028" y="3.841" class="k">framiere</text><text x="24.048" y="3.841" class="k">staff</text><text x="31.062" y="3.841" class="k">41943052</text><text x="40.08" y="3.841" class="k">Jan</text><text x="44.088" y="3.841" class="k">22</text><text x="47.094" y="3.841" class="k">23:45</text><text x="53.106" y="3.841" class="k">from-kafka.bin</text><text y="6.012" class="k">-rw-r--r--@</text><text x="12.024" y="6.012" class="k">1</text><text x="14.028" y="6.012" class="k">framiere</text><text x="24.048" y="6.012" class="k">staff</text><text x="31.062" y="6.012" class="k">41943041</text><text x="40.08" y="6.012" class="k">Jan</text><text x="44.088" y="6.012" class="k">22</text><text x="47.094" y="6.012" class="k">23:44</text><text x="53.106" y="6.012" class="k">large-message.bin</text></svg></svg></g></g></svg></svg>