<svg xmlns="http://www.w3.org/2000/svg" xmlns:xlink="http://www.w3.org/1999/xlink" width="1440" height="125.13"><rect width="1440" height="125.13" rx="5" ry="5" class="a"/><svg y="0%" x="0%"><circle cx="20" cy="20" r="6" fill="#ff5f58"/><circle cx="40" cy="20" r="6" fill="#ffbd2e"/><circle cx="60" cy="20" r="6" fill="#18c132"/></svg><svg height="65.13" viewBox="0 0 140 6.513" width="1400" x="15" xmlns="http://www.w3.org/2000/svg" xmlns:xlink="http://www.w3.org/1999/xlink" y="50"><style>@keyframes i{0%{transform:translateX(0)}.5%{transform:translateX(-140px)}.7%{transform:translateX(-280px)}6.5%{transform:translateX(-420px)}9.5%{transform:translateX(-560px)}12.4%{transform:translateX(-700px)}15.4%{transform:translateX(-840px)}18.2%{transform:translateX(-980px)}21%{transform:translateX(-1120px)}24%{transform:translateX(-1260px)}26.9%{transform:translateX(-1400px)}29.8%{transform:translateX(-1540px)}32.7%{transform:translateX(-1680px)}35.6%{transform:translateX(-1820px)}38.5%{transform:translateX(-1960px)}41.4%{transform:translateX(-2100px)}47.2%{transform:translateX(-2240px)}50%{transform:translateX(-2380px)}52.9%{transform:translateX(-2520px)}53%{transform:translateX(-2660px)}to{transform:translateX(-2800px)}}.a{fill:#282d35}.f,.k{fill:#fff;white-space:pre}.k{fill:#b9c0cb}</style><g font-family="Monaco,Consolas,Menlo,'Bitstream Vera Sans Mono','Powerline Symbols',monospace" font-size="1.67"><defs><symbol id="1"><text y="1.67" class="f">openssl</text><text x="8.016" y="1.67" class="f">rand</text><text x="13.026" y="1.67" class="f">-hex</text><text x="18.036" y="1.67" class="f">$((20*1024*1024))</text><text x="36.072" y="1.67" class="f">&gt;</text><text x="38.076" y="1.67" class="f">large-message.bin</text></symbol><symbol id="2"><text y="1.67" class="f">ls</text><text x="3.006" y="1.67" class="f">-lh</text><text x="7.014" y="1.67" class="f">large-message.bin</text></symbol><symbol id="a"><path fill="transparent" d="M0 0h140v4H0z"/></symbol><symbol id="b"><path fill="#6f7683" d="M0 0h1.102v2.171H0z"/></symbol></defs><path class="a" d="M0 0h140v6.513H0z"/><g style="animation-duration:3.210972s;animation-iteration-count:infinite;animation-name:i;animation-timing-function:steps(1,end)"><svg width="2940"><svg><use xlink:href="#a"/><use xlink:href="#b" x="-.004"/></svg><svg x="140"><use xlink:href="#a"/><use xlink:href="#b" x="-.004"/></svg><svg x="280"><use xlink:href="#a"/><use xlink:href="#b" x="4.996"/><text y="1.67" class="f">opens</text></svg><svg x="420"><use xlink:href="#a"/><use xlink:href="#b" x="9.996"/><text y="1.67" class="f">openssl</text><text x="8.016" y="1.67" class="f">ra</text></svg><svg x="560"><use xlink:href="#a"/><use xlink:href="#b" x="14.996"/><text y="1.67" class="f">openssl</text><text x="8.016" y="1.67" class="f">rand</text><text x="13.026" y="1.67" class="f">-h</text></svg><svg x="700"><use xlink:href="#a"/><use xlink:href="#b" x="19.996"/><text y="1.67" class="f">openssl</text><text x="8.016" y="1.67" class="f">rand</text><text x="13.026" y="1.67" class="f">-hex</text><text x="18.036" y="1.67" class="f">$(</text></svg><svg x="840"><use xlink:href="#a"/><use xlink:href="#b" x="24.996"/><text y="1.67" class="f">openssl</text><text x="8.016" y="1.67" class="f">rand</text><text x="13.026" y="1.67" class="f">-hex</text><text x="18.036" y="1.67" class="f">$((20*1</text></svg><svg x="980"><use xlink:href="#a"/><use xlink:href="#b" x="29.996"/><text y="1.67" class="f">openssl</text><text x="8.016" y="1.67" class="f">rand</text><text x="13.026" y="1.67" class="f">-hex</text><text x="18.036" y="1.67" class="f">$((20*1024*1</text></svg><svg x="1120"><use xlink:href="#a"/><use xlink:href="#b" x="34.996"/><text y="1.67" class="f">openssl</text><text x="8.016" y="1.67" class="f">rand</text><text x="13.026" y="1.67" class="f">-hex</text><text x="18.036" y="1.67" class="f">$((20*1024*1024))</text></svg><svg x="1260"><use xlink:href="#a"/><use xlink:href="#b" x="39.996"/><text y="1.67" class="f">openssl</text><text x="8.016" y="1.67" class="f">rand</text><text x="13.026" y="1.67" class="f">-hex</text><text x="18.036" y="1.67" class="f">$((20*1024*1024))</text><text x="36.072" y="1.67" class="f">&gt;</text><text x="38.076" y="1.67" class="f">la</text></svg><svg x="1400"><use xlink:href="#a"/><use xlink:href="#b" x="44.996"/><text y="1.67" class="f">openssl</text><text x="8.016" y="1.67" class="f">rand</text><text x="13.026" y="1.67" class="f">-hex</text><text x="18.036" y="1.67" class="f">$((20*1024*1024))</text><text x="36.072" y="1.67" class="f">&gt;</text><text x="38.076" y="1.67" class="f">large-m</text></svg><svg x="1540"><use xlink:href="#a"/><use xlink:href="#b" x="49.996"/><text y="1.67" class="f">openssl</text><text x="8.016" y="1.67" class="f">rand</text><text x="13.026" y="1.67" class="f">-hex</text><text x="18.036" y="1.67" class="f">$((20*1024*1024))</text><text x="36.072" y="1.67" class="f">&gt;</text><text x="38.076" y="1.67" class="f">large-messag</text></svg><svg x="1680"><use xlink:href="#a"/><use xlink:href="#b" x="54.996"/><use xlink:href="#1"/></svg><svg x="1820"><use xlink:href="#a"/><use xlink:href="#b" x="2.996" y="2.146"/><use xlink:href="#1"/><text y="3.841" class="f">ls</text></svg><svg x="1960"><use xlink:href="#a"/><use xlink:href="#b" x="7.996" y="2.146"/><use xlink:href="#1"/><text y="3.841" class="f">ls</text><text x="3.006" y="3.841" class="f">-lh</text><text x="7.014" y="3.841" class="f">l</text></svg><svg x="2100"><use xlink:href="#a"/><use xlink:href="#b" x="12.996" y="2.146"/><use xlink:href="#1"/><text y="3.841" class="f">ls</text><text x="3.006" y="3.841" class="f">-lh</text><text x="7.014" y="3.841" class="f">large-</text></svg><svg x="2240"><use xlink:href="#a"/><use xlink:href="#b" x="17.996" y="2.146"/><use xlink:href="#1"/><text y="3.841" class="f">ls</text><text x="3.006" y="3.841" class="f">-lh</text><text x="7.014" y="3.841" class="f">large-messa</text></svg><svg x="2380"><use xlink:href="#a"/><use xlink:href="#b" x="22.996" y="2.146"/><use xlink:href="#1"/><text y="3.841" class="f">ls</text><text x="3.006" y="3.841" class="f">-lh</text><text x="7.014" y="3.841" class="f">large-message.bi</text></svg><svg x="2520"><use xlink:href="#a"/><use xlink:href="#b" x="23.996" y="2.146"/><use xlink:href="#1"/><use xlink:href="#2" y="2.171"/></svg><svg x="2660"><use xlink:href="#a"/><use xlink:href="#b" x="-.004" y="4.317"/><use xlink:href="#1"/><use xlink:href="#2" y="2.171"/></svg><svg x="2800"><use xlink:href="#a"/><use xlink:href="#b" x="-.004" y="6.488"/><use xlink:href="#1"/><use xlink:href="#2" y="2.171"/><text y="6.012" class="k">-rw-r--r--@</text><text x="12.024" y="6.012" class="k">1</text><text x="14.028" y="6.012" class="k">framiere</text><text x="24.048" y="6.012" class="k">staff</text><text x="33.066" y="6.012" class="k">40M</text><text x="37.074" y="6.012" class="k">Jan</text><text x="41.082" y="6.012" class="k">22</text><text x="44.088" y="6.012" class="k">23:44</text><text x="50.1" y="6.012" class="k">large-message.bin</text></svg></svg></g></g></svg></svg>