<svg xmlns="http://www.w3.org/2000/svg" xmlns:xlink="http://www.w3.org/1999/xlink" width="1440" height="233.68"><rect width="1440" height="233.68" rx="5" ry="5" class="a"/><svg y="0%" x="0%"><circle cx="20" cy="20" r="6" fill="#ff5f58"/><circle cx="40" cy="20" r="6" fill="#ffbd2e"/><circle cx="60" cy="20" r="6" fill="#18c132"/></svg><svg height="173.68" viewBox="0 0 140 17.368" width="1400" x="15" xmlns="http://www.w3.org/2000/svg" xmlns:xlink="http://www.w3.org/1999/xlink" y="50"><style>@keyframes i{0%{transform:translateX(0)}.4%{transform:translateX(-140px)}.5%{transform:translateX(-280px)}4.8%{transform:translateX(-420px)}7%{transform:translateX(-560px)}9.2%{transform:translateX(-700px)}11.4%{transform:translateX(-840px)}13.6%{transform:translateX(-980px)}15.7%{transform:translateX(-1120px)}17.9%{transform:translateX(-1260px)}20.1%{transform:translateX(-1400px)}22.3%{transform:translateX(-1540px)}24.5%{transform:translateX(-1680px)}26.6%{transform:translateX(-1820px)}28.9%{transform:translateX(-1960px)}31.1%{transform:translateX(-2100px)}33.3%{transform:translateX(-2240px)}37.8%{transform:translateX(-2380px)}39.9%{transform:translateX(-2520px)}42.1%{transform:translateX(-2660px)}44.3%{transform:translateX(-2800px)}46.5%{transform:translateX(-2940px)}48.7%{transform:translateX(-3080px)}50.9%{transform:translateX(-3220px)}53.2%{transform:translateX(-3500px)}to{transform:translateX(-3640px)}}.a{fill:#282d35}.f,.k{fill:#fff;white-space:pre}.k{fill:#b9c0cb}</style><g font-family="Monaco,Consolas,Menlo,'Bitstream Vera Sans Mono','Powerline Symbols',monospace" font-size="1.67"><defs><symbol id="1"><text y="1.67" class="f">kafka-console-consumer</text><text x="24.048" y="1.67" class="f">\</text></symbol><symbol id="2"><text x="2.004" y="1.67" class="f">--</text></symbol><symbol id="3"><text x="2.004" y="1.67" class="f">--bootstrap-server</text><text x="21.042" y="1.67" class="f">localhost:6969</text><text x="36.072" y="1.67" class="f">\</text></symbol><symbol id="4"><text x="2.004" y="1.67" class="f">--consumer.config</text><text x="20.04" y="1.67" class="f">teamA-sa.properties</text><text x="40.08" y="1.67" class="f">\</text></symbol><symbol id="5"><text x="2.004" y="1.67" class="f">--topic</text><text x="10.02" y="1.67" class="f">large-messages</text><text x="25.05" y="1.67" class="f">\</text></symbol><symbol id="6"><text x="2.004" y="1.67" class="f">--from-beginning</text><text x="19.038" y="1.67" class="f">\</text></symbol><symbol id="7"><text x="2.004" y="1.67" class="f">--property</text><text x="13.026" y="1.67" class="f">print.headers=true</text><text x="32.064" y="1.67" class="f">\</text></symbol><symbol id="8"><text x="2.004" y="1.67" class="f">--max-messages</text><text x="17.034" y="1.67" class="f">1</text><text x="19.038" y="1.67" class="f">&gt;</text><text x="21.042" y="1.67" class="f">from-kafka.bin</text></symbol><symbol id="a"><path fill="transparent" d="M0 0h140v9H0z"/></symbol><symbol id="b"><path fill="#6f7683" d="M0 0h1.102v2.171H0z"/></symbol></defs><path class="a" d="M0 0h140v17.368H0z"/><g style="animation-duration:4.276263999999999s;animation-iteration-count:infinite;animation-name:i;animation-timing-function:steps(1,end)"><svg width="3780"><svg><use xlink:href="#a"/><use xlink:href="#b" x="-.004"/></svg><svg x="140"><use xlink:href="#a"/><use xlink:href="#b" x="-.004"/></svg><svg x="280"><use xlink:href="#a"/><use xlink:href="#b" x="9.996"/><text y="1.67" class="f">kafka-cons</text></svg><svg x="420"><use xlink:href="#a"/><use xlink:href="#b" x="19.996"/><text y="1.67" class="f">kafka-console-consum</text></svg><svg x="560"><use xlink:href="#a"/><use xlink:href="#b" x="3.996" y="2.146"/><use xlink:href="#1"/><use xlink:href="#2" y="2.171"/></svg><svg x="700"><use xlink:href="#a"/><use xlink:href="#b" x="13.996" y="2.146"/><use xlink:href="#1"/><text x="2.004" y="3.841" class="f">--bootstrap-</text></svg><svg x="840"><use xlink:href="#a"/><use xlink:href="#b" x="23.996" y="2.146"/><use xlink:href="#1"/><text x="2.004" y="3.841" class="f">--bootstrap-server</text><text x="21.042" y="3.841" class="f">loc</text></svg><svg x="980"><use xlink:href="#a"/><use xlink:href="#b" x="33.996" y="2.146"/><use xlink:href="#1"/><text x="2.004" y="3.841" class="f">--bootstrap-server</text><text x="21.042" y="3.841" class="f">localhost:696</text></svg><svg x="1120"><use xlink:href="#a"/><use xlink:href="#b" x="5.996" y="4.317"/><use xlink:href="#1"/><use xlink:href="#3" y="2.171"/><text x="2.004" y="6.012" class="f">--co</text></svg><svg x="1260"><use xlink:href="#a"/><use xlink:href="#b" x="15.996" y="4.317"/><use xlink:href="#1"/><use xlink:href="#3" y="2.171"/><text x="2.004" y="6.012" class="f">--consumer.con</text></svg><svg x="1400"><use xlink:href="#a"/><use xlink:href="#b" x="25.996" y="4.317"/><use xlink:href="#1"/><use xlink:href="#3" y="2.171"/><text x="2.004" y="6.012" class="f">--consumer.config</text><text x="20.04" y="6.012" class="f">teamA-</text></svg><svg x="1540"><use xlink:href="#a"/><use xlink:href="#b" x="35.996" y="4.317"/><use xlink:href="#1"/><use xlink:href="#3" y="2.171"/><text x="2.004" y="6.012" class="f">--consumer.config</text><text x="20.04" y="6.012" class="f">teamA-sa.propert</text></svg><svg x="1680"><use xlink:href="#a"/><use xlink:href="#b" x="3.996" y="6.488"/><use xlink:href="#1"/><use xlink:href="#3" y="2.171"/><use xlink:href="#4" y="4.342"/><use xlink:href="#2" y="6.513"/></svg><svg x="1820"><use xlink:href="#a"/><use xlink:href="#b" x="13.996" y="6.488"/><use xlink:href="#1"/><use xlink:href="#3" y="2.171"/><use xlink:href="#4" y="4.342"/><text x="2.004" y="8.183" class="f">--topic</text><text x="10.02" y="8.183" class="f">larg</text></svg><svg x="1960"><use xlink:href="#a"/><use xlink:href="#b" x="23.996" y="6.488"/><use xlink:href="#1"/><use xlink:href="#3" y="2.171"/><use xlink:href="#4" y="4.342"/><text x="2.004" y="8.183" class="f">--topic</text><text x="10.02" y="8.183" class="f">large-messages</text></svg><svg x="2100"><use xlink:href="#a"/><use xlink:href="#b" x="6.996" y="8.659"/><use xlink:href="#1"/><use xlink:href="#3" y="2.171"/><use xlink:href="#4" y="4.342"/><use xlink:href="#5" y="6.513"/><text x="2.004" y="10.354" class="f">--fro</text></svg><svg x="2240"><use xlink:href="#a"/><use xlink:href="#b" x="16.996" y="8.659"/><use xlink:href="#1"/><use xlink:href="#3" y="2.171"/><use xlink:href="#4" y="4.342"/><use xlink:href="#5" y="6.513"/><text x="2.004" y="10.354" class="f">--from-beginnin</text></svg><svg x="2380"><use xlink:href="#a"/><use xlink:href="#b" x="5.996" y="10.83"/><use xlink:href="#1"/><use xlink:href="#3" y="2.171"/><use xlink:href="#4" y="4.342"/><use xlink:href="#5" y="6.513"/><use xlink:href="#6" y="8.684"/><text x="2.004" y="12.525" class="f">--pr</text></svg><svg x="2520"><use xlink:href="#a"/><use xlink:href="#b" x="15.996" y="10.83"/><use xlink:href="#1"/><use xlink:href="#3" y="2.171"/><use xlink:href="#4" y="4.342"/><use xlink:href="#5" y="6.513"/><use xlink:href="#6" y="8.684"/><text x="2.004" y="12.525" class="f">--property</text><text x="13.026" y="12.525" class="f">pri</text></svg><svg x="2660"><use xlink:href="#a"/><use xlink:href="#b" x="25.996" y="10.83"/><use xlink:href="#1"/><use xlink:href="#3" y="2.171"/><use xlink:href="#4" y="4.342"/><use xlink:href="#5" y="6.513"/><use xlink:href="#6" y="8.684"/><text x="2.004" y="12.525" class="f">--property</text><text x="13.026" y="12.525" class="f">print.headers</text></svg><svg x="2800"><use xlink:href="#a"/><use xlink:href="#b" x="1.996" y="13.001"/><use xlink:href="#1"/><use xlink:href="#3" y="2.171"/><use xlink:href="#4" y="4.342"/><use xlink:href="#5" y="6.513"/><use xlink:href="#6" y="8.684"/><use xlink:href="#7" y="10.855"/></svg><svg x="2940"><use xlink:href="#a"/><use xlink:href="#b" x="11.996" y="13.001"/><use xlink:href="#1"/><use xlink:href="#3" y="2.171"/><use xlink:href="#4" y="4.342"/><use xlink:href="#5" y="6.513"/><use xlink:href="#6" y="8.684"/><use xlink:href="#7" y="10.855"/><text x="2.004" y="14.696" class="f">--max-mess</text></svg><svg x="3080"><use xlink:href="#a"/><use xlink:href="#b" x="21.996" y="13.001"/><use xlink:href="#1"/><use xlink:href="#3" y="2.171"/><use xlink:href="#4" y="4.342"/><use xlink:href="#5" y="6.513"/><use xlink:href="#6" y="8.684"/><use xlink:href="#7" y="10.855"/><text x="2.004" y="14.696" class="f">--max-messages</text><text x="17.034" y="14.696" class="f">1</text><text x="19.038" y="14.696" class="f">&gt;</text><text x="21.042" y="14.696" class="f">f</text></svg><svg x="3220"><use xlink:href="#a"/><use xlink:href="#b" x="31.996" y="13.001"/><use xlink:href="#1"/><use xlink:href="#3" y="2.171"/><use xlink:href="#4" y="4.342"/><use xlink:href="#5" y="6.513"/><use xlink:href="#6" y="8.684"/><use xlink:href="#7" y="10.855"/><text x="2.004" y="14.696" class="f">--max-messages</text><text x="17.034" y="14.696" class="f">1</text><text x="19.038" y="14.696" class="f">&gt;</text><text x="21.042" y="14.696" class="f">from-kafka.</text></svg><svg x="3360"><use xlink:href="#a"/><use xlink:href="#b" x="34.996" y="13.001"/><use xlink:href="#1"/><use xlink:href="#3" y="2.171"/><use xlink:href="#4" y="4.342"/><use xlink:href="#5" y="6.513"/><use xlink:href="#6" y="8.684"/><use xlink:href="#7" y="10.855"/><use xlink:href="#8" y="13.026"/></svg><svg x="3500"><use xlink:href="#a"/><use xlink:href="#b" x="-.004" y="15.172"/><use xlink:href="#1"/><use xlink:href="#3" y="2.171"/><use xlink:href="#4" y="4.342"/><use xlink:href="#5" y="6.513"/><use xlink:href="#6" y="8.684"/><use xlink:href="#7" y="10.855"/><use xlink:href="#8" y="13.026"/></svg><svg x="3640"><use xlink:href="#a"/><use xlink:href="#b" x="-.004" y="17.343"/><use xlink:href="#1"/><use xlink:href="#3" y="2.171"/><use xlink:href="#4" y="4.342"/><use xlink:href="#5" y="6.513"/><use xlink:href="#6" y="8.684"/><use xlink:href="#7" y="10.855"/><use xlink:href="#8" y="13.026"/><text y="16.867" class="k">Processed</text><text x="10.02" y="16.867" class="k">a</text><text x="12.024" y="16.867" class="k">total</text><text x="18.036" y="16.867" class="k">of</text><text x="21.042" y="16.867" class="k">1</text><text x="23.046" y="16.867" class="k">messages</text></svg></svg></g></g></svg></svg>