<svg xmlns="http://www.w3.org/2000/svg" xmlns:xlink="http://www.w3.org/1999/xlink" width="1440" height="385.65"><rect width="1440" height="385.65" rx="5" ry="5" class="a"/><svg y="0%" x="0%"><circle cx="20" cy="20" r="6" fill="#ff5f58"/><circle cx="40" cy="20" r="6" fill="#ffbd2e"/><circle cx="60" cy="20" r="6" fill="#18c132"/></svg><svg height="325.65" viewBox="0 0 140 32.565" width="1400" x="15" xmlns="http://www.w3.org/2000/svg" xmlns:xlink="http://www.w3.org/1999/xlink" y="50"><style>@keyframes j{0%{transform:translateX(0)}.4%{transform:translateX(-280px)}4.5%{transform:translateX(-420px)}6.5%{transform:translateX(-560px)}8.5%{transform:translateX(-700px)}10.5%{transform:translateX(-840px)}12.5%{transform:translateX(-980px)}14.5%{transform:translateX(-1120px)}16.5%{transform:translateX(-1260px)}18.5%{transform:translateX(-1400px)}20.6%{transform:translateX(-1540px)}22.6%{transform:translateX(-1680px)}24.6%{transform:translateX(-1820px)}26.7%{transform:translateX(-1960px)}28.7%{transform:translateX(-2100px)}30.8%{transform:translateX(-2240px)}34.9%{transform:translateX(-2380px)}36.9%{transform:translateX(-2520px)}38.9%{transform:translateX(-2660px)}40.9%{transform:translateX(-2800px)}42.9%{transform:translateX(-3080px)}56%{transform:translateX(-3220px)}56.8%{transform:translateX(-3360px)}to{transform:translateX(-3780px)}}.a{fill:#282d35}.f,.g{fill:#fff;white-space:pre}.g{fill:#b9c0cb}</style><g font-family="Monaco,Consolas,Menlo,'Bitstream Vera Sans Mono','Powerline Symbols',monospace" font-size="1.67"><defs><symbol id="1"><text y="1.67" class="f">requiredMemory=$((</text><text x="19.038" y="1.67" class="f">2</text><text x="21.042" y="1.67" class="f">*</text><text x="23.046" y="1.67" class="f">$(cat</text><text x="29.058" y="1.67" class="f">large-message.bin</text><text x="47.094" y="1.67" class="f">|</text><text x="49.098" y="1.67" class="f">wc</text><text x="52.104" y="1.67" class="f">-c</text><text x="55.11" y="1.67" class="f">|</text><text x="57.114" y="1.67" class="f">awk</text><text x="61.122" y="1.67" class="f">&apos;{print</text><text x="69.138" y="1.67" class="f">$1}&apos;)))</text></symbol><symbol id="2"><text y="1.67" class="f">kafka-producer-perf-test</text><text x="25.05" y="1.67" class="f">\</text></symbol><symbol id="3"><text x="2.004" y="1.67" class="f">--producer.config</text><text x="20.04" y="1.67" class="f">teamA-sa.properties</text><text x="40.08" y="1.67" class="f">\</text></symbol><symbol id="4"><text x="2.004" y="1.67" class="f">--topic</text><text x="10.02" y="1.67" class="f">large-messages</text><text x="25.05" y="1.67" class="f">\</text></symbol><symbol id="5"><text x="2.004" y="1.67" class="f">--throughput</text><text x="15.03" y="1.67" class="f">-1</text><text x="18.036" y="1.67" class="f">\</text></symbol><symbol id="6"><text x="2.004" y="1.67" class="f">--num-records</text><text x="16.032" y="1.67" class="f">1</text><text x="18.036" y="1.67" class="f">\</text></symbol><symbol id="7"><text x="2.004" y="1.67" class="f">--payload-file</text><text x="17.034" y="1.67" class="f">large-message.bin</text><text x="35.07" y="1.67" class="f">\</text></symbol><symbol id="8"><text x="2.004" y="1.67" class="f">--producer-props</text><text x="19.038" y="1.67" class="f">\</text></symbol><symbol id="9"><text x="4.008" y="1.67" class="f">bootstrap.servers=localhost:6969</text><text x="37.074" y="1.67" class="f">\</text></symbol><symbol id="10"><text x="4.008" y="1.67" class="f">max.request.size=$requiredMemory</text><text x="37.074" y="1.67" class="f">\</text></symbol><symbol id="11"><text x="4.008" y="1.67" class="f">buffer.memory=$requiredMemory</text></symbol><symbol id="12"><text y="1.67" class="g">Reading</text><text x="8.016" y="1.67" class="g">payloads</text><text x="17.034" y="1.67" class="g">from:</text><text x="23.046" y="1.67" class="g">/Users/framiere/conduktor/conduktor-gateway-functional-testing/target/2024.01.22-22:50:30/large-messages/large-messag</text></symbol><symbol id="13"><text y="1.67" class="g">e.bin</text></symbol><symbol id="14"><text y="1.67" class="g">Number</text><text x="7.014" y="1.67" class="g">of</text><text x="10.02" y="1.67" class="g">messages</text><text x="19.038" y="1.67" class="g">read:</text><text x="25.05" y="1.67" class="g">1</text></symbol><symbol id="a"><path fill="transparent" d="M0 0h140v16H0z"/></symbol><symbol id="b"><path fill="#6f7683" d="M0 0h1.102v2.171H0z"/></symbol></defs><path class="a" d="M0 0h140v32.565H0z"/><g style="animation-duration:4.635414000000001s;animation-iteration-count:infinite;animation-name:j;animation-timing-function:steps(1,end)"><svg width="3920"><svg><use xlink:href="#a"/><use xlink:href="#b" x="-.004"/></svg><svg x="140"><use xlink:href="#a"/><use xlink:href="#b" x="-.004"/></svg><svg x="280"><use xlink:href="#a"/><use xlink:href="#b" x="19.996"/><text y="1.67" class="f">requiredMemory=$((</text><text x="19.038" y="1.67" class="f">2</text></svg><svg x="420"><use xlink:href="#a"/><use xlink:href="#b" x="39.996"/><text y="1.67" class="f">requiredMemory=$((</text><text x="19.038" y="1.67" class="f">2</text><text x="21.042" y="1.67" class="f">*</text><text x="23.046" y="1.67" class="f">$(cat</text><text x="29.058" y="1.67" class="f">large-messa</text></svg><svg x="560"><use xlink:href="#a"/><use xlink:href="#b" x="59.996"/><text y="1.67" class="f">requiredMemory=$((</text><text x="19.038" y="1.67" class="f">2</text><text x="21.042" y="1.67" class="f">*</text><text x="23.046" y="1.67" class="f">$(cat</text><text x="29.058" y="1.67" class="f">large-message.bin</text><text x="47.094" y="1.67" class="f">|</text><text x="49.098" y="1.67" class="f">wc</text><text x="52.104" y="1.67" class="f">-c</text><text x="55.11" y="1.67" class="f">|</text><text x="57.114" y="1.67" class="f">awk</text></svg><svg x="700"><use xlink:href="#a"/><use xlink:href="#b" x="1.996" y="4.317"/><use xlink:href="#1"/><text y="6.012" class="f">ka</text></svg><svg x="840"><use xlink:href="#a"/><use xlink:href="#b" x="21.996" y="4.317"/><use xlink:href="#1"/><text y="6.012" class="f">kafka-producer-perf-te</text></svg><svg x="980"><use xlink:href="#a"/><use xlink:href="#b" x="14.996" y="6.488"/><use xlink:href="#1"/><use xlink:href="#2" y="4.342"/><text x="2.004" y="8.183" class="f">--producer.co</text></svg><svg x="1120"><use xlink:href="#a"/><use xlink:href="#b" x="34.996" y="6.488"/><use xlink:href="#1"/><use xlink:href="#2" y="4.342"/><text x="2.004" y="8.183" class="f">--producer.config</text><text x="20.04" y="8.183" class="f">teamA-sa.proper</text></svg><svg x="1260"><use xlink:href="#a"/><use xlink:href="#b" x="12.996" y="8.659"/><use xlink:href="#1"/><use xlink:href="#2" y="4.342"/><use xlink:href="#3" y="6.513"/><text x="2.004" y="10.354" class="f">--topic</text><text x="10.02" y="10.354" class="f">lar</text></svg><svg x="1400"><use xlink:href="#a"/><use xlink:href="#b" x="5.996" y="10.83"/><use xlink:href="#1"/><use xlink:href="#2" y="4.342"/><use xlink:href="#3" y="6.513"/><use xlink:href="#4" y="8.684"/><text x="2.004" y="12.525" class="f">--th</text></svg><svg x="1540"><use xlink:href="#a"/><use xlink:href="#b" x="5.996" y="13.001"/><use xlink:href="#1"/><use xlink:href="#2" y="4.342"/><use xlink:href="#3" y="6.513"/><use xlink:href="#4" y="8.684"/><use xlink:href="#5" y="10.855"/><text x="2.004" y="14.696" class="f">--nu</text></svg><svg x="1680"><use xlink:href="#a"/><use xlink:href="#b" x="5.996" y="15.172"/><use xlink:href="#1"/><use xlink:href="#2" y="4.342"/><use xlink:href="#3" y="6.513"/><use xlink:href="#4" y="8.684"/><use xlink:href="#5" y="10.855"/><use xlink:href="#6" y="13.026"/><text x="2.004" y="16.867" class="f">--pa</text></svg><svg x="1820"><use xlink:href="#a"/><use xlink:href="#b" x="25.996" y="15.172"/><use xlink:href="#1"/><use xlink:href="#2" y="4.342"/><use xlink:href="#3" y="6.513"/><use xlink:href="#4" y="8.684"/><use xlink:href="#5" y="10.855"/><use xlink:href="#6" y="13.026"/><text x="2.004" y="16.867" class="f">--payload-file</text><text x="17.034" y="16.867" class="f">large-mes</text></svg><svg x="1960"><use xlink:href="#a"/><use xlink:href="#b" x="8.996" y="17.343"/><use xlink:href="#1"/><use xlink:href="#2" y="4.342"/><use xlink:href="#3" y="6.513"/><use xlink:href="#4" y="8.684"/><use xlink:href="#5" y="10.855"/><use xlink:href="#6" y="13.026"/><use xlink:href="#7" y="15.197"/><text x="2.004" y="19.038" class="f">--produ</text></svg><svg x="2100"><use xlink:href="#a"/><use xlink:href="#b" x="7.996" y="19.514"/><use xlink:href="#1"/><use xlink:href="#2" y="4.342"/><use xlink:href="#3" y="6.513"/><use xlink:href="#4" y="8.684"/><use xlink:href="#5" y="10.855"/><use xlink:href="#6" y="13.026"/><use xlink:href="#7" y="15.197"/><use xlink:href="#8" y="17.368"/><text x="4.008" y="21.209" class="f">boot</text></svg><svg x="2240"><use xlink:href="#a"/><use xlink:href="#b" x="27.996" y="19.514"/><use xlink:href="#1"/><use xlink:href="#2" y="4.342"/><use xlink:href="#3" y="6.513"/><use xlink:href="#4" y="8.684"/><use xlink:href="#5" y="10.855"/><use xlink:href="#6" y="13.026"/><use xlink:href="#7" y="15.197"/><use xlink:href="#8" y="17.368"/><text x="4.008" y="21.209" class="f">bootstrap.servers=localh</text></svg><svg x="2380"><use xlink:href="#a"/><use xlink:href="#b" x="8.996" y="21.685"/><use xlink:href="#1"/><use xlink:href="#2" y="4.342"/><use xlink:href="#3" y="6.513"/><use xlink:href="#4" y="8.684"/><use xlink:href="#5" y="10.855"/><use xlink:href="#6" y="13.026"/><use xlink:href="#7" y="15.197"/><use xlink:href="#8" y="17.368"/><use xlink:href="#9" y="19.539"/><text x="4.008" y="23.38" class="f">max.r</text></svg><svg x="2520"><use xlink:href="#a"/><use xlink:href="#b" x="28.996" y="21.685"/><use xlink:href="#1"/><use xlink:href="#2" y="4.342"/><use xlink:href="#3" y="6.513"/><use xlink:href="#4" y="8.684"/><use xlink:href="#5" y="10.855"/><use xlink:href="#6" y="13.026"/><use xlink:href="#7" y="15.197"/><use xlink:href="#8" y="17.368"/><use xlink:href="#9" y="19.539"/><text x="4.008" y="23.38" class="f">max.request.size=$require</text></svg><svg x="2660"><use xlink:href="#a"/><use xlink:href="#b" x="9.996" y="23.856"/><use xlink:href="#1"/><use xlink:href="#2" y="4.342"/><use xlink:href="#3" y="6.513"/><use xlink:href="#4" y="8.684"/><use xlink:href="#5" y="10.855"/><use xlink:href="#6" y="13.026"/><use xlink:href="#7" y="15.197"/><use xlink:href="#8" y="17.368"/><use xlink:href="#9" y="19.539"/><use xlink:href="#10" y="21.71"/><text x="4.008" y="25.551" class="f">buffer</text></svg><svg x="2800"><use xlink:href="#a"/><use xlink:href="#b" x="29.996" y="23.856"/><use xlink:href="#1"/><use xlink:href="#2" y="4.342"/><use xlink:href="#3" y="6.513"/><use xlink:href="#4" y="8.684"/><use xlink:href="#5" y="10.855"/><use xlink:href="#6" y="13.026"/><use xlink:href="#7" y="15.197"/><use xlink:href="#8" y="17.368"/><use xlink:href="#9" y="19.539"/><use xlink:href="#10" y="21.71"/><text x="4.008" y="25.551" class="f">buffer.memory=$requiredMem</text></svg><svg x="2940"><use xlink:href="#a"/><use xlink:href="#b" x="32.996" y="23.856"/><use xlink:href="#1"/><use xlink:href="#2" y="4.342"/><use xlink:href="#3" y="6.513"/><use xlink:href="#4" y="8.684"/><use xlink:href="#5" y="10.855"/><use xlink:href="#6" y="13.026"/><use xlink:href="#7" y="15.197"/><use xlink:href="#8" y="17.368"/><use xlink:href="#9" y="19.539"/><use xlink:href="#10" y="21.71"/><use xlink:href="#11" y="23.881"/></svg><svg x="3080"><use xlink:href="#a"/><use xlink:href="#b" x="-.004" y="26.027"/><use xlink:href="#1"/><use xlink:href="#2" y="4.342"/><use xlink:href="#3" y="6.513"/><use xlink:href="#4" y="8.684"/><use xlink:href="#5" y="10.855"/><use xlink:href="#6" y="13.026"/><use xlink:href="#7" y="15.197"/><use xlink:href="#8" y="17.368"/><use xlink:href="#9" y="19.539"/><use xlink:href="#10" y="21.71"/><use xlink:href="#11" y="23.881"/></svg><svg x="3220"><use xlink:href="#a"/><use xlink:href="#b" x="-.004" y="30.369"/><use xlink:href="#1"/><use xlink:href="#2" y="4.342"/><use xlink:href="#3" y="6.513"/><use xlink:href="#4" y="8.684"/><use xlink:href="#5" y="10.855"/><use xlink:href="#6" y="13.026"/><use xlink:href="#7" y="15.197"/><use xlink:href="#8" y="17.368"/><use xlink:href="#9" y="19.539"/><use xlink:href="#10" y="21.71"/><use xlink:href="#11" y="23.881"/><use xlink:href="#12" y="26.052"/><use xlink:href="#13" y="28.223"/></svg><svg x="3360"><use xlink:href="#a"/><use xlink:href="#b" x="-.004" y="32.54"/><use xlink:href="#1"/><use xlink:href="#2" y="4.342"/><use xlink:href="#3" y="6.513"/><use xlink:href="#4" y="8.684"/><use xlink:href="#5" y="10.855"/><use xlink:href="#6" y="13.026"/><use xlink:href="#7" y="15.197"/><use xlink:href="#8" y="17.368"/><use xlink:href="#9" y="19.539"/><use xlink:href="#10" y="21.71"/><use xlink:href="#11" y="23.881"/><use xlink:href="#12" y="26.052"/><use xlink:href="#13" y="28.223"/><use xlink:href="#14" y="30.394"/></svg><svg x="3500"><use xlink:href="#a"/><use xlink:href="#b" x="15.996" y="32.54"/><use xlink:href="#1"/><use xlink:href="#2" y="4.342"/><use xlink:href="#3" y="6.513"/><use xlink:href="#4" y="8.684"/><use xlink:href="#5" y="10.855"/><use xlink:href="#6" y="13.026"/><use xlink:href="#7" y="15.197"/><use xlink:href="#8" y="17.368"/><use xlink:href="#9" y="19.539"/><use xlink:href="#10" y="21.71"/><use xlink:href="#11" y="23.881"/><use xlink:href="#12" y="26.052"/><use xlink:href="#13" y="28.223"/><use xlink:href="#14" y="30.394"/><text y="34.235" class="g">1</text><text x="2.004" y="34.235" class="g">records</text><text x="10.02" y="34.235" class="g">sent,</text></svg><svg x="3640"><use xlink:href="#a"/><use xlink:href="#b" x="52.996" y="32.54"/><use xlink:href="#1"/><use xlink:href="#2" y="4.342"/><use xlink:href="#3" y="6.513"/><use xlink:href="#4" y="8.684"/><use xlink:href="#5" y="10.855"/><use xlink:href="#6" y="13.026"/><use xlink:href="#7" y="15.197"/><use xlink:href="#8" y="17.368"/><use xlink:href="#9" y="19.539"/><use xlink:href="#10" y="21.71"/><use xlink:href="#11" y="23.881"/><use xlink:href="#12" y="26.052"/><use xlink:href="#13" y="28.223"/><use xlink:href="#14" y="30.394"/><text y="34.235" class="g">1</text><text x="2.004" y="34.235" class="g">records</text><text x="10.02" y="34.235" class="g">sent,</text><text x="16.032" y="34.235" class="g">0,408163</text><text x="25.05" y="34.235" class="g">records/sec</text><text x="37.074" y="34.235" class="g">(16,33</text><text x="44.088" y="34.235" class="g">MB/sec),</text></svg><svg x="3780"><use xlink:href="#a"/><use xlink:href="#b" x="-.004" y="32.54"/><use xlink:href="#2"/><use xlink:href="#3" y="2.171"/><use xlink:href="#4" y="4.342"/><use xlink:href="#5" y="6.513"/><use xlink:href="#6" y="8.684"/><use xlink:href="#7" y="10.855"/><use xlink:href="#8" y="13.026"/><use xlink:href="#9" y="15.197"/><use xlink:href="#10" y="17.368"/><use xlink:href="#11" y="19.539"/><use xlink:href="#12" y="21.71"/><use xlink:href="#13" y="23.881"/><use xlink:href="#14" y="26.052"/><text y="29.893" class="g">1</text><text x="2.004" y="29.893" class="g">records</text><text x="10.02" y="29.893" class="g">sent,</text><text x="16.032" y="29.893" class="g">0,408163</text><text x="25.05" y="29.893" class="g">records/sec</text><text x="37.074" y="29.893" class="g">(16,33</text><text x="44.088" y="29.893" class="g">MB/sec),</text><text x="53.106" y="29.893" class="g">2443,00</text><text x="61.122" y="29.893" class="g">ms</text><text x="64.128" y="29.893" class="g">avg</text><text x="68.136" y="29.893" class="g">latency,</text><text x="77.154" y="29.893" class="g">2443,00</text><text x="85.17" y="29.893" class="g">ms</text><text x="88.176" y="29.893" class="g">max</text><text x="92.184" y="29.893" class="g">latency,</text><text x="101.202" y="29.893" class="g">2443</text><text x="106.212" y="29.893" class="g">ms</text><text x="109.218" y="29.893" class="g">50th,</text><text x="115.23" y="29.893" class="g">2443</text><text x="120.24" y="29.893" class="g">ms</text><text x="123.246" y="29.893" class="g">95th,</text><text x="129.258" y="29.893" class="g">2443</text><text x="134.268" y="29.893" class="g">ms</text><text x="137.274" y="29.893" class="g">99t</text><text y="32.064" class="g">h,</text><text x="3.006" y="32.064" class="g">2443</text><text x="8.016" y="32.064" class="g">ms</text><text x="11.022" y="32.064" class="g">99.9th.</text></svg></svg></g></g></svg></svg>