<svg xmlns="http://www.w3.org/2000/svg" xmlns:xlink="http://www.w3.org/1999/xlink" width="1440" height="429.07"><rect width="1440" height="429.07" rx="5" ry="5" class="a"/><svg y="0%" x="0%"><circle cx="20" cy="20" r="6" fill="#ff5f58"/><circle cx="40" cy="20" r="6" fill="#ffbd2e"/><circle cx="60" cy="20" r="6" fill="#18c132"/></svg><svg height="369.07" viewBox="0 0 140 36.907" width="1400" x="15" xmlns="http://www.w3.org/2000/svg" xmlns:xlink="http://www.w3.org/1999/xlink" y="50"><style>@keyframes j{0%{transform:translateX(0)}.04%{transform:translateX(-140px)}.05%{transform:translateX(-280px)}.87%{transform:translateX(-420px)}1.29%{transform:translateX(-560px)}1.71%{transform:translateX(-700px)}2.14%{transform:translateX(-840px)}2.56%{transform:translateX(-980px)}2.99%{transform:translateX(-1120px)}3.4%{transform:translateX(-1260px)}3.83%{transform:translateX(-1400px)}4.25%{transform:translateX(-1540px)}4.69%{transform:translateX(-1680px)}5.13%{transform:translateX(-1820px)}5.58%{transform:translateX(-1960px)}5.6%{transform:translateX(-2100px)}7.8%{transform:translateX(-2240px)}10.65%{transform:translateX(-2380px)}19.57%{transform:translateX(-2520px)}28.49%{transform:translateX(-2660px)}37.41%{transform:translateX(-2800px)}46.33%{transform:translateX(-2940px)}55.25%{transform:translateX(-3080px)}64.17%{transform:translateX(-3220px)}73.09%{transform:translateX(-3360px)}82.01%{transform:translateX(-3500px)}90.93%{transform:translateX(-3640px)}99.85%{transform:translateX(-3780px)}to{transform:translateX(-4340px)}}.a{fill:#282d35}.f,.g{fill:#fff;white-space:pre}.g{fill:#b9c0cb}</style><g font-family="Monaco,Consolas,Menlo,'Bitstream Vera Sans Mono','Powerline Symbols',monospace" font-size="1.67"><defs><symbol id="1"><text y="1.67" class="f">kafka-run-class</text><text x="16.032" y="1.67" class="f">kafka.tools.EndToEndLatency</text><text x="44.088" y="1.67" class="f">\</text></symbol><symbol id="2"><text x="4.008" y="1.67" class="f">localhost:6969</text><text x="19.038" y="1.67" class="f">\</text></symbol><symbol id="3"><text x="4.008" y="1.67" class="f">via-gateway</text><text x="16.032" y="1.67" class="f">10000</text><text x="22.044" y="1.67" class="f">all</text><text x="26.052" y="1.67" class="f">255</text><text x="30.06" y="1.67" class="f">\</text></symbol><symbol id="4"><text x="4.008" y="1.67" class="f">teamA-sa.properties</text></symbol><symbol id="5"><text y="1.67" class="g">WARNING:</text><text x="9.018" y="1.67" class="g">The</text><text x="13.026" y="1.67" class="g">&apos;kafka.tools&apos;</text><text x="27.054" y="1.67" class="g">package</text><text x="35.07" y="1.67" class="g">is</text><text x="38.076" y="1.67" class="g">deprecated</text><text x="49.098" y="1.67" class="g">and</text><text x="53.106" y="1.67" class="g">will</text><text x="58.116" y="1.67" class="g">change</text><text x="65.13" y="1.67" class="g">to</text><text x="68.136" y="1.67" class="g">&apos;org.apache.kafka.tools&apos;</text><text x="93.186" y="1.67" class="g">in</text><text x="96.192" y="1.67" class="g">the</text><text x="100.2" y="1.67" class="g">next</text><text x="105.21" y="1.67" class="g">major</text><text x="111.222" y="1.67" class="g">release.</text></symbol><symbol id="6"><text y="1.67" class="g">0</text><text x="8.016" y="1.67" class="g">126.15983299999999</text></symbol><symbol id="7"><text y="1.67" class="g">1000</text><text x="8.016" y="1.67" class="g">8.152084</text></symbol><symbol id="8"><text y="1.67" class="g">2000</text><text x="8.016" y="1.67" class="g">23.163375</text></symbol><symbol id="9"><text y="1.67" class="g">3000</text><text x="8.016" y="1.67" class="g">3.586</text></symbol><symbol id="10"><text y="1.67" class="g">4000</text><text x="8.016" y="1.67" class="g">2.635833</text></symbol><symbol id="11"><text y="1.67" class="g">5000</text><text x="8.016" y="1.67" class="g">3.03825</text></symbol><symbol id="12"><text y="1.67" class="g">6000</text><text x="8.016" y="1.67" class="g">3.766458</text></symbol><symbol id="13"><text y="1.67" class="g">7000</text><text x="8.016" y="1.67" class="g">2.58225</text></symbol><symbol id="14"><text y="1.67" class="g">8000</text><text x="8.016" y="1.67" class="g">2.095459</text></symbol><symbol id="15"><text y="1.67" class="g">9000</text><text x="8.016" y="1.67" class="g">2.97475</text></symbol><symbol id="16"><text y="1.67" class="g">Avg</text><text x="4.008" y="1.67" class="g">latency:</text><text x="13.026" y="1.67" class="g">4,3278</text><text x="20.04" y="1.67" class="g">ms</text></symbol><symbol id="a"><path fill="transparent" d="M0 0h140v18H0z"/></symbol><symbol id="b"><path fill="#6f7683" d="M0 0h1.102v2.171H0z"/></symbol></defs><path class="a" d="M0 0h140v36.907H0z"/><g style="animation-duration:22.420027000000005s;animation-iteration-count:infinite;animation-name:j;animation-timing-function:steps(1,end)"><svg width="4480"><svg><use xlink:href="#a"/><use xlink:href="#b" x="-.004"/></svg><svg x="140"><use xlink:href="#a"/><use xlink:href="#b" x="-.004"/></svg><svg x="280"><use xlink:href="#a"/><use xlink:href="#b" x="9.996"/><text y="1.67" class="f">kafka-run-</text></svg><svg x="420"><use xlink:href="#a"/><use xlink:href="#b" x="19.996"/><text y="1.67" class="f">kafka-run-class</text><text x="16.032" y="1.67" class="f">kafk</text></svg><svg x="560"><use xlink:href="#a"/><use xlink:href="#b" x="29.996"/><text y="1.67" class="f">kafka-run-class</text><text x="16.032" y="1.67" class="f">kafka.tools.En</text></svg><svg x="700"><use xlink:href="#a"/><use xlink:href="#b" x="39.996"/><text y="1.67" class="f">kafka-run-class</text><text x="16.032" y="1.67" class="f">kafka.tools.EndToEndLate</text></svg><svg x="840"><use xlink:href="#a"/><use xlink:href="#b" x="3.996" y="2.146"/><use xlink:href="#1"/></svg><svg x="980"><use xlink:href="#a"/><use xlink:href="#b" x="13.996" y="2.146"/><use xlink:href="#1"/><text x="4.008" y="3.841" class="f">localhost:</text></svg><svg x="1120"><use xlink:href="#a"/><use xlink:href="#b" x="2.996" y="4.317"/><use xlink:href="#1"/><use xlink:href="#2" y="2.171"/></svg><svg x="1260"><use xlink:href="#a"/><use xlink:href="#b" x="12.996" y="4.317"/><use xlink:href="#1"/><use xlink:href="#2" y="2.171"/><text x="4.008" y="6.012" class="f">via-gatew</text></svg><svg x="1400"><use xlink:href="#a"/><use xlink:href="#b" x="22.996" y="4.317"/><use xlink:href="#1"/><use xlink:href="#2" y="2.171"/><text x="4.008" y="6.012" class="f">via-gateway</text><text x="16.032" y="6.012" class="f">10000</text><text x="22.044" y="6.012" class="f">a</text></svg><svg x="1540"><use xlink:href="#a"/><use xlink:href="#b" x=".996" y="6.488"/><use xlink:href="#1"/><use xlink:href="#2" y="2.171"/><use xlink:href="#3" y="4.342"/></svg><svg x="1680"><use xlink:href="#a"/><use xlink:href="#b" x="10.996" y="6.488"/><use xlink:href="#1"/><use xlink:href="#2" y="2.171"/><use xlink:href="#3" y="4.342"/><text x="4.008" y="8.183" class="f">teamA-s</text></svg><svg x="1820"><use xlink:href="#a"/><use xlink:href="#b" x="20.996" y="6.488"/><use xlink:href="#1"/><use xlink:href="#2" y="2.171"/><use xlink:href="#3" y="4.342"/><text x="4.008" y="8.183" class="f">teamA-sa.properti</text></svg><svg x="1960"><use xlink:href="#a"/><use xlink:href="#b" x="22.996" y="6.488"/><use xlink:href="#1"/><use xlink:href="#2" y="2.171"/><use xlink:href="#3" y="4.342"/><use xlink:href="#4" y="6.513"/></svg><svg x="2100"><use xlink:href="#a"/><use xlink:href="#b" x="-.004" y="8.659"/><use xlink:href="#1"/><use xlink:href="#2" y="2.171"/><use xlink:href="#3" y="4.342"/><use xlink:href="#4" y="6.513"/></svg><svg x="2240"><use xlink:href="#a"/><use xlink:href="#b" x="-.004" y="10.83"/><use xlink:href="#1"/><use xlink:href="#2" y="2.171"/><use xlink:href="#3" y="4.342"/><use xlink:href="#4" y="6.513"/><use xlink:href="#5" y="8.684"/></svg><svg x="2380"><use xlink:href="#a"/><use xlink:href="#b" x="-.004" y="13.001"/><use xlink:href="#1"/><use xlink:href="#2" y="2.171"/><use xlink:href="#3" y="4.342"/><use xlink:href="#4" y="6.513"/><use xlink:href="#5" y="8.684"/><use xlink:href="#6" y="10.855"/></svg><svg x="2520"><use xlink:href="#a"/><use xlink:href="#b" x="-.004" y="15.172"/><use xlink:href="#1"/><use xlink:href="#2" y="2.171"/><use xlink:href="#3" y="4.342"/><use xlink:href="#4" y="6.513"/><use xlink:href="#5" y="8.684"/><use xlink:href="#6" y="10.855"/><use xlink:href="#7" y="13.026"/></svg><svg x="2660"><use xlink:href="#a"/><use xlink:href="#b" x="-.004" y="17.343"/><use xlink:href="#1"/><use xlink:href="#2" y="2.171"/><use xlink:href="#3" y="4.342"/><use xlink:href="#4" y="6.513"/><use xlink:href="#5" y="8.684"/><use xlink:href="#6" y="10.855"/><use xlink:href="#7" y="13.026"/><use xlink:href="#8" y="15.197"/></svg><svg x="2800"><use xlink:href="#a"/><use xlink:href="#b" x="-.004" y="19.514"/><use xlink:href="#1"/><use xlink:href="#2" y="2.171"/><use xlink:href="#3" y="4.342"/><use xlink:href="#4" y="6.513"/><use xlink:href="#5" y="8.684"/><use xlink:href="#6" y="10.855"/><use xlink:href="#7" y="13.026"/><use xlink:href="#8" y="15.197"/><use xlink:href="#9" y="17.368"/></svg><svg x="2940"><use xlink:href="#a"/><use xlink:href="#b" x="-.004" y="21.685"/><use xlink:href="#1"/><use xlink:href="#2" y="2.171"/><use xlink:href="#3" y="4.342"/><use xlink:href="#4" y="6.513"/><use xlink:href="#5" y="8.684"/><use xlink:href="#6" y="10.855"/><use xlink:href="#7" y="13.026"/><use xlink:href="#8" y="15.197"/><use xlink:href="#9" y="17.368"/><use xlink:href="#10" y="19.539"/></svg><svg x="3080"><use xlink:href="#a"/><use xlink:href="#b" x="-.004" y="23.856"/><use xlink:href="#1"/><use xlink:href="#2" y="2.171"/><use xlink:href="#3" y="4.342"/><use xlink:href="#4" y="6.513"/><use xlink:href="#5" y="8.684"/><use xlink:href="#6" y="10.855"/><use xlink:href="#7" y="13.026"/><use xlink:href="#8" y="15.197"/><use xlink:href="#9" y="17.368"/><use xlink:href="#10" y="19.539"/><use xlink:href="#11" y="21.71"/></svg><svg x="3220"><use xlink:href="#a"/><use xlink:href="#b" x="-.004" y="26.027"/><use xlink:href="#1"/><use xlink:href="#2" y="2.171"/><use xlink:href="#3" y="4.342"/><use xlink:href="#4" y="6.513"/><use xlink:href="#5" y="8.684"/><use xlink:href="#6" y="10.855"/><use xlink:href="#7" y="13.026"/><use xlink:href="#8" y="15.197"/><use xlink:href="#9" y="17.368"/><use xlink:href="#10" y="19.539"/><use xlink:href="#11" y="21.71"/><use xlink:href="#12" y="23.881"/></svg><svg x="3360"><use xlink:href="#a"/><use xlink:href="#b" x="-.004" y="28.198"/><use xlink:href="#1"/><use xlink:href="#2" y="2.171"/><use xlink:href="#3" y="4.342"/><use xlink:href="#4" y="6.513"/><use xlink:href="#5" y="8.684"/><use xlink:href="#6" y="10.855"/><use xlink:href="#7" y="13.026"/><use xlink:href="#8" y="15.197"/><use xlink:href="#9" y="17.368"/><use xlink:href="#10" y="19.539"/><use xlink:href="#11" y="21.71"/><use xlink:href="#12" y="23.881"/><use xlink:href="#13" y="26.052"/></svg><svg x="3500"><use xlink:href="#a"/><use xlink:href="#b" x="-.004" y="30.369"/><use xlink:href="#1"/><use xlink:href="#2" y="2.171"/><use xlink:href="#3" y="4.342"/><use xlink:href="#4" y="6.513"/><use xlink:href="#5" y="8.684"/><use xlink:href="#6" y="10.855"/><use xlink:href="#7" y="13.026"/><use xlink:href="#8" y="15.197"/><use xlink:href="#9" y="17.368"/><use xlink:href="#10" y="19.539"/><use xlink:href="#11" y="21.71"/><use xlink:href="#12" y="23.881"/><use xlink:href="#13" y="26.052"/><use xlink:href="#14" y="28.223"/></svg><svg x="3640"><use xlink:href="#a"/><use xlink:href="#b" x="-.004" y="32.54"/><use xlink:href="#1"/><use xlink:href="#2" y="2.171"/><use xlink:href="#3" y="4.342"/><use xlink:href="#4" y="6.513"/><use xlink:href="#5" y="8.684"/><use xlink:href="#6" y="10.855"/><use xlink:href="#7" y="13.026"/><use xlink:href="#8" y="15.197"/><use xlink:href="#9" y="17.368"/><use xlink:href="#10" y="19.539"/><use xlink:href="#11" y="21.71"/><use xlink:href="#12" y="23.881"/><use xlink:href="#13" y="26.052"/><use xlink:href="#14" y="28.223"/><use xlink:href="#15" y="30.394"/></svg><svg x="3780"><use xlink:href="#a"/><use xlink:href="#b" x="12.996" y="32.54"/><use xlink:href="#1"/><use xlink:href="#2" y="2.171"/><use xlink:href="#3" y="4.342"/><use xlink:href="#4" y="6.513"/><use xlink:href="#5" y="8.684"/><use xlink:href="#6" y="10.855"/><use xlink:href="#7" y="13.026"/><use xlink:href="#8" y="15.197"/><use xlink:href="#9" y="17.368"/><use xlink:href="#10" y="19.539"/><use xlink:href="#11" y="21.71"/><use xlink:href="#12" y="23.881"/><use xlink:href="#13" y="26.052"/><use xlink:href="#14" y="28.223"/><use xlink:href="#15" y="30.394"/><text y="34.235" class="g">Avg</text><text x="4.008" y="34.235" class="g">latency:</text></svg><svg x="3920"><use xlink:href="#a"/><use xlink:href="#b" x="-.004" y="34.711"/><use xlink:href="#1"/><use xlink:href="#2" y="2.171"/><use xlink:href="#3" y="4.342"/><use xlink:href="#4" y="6.513"/><use xlink:href="#5" y="8.684"/><use xlink:href="#6" y="10.855"/><use xlink:href="#7" y="13.026"/><use xlink:href="#8" y="15.197"/><use xlink:href="#9" y="17.368"/><use xlink:href="#10" y="19.539"/><use xlink:href="#11" y="21.71"/><use xlink:href="#12" y="23.881"/><use xlink:href="#13" y="26.052"/><use xlink:href="#14" y="28.223"/><use xlink:href="#15" y="30.394"/><use xlink:href="#16" y="32.565"/></svg><svg x="4060"><use xlink:href="#a"/><use xlink:href="#b" x="19.996" y="34.711"/><use xlink:href="#1"/><use xlink:href="#2" y="2.171"/><use xlink:href="#3" y="4.342"/><use xlink:href="#4" y="6.513"/><use xlink:href="#5" y="8.684"/><use xlink:href="#6" y="10.855"/><use xlink:href="#7" y="13.026"/><use xlink:href="#8" y="15.197"/><use xlink:href="#9" y="17.368"/><use xlink:href="#10" y="19.539"/><use xlink:href="#11" y="21.71"/><use xlink:href="#12" y="23.881"/><use xlink:href="#13" y="26.052"/><use xlink:href="#14" y="28.223"/><use xlink:href="#15" y="30.394"/><use xlink:href="#16" y="32.565"/><text y="36.406" class="g">Percentiles:</text><text x="13.026" y="36.406" class="g">50th</text><text x="18.036" y="36.406" class="g">=</text></svg><svg x="4200"><use xlink:href="#a"/><use xlink:href="#b" x="31.996" y="34.711"/><use xlink:href="#1"/><use xlink:href="#2" y="2.171"/><use xlink:href="#3" y="4.342"/><use xlink:href="#4" y="6.513"/><use xlink:href="#5" y="8.684"/><use xlink:href="#6" y="10.855"/><use xlink:href="#7" y="13.026"/><use xlink:href="#8" y="15.197"/><use xlink:href="#9" y="17.368"/><use xlink:href="#10" y="19.539"/><use xlink:href="#11" y="21.71"/><use xlink:href="#12" y="23.881"/><use xlink:href="#13" y="26.052"/><use xlink:href="#14" y="28.223"/><use xlink:href="#15" y="30.394"/><use xlink:href="#16" y="32.565"/><text y="36.406" class="g">Percentiles:</text><text x="13.026" y="36.406" class="g">50th</text><text x="18.036" y="36.406" class="g">=</text><text x="20.04" y="36.406" class="g">3,</text><text x="23.046" y="36.406" class="g">99th</text><text x="28.056" y="36.406" class="g">=</text><text x="30.06" y="36.406" class="g">26</text></svg><svg x="4340"><use xlink:href="#a"/><use xlink:href="#b" x="-.004" y="36.882"/><use xlink:href="#1"/><use xlink:href="#2" y="2.171"/><use xlink:href="#3" y="4.342"/><use xlink:href="#4" y="6.513"/><use xlink:href="#5" y="8.684"/><use xlink:href="#6" y="10.855"/><use xlink:href="#7" y="13.026"/><use xlink:href="#8" y="15.197"/><use xlink:href="#9" y="17.368"/><use xlink:href="#10" y="19.539"/><use xlink:href="#11" y="21.71"/><use xlink:href="#12" y="23.881"/><use xlink:href="#13" y="26.052"/><use xlink:href="#14" y="28.223"/><use xlink:href="#15" y="30.394"/><use xlink:href="#16" y="32.565"/><text y="36.406" class="g">Percentiles:</text><text x="13.026" y="36.406" class="g">50th</text><text x="18.036" y="36.406" class="g">=</text><text x="20.04" y="36.406" class="g">3,</text><text x="23.046" y="36.406" class="g">99th</text><text x="28.056" y="36.406" class="g">=</text><text x="30.06" y="36.406" class="g">26,</text><text x="34.068" y="36.406" class="g">99.9th</text><text x="41.082" y="36.406" class="g">=</text><text x="43.086" y="36.406" class="g">74</text></svg></svg></g></g></svg></svg>