<svg xmlns="http://www.w3.org/2000/svg" xmlns:xlink="http://www.w3.org/1999/xlink" width="1440" height="407.36"><rect width="1440" height="407.36" rx="5" ry="5" class="a"/><svg y="0%" x="0%"><circle cx="20" cy="20" r="6" fill="#ff5f58"/><circle cx="40" cy="20" r="6" fill="#ffbd2e"/><circle cx="60" cy="20" r="6" fill="#18c132"/></svg><svg height="347.36" viewBox="0 0 140 34.736" width="1400" x="15" xmlns="http://www.w3.org/2000/svg" xmlns:xlink="http://www.w3.org/1999/xlink" y="50"><style>@keyframes j{0%{transform:translateX(0)}.05%{transform:translateX(-140px)}.06%{transform:translateX(-280px)}.92%{transform:translateX(-420px)}1.36%{transform:translateX(-560px)}1.78%{transform:translateX(-700px)}2.2%{transform:translateX(-840px)}2.68%{transform:translateX(-980px)}3.14%{transform:translateX(-1120px)}3.64%{transform:translateX(-1260px)}4.06%{transform:translateX(-1400px)}4.48%{transform:translateX(-1540px)}4.92%{transform:translateX(-1680px)}5.35%{transform:translateX(-1820px)}5.79%{transform:translateX(-1960px)}6.22%{transform:translateX(-2100px)}6.23%{transform:translateX(-2240px)}9.28%{transform:translateX(-2380px)}11.09%{transform:translateX(-2520px)}20.3%{transform:translateX(-2660px)}29.52%{transform:translateX(-2800px)}38.74%{transform:translateX(-2940px)}47.95%{transform:translateX(-3080px)}57.17%{transform:translateX(-3220px)}66.32%{transform:translateX(-3360px)}74.42%{transform:translateX(-3500px)}83.41%{transform:translateX(-3640px)}92.44%{transform:translateX(-3780px)}99.97%{transform:translateX(-3920px)}to{transform:translateX(-4340px)}}.a{fill:#282d35}.f,.g{fill:#fff;white-space:pre}.g{fill:#b9c0cb}</style><g font-family="Monaco,Consolas,Menlo,'Bitstream Vera Sans Mono','Powerline Symbols',monospace" font-size="1.67"><defs><symbol id="1"><text y="1.67" class="f">kafka-run-class</text><text x="16.032" y="1.67" class="f">kafka.tools.EndToEndLatency</text><text x="44.088" y="1.67" class="f">\</text></symbol><symbol id="2"><text x="4.008" y="1.67" class="f">localhost:29092,localhost:29093,localhost:29094</text><text x="52.104" y="1.67" class="f">\</text></symbol><symbol id="3"><text x="4.008" y="1.67" class="f">physical-kafka</text><text x="19.038" y="1.67" class="f">10000</text><text x="25.05" y="1.67" class="f">all</text><text x="29.058" y="1.67" class="f">255</text></symbol><symbol id="4"><text y="1.67" class="g">WARNING:</text><text x="9.018" y="1.67" class="g">The</text><text x="13.026" y="1.67" class="g">&apos;kafka.tools&apos;</text><text x="27.054" y="1.67" class="g">package</text><text x="35.07" y="1.67" class="g">is</text><text x="38.076" y="1.67" class="g">deprecated</text><text x="49.098" y="1.67" class="g">and</text><text x="53.106" y="1.67" class="g">will</text><text x="58.116" y="1.67" class="g">change</text><text x="65.13" y="1.67" class="g">to</text><text x="68.136" y="1.67" class="g">&apos;org.apache.kafka.tools&apos;</text><text x="93.186" y="1.67" class="g">in</text><text x="96.192" y="1.67" class="g">the</text><text x="100.2" y="1.67" class="g">next</text><text x="105.21" y="1.67" class="g">major</text><text x="111.222" y="1.67" class="g">release.</text></symbol><symbol id="5"><text y="1.67" class="g">0</text><text x="8.016" y="1.67" class="g">65.539625</text></symbol><symbol id="6"><text y="1.67" class="g">1000</text><text x="8.016" y="1.67" class="g">3.097625</text></symbol><symbol id="7"><text y="1.67" class="g">2000</text><text x="8.016" y="1.67" class="g">1.296667</text></symbol><symbol id="8"><text y="1.67" class="g">3000</text><text x="8.016" y="1.67" class="g">3.229166</text></symbol><symbol id="9"><text y="1.67" class="g">4000</text><text x="8.016" y="1.67" class="g">1.584958</text></symbol><symbol id="10"><text y="1.67" class="g">5000</text><text x="8.016" y="1.67" class="g">1.080541</text></symbol><symbol id="11"><text y="1.67" class="g">6000</text><text x="8.016" y="1.67" class="g">0.759541</text></symbol><symbol id="12"><text y="1.67" class="g">7000</text><text x="8.016" y="1.67" class="g">1.06575</text></symbol><symbol id="13"><text y="1.67" class="g">8000</text><text x="8.016" y="1.67" class="g">1.4445</text></symbol><symbol id="14"><text y="1.67" class="g">9000</text><text x="8.016" y="1.67" class="g">1.342625</text></symbol><symbol id="15"><text y="1.67" class="g">Avg</text><text x="4.008" y="1.67" class="g">latency:</text><text x="13.026" y="1.67" class="g">2,3074</text><text x="20.04" y="1.67" class="g">ms</text></symbol><symbol id="a"><path fill="transparent" d="M0 0h140v17H0z"/></symbol><symbol id="b"><path fill="#6f7683" d="M0 0h1.102v2.171H0z"/></symbol></defs><path class="a" d="M0 0h140v34.736H0z"/><g style="animation-duration:21.701520000000002s;animation-iteration-count:infinite;animation-name:j;animation-timing-function:steps(1,end)"><svg width="4480"><svg><use xlink:href="#a"/><use xlink:href="#b" x="-.004"/></svg><svg x="140"><use xlink:href="#a"/><use xlink:href="#b" x="-.004"/></svg><svg x="280"><use xlink:href="#a"/><use xlink:href="#b" x="9.996"/><text y="1.67" class="f">kafka-run-</text></svg><svg x="420"><use xlink:href="#a"/><use xlink:href="#b" x="19.996"/><text y="1.67" class="f">kafka-run-class</text><text x="16.032" y="1.67" class="f">kafk</text></svg><svg x="560"><use xlink:href="#a"/><use xlink:href="#b" x="29.996"/><text y="1.67" class="f">kafka-run-class</text><text x="16.032" y="1.67" class="f">kafka.tools.En</text></svg><svg x="700"><use xlink:href="#a"/><use xlink:href="#b" x="39.996"/><text y="1.67" class="f">kafka-run-class</text><text x="16.032" y="1.67" class="f">kafka.tools.EndToEndLate</text></svg><svg x="840"><use xlink:href="#a"/><use xlink:href="#b" x="3.996" y="2.146"/><use xlink:href="#1"/></svg><svg x="980"><use xlink:href="#a"/><use xlink:href="#b" x="13.996" y="2.146"/><use xlink:href="#1"/><text x="4.008" y="3.841" class="f">localhost:</text></svg><svg x="1120"><use xlink:href="#a"/><use xlink:href="#b" x="23.996" y="2.146"/><use xlink:href="#1"/><text x="4.008" y="3.841" class="f">localhost:29092,loca</text></svg><svg x="1260"><use xlink:href="#a"/><use xlink:href="#b" x="33.996" y="2.146"/><use xlink:href="#1"/><text x="4.008" y="3.841" class="f">localhost:29092,localhost:2909</text></svg><svg x="1400"><use xlink:href="#a"/><use xlink:href="#b" x="43.996" y="2.146"/><use xlink:href="#1"/><text x="4.008" y="3.841" class="f">localhost:29092,localhost:29093,localhos</text></svg><svg x="1540"><use xlink:href="#a"/><use xlink:href="#b" x="-.004" y="4.317"/><use xlink:href="#1"/><use xlink:href="#2" y="2.171"/></svg><svg x="1680"><use xlink:href="#a"/><use xlink:href="#b" x="9.996" y="4.317"/><use xlink:href="#1"/><use xlink:href="#2" y="2.171"/><text x="4.008" y="6.012" class="f">physic</text></svg><svg x="1820"><use xlink:href="#a"/><use xlink:href="#b" x="19.996" y="4.317"/><use xlink:href="#1"/><use xlink:href="#2" y="2.171"/><text x="4.008" y="6.012" class="f">physical-kafka</text><text x="19.038" y="6.012" class="f">1</text></svg><svg x="1960"><use xlink:href="#a"/><use xlink:href="#b" x="29.996" y="4.317"/><use xlink:href="#1"/><use xlink:href="#2" y="2.171"/><text x="4.008" y="6.012" class="f">physical-kafka</text><text x="19.038" y="6.012" class="f">10000</text><text x="25.05" y="6.012" class="f">all</text><text x="29.058" y="6.012" class="f">2</text></svg><svg x="2100"><use xlink:href="#a"/><use xlink:href="#b" x="31.996" y="4.317"/><use xlink:href="#1"/><use xlink:href="#2" y="2.171"/><use xlink:href="#3" y="4.342"/></svg><svg x="2240"><use xlink:href="#a"/><use xlink:href="#b" x="-.004" y="6.488"/><use xlink:href="#1"/><use xlink:href="#2" y="2.171"/><use xlink:href="#3" y="4.342"/></svg><svg x="2380"><use xlink:href="#a"/><use xlink:href="#b" x="-.004" y="8.659"/><use xlink:href="#1"/><use xlink:href="#2" y="2.171"/><use xlink:href="#3" y="4.342"/><use xlink:href="#4" y="6.513"/></svg><svg x="2520"><use xlink:href="#a"/><use xlink:href="#b" x="-.004" y="10.83"/><use xlink:href="#1"/><use xlink:href="#2" y="2.171"/><use xlink:href="#3" y="4.342"/><use xlink:href="#4" y="6.513"/><use xlink:href="#5" y="8.684"/></svg><svg x="2660"><use xlink:href="#a"/><use xlink:href="#b" x="-.004" y="13.001"/><use xlink:href="#1"/><use xlink:href="#2" y="2.171"/><use xlink:href="#3" y="4.342"/><use xlink:href="#4" y="6.513"/><use xlink:href="#5" y="8.684"/><use xlink:href="#6" y="10.855"/></svg><svg x="2800"><use xlink:href="#a"/><use xlink:href="#b" x="-.004" y="15.172"/><use xlink:href="#1"/><use xlink:href="#2" y="2.171"/><use xlink:href="#3" y="4.342"/><use xlink:href="#4" y="6.513"/><use xlink:href="#5" y="8.684"/><use xlink:href="#6" y="10.855"/><use xlink:href="#7" y="13.026"/></svg><svg x="2940"><use xlink:href="#a"/><use xlink:href="#b" x="-.004" y="17.343"/><use xlink:href="#1"/><use xlink:href="#2" y="2.171"/><use xlink:href="#3" y="4.342"/><use xlink:href="#4" y="6.513"/><use xlink:href="#5" y="8.684"/><use xlink:href="#6" y="10.855"/><use xlink:href="#7" y="13.026"/><use xlink:href="#8" y="15.197"/></svg><svg x="3080"><use xlink:href="#a"/><use xlink:href="#b" x="-.004" y="19.514"/><use xlink:href="#1"/><use xlink:href="#2" y="2.171"/><use xlink:href="#3" y="4.342"/><use xlink:href="#4" y="6.513"/><use xlink:href="#5" y="8.684"/><use xlink:href="#6" y="10.855"/><use xlink:href="#7" y="13.026"/><use xlink:href="#8" y="15.197"/><use xlink:href="#9" y="17.368"/></svg><svg x="3220"><use xlink:href="#a"/><use xlink:href="#b" x="-.004" y="21.685"/><use xlink:href="#1"/><use xlink:href="#2" y="2.171"/><use xlink:href="#3" y="4.342"/><use xlink:href="#4" y="6.513"/><use xlink:href="#5" y="8.684"/><use xlink:href="#6" y="10.855"/><use xlink:href="#7" y="13.026"/><use xlink:href="#8" y="15.197"/><use xlink:href="#9" y="17.368"/><use xlink:href="#10" y="19.539"/></svg><svg x="3360"><use xlink:href="#a"/><use xlink:href="#b" x="-.004" y="23.856"/><use xlink:href="#1"/><use xlink:href="#2" y="2.171"/><use xlink:href="#3" y="4.342"/><use xlink:href="#4" y="6.513"/><use xlink:href="#5" y="8.684"/><use xlink:href="#6" y="10.855"/><use xlink:href="#7" y="13.026"/><use xlink:href="#8" y="15.197"/><use xlink:href="#9" y="17.368"/><use xlink:href="#10" y="19.539"/><use xlink:href="#11" y="21.71"/></svg><svg x="3500"><use xlink:href="#a"/><use xlink:href="#b" x="-.004" y="26.027"/><use xlink:href="#1"/><use xlink:href="#2" y="2.171"/><use xlink:href="#3" y="4.342"/><use xlink:href="#4" y="6.513"/><use xlink:href="#5" y="8.684"/><use xlink:href="#6" y="10.855"/><use xlink:href="#7" y="13.026"/><use xlink:href="#8" y="15.197"/><use xlink:href="#9" y="17.368"/><use xlink:href="#10" y="19.539"/><use xlink:href="#11" y="21.71"/><use xlink:href="#12" y="23.881"/></svg><svg x="3640"><use xlink:href="#a"/><use xlink:href="#b" x="-.004" y="28.198"/><use xlink:href="#1"/><use xlink:href="#2" y="2.171"/><use xlink:href="#3" y="4.342"/><use xlink:href="#4" y="6.513"/><use xlink:href="#5" y="8.684"/><use xlink:href="#6" y="10.855"/><use xlink:href="#7" y="13.026"/><use xlink:href="#8" y="15.197"/><use xlink:href="#9" y="17.368"/><use xlink:href="#10" y="19.539"/><use xlink:href="#11" y="21.71"/><use xlink:href="#12" y="23.881"/><use xlink:href="#13" y="26.052"/></svg><svg x="3780"><use xlink:href="#a"/><use xlink:href="#b" x="-.004" y="30.369"/><use xlink:href="#1"/><use xlink:href="#2" y="2.171"/><use xlink:href="#3" y="4.342"/><use xlink:href="#4" y="6.513"/><use xlink:href="#5" y="8.684"/><use xlink:href="#6" y="10.855"/><use xlink:href="#7" y="13.026"/><use xlink:href="#8" y="15.197"/><use xlink:href="#9" y="17.368"/><use xlink:href="#10" y="19.539"/><use xlink:href="#11" y="21.71"/><use xlink:href="#12" y="23.881"/><use xlink:href="#13" y="26.052"/><use xlink:href="#14" y="28.223"/></svg><svg x="3920"><use xlink:href="#a"/><use xlink:href="#b" x="12.996" y="30.369"/><use xlink:href="#1"/><use xlink:href="#2" y="2.171"/><use xlink:href="#3" y="4.342"/><use xlink:href="#4" y="6.513"/><use xlink:href="#5" y="8.684"/><use xlink:href="#6" y="10.855"/><use xlink:href="#7" y="13.026"/><use xlink:href="#8" y="15.197"/><use xlink:href="#9" y="17.368"/><use xlink:href="#10" y="19.539"/><use xlink:href="#11" y="21.71"/><use xlink:href="#12" y="23.881"/><use xlink:href="#13" y="26.052"/><use xlink:href="#14" y="28.223"/><text y="32.064" class="g">Avg</text><text x="4.008" y="32.064" class="g">latency:</text></svg><svg x="4060"><use xlink:href="#a"/><use xlink:href="#b" x="-.004" y="32.54"/><use xlink:href="#1"/><use xlink:href="#2" y="2.171"/><use xlink:href="#3" y="4.342"/><use xlink:href="#4" y="6.513"/><use xlink:href="#5" y="8.684"/><use xlink:href="#6" y="10.855"/><use xlink:href="#7" y="13.026"/><use xlink:href="#8" y="15.197"/><use xlink:href="#9" y="17.368"/><use xlink:href="#10" y="19.539"/><use xlink:href="#11" y="21.71"/><use xlink:href="#12" y="23.881"/><use xlink:href="#13" y="26.052"/><use xlink:href="#14" y="28.223"/><use xlink:href="#15" y="30.394"/></svg><svg x="4200"><use xlink:href="#a"/><use xlink:href="#b" x="19.996" y="32.54"/><use xlink:href="#1"/><use xlink:href="#2" y="2.171"/><use xlink:href="#3" y="4.342"/><use xlink:href="#4" y="6.513"/><use xlink:href="#5" y="8.684"/><use xlink:href="#6" y="10.855"/><use xlink:href="#7" y="13.026"/><use xlink:href="#8" y="15.197"/><use xlink:href="#9" y="17.368"/><use xlink:href="#10" y="19.539"/><use xlink:href="#11" y="21.71"/><use xlink:href="#12" y="23.881"/><use xlink:href="#13" y="26.052"/><use xlink:href="#14" y="28.223"/><use xlink:href="#15" y="30.394"/><text y="34.235" class="g">Percentiles:</text><text x="13.026" y="34.235" class="g">50th</text><text x="18.036" y="34.235" class="g">=</text></svg><svg x="4340"><use xlink:href="#a"/><use xlink:href="#b" x="-.004" y="34.711"/><use xlink:href="#1"/><use xlink:href="#2" y="2.171"/><use xlink:href="#3" y="4.342"/><use xlink:href="#4" y="6.513"/><use xlink:href="#5" y="8.684"/><use xlink:href="#6" y="10.855"/><use xlink:href="#7" y="13.026"/><use xlink:href="#8" y="15.197"/><use xlink:href="#9" y="17.368"/><use xlink:href="#10" y="19.539"/><use xlink:href="#11" y="21.71"/><use xlink:href="#12" y="23.881"/><use xlink:href="#13" y="26.052"/><use xlink:href="#14" y="28.223"/><use xlink:href="#15" y="30.394"/><text y="34.235" class="g">Percentiles:</text><text x="13.026" y="34.235" class="g">50th</text><text x="18.036" y="34.235" class="g">=</text><text x="20.04" y="34.235" class="g">1,</text><text x="23.046" y="34.235" class="g">99th</text><text x="28.056" y="34.235" class="g">=</text><text x="30.06" y="34.235" class="g">13,</text><text x="34.068" y="34.235" class="g">99.9th</text><text x="41.082" y="34.235" class="g">=</text><text x="43.086" y="34.235" class="g">27</text></svg></svg></g></g></svg></svg>