<svg xmlns="http://www.w3.org/2000/svg" xmlns:xlink="http://www.w3.org/1999/xlink" width="1440" height="494.2"><rect width="1440" height="494.2" rx="5" ry="5" class="a"/><svg y="0%" x="0%"><circle cx="20" cy="20" r="6" fill="#ff5f58"/><circle cx="40" cy="20" r="6" fill="#ffbd2e"/><circle cx="60" cy="20" r="6" fill="#18c132"/></svg><svg height="434.2" viewBox="0 0 140 43.42" width="1400" x="15" xmlns="http://www.w3.org/2000/svg" xmlns:xlink="http://www.w3.org/1999/xlink" y="50"><style>@keyframes n{0%{transform:translateX(0)}1.6%{transform:translateX(-140px)}2%{transform:translateX(-280px)}10.8%{transform:translateX(-420px)}15.2%{transform:translateX(-560px)}19.5%{transform:translateX(-700px)}24%{transform:translateX(-840px)}28.5%{transform:translateX(-980px)}33.1%{transform:translateX(-1120px)}37.5%{transform:translateX(-1260px)}41.9%{transform:translateX(-1400px)}46.4%{transform:translateX(-1540px)}50.9%{transform:translateX(-1680px)}55.2%{transform:translateX(-1820px)}64.2%{transform:translateX(-1960px)}68.6%{transform:translateX(-2100px)}73.2%{transform:translateX(-2240px)}77.5%{transform:translateX(-2380px)}81.9%{transform:translateX(-2520px)}86.4%{transform:translateX(-2660px)}90.8%{transform:translateX(-2800px)}95.1%{transform:translateX(-2940px)}95.2%{transform:translateX(-3080px)}to{transform:translateX(-4760px)}}.a{fill:#282d35}.f{fill:#fff;white-space:pre}.g{fill:#b9bfca;font-weight:700}.g,.h,.i,.k{white-space:pre}.h{fill:#71bef2;font-weight:700}.i,.k{fill:#6f7783}.k{fill:#a8cc8c}</style><g font-family="Monaco,Consolas,Menlo,'Bitstream Vera Sans Mono','Powerline Symbols',monospace" font-size="1.67"><defs><symbol id="1"><text y="1.67" class="f">curl</text><text x="5.01" y="1.67" class="f">\</text></symbol><symbol id="2"><text x="4.008" y="1.67" class="f">--silent</text><text x="13.026" y="1.67" class="f">\</text></symbol><symbol id="3"><text x="4.008" y="1.67" class="f">--request</text><text x="14.028" y="1.67" class="f">GET</text><text x="18.036" y="1.67" class="f">&quot;http://localhost:8888/admin/interceptors/v1/vcluster/teamA/interceptors&quot;</text><text x="92.184" y="1.67" class="f">\</text></symbol><symbol id="4"><text x="4.008" y="1.67" class="f">--user</text><text x="11.022" y="1.67" class="f">&quot;admin:conduktor&quot;</text><text x="29.058" y="1.67" class="f">\</text></symbol><symbol id="5"><text x="4.008" y="1.67" class="f">--header</text><text x="13.026" y="1.67" class="f">&apos;Content-Type:</text><text x="28.056" y="1.67" class="f">application/json&apos;</text><text x="46.092" y="1.67" class="f">|</text><text x="48.096" y="1.67" class="f">jq</text></symbol><symbol id="6"><text x="4.008" y="1.67" class="g">{</text></symbol><symbol id="7"><text x="6.012" y="1.67" class="h">&quot;apiKey&quot;</text><text x="14.028" y="1.67" class="g">:</text><text x="16.032" y="1.67" class="i">null</text><text x="20.04" y="1.67" class="g">,</text></symbol><symbol id="8"><text x="6.012" y="1.67" class="h">&quot;priority&quot;</text><text x="16.032" y="1.67" class="g">:</text><text x="18.036" y="1.67" style="white-space:pre" fill="#b9bfca">100</text><text x="21.042" y="1.67" class="g">,</text></symbol><symbol id="9"><text x="6.012" y="1.67" class="h">&quot;timeoutMs&quot;</text><text x="17.034" y="1.67" class="g">:</text><text x="19.038" y="1.67" class="i">null</text><text x="23.046" y="1.67" class="g">,</text></symbol><symbol id="10"><text x="6.012" y="1.67" class="h">&quot;config&quot;</text><text x="14.028" y="1.67" class="g">:</text><text x="16.032" y="1.67" class="g">{</text></symbol><symbol id="11"><text x="8.016" y="1.67" class="h">&quot;topic&quot;</text><text x="15.03" y="1.67" class="g">:</text><text x="17.034" y="1.67" class="k">&quot;customers&quot;</text><text x="28.056" y="1.67" class="g">,</text></symbol><symbol id="12"><text x="8.016" y="1.67" class="h">&quot;schemaRegistryConfig&quot;</text><text x="30.06" y="1.67" class="g">:</text><text x="32.064" y="1.67" class="g">{</text></symbol><symbol id="13"><text x="10.02" y="1.67" class="h">&quot;host&quot;</text><text x="16.032" y="1.67" class="g">:</text><text x="18.036" y="1.67" class="k">&quot;http://schema-registry:8081&quot;</text></symbol><symbol id="14"><text x="8.016" y="1.67" class="g">}</text></symbol><symbol id="15"><text x="6.012" y="1.67" class="g">}</text></symbol><symbol id="16"><text x="4.008" y="1.67" class="g">},</text></symbol><symbol id="17"><text x="6.012" y="1.67" class="h">&quot;name&quot;</text><text x="12.024" y="1.67" class="g">:</text><text x="14.028" y="1.67" class="k">&quot;encrypt&quot;</text><text x="23.046" y="1.67" class="g">,</text></symbol><symbol id="18"><text x="6.012" y="1.67" class="h">&quot;pluginClass&quot;</text><text x="19.038" y="1.67" class="g">:</text><text x="21.042" y="1.67" class="k">&quot;io.conduktor.gateway.interceptor.EncryptPlugin&quot;</text><text x="69.138" y="1.67" class="g">,</text></symbol><symbol id="19"><text x="8.016" y="1.67" class="g">},</text></symbol><symbol id="20"><text x="8.016" y="1.67" class="h">&quot;fields&quot;</text><text x="16.032" y="1.67" class="g">:</text><text x="18.036" y="1.67" class="g">[</text></symbol><symbol id="21"><text x="10.02" y="1.67" class="g">{</text></symbol><symbol id="22"><text x="12.024" y="1.67" class="h">&quot;fieldName&quot;</text><text x="23.046" y="1.67" class="g">:</text><text x="25.05" y="1.67" class="k">&quot;password&quot;</text><text x="35.07" y="1.67" class="g">,</text></symbol><symbol id="23"><text x="12.024" y="1.67" class="h">&quot;keySecretId&quot;</text><text x="25.05" y="1.67" class="g">:</text><text x="27.054" y="1.67" class="k">&quot;password-secret&quot;</text><text x="44.088" y="1.67" class="g">,</text></symbol><symbol id="24"><text x="12.024" y="1.67" class="h">&quot;algorithm&quot;</text><text x="23.046" y="1.67" class="g">:</text><text x="25.05" y="1.67" class="g">{</text></symbol><symbol id="25"><text x="14.028" y="1.67" class="h">&quot;type&quot;</text><text x="20.04" y="1.67" class="g">:</text><text x="22.044" y="1.67" class="k">&quot;AES_GCM&quot;</text><text x="31.062" y="1.67" class="g">,</text></symbol><symbol id="26"><text x="14.028" y="1.67" class="h">&quot;kms&quot;</text><text x="19.038" y="1.67" class="g">:</text><text x="21.042" y="1.67" class="k">&quot;IN_MEMORY&quot;</text></symbol><symbol id="27"><text x="12.024" y="1.67" class="g">}</text></symbol><symbol id="28"><text x="10.02" y="1.67" class="g">},</text></symbol><symbol id="29"><text x="12.024" y="1.67" class="h">&quot;fieldName&quot;</text><text x="23.046" y="1.67" class="g">:</text><text x="25.05" y="1.67" class="k">&quot;visa&quot;</text><text x="31.062" y="1.67" class="g">,</text></symbol><symbol id="30"><text x="12.024" y="1.67" class="h">&quot;keySecretId&quot;</text><text x="25.05" y="1.67" class="g">:</text><text x="27.054" y="1.67" class="k">&quot;visa-scret&quot;</text><text x="39.078" y="1.67" class="g">,</text></symbol><symbol id="31"><text x="12.024" y="1.67" class="h">&quot;fieldName&quot;</text><text x="23.046" y="1.67" class="g">:</text><text x="25.05" y="1.67" class="k">&quot;address.location&quot;</text><text x="43.086" y="1.67" class="g">,</text></symbol><symbol id="32"><text x="12.024" y="1.67" class="h">&quot;keySecretId&quot;</text><text x="25.05" y="1.67" class="g">:</text><text x="27.054" y="1.67" class="k">&quot;location-secret&quot;</text><text x="44.088" y="1.67" class="g">,</text></symbol><symbol id="33"><text x="10.02" y="1.67" class="g">}</text></symbol><symbol id="34"><text x="8.016" y="1.67" class="g">]</text></symbol><symbol id="35"><text x="4.008" y="1.67" class="g">}</text></symbol><symbol id="36"><text x="2.004" y="1.67" class="g">]</text></symbol><symbol id="a"><path fill="transparent" d="M0 0h140v21H0z"/></symbol><symbol id="b"><path fill="#6f7683" d="M0 0h1.102v2.171H0z"/></symbol></defs><path class="a" d="M0 0h140v43.42H0z"/><g style="animation-duration:2.077977s;animation-iteration-count:infinite;animation-name:n;animation-timing-function:steps(1,end)"><svg width="4900"><svg><use xlink:href="#a"/><use xlink:href="#b" x="-.004"/></svg><svg x="140"><use xlink:href="#a"/><use xlink:href="#b" x="-.004"/></svg><svg x="280"><use xlink:href="#a"/><use xlink:href="#b" x="2.996" y="2.146"/><use xlink:href="#1"/></svg><svg x="420"><use xlink:href="#a"/><use xlink:href="#b" x="12.996" y="2.146"/><use xlink:href="#1"/><text x="4.008" y="3.841" class="f">--silent</text></svg><svg x="560"><use xlink:href="#a"/><use xlink:href="#b" x="7.996" y="4.317"/><use xlink:href="#1"/><use xlink:href="#2" y="2.171"/><text x="4.008" y="6.012" class="f">--re</text></svg><svg x="700"><use xlink:href="#a"/><use xlink:href="#b" x="17.996" y="4.317"/><use xlink:href="#1"/><use xlink:href="#2" y="2.171"/><text x="4.008" y="6.012" class="f">--request</text><text x="14.028" y="6.012" class="f">GET</text></svg><svg x="840"><use xlink:href="#a"/><use xlink:href="#b" x="27.996" y="4.317"/><use xlink:href="#1"/><use xlink:href="#2" y="2.171"/><text x="4.008" y="6.012" class="f">--request</text><text x="14.028" y="6.012" class="f">GET</text><text x="18.036" y="6.012" class="f">&quot;http://lo</text></svg><svg x="980"><use xlink:href="#a"/><use xlink:href="#b" x="37.996" y="4.317"/><use xlink:href="#1"/><use xlink:href="#2" y="2.171"/><text x="4.008" y="6.012" class="f">--request</text><text x="14.028" y="6.012" class="f">GET</text><text x="18.036" y="6.012" class="f">&quot;http://localhost:88</text></svg><svg x="1120"><use xlink:href="#a"/><use xlink:href="#b" x="47.996" y="4.317"/><use xlink:href="#1"/><use xlink:href="#2" y="2.171"/><text x="4.008" y="6.012" class="f">--request</text><text x="14.028" y="6.012" class="f">GET</text><text x="18.036" y="6.012" class="f">&quot;http://localhost:8888/admin/i</text></svg><svg x="1260"><use xlink:href="#a"/><use xlink:href="#b" x="57.996" y="4.317"/><use xlink:href="#1"/><use xlink:href="#2" y="2.171"/><text x="4.008" y="6.012" class="f">--request</text><text x="14.028" y="6.012" class="f">GET</text><text x="18.036" y="6.012" class="f">&quot;http://localhost:8888/admin/interceptor</text></svg><svg x="1400"><use xlink:href="#a"/><use xlink:href="#b" x="67.996" y="4.317"/><use xlink:href="#1"/><use xlink:href="#2" y="2.171"/><text x="4.008" y="6.012" class="f">--request</text><text x="14.028" y="6.012" class="f">GET</text><text x="18.036" y="6.012" class="f">&quot;http://localhost:8888/admin/interceptors/v1/vclus</text></svg><svg x="1540"><use xlink:href="#a"/><use xlink:href="#b" x="77.996" y="4.317"/><use xlink:href="#1"/><use xlink:href="#2" y="2.171"/><text x="4.008" y="6.012" class="f">--request</text><text x="14.028" y="6.012" class="f">GET</text><text x="18.036" y="6.012" class="f">&quot;http://localhost:8888/admin/interceptors/v1/vcluster/teamA/</text></svg><svg x="1680"><use xlink:href="#a"/><use xlink:href="#b" x="87.996" y="4.317"/><use xlink:href="#1"/><use xlink:href="#2" y="2.171"/><text x="4.008" y="6.012" class="f">--request</text><text x="14.028" y="6.012" class="f">GET</text><text x="18.036" y="6.012" class="f">&quot;http://localhost:8888/admin/interceptors/v1/vcluster/teamA/intercepto</text></svg><svg x="1820"><use xlink:href="#a"/><use xlink:href="#b" x="3.996" y="6.488"/><use xlink:href="#1"/><use xlink:href="#2" y="2.171"/><use xlink:href="#3" y="4.342"/></svg><svg x="1960"><use xlink:href="#a"/><use xlink:href="#b" x="13.996" y="6.488"/><use xlink:href="#1"/><use xlink:href="#2" y="2.171"/><use xlink:href="#3" y="4.342"/><text x="4.008" y="8.183" class="f">--user</text><text x="11.022" y="8.183" class="f">&quot;ad</text></svg><svg x="2100"><use xlink:href="#a"/><use xlink:href="#b" x="23.996" y="6.488"/><use xlink:href="#1"/><use xlink:href="#2" y="2.171"/><use xlink:href="#3" y="4.342"/><text x="4.008" y="8.183" class="f">--user</text><text x="11.022" y="8.183" class="f">&quot;admin:conduk</text></svg><svg x="2240"><use xlink:href="#a"/><use xlink:href="#b" x="2.996" y="8.659"/><use xlink:href="#1"/><use xlink:href="#2" y="2.171"/><use xlink:href="#3" y="4.342"/><use xlink:href="#4" y="6.513"/></svg><svg x="2380"><use xlink:href="#a"/><use xlink:href="#b" x="12.996" y="8.659"/><use xlink:href="#1"/><use xlink:href="#2" y="2.171"/><use xlink:href="#3" y="4.342"/><use xlink:href="#4" y="6.513"/><text x="4.008" y="10.354" class="f">--header</text></svg><svg x="2520"><use xlink:href="#a"/><use xlink:href="#b" x="22.996" y="8.659"/><use xlink:href="#1"/><use xlink:href="#2" y="2.171"/><use xlink:href="#3" y="4.342"/><use xlink:href="#4" y="6.513"/><text x="4.008" y="10.354" class="f">--header</text><text x="13.026" y="10.354" class="f">&apos;Content-T</text></svg><svg x="2660"><use xlink:href="#a"/><use xlink:href="#b" x="32.996" y="8.659"/><use xlink:href="#1"/><use xlink:href="#2" y="2.171"/><use xlink:href="#3" y="4.342"/><use xlink:href="#4" y="6.513"/><text x="4.008" y="10.354" class="f">--header</text><text x="13.026" y="10.354" class="f">&apos;Content-Type:</text><text x="28.056" y="10.354" class="f">appli</text></svg><svg x="2800"><use xlink:href="#a"/><use xlink:href="#b" x="42.996" y="8.659"/><use xlink:href="#1"/><use xlink:href="#2" y="2.171"/><use xlink:href="#3" y="4.342"/><use xlink:href="#4" y="6.513"/><text x="4.008" y="10.354" class="f">--header</text><text x="13.026" y="10.354" class="f">&apos;Content-Type:</text><text x="28.056" y="10.354" class="f">application/jso</text></svg><svg x="2940"><use xlink:href="#a"/><use xlink:href="#b" x="-.004" y="10.83"/><use xlink:href="#1"/><use xlink:href="#2" y="2.171"/><use xlink:href="#3" y="4.342"/><use xlink:href="#4" y="6.513"/><use xlink:href="#5" y="8.684"/></svg><svg x="3080"><use xlink:href="#a"/><use xlink:href="#b" x="-.004" y="13.001"/><use xlink:href="#1"/><use xlink:href="#2" y="2.171"/><use xlink:href="#3" y="4.342"/><use xlink:href="#4" y="6.513"/><use xlink:href="#5" y="8.684"/></svg><svg x="3220"><use xlink:href="#a"/><use xlink:href="#b" x="67.996" y="43.395"/><use xlink:href="#4"/><use xlink:href="#5" y="2.171"/><text y="8.183" class="g">{</text><text x="2.004" y="10.354" class="h">&quot;interceptors&quot;</text><text x="16.032" y="10.354" class="g">:</text><text x="18.036" y="10.354" class="g">[</text><use xlink:href="#6" y="10.855"/><text x="6.012" y="14.696" class="h">&quot;name&quot;</text><text x="12.024" y="14.696" class="g">:</text><text x="14.028" y="14.696" class="k">&quot;decrypt&quot;</text><text x="23.046" y="14.696" class="g">,</text><text x="6.012" y="16.867" class="h">&quot;pluginClass&quot;</text><text x="19.038" y="16.867" class="g">:</text><text x="21.042" y="16.867" class="k">&quot;io.conduktor.gateway.interceptor.DecryptPlugin&quot;</text><text x="69.138" y="16.867" class="g">,</text><use xlink:href="#7" y="17.368"/><use xlink:href="#8" y="19.539"/><use xlink:href="#9" y="21.71"/><use xlink:href="#10" y="23.881"/><use xlink:href="#11" y="26.052"/><use xlink:href="#12" y="28.223"/><use xlink:href="#13" y="30.394"/><use xlink:href="#14" y="32.565"/><use xlink:href="#15" y="34.736"/><use xlink:href="#16" y="36.907"/><use xlink:href="#6" y="39.078"/><use xlink:href="#17" y="41.249"/><text x="6.012" y="45.09" class="h">&quot;pluginClass&quot;</text><text x="19.038" y="45.09" class="g">:</text><text x="21.042" y="45.09" class="k">&quot;io.conduktor.gateway.interceptor.EncryptPlugin</text></svg><svg x="3360"><use xlink:href="#a"/><use xlink:href="#b" x="-.004" y="43.395"/><use xlink:href="#9"/><use xlink:href="#10" y="2.171"/><use xlink:href="#11" y="4.342"/><use xlink:href="#12" y="6.513"/><use xlink:href="#13" y="8.684"/><use xlink:href="#14" y="10.855"/><use xlink:href="#15" y="13.026"/><use xlink:href="#16" y="15.197"/><use xlink:href="#6" y="17.368"/><use xlink:href="#17" y="19.539"/><use xlink:href="#18" y="21.71"/><use xlink:href="#7" y="23.881"/><use xlink:href="#8" y="26.052"/><use xlink:href="#9" y="28.223"/><use xlink:href="#10" y="30.394"/><use xlink:href="#12" y="32.565"/><use xlink:href="#13" y="34.736"/><use xlink:href="#19" y="36.907"/><use xlink:href="#20" y="39.078"/><use xlink:href="#21" y="41.249"/></svg><svg x="3500"><use xlink:href="#a"/><use xlink:href="#b" x="-.004" y="43.395"/><use xlink:href="#12"/><use xlink:href="#13" y="2.171"/><use xlink:href="#14" y="4.342"/><use xlink:href="#15" y="6.513"/><use xlink:href="#16" y="8.684"/><use xlink:href="#6" y="10.855"/><use xlink:href="#17" y="13.026"/><use xlink:href="#18" y="15.197"/><use xlink:href="#7" y="17.368"/><use xlink:href="#8" y="19.539"/><use xlink:href="#9" y="21.71"/><use xlink:href="#10" y="23.881"/><use xlink:href="#12" y="26.052"/><use xlink:href="#13" y="28.223"/><use xlink:href="#19" y="30.394"/><use xlink:href="#20" y="32.565"/><use xlink:href="#21" y="34.736"/><use xlink:href="#22" y="36.907"/><use xlink:href="#23" y="39.078"/><use xlink:href="#24" y="41.249"/></svg><svg x="3640"><use xlink:href="#a"/><use xlink:href="#b" x="-.004" y="43.395"/><use xlink:href="#15"/><use xlink:href="#16" y="2.171"/><use xlink:href="#6" y="4.342"/><use xlink:href="#17" y="6.513"/><use xlink:href="#18" y="8.684"/><use xlink:href="#7" y="10.855"/><use xlink:href="#8" y="13.026"/><use xlink:href="#9" y="15.197"/><use xlink:href="#10" y="17.368"/><use xlink:href="#12" y="19.539"/><use xlink:href="#13" y="21.71"/><use xlink:href="#19" y="23.881"/><use xlink:href="#20" y="26.052"/><use xlink:href="#21" y="28.223"/><use xlink:href="#22" y="30.394"/><use xlink:href="#23" y="32.565"/><use xlink:href="#24" y="34.736"/><use xlink:href="#25" y="36.907"/><use xlink:href="#26" y="39.078"/><use xlink:href="#27" y="41.249"/></svg><svg x="3780"><use xlink:href="#a"/><use xlink:href="#b" x="-.004" y="43.395"/><use xlink:href="#7"/><use xlink:href="#8" y="2.171"/><use xlink:href="#9" y="4.342"/><use xlink:href="#10" y="6.513"/><use xlink:href="#12" y="8.684"/><use xlink:href="#13" y="10.855"/><use xlink:href="#19" y="13.026"/><use xlink:href="#20" y="15.197"/><use xlink:href="#21" y="17.368"/><use xlink:href="#22" y="19.539"/><use xlink:href="#23" y="21.71"/><use xlink:href="#24" y="23.881"/><use xlink:href="#25" y="26.052"/><use xlink:href="#26" y="28.223"/><use xlink:href="#27" y="30.394"/><use xlink:href="#28" y="32.565"/><use xlink:href="#21" y="34.736"/><use xlink:href="#29" y="36.907"/><use xlink:href="#30" y="39.078"/><use xlink:href="#24" y="41.249"/></svg><svg x="3920"><use xlink:href="#a"/><use xlink:href="#b" x="-.004" y="43.395"/><use xlink:href="#10"/><use xlink:href="#12" y="2.171"/><use xlink:href="#13" y="4.342"/><use xlink:href="#19" y="6.513"/><use xlink:href="#20" y="8.684"/><use xlink:href="#21" y="10.855"/><use xlink:href="#22" y="13.026"/><use xlink:href="#23" y="15.197"/><use xlink:href="#24" y="17.368"/><use xlink:href="#25" y="19.539"/><use xlink:href="#26" y="21.71"/><use xlink:href="#27" y="23.881"/><use xlink:href="#28" y="26.052"/><use xlink:href="#21" y="28.223"/><use xlink:href="#29" y="30.394"/><use xlink:href="#30" y="32.565"/><use xlink:href="#24" y="34.736"/><use xlink:href="#25" y="36.907"/><use xlink:href="#26" y="39.078"/><use xlink:href="#27" y="41.249"/></svg><svg x="4060"><use xlink:href="#a"/><use xlink:href="#b" x="-.004" y="43.395"/><use xlink:href="#13"/><use xlink:href="#19" y="2.171"/><use xlink:href="#20" y="4.342"/><use xlink:href="#21" y="6.513"/><use xlink:href="#22" y="8.684"/><use xlink:href="#23" y="10.855"/><use xlink:href="#24" y="13.026"/><use xlink:href="#25" y="15.197"/><use xlink:href="#26" y="17.368"/><use xlink:href="#27" y="19.539"/><use xlink:href="#28" y="21.71"/><use xlink:href="#21" y="23.881"/><use xlink:href="#29" y="26.052"/><use xlink:href="#30" y="28.223"/><use xlink:href="#24" y="30.394"/><use xlink:href="#25" y="32.565"/><use xlink:href="#26" y="34.736"/><use xlink:href="#27" y="36.907"/><use xlink:href="#28" y="39.078"/><use xlink:href="#21" y="41.249"/></svg><svg x="4200"><use xlink:href="#a"/><use xlink:href="#b" x="-.004" y="43.395"/><use xlink:href="#20"/><use xlink:href="#21" y="2.171"/><use xlink:href="#22" y="4.342"/><use xlink:href="#23" y="6.513"/><use xlink:href="#24" y="8.684"/><use xlink:href="#25" y="10.855"/><use xlink:href="#26" y="13.026"/><use xlink:href="#27" y="15.197"/><use xlink:href="#28" y="17.368"/><use xlink:href="#21" y="19.539"/><use xlink:href="#29" y="21.71"/><use xlink:href="#30" y="23.881"/><use xlink:href="#24" y="26.052"/><use xlink:href="#25" y="28.223"/><use xlink:href="#26" y="30.394"/><use xlink:href="#27" y="32.565"/><use xlink:href="#28" y="34.736"/><use xlink:href="#21" y="36.907"/><use xlink:href="#31" y="39.078"/><use xlink:href="#32" y="41.249"/></svg><svg x="4340"><use xlink:href="#a"/><use xlink:href="#b" x="-.004" y="43.395"/><use xlink:href="#22"/><use xlink:href="#23" y="2.171"/><use xlink:href="#24" y="4.342"/><use xlink:href="#25" y="6.513"/><use xlink:href="#26" y="8.684"/><use xlink:href="#27" y="10.855"/><use xlink:href="#28" y="13.026"/><use xlink:href="#21" y="15.197"/><use xlink:href="#29" y="17.368"/><use xlink:href="#30" y="19.539"/><use xlink:href="#24" y="21.71"/><use xlink:href="#25" y="23.881"/><use xlink:href="#26" y="26.052"/><use xlink:href="#27" y="28.223"/><use xlink:href="#28" y="30.394"/><use xlink:href="#21" y="32.565"/><use xlink:href="#31" y="34.736"/><use xlink:href="#32" y="36.907"/><use xlink:href="#24" y="39.078"/><use xlink:href="#25" y="41.249"/></svg><svg x="4480"><use xlink:href="#a"/><use xlink:href="#b" x="-.004" y="43.395"/><use xlink:href="#25"/><use xlink:href="#26" y="2.171"/><use xlink:href="#27" y="4.342"/><use xlink:href="#28" y="6.513"/><use xlink:href="#21" y="8.684"/><use xlink:href="#29" y="10.855"/><use xlink:href="#30" y="13.026"/><use xlink:href="#24" y="15.197"/><use xlink:href="#25" y="17.368"/><use xlink:href="#26" y="19.539"/><use xlink:href="#27" y="21.71"/><use xlink:href="#28" y="23.881"/><use xlink:href="#21" y="26.052"/><use xlink:href="#31" y="28.223"/><use xlink:href="#32" y="30.394"/><use xlink:href="#24" y="32.565"/><use xlink:href="#25" y="34.736"/><use xlink:href="#26" y="36.907"/><use xlink:href="#27" y="39.078"/><use xlink:href="#33" y="41.249"/></svg><svg x="4620"><use xlink:href="#a"/><use xlink:href="#b" x="-.004" y="43.395"/><use xlink:href="#21"/><use xlink:href="#29" y="2.171"/><use xlink:href="#30" y="4.342"/><use xlink:href="#24" y="6.513"/><use xlink:href="#25" y="8.684"/><use xlink:href="#26" y="10.855"/><use xlink:href="#27" y="13.026"/><use xlink:href="#28" y="15.197"/><use xlink:href="#21" y="17.368"/><use xlink:href="#31" y="19.539"/><use xlink:href="#32" y="21.71"/><use xlink:href="#24" y="23.881"/><use xlink:href="#25" y="26.052"/><use xlink:href="#26" y="28.223"/><use xlink:href="#27" y="30.394"/><use xlink:href="#33" y="32.565"/><use xlink:href="#34" y="34.736"/><use xlink:href="#15" y="36.907"/><use xlink:href="#35" y="39.078"/><use xlink:href="#36" y="41.249"/></svg><svg x="4760"><use xlink:href="#a"/><use xlink:href="#b" x="-.004" y="43.395"/><use xlink:href="#29"/><use xlink:href="#30" y="2.171"/><use xlink:href="#24" y="4.342"/><use xlink:href="#25" y="6.513"/><use xlink:href="#26" y="8.684"/><use xlink:href="#27" y="10.855"/><use xlink:href="#28" y="13.026"/><use xlink:href="#21" y="15.197"/><use xlink:href="#31" y="17.368"/><use xlink:href="#32" y="19.539"/><use xlink:href="#24" y="21.71"/><use xlink:href="#25" y="23.881"/><use xlink:href="#26" y="26.052"/><use xlink:href="#27" y="28.223"/><use xlink:href="#33" y="30.394"/><use xlink:href="#34" y="32.565"/><use xlink:href="#15" y="34.736"/><use xlink:href="#35" y="36.907"/><use xlink:href="#36" y="39.078"/><text y="42.919" class="g">}</text></svg></svg></g></g></svg></svg>