<svg xmlns="http://www.w3.org/2000/svg" xmlns:xlink="http://www.w3.org/1999/xlink" width="1440" height="494.2"><rect width="1440" height="494.2" rx="5" ry="5" class="a"/><svg y="0%" x="0%"><circle cx="20" cy="20" r="6" fill="#ff5f58"/><circle cx="40" cy="20" r="6" fill="#ffbd2e"/><circle cx="60" cy="20" r="6" fill="#18c132"/></svg><svg height="434.2" viewBox="0 0 140 43.42" width="1400" x="15" xmlns="http://www.w3.org/2000/svg" xmlns:xlink="http://www.w3.org/1999/xlink" y="50"><style>@keyframes l{0%{transform:translateX(0)}2.1%{transform:translateX(-140px)}2.4%{transform:translateX(-280px)}7.8%{transform:translateX(-420px)}10.5%{transform:translateX(-560px)}13.2%{transform:translateX(-700px)}15.9%{transform:translateX(-840px)}18.7%{transform:translateX(-980px)}21.4%{transform:translateX(-1120px)}24.1%{transform:translateX(-1260px)}26.8%{transform:translateX(-1400px)}29.5%{transform:translateX(-1540px)}32.3%{transform:translateX(-1680px)}37.7%{transform:translateX(-1820px)}40.4%{transform:translateX(-2100px)}to{transform:translateX(-2380px)}}.a{fill:#282d35}.f{fill:#fff;white-space:pre}.g{fill:#b9bfca;font-weight:700}.g,.h,.i{white-space:pre}.h{fill:#71bef2;font-weight:700}.i{fill:#a8cc8c}</style><g font-family="Monaco,Consolas,Menlo,'Bitstream Vera Sans Mono','Powerline Symbols',monospace" font-size="1.67"><defs><symbol id="1"><text y="1.67" class="f">kafka-json-schema-console-consumer</text><text x="35.07" y="1.67" class="f">\</text></symbol><symbol id="2"><text x="2.004" y="1.67" class="f">-</text></symbol><symbol id="3"><text x="2.004" y="1.67" class="f">--bootstrap-server</text><text x="21.042" y="1.67" class="f">localhost:6969</text><text x="36.072" y="1.67" class="f">\</text></symbol><symbol id="4"><text x="2.004" y="1.67" class="f">--consumer.config</text><text x="20.04" y="1.67" class="f">teamA-sa.properties</text><text x="40.08" y="1.67" class="f">\</text></symbol><symbol id="5"><text x="2.004" y="1.67" class="f">--property</text><text x="13.026" y="1.67" class="f">schema.registry.url=http://localhost:8081</text><text x="55.11" y="1.67" class="f">\</text></symbol><symbol id="6"><text x="2.004" y="1.67" class="f">--topic</text><text x="10.02" y="1.67" class="f">customers</text><text x="20.04" y="1.67" class="f">\</text></symbol><symbol id="7"><text x="2.004" y="1.67" class="f">--from-beginning</text><text x="19.038" y="1.67" class="f">\</text></symbol><symbol id="8"><text x="2.004" y="1.67" class="f">--max-messages</text><text x="17.034" y="1.67" class="f">2</text><text x="19.038" y="1.67" class="f">2&gt;&amp;1</text><text x="24.048" y="1.67" class="f">|</text><text x="26.052" y="1.67" class="f">grep</text><text x="31.062" y="1.67" class="f">&apos;{&apos;</text><text x="35.07" y="1.67" class="f">|</text><text x="37.074" y="1.67" class="f">jq</text></symbol><symbol id="9"><text y="1.67" class="g">{</text></symbol><symbol id="10"><text x="2.004" y="1.67" class="h">&quot;username&quot;</text><text x="12.024" y="1.67" class="g">:</text><text x="14.028" y="1.67" class="i">&quot;tom@conduktor.io&quot;</text><text x="32.064" y="1.67" class="g">,</text></symbol><symbol id="11"><text x="2.004" y="1.67" class="h">&quot;password&quot;</text><text x="12.024" y="1.67" class="g">:</text><text x="14.028" y="1.67" class="i">&quot;motorhead&quot;</text><text x="25.05" y="1.67" class="g">,</text></symbol><symbol id="12"><text x="2.004" y="1.67" class="h">&quot;visa&quot;</text><text x="8.016" y="1.67" class="g">:</text><text x="10.02" y="1.67" class="i">&quot;#abc123&quot;</text><text x="19.038" y="1.67" class="g">,</text></symbol><symbol id="13"><text x="2.004" y="1.67" class="h">&quot;address&quot;</text><text x="11.022" y="1.67" class="g">:</text><text x="13.026" y="1.67" class="g">{</text></symbol><symbol id="14"><text x="4.008" y="1.67" class="h">&quot;location&quot;</text><text x="14.028" y="1.67" class="g">:</text><text x="16.032" y="1.67" class="i">&quot;12</text><text x="20.04" y="1.67" class="i">Chancery</text><text x="29.058" y="1.67" class="i">lane&quot;</text><text x="34.068" y="1.67" class="g">,</text></symbol><symbol id="15"><text x="4.008" y="1.67" class="h">&quot;town&quot;</text><text x="10.02" y="1.67" class="g">:</text><text x="12.024" y="1.67" class="i">&quot;London&quot;</text><text x="20.04" y="1.67" class="g">,</text></symbol><symbol id="16"><text x="4.008" y="1.67" class="h">&quot;country&quot;</text><text x="13.026" y="1.67" class="g">:</text><text x="15.03" y="1.67" class="i">&quot;UK&quot;</text></symbol><symbol id="17"><text x="2.004" y="1.67" class="g">}</text></symbol><symbol id="18"><text y="1.67" class="g">}</text></symbol><symbol id="19"><text x="2.004" y="1.67" class="h">&quot;name&quot;</text><text x="8.016" y="1.67" class="g">:</text><text x="10.02" y="1.67" class="i">&quot;florent&quot;</text><text x="19.038" y="1.67" class="g">,</text></symbol><symbol id="20"><text x="2.004" y="1.67" class="h">&quot;username&quot;</text><text x="12.024" y="1.67" class="g">:</text><text x="14.028" y="1.67" class="i">&quot;florent@conduktor.io&quot;</text><text x="36.072" y="1.67" class="g">,</text></symbol><symbol id="21"><text x="2.004" y="1.67" class="h">&quot;password&quot;</text><text x="12.024" y="1.67" class="g">:</text><text x="14.028" y="1.67" class="i">&quot;kitesurf&quot;</text><text x="24.048" y="1.67" class="g">,</text></symbol><symbol id="22"><text x="2.004" y="1.67" class="h">&quot;visa&quot;</text><text x="8.016" y="1.67" class="g">:</text><text x="10.02" y="1.67" class="i">&quot;#888999XZ;&quot;</text><text x="22.044" y="1.67" class="g">,</text></symbol><symbol id="23"><text x="4.008" y="1.67" class="h">&quot;location&quot;</text><text x="14.028" y="1.67" class="g">:</text><text x="16.032" y="1.67" class="i">&quot;4th</text><text x="21.042" y="1.67" class="i">Street,</text><text x="29.058" y="1.67" class="i">Jumeirah&quot;</text><text x="38.076" y="1.67" class="g">,</text></symbol><symbol id="a"><path fill="transparent" d="M0 0h140v21H0z"/></symbol><symbol id="b"><path fill="#6f7683" d="M0 0h1.102v2.171H0z"/></symbol></defs><path class="a" d="M0 0h140v43.42H0z"/><g style="animation-duration:3.3572489999999995s;animation-iteration-count:infinite;animation-name:l;animation-timing-function:steps(1,end)"><svg width="2520"><svg><use xlink:href="#a"/><use xlink:href="#b" x="-.004"/></svg><svg x="140"><use xlink:href="#a"/><use xlink:href="#b" x="-.004"/></svg><svg x="280"><use xlink:href="#a"/><use xlink:href="#b" x="19.996"/><text y="1.67" class="f">kafka-json-schema-co</text></svg><svg x="420"><use xlink:href="#a"/><use xlink:href="#b" x="2.996" y="2.146"/><use xlink:href="#1"/><use xlink:href="#2" y="2.171"/></svg><svg x="560"><use xlink:href="#a"/><use xlink:href="#b" x="22.996" y="2.146"/><use xlink:href="#1"/><text x="2.004" y="3.841" class="f">--bootstrap-server</text><text x="21.042" y="3.841" class="f">lo</text></svg><svg x="700"><use xlink:href="#a"/><use xlink:href="#b" x="4.996" y="4.317"/><use xlink:href="#1"/><use xlink:href="#3" y="2.171"/><text x="2.004" y="6.012" class="f">--c</text></svg><svg x="840"><use xlink:href="#a"/><use xlink:href="#b" x="24.996" y="4.317"/><use xlink:href="#1"/><use xlink:href="#3" y="2.171"/><text x="2.004" y="6.012" class="f">--consumer.config</text><text x="20.04" y="6.012" class="f">teamA</text></svg><svg x="980"><use xlink:href="#a"/><use xlink:href="#b" x="2.996" y="6.488"/><use xlink:href="#1"/><use xlink:href="#3" y="2.171"/><use xlink:href="#4" y="4.342"/><use xlink:href="#2" y="6.513"/></svg><svg x="1120"><use xlink:href="#a"/><use xlink:href="#b" x="22.996" y="6.488"/><use xlink:href="#1"/><use xlink:href="#3" y="2.171"/><use xlink:href="#4" y="4.342"/><text x="2.004" y="8.183" class="f">--property</text><text x="13.026" y="8.183" class="f">schema.reg</text></svg><svg x="1260"><use xlink:href="#a"/><use xlink:href="#b" x="42.996" y="6.488"/><use xlink:href="#1"/><use xlink:href="#3" y="2.171"/><use xlink:href="#4" y="4.342"/><text x="2.004" y="8.183" class="f">--property</text><text x="13.026" y="8.183" class="f">schema.registry.url=http://loc</text></svg><svg x="1400"><use xlink:href="#a"/><use xlink:href="#b" x="5.996" y="8.659"/><use xlink:href="#1"/><use xlink:href="#3" y="2.171"/><use xlink:href="#4" y="4.342"/><use xlink:href="#5" y="6.513"/><text x="2.004" y="10.354" class="f">--to</text></svg><svg x="1540"><use xlink:href="#a"/><use xlink:href="#b" x="3.996" y="10.83"/><use xlink:href="#1"/><use xlink:href="#3" y="2.171"/><use xlink:href="#4" y="4.342"/><use xlink:href="#5" y="6.513"/><use xlink:href="#6" y="8.684"/><text x="2.004" y="12.525" class="f">--</text></svg><svg x="1680"><use xlink:href="#a"/><use xlink:href="#b" x="2.996" y="13.001"/><use xlink:href="#1"/><use xlink:href="#3" y="2.171"/><use xlink:href="#4" y="4.342"/><use xlink:href="#5" y="6.513"/><use xlink:href="#6" y="8.684"/><use xlink:href="#7" y="10.855"/><use xlink:href="#2" y="13.026"/></svg><svg x="1820"><use xlink:href="#a"/><use xlink:href="#b" x="22.996" y="13.001"/><use xlink:href="#1"/><use xlink:href="#3" y="2.171"/><use xlink:href="#4" y="4.342"/><use xlink:href="#5" y="6.513"/><use xlink:href="#6" y="8.684"/><use xlink:href="#7" y="10.855"/><text x="2.004" y="14.696" class="f">--max-messages</text><text x="17.034" y="14.696" class="f">2</text><text x="19.038" y="14.696" class="f">2&gt;&amp;1</text></svg><svg x="1960"><use xlink:href="#a"/><use xlink:href="#b" x="38.996" y="13.001"/><use xlink:href="#1"/><use xlink:href="#3" y="2.171"/><use xlink:href="#4" y="4.342"/><use xlink:href="#5" y="6.513"/><use xlink:href="#6" y="8.684"/><use xlink:href="#7" y="10.855"/><use xlink:href="#8" y="13.026"/></svg><svg x="2100"><use xlink:href="#a"/><use xlink:href="#b" x="-.004" y="15.172"/><use xlink:href="#1"/><use xlink:href="#3" y="2.171"/><use xlink:href="#4" y="4.342"/><use xlink:href="#5" y="6.513"/><use xlink:href="#6" y="8.684"/><use xlink:href="#7" y="10.855"/><use xlink:href="#8" y="13.026"/></svg><svg x="2240"><use xlink:href="#a"/><use xlink:href="#b" x="2.996" y="43.395"/><use xlink:href="#7"/><use xlink:href="#8" y="2.171"/><use xlink:href="#9" y="4.342"/><text x="2.004" y="8.183" class="h">&quot;name&quot;</text><text x="8.016" y="8.183" class="g">:</text><text x="10.02" y="8.183" class="i">&quot;tom&quot;</text><text x="15.03" y="8.183" class="g">,</text><use xlink:href="#10" y="8.684"/><use xlink:href="#11" y="10.855"/><use xlink:href="#12" y="13.026"/><use xlink:href="#13" y="15.197"/><use xlink:href="#14" y="17.368"/><use xlink:href="#15" y="19.539"/><use xlink:href="#16" y="21.71"/><use xlink:href="#17" y="23.881"/><use xlink:href="#18" y="26.052"/><use xlink:href="#9" y="28.223"/><use xlink:href="#19" y="30.394"/><use xlink:href="#20" y="32.565"/><use xlink:href="#21" y="34.736"/><use xlink:href="#22" y="36.907"/><use xlink:href="#13" y="39.078"/><use xlink:href="#23" y="41.249"/></svg><svg x="2380"><use xlink:href="#a"/><use xlink:href="#b" x="-.004" y="43.395"/><use xlink:href="#10"/><use xlink:href="#11" y="2.171"/><use xlink:href="#12" y="4.342"/><use xlink:href="#13" y="6.513"/><use xlink:href="#14" y="8.684"/><use xlink:href="#15" y="10.855"/><use xlink:href="#16" y="13.026"/><use xlink:href="#17" y="15.197"/><use xlink:href="#18" y="17.368"/><use xlink:href="#9" y="19.539"/><use xlink:href="#19" y="21.71"/><use xlink:href="#20" y="23.881"/><use xlink:href="#21" y="26.052"/><use xlink:href="#22" y="28.223"/><use xlink:href="#13" y="30.394"/><use xlink:href="#23" y="32.565"/><text x="4.008" y="36.406" class="h">&quot;town&quot;</text><text x="10.02" y="36.406" class="g">:</text><text x="12.024" y="36.406" class="i">&quot;Dubai&quot;</text><text x="19.038" y="36.406" class="g">,</text><text x="4.008" y="38.577" class="h">&quot;country&quot;</text><text x="13.026" y="38.577" class="g">:</text><text x="15.03" y="38.577" class="i">&quot;UAE&quot;</text><use xlink:href="#17" y="39.078"/><use xlink:href="#18" y="41.249"/></svg></svg></g></g></svg></svg>