<svg xmlns="http://www.w3.org/2000/svg" xmlns:xlink="http://www.w3.org/1999/xlink" width="1440" height="277.1"><rect width="1440" height="277.1" rx="5" ry="5" class="a"/><svg y="0%" x="0%"><circle cx="20" cy="20" r="6" fill="#ff5f58"/><circle cx="40" cy="20" r="6" fill="#ffbd2e"/><circle cx="60" cy="20" r="6" fill="#18c132"/></svg><svg height="217.1" viewBox="0 0 140 21.71" width="1400" x="15" xmlns="http://www.w3.org/2000/svg" xmlns:xlink="http://www.w3.org/1999/xlink" y="50"><style>@keyframes i{0%{transform:translateX(0)}.4%{transform:translateX(-140px)}.6%{transform:translateX(-280px)}6.9%{transform:translateX(-420px)}10%{transform:translateX(-560px)}13.1%{transform:translateX(-700px)}16.2%{transform:translateX(-840px)}19.4%{transform:translateX(-980px)}22.5%{transform:translateX(-1120px)}25.6%{transform:translateX(-1260px)}28.7%{transform:translateX(-1400px)}32.1%{transform:translateX(-1540px)}35.3%{transform:translateX(-1680px)}38.5%{transform:translateX(-1820px)}41.7%{transform:translateX(-1960px)}45.1%{transform:translateX(-2100px)}48.2%{transform:translateX(-2240px)}54.3%{transform:translateX(-2380px)}57.5%{transform:translateX(-2520px)}60.7%{transform:translateX(-2660px)}64.4%{transform:translateX(-2800px)}67.5%{transform:translateX(-2940px)}70.5%{transform:translateX(-3080px)}73.6%{transform:translateX(-3220px)}76.7%{transform:translateX(-3500px)}to{transform:translateX(-3640px)}}.a{fill:#282d35}.f{fill:#fff}.f,.k,.m{white-space:pre}.k{fill:#b9bfca;font-weight:700}.m{fill:#a8cc8c}</style><g font-family="Monaco,Consolas,Menlo,'Bitstream Vera Sans Mono','Powerline Symbols',monospace" font-size="1.67"><defs><symbol id="1"><text y="1.67" class="f">curl</text><text x="5.01" y="1.67" class="f">\</text></symbol><symbol id="2"><text x="4.008" y="1.67" class="f">--silent</text><text x="13.026" y="1.67" class="f">\</text></symbol><symbol id="3"><text x="4.008" y="1.67" class="f">--request</text><text x="14.028" y="1.67" class="f">POST</text><text x="19.038" y="1.67" class="f">&quot;http://localhost:8888/admin/interceptors/v1/vcluster/teamA/interceptor/inject-headers&quot;</text><text x="107.214" y="1.67" class="f">\</text></symbol><symbol id="4"><text x="4.008" y="1.67" class="f">--user</text><text x="11.022" y="1.67" class="f">&apos;admin:conduktor&apos;</text><text x="29.058" y="1.67" class="f">\</text></symbol><symbol id="5"><text x="4.008" y="1.67" class="f">--header</text><text x="13.026" y="1.67" class="f">&apos;Content-Type:</text><text x="28.056" y="1.67" class="f">application/json&apos;</text><text x="46.092" y="1.67" class="f">\</text></symbol><symbol id="6"><text x="4.008" y="1.67" class="f">--data-raw</text><text x="15.03" y="1.67" class="f">&apos;{&quot;pluginClass&quot;:&quot;io.conduktor.gateway.interceptor.DynamicHeaderInjectionPlugin&quot;,&quot;priority&quot;:100,&quot;config&quot;:{&quot;headers&quot;:{&quot;X-MY-KEY</text></symbol><symbol id="7"><text y="1.67" class="f">&quot;:&quot;my</text><text x="6.012" y="1.67" class="f">own</text><text x="10.02" y="1.67" class="f">value&quot;,&quot;X-USER&quot;:&quot;{{user}}&quot;,&quot;X-INTERPOLATED&quot;:&quot;User</text><text x="60.12" y="1.67" class="f">{{user}}</text><text x="69.138" y="1.67" class="f">via</text><text x="73.146" y="1.67" class="f">ip</text><text x="76.152" y="1.67" class="f">{{userIp}}&quot;}}}&apos;</text><text x="92.184" y="1.67" class="f">|</text><text x="94.188" y="1.67" class="f">jq</text></symbol><symbol id="a"><path fill="transparent" d="M0 0h140v11H0z"/></symbol><symbol id="b"><path fill="#6f7683" d="M0 0h1.102v2.171H0z"/></symbol></defs><path class="a" d="M0 0h140v21.71H0z"/><g style="animation-duration:2.950729s;animation-iteration-count:infinite;animation-name:i;animation-timing-function:steps(1,end)"><svg width="3780"><svg><use xlink:href="#a"/><use xlink:href="#b" x="-.004"/></svg><svg x="140"><use xlink:href="#a"/><use xlink:href="#b" x="-.004"/></svg><svg x="280"><use xlink:href="#a"/><use xlink:href="#b" x="12.996" y="2.146"/><use xlink:href="#1"/><text x="4.008" y="3.841" class="f">--silent</text></svg><svg x="420"><use xlink:href="#a"/><use xlink:href="#b" x="17.996" y="4.317"/><use xlink:href="#1"/><use xlink:href="#2" y="2.171"/><text x="4.008" y="6.012" class="f">--request</text><text x="14.028" y="6.012" class="f">POST</text></svg><svg x="560"><use xlink:href="#a"/><use xlink:href="#b" x="37.996" y="4.317"/><use xlink:href="#1"/><use xlink:href="#2" y="2.171"/><text x="4.008" y="6.012" class="f">--request</text><text x="14.028" y="6.012" class="f">POST</text><text x="19.038" y="6.012" class="f">&quot;http://localhost:8</text></svg><svg x="700"><use xlink:href="#a"/><use xlink:href="#b" x="57.996" y="4.317"/><use xlink:href="#1"/><use xlink:href="#2" y="2.171"/><text x="4.008" y="6.012" class="f">--request</text><text x="14.028" y="6.012" class="f">POST</text><text x="19.038" y="6.012" class="f">&quot;http://localhost:8888/admin/intercepto</text></svg><svg x="840"><use xlink:href="#a"/><use xlink:href="#b" x="77.996" y="4.317"/><use xlink:href="#1"/><use xlink:href="#2" y="2.171"/><text x="4.008" y="6.012" class="f">--request</text><text x="14.028" y="6.012" class="f">POST</text><text x="19.038" y="6.012" class="f">&quot;http://localhost:8888/admin/interceptors/v1/vcluster/teamA</text></svg><svg x="980"><use xlink:href="#a"/><use xlink:href="#b" x="97.996" y="4.317"/><use xlink:href="#1"/><use xlink:href="#2" y="2.171"/><text x="4.008" y="6.012" class="f">--request</text><text x="14.028" y="6.012" class="f">POST</text><text x="19.038" y="6.012" class="f">&quot;http://localhost:8888/admin/interceptors/v1/vcluster/teamA/interceptor/inject-</text></svg><svg x="1120"><use xlink:href="#a"/><use xlink:href="#b" x="8.996" y="6.488"/><use xlink:href="#1"/><use xlink:href="#2" y="2.171"/><use xlink:href="#3" y="4.342"/><text x="4.008" y="8.183" class="f">--use</text></svg><svg x="1260"><use xlink:href="#a"/><use xlink:href="#b" x="28.996" y="6.488"/><use xlink:href="#1"/><use xlink:href="#2" y="2.171"/><use xlink:href="#3" y="4.342"/><text x="4.008" y="8.183" class="f">--user</text><text x="11.022" y="8.183" class="f">&apos;admin:conduktor&apos;</text></svg><svg x="1400"><use xlink:href="#a"/><use xlink:href="#b" x="17.996" y="8.659"/><use xlink:href="#1"/><use xlink:href="#2" y="2.171"/><use xlink:href="#3" y="4.342"/><use xlink:href="#4" y="6.513"/><text x="4.008" y="10.354" class="f">--header</text><text x="13.026" y="10.354" class="f">&apos;Cont</text></svg><svg x="1540"><use xlink:href="#a"/><use xlink:href="#b" x="37.996" y="8.659"/><use xlink:href="#1"/><use xlink:href="#2" y="2.171"/><use xlink:href="#3" y="4.342"/><use xlink:href="#4" y="6.513"/><text x="4.008" y="10.354" class="f">--header</text><text x="13.026" y="10.354" class="f">&apos;Content-Type:</text><text x="28.056" y="10.354" class="f">applicatio</text></svg><svg x="1680"><use xlink:href="#a"/><use xlink:href="#b" x="9.996" y="10.83"/><use xlink:href="#1"/><use xlink:href="#2" y="2.171"/><use xlink:href="#3" y="4.342"/><use xlink:href="#4" y="6.513"/><use xlink:href="#5" y="8.684"/><text x="4.008" y="12.525" class="f">--data</text></svg><svg x="1820"><use xlink:href="#a"/><use xlink:href="#b" x="29.996" y="10.83"/><use xlink:href="#1"/><use xlink:href="#2" y="2.171"/><use xlink:href="#3" y="4.342"/><use xlink:href="#4" y="6.513"/><use xlink:href="#5" y="8.684"/><text x="4.008" y="12.525" class="f">--data-raw</text><text x="15.03" y="12.525" class="f">&apos;{&quot;pluginClass&quot;</text></svg><svg x="1960"><use xlink:href="#a"/><use xlink:href="#b" x="49.996" y="10.83"/><use xlink:href="#1"/><use xlink:href="#2" y="2.171"/><use xlink:href="#3" y="4.342"/><use xlink:href="#4" y="6.513"/><use xlink:href="#5" y="8.684"/><text x="4.008" y="12.525" class="f">--data-raw</text><text x="15.03" y="12.525" class="f">&apos;{&quot;pluginClass&quot;:&quot;io.conduktor.gatew</text></svg><svg x="2100"><use xlink:href="#a"/><use xlink:href="#b" x="69.996" y="10.83"/><use xlink:href="#1"/><use xlink:href="#2" y="2.171"/><use xlink:href="#3" y="4.342"/><use xlink:href="#4" y="6.513"/><use xlink:href="#5" y="8.684"/><text x="4.008" y="12.525" class="f">--data-raw</text><text x="15.03" y="12.525" class="f">&apos;{&quot;pluginClass&quot;:&quot;io.conduktor.gateway.interceptor.Dynam</text></svg><svg x="2240"><use xlink:href="#a"/><use xlink:href="#b" x="89.996" y="10.83"/><use xlink:href="#1"/><use xlink:href="#2" y="2.171"/><use xlink:href="#3" y="4.342"/><use xlink:href="#4" y="6.513"/><use xlink:href="#5" y="8.684"/><text x="4.008" y="12.525" class="f">--data-raw</text><text x="15.03" y="12.525" class="f">&apos;{&quot;pluginClass&quot;:&quot;io.conduktor.gateway.interceptor.DynamicHeaderInjectionPlu</text></svg><svg x="2380"><use xlink:href="#a"/><use xlink:href="#b" x="109.996" y="10.83"/><use xlink:href="#1"/><use xlink:href="#2" y="2.171"/><use xlink:href="#3" y="4.342"/><use xlink:href="#4" y="6.513"/><use xlink:href="#5" y="8.684"/><text x="4.008" y="12.525" class="f">--data-raw</text><text x="15.03" y="12.525" class="f">&apos;{&quot;pluginClass&quot;:&quot;io.conduktor.gateway.interceptor.DynamicHeaderInjectionPlugin&quot;,&quot;priority&quot;:100,</text></svg><svg x="2520"><use xlink:href="#a"/><use xlink:href="#b" x="129.996" y="10.83"/><use xlink:href="#1"/><use xlink:href="#2" y="2.171"/><use xlink:href="#3" y="4.342"/><use xlink:href="#4" y="6.513"/><use xlink:href="#5" y="8.684"/><text x="4.008" y="12.525" class="f">--data-raw</text><text x="15.03" y="12.525" class="f">&apos;{&quot;pluginClass&quot;:&quot;io.conduktor.gateway.interceptor.DynamicHeaderInjectionPlugin&quot;,&quot;priority&quot;:100,&quot;config&quot;:{&quot;headers&quot;:</text></svg><svg x="2660"><use xlink:href="#a"/><use xlink:href="#b" x="9.996" y="13.001"/><use xlink:href="#1"/><use xlink:href="#2" y="2.171"/><use xlink:href="#3" y="4.342"/><use xlink:href="#4" y="6.513"/><use xlink:href="#5" y="8.684"/><use xlink:href="#6" y="10.855"/><text y="14.696" class="f">&quot;:&quot;my</text><text x="6.012" y="14.696" class="f">own</text></svg><svg x="2800"><use xlink:href="#a"/><use xlink:href="#b" x="29.996" y="13.001"/><use xlink:href="#1"/><use xlink:href="#2" y="2.171"/><use xlink:href="#3" y="4.342"/><use xlink:href="#4" y="6.513"/><use xlink:href="#5" y="8.684"/><use xlink:href="#6" y="10.855"/><text y="14.696" class="f">&quot;:&quot;my</text><text x="6.012" y="14.696" class="f">own</text><text x="10.02" y="14.696" class="f">value&quot;,&quot;X-USER&quot;:&quot;{{u</text></svg><svg x="2940"><use xlink:href="#a"/><use xlink:href="#b" x="49.996" y="13.001"/><use xlink:href="#1"/><use xlink:href="#2" y="2.171"/><use xlink:href="#3" y="4.342"/><use xlink:href="#4" y="6.513"/><use xlink:href="#5" y="8.684"/><use xlink:href="#6" y="10.855"/><text y="14.696" class="f">&quot;:&quot;my</text><text x="6.012" y="14.696" class="f">own</text><text x="10.02" y="14.696" class="f">value&quot;,&quot;X-USER&quot;:&quot;{{user}}&quot;,&quot;X-INTERPOLAT</text></svg><svg x="3080"><use xlink:href="#a"/><use xlink:href="#b" x="69.996" y="13.001"/><use xlink:href="#1"/><use xlink:href="#2" y="2.171"/><use xlink:href="#3" y="4.342"/><use xlink:href="#4" y="6.513"/><use xlink:href="#5" y="8.684"/><use xlink:href="#6" y="10.855"/><text y="14.696" class="f">&quot;:&quot;my</text><text x="6.012" y="14.696" class="f">own</text><text x="10.02" y="14.696" class="f">value&quot;,&quot;X-USER&quot;:&quot;{{user}}&quot;,&quot;X-INTERPOLATED&quot;:&quot;User</text><text x="60.12" y="14.696" class="f">{{user}}</text><text x="69.138" y="14.696" class="f">v</text></svg><svg x="3220"><use xlink:href="#a"/><use xlink:href="#b" x="89.996" y="13.001"/><use xlink:href="#1"/><use xlink:href="#2" y="2.171"/><use xlink:href="#3" y="4.342"/><use xlink:href="#4" y="6.513"/><use xlink:href="#5" y="8.684"/><use xlink:href="#6" y="10.855"/><text y="14.696" class="f">&quot;:&quot;my</text><text x="6.012" y="14.696" class="f">own</text><text x="10.02" y="14.696" class="f">value&quot;,&quot;X-USER&quot;:&quot;{{user}}&quot;,&quot;X-INTERPOLATED&quot;:&quot;User</text><text x="60.12" y="14.696" class="f">{{user}}</text><text x="69.138" y="14.696" class="f">via</text><text x="73.146" y="14.696" class="f">ip</text><text x="76.152" y="14.696" class="f">{{userIp}}&quot;}}}</text></svg><svg x="3360"><use xlink:href="#a"/><use xlink:href="#b" x="-.004" y="15.172"/><use xlink:href="#1"/><use xlink:href="#2" y="2.171"/><use xlink:href="#3" y="4.342"/><use xlink:href="#4" y="6.513"/><use xlink:href="#5" y="8.684"/><use xlink:href="#6" y="10.855"/><use xlink:href="#7" y="13.026"/></svg><svg x="3500"><use xlink:href="#a"/><use xlink:href="#b" x="-.004" y="17.343"/><use xlink:href="#1"/><use xlink:href="#2" y="2.171"/><use xlink:href="#3" y="4.342"/><use xlink:href="#4" y="6.513"/><use xlink:href="#5" y="8.684"/><use xlink:href="#6" y="10.855"/><use xlink:href="#7" y="13.026"/></svg><svg x="3640"><use xlink:href="#a"/><use xlink:href="#b" x="-.004" y="21.685"/><use xlink:href="#2"/><use xlink:href="#3" y="2.171"/><use xlink:href="#4" y="4.342"/><use xlink:href="#5" y="6.513"/><use xlink:href="#6" y="8.684"/><use xlink:href="#7" y="10.855"/><text y="16.867" class="k">{</text><text x="2.004" y="19.038" style="white-space:pre" fill="#71bef2" font-weight="700">&quot;message&quot;</text><text x="11.022" y="19.038" class="k">:</text><text x="13.026" y="19.038" class="m">&quot;inject-headers</text><text x="29.058" y="19.038" class="m">is</text><text x="32.064" y="19.038" class="m">created&quot;</text><text y="21.209" class="k">}</text></svg></svg></g></g></svg></svg>