<svg xmlns="http://www.w3.org/2000/svg" xmlns:xlink="http://www.w3.org/1999/xlink" width="1440" height="211.97"><rect width="1440" height="211.97" rx="5" ry="5" class="a"/><svg y="0%" x="0%"><circle cx="20" cy="20" r="6" fill="#ff5f58"/><circle cx="40" cy="20" r="6" fill="#ffbd2e"/><circle cx="60" cy="20" r="6" fill="#18c132"/></svg><svg height="151.97" viewBox="0 0 140 15.197" width="1400" x="15" xmlns="http://www.w3.org/2000/svg" xmlns:xlink="http://www.w3.org/1999/xlink" y="50"><style>@keyframes i{0%{transform:translateX(0)}.6%{transform:translateX(-140px)}.8%{transform:translateX(-280px)}7.3%{transform:translateX(-420px)}10.6%{transform:translateX(-560px)}13.9%{transform:translateX(-700px)}17.2%{transform:translateX(-840px)}20.4%{transform:translateX(-980px)}23.7%{transform:translateX(-1120px)}27%{transform:translateX(-1260px)}30.4%{transform:translateX(-1400px)}33.7%{transform:translateX(-1540px)}37%{transform:translateX(-1680px)}40.3%{transform:translateX(-1820px)}43.5%{transform:translateX(-1960px)}46.8%{transform:translateX(-2100px)}50.1%{transform:translateX(-2240px)}53.5%{transform:translateX(-2380px)}60.1%{transform:translateX(-2520px)}63.3%{transform:translateX(-2800px)}to{transform:translateX(-2940px)}}.a{fill:#282d35}.f,.k{fill:#fff;white-space:pre}.k{fill:#b9c0cb}</style><g font-family="Monaco,Consolas,Menlo,'Bitstream Vera Sans Mono','Powerline Symbols',monospace" font-size="1.67"><defs><symbol id="1"><text y="1.67" class="f">echo</text><text x="5.01" y="1.67" class="f">&apos;{&quot;msg&quot;:&quot;hello</text><text x="20.04" y="1.67" class="f">world&quot;}&apos;</text><text x="29.058" y="1.67" class="f">|</text><text x="31.062" y="1.67" class="f">\</text></symbol><symbol id="2"><text x="4.008" y="1.67" class="f">kafka-console-producer</text><text x="27.054" y="1.67" class="f">\</text></symbol><symbol id="3"><text x="8.016" y="1.67" class="f">--bootstrap-server</text><text x="27.054" y="1.67" class="f">localhost:6969</text><text x="42.084" y="1.67" class="f">\</text></symbol><symbol id="4"><text x="8.016" y="1.67" class="f">--producer.config</text><text x="26.052" y="1.67" class="f">teamA-sa.properties</text><text x="46.092" y="1.67" class="f">\</text></symbol><symbol id="5"><text x="8.016" y="1.67" class="f">--topic</text><text x="16.032" y="1.67" class="f">users</text></symbol><symbol id="a"><path fill="transparent" d="M0 0h140v8H0z"/></symbol><symbol id="b"><path fill="#6f7683" d="M0 0h1.102v2.171H0z"/></symbol></defs><path class="a" d="M0 0h140v15.197H0z"/><g style="animation-duration:2.850562s;animation-iteration-count:infinite;animation-name:i;animation-timing-function:steps(1,end)"><svg width="3080"><svg><use xlink:href="#a"/><use xlink:href="#b" x="-.004"/></svg><svg x="140"><use xlink:href="#a"/><use xlink:href="#b" x="-.004"/></svg><svg x="280"><use xlink:href="#a"/><use xlink:href="#b" x="9.996"/><text y="1.67" class="f">echo</text><text x="5.01" y="1.67" class="f">&apos;{&quot;ms</text></svg><svg x="420"><use xlink:href="#a"/><use xlink:href="#b" x="19.996"/><text y="1.67" class="f">echo</text><text x="5.01" y="1.67" class="f">&apos;{&quot;msg&quot;:&quot;hello</text></svg><svg x="560"><use xlink:href="#a"/><use xlink:href="#b" x="29.996"/><text y="1.67" class="f">echo</text><text x="5.01" y="1.67" class="f">&apos;{&quot;msg&quot;:&quot;hello</text><text x="20.04" y="1.67" class="f">world&quot;}&apos;</text><text x="29.058" y="1.67" class="f">|</text></svg><svg x="700"><use xlink:href="#a"/><use xlink:href="#b" x="6.996" y="2.146"/><use xlink:href="#1"/><text x="4.008" y="3.841" class="f">kaf</text></svg><svg x="840"><use xlink:href="#a"/><use xlink:href="#b" x="16.996" y="2.146"/><use xlink:href="#1"/><text x="4.008" y="3.841" class="f">kafka-console</text></svg><svg x="980"><use xlink:href="#a"/><use xlink:href="#b" x="26.996" y="2.146"/><use xlink:href="#1"/><text x="4.008" y="3.841" class="f">kafka-console-producer</text></svg><svg x="1120"><use xlink:href="#a"/><use xlink:href="#b" x="7.996" y="4.317"/><use xlink:href="#1"/><use xlink:href="#2" y="2.171"/></svg><svg x="1260"><use xlink:href="#a"/><use xlink:href="#b" x="17.996" y="4.317"/><use xlink:href="#1"/><use xlink:href="#2" y="2.171"/><text x="8.016" y="6.012" class="f">--bootstra</text></svg><svg x="1400"><use xlink:href="#a"/><use xlink:href="#b" x="27.996" y="4.317"/><use xlink:href="#1"/><use xlink:href="#2" y="2.171"/><text x="8.016" y="6.012" class="f">--bootstrap-server</text><text x="27.054" y="6.012" class="f">l</text></svg><svg x="1540"><use xlink:href="#a"/><use xlink:href="#b" x="37.996" y="4.317"/><use xlink:href="#1"/><use xlink:href="#2" y="2.171"/><text x="8.016" y="6.012" class="f">--bootstrap-server</text><text x="27.054" y="6.012" class="f">localhost:6</text></svg><svg x="1680"><use xlink:href="#a"/><use xlink:href="#b" x="3.996" y="6.488"/><use xlink:href="#1"/><use xlink:href="#2" y="2.171"/><use xlink:href="#3" y="4.342"/></svg><svg x="1820"><use xlink:href="#a"/><use xlink:href="#b" x="13.996" y="6.488"/><use xlink:href="#1"/><use xlink:href="#2" y="2.171"/><use xlink:href="#3" y="4.342"/><text x="8.016" y="8.183" class="f">--prod</text></svg><svg x="1960"><use xlink:href="#a"/><use xlink:href="#b" x="23.996" y="6.488"/><use xlink:href="#1"/><use xlink:href="#2" y="2.171"/><use xlink:href="#3" y="4.342"/><text x="8.016" y="8.183" class="f">--producer.confi</text></svg><svg x="2100"><use xlink:href="#a"/><use xlink:href="#b" x="33.996" y="6.488"/><use xlink:href="#1"/><use xlink:href="#2" y="2.171"/><use xlink:href="#3" y="4.342"/><text x="8.016" y="8.183" class="f">--producer.config</text><text x="26.052" y="8.183" class="f">teamA-sa</text></svg><svg x="2240"><use xlink:href="#a"/><use xlink:href="#b" x="43.996" y="6.488"/><use xlink:href="#1"/><use xlink:href="#2" y="2.171"/><use xlink:href="#3" y="4.342"/><text x="8.016" y="8.183" class="f">--producer.config</text><text x="26.052" y="8.183" class="f">teamA-sa.propertie</text></svg><svg x="2380"><use xlink:href="#a"/><use xlink:href="#b" x="5.996" y="8.659"/><use xlink:href="#1"/><use xlink:href="#2" y="2.171"/><use xlink:href="#3" y="4.342"/><use xlink:href="#4" y="6.513"/></svg><svg x="2520"><use xlink:href="#a"/><use xlink:href="#b" x="15.996" y="8.659"/><use xlink:href="#1"/><use xlink:href="#2" y="2.171"/><use xlink:href="#3" y="4.342"/><use xlink:href="#4" y="6.513"/><text x="8.016" y="10.354" class="f">--topic</text></svg><svg x="2660"><use xlink:href="#a"/><use xlink:href="#b" x="20.996" y="8.659"/><use xlink:href="#1"/><use xlink:href="#2" y="2.171"/><use xlink:href="#3" y="4.342"/><use xlink:href="#4" y="6.513"/><use xlink:href="#5" y="8.684"/></svg><svg x="2800"><use xlink:href="#a"/><use xlink:href="#b" x="-.004" y="10.83"/><use xlink:href="#1"/><use xlink:href="#2" y="2.171"/><use xlink:href="#3" y="4.342"/><use xlink:href="#4" y="6.513"/><use xlink:href="#5" y="8.684"/></svg><svg x="2940"><use xlink:href="#a"/><use xlink:href="#b" x="-.004" y="15.172"/><use xlink:href="#3"/><use xlink:href="#4" y="2.171"/><use xlink:href="#5" y="4.342"/><text y="8.183" class="k">[2024-01-23</text><text x="12.024" y="8.183" class="k">00:42:47,766]</text><text x="26.052" y="8.183" class="k">ERROR</text><text x="32.064" y="8.183" class="k">Error</text><text x="38.076" y="8.183" class="k">when</text><text x="43.086" y="8.183" class="k">sending</text><text x="51.102" y="8.183" class="k">message</text><text x="59.118" y="8.183" class="k">to</text><text x="62.124" y="8.183" class="k">topic</text><text x="68.136" y="8.183" class="k">users</text><text x="74.148" y="8.183" class="k">with</text><text x="79.158" y="8.183" class="k">key:</text><text x="84.168" y="8.183" class="k">null,</text><text x="90.18" y="8.183" class="k">value:</text><text x="97.194" y="8.183" class="k">21</text><text x="100.2" y="8.183" class="k">bytes</text><text x="106.212" y="8.183" class="k">with</text><text x="111.222" y="8.183" class="k">error:</text><text x="118.236" y="8.183" class="k">(org.apache.kafka.clie</text><text y="10.354" class="k">nts.producer.internals.ErrorLoggingCallback)</text><text y="12.525" class="k">org.apache.kafka.common.errors.PolicyViolationException:</text><text x="57.114" y="12.525" class="k">Request</text><text x="65.13" y="12.525" class="k">parameters</text><text x="76.152" y="12.525" class="k">do</text><text x="79.158" y="12.525" class="k">not</text><text x="83.166" y="12.525" class="k">satisfy</text><text x="91.182" y="12.525" class="k">the</text><text x="95.19" y="12.525" class="k">configured</text><text x="106.212" y="12.525" class="k">policy.</text><text x="114.228" y="12.525" class="k">Topic</text><text x="120.24" y="12.525" class="k">&apos;users&apos;</text><text x="128.256" y="12.525" class="k">with</text><text x="133.266" y="12.525" class="k">schemaI</text><text y="14.696" class="k">d</text><text x="2.004" y="14.696" class="k">is</text><text x="5.01" y="14.696" class="k">required.</text></svg></svg></g></g></svg></svg>